<svg width="200" height="156" viewBox="0 0 200 156" fill="none" xmlns="http://www.w3.org/2000/svg">
<rect width="200" height="156" rx="16" fill="white" fill-opacity="0.7"/>
<rect x="16" y="16" width="32" height="32" rx="8" fill="#80B9FB"/>
<path d="M25.25 38.7499H38.75M26 36.4999H38M27.5 36.4999V32.7499M30.5 36.4999V32.7499M33.5 36.4999V32.7499M36.5 36.4999V32.7499M32 28.255L32.0055 28.25M38.75 30.4999L33.5945 25.9172C33.0303 25.4157 32.7482 25.165 32.4299 25.0698C32.1494 24.9859 31.8506 24.9859 31.5701 25.0698C31.2518 25.165 30.9697 25.4157 30.4055 25.9172L25.25 30.4999H38.75Z" stroke="#1A1D27" stroke-width="1.5" stroke-linecap="round" stroke-linejoin="round"/>
<path d="M17.1378 78V64.9091H22.3026C23.2955 64.9091 24.1413 65.0987 24.8402 65.478C25.5391 65.853 26.0717 66.375 26.4382 67.044C26.8089 67.7088 26.9943 68.4759 26.9943 69.3452C26.9943 70.2145 26.8068 70.9815 26.4318 71.6463C26.0568 72.3111 25.5135 72.8288 24.8018 73.1996C24.0945 73.5703 23.2379 73.7557 22.2322 73.7557H18.9403V71.5376H21.7848C22.3175 71.5376 22.7564 71.446 23.1016 71.2628C23.451 71.0753 23.7109 70.8175 23.8814 70.4893C24.0561 70.157 24.1435 69.7756 24.1435 69.3452C24.1435 68.9105 24.0561 68.5312 23.8814 68.2074C23.7109 67.8793 23.451 67.6257 23.1016 67.4467C22.7521 67.2635 22.3089 67.1719 21.772 67.1719H19.9055V78H17.1378ZM28.3809 78V68.1818H31.0209V69.8949H31.1231C31.3021 69.2855 31.6025 68.8253 32.0244 68.5142C32.4463 68.1989 32.9321 68.0412 33.4818 68.0412C33.6182 68.0412 33.7652 68.0497 33.9228 68.0668C34.0805 68.0838 34.219 68.1072 34.3383 68.1371V70.5533C34.2105 70.5149 34.0336 70.4808 33.8078 70.451C33.5819 70.4212 33.3753 70.4062 33.1878 70.4062C32.7872 70.4062 32.4292 70.4936 32.1139 70.6683C31.8028 70.8388 31.5557 71.0774 31.3724 71.3842C31.1934 71.6911 31.104 72.0447 31.104 72.4453V78H28.3809ZM39.3652 78.1918C38.3723 78.1918 37.5137 77.9808 36.7892 77.5589C36.0691 77.1328 35.513 76.5405 35.1209 75.782C34.7289 75.0192 34.5328 74.1349 34.5328 73.1293C34.5328 72.1151 34.7289 71.2287 35.1209 70.4702C35.513 69.7074 36.0691 69.1151 36.7892 68.6932C37.5137 68.267 38.3723 68.054 39.3652 68.054C40.3581 68.054 41.2147 68.267 41.9348 68.6932C42.6593 69.1151 43.2175 69.7074 43.6095 70.4702C44.0016 71.2287 44.1976 72.1151 44.1976 73.1293C44.1976 74.1349 44.0016 75.0192 43.6095 75.782C43.2175 76.5405 42.6593 77.1328 41.9348 77.5589C41.2147 77.9808 40.3581 78.1918 39.3652 78.1918ZM39.378 76.0824C39.8297 76.0824 40.2068 75.9545 40.5094 75.6989C40.812 75.4389 41.0399 75.0852 41.1934 74.6378C41.351 74.1903 41.4299 73.6811 41.4299 73.1101C41.4299 72.5391 41.351 72.0298 41.1934 71.5824C41.0399 71.1349 40.812 70.7812 40.5094 70.5213C40.2068 70.2614 39.8297 70.1314 39.378 70.1314C38.922 70.1314 38.5385 70.2614 38.2274 70.5213C37.9206 70.7812 37.6884 71.1349 37.5307 71.5824C37.3773 72.0298 37.3006 72.5391 37.3006 73.1101C37.3006 73.6811 37.3773 74.1903 37.5307 74.6378C37.6884 75.0852 37.9206 75.4389 38.2274 75.6989C38.5385 75.9545 38.922 76.0824 39.378 76.0824ZM50.0443 78.1918C49.0386 78.1918 48.1736 77.9787 47.4491 77.5526C46.7289 77.1222 46.175 76.5256 45.7872 75.7628C45.4037 75 45.2119 74.1222 45.2119 73.1293C45.2119 72.1236 45.4058 71.2415 45.7936 70.483C46.1856 69.7202 46.7417 69.1257 47.4619 68.6996C48.1821 68.2692 49.0386 68.054 50.0315 68.054C50.888 68.054 51.638 68.2095 52.2815 68.5206C52.925 68.8317 53.4342 69.2685 53.8092 69.831C54.1842 70.3935 54.3909 71.054 54.4292 71.8125H51.8596C51.7872 71.3224 51.5954 70.9283 51.2843 70.63C50.9775 70.3274 50.5748 70.1761 50.0763 70.1761C49.6544 70.1761 49.2858 70.2912 48.9704 70.5213C48.6593 70.7472 48.4164 71.0774 48.2417 71.5121C48.067 71.9467 47.9797 72.473 47.9797 73.0909C47.9797 73.7173 48.0649 74.25 48.2353 74.6889C48.4101 75.1278 48.6551 75.4624 48.9704 75.6925C49.2858 75.9226 49.6544 76.0376 50.0763 76.0376C50.3873 76.0376 50.6664 75.9737 50.9136 75.8459C51.165 75.718 51.3717 75.5327 51.5336 75.2898C51.6998 75.0426 51.8085 74.7464 51.8596 74.4013H54.4292C54.3866 75.1513 54.1821 75.8118 53.8156 76.3828C53.4534 76.9496 52.9527 77.3928 52.3135 77.7124C51.6743 78.032 50.9179 78.1918 50.0443 78.1918ZM60.2871 78.1918C59.2772 78.1918 58.4078 77.9872 57.6791 77.5781C56.9547 77.1648 56.3965 76.581 56.0044 75.8267C55.6124 75.0682 55.4164 74.1712 55.4164 73.1357C55.4164 72.1257 55.6124 71.2393 56.0044 70.4766C56.3965 69.7138 56.9483 69.1193 57.66 68.6932C58.3759 68.267 59.2154 68.054 60.1784 68.054C60.8262 68.054 61.4291 68.1584 61.9874 68.3672C62.5499 68.5717 63.0399 68.8807 63.4576 69.294C63.8794 69.7074 64.2076 70.2273 64.4419 70.8537C64.6763 71.4759 64.7935 72.2045 64.7935 73.0398V73.7876H56.503V72.1001H62.2303C62.2303 71.7081 62.1451 71.3608 61.9746 71.0582C61.8041 70.7557 61.5676 70.5192 61.2651 70.3487C60.9668 70.174 60.6195 70.0866 60.2232 70.0866C59.8098 70.0866 59.4433 70.1825 59.1237 70.3743C58.8084 70.5618 58.5612 70.8153 58.3823 71.1349C58.2033 71.4503 58.1117 71.8018 58.1074 72.1896V73.794C58.1074 74.2798 58.1969 74.6996 58.3759 75.0533C58.5591 75.407 58.8169 75.6797 59.1493 75.8714C59.4817 76.0632 59.8759 76.1591 60.3318 76.1591C60.6344 76.1591 60.9114 76.1165 61.1628 76.0312C61.4142 75.946 61.6294 75.8182 61.8084 75.6477C61.9874 75.4773 62.1237 75.2685 62.2175 75.0213L64.736 75.1875C64.6081 75.7926 64.346 76.321 63.9497 76.7727C63.5577 77.2202 63.0506 77.5696 62.4284 77.821C61.8105 78.0682 61.0968 78.1918 60.2871 78.1918ZM68.9335 72.3239V78H66.2105V68.1818H68.8056V69.9141H68.9207C69.138 69.343 69.5024 68.8913 70.0137 68.5589C70.5251 68.2223 71.1451 68.054 71.8738 68.054C72.5556 68.054 73.1501 68.2031 73.6572 68.5014C74.1643 68.7997 74.5585 69.2259 74.8397 69.7798C75.121 70.3295 75.2616 70.9858 75.2616 71.7486V78H72.5386V72.2344C72.5429 71.6335 72.3895 71.1648 72.0784 70.8281C71.7673 70.4872 71.339 70.3168 70.7936 70.3168C70.4271 70.3168 70.1032 70.3956 69.822 70.5533C69.545 70.7109 69.3277 70.9411 69.17 71.2436C69.0166 71.5419 68.9377 71.902 68.9335 72.3239ZM82.27 68.1818V70.2273H76.3574V68.1818H82.27ZM77.6997 65.8295H80.4227V74.983C80.4227 75.2344 80.4611 75.4304 80.5378 75.571C80.6145 75.7074 80.721 75.8033 80.8574 75.8587C80.998 75.9141 81.16 75.9418 81.3432 75.9418C81.471 75.9418 81.5989 75.9311 81.7267 75.9098C81.8546 75.8842 81.9526 75.8651 82.0208 75.8523L82.449 77.8786C82.3127 77.9212 82.1209 77.9702 81.8737 78.0256C81.6266 78.0852 81.3262 78.1214 80.9725 78.1342C80.3162 78.1598 79.7409 78.0724 79.2466 77.8722C78.7565 77.6719 78.3752 77.3608 78.1024 76.9389C77.8297 76.517 77.6955 75.9844 77.6997 75.3409V65.8295ZM83.6838 78V68.1818H86.4069V78H83.6838ZM85.0517 66.9162C84.6469 66.9162 84.2996 66.782 84.0098 66.5135C83.7243 66.2408 83.5816 65.9148 83.5816 65.5355C83.5816 65.1605 83.7243 64.8388 84.0098 64.5703C84.2996 64.2976 84.6469 64.1612 85.0517 64.1612C85.4566 64.1612 85.8017 64.2976 86.0872 64.5703C86.377 64.8388 86.5219 65.1605 86.5219 65.5355C86.5219 65.9148 86.377 66.2408 86.0872 66.5135C85.8017 66.782 85.4566 66.9162 85.0517 66.9162ZM98.3303 73.8196V68.1818H101.053V78H98.439V76.2166H98.3367C98.1151 76.7919 97.7465 77.2543 97.2309 77.6037C96.7195 77.9531 96.0952 78.1278 95.358 78.1278C94.7018 78.1278 94.1243 77.9787 93.6258 77.6804C93.1272 77.3821 92.7373 76.9581 92.456 76.4084C92.179 75.8587 92.0384 75.2003 92.0341 74.4332V68.1818H94.7572V73.9474C94.7614 74.527 94.917 74.9851 95.2238 75.3217C95.5306 75.6584 95.9418 75.8267 96.4574 75.8267C96.7856 75.8267 97.0924 75.7521 97.3779 75.603C97.6634 75.4496 97.8935 75.2237 98.0682 74.9254C98.2472 74.6271 98.3346 74.2585 98.3303 73.8196ZM105.594 72.3239V78H102.871V68.1818H105.467V69.9141H105.582C105.799 69.343 106.163 68.8913 106.675 68.5589C107.186 68.2223 107.806 68.054 108.535 68.054C109.217 68.054 109.811 68.2031 110.318 68.5014C110.825 68.7997 111.219 69.2259 111.501 69.7798C111.782 70.3295 111.923 70.9858 111.923 71.7486V78H109.2V72.2344C109.204 71.6335 109.05 71.1648 108.739 70.8281C108.428 70.4872 108 70.3168 107.455 70.3168C107.088 70.3168 106.764 70.3956 106.483 70.5533C106.206 70.7109 105.989 70.9411 105.831 71.2436C105.678 71.5419 105.599 71.902 105.594 72.3239ZM117.566 78V64.9091H120.289V69.831H120.372C120.491 69.5668 120.664 69.2983 120.89 69.0256C121.12 68.7486 121.418 68.5185 121.785 68.3352C122.155 68.1477 122.616 68.054 123.165 68.054C123.881 68.054 124.542 68.2415 125.147 68.6165C125.752 68.9872 126.236 69.5476 126.598 70.2976C126.96 71.0433 127.141 71.9787 127.141 73.1037C127.141 74.1989 126.964 75.1236 126.611 75.8778C126.261 76.6278 125.784 77.1967 125.179 77.5845C124.578 77.968 123.905 78.1598 123.159 78.1598C122.63 78.1598 122.181 78.0724 121.81 77.8977C121.444 77.723 121.143 77.5036 120.909 77.2393C120.674 76.9709 120.496 76.7003 120.372 76.4276H120.25V78H117.566ZM120.231 73.0909C120.231 73.6747 120.312 74.1839 120.474 74.6186C120.636 75.0533 120.871 75.392 121.177 75.6349C121.484 75.8736 121.857 75.9929 122.296 75.9929C122.739 75.9929 123.114 75.8714 123.421 75.6286C123.728 75.3814 123.96 75.0405 124.118 74.6058C124.28 74.1669 124.361 73.6619 124.361 73.0909C124.361 72.5241 124.282 72.0256 124.124 71.5952C123.966 71.1648 123.734 70.8281 123.427 70.5852C123.121 70.3423 122.743 70.2209 122.296 70.2209C121.853 70.2209 121.478 70.3381 121.171 70.5724C120.868 70.8068 120.636 71.1392 120.474 71.5696C120.312 72 120.231 72.5071 120.231 73.0909ZM131.398 78.1854C130.771 78.1854 130.213 78.0767 129.723 77.8594C129.233 77.6378 128.845 77.3118 128.56 76.8814C128.278 76.4467 128.138 75.9055 128.138 75.2578C128.138 74.7124 128.238 74.2543 128.438 73.8835C128.639 73.5128 128.911 73.2145 129.256 72.9886C129.602 72.7628 129.994 72.5923 130.433 72.4773C130.876 72.3622 131.34 72.2812 131.826 72.2344C132.397 72.1747 132.857 72.1193 133.207 72.0682C133.556 72.0128 133.81 71.9318 133.967 71.8253C134.125 71.7187 134.204 71.5611 134.204 71.3523V71.3139C134.204 70.9091 134.076 70.5959 133.82 70.3743C133.569 70.1527 133.211 70.0419 132.746 70.0419C132.256 70.0419 131.867 70.1506 131.577 70.3679C131.287 70.581 131.095 70.8494 131.001 71.1733L128.483 70.9688C128.611 70.3722 128.862 69.8565 129.237 69.4219C129.612 68.983 130.096 68.6463 130.688 68.4119C131.285 68.1733 131.975 68.054 132.759 68.054C133.305 68.054 133.827 68.1179 134.325 68.2457C134.828 68.3736 135.273 68.5717 135.661 68.8402C136.053 69.1087 136.362 69.4538 136.588 69.8757C136.814 70.2933 136.927 70.794 136.927 71.3778V78H134.345V76.6385H134.268C134.11 76.9453 133.899 77.2159 133.635 77.4503C133.371 77.6804 133.053 77.8615 132.683 77.9936C132.312 78.1214 131.884 78.1854 131.398 78.1854ZM132.178 76.3061C132.578 76.3061 132.932 76.2273 133.239 76.0696C133.545 75.9077 133.786 75.6903 133.961 75.4176C134.136 75.1449 134.223 74.8359 134.223 74.4908V73.4489C134.138 73.5043 134.021 73.5554 133.871 73.6023C133.727 73.6449 133.563 73.6854 133.379 73.7237C133.196 73.7578 133.013 73.7898 132.83 73.8196C132.646 73.8452 132.48 73.8686 132.331 73.8899C132.011 73.9368 131.732 74.0114 131.494 74.1136C131.255 74.2159 131.07 74.3544 130.938 74.5291C130.805 74.6996 130.739 74.9126 130.739 75.1683C130.739 75.5391 130.874 75.8224 131.142 76.0185C131.415 76.2102 131.76 76.3061 132.178 76.3061ZM141.402 72.3239V78H138.679V68.1818H141.275V69.9141H141.39C141.607 69.343 141.971 68.8913 142.483 68.5589C142.994 68.2223 143.614 68.054 144.343 68.054C145.025 68.054 145.619 68.2031 146.126 68.5014C146.633 68.7997 147.027 69.2259 147.309 69.7798C147.59 70.3295 147.731 70.9858 147.731 71.7486V78H145.008V72.2344C145.012 71.6335 144.858 71.1648 144.547 70.8281C144.236 70.4872 143.808 70.3168 143.263 70.3168C142.896 70.3168 142.572 70.3956 142.291 70.5533C142.014 70.7109 141.797 70.9411 141.639 71.2436C141.486 71.5419 141.407 71.902 141.402 72.3239ZM151.984 75.1747L151.99 71.9084H152.387L155.532 68.1818H158.657L154.432 73.1165H153.787L151.984 75.1747ZM149.517 78V64.9091H152.24V78H149.517ZM155.653 78L152.764 73.7237L154.579 71.7997L158.843 78H155.653ZM165.929 73.8196V68.1818H168.652V78H166.038V76.2166H165.936C165.714 76.7919 165.346 77.2543 164.83 77.6037C164.319 77.9531 163.694 78.1278 162.957 78.1278C162.301 78.1278 161.723 77.9787 161.225 77.6804C160.726 77.3821 160.336 76.9581 160.055 76.4084C159.778 75.8587 159.638 75.2003 159.633 74.4332V68.1818H162.356V73.9474C162.361 74.527 162.516 74.9851 162.823 75.3217C163.13 75.6584 163.541 75.8267 164.057 75.8267C164.385 75.8267 164.692 75.7521 164.977 75.603C165.263 75.4496 165.493 75.2237 165.667 74.9254C165.846 74.6271 165.934 74.2585 165.929 73.8196ZM19.554 97.1747L19.5604 93.9084H19.9567L23.1016 90.1818H26.2273L22.0021 95.1165H21.3565L19.554 97.1747ZM17.0866 100V86.9091H19.8097V100H17.0866ZM23.223 100L20.3338 95.7237L22.1491 93.7997L26.4126 100H23.223ZM31.235 100.192C30.2421 100.192 29.3834 99.9808 28.659 99.5589C27.9388 99.1328 27.3827 98.5405 26.9907 97.782C26.5986 97.0192 26.4026 96.1349 26.4026 95.1293C26.4026 94.1151 26.5986 93.2287 26.9907 92.4702C27.3827 91.7074 27.9388 91.1151 28.659 90.6932C29.3834 90.267 30.2421 90.054 31.235 90.054C32.2279 90.054 33.0844 90.267 33.8046 90.6932C34.529 91.1151 35.0873 91.7074 35.4793 92.4702C35.8714 93.2287 36.0674 94.1151 36.0674 95.1293C36.0674 96.1349 35.8714 97.0192 35.4793 97.782C35.0873 98.5405 34.529 99.1328 33.8046 99.5589C33.0844 99.9808 32.2279 100.192 31.235 100.192ZM31.2478 98.0824C31.6995 98.0824 32.0766 97.9545 32.3792 97.6989C32.6817 97.4389 32.9097 97.0852 33.0631 96.6378C33.2208 96.1903 33.2996 95.6811 33.2996 95.1101C33.2996 94.5391 33.2208 94.0298 33.0631 93.5824C32.9097 93.1349 32.6817 92.7812 32.3792 92.5213C32.0766 92.2614 31.6995 92.1314 31.2478 92.1314C30.7918 92.1314 30.4083 92.2614 30.0972 92.5213C29.7904 92.7812 29.5581 93.1349 29.4005 93.5824C29.2471 94.0298 29.1704 94.5391 29.1704 95.1101C29.1704 95.6811 29.2471 96.1903 29.4005 96.6378C29.5581 97.0852 29.7904 97.4389 30.0972 97.6989C30.4083 97.9545 30.7918 98.0824 31.2478 98.0824ZM37.478 100V90.1818H40.0731V91.9141H40.1882C40.3927 91.3388 40.7337 90.8849 41.2109 90.5526C41.6882 90.2202 42.2592 90.054 42.924 90.054C43.5973 90.054 44.1704 90.2223 44.6435 90.5589C45.1165 90.8913 45.4318 91.343 45.5895 91.9141H45.6918C45.892 91.3516 46.2543 90.902 46.7784 90.5653C47.3068 90.2244 47.9311 90.054 48.6513 90.054C49.5675 90.054 50.3111 90.3459 50.8821 90.9297C51.4574 91.5092 51.745 92.3317 51.745 93.397V100H49.0284V93.9339C49.0284 93.3885 48.8835 92.9794 48.5937 92.7067C48.304 92.4339 47.9418 92.2976 47.5071 92.2976C47.0128 92.2976 46.6271 92.4553 46.3501 92.7706C46.0731 93.0817 45.9347 93.4929 45.9347 94.0043V100H43.2947V93.8764C43.2947 93.3949 43.1562 93.0114 42.8793 92.7259C42.6065 92.4403 42.2464 92.2976 41.799 92.2976C41.4964 92.2976 41.2237 92.3743 40.9808 92.5277C40.7422 92.6768 40.5526 92.8878 40.4119 93.1605C40.2713 93.429 40.201 93.7443 40.201 94.1065V100H37.478ZM53.5359 100V90.1818H56.259V100H53.5359ZM54.9038 88.9162C54.499 88.9162 54.1517 88.782 53.8619 88.5135C53.5764 88.2408 53.4337 87.9148 53.4337 87.5355C53.4337 87.1605 53.5764 86.8388 53.8619 86.5703C54.1517 86.2976 54.499 86.1612 54.9038 86.1612C55.3087 86.1612 55.6538 86.2976 55.9394 86.5703C56.2291 86.8388 56.374 87.1605 56.374 87.5355C56.374 87.9148 56.2291 88.2408 55.9394 88.5135C55.6538 88.782 55.3087 88.9162 54.9038 88.9162ZM66.2493 92.9815L63.7564 93.1349C63.7138 92.9219 63.6221 92.7301 63.4815 92.5597C63.3409 92.3849 63.1555 92.2464 62.9254 92.1442C62.6996 92.0376 62.429 91.9844 62.1136 91.9844C61.6917 91.9844 61.3359 92.0739 61.0462 92.2528C60.7564 92.4276 60.6115 92.6619 60.6115 92.956C60.6115 93.1903 60.7052 93.3885 60.8927 93.5504C61.0802 93.7124 61.402 93.8423 61.8579 93.9403L63.6349 94.2983C64.5895 94.4943 65.3011 94.8097 65.7699 95.2443C66.2386 95.679 66.473 96.25 66.473 96.9574C66.473 97.6009 66.2834 98.1655 65.9041 98.6513C65.5291 99.1371 65.0135 99.5163 64.3572 99.7891C63.7052 100.058 62.9531 100.192 62.1008 100.192C60.8011 100.192 59.7656 99.9212 58.9943 99.38C58.2273 98.8345 57.7777 98.093 57.6456 97.1555L60.3239 97.0149C60.4048 97.4112 60.6008 97.7138 60.9119 97.9226C61.223 98.1271 61.6214 98.2294 62.1072 98.2294C62.5845 98.2294 62.968 98.1378 63.2578 97.9545C63.5518 97.767 63.701 97.5263 63.7052 97.2322C63.701 96.9851 63.5966 96.7827 63.392 96.625C63.1875 96.4631 62.8721 96.3395 62.446 96.2543L60.7457 95.9155C59.7869 95.7237 59.0731 95.3913 58.6044 94.9183C58.1399 94.4453 57.9077 93.8423 57.9077 93.1094C57.9077 92.4787 58.0781 91.9354 58.419 91.4794C58.7642 91.0234 59.2479 90.6719 59.87 90.4247C60.4964 90.1776 61.2294 90.054 62.0689 90.054C63.3089 90.054 64.2848 90.3161 64.9964 90.8402C65.7123 91.3643 66.13 92.0781 66.2493 92.9815ZM67.8277 100V90.1818H70.5507V100H67.8277ZM69.1956 88.9162C68.7907 88.9162 68.4434 88.782 68.1537 88.5135C67.8681 88.2408 67.7254 87.9148 67.7254 87.5355C67.7254 87.1605 67.8681 86.8388 68.1537 86.5703C68.4434 86.2976 68.7907 86.1612 69.1956 86.1612C69.6004 86.1612 69.9456 86.2976 70.2311 86.5703C70.5208 86.8388 70.6657 87.1605 70.6657 87.5355C70.6657 87.9148 70.5208 88.2408 70.2311 88.5135C69.9456 88.782 69.6004 88.9162 69.1956 88.9162ZM72.372 90.1818H75.095V100.486C75.095 101.244 74.9458 101.858 74.6475 102.327C74.3492 102.795 73.921 103.138 73.3627 103.356C72.8088 103.573 72.1461 103.682 71.3748 103.682C71.2811 103.682 71.1916 103.68 71.1063 103.675C71.0168 103.675 70.9231 103.673 70.8251 103.669V101.54C70.8975 101.545 70.9614 101.547 71.0168 101.547C71.068 101.551 71.1234 101.553 71.183 101.553C71.622 101.553 71.9288 101.46 72.1035 101.272C72.2825 101.089 72.372 100.812 72.372 100.441V90.1818ZM73.7271 88.9162C73.3265 88.9162 72.9813 88.782 72.6916 88.5135C72.4018 88.2408 72.2569 87.9148 72.2569 87.5355C72.2569 87.1605 72.4018 86.8388 72.6916 86.5703C72.9813 86.2976 73.3265 86.1612 73.7271 86.1612C74.1362 86.1612 74.4835 86.2976 74.769 86.5703C75.0588 86.8388 75.2036 87.1605 75.2036 87.5355C75.2036 87.9148 75.0588 88.2408 74.769 88.5135C74.4835 88.782 74.1362 88.9162 73.7271 88.9162ZM79.716 100.185C79.0896 100.185 78.5313 100.077 78.0413 99.8594C77.5512 99.6378 77.1634 99.3118 76.8779 98.8814C76.5967 98.4467 76.456 97.9055 76.456 97.2578C76.456 96.7124 76.5562 96.2543 76.7565 95.8835C76.9567 95.5128 77.2295 95.2145 77.5746 94.9886C77.9198 94.7628 78.3119 94.5923 78.7508 94.4773C79.194 94.3622 79.6584 94.2812 80.1442 94.2344C80.7153 94.1747 81.1755 94.1193 81.5249 94.0682C81.8744 94.0128 82.1279 93.9318 82.2856 93.8253C82.4432 93.7187 82.5221 93.5611 82.5221 93.3523V93.3139C82.5221 92.9091 82.3942 92.5959 82.1386 92.3743C81.8871 92.1527 81.5292 92.0419 81.0647 92.0419C80.5746 92.0419 80.1847 92.1506 79.8949 92.3679C79.6052 92.581 79.4134 92.8494 79.3197 93.1733L76.8012 92.9688C76.929 92.3722 77.1805 91.8565 77.5555 91.4219C77.9305 90.983 78.4141 90.6463 79.0065 90.4119C79.603 90.1733 80.2934 90.054 81.0775 90.054C81.6229 90.054 82.1449 90.1179 82.6435 90.2457C83.1464 90.3736 83.5917 90.5717 83.9795 90.8402C84.3715 91.1087 84.6805 91.4538 84.9063 91.8757C85.1322 92.2933 85.2451 92.794 85.2451 93.3778V100H82.6627V98.6385H82.586C82.4283 98.9453 82.2174 99.2159 81.9532 99.4503C81.689 99.6804 81.3715 99.8615 81.0008 99.9936C80.63 100.121 80.2018 100.185 79.716 100.185ZM80.4958 98.3061C80.8964 98.3061 81.2501 98.2273 81.5569 98.0696C81.8637 97.9077 82.1045 97.6903 82.2792 97.4176C82.4539 97.1449 82.5413 96.8359 82.5413 96.4908V95.4489C82.456 95.5043 82.3388 95.5554 82.1897 95.6023C82.0448 95.6449 81.8807 95.6854 81.6975 95.7237C81.5143 95.7578 81.331 95.7898 81.1478 95.8196C80.9646 95.8452 80.7984 95.8686 80.6492 95.8899C80.3296 95.9368 80.0505 96.0114 79.8119 96.1136C79.5732 96.2159 79.3878 96.3544 79.2557 96.5291C79.1236 96.6996 79.0576 96.9126 79.0576 97.1683C79.0576 97.5391 79.1918 97.8224 79.4603 98.0185C79.733 98.2102 80.0782 98.3061 80.4958 98.3061ZM95.1667 92.9815L92.6738 93.1349C92.6312 92.9219 92.5396 92.7301 92.3989 92.5597C92.2583 92.3849 92.073 92.2464 91.8428 92.1442C91.617 92.0376 91.3464 91.9844 91.031 91.9844C90.6092 91.9844 90.2533 92.0739 89.9636 92.2528C89.6738 92.4276 89.5289 92.6619 89.5289 92.956C89.5289 93.1903 89.6227 93.3885 89.8102 93.5504C89.9977 93.7124 90.3194 93.8423 90.7754 93.9403L92.5524 94.2983C93.5069 94.4943 94.2185 94.8097 94.6873 95.2443C95.156 95.679 95.3904 96.25 95.3904 96.9574C95.3904 97.6009 95.2008 98.1655 94.8215 98.6513C94.4465 99.1371 93.9309 99.5163 93.2747 99.7891C92.6227 100.058 91.8705 100.192 91.0183 100.192C89.7185 100.192 88.683 99.9212 87.9117 99.38C87.1447 98.8345 86.6951 98.093 86.563 97.1555L89.2413 97.0149C89.3222 97.4112 89.5183 97.7138 89.8293 97.9226C90.1404 98.1271 90.5389 98.2294 91.0247 98.2294C91.5019 98.2294 91.8855 98.1378 92.1752 97.9545C92.4693 97.767 92.6184 97.5263 92.6227 97.2322C92.6184 96.9851 92.514 96.7827 92.3095 96.625C92.1049 96.4631 91.7896 96.3395 91.3634 96.2543L89.6631 95.9155C88.7043 95.7237 87.9906 95.3913 87.5218 94.9183C87.0573 94.4453 86.8251 93.8423 86.8251 93.1094C86.8251 92.4787 86.9955 91.9354 87.3364 91.4794C87.6816 91.0234 88.1653 90.6719 88.7874 90.4247C89.4139 90.1776 90.1468 90.054 90.9863 90.054C92.2264 90.054 93.2022 90.3161 93.9139 90.8402C94.6298 91.3643 95.0474 92.0781 95.1667 92.9815Z" fill="#1A1D27"/>
<path d="M17.4148 120H16.3068L19.5114 111.273H20.6023L23.8068 120H22.6989L20.0909 112.653H20.0227L17.4148 120ZM17.8239 116.591H22.2898V117.528H17.8239V116.591ZM25.1001 120V113.455H26.1058V120H25.1001ZM25.6115 112.364C25.4155 112.364 25.2464 112.297 25.1044 112.163C24.9652 112.03 24.8956 111.869 24.8956 111.682C24.8956 111.494 24.9652 111.334 25.1044 111.2C25.2464 111.067 25.4155 111 25.6115 111C25.8075 111 25.9751 111.067 26.1143 111.2C26.2564 111.334 26.3274 111.494 26.3274 111.682C26.3274 111.869 26.2564 112.03 26.1143 112.163C25.9751 112.297 25.8075 112.364 25.6115 112.364ZM27.7603 120V119.233L31.4762 114.46V114.392H27.8796V113.455H32.7717V114.256L29.158 118.994V119.062H32.891V120H27.7603ZM35.4457 116.062V120H34.44V113.455H35.4116V114.477H35.4968C35.6502 114.145 35.8832 113.878 36.1957 113.676C36.5082 113.472 36.9116 113.369 37.4059 113.369C37.8491 113.369 38.2369 113.46 38.5692 113.642C38.9016 113.821 39.1602 114.094 39.3448 114.46C39.5295 114.824 39.6218 115.284 39.6218 115.841V120H38.6161V115.909C38.6161 115.395 38.4826 114.994 38.2156 114.707C37.9485 114.418 37.582 114.273 37.1161 114.273C36.7951 114.273 36.5082 114.342 36.2553 114.482C36.0053 114.621 35.8079 114.824 35.663 115.091C35.5181 115.358 35.4457 115.682 35.4457 116.062ZM36.0337 122.898L36.511 120.69H37.5423L36.8178 122.898H36.0337ZM44.2038 120.136C43.5732 120.136 43.0291 119.997 42.5717 119.719C42.1172 119.438 41.7663 119.045 41.5192 118.543C41.2749 118.037 41.1527 117.449 41.1527 116.778C41.1527 116.108 41.2749 115.517 41.5192 115.006C41.7663 114.491 42.1101 114.091 42.5504 113.804C42.9936 113.514 43.5107 113.369 44.1016 113.369C44.4425 113.369 44.7791 113.426 45.1115 113.54C45.4439 113.653 45.7464 113.838 46.0192 114.094C46.2919 114.347 46.5092 114.682 46.6712 115.099C46.8331 115.517 46.9141 116.031 46.9141 116.642V117.068H41.8686V116.199H45.8913C45.8913 115.83 45.8175 115.5 45.6697 115.21C45.5249 114.92 45.3175 114.692 45.0476 114.524C44.7805 114.357 44.4652 114.273 44.1016 114.273C43.701 114.273 43.3544 114.372 43.0618 114.571C42.772 114.767 42.549 115.023 42.3928 115.338C42.2365 115.653 42.1584 115.991 42.1584 116.352V116.932C42.1584 117.426 42.2436 117.845 42.4141 118.189C42.5874 118.53 42.8274 118.79 43.1342 118.969C43.4411 119.145 43.7976 119.233 44.2038 119.233C44.468 119.233 44.7067 119.196 44.9197 119.122C45.1357 119.045 45.3217 118.932 45.478 118.781C45.6342 118.628 45.755 118.437 45.8402 118.21L46.8118 118.483C46.7095 118.812 46.5376 119.102 46.2962 119.352C46.0547 119.599 45.7564 119.793 45.4013 119.932C45.0462 120.068 44.647 120.136 44.2038 120.136ZM46.0447 111.273V112.125H42.0561V111.273H46.0447ZM48.4439 120V113.455H49.4155V114.477H49.5007C49.6371 114.128 49.8572 113.857 50.1612 113.663C50.4652 113.467 50.8303 113.369 51.2564 113.369C51.6882 113.369 52.0476 113.467 52.3345 113.663C52.6243 113.857 52.8501 114.128 53.0121 114.477H53.0803C53.2479 114.139 53.4993 113.871 53.8345 113.672C54.1697 113.47 54.5717 113.369 55.0405 113.369C55.6257 113.369 56.1044 113.553 56.4766 113.919C56.8487 114.283 57.0348 114.849 57.0348 115.619V120H56.0291V115.619C56.0291 115.136 55.897 114.791 55.6328 114.584C55.3686 114.376 55.0575 114.273 54.6996 114.273C54.2393 114.273 53.8828 114.412 53.63 114.69C53.3771 114.966 53.2507 115.315 53.2507 115.739V120H52.228V115.517C52.228 115.145 52.1072 114.845 51.8658 114.618C51.6243 114.388 51.3132 114.273 50.9325 114.273C50.6712 114.273 50.4268 114.342 50.1996 114.482C49.9751 114.621 49.7933 114.814 49.6541 115.061C49.5178 115.305 49.4496 115.588 49.4496 115.909V120H48.4439ZM62.9986 117.324V113.455H64.0043V120H62.9986V118.892H62.9304C62.777 119.224 62.5384 119.507 62.2145 119.74C61.8906 119.97 61.4815 120.085 60.9872 120.085C60.5781 120.085 60.2145 119.996 59.8963 119.817C59.5781 119.635 59.3281 119.362 59.1463 118.999C58.9645 118.632 58.8736 118.17 58.8736 117.614V113.455H59.8793V117.545C59.8793 118.023 60.0128 118.403 60.2798 118.688C60.5497 118.972 60.8935 119.114 61.3111 119.114C61.5611 119.114 61.8153 119.05 62.0739 118.922C62.3352 118.794 62.554 118.598 62.7301 118.334C62.9091 118.07 62.9986 117.733 62.9986 117.324ZM65.8462 120V113.455H66.8178V114.477H66.9031C67.0394 114.128 67.2596 113.857 67.5636 113.663C67.8675 113.467 68.2326 113.369 68.6587 113.369C69.0906 113.369 69.4499 113.467 69.7369 113.663C70.0266 113.857 70.2525 114.128 70.4144 114.477H70.4826C70.6502 114.139 70.9016 113.871 71.2369 113.672C71.5721 113.47 71.9741 113.369 72.4428 113.369C73.0281 113.369 73.5067 113.553 73.8789 113.919C74.2511 114.283 74.4371 114.849 74.4371 115.619V120H73.4315V115.619C73.4315 115.136 73.2994 114.791 73.0352 114.584C72.771 114.376 72.4599 114.273 72.1019 114.273C71.6417 114.273 71.2852 114.412 71.0323 114.69C70.7795 114.966 70.6531 115.315 70.6531 115.739V120H69.6303V115.517C69.6303 115.145 69.5096 114.845 69.2681 114.618C69.0266 114.388 68.7156 114.273 68.3349 114.273C68.0735 114.273 67.8292 114.342 67.6019 114.482C67.3775 114.621 67.1957 114.814 67.0565 115.061C66.9201 115.305 66.8519 115.588 66.8519 115.909V120H65.8462ZM76.2759 120V113.455H77.2816V120H76.2759ZM76.7873 112.364C76.5913 112.364 76.4222 112.297 76.2802 112.163C76.141 112.03 76.0714 111.869 76.0714 111.682C76.0714 111.494 76.141 111.334 76.2802 111.2C76.4222 111.067 76.5913 111 76.7873 111C76.9833 111 77.1509 111.067 77.2901 111.2C77.4322 111.334 77.5032 111.494 77.5032 111.682C77.5032 111.869 77.4322 112.03 77.2901 112.163C77.1509 112.297 76.9833 112.364 76.7873 112.364ZM80.6236 118.807L80.5554 119.267C80.5071 119.591 80.4332 119.938 80.3338 120.307C80.2372 120.676 80.1364 121.024 80.0312 121.351C79.9261 121.678 79.8395 121.938 79.7713 122.131H79.0043C79.0412 121.949 79.0895 121.709 79.1491 121.411C79.2088 121.112 79.2685 120.778 79.3281 120.409C79.3906 120.043 79.4418 119.668 79.4815 119.284L79.5327 118.807H80.6236ZM86.7994 117.614L86.7823 116.369H86.9869L89.8505 113.455H91.0948L88.0437 116.54H87.9585L86.7994 117.614ZM85.8619 120V111.273H86.8675V120H85.8619ZM90.021 120L87.4641 116.761L88.18 116.062L91.2994 120H90.021ZM94.3153 120.153C93.9006 120.153 93.5241 120.075 93.1861 119.919C92.848 119.76 92.5795 119.531 92.3807 119.233C92.1818 118.932 92.0824 118.568 92.0824 118.142C92.0824 117.767 92.1563 117.463 92.304 117.23C92.4517 116.994 92.6491 116.81 92.8963 116.676C93.1435 116.543 93.4162 116.443 93.7145 116.378C94.0156 116.31 94.3182 116.256 94.6222 116.216C95.0199 116.165 95.3423 116.126 95.5895 116.101C95.8395 116.072 96.0213 116.026 96.1349 115.96C96.2514 115.895 96.3097 115.781 96.3097 115.619V115.585C96.3097 115.165 96.1946 114.838 95.9645 114.605C95.7372 114.372 95.392 114.256 94.929 114.256C94.4489 114.256 94.0724 114.361 93.7997 114.571C93.527 114.781 93.3352 115.006 93.2244 115.244L92.2699 114.903C92.4403 114.506 92.6676 114.196 92.9517 113.974C93.2386 113.75 93.5511 113.594 93.8892 113.506C94.2301 113.415 94.5653 113.369 94.8949 113.369C95.1051 113.369 95.3466 113.395 95.6193 113.446C95.8949 113.494 96.1605 113.595 96.4162 113.749C96.6747 113.902 96.8892 114.134 97.0597 114.443C97.2301 114.753 97.3153 115.168 97.3153 115.688V120H96.3097V119.114H96.2585C96.1903 119.256 96.0767 119.408 95.9176 119.57C95.7585 119.732 95.5469 119.869 95.2827 119.983C95.0185 120.097 94.696 120.153 94.3153 120.153ZM94.4688 119.25C94.8665 119.25 95.2017 119.172 95.4744 119.016C95.75 118.859 95.9574 118.658 96.0966 118.411C96.2386 118.163 96.3097 117.903 96.3097 117.631V116.71C96.267 116.761 96.1733 116.808 96.0284 116.851C95.8864 116.891 95.7216 116.926 95.5341 116.957C95.3494 116.986 95.169 117.011 94.9929 117.034C94.8196 117.054 94.679 117.071 94.571 117.085C94.3097 117.119 94.0653 117.175 93.8381 117.251C93.6136 117.325 93.4318 117.437 93.2926 117.588C93.1563 117.736 93.0881 117.937 93.0881 118.193C93.0881 118.543 93.2173 118.807 93.4759 118.986C93.7372 119.162 94.0682 119.25 94.4688 119.25ZM99.1509 120V113.455H100.123V114.443H100.191C100.31 114.119 100.526 113.857 100.838 113.655C101.151 113.453 101.503 113.352 101.895 113.352C101.969 113.352 102.061 113.354 102.172 113.357C102.283 113.359 102.367 113.364 102.424 113.369V114.392C102.39 114.384 102.311 114.371 102.189 114.354C102.07 114.334 101.944 114.324 101.81 114.324C101.492 114.324 101.208 114.391 100.958 114.524C100.711 114.655 100.515 114.837 100.37 115.07C100.228 115.3 100.157 115.562 100.157 115.858V120H99.1509ZM106.873 113.455V114.307H103.48V113.455H106.873ZM104.469 111.886H105.475V118.125C105.475 118.409 105.516 118.622 105.598 118.764C105.684 118.903 105.792 118.997 105.922 119.045C106.056 119.091 106.196 119.114 106.344 119.114C106.455 119.114 106.546 119.108 106.617 119.097C106.688 119.082 106.745 119.071 106.787 119.062L106.992 119.966C106.924 119.991 106.828 120.017 106.706 120.043C106.584 120.071 106.429 120.085 106.242 120.085C105.958 120.085 105.679 120.024 105.407 119.902C105.137 119.78 104.912 119.594 104.733 119.344C104.557 119.094 104.469 118.778 104.469 118.398V111.886ZM111.059 120.136C110.429 120.136 109.885 119.997 109.427 119.719C108.973 119.438 108.622 119.045 108.375 118.543C108.13 118.037 108.008 117.449 108.008 116.778C108.008 116.108 108.13 115.517 108.375 115.006C108.622 114.491 108.966 114.091 109.406 113.804C109.849 113.514 110.366 113.369 110.957 113.369C111.298 113.369 111.635 113.426 111.967 113.54C112.299 113.653 112.602 113.838 112.875 114.094C113.147 114.347 113.365 114.682 113.527 115.099C113.689 115.517 113.77 116.031 113.77 116.642V117.068H108.724V116.199H112.747C112.747 115.83 112.673 115.5 112.525 115.21C112.38 114.92 112.173 114.692 111.903 114.524C111.636 114.357 111.321 114.273 110.957 114.273C110.556 114.273 110.21 114.372 109.917 114.571C109.627 114.767 109.404 115.023 109.248 115.338C109.092 115.653 109.014 115.991 109.014 116.352V116.932C109.014 117.426 109.099 117.845 109.27 118.189C109.443 118.53 109.683 118.79 109.99 118.969C110.297 119.145 110.653 119.233 111.059 119.233C111.324 119.233 111.562 119.196 111.775 119.122C111.991 119.045 112.177 118.932 112.333 118.781C112.49 118.628 112.61 118.437 112.696 118.21L113.667 118.483C113.565 118.812 113.393 119.102 113.152 119.352C112.91 119.599 112.612 119.793 112.257 119.932C111.902 120.068 111.502 120.136 111.059 120.136ZM119.936 114.92L119.032 115.176C118.975 115.026 118.892 114.879 118.781 114.737C118.673 114.592 118.525 114.473 118.338 114.379C118.15 114.286 117.91 114.239 117.618 114.239C117.217 114.239 116.883 114.331 116.616 114.516C116.352 114.697 116.22 114.929 116.22 115.21C116.22 115.46 116.311 115.658 116.493 115.803C116.674 115.947 116.958 116.068 117.345 116.165L118.316 116.403C118.902 116.545 119.338 116.763 119.625 117.055C119.912 117.345 120.055 117.719 120.055 118.176C120.055 118.551 119.947 118.886 119.731 119.182C119.518 119.477 119.22 119.71 118.836 119.881C118.453 120.051 118.007 120.136 117.498 120.136C116.831 120.136 116.278 119.991 115.841 119.702C115.403 119.412 115.126 118.989 115.01 118.432L115.964 118.193C116.055 118.545 116.227 118.81 116.48 118.986C116.735 119.162 117.069 119.25 117.481 119.25C117.95 119.25 118.322 119.151 118.598 118.952C118.876 118.75 119.015 118.509 119.015 118.227C119.015 118 118.936 117.81 118.777 117.656C118.618 117.5 118.373 117.384 118.044 117.307L116.953 117.051C116.353 116.909 115.913 116.689 115.632 116.391C115.353 116.089 115.214 115.713 115.214 115.261C115.214 114.892 115.318 114.565 115.525 114.281C115.735 113.997 116.021 113.774 116.382 113.612C116.745 113.45 117.157 113.369 117.618 113.369C118.265 113.369 118.774 113.511 119.143 113.795C119.515 114.08 119.779 114.455 119.936 114.92ZM123.069 118.807L123.001 119.267C122.952 119.591 122.879 119.938 122.779 120.307C122.683 120.676 122.582 121.024 122.477 121.351C122.371 121.678 122.285 121.938 122.217 122.131H121.45C121.487 121.949 121.535 121.709 121.594 121.411C121.654 121.112 121.714 120.778 121.773 120.409C121.836 120.043 121.887 119.668 121.927 119.284L121.978 118.807H123.069ZM129.245 117.614L129.228 116.369H129.432L132.296 113.455H133.54L130.489 116.54H130.404L129.245 117.614ZM128.307 120V111.273H129.313V120H128.307ZM132.466 120L129.909 116.761L130.625 116.062L133.745 120H132.466ZM137.224 120.136C136.633 120.136 136.115 119.996 135.669 119.714C135.225 119.433 134.879 119.04 134.629 118.534C134.382 118.028 134.258 117.437 134.258 116.761C134.258 116.08 134.382 115.484 134.629 114.976C134.879 114.467 135.225 114.072 135.669 113.791C136.115 113.51 136.633 113.369 137.224 113.369C137.815 113.369 138.332 113.51 138.775 113.791C139.221 114.072 139.568 114.467 139.815 114.976C140.065 115.484 140.19 116.08 140.19 116.761C140.19 117.437 140.065 118.028 139.815 118.534C139.568 119.04 139.221 119.433 138.775 119.714C138.332 119.996 137.815 120.136 137.224 120.136ZM137.224 119.233C137.673 119.233 138.042 119.118 138.332 118.888C138.622 118.658 138.836 118.355 138.975 117.98C139.115 117.605 139.184 117.199 139.184 116.761C139.184 116.324 139.115 115.916 138.975 115.538C138.836 115.161 138.622 114.855 138.332 114.622C138.042 114.389 137.673 114.273 137.224 114.273C136.775 114.273 136.406 114.389 136.116 114.622C135.826 114.855 135.612 115.161 135.473 115.538C135.333 115.916 135.264 116.324 135.264 116.761C135.264 117.199 135.333 117.605 135.473 117.98C135.612 118.355 135.826 118.658 136.116 118.888C136.406 119.118 136.775 119.233 137.224 119.233ZM142.731 116.062V120H141.725V113.455H142.697V114.477H142.782C142.935 114.145 143.168 113.878 143.481 113.676C143.793 113.472 144.197 113.369 144.691 113.369C145.134 113.369 145.522 113.46 145.854 113.642C146.187 113.821 146.445 114.094 146.63 114.46C146.815 114.824 146.907 115.284 146.907 115.841V120H145.901V115.909C145.901 115.395 145.768 114.994 145.501 114.707C145.234 114.418 144.867 114.273 144.401 114.273C144.08 114.273 143.793 114.342 143.54 114.482C143.29 114.621 143.093 114.824 142.948 115.091C142.803 115.358 142.731 115.682 142.731 116.062ZM151.591 113.455V114.307H148.199V113.455H151.591ZM149.188 111.886H150.194V118.125C150.194 118.409 150.235 118.622 150.317 118.764C150.402 118.903 150.51 118.997 150.641 119.045C150.775 119.091 150.915 119.114 151.063 119.114C151.174 119.114 151.265 119.108 151.336 119.097C151.407 119.082 151.463 119.071 151.506 119.062L151.711 119.966C151.642 119.991 151.547 120.017 151.425 120.043C151.303 120.071 151.148 120.085 150.961 120.085C150.676 120.085 150.398 120.024 150.125 119.902C149.855 119.78 149.631 119.594 149.452 119.344C149.276 119.094 149.188 118.778 149.188 118.398V111.886ZM155.03 120.153C154.615 120.153 154.239 120.075 153.901 119.919C153.563 119.76 153.294 119.531 153.096 119.233C152.897 118.932 152.797 118.568 152.797 118.142C152.797 117.767 152.871 117.463 153.019 117.23C153.167 116.994 153.364 116.81 153.611 116.676C153.858 116.543 154.131 116.443 154.429 116.378C154.73 116.31 155.033 116.256 155.337 116.216C155.735 116.165 156.057 116.126 156.304 116.101C156.554 116.072 156.736 116.026 156.85 115.96C156.966 115.895 157.025 115.781 157.025 115.619V115.585C157.025 115.165 156.909 114.838 156.679 114.605C156.452 114.372 156.107 114.256 155.644 114.256C155.164 114.256 154.787 114.361 154.515 114.571C154.242 114.781 154.05 115.006 153.939 115.244L152.985 114.903C153.155 114.506 153.382 114.196 153.667 113.974C153.953 113.75 154.266 113.594 154.604 113.506C154.945 113.415 155.28 113.369 155.61 113.369C155.82 113.369 156.061 113.395 156.334 113.446C156.61 113.494 156.875 113.595 157.131 113.749C157.39 113.902 157.604 114.134 157.775 114.443C157.945 114.753 158.03 115.168 158.03 115.688V120H157.025V119.114H156.973C156.905 119.256 156.792 119.408 156.632 119.57C156.473 119.732 156.262 119.869 155.998 119.983C155.733 120.097 155.411 120.153 155.03 120.153ZM155.184 119.25C155.581 119.25 155.917 119.172 156.189 119.016C156.465 118.859 156.672 118.658 156.811 118.411C156.953 118.163 157.025 117.903 157.025 117.631V116.71C156.982 116.761 156.888 116.808 156.743 116.851C156.601 116.891 156.436 116.926 156.249 116.957C156.064 116.986 155.884 117.011 155.708 117.034C155.534 117.054 155.394 117.071 155.286 117.085C155.025 117.119 154.78 117.175 154.553 117.251C154.328 117.325 154.147 117.437 154.007 117.588C153.871 117.736 153.803 117.937 153.803 118.193C153.803 118.543 153.932 118.807 154.191 118.986C154.452 119.162 154.783 119.25 155.184 119.25ZM21.0455 133.324V129.455H22.0511V136H21.0455V134.892H20.9773C20.8239 135.224 20.5852 135.507 20.2614 135.74C19.9375 135.97 19.5284 136.085 19.0341 136.085C18.625 136.085 18.2614 135.996 17.9432 135.817C17.625 135.635 17.375 135.362 17.1932 134.999C17.0114 134.632 16.9205 134.17 16.9205 133.614V129.455H17.9261V133.545C17.9261 134.023 18.0597 134.403 18.3267 134.688C18.5966 134.972 18.9403 135.114 19.358 135.114C19.608 135.114 19.8622 135.05 20.1207 134.922C20.3821 134.794 20.6009 134.598 20.777 134.334C20.956 134.07 21.0455 133.733 21.0455 133.324ZM23.7056 136V135.233L27.4215 130.46V130.392H23.8249V129.455H28.717V130.256L25.1033 134.994V135.062H28.8363V136H23.7056ZM33.2319 129.455V130.307H29.8398V129.455H33.2319ZM30.8285 127.886H31.8342V134.125C31.8342 134.409 31.8754 134.622 31.9577 134.764C32.043 134.903 32.1509 134.997 32.2816 135.045C32.4151 135.091 32.5558 135.114 32.7035 135.114C32.8143 135.114 32.9052 135.108 32.9762 135.097C33.0472 135.082 33.104 135.071 33.1467 135.062L33.3512 135.966C33.283 135.991 33.1879 136.017 33.0657 136.043C32.9435 136.071 32.7887 136.085 32.6012 136.085C32.3171 136.085 32.0387 136.024 31.766 135.902C31.4961 135.78 31.2717 135.594 31.0927 135.344C30.9165 135.094 30.8285 134.778 30.8285 134.398V127.886ZM38.8697 133.324V129.455H39.8754V136H38.8697V134.892H38.8015C38.6481 135.224 38.4094 135.507 38.0856 135.74C37.7617 135.97 37.3526 136.085 36.8583 136.085C36.4492 136.085 36.0856 135.996 35.7674 135.817C35.4492 135.635 35.1992 135.362 35.0174 134.999C34.8356 134.632 34.7447 134.17 34.7447 133.614V129.455H35.7504V133.545C35.7504 134.023 35.8839 134.403 36.1509 134.688C36.4208 134.972 36.7646 135.114 37.1822 135.114C37.4322 135.114 37.6864 135.05 37.945 134.922C38.2063 134.794 38.4251 134.598 38.6012 134.334C38.7802 134.07 38.8697 133.733 38.8697 133.324ZM41.7173 136V129.455H42.6889V130.443H42.7571C42.8764 130.119 43.0923 129.857 43.4048 129.655C43.7173 129.453 44.0696 129.352 44.4616 129.352C44.5355 129.352 44.6278 129.354 44.7386 129.357C44.8494 129.359 44.9332 129.364 44.9901 129.369V130.392C44.956 130.384 44.8778 130.371 44.7557 130.354C44.6364 130.334 44.5099 130.324 44.3764 130.324C44.0582 130.324 43.7741 130.391 43.5241 130.524C43.277 130.655 43.081 130.837 42.9361 131.07C42.794 131.3 42.723 131.562 42.723 131.858V136H41.7173ZM48.7273 136.136C48.0966 136.136 47.5526 135.997 47.0952 135.719C46.6406 135.438 46.2898 135.045 46.0426 134.543C45.7983 134.037 45.6761 133.449 45.6761 132.778C45.6761 132.108 45.7983 131.517 46.0426 131.006C46.2898 130.491 46.6335 130.091 47.0739 129.804C47.517 129.514 48.0341 129.369 48.625 129.369C48.9659 129.369 49.3026 129.426 49.6349 129.54C49.9673 129.653 50.2699 129.838 50.5426 130.094C50.8153 130.347 51.0327 130.682 51.1946 131.099C51.3565 131.517 51.4375 132.031 51.4375 132.642V133.068H46.392V132.199H50.4148C50.4148 131.83 50.3409 131.5 50.1932 131.21C50.0483 130.92 49.8409 130.692 49.571 130.524C49.304 130.357 48.9886 130.273 48.625 130.273C48.2244 130.273 47.8778 130.372 47.5852 130.571C47.2955 130.767 47.0724 131.023 46.9162 131.338C46.7599 131.653 46.6818 131.991 46.6818 132.352V132.932C46.6818 133.426 46.767 133.845 46.9375 134.189C47.1108 134.53 47.3509 134.79 47.6577 134.969C47.9645 135.145 48.321 135.233 48.7273 135.233C48.9915 135.233 49.2301 135.196 49.4432 135.122C49.6591 135.045 49.8452 134.932 50.0014 134.781C50.1577 134.628 50.2784 134.437 50.3636 134.21L51.3352 134.483C51.233 134.812 51.0611 135.102 50.8196 135.352C50.5781 135.599 50.2798 135.793 49.9247 135.932C49.5696 136.068 49.1705 136.136 48.7273 136.136ZM50.5682 127.273V128.125H46.5795V127.273H50.5682ZM57.6037 130.92L56.7003 131.176C56.6435 131.026 56.5597 130.879 56.4489 130.737C56.3409 130.592 56.1932 130.473 56.0057 130.379C55.8182 130.286 55.5781 130.239 55.2855 130.239C54.8849 130.239 54.5511 130.331 54.2841 130.516C54.0199 130.697 53.8878 130.929 53.8878 131.21C53.8878 131.46 53.9787 131.658 54.1605 131.803C54.3423 131.947 54.6264 132.068 55.0128 132.165L55.9844 132.403C56.5696 132.545 57.0057 132.763 57.2926 133.055C57.5795 133.345 57.723 133.719 57.723 134.176C57.723 134.551 57.6151 134.886 57.3991 135.182C57.1861 135.477 56.8878 135.71 56.5043 135.881C56.1207 136.051 55.6747 136.136 55.1662 136.136C54.4986 136.136 53.946 135.991 53.5085 135.702C53.071 135.412 52.794 134.989 52.6776 134.432L53.6321 134.193C53.723 134.545 53.8949 134.81 54.1477 134.986C54.4034 135.162 54.7372 135.25 55.1491 135.25C55.6179 135.25 55.9901 135.151 56.2656 134.952C56.544 134.75 56.6832 134.509 56.6832 134.227C56.6832 134 56.6037 133.81 56.4446 133.656C56.2855 133.5 56.0412 133.384 55.7116 133.307L54.6207 133.051C54.0213 132.909 53.581 132.689 53.2997 132.391C53.0213 132.089 52.8821 131.713 52.8821 131.261C52.8821 130.892 52.9858 130.565 53.1932 130.281C53.4034 129.997 53.6889 129.774 54.0497 129.612C54.4134 129.45 54.8253 129.369 55.2855 129.369C55.9332 129.369 56.4418 129.511 56.8111 129.795C57.1832 130.08 57.4474 130.455 57.6037 130.92ZM54.3991 126.83L55.2855 128.023L56.1719 126.83H57.1264V126.898L55.7457 128.67H54.8253L53.4446 126.898V126.83H54.3991ZM61.163 136.153C60.7482 136.153 60.3718 136.075 60.0337 135.919C59.6957 135.76 59.4272 135.531 59.2283 135.233C59.0295 134.932 58.93 134.568 58.93 134.142C58.93 133.767 59.0039 133.463 59.1516 133.23C59.2994 132.994 59.4968 132.81 59.744 132.676C59.9911 132.543 60.2638 132.443 60.5621 132.378C60.8633 132.31 61.1658 132.256 61.4698 132.216C61.8675 132.165 62.19 132.126 62.4371 132.101C62.6871 132.072 62.869 132.026 62.9826 131.96C63.0991 131.895 63.1573 131.781 63.1573 131.619V131.585C63.1573 131.165 63.0423 130.838 62.8121 130.605C62.5849 130.372 62.2397 130.256 61.7766 130.256C61.2965 130.256 60.9201 130.361 60.6474 130.571C60.3746 130.781 60.1829 131.006 60.0721 131.244L59.1175 130.903C59.288 130.506 59.5153 130.196 59.7994 129.974C60.0863 129.75 60.3988 129.594 60.7369 129.506C61.0778 129.415 61.413 129.369 61.7425 129.369C61.9528 129.369 62.1942 129.395 62.467 129.446C62.7425 129.494 63.0082 129.595 63.2638 129.749C63.5224 129.902 63.7369 130.134 63.9073 130.443C64.0778 130.753 64.163 131.168 64.163 131.688V136H63.1573V135.114H63.1062C63.038 135.256 62.9244 135.408 62.7653 135.57C62.6062 135.732 62.3945 135.869 62.1303 135.983C61.8661 136.097 61.5437 136.153 61.163 136.153ZM61.3164 135.25C61.7141 135.25 62.0494 135.172 62.3221 135.016C62.5977 134.859 62.805 134.658 62.9442 134.411C63.0863 134.163 63.1573 133.903 63.1573 133.631V132.71C63.1147 132.761 63.021 132.808 62.8761 132.851C62.734 132.891 62.5692 132.926 62.3817 132.957C62.1971 132.986 62.0167 133.011 61.8406 133.034C61.6673 133.054 61.5266 133.071 61.4187 133.085C61.1573 133.119 60.913 133.175 60.6857 133.251C60.4613 133.325 60.2795 133.437 60.1403 133.588C60.0039 133.736 59.9357 133.937 59.9357 134.193C59.9357 134.543 60.065 134.807 60.3235 134.986C60.5849 135.162 60.9158 135.25 61.3164 135.25ZM67.0043 132.062V136H65.9986V129.455H66.9702V130.477H67.0554C67.2088 130.145 67.4418 129.878 67.7543 129.676C68.0668 129.472 68.4702 129.369 68.9645 129.369C69.4077 129.369 69.7955 129.46 70.1278 129.642C70.4602 129.821 70.7188 130.094 70.9034 130.46C71.0881 130.824 71.1804 131.284 71.1804 131.841V136H70.1747V131.909C70.1747 131.395 70.0412 130.994 69.7741 130.707C69.5071 130.418 69.1406 130.273 68.6747 130.273C68.3537 130.273 68.0668 130.342 67.8139 130.482C67.5639 130.621 67.3665 130.824 67.2216 131.091C67.0767 131.358 67.0043 131.682 67.0043 132.062ZM74.9442 136.153C74.5295 136.153 74.1531 136.075 73.815 135.919C73.4769 135.76 73.2085 135.531 73.0096 135.233C72.8107 134.932 72.7113 134.568 72.7113 134.142C72.7113 133.767 72.7852 133.463 72.9329 133.23C73.0806 132.994 73.2781 132.81 73.5252 132.676C73.7724 132.543 74.0451 132.443 74.3434 132.378C74.6445 132.31 74.9471 132.256 75.2511 132.216C75.6488 132.165 75.9712 132.126 76.2184 132.101C76.4684 132.072 76.6502 132.026 76.7638 131.96C76.8803 131.895 76.9386 131.781 76.9386 131.619V131.585C76.9386 131.165 76.8235 130.838 76.5934 130.605C76.3661 130.372 76.021 130.256 75.5579 130.256C75.0778 130.256 74.7013 130.361 74.4286 130.571C74.1559 130.781 73.9641 131.006 73.8533 131.244L72.8988 130.903C73.0692 130.506 73.2965 130.196 73.5806 129.974C73.8675 129.75 74.18 129.594 74.5181 129.506C74.859 129.415 75.1942 129.369 75.5238 129.369C75.734 129.369 75.9755 129.395 76.2482 129.446C76.5238 129.494 76.7894 129.595 77.0451 129.749C77.3036 129.902 77.5181 130.134 77.6886 130.443C77.859 130.753 77.9442 131.168 77.9442 131.688V136H76.9386V135.114H76.8874C76.8192 135.256 76.7056 135.408 76.5465 135.57C76.3874 135.732 76.1758 135.869 75.9116 135.983C75.6474 136.097 75.3249 136.153 74.9442 136.153ZM75.0977 135.25C75.4954 135.25 75.8306 135.172 76.1033 135.016C76.3789 134.859 76.5863 134.658 76.7255 134.411C76.8675 134.163 76.9386 133.903 76.9386 133.631V132.71C76.896 132.761 76.8022 132.808 76.6573 132.851C76.5153 132.891 76.3505 132.926 76.163 132.957C75.9783 132.986 75.7979 133.011 75.6218 133.034C75.4485 133.054 75.3079 133.071 75.1999 133.085C74.9386 133.119 74.6942 133.175 74.467 133.251C74.2425 133.325 74.0607 133.437 73.9215 133.588C73.7852 133.736 73.717 133.937 73.717 134.193C73.717 134.543 73.8462 134.807 74.1048 134.986C74.3661 135.162 74.6971 135.25 75.0977 135.25Z" fill="#1A1D27"/>
</svg>
