<svg width="200" height="142" viewBox="0 0 200 142" fill="none" xmlns="http://www.w3.org/2000/svg">
<rect width="200" height="142" rx="16" fill="white" fill-opacity="0.7"/>
<rect x="16" y="16" width="32" height="32" rx="8" fill="#FFF4DB"/>
<path d="M28.25 33.5H32.375M28.25 30.5H35.75M30.5 37.25H27.65C26.8099 37.25 26.3899 37.25 26.069 37.0865C25.7868 36.9427 25.5573 36.7132 25.4135 36.431C25.25 36.1101 25.25 35.6901 25.25 34.85V29.15C25.25 28.3099 25.25 27.8899 25.4135 27.569C25.5573 27.2868 25.7868 27.0573 26.069 26.9135C26.3899 26.75 26.8099 26.75 27.65 26.75H36.35C37.1901 26.75 37.6101 26.75 37.931 26.9135C38.2132 27.0573 38.4427 27.2868 38.5865 27.569C38.75 27.8899 38.75 28.3099 38.75 29.15V29.375M33.5 38L35.0187 37.6963C35.1511 37.6698 35.2174 37.6565 35.2791 37.6323C35.3339 37.6108 35.386 37.5829 35.4343 37.5493C35.4887 37.5113 35.5364 37.4636 35.6319 37.3681L38.75 34.25C39.1642 33.8358 39.1642 33.1642 38.75 32.75C38.3358 32.3358 37.6642 32.3358 37.25 32.75L34.1319 35.8681C34.0364 35.9636 33.9887 36.0113 33.9507 36.0657C33.9171 36.114 33.8892 36.1661 33.8677 36.2209C33.8435 36.2826 33.8302 36.3489 33.8037 36.4813L33.5 38Z" stroke="#1A1D27" stroke-width="1.5" stroke-linecap="round" stroke-linejoin="round"/>
<path d="M19.3942 78H16.4283L20.9474 64.9091H24.5142L29.027 78H26.0611L22.782 67.9006H22.6797L19.3942 78ZM19.2088 72.8544H26.2145V75.0149H19.2088V72.8544ZM30.2442 78V68.1818H32.9672V78H30.2442ZM31.6121 66.9162C31.2073 66.9162 30.86 66.782 30.5702 66.5135C30.2847 66.2408 30.142 65.9148 30.142 65.5355C30.142 65.1605 30.2847 64.8388 30.5702 64.5703C30.86 64.2976 31.2073 64.1612 31.6121 64.1612C32.017 64.1612 32.3621 64.2976 32.6476 64.5703C32.9374 64.8388 33.0823 65.1605 33.0823 65.5355C33.0823 65.9148 32.9374 66.2408 32.6476 66.5135C32.3621 66.782 32.017 66.9162 31.6121 66.9162ZM34.7374 78V76.3764L39.5442 70.4254V70.3551H34.9036V68.1818H42.8233V69.9524L38.3105 75.7564V75.8267H42.9895V78H34.7374ZM48.0484 78.1598C47.3026 78.1598 46.6272 77.968 46.0221 77.5845C45.4212 77.1967 44.944 76.6278 44.5903 75.8778C44.2408 75.1236 44.0661 74.1989 44.0661 73.1037C44.0661 71.9787 44.2472 71.0433 44.6095 70.2976C44.9717 69.5476 45.4532 68.9872 46.0541 68.6165C46.6592 68.2415 47.3218 68.054 48.042 68.054C48.5917 68.054 49.0498 68.1477 49.4163 68.3352C49.787 68.5185 50.0853 68.7486 50.3112 69.0256C50.5413 69.2983 50.716 69.5668 50.8353 69.831H50.9184V64.9091H53.635V78H50.9504V76.4276H50.8353C50.7075 76.7003 50.5264 76.9709 50.292 77.2393C50.0619 77.5036 49.7614 77.723 49.3907 77.8977C49.0242 78.0724 48.5768 78.1598 48.0484 78.1598ZM48.9113 75.9929C49.3502 75.9929 49.721 75.8736 50.0235 75.6349C50.3303 75.392 50.5647 75.0533 50.7266 74.6186C50.8928 74.1839 50.9759 73.6747 50.9759 73.0909C50.9759 72.5071 50.895 72 50.733 71.5696C50.5711 71.1392 50.3367 70.8068 50.0299 70.5724C49.7231 70.3381 49.3502 70.2209 48.9113 70.2209C48.4639 70.2209 48.0867 70.3423 47.7799 70.5852C47.4731 70.8281 47.2408 71.1648 47.0832 71.5952C46.9255 72.0256 46.8467 72.5241 46.8467 73.0909C46.8467 73.6619 46.9255 74.1669 47.0832 74.6058C47.2451 75.0405 47.4774 75.3814 47.7799 75.6286C48.0867 75.8714 48.4639 75.9929 48.9113 75.9929ZM59.9883 78.1918C58.9783 78.1918 58.109 77.9872 57.3803 77.5781C56.6559 77.1648 56.0976 76.581 55.7056 75.8267C55.3136 75.0682 55.1175 74.1712 55.1175 73.1357C55.1175 72.1257 55.3136 71.2393 55.7056 70.4766C56.0976 69.7138 56.6495 69.1193 57.3611 68.6932C58.077 68.267 58.9165 68.054 59.8796 68.054C60.5273 68.054 61.1303 68.1584 61.6886 68.3672C62.2511 68.5717 62.7411 68.8807 63.1587 69.294C63.5806 69.7074 63.9087 70.2273 64.1431 70.8537C64.3775 71.4759 64.4947 72.2045 64.4947 73.0398V73.7876H56.2042V72.1001H61.9315C61.9315 71.7081 61.8462 71.3608 61.6758 71.0582C61.5053 70.7557 61.2688 70.5192 60.9663 70.3487C60.668 70.174 60.3207 70.0866 59.9243 70.0866C59.511 70.0866 59.1445 70.1825 58.8249 70.3743C58.5096 70.5618 58.2624 70.8153 58.0834 71.1349C57.9045 71.4503 57.8128 71.8018 57.8086 72.1896V73.794C57.8086 74.2798 57.8981 74.6996 58.077 75.0533C58.2603 75.407 58.5181 75.6797 58.8505 75.8714C59.1829 76.0632 59.577 76.1591 60.033 76.1591C60.3356 76.1591 60.6126 76.1165 60.864 76.0312C61.1154 75.946 61.3306 75.8182 61.5096 75.6477C61.6886 75.4773 61.8249 75.2685 61.9187 75.0213L64.4371 75.1875C64.3093 75.7926 64.0472 76.321 63.6509 76.7727C63.2589 77.2202 62.7518 77.5696 62.1296 77.821C61.5117 78.0682 60.7979 78.1918 59.9883 78.1918ZM74.8014 68.1818L71.3689 78H68.3007L64.8681 68.1818H67.7446L69.7836 75.2067H69.8859L71.9186 68.1818H74.8014ZM82.131 73.8196V68.1818H84.854V78H82.2397V76.2166H82.1374C81.9158 76.7919 81.5472 77.2543 81.0316 77.6037C80.5202 77.9531 79.8959 78.1278 79.1587 78.1278C78.5025 78.1278 77.9251 77.9787 77.4265 77.6804C76.9279 77.3821 76.538 76.9581 76.2567 76.4084C75.9797 75.8587 75.8391 75.2003 75.8349 74.4332V68.1818H78.5579V73.9474C78.5621 74.527 78.7177 74.9851 79.0245 75.3217C79.3313 75.6584 79.7425 75.8267 80.2581 75.8267C80.5863 75.8267 80.8931 75.7521 81.1786 75.603C81.4641 75.4496 81.6942 75.2237 81.8689 74.9254C82.0479 74.6271 82.1353 74.2585 82.131 73.8196ZM86.6721 78V68.1818H89.2673V69.9141H89.3823C89.5869 69.3388 89.9278 68.8849 90.4051 68.5526C90.8823 68.2202 91.4534 68.054 92.1181 68.054C92.7914 68.054 93.3646 68.2223 93.8376 68.5589C94.3106 68.8913 94.626 69.343 94.7836 69.9141H94.8859C95.0862 69.3516 95.4484 68.902 95.9725 68.5653C96.501 68.2244 97.1252 68.054 97.8454 68.054C98.7616 68.054 99.5052 68.3459 100.076 68.9297C100.652 69.5092 100.939 70.3317 100.939 71.397V78H98.2225V71.9339C98.2225 71.3885 98.0777 70.9794 97.7879 70.7067C97.4981 70.4339 97.1359 70.2976 96.7012 70.2976C96.2069 70.2976 95.8213 70.4553 95.5443 70.7706C95.2673 71.0817 95.1288 71.4929 95.1288 72.0043V78H92.4889V71.8764C92.4889 71.3949 92.3504 71.0114 92.0734 70.7259C91.8007 70.4403 91.4406 70.2976 90.9931 70.2976C90.6906 70.2976 90.4179 70.3743 90.175 70.5277C89.9363 70.6768 89.7467 70.8878 89.6061 71.1605C89.4654 71.429 89.3951 71.7443 89.3951 72.1065V78H86.6721ZM105.53 78.1854C104.903 78.1854 104.345 78.0767 103.855 77.8594C103.365 77.6378 102.977 77.3118 102.692 76.8814C102.41 76.4467 102.27 75.9055 102.27 75.2578C102.27 74.7124 102.37 74.2543 102.57 73.8835C102.771 73.5128 103.043 73.2145 103.388 72.9886C103.734 72.7628 104.126 72.5923 104.565 72.4773C105.008 72.3622 105.472 72.2812 105.958 72.2344C106.529 72.1747 106.989 72.1193 107.339 72.0682C107.688 72.0128 107.942 71.9318 108.099 71.8253C108.257 71.7187 108.336 71.5611 108.336 71.3523V71.3139C108.336 70.9091 108.208 70.5959 107.952 70.3743C107.701 70.1527 107.343 70.0419 106.879 70.0419C106.388 70.0419 105.999 70.1506 105.709 70.3679C105.419 70.581 105.227 70.8494 105.133 71.1733L102.615 70.9688C102.743 70.3722 102.994 69.8565 103.369 69.4219C103.744 68.983 104.228 68.6463 104.82 68.4119C105.417 68.1733 106.107 68.054 106.891 68.054C107.437 68.054 107.959 68.1179 108.457 68.2457C108.96 68.3736 109.406 68.5717 109.793 68.8402C110.185 69.1087 110.494 69.4538 110.72 69.8757C110.946 70.2933 111.059 70.794 111.059 71.3778V78H108.477V76.6385H108.4C108.242 76.9453 108.031 77.2159 107.767 77.4503C107.503 77.6804 107.185 77.8615 106.815 77.9936C106.444 78.1214 106.016 78.1854 105.53 78.1854ZM106.31 76.3061C106.71 76.3061 107.064 76.2273 107.371 76.0696C107.678 75.9077 107.918 75.6903 108.093 75.4176C108.268 75.1449 108.355 74.8359 108.355 74.4908V73.4489C108.27 73.5043 108.153 73.5554 108.004 73.6023C107.859 73.6449 107.695 73.6854 107.511 73.7237C107.328 73.7578 107.145 73.7898 106.962 73.8196C106.778 73.8452 106.612 73.8686 106.463 73.8899C106.143 73.9368 105.864 74.0114 105.626 74.1136C105.387 74.2159 105.202 74.3544 105.07 74.5291C104.937 74.6996 104.871 74.9126 104.871 75.1683C104.871 75.5391 105.006 75.8224 105.274 76.0185C105.547 76.2102 105.892 76.3061 106.31 76.3061ZM25.2557 92.9815L22.7628 93.1349C22.7202 92.9219 22.6286 92.7301 22.4879 92.5597C22.3473 92.3849 22.1619 92.2464 21.9318 92.1442C21.706 92.0376 21.4354 91.9844 21.12 91.9844C20.6982 91.9844 20.3423 92.0739 20.0526 92.2528C19.7628 92.4276 19.6179 92.6619 19.6179 92.956C19.6179 93.1903 19.7116 93.3885 19.8991 93.5504C20.0866 93.7124 20.4084 93.8423 20.8643 93.9403L22.6413 94.2983C23.5959 94.4943 24.3075 94.8097 24.7763 95.2443C25.245 95.679 25.4794 96.25 25.4794 96.9574C25.4794 97.6009 25.2898 98.1655 24.9105 98.6513C24.5355 99.1371 24.0199 99.5163 23.3636 99.7891C22.7116 100.058 21.9595 100.192 21.1072 100.192C19.8075 100.192 18.772 99.9212 18.0007 99.38C17.2337 98.8345 16.7841 98.093 16.652 97.1555L19.3303 97.0149C19.4112 97.4112 19.6072 97.7138 19.9183 97.9226C20.2294 98.1271 20.6278 98.2294 21.1136 98.2294C21.5909 98.2294 21.9744 98.1378 22.2642 97.9545C22.5582 97.767 22.7074 97.5263 22.7116 97.2322C22.7074 96.9851 22.603 96.7827 22.3984 96.625C22.1939 96.4631 21.8786 96.3395 21.4524 96.2543L19.7521 95.9155C18.7933 95.7237 18.0795 95.3913 17.6108 94.9183C17.1463 94.4453 16.9141 93.8423 16.9141 93.1094C16.9141 92.4787 17.0845 91.9354 17.4254 91.4794C17.7706 91.0234 18.2543 90.6719 18.8764 90.4247C19.5028 90.1776 20.2358 90.054 21.0753 90.054C22.3153 90.054 23.2912 90.3161 24.0028 90.8402C24.7188 91.3643 25.1364 92.0781 25.2557 92.9815ZM29.6338 100.185C29.0074 100.185 28.4491 100.077 27.9591 99.8594C27.469 99.6378 27.0812 99.3118 26.7957 98.8814C26.5145 98.4467 26.3738 97.9055 26.3738 97.2578C26.3738 96.7124 26.474 96.2543 26.6743 95.8835C26.8746 95.5128 27.1473 95.2145 27.4925 94.9886C27.8376 94.7628 28.2297 94.5923 28.6686 94.4773C29.1118 94.3622 29.5763 94.2812 30.0621 94.2344C30.6331 94.1747 31.0933 94.1193 31.4427 94.0682C31.7922 94.0128 32.0457 93.9318 32.2034 93.8253C32.3611 93.7187 32.4399 93.5611 32.4399 93.3523V93.3139C32.4399 92.9091 32.3121 92.5959 32.0564 92.3743C31.805 92.1527 31.447 92.0419 30.9825 92.0419C30.4925 92.0419 30.1025 92.1506 29.8128 92.3679C29.523 92.581 29.3312 92.8494 29.2375 93.1733L26.719 92.9688C26.8469 92.3722 27.0983 91.8565 27.4733 91.4219C27.8483 90.983 28.3319 90.6463 28.9243 90.4119C29.5209 90.1733 30.2112 90.054 30.9953 90.054C31.5407 90.054 32.0628 90.1179 32.5613 90.2457C33.0642 90.3736 33.5095 90.5717 33.8973 90.8402C34.2893 91.1087 34.5983 91.4538 34.8241 91.8757C35.05 92.2933 35.1629 92.794 35.1629 93.3778V100H32.5805V98.6385H32.5038C32.3461 98.9453 32.1352 99.2159 31.871 99.4503C31.6068 99.6804 31.2893 99.8615 30.9186 99.9936C30.5478 100.121 30.1196 100.185 29.6338 100.185ZM30.4136 98.3061C30.8142 98.3061 31.1679 98.2273 31.4747 98.0696C31.7815 97.9077 32.0223 97.6903 32.197 97.4176C32.3717 97.1449 32.4591 96.8359 32.4591 96.4908V95.4489C32.3738 95.5043 32.2567 95.5554 32.1075 95.6023C31.9626 95.6449 31.7986 95.6854 31.6153 95.7237C31.4321 95.7578 31.2488 95.7898 31.0656 95.8196C30.8824 95.8452 30.7162 95.8686 30.567 95.8899C30.2474 95.9368 29.9683 96.0114 29.7297 96.1136C29.491 96.2159 29.3057 96.3544 29.1736 96.5291C29.0415 96.6996 28.9754 96.9126 28.9754 97.1683C28.9754 97.5391 29.1096 97.8224 29.3781 98.0185C29.6508 98.2102 29.996 98.3061 30.4136 98.3061ZM39.6385 94.3239V100H36.9155V90.1818H39.5106V91.9141H39.6257C39.843 91.343 40.2074 90.8913 40.7187 90.5589C41.2301 90.2223 41.8501 90.054 42.5788 90.054C43.2606 90.054 43.8551 90.2031 44.3622 90.5014C44.8693 90.7997 45.2635 91.2259 45.5447 91.7798C45.826 92.3295 45.9666 92.9858 45.9666 93.7486V100H43.2436V94.2344C43.2479 93.6335 43.0945 93.1648 42.7834 92.8281C42.4723 92.4872 42.044 92.3168 41.4986 92.3168C41.1321 92.3168 40.8082 92.3956 40.527 92.5533C40.25 92.7109 40.0327 92.9411 39.875 93.2436C39.7216 93.5419 39.6427 93.902 39.6385 94.3239ZM39.402 104.193L40.1946 101.036H42.7131L41.3132 104.193H39.402ZM52.2272 100.192C51.2172 100.192 50.3479 99.9872 49.6192 99.5781C48.8948 99.1648 48.3365 98.581 47.9445 97.8267C47.5525 97.0682 47.3564 96.1712 47.3564 95.1357C47.3564 94.1257 47.5525 93.2393 47.9445 92.4766C48.3365 91.7138 48.8884 91.1193 49.6 90.6932C50.316 90.267 51.1554 90.054 52.1185 90.054C52.7662 90.054 53.3692 90.1584 53.9275 90.3672C54.49 90.5717 54.98 90.8807 55.3976 91.294C55.8195 91.7074 56.1476 92.2273 56.382 92.8537C56.6164 93.4759 56.7336 94.2045 56.7336 95.0398V95.7876H48.4431V94.1001H54.1704C54.1704 93.7081 54.0851 93.3608 53.9147 93.0582C53.7442 92.7557 53.5077 92.5192 53.2052 92.3487C52.9069 92.174 52.5596 92.0866 52.1633 92.0866C51.7499 92.0866 51.3834 92.1825 51.0638 92.3743C50.7485 92.5618 50.5013 92.8153 50.3223 93.1349C50.1434 93.4503 50.0517 93.8018 50.0475 94.1896V95.794C50.0475 96.2798 50.137 96.6996 50.316 97.0533C50.4992 97.407 50.757 97.6797 51.0894 97.8714C51.4218 98.0632 51.816 98.1591 52.2719 98.1591C52.5745 98.1591 52.8515 98.1165 53.1029 98.0312C53.3543 97.946 53.5695 97.8182 53.7485 97.6477C53.9275 97.4773 54.0638 97.2685 54.1576 97.0213L56.676 97.1875C56.5482 97.7926 56.2861 98.321 55.8898 98.7727C55.4978 99.2202 54.9907 99.5696 54.3685 99.821C53.7506 100.068 53.0368 100.192 52.2272 100.192ZM58.1506 100V90.1818H60.7457V91.9141H60.8608C61.0653 91.3388 61.4062 90.8849 61.8835 90.5526C62.3608 90.2202 62.9318 90.054 63.5966 90.054C64.2699 90.054 64.843 90.2223 65.316 90.5589C65.7891 90.8913 66.1044 91.343 66.2621 91.9141H66.3643C66.5646 91.3516 66.9268 90.902 67.451 90.5653C67.9794 90.2244 68.6037 90.054 69.3239 90.054C70.24 90.054 70.9837 90.3459 71.5547 90.9297C72.13 91.5092 72.4176 92.3317 72.4176 93.397V100H69.701V93.9339C69.701 93.3885 69.5561 92.9794 69.2663 92.7067C68.9766 92.4339 68.6143 92.2976 68.1797 92.2976C67.6854 92.2976 67.2997 92.4553 67.0227 92.7706C66.7457 93.0817 66.6072 93.4929 66.6072 94.0043V100H63.9673V93.8764C63.9673 93.3949 63.8288 93.0114 63.5518 92.7259C63.2791 92.4403 62.919 92.2976 62.4716 92.2976C62.169 92.2976 61.8963 92.3743 61.6534 92.5277C61.4148 92.6768 61.2251 92.8878 61.0845 93.1605C60.9439 93.429 60.8736 93.7443 60.8736 94.1065V100H58.1506ZM82.3776 92.9815L79.8847 93.1349C79.842 92.9219 79.7504 92.7301 79.6098 92.5597C79.4692 92.3849 79.2838 92.2464 79.0537 92.1442C78.8278 92.0376 78.5572 91.9844 78.2419 91.9844C77.82 91.9844 77.4642 92.0739 77.1744 92.2528C76.8847 92.4276 76.7398 92.6619 76.7398 92.956C76.7398 93.1903 76.8335 93.3885 77.021 93.5504C77.2085 93.7124 77.5303 93.8423 77.9862 93.9403L79.7632 94.2983C80.7178 94.4943 81.4294 94.8097 81.8982 95.2443C82.3669 95.679 82.6013 96.25 82.6013 96.9574C82.6013 97.6009 82.4116 98.1655 82.0324 98.6513C81.6574 99.1371 81.1418 99.5163 80.4855 99.7891C79.8335 100.058 79.0814 100.192 78.2291 100.192C76.9294 100.192 75.8939 99.9212 75.1226 99.38C74.3555 98.8345 73.906 98.093 73.7739 97.1555L76.4521 97.0149C76.5331 97.4112 76.7291 97.7138 77.0402 97.9226C77.3513 98.1271 77.7497 98.2294 78.2355 98.2294C78.7128 98.2294 79.0963 98.1378 79.3861 97.9545C79.6801 97.767 79.8293 97.5263 79.8335 97.2322C79.8293 96.9851 79.7249 96.7827 79.5203 96.625C79.3158 96.4631 79.0004 96.3395 78.5743 96.2543L76.874 95.9155C75.9152 95.7237 75.2014 95.3913 74.7327 94.9183C74.2682 94.4453 74.0359 93.8423 74.0359 93.1094C74.0359 92.4787 74.2064 91.9354 74.5473 91.4794C74.8925 91.0234 75.3761 90.6719 75.9983 90.4247C76.6247 90.1776 77.3577 90.054 78.1972 90.054C79.4372 90.054 80.4131 90.3161 81.1247 90.8402C81.8406 91.3643 82.2582 92.0781 82.3776 92.9815ZM76.9699 86.1037L78.2547 87.6634L79.5395 86.1037H81.8598V86.1932L79.2646 89.0057H77.2384L74.6496 86.1932V86.1037H76.9699ZM86.7557 100.185C86.1292 100.185 85.571 100.077 85.0809 99.8594C84.5909 99.6378 84.2031 99.3118 83.9176 98.8814C83.6363 98.4467 83.4957 97.9055 83.4957 97.2578C83.4957 96.7124 83.5959 96.2543 83.7961 95.8835C83.9964 95.5128 84.2692 95.2145 84.6143 94.9886C84.9595 94.7628 85.3515 94.5923 85.7905 94.4773C86.2336 94.3622 86.6981 94.2812 87.1839 94.2344C87.7549 94.1747 88.2152 94.1193 88.5646 94.0682C88.914 94.0128 89.1676 93.9318 89.3253 93.8253C89.4829 93.7187 89.5618 93.5611 89.5618 93.3523V93.3139C89.5618 92.9091 89.4339 92.5959 89.1782 92.3743C88.9268 92.1527 88.5689 92.0419 88.1044 92.0419C87.6143 92.0419 87.2244 92.1506 86.9346 92.3679C86.6449 92.581 86.4531 92.8494 86.3594 93.1733L83.8409 92.9688C83.9687 92.3722 84.2201 91.8565 84.5951 91.4219C84.9701 90.983 85.4538 90.6463 86.0461 90.4119C86.6427 90.1733 87.3331 90.054 88.1172 90.054C88.6626 90.054 89.1846 90.1179 89.6832 90.2457C90.1861 90.3736 90.6314 90.5717 91.0192 90.8402C91.4112 91.1087 91.7201 91.4538 91.946 91.8757C92.1718 92.2933 92.2848 92.794 92.2848 93.3778V100H89.7024V98.6385H89.6257C89.468 98.9453 89.2571 99.2159 88.9929 99.4503C88.7287 99.6804 88.4112 99.8615 88.0405 99.9936C87.6697 100.121 87.2415 100.185 86.7557 100.185ZM87.5355 98.3061C87.9361 98.3061 88.2897 98.2273 88.5966 98.0696C88.9034 97.9077 89.1442 97.6903 89.3189 97.4176C89.4936 97.1449 89.5809 96.8359 89.5809 96.4908V95.4489C89.4957 95.5043 89.3785 95.5554 89.2294 95.6023C89.0845 95.6449 88.9204 95.6854 88.7372 95.7237C88.554 95.7578 88.3707 95.7898 88.1875 95.8196C88.0042 95.8452 87.838 95.8686 87.6889 95.8899C87.3693 95.9368 87.0902 96.0114 86.8515 96.1136C86.6129 96.2159 86.4275 96.3544 86.2954 96.5291C86.1633 96.6996 86.0973 96.9126 86.0973 97.1683C86.0973 97.5391 86.2315 97.8224 86.5 98.0185C86.7727 98.2102 87.1179 98.3061 87.5355 98.3061ZM96.7604 94.3239V100H94.0374V90.1818H96.6325V91.9141H96.7476C96.9649 91.343 97.3293 90.8913 97.8406 90.5589C98.352 90.2223 98.972 90.054 99.7007 90.054C100.383 90.054 100.977 90.2031 101.484 90.5014C101.991 90.7997 102.385 91.2259 102.667 91.7798C102.948 92.3295 103.088 92.9858 103.088 93.7486V100H100.365V94.2344C100.37 93.6335 100.216 93.1648 99.9053 92.8281C99.5942 92.4872 99.1659 92.3168 98.6205 92.3168C98.254 92.3168 97.9301 92.3956 97.6489 92.5533C97.3719 92.7109 97.1545 92.9411 96.9969 93.2436C96.8435 93.5419 96.7646 93.902 96.7604 94.3239ZM107.674 100.185C107.048 100.185 106.49 100.077 106 99.8594C105.51 99.6378 105.122 99.3118 104.836 98.8814C104.555 98.4467 104.414 97.9055 104.414 97.2578C104.414 96.7124 104.515 96.2543 104.715 95.8835C104.915 95.5128 105.188 95.2145 105.533 94.9886C105.878 94.7628 106.27 94.5923 106.709 94.4773C107.152 94.3622 107.617 94.2812 108.103 94.2344C108.674 94.1747 109.134 94.1193 109.483 94.0682C109.833 94.0128 110.086 93.9318 110.244 93.8253C110.402 93.7187 110.48 93.5611 110.48 93.3523V93.3139C110.48 92.9091 110.353 92.5959 110.097 92.3743C109.846 92.1527 109.488 92.0419 109.023 92.0419C108.533 92.0419 108.143 92.1506 107.853 92.3679C107.564 92.581 107.372 92.8494 107.278 93.1733L104.76 92.9688C104.887 92.3722 105.139 91.8565 105.514 91.4219C105.889 90.983 106.372 90.6463 106.965 90.4119C107.561 90.1733 108.252 90.054 109.036 90.054C109.581 90.054 110.103 90.1179 110.602 90.2457C111.105 90.3736 111.55 90.5717 111.938 90.8402C112.33 91.1087 112.639 91.4538 112.865 91.8757C113.091 92.2933 113.203 92.794 113.203 93.3778V100H110.621V98.6385H110.544C110.387 98.9453 110.176 99.2159 109.912 99.4503C109.647 99.6804 109.33 99.8615 108.959 99.9936C108.588 100.121 108.16 100.185 107.674 100.185ZM108.454 98.3061C108.855 98.3061 109.208 98.2273 109.515 98.0696C109.822 97.9077 110.063 97.6903 110.238 97.4176C110.412 97.1449 110.5 96.8359 110.5 96.4908V95.4489C110.414 95.5043 110.297 95.5554 110.148 95.6023C110.003 95.6449 109.839 95.6854 109.656 95.7237C109.473 95.7578 109.289 95.7898 109.106 95.8196C108.923 95.8452 108.757 95.8686 108.608 95.8899C108.288 95.9368 108.009 96.0114 107.77 96.1136C107.532 96.2159 107.346 96.3544 107.214 96.5291C107.082 96.6996 107.016 96.9126 107.016 97.1683C107.016 97.5391 107.15 97.8224 107.419 98.0185C107.691 98.2102 108.037 98.3061 108.454 98.3061ZM127.915 90.1818L124.483 100H121.415L117.982 90.1818H120.859L122.898 97.2067H123L125.033 90.1818H127.915ZM131.485 100.185C130.859 100.185 130.3 100.077 129.81 99.8594C129.32 99.6378 128.932 99.3118 128.647 98.8814C128.366 98.4467 128.225 97.9055 128.225 97.2578C128.225 96.7124 128.325 96.2543 128.525 95.8835C128.726 95.5128 128.998 95.2145 129.344 94.9886C129.689 94.7628 130.081 94.5923 130.52 94.4773C130.963 94.3622 131.427 94.2812 131.913 94.2344C132.484 94.1747 132.944 94.1193 133.294 94.0682C133.643 94.0128 133.897 93.9318 134.055 93.8253C134.212 93.7187 134.291 93.5611 134.291 93.3523V93.3139C134.291 92.9091 134.163 92.5959 133.908 92.3743C133.656 92.1527 133.298 92.0419 132.834 92.0419C132.344 92.0419 131.954 92.1506 131.664 92.3679C131.374 92.581 131.182 92.8494 131.089 93.1733L128.57 92.9688C128.698 92.3722 128.949 91.8565 129.324 91.4219C129.699 90.983 130.183 90.6463 130.775 90.4119C131.372 90.1733 132.062 90.054 132.846 90.054C133.392 90.054 133.914 90.1179 134.413 90.2457C134.915 90.3736 135.361 90.5717 135.748 90.8402C136.14 91.1087 136.449 91.4538 136.675 91.8757C136.901 92.2933 137.014 92.794 137.014 93.3778V100H134.432V98.6385H134.355C134.197 98.9453 133.986 99.2159 133.722 99.4503C133.458 99.6804 133.14 99.8615 132.77 99.9936C132.399 100.121 131.971 100.185 131.485 100.185ZM132.265 98.3061C132.665 98.3061 133.019 98.2273 133.326 98.0696C133.633 97.9077 133.873 97.6903 134.048 97.4176C134.223 97.1449 134.31 96.8359 134.31 96.4908V95.4489C134.225 95.5043 134.108 95.5554 133.959 95.6023C133.814 95.6449 133.65 95.6854 133.466 95.7237C133.283 95.7578 133.1 95.7898 132.917 95.8196C132.734 95.8452 132.567 95.8686 132.418 95.8899C132.099 95.9368 131.819 96.0114 131.581 96.1136C131.342 96.2159 131.157 96.3544 131.025 96.5291C130.893 96.6996 130.827 96.9126 130.827 97.1683C130.827 97.5391 130.961 97.8224 131.229 98.0185C131.502 98.2102 131.847 98.3061 132.265 98.3061ZM138.767 100V90.1818H141.49V100H138.767ZM140.135 88.9162C139.73 88.9162 139.382 88.782 139.093 88.5135C138.807 88.2408 138.664 87.9148 138.664 87.5355C138.664 87.1605 138.807 86.8388 139.093 86.5703C139.382 86.2976 139.73 86.1612 140.135 86.1612C140.539 86.1612 140.885 86.2976 141.17 86.5703C141.46 86.8388 141.605 87.1605 141.605 87.5355C141.605 87.9148 141.46 88.2408 141.17 88.5135C140.885 88.782 140.539 88.9162 140.135 88.9162ZM19.8864 122.185C19.2599 122.185 18.7017 122.077 18.2116 121.859C17.7216 121.638 17.3338 121.312 17.0483 120.881C16.767 120.447 16.6264 119.906 16.6264 119.258C16.6264 118.712 16.7266 118.254 16.9268 117.884C17.1271 117.513 17.3999 117.214 17.745 116.989C18.0902 116.763 18.4822 116.592 18.9212 116.477C19.3643 116.362 19.8288 116.281 20.3146 116.234C20.8857 116.175 21.3459 116.119 21.6953 116.068C22.0447 116.013 22.2983 115.932 22.456 115.825C22.6136 115.719 22.6925 115.561 22.6925 115.352V115.314C22.6925 114.909 22.5646 114.596 22.3089 114.374C22.0575 114.153 21.6996 114.042 21.2351 114.042C20.745 114.042 20.3551 114.151 20.0653 114.368C19.7756 114.581 19.5838 114.849 19.4901 115.173L16.9716 114.969C17.0994 114.372 17.3509 113.857 17.7259 113.422C18.1009 112.983 18.5845 112.646 19.1768 112.412C19.7734 112.173 20.4638 112.054 21.2479 112.054C21.7933 112.054 22.3153 112.118 22.8139 112.246C23.3168 112.374 23.7621 112.572 24.1499 112.84C24.5419 113.109 24.8509 113.454 25.0767 113.876C25.3026 114.293 25.4155 114.794 25.4155 115.378V122H22.8331V120.638H22.7564C22.5987 120.945 22.3878 121.216 22.1236 121.45C21.8594 121.68 21.5419 121.862 21.1712 121.994C20.8004 122.121 20.3722 122.185 19.8864 122.185ZM20.6662 120.306C21.0668 120.306 21.4205 120.227 21.7273 120.07C22.0341 119.908 22.2749 119.69 22.4496 119.418C22.6243 119.145 22.7116 118.836 22.7116 118.491V117.449C22.6264 117.504 22.5092 117.555 22.3601 117.602C22.2152 117.645 22.0511 117.685 21.8679 117.724C21.6847 117.758 21.5014 117.79 21.3182 117.82C21.1349 117.845 20.9688 117.869 20.8196 117.89C20.5 117.937 20.2209 118.011 19.9822 118.114C19.7436 118.216 19.5582 118.354 19.4261 118.529C19.294 118.7 19.228 118.913 19.228 119.168C19.228 119.539 19.3622 119.822 19.6307 120.018C19.9034 120.21 20.2486 120.306 20.6662 120.306ZM32.3904 112.182V114.227H26.4777V112.182H32.3904ZM27.82 109.83H30.5431V118.983C30.5431 119.234 30.5814 119.43 30.6581 119.571C30.7348 119.707 30.8413 119.803 30.9777 119.859C31.1183 119.914 31.2803 119.942 31.4635 119.942C31.5913 119.942 31.7192 119.931 31.847 119.91C31.9749 119.884 32.0729 119.865 32.1411 119.852L32.5693 121.879C32.433 121.921 32.2412 121.97 31.994 122.026C31.7469 122.085 31.4465 122.121 31.0928 122.134C30.4365 122.16 29.8612 122.072 29.3669 121.872C28.8769 121.672 28.4955 121.361 28.2227 120.939C27.95 120.517 27.8158 119.984 27.82 119.341V109.83ZM33.8041 122V112.182H36.3993V113.914H36.5144C36.7189 113.339 37.0598 112.885 37.5371 112.553C38.0144 112.22 38.5854 112.054 39.2502 112.054C39.9235 112.054 40.4966 112.222 40.9696 112.559C41.4426 112.891 41.758 113.343 41.9157 113.914H42.0179C42.2182 113.352 42.5804 112.902 43.1046 112.565C43.633 112.224 44.2573 112.054 44.9774 112.054C45.8936 112.054 46.6372 112.346 47.2083 112.93C47.7836 113.509 48.0712 114.332 48.0712 115.397V122H45.3546V115.934C45.3546 115.388 45.2097 114.979 44.9199 114.707C44.6301 114.434 44.2679 114.298 43.8333 114.298C43.3389 114.298 42.9533 114.455 42.6763 114.771C42.3993 115.082 42.2608 115.493 42.2608 116.004V122H39.6209V115.876C39.6209 115.395 39.4824 115.011 39.2054 114.726C38.9327 114.44 38.5726 114.298 38.1252 114.298C37.8226 114.298 37.5499 114.374 37.307 114.528C37.0684 114.677 36.8787 114.888 36.7381 115.161C36.5975 115.429 36.5272 115.744 36.5272 116.107V122H33.8041ZM52.6618 122.185C52.0354 122.185 51.4772 122.077 50.9871 121.859C50.4971 121.638 50.1093 121.312 49.8238 120.881C49.5425 120.447 49.4019 119.906 49.4019 119.258C49.4019 118.712 49.502 118.254 49.7023 117.884C49.9026 117.513 50.1753 117.214 50.5205 116.989C50.8657 116.763 51.2577 116.592 51.6966 116.477C52.1398 116.362 52.6043 116.281 53.0901 116.234C53.6611 116.175 54.1213 116.119 54.4708 116.068C54.8202 116.013 55.0738 115.932 55.2314 115.825C55.3891 115.719 55.4679 115.561 55.4679 115.352V115.314C55.4679 114.909 55.3401 114.596 55.0844 114.374C54.833 114.153 54.475 114.042 54.0106 114.042C53.5205 114.042 53.1306 114.151 52.8408 114.368C52.551 114.581 52.3593 114.849 52.2655 115.173L49.7471 114.969C49.8749 114.372 50.1263 113.857 50.5013 113.422C50.8763 112.983 51.36 112.646 51.9523 112.412C52.5489 112.173 53.2392 112.054 54.0233 112.054C54.5688 112.054 55.0908 112.118 55.5894 112.246C56.0922 112.374 56.5375 112.572 56.9253 112.84C57.3174 113.109 57.6263 113.454 57.8522 113.876C58.078 114.293 58.1909 114.794 58.1909 115.378V122H55.6086V120.638H55.5319C55.3742 120.945 55.1633 121.216 54.899 121.45C54.6348 121.68 54.3174 121.862 53.9466 121.994C53.5759 122.121 53.1476 122.185 52.6618 122.185ZM53.4417 120.306C53.8422 120.306 54.1959 120.227 54.5027 120.07C54.8096 119.908 55.0503 119.69 55.225 119.418C55.3998 119.145 55.4871 118.836 55.4871 118.491V117.449C55.4019 117.504 55.2847 117.555 55.1356 117.602C54.9907 117.645 54.8266 117.685 54.6434 117.724C54.4601 117.758 54.2769 117.79 54.0936 117.82C53.9104 117.845 53.7442 117.869 53.5951 117.89C53.2755 117.937 52.9963 118.011 52.7577 118.114C52.5191 118.216 52.3337 118.354 52.2016 118.529C52.0695 118.7 52.0034 118.913 52.0034 119.168C52.0034 119.539 52.1377 119.822 52.4061 120.018C52.6789 120.21 53.024 120.306 53.4417 120.306ZM62.4109 119.175L62.4172 115.908H62.8136L65.9584 112.182H69.0841L64.859 117.116H64.2134L62.4109 119.175ZM59.9435 122V108.909H62.6665V122H59.9435ZM66.0799 122L63.1907 117.724L65.006 115.8L69.2695 122H66.0799ZM78.2291 114.982L75.7362 115.135C75.6936 114.922 75.602 114.73 75.4614 114.56C75.3207 114.385 75.1354 114.246 74.9053 114.144C74.6794 114.038 74.4088 113.984 74.0935 113.984C73.6716 113.984 73.3158 114.074 73.026 114.253C72.7362 114.428 72.5913 114.662 72.5913 114.956C72.5913 115.19 72.6851 115.388 72.8726 115.55C73.0601 115.712 73.3818 115.842 73.8378 115.94L75.6148 116.298C76.5693 116.494 77.281 116.81 77.7497 117.244C78.2185 117.679 78.4528 118.25 78.4528 118.957C78.4528 119.601 78.2632 120.165 77.884 120.651C77.509 121.137 76.9933 121.516 76.3371 121.789C75.6851 122.058 74.933 122.192 74.0807 122.192C72.781 122.192 71.7455 121.921 70.9741 121.38C70.2071 120.835 69.7575 120.093 69.6254 119.156L72.3037 119.015C72.3847 119.411 72.5807 119.714 72.8918 119.923C73.2028 120.127 73.6013 120.229 74.0871 120.229C74.5643 120.229 74.9479 120.138 75.2376 119.955C75.5317 119.767 75.6808 119.526 75.6851 119.232C75.6808 118.985 75.5764 118.783 75.3719 118.625C75.1673 118.463 74.852 118.339 74.4259 118.254L72.7256 117.915C71.7668 117.724 71.053 117.391 70.5842 116.918C70.1197 116.445 69.8875 115.842 69.8875 115.109C69.8875 114.479 70.058 113.935 70.3989 113.479C70.744 113.023 71.2277 112.672 71.8499 112.425C72.4763 112.178 73.2092 112.054 74.0487 112.054C75.2888 112.054 76.2646 112.316 76.9763 112.84C77.6922 113.364 78.1098 114.078 78.2291 114.982ZM82.6072 122.185C81.9808 122.185 81.4226 122.077 80.9325 121.859C80.4425 121.638 80.0547 121.312 79.7692 120.881C79.4879 120.447 79.3473 119.906 79.3473 119.258C79.3473 118.712 79.4474 118.254 79.6477 117.884C79.848 117.513 80.1207 117.214 80.4659 116.989C80.8111 116.763 81.2031 116.592 81.642 116.477C82.0852 116.362 82.5497 116.281 83.0355 116.234C83.6065 116.175 84.0667 116.119 84.4162 116.068C84.7656 116.013 85.0192 115.932 85.1768 115.825C85.3345 115.719 85.4133 115.561 85.4133 115.352V115.314C85.4133 114.909 85.2855 114.596 85.0298 114.374C84.7784 114.153 84.4204 114.042 83.9559 114.042C83.4659 114.042 83.076 114.151 82.7862 114.368C82.4964 114.581 82.3047 114.849 82.2109 115.173L79.6925 114.969C79.8203 114.372 80.0717 113.857 80.4467 113.422C80.8217 112.983 81.3054 112.646 81.8977 112.412C82.4943 112.173 83.1846 112.054 83.9687 112.054C84.5142 112.054 85.0362 112.118 85.5348 112.246C86.0376 112.374 86.4829 112.572 86.8707 112.84C87.2628 113.109 87.5717 113.454 87.7976 113.876C88.0234 114.293 88.1363 114.794 88.1363 115.378V122H85.554V120.638H85.4773C85.3196 120.945 85.1086 121.216 84.8444 121.45C84.5802 121.68 84.2628 121.862 83.892 121.994C83.5213 122.121 83.093 122.185 82.6072 122.185ZM83.3871 120.306C83.7876 120.306 84.1413 120.227 84.4481 120.07C84.755 119.908 84.9957 119.69 85.1704 119.418C85.3451 119.145 85.4325 118.836 85.4325 118.491V117.449C85.3473 117.504 85.2301 117.555 85.0809 117.602C84.9361 117.645 84.772 117.685 84.5888 117.724C84.4055 117.758 84.2223 117.79 84.039 117.82C83.8558 117.845 83.6896 117.869 83.5405 117.89C83.2209 117.937 82.9417 118.011 82.7031 118.114C82.4645 118.216 82.2791 118.354 82.147 118.529C82.0149 118.7 81.9488 118.913 81.9488 119.168C81.9488 119.539 82.0831 119.822 82.3515 120.018C82.6243 120.21 82.9694 120.306 83.3871 120.306ZM87.1839 108.909V110.386H80.9581V108.909H87.1839ZM98.058 114.982L95.5651 115.135C95.5224 114.922 95.4308 114.73 95.2902 114.56C95.1496 114.385 94.9642 114.246 94.7341 114.144C94.5082 114.038 94.2376 113.984 93.9223 113.984C93.5004 113.984 93.1446 114.074 92.8548 114.253C92.5651 114.428 92.4202 114.662 92.4202 114.956C92.4202 115.19 92.5139 115.388 92.7014 115.55C92.8889 115.712 93.2106 115.842 93.6666 115.94L95.4436 116.298C96.3981 116.494 97.1098 116.81 97.5785 117.244C98.0473 117.679 98.2817 118.25 98.2817 118.957C98.2817 119.601 98.092 120.165 97.7128 120.651C97.3378 121.137 96.8222 121.516 96.1659 121.789C95.5139 122.058 94.7618 122.192 93.9095 122.192C92.6098 122.192 91.5743 121.921 90.803 121.38C90.0359 120.835 89.5864 120.093 89.4543 119.156L92.1325 119.015C92.2135 119.411 92.4095 119.714 92.7206 119.923C93.0317 120.127 93.4301 120.229 93.9159 120.229C94.3932 120.229 94.7767 120.138 95.0665 119.955C95.3605 119.767 95.5097 119.526 95.5139 119.232C95.5097 118.985 95.4053 118.783 95.2007 118.625C94.9962 118.463 94.6808 118.339 94.2547 118.254L92.5544 117.915C91.5956 117.724 90.8818 117.391 90.4131 116.918C89.9486 116.445 89.7163 115.842 89.7163 115.109C89.7163 114.479 89.8868 113.935 90.2277 113.479C90.5729 113.023 91.0565 112.672 91.6787 112.425C92.3051 112.178 93.0381 112.054 93.8776 112.054C95.1176 112.054 96.0935 112.316 96.8051 112.84C97.521 113.364 97.9386 114.078 98.058 114.982ZM92.6503 108.104L93.9351 109.663L95.2199 108.104H97.5402V108.193L94.945 111.006H92.9187L90.33 108.193V108.104H92.6503ZM102.436 122.185C101.81 122.185 101.251 122.077 100.761 121.859C100.271 121.638 99.8835 121.312 99.598 120.881C99.3167 120.447 99.1761 119.906 99.1761 119.258C99.1761 118.712 99.2763 118.254 99.4765 117.884C99.6768 117.513 99.9495 117.214 100.295 116.989C100.64 116.763 101.032 116.592 101.471 116.477C101.914 116.362 102.379 116.281 102.864 116.234C103.435 116.175 103.896 116.119 104.245 116.068C104.594 116.013 104.848 115.932 105.006 115.825C105.163 115.719 105.242 115.561 105.242 115.352V115.314C105.242 114.909 105.114 114.596 104.859 114.374C104.607 114.153 104.249 114.042 103.785 114.042C103.295 114.042 102.905 114.151 102.615 114.368C102.325 114.581 102.133 114.849 102.04 115.173L99.5213 114.969C99.6491 114.372 99.9005 113.857 100.276 113.422C100.651 112.983 101.134 112.646 101.727 112.412C102.323 112.173 103.013 112.054 103.798 112.054C104.343 112.054 104.865 112.118 105.364 112.246C105.866 112.374 106.312 112.572 106.7 112.84C107.092 113.109 107.401 113.454 107.626 113.876C107.852 114.293 107.965 114.794 107.965 115.378V122H105.383V120.638H105.306C105.148 120.945 104.937 121.216 104.673 121.45C104.409 121.68 104.092 121.862 103.721 121.994C103.35 122.121 102.922 122.185 102.436 122.185ZM103.216 120.306C103.616 120.306 103.97 120.227 104.277 120.07C104.584 119.908 104.825 119.69 104.999 119.418C105.174 119.145 105.261 118.836 105.261 118.491V117.449C105.176 117.504 105.059 117.555 104.91 117.602C104.765 117.645 104.601 117.685 104.418 117.724C104.234 117.758 104.051 117.79 103.868 117.82C103.685 117.845 103.518 117.869 103.369 117.89C103.05 117.937 102.771 118.011 102.532 118.114C102.293 118.216 102.108 118.354 101.976 118.529C101.844 118.7 101.778 118.913 101.778 119.168C101.778 119.539 101.912 119.822 102.18 120.018C102.453 120.21 102.798 120.306 103.216 120.306ZM112.441 116.324V122H109.718V112.182H112.313V113.914H112.428C112.645 113.343 113.01 112.891 113.521 112.559C114.032 112.222 114.652 112.054 115.381 112.054C116.063 112.054 116.657 112.203 117.164 112.501C117.672 112.8 118.066 113.226 118.347 113.78C118.628 114.33 118.769 114.986 118.769 115.749V122H116.046V116.234C116.05 115.634 115.897 115.165 115.586 114.828C115.275 114.487 114.846 114.317 114.301 114.317C113.934 114.317 113.61 114.396 113.329 114.553C113.052 114.711 112.835 114.941 112.677 115.244C112.524 115.542 112.445 115.902 112.441 116.324ZM123.355 122.185C122.728 122.185 122.17 122.077 121.68 121.859C121.19 121.638 120.802 121.312 120.517 120.881C120.235 120.447 120.095 119.906 120.095 119.258C120.095 118.712 120.195 118.254 120.395 117.884C120.595 117.513 120.868 117.214 121.213 116.989C121.559 116.763 121.951 116.592 122.39 116.477C122.833 116.362 123.297 116.281 123.783 116.234C124.354 116.175 124.814 116.119 125.164 116.068C125.513 116.013 125.767 115.932 125.924 115.825C126.082 115.719 126.161 115.561 126.161 115.352V115.314C126.161 114.909 126.033 114.596 125.777 114.374C125.526 114.153 125.168 114.042 124.703 114.042C124.213 114.042 123.823 114.151 123.534 114.368C123.244 114.581 123.052 114.849 122.958 115.173L120.44 114.969C120.568 114.372 120.819 113.857 121.194 113.422C121.569 112.983 122.053 112.646 122.645 112.412C123.242 112.173 123.932 112.054 124.716 112.054C125.262 112.054 125.784 112.118 126.282 112.246C126.785 112.374 127.23 112.572 127.618 112.84C128.01 113.109 128.319 113.454 128.545 113.876C128.771 114.293 128.884 114.794 128.884 115.378V122H126.301V120.638H126.225C126.067 120.945 125.856 121.216 125.592 121.45C125.328 121.68 125.01 121.862 124.64 121.994C124.269 122.121 123.841 122.185 123.355 122.185ZM124.135 120.306C124.535 120.306 124.889 120.227 125.196 120.07C125.502 119.908 125.743 119.69 125.918 119.418C126.093 119.145 126.18 118.836 126.18 118.491V117.449C126.095 117.504 125.978 117.555 125.828 117.602C125.684 117.645 125.519 117.685 125.336 117.724C125.153 117.758 124.97 117.79 124.787 117.82C124.603 117.845 124.437 117.869 124.288 117.89C123.968 117.937 123.689 118.011 123.451 118.114C123.212 118.216 123.027 118.354 122.894 118.529C122.762 118.7 122.696 118.913 122.696 119.168C122.696 119.539 122.831 119.822 123.099 120.018C123.372 120.21 123.717 120.306 124.135 120.306Z" fill="#1A1D27"/>
</svg>
