<svg width="200" height="118" viewBox="0 0 200 118" fill="none" xmlns="http://www.w3.org/2000/svg">
<rect width="200" height="118" rx="16" fill="white" fill-opacity="0.7"/>
<rect x="16" y="16" width="32" height="32" rx="8" fill="#FFF4DB"/>
<path d="M31.25 38.75H26C26 36.1051 27.9558 33.9171 30.5 33.5532M37.9045 34.4028C37.8533 34.4059 37.8018 34.4075 37.75 34.4075C36.9816 34.4075 36.2807 34.0643 35.75 33.5C35.2192 34.0643 34.5183 34.4074 33.75 34.4074C33.6982 34.4074 33.6467 34.4059 33.5955 34.4028C33.5332 34.689 33.5 34.9891 33.5 35.2984C33.5 36.959 34.4561 38.3544 35.75 38.75C37.0439 38.3544 38 36.959 38 35.2984C38 34.9891 37.9668 34.689 37.9045 34.4028ZM34.25 28.25C34.25 29.9069 32.9069 31.25 31.25 31.25C29.5931 31.25 28.25 29.9069 28.25 28.25C28.25 26.5931 29.5931 25.25 31.25 25.25C32.9069 25.25 34.25 26.5931 34.25 28.25Z" stroke="#1A1D27" stroke-width="1.5" stroke-linecap="round" stroke-linejoin="round"/>
<path d="M19.5028 64.9091L22.6669 74.8551H22.7884L25.9588 64.9091H29.027L24.5142 78H20.9474L16.4283 64.9091H19.5028ZM37.3442 68.674C37.2931 68.1584 37.0736 67.7578 36.6858 67.4723C36.298 67.1868 35.7717 67.044 35.107 67.044C34.6553 67.044 34.2739 67.108 33.9628 67.2358C33.6517 67.3594 33.4131 67.532 33.2469 67.7536C33.085 67.9751 33.004 68.2266 33.004 68.5078C32.9955 68.7422 33.0445 68.9467 33.151 69.1214C33.2618 69.2962 33.4131 69.4474 33.6048 69.5753C33.7966 69.6989 34.0182 69.8075 34.2696 69.9013C34.521 69.9908 34.7895 70.0675 35.075 70.1314L36.2512 70.4126C36.8222 70.5405 37.3463 70.7109 37.8236 70.924C38.3009 71.1371 38.7142 71.3991 39.0637 71.7102C39.4131 72.0213 39.6837 72.3878 39.8754 72.8097C40.0715 73.2315 40.1716 73.7152 40.1759 74.2607C40.1716 75.0618 39.9671 75.7564 39.5622 76.3445C39.1617 76.9283 38.5821 77.3821 37.8236 77.706C37.0693 78.0256 36.1595 78.1854 35.0942 78.1854C34.0374 78.1854 33.1169 78.0234 32.3328 77.6996C31.553 77.3757 30.9436 76.8963 30.5047 76.2614C30.07 75.6222 29.8421 74.8317 29.8208 73.8899H32.499C32.5288 74.3288 32.6546 74.6953 32.8762 74.9893C33.102 75.2791 33.4024 75.4986 33.7774 75.6477C34.1567 75.7926 34.585 75.8651 35.0622 75.8651C35.531 75.8651 35.9379 75.7969 36.2831 75.6605C36.6325 75.5241 36.9031 75.3345 37.0949 75.0916C37.2867 74.8487 37.3825 74.5696 37.3825 74.2543C37.3825 73.9602 37.2952 73.7131 37.1205 73.5128C36.95 73.3125 36.6986 73.142 36.3662 73.0014C36.0381 72.8608 35.6354 72.733 35.1581 72.6179L33.7327 72.2599C32.629 71.9915 31.7575 71.5717 31.1183 71.0007C30.4791 70.4297 30.1617 69.6605 30.1659 68.6932C30.1617 67.9006 30.3726 67.2081 30.7987 66.6158C31.2291 66.0234 31.8193 65.5611 32.5693 65.2287C33.3193 64.8963 34.1716 64.7301 35.1262 64.7301C36.0977 64.7301 36.9458 64.8963 37.6702 65.2287C38.3989 65.5611 38.9656 66.0234 39.3705 66.6158C39.7753 67.2081 39.9841 67.8942 39.9969 68.674H37.3442ZM43.6351 78H40.6692L45.1884 64.9091H48.7551L53.2679 78H50.302L47.0229 67.9006H46.9206L43.6351 78ZM43.4497 72.8544H50.4554V75.0149H43.4497V72.8544ZM65.8982 71.4545C65.8982 72.8821 65.6276 74.0966 65.0864 75.098C64.5494 76.0994 63.8165 76.8643 62.8875 77.3928C61.9628 77.9169 60.923 78.179 59.7682 78.179C58.6048 78.179 57.5608 77.9148 56.6361 77.3864C55.7114 76.858 54.9805 76.093 54.4436 75.0916C53.9067 74.0902 53.6382 72.8778 53.6382 71.4545C53.6382 70.027 53.9067 68.8125 54.4436 67.8111C54.9805 66.8097 55.7114 66.0469 56.6361 65.5227C57.5608 64.9943 58.6048 64.7301 59.7682 64.7301C60.923 64.7301 61.9628 64.9943 62.8875 65.5227C63.8165 66.0469 64.5494 66.8097 65.0864 67.8111C65.6276 68.8125 65.8982 70.027 65.8982 71.4545ZM63.0921 71.4545C63.0921 70.5298 62.9536 69.75 62.6766 69.1151C62.4038 68.4801 62.0182 67.9986 61.5196 67.6705C61.021 67.3423 60.4372 67.1783 59.7682 67.1783C59.0992 67.1783 58.5153 67.3423 58.0168 67.6705C57.5182 67.9986 57.1304 68.4801 56.8534 69.1151C56.5807 69.75 56.4443 70.5298 56.4443 71.4545C56.4443 72.3793 56.5807 73.1591 56.8534 73.794C57.1304 74.429 57.5182 74.9105 58.0168 75.2386C58.5153 75.5668 59.0992 75.7308 59.7682 75.7308C60.4372 75.7308 61.021 75.5668 61.5196 75.2386C62.0182 74.9105 62.4038 74.429 62.6766 73.794C62.9536 73.1591 63.0921 72.3793 63.0921 71.4545ZM70.3562 64.9091V78H67.5884V64.9091H70.3562ZM76.0282 78V68.1818H78.7512V78H76.0282ZM77.3961 66.9162C76.9913 66.9162 76.644 66.782 76.3542 66.5135C76.0687 66.2408 75.9259 65.9148 75.9259 65.5355C75.9259 65.1605 76.0687 64.8388 76.3542 64.5703C76.644 64.2976 76.9913 64.1612 77.3961 64.1612C77.8009 64.1612 78.1461 64.2976 78.4316 64.5703C78.7214 64.8388 78.8663 65.1605 78.8663 65.5355C78.8663 65.9148 78.7214 66.2408 78.4316 66.5135C78.1461 66.782 77.8009 66.9162 77.3961 66.9162ZM85.0469 78.1918C84.037 78.1918 83.1677 77.9872 82.439 77.5781C81.7146 77.1648 81.1563 76.581 80.7643 75.8267C80.3722 75.0682 80.1762 74.1712 80.1762 73.1357C80.1762 72.1257 80.3722 71.2393 80.7643 70.4766C81.1563 69.7138 81.7082 69.1193 82.4198 68.6932C83.1357 68.267 83.9752 68.054 84.9383 68.054C85.586 68.054 86.189 68.1584 86.7472 68.3672C87.3097 68.5717 87.7998 68.8807 88.2174 69.294C88.6393 69.7074 88.9674 70.2273 89.2018 70.8537C89.4361 71.4759 89.5533 72.2045 89.5533 73.0398V73.7876H81.2628V72.1001H86.9901C86.9901 71.7081 86.9049 71.3608 86.7344 71.0582C86.564 70.7557 86.3275 70.5192 86.0249 70.3487C85.7266 70.174 85.3793 70.0866 84.983 70.0866C84.5697 70.0866 84.2032 70.1825 83.8836 70.3743C83.5682 70.5618 83.3211 70.8153 83.1421 71.1349C82.9631 71.4503 82.8715 71.8018 82.8673 72.1896V73.794C82.8673 74.2798 82.9567 74.6996 83.1357 75.0533C83.319 75.407 83.5768 75.6797 83.9092 75.8714C84.2415 76.0632 84.6357 76.1591 85.0917 76.1591C85.3942 76.1591 85.6712 76.1165 85.9226 76.0312C86.1741 75.946 86.3893 75.8182 86.5682 75.6477C86.7472 75.4773 86.8836 75.2685 86.9773 75.0213L89.4958 75.1875C89.368 75.7926 89.1059 76.321 88.7096 76.7727C88.3175 77.2202 87.8104 77.5696 87.1883 77.821C86.5704 78.0682 85.8566 78.1918 85.0469 78.1918ZM90.9703 78V68.1818H93.5655V69.9141H93.6805C93.8851 69.3388 94.226 68.8849 94.7033 68.5526C95.1805 68.2202 95.7516 68.054 96.4163 68.054C97.0896 68.054 97.6628 68.2223 98.1358 68.5589C98.6088 68.8913 98.9242 69.343 99.0818 69.9141H99.1841C99.3844 69.3516 99.7466 68.902 100.271 68.5653C100.799 68.2244 101.423 68.054 102.144 68.054C103.06 68.054 103.803 68.3459 104.374 68.9297C104.95 69.5092 105.237 70.3317 105.237 71.397V78H102.521V71.9339C102.521 71.3885 102.376 70.9794 102.086 70.7067C101.796 70.4339 101.434 70.2976 100.999 70.2976C100.505 70.2976 100.119 70.4553 99.8425 70.7706C99.5655 71.0817 99.427 71.4929 99.427 72.0043V78H96.7871V71.8764C96.7871 71.3949 96.6486 71.0114 96.3716 70.7259C96.0989 70.4403 95.7388 70.2976 95.2913 70.2976C94.9888 70.2976 94.7161 70.3743 94.4732 70.5277C94.2345 70.6768 94.0449 70.8878 93.9043 71.1605C93.7636 71.429 93.6933 71.7443 93.6933 72.1065V78H90.9703ZM109.828 78.1854C109.202 78.1854 108.643 78.0767 108.153 77.8594C107.663 77.6378 107.275 77.3118 106.99 76.8814C106.709 76.4467 106.568 75.9055 106.568 75.2578C106.568 74.7124 106.668 74.2543 106.868 73.8835C107.069 73.5128 107.342 73.2145 107.687 72.9886C108.032 72.7628 108.424 72.5923 108.863 72.4773C109.306 72.3622 109.77 72.2812 110.256 72.2344C110.827 72.1747 111.288 72.1193 111.637 72.0682C111.986 72.0128 112.24 71.9318 112.398 71.8253C112.555 71.7187 112.634 71.5611 112.634 71.3523V71.3139C112.634 70.9091 112.506 70.5959 112.251 70.3743C111.999 70.1527 111.641 70.0419 111.177 70.0419C110.687 70.0419 110.297 70.1506 110.007 70.3679C109.717 70.581 109.525 70.8494 109.432 71.1733L106.913 70.9688C107.041 70.3722 107.292 69.8565 107.667 69.4219C108.042 68.983 108.526 68.6463 109.118 68.4119C109.715 68.1733 110.405 68.054 111.19 68.054C111.735 68.054 112.257 68.1179 112.756 68.2457C113.258 68.3736 113.704 68.5717 114.092 68.8402C114.484 69.1087 114.792 69.4538 115.018 69.8757C115.244 70.2933 115.357 70.794 115.357 71.3778V78H112.775V76.6385H112.698C112.54 76.9453 112.329 77.2159 112.065 77.4503C111.801 77.6804 111.484 77.8615 111.113 77.9936C110.742 78.1214 110.314 78.1854 109.828 78.1854ZM110.608 76.3061C111.008 76.3061 111.362 76.2273 111.669 76.0696C111.976 75.9077 112.217 75.6903 112.391 75.4176C112.566 75.1449 112.653 74.8359 112.653 74.4908V73.4489C112.568 73.5043 112.451 73.5554 112.302 73.6023C112.157 73.6449 111.993 73.6854 111.81 73.7237C111.626 73.7578 111.443 73.7898 111.26 73.8196C111.077 73.8452 110.91 73.8686 110.761 73.8899C110.442 73.9368 110.163 74.0114 109.924 74.1136C109.685 74.2159 109.5 74.3544 109.368 74.5291C109.236 74.6996 109.17 74.9126 109.17 75.1683C109.17 75.5391 109.304 75.8224 109.572 76.0185C109.845 76.2102 110.19 76.3061 110.608 76.3061ZM119.577 75.1747L119.583 71.9084H119.98L123.125 68.1818H126.25L122.025 73.1165H121.38L119.577 75.1747ZM117.11 78V64.9091H119.833V78H117.11ZM123.246 78L120.357 73.7237L122.172 71.7997L126.436 78H123.246ZM135.395 70.9815L132.902 71.1349C132.86 70.9219 132.768 70.7301 132.628 70.5597C132.487 70.3849 132.302 70.2464 132.071 70.1442C131.846 70.0376 131.575 69.9844 131.26 69.9844C130.838 69.9844 130.482 70.0739 130.192 70.2528C129.902 70.4276 129.758 70.6619 129.758 70.956C129.758 71.1903 129.851 71.3885 130.039 71.5504C130.226 71.7124 130.548 71.8423 131.004 71.9403L132.781 72.2983C133.735 72.4943 134.447 72.8097 134.916 73.2443C135.385 73.679 135.619 74.25 135.619 74.9574C135.619 75.6009 135.429 76.1655 135.05 76.6513C134.675 77.1371 134.159 77.5163 133.503 77.7891C132.851 78.0575 132.099 78.1918 131.247 78.1918C129.947 78.1918 128.912 77.9212 128.14 77.38C127.373 76.8345 126.924 76.093 126.792 75.1555L129.47 75.0149C129.551 75.4112 129.747 75.7138 130.058 75.9226C130.369 76.1271 130.767 76.2294 131.253 76.2294C131.731 76.2294 132.114 76.1378 132.404 75.9545C132.698 75.767 132.847 75.5263 132.851 75.2322C132.847 74.9851 132.743 74.7827 132.538 74.625C132.334 74.4631 132.018 74.3395 131.592 74.2543L129.892 73.9155C128.933 73.7237 128.219 73.3913 127.75 72.9183C127.286 72.4453 127.054 71.8423 127.054 71.1094C127.054 70.4787 127.224 69.9354 127.565 69.4794C127.91 69.0234 128.394 68.6719 129.016 68.4247C129.642 68.1776 130.375 68.054 131.215 68.054C132.455 68.054 133.431 68.3161 134.142 68.8402C134.858 69.3643 135.276 70.0781 135.395 70.9815ZM139.773 78.1854C139.147 78.1854 138.589 78.0767 138.099 77.8594C137.609 77.6378 137.221 77.3118 136.935 76.8814C136.654 76.4467 136.513 75.9055 136.513 75.2578C136.513 74.7124 136.614 74.2543 136.814 73.8835C137.014 73.5128 137.287 73.2145 137.632 72.9886C137.977 72.7628 138.369 72.5923 138.808 72.4773C139.251 72.3622 139.716 72.2812 140.202 72.2344C140.773 72.1747 141.233 72.1193 141.582 72.0682C141.932 72.0128 142.185 71.9318 142.343 71.8253C142.501 71.7187 142.58 71.5611 142.58 71.3523V71.3139C142.58 70.9091 142.452 70.5959 142.196 70.3743C141.945 70.1527 141.587 70.0419 141.122 70.0419C140.632 70.0419 140.242 70.1506 139.952 70.3679C139.663 70.581 139.471 70.8494 139.377 71.1733L136.859 70.9688C136.986 70.3722 137.238 69.8565 137.613 69.4219C137.988 68.983 138.472 68.6463 139.064 68.4119C139.66 68.1733 140.351 68.054 141.135 68.054C141.68 68.054 142.202 68.1179 142.701 68.2457C143.204 68.3736 143.649 68.5717 144.037 68.8402C144.429 69.1087 144.738 69.4538 144.964 69.8757C145.19 70.2933 145.303 70.794 145.303 71.3778V78H142.72V76.6385H142.643C142.486 76.9453 142.275 77.2159 142.011 77.4503C141.746 77.6804 141.429 77.8615 141.058 77.9936C140.687 78.1214 140.259 78.1854 139.773 78.1854ZM140.553 76.3061C140.954 76.3061 141.307 76.2273 141.614 76.0696C141.921 75.9077 142.162 75.6903 142.337 75.4176C142.511 75.1449 142.599 74.8359 142.599 74.4908V73.4489C142.513 73.5043 142.396 73.5554 142.247 73.6023C142.102 73.6449 141.938 73.6854 141.755 73.7237C141.572 73.7578 141.388 73.7898 141.205 73.8196C141.022 73.8452 140.856 73.8686 140.707 73.8899C140.387 73.9368 140.108 74.0114 139.869 74.1136C139.631 74.2159 139.445 74.3544 139.313 74.5291C139.181 74.6996 139.115 74.9126 139.115 75.1683C139.115 75.5391 139.249 75.8224 139.518 76.0185C139.79 76.2102 140.136 76.3061 140.553 76.3061ZM155.224 70.9815L152.731 71.1349C152.689 70.9219 152.597 70.7301 152.456 70.5597C152.316 70.3849 152.13 70.2464 151.9 70.1442C151.674 70.0376 151.404 69.9844 151.088 69.9844C150.667 69.9844 150.311 70.0739 150.021 70.2528C149.731 70.4276 149.586 70.6619 149.586 70.956C149.586 71.1903 149.68 71.3885 149.868 71.5504C150.055 71.7124 150.377 71.8423 150.833 71.9403L152.61 72.2983C153.564 72.4943 154.276 72.8097 154.745 73.2443C155.213 73.679 155.448 74.25 155.448 74.9574C155.448 75.6009 155.258 76.1655 154.879 76.6513C154.504 77.1371 153.988 77.5163 153.332 77.7891C152.68 78.0575 151.928 78.1918 151.076 78.1918C149.776 78.1918 148.74 77.9212 147.969 77.38C147.202 76.8345 146.753 76.093 146.62 75.1555L149.299 75.0149C149.38 75.4112 149.576 75.7138 149.887 75.9226C150.198 76.1271 150.596 76.2294 151.082 76.2294C151.559 76.2294 151.943 76.1378 152.233 75.9545C152.527 75.767 152.676 75.5263 152.68 75.2322C152.676 74.9851 152.571 74.7827 152.367 74.625C152.162 74.4631 151.847 74.3395 151.421 74.2543L149.721 73.9155C148.762 73.7237 148.048 73.3913 147.579 72.9183C147.115 72.4453 146.883 71.8423 146.883 71.1094C146.883 70.4787 147.053 69.9354 147.394 69.4794C147.739 69.0234 148.223 68.6719 148.845 68.4247C149.471 68.1776 150.204 68.054 151.044 68.054C152.284 68.054 153.26 68.3161 153.971 68.8402C154.687 69.3643 155.105 70.0781 155.224 70.9815Z" fill="#1A1D27"/>
<path d="M17.4148 98H16.3068L19.5114 89.2727H20.6023L23.8068 98H22.6989L20.0909 90.6534H20.0227L17.4148 98ZM17.8239 94.5909H22.2898V95.5284H17.8239V94.5909ZM25.9673 95.6136L25.9503 94.3693H26.1548L29.0185 91.4545H30.2628L27.2116 94.5398H27.1264L25.9673 95.6136ZM25.0298 98V89.2727H26.0355V98H25.0298ZM29.1889 98L26.6321 94.7614L27.348 94.0625L30.4673 98H29.1889ZM34.4038 91.4545V92.3068H31.0117V91.4545H34.4038ZM32.0004 89.8864H33.006V96.125C33.006 96.4091 33.0472 96.6222 33.1296 96.7642C33.2148 96.9034 33.3228 96.9972 33.4535 97.0455C33.587 97.0909 33.7276 97.1136 33.8754 97.1136C33.9862 97.1136 34.0771 97.108 34.1481 97.0966C34.2191 97.0824 34.2759 97.071 34.3185 97.0625L34.5231 97.9659C34.4549 97.9915 34.3597 98.017 34.2376 98.0426C34.1154 98.071 33.9606 98.0852 33.7731 98.0852C33.489 98.0852 33.2106 98.0241 32.9379 97.902C32.668 97.7798 32.4435 97.5938 32.2646 97.3438C32.0884 97.0938 32.0004 96.7784 32.0004 96.3977V89.8864ZM40.0415 95.3239V91.4545H41.0472V98H40.0415V96.892H39.9734C39.82 97.2244 39.5813 97.5071 39.2575 97.7401C38.9336 97.9702 38.5245 98.0852 38.0302 98.0852C37.6211 98.0852 37.2575 97.9957 36.9393 97.8168C36.6211 97.6349 36.3711 97.3622 36.1893 96.9986C36.0075 96.6321 35.9165 96.1705 35.9165 95.6136V91.4545H36.9222V95.5455C36.9222 96.0227 37.0558 96.4034 37.3228 96.6875C37.5927 96.9716 37.9364 97.1136 38.354 97.1136C38.604 97.1136 38.8583 97.0497 39.1168 96.9219C39.3782 96.794 39.5969 96.598 39.7731 96.3338C39.9521 96.0696 40.0415 95.733 40.0415 95.3239ZM44.8153 98.1534C44.4006 98.1534 44.0241 98.0753 43.6861 97.919C43.348 97.7599 43.0795 97.5312 42.8807 97.233C42.6818 96.9318 42.5824 96.5682 42.5824 96.142C42.5824 95.767 42.6563 95.4631 42.804 95.2301C42.9517 94.9943 43.1491 94.8097 43.3963 94.6761C43.6435 94.5426 43.9162 94.4432 44.2145 94.3778C44.5156 94.3097 44.8182 94.2557 45.1222 94.2159C45.5199 94.1648 45.8423 94.1264 46.0895 94.1009C46.3395 94.0724 46.5213 94.0256 46.6349 93.9602C46.7514 93.8949 46.8097 93.7812 46.8097 93.6193V93.5852C46.8097 93.1648 46.6946 92.8381 46.4645 92.6051C46.2372 92.3722 45.892 92.2557 45.429 92.2557C44.9489 92.2557 44.5724 92.3608 44.2997 92.571C44.027 92.7812 43.8352 93.0057 43.7244 93.2443L42.7699 92.9034C42.9403 92.5057 43.1676 92.196 43.4517 91.9744C43.7386 91.75 44.0511 91.5937 44.3892 91.5057C44.7301 91.4148 45.0653 91.3693 45.3949 91.3693C45.6051 91.3693 45.8466 91.3949 46.1193 91.446C46.3949 91.4943 46.6605 91.5952 46.9162 91.7486C47.1747 91.902 47.3892 92.1335 47.5597 92.4432C47.7301 92.7528 47.8153 93.1676 47.8153 93.6875V98H46.8097V97.1136H46.7585C46.6903 97.2557 46.5767 97.4077 46.4176 97.5696C46.2585 97.7315 46.0469 97.8693 45.7827 97.983C45.5185 98.0966 45.196 98.1534 44.8153 98.1534ZM44.9688 97.25C45.3665 97.25 45.7017 97.1719 45.9744 97.0156C46.25 96.8594 46.4574 96.6577 46.5966 96.4105C46.7386 96.1634 46.8097 95.9034 46.8097 95.6307V94.7102C46.767 94.7614 46.6733 94.8082 46.5284 94.8509C46.3864 94.8906 46.2216 94.9261 46.0341 94.9574C45.8494 94.9858 45.669 95.0114 45.4929 95.0341C45.3196 95.054 45.179 95.071 45.071 95.0852C44.8097 95.1193 44.5653 95.1747 44.3381 95.2514C44.1136 95.3253 43.9318 95.4375 43.7926 95.5881C43.6563 95.7358 43.5881 95.9375 43.5881 96.1932C43.5881 96.5426 43.7173 96.8068 43.9759 96.9858C44.2372 97.1619 44.5682 97.25 44.9688 97.25ZM47.4574 89.2727V90.125H43.4688V89.2727H47.4574ZM50.6566 89.2727V98H49.6509V89.2727H50.6566ZM52.4986 98V91.4545H53.5043V98H52.4986ZM53.0099 90.3636C52.8139 90.3636 52.6449 90.2969 52.5028 90.1634C52.3636 90.0298 52.294 89.8693 52.294 89.6818C52.294 89.4943 52.3636 89.3338 52.5028 89.2003C52.6449 89.0668 52.8139 89 53.0099 89C53.206 89 53.3736 89.0668 53.5128 89.2003C53.6548 89.3338 53.7259 89.4943 53.7259 89.6818C53.7259 89.8693 53.6548 90.0298 53.5128 90.1634C53.3736 90.2969 53.206 90.3636 53.0099 90.3636ZM58.7212 100.455V91.4545H59.6928V92.4943H59.8121C59.886 92.3807 59.9883 92.2358 60.119 92.0597C60.2525 91.8807 60.4428 91.7216 60.69 91.5824C60.94 91.4403 61.2781 91.3693 61.7042 91.3693C62.2553 91.3693 62.7411 91.5071 63.1616 91.7827C63.582 92.0582 63.9102 92.4489 64.146 92.9545C64.3817 93.4602 64.4996 94.0568 64.4996 94.7443C64.4996 95.4375 64.3817 96.0384 64.146 96.5469C63.9102 97.0526 63.5835 97.4446 63.1658 97.723C62.7482 97.9986 62.2667 98.1364 61.7212 98.1364C61.3008 98.1364 60.9641 98.0668 60.7113 97.9276C60.4585 97.7855 60.2638 97.625 60.1275 97.446C59.9911 97.2642 59.886 97.1136 59.8121 96.9943H59.7269V100.455H58.7212ZM59.7099 94.7273C59.7099 95.2216 59.7823 95.6577 59.9272 96.0355C60.0721 96.4105 60.2837 96.7045 60.5621 96.9176C60.8406 97.1278 61.1815 97.233 61.5849 97.233C62.0053 97.233 62.3562 97.1222 62.6374 96.9006C62.9215 96.6761 63.1346 96.375 63.2766 95.9972C63.4215 95.6165 63.494 95.1932 63.494 94.7273C63.494 94.267 63.4229 93.8523 63.2809 93.483C63.1417 93.1108 62.93 92.8168 62.646 92.6009C62.3647 92.3821 62.011 92.2727 61.5849 92.2727C61.1758 92.2727 60.832 92.3764 60.5536 92.5838C60.2752 92.7884 60.065 93.0753 59.9229 93.4446C59.7809 93.8111 59.7099 94.2386 59.7099 94.7273ZM67.9599 98.1534C67.5451 98.1534 67.1687 98.0753 66.8306 97.919C66.4925 97.7599 66.2241 97.5312 66.0252 97.233C65.8263 96.9318 65.7269 96.5682 65.7269 96.142C65.7269 95.767 65.8008 95.4631 65.9485 95.2301C66.0962 94.9943 66.2937 94.8097 66.5408 94.6761C66.788 94.5426 67.0607 94.4432 67.359 94.3778C67.6602 94.3097 67.9627 94.2557 68.2667 94.2159C68.6644 94.1648 68.9869 94.1264 69.234 94.1009C69.484 94.0724 69.6658 94.0256 69.7795 93.9602C69.896 93.8949 69.9542 93.7812 69.9542 93.6193V93.5852C69.9542 93.1648 69.8391 92.8381 69.609 92.6051C69.3817 92.3722 69.0366 92.2557 68.5735 92.2557C68.0934 92.2557 67.717 92.3608 67.4442 92.571C67.1715 92.7812 66.9798 93.0057 66.869 93.2443L65.9144 92.9034C66.0849 92.5057 66.3121 92.196 66.5962 91.9744C66.8832 91.75 67.1957 91.5937 67.5337 91.5057C67.8746 91.4148 68.2099 91.3693 68.5394 91.3693C68.7496 91.3693 68.9911 91.3949 69.2638 91.446C69.5394 91.4943 69.805 91.5952 70.0607 91.7486C70.3192 91.902 70.5337 92.1335 70.7042 92.4432C70.8746 92.7528 70.9599 93.1676 70.9599 93.6875V98H69.9542V97.1136H69.9031C69.8349 97.2557 69.7212 97.4077 69.5621 97.5696C69.4031 97.7315 69.1914 97.8693 68.9272 97.983C68.663 98.0966 68.3406 98.1534 67.9599 98.1534ZM68.1133 97.25C68.511 97.25 68.8462 97.1719 69.119 97.0156C69.3945 96.8594 69.6019 96.6577 69.7411 96.4105C69.8832 96.1634 69.9542 95.9034 69.9542 95.6307V94.7102C69.9116 94.7614 69.8178 94.8082 69.6729 94.8509C69.5309 94.8906 69.3661 94.9261 69.1786 94.9574C68.994 94.9858 68.8136 95.0114 68.6374 95.0341C68.4641 95.054 68.3235 95.071 68.2156 95.0852C67.9542 95.1193 67.7099 95.1747 67.4826 95.2514C67.2582 95.3253 67.0763 95.4375 66.9371 95.5881C66.8008 95.7358 66.7326 95.9375 66.7326 96.1932C66.7326 96.5426 66.8619 96.8068 67.1204 96.9858C67.3817 97.1619 67.7127 97.25 68.1133 97.25ZM77.4318 92.9205L76.5284 93.1761C76.4716 93.0256 76.3878 92.8793 76.277 92.7372C76.169 92.5923 76.0213 92.473 75.8338 92.3793C75.6463 92.2855 75.4062 92.2386 75.1136 92.2386C74.7131 92.2386 74.3793 92.331 74.1122 92.5156C73.848 92.6974 73.7159 92.929 73.7159 93.2102C73.7159 93.4602 73.8068 93.6577 73.9886 93.8026C74.1705 93.9474 74.4545 94.0682 74.8409 94.1648L75.8125 94.4034C76.3977 94.5455 76.8338 94.7628 77.1207 95.0554C77.4077 95.3452 77.5511 95.7187 77.5511 96.1761C77.5511 96.5511 77.4432 96.8864 77.2273 97.1818C77.0142 97.4773 76.7159 97.7102 76.3324 97.8807C75.9489 98.0511 75.5028 98.1364 74.9943 98.1364C74.3267 98.1364 73.7741 97.9915 73.3366 97.7017C72.8991 97.4119 72.6222 96.9886 72.5057 96.4318L73.4602 96.1932C73.5511 96.5455 73.723 96.8097 73.9759 96.9858C74.2315 97.1619 74.5653 97.25 74.9773 97.25C75.446 97.25 75.8182 97.1506 76.0938 96.9517C76.3722 96.75 76.5114 96.5085 76.5114 96.2273C76.5114 96 76.4318 95.8097 76.2727 95.6562C76.1136 95.5 75.8693 95.3835 75.5398 95.3068L74.4489 95.0511C73.8494 94.9091 73.4091 94.6889 73.1278 94.3906C72.8494 94.0895 72.7102 93.7131 72.7102 93.2614C72.7102 92.892 72.8139 92.5653 73.0213 92.2812C73.2315 91.9972 73.517 91.7741 73.8778 91.6122C74.2415 91.4503 74.6534 91.3693 75.1136 91.3693C75.7614 91.3693 76.2699 91.5114 76.6392 91.7955C77.0114 92.0795 77.2756 92.4545 77.4318 92.9205ZM74.2273 88.8295L75.1136 90.0227L76 88.8295H76.9545V88.8977L75.5739 90.6705H74.6534L73.2727 88.8977V88.8295H74.2273ZM80.0707 94.0625V98H79.065V91.4545H80.0366V92.4773H80.1218C80.2752 92.1449 80.5082 91.8778 80.8207 91.6761C81.1332 91.4716 81.5366 91.3693 82.0309 91.3693C82.4741 91.3693 82.8619 91.4602 83.1942 91.642C83.5266 91.821 83.7852 92.0938 83.9698 92.4602C84.1545 92.8239 84.2468 93.2841 84.2468 93.8409V98H83.2411V93.9091C83.2411 93.3949 83.1076 92.9943 82.8406 92.7074C82.5735 92.4176 82.207 92.2727 81.7411 92.2727C81.4201 92.2727 81.1332 92.3423 80.8803 92.4815C80.6303 92.6207 80.4329 92.8239 80.288 93.0909C80.1431 93.358 80.0707 93.6818 80.0707 94.0625ZM88.7436 98.1364C88.1527 98.1364 87.6342 97.9957 87.1882 97.7145C86.745 97.4332 86.3984 97.0398 86.1484 96.5341C85.9013 96.0284 85.7777 95.4375 85.7777 94.7614C85.7777 94.0795 85.9013 93.4844 86.1484 92.9759C86.3984 92.4673 86.745 92.0724 87.1882 91.7912C87.6342 91.5099 88.1527 91.3693 88.7436 91.3693C89.3345 91.3693 89.8516 91.5099 90.2947 91.7912C90.7408 92.0724 91.0874 92.4673 91.3345 92.9759C91.5845 93.4844 91.7095 94.0795 91.7095 94.7614C91.7095 95.4375 91.5845 96.0284 91.3345 96.5341C91.0874 97.0398 90.7408 97.4332 90.2947 97.7145C89.8516 97.9957 89.3345 98.1364 88.7436 98.1364ZM88.7436 97.233C89.1925 97.233 89.5618 97.1179 89.8516 96.8878C90.1413 96.6577 90.3558 96.3551 90.495 95.9801C90.6342 95.6051 90.7038 95.1989 90.7038 94.7614C90.7038 94.3239 90.6342 93.9162 90.495 93.5384C90.3558 93.1605 90.1413 92.8551 89.8516 92.6222C89.5618 92.3892 89.1925 92.2727 88.7436 92.2727C88.2947 92.2727 87.9254 92.3892 87.6357 92.6222C87.3459 92.8551 87.1314 93.1605 86.9922 93.5384C86.853 93.9162 86.7834 94.3239 86.7834 94.7614C86.7834 95.1989 86.853 95.6051 86.9922 95.9801C87.1314 96.3551 87.3459 96.6577 87.6357 96.8878C87.9254 97.1179 88.2947 97.233 88.7436 97.233ZM95.7163 98.1364C95.1708 98.1364 94.6893 97.9986 94.2717 97.723C93.854 97.4446 93.5273 97.0526 93.2915 96.5469C93.0558 96.0384 92.9379 95.4375 92.9379 94.7443C92.9379 94.0568 93.0558 93.4602 93.2915 92.9545C93.5273 92.4489 93.8555 92.0582 94.2759 91.7827C94.6964 91.5071 95.1822 91.3693 95.7333 91.3693C96.1594 91.3693 96.4961 91.4403 96.7433 91.5824C96.9933 91.7216 97.1836 91.8807 97.3143 92.0597C97.4478 92.2358 97.5515 92.3807 97.6254 92.4943H97.7106V89.2727H98.7163V98H97.7447V96.9943H97.6254C97.5515 97.1136 97.4464 97.2642 97.31 97.446C97.1737 97.625 96.979 97.7855 96.7262 97.9276C96.4734 98.0668 96.1367 98.1364 95.7163 98.1364ZM95.8526 97.233C96.256 97.233 96.5969 97.1278 96.8754 96.9176C97.1538 96.7045 97.3654 96.4105 97.5103 96.0355C97.6552 95.6577 97.7276 95.2216 97.7276 94.7273C97.7276 94.2386 97.6566 93.8111 97.5146 93.4446C97.3725 93.0753 97.1623 92.7884 96.8839 92.5838C96.6055 92.3764 96.2617 92.2727 95.8526 92.2727C95.4265 92.2727 95.0714 92.3821 94.7873 92.6009C94.506 92.8168 94.2944 93.1108 94.1523 93.483C94.0131 93.8523 93.9435 94.267 93.9435 94.7273C93.9435 95.1932 94.0146 95.6165 94.1566 95.9972C94.3015 96.375 94.5146 96.6761 94.7958 96.9006C95.0799 97.1222 95.4322 97.233 95.8526 97.233ZM102.624 98.1534C102.209 98.1534 101.833 98.0753 101.495 97.919C101.157 97.7599 100.888 97.5312 100.689 97.233C100.49 96.9318 100.391 96.5682 100.391 96.142C100.391 95.767 100.465 95.4631 100.613 95.2301C100.76 94.9943 100.958 94.8097 101.205 94.6761C101.452 94.5426 101.725 94.4432 102.023 94.3778C102.324 94.3097 102.627 94.2557 102.931 94.2159C103.328 94.1648 103.651 94.1264 103.898 94.1009C104.148 94.0724 104.33 94.0256 104.444 93.9602C104.56 93.8949 104.618 93.7812 104.618 93.6193V93.5852C104.618 93.1648 104.503 92.8381 104.273 92.6051C104.046 92.3722 103.701 92.2557 103.238 92.2557C102.757 92.2557 102.381 92.3608 102.108 92.571C101.836 92.7812 101.644 93.0057 101.533 93.2443L100.578 92.9034C100.749 92.5057 100.976 92.196 101.26 91.9744C101.547 91.75 101.86 91.5937 102.198 91.5057C102.539 91.4148 102.874 91.3693 103.203 91.3693C103.414 91.3693 103.655 91.3949 103.928 91.446C104.203 91.4943 104.469 91.5952 104.725 91.7486C104.983 91.902 105.198 92.1335 105.368 92.4432C105.539 92.7528 105.624 93.1676 105.624 93.6875V98H104.618V97.1136H104.567C104.499 97.2557 104.385 97.4077 104.226 97.5696C104.067 97.7315 103.855 97.8693 103.591 97.983C103.327 98.0966 103.005 98.1534 102.624 98.1534ZM102.777 97.25C103.175 97.25 103.51 97.1719 103.783 97.0156C104.059 96.8594 104.266 96.6577 104.405 96.4105C104.547 96.1634 104.618 95.9034 104.618 95.6307V94.7102C104.576 94.7614 104.482 94.8082 104.337 94.8509C104.195 94.8906 104.03 94.9261 103.843 94.9574C103.658 94.9858 103.478 95.0114 103.301 95.0341C103.128 95.054 102.988 95.071 102.88 95.0852C102.618 95.1193 102.374 95.1747 102.147 95.2514C101.922 95.3253 101.74 95.4375 101.601 95.5881C101.465 95.7358 101.397 95.9375 101.397 96.1932C101.397 96.5426 101.526 96.8068 101.784 96.9858C102.046 97.1619 102.377 97.25 102.777 97.25ZM107.46 98V91.4545H108.431V92.4432H108.499C108.619 92.1193 108.835 91.8565 109.147 91.6548C109.46 91.4531 109.812 91.3523 110.204 91.3523C110.278 91.3523 110.37 91.3537 110.481 91.3565C110.592 91.3594 110.675 91.3636 110.732 91.3693V92.392C110.698 92.3835 110.62 92.3707 110.498 92.3537C110.379 92.3338 110.252 92.3239 110.119 92.3239C109.8 92.3239 109.516 92.3906 109.266 92.5241C109.019 92.6548 108.823 92.8366 108.678 93.0696C108.536 93.2997 108.465 93.5625 108.465 93.858V98H107.46ZM112.061 98V89.2727H113.066V92.4943H113.152C113.225 92.3807 113.328 92.2358 113.458 92.0597C113.592 91.8807 113.782 91.7216 114.029 91.5824C114.279 91.4403 114.618 91.3693 115.044 91.3693C115.595 91.3693 116.081 91.5071 116.501 91.7827C116.922 92.0582 117.25 92.4489 117.485 92.9545C117.721 93.4602 117.839 94.0568 117.839 94.7443C117.839 95.4375 117.721 96.0384 117.485 96.5469C117.25 97.0526 116.923 97.4446 116.505 97.723C116.088 97.9986 115.606 98.1364 115.061 98.1364C114.64 98.1364 114.304 98.0668 114.051 97.9276C113.798 97.7855 113.603 97.625 113.467 97.446C113.331 97.2642 113.225 97.1136 113.152 96.9943H113.032V98H112.061ZM113.049 94.7273C113.049 95.2216 113.122 95.6577 113.267 96.0355C113.412 96.4105 113.623 96.7045 113.902 96.9176C114.18 97.1278 114.521 97.233 114.924 97.233C115.345 97.233 115.696 97.1222 115.977 96.9006C116.261 96.6761 116.474 96.375 116.616 95.9972C116.761 95.6165 116.833 95.1932 116.833 94.7273C116.833 94.267 116.762 93.8523 116.62 93.483C116.481 93.1108 116.27 92.8168 115.985 92.6009C115.704 92.3821 115.35 92.2727 114.924 92.2727C114.515 92.2727 114.172 92.3764 113.893 92.5838C113.615 92.7884 113.404 93.0753 113.262 93.4446C113.12 93.8111 113.049 94.2386 113.049 94.7273ZM119.377 98V91.4545H120.383V98H119.377ZM119.889 90.3636C119.693 90.3636 119.524 90.2969 119.382 90.1634C119.243 90.0298 119.173 89.8693 119.173 89.6818C119.173 89.4943 119.243 89.3338 119.382 89.2003C119.524 89.0668 119.693 89 119.889 89C120.085 89 120.252 89.0668 120.392 89.2003C120.534 89.3338 120.605 89.4943 120.605 89.6818C120.605 89.8693 120.534 90.0298 120.392 90.1634C120.252 90.2969 120.085 90.3636 119.889 90.3636ZM123.231 94.0625V98H122.225V91.4545H123.197V92.4773H123.282C123.435 92.1449 123.668 91.8778 123.981 91.6761C124.293 91.4716 124.697 91.3693 125.191 91.3693C125.634 91.3693 126.022 91.4602 126.354 91.642C126.687 91.821 126.945 92.0938 127.13 92.4602C127.315 92.8239 127.407 93.2841 127.407 93.8409V98H126.401V93.9091C126.401 93.3949 126.268 92.9943 126.001 92.7074C125.734 92.4176 125.367 92.2727 124.901 92.2727C124.58 92.2727 124.293 92.3423 124.04 92.4815C123.79 92.6207 123.593 92.8239 123.448 93.0909C123.303 93.358 123.231 93.6818 123.231 94.0625ZM131.171 98.1534C130.756 98.1534 130.38 98.0753 130.042 97.919C129.703 97.7599 129.435 97.5312 129.236 97.233C129.037 96.9318 128.938 96.5682 128.938 96.142C128.938 95.767 129.012 95.4631 129.159 95.2301C129.307 94.9943 129.505 94.8097 129.752 94.6761C129.999 94.5426 130.272 94.4432 130.57 94.3778C130.871 94.3097 131.174 94.2557 131.478 94.2159C131.875 94.1648 132.198 94.1264 132.445 94.1009C132.695 94.0724 132.877 94.0256 132.99 93.9602C133.107 93.8949 133.165 93.7812 133.165 93.6193V93.5852C133.165 93.1648 133.05 92.8381 132.82 92.6051C132.593 92.3722 132.248 92.2557 131.784 92.2557C131.304 92.2557 130.928 92.3608 130.655 92.571C130.382 92.7812 130.191 93.0057 130.08 93.2443L129.125 92.9034C129.296 92.5057 129.523 92.196 129.807 91.9744C130.094 91.75 130.407 91.5937 130.745 91.5057C131.086 91.4148 131.421 91.3693 131.75 91.3693C131.961 91.3693 132.202 91.3949 132.475 91.446C132.75 91.4943 133.016 91.5952 133.272 91.7486C133.53 91.902 133.745 92.1335 133.915 92.4432C134.086 92.7528 134.171 93.1676 134.171 93.6875V98H133.165V97.1136H133.114C133.046 97.2557 132.932 97.4077 132.773 97.5696C132.614 97.7315 132.402 97.8693 132.138 97.983C131.874 98.0966 131.551 98.1534 131.171 98.1534ZM131.324 97.25C131.722 97.25 132.057 97.1719 132.33 97.0156C132.605 96.8594 132.813 96.6577 132.952 96.4105C133.094 96.1634 133.165 95.9034 133.165 95.6307V94.7102C133.123 94.7614 133.029 94.8082 132.884 94.8509C132.742 94.8906 132.577 94.9261 132.39 94.9574C132.205 94.9858 132.025 95.0114 131.848 95.0341C131.675 95.054 131.534 95.071 131.426 95.0852C131.165 95.1193 130.921 95.1747 130.694 95.2514C130.469 95.3253 130.287 95.4375 130.148 95.5881C130.012 95.7358 129.944 95.9375 129.944 96.1932C129.944 96.5426 130.073 96.8068 130.331 96.9858C130.593 97.1619 130.924 97.25 131.324 97.25ZM133.813 89.2727V90.125H129.824V89.2727H133.813ZM138.853 91.4545V92.3068H135.461V91.4545H138.853ZM136.45 89.8864H137.455V96.125C137.455 96.4091 137.496 96.6222 137.579 96.7642C137.664 96.9034 137.772 96.9972 137.903 97.0455C138.036 97.0909 138.177 97.1136 138.325 97.1136C138.435 97.1136 138.526 97.108 138.597 97.0966C138.668 97.0824 138.725 97.071 138.768 97.0625L138.972 97.9659C138.904 97.9915 138.809 98.017 138.687 98.0426C138.565 98.071 138.41 98.0852 138.222 98.0852C137.938 98.0852 137.66 98.0241 137.387 97.902C137.117 97.7798 136.893 97.5938 136.714 97.3438C136.538 97.0938 136.45 96.7784 136.45 96.3977V89.8864ZM142.292 98.1534C141.877 98.1534 141.501 98.0753 141.163 97.919C140.825 97.7599 140.556 97.5312 140.357 97.233C140.158 96.9318 140.059 96.5682 140.059 96.142C140.059 95.767 140.133 95.4631 140.281 95.2301C140.428 94.9943 140.626 94.8097 140.873 94.6761C141.12 94.5426 141.393 94.4432 141.691 94.3778C141.992 94.3097 142.295 94.2557 142.599 94.2159C142.996 94.1648 143.319 94.1264 143.566 94.1009C143.816 94.0724 143.998 94.0256 144.112 93.9602C144.228 93.8949 144.286 93.7812 144.286 93.6193V93.5852C144.286 93.1648 144.171 92.8381 143.941 92.6051C143.714 92.3722 143.369 92.2557 142.906 92.2557C142.425 92.2557 142.049 92.3608 141.776 92.571C141.504 92.7812 141.312 93.0057 141.201 93.2443L140.246 92.9034C140.417 92.5057 140.644 92.196 140.928 91.9744C141.215 91.75 141.528 91.5937 141.866 91.5057C142.207 91.4148 142.542 91.3693 142.871 91.3693C143.082 91.3693 143.323 91.3949 143.596 91.446C143.871 91.4943 144.137 91.5952 144.393 91.7486C144.651 91.902 144.866 92.1335 145.036 92.4432C145.207 92.7528 145.292 93.1676 145.292 93.6875V98H144.286V97.1136H144.235C144.167 97.2557 144.053 97.4077 143.894 97.5696C143.735 97.7315 143.523 97.8693 143.259 97.983C142.995 98.0966 142.673 98.1534 142.292 98.1534ZM142.445 97.25C142.843 97.25 143.178 97.1719 143.451 97.0156C143.727 96.8594 143.934 96.6577 144.073 96.4105C144.215 96.1634 144.286 95.9034 144.286 95.6307V94.7102C144.244 94.7614 144.15 94.8082 144.005 94.8509C143.863 94.8906 143.698 94.9261 143.511 94.9574C143.326 94.9858 143.146 95.0114 142.969 95.0341C142.796 95.054 142.656 95.071 142.548 95.0852C142.286 95.1193 142.042 95.1747 141.815 95.2514C141.59 95.3253 141.408 95.4375 141.269 95.5881C141.133 95.7358 141.065 95.9375 141.065 96.1932C141.065 96.5426 141.194 96.8068 141.452 96.9858C141.714 97.1619 142.045 97.25 142.445 97.25ZM147.127 91.4545H148.133V98.4773C148.133 98.8807 148.064 99.2301 147.924 99.5256C147.788 99.821 147.581 100.05 147.302 100.212C147.027 100.374 146.679 100.455 146.258 100.455C146.224 100.455 146.19 100.455 146.156 100.455C146.122 100.455 146.088 100.455 146.054 100.455V99.517C146.088 99.517 146.119 99.517 146.147 99.517C146.176 99.517 146.207 99.517 146.241 99.517C146.548 99.517 146.772 99.4261 146.914 99.2443C147.056 99.0653 147.127 98.8097 147.127 98.4773V91.4545ZM147.622 90.3636C147.426 90.3636 147.257 90.2969 147.115 90.1634C146.975 90.0298 146.906 89.8693 146.906 89.6818C146.906 89.4943 146.975 89.3338 147.115 89.2003C147.257 89.0668 147.426 89 147.622 89C147.818 89 147.985 89.0668 148.125 89.2003C148.267 89.3338 148.338 89.4943 148.338 89.6818C148.338 89.8693 148.267 90.0298 148.125 90.1634C147.985 90.2969 147.818 90.3636 147.622 90.3636ZM149.975 98V91.4545H150.981V98H149.975ZM150.487 90.3636C150.29 90.3636 150.121 90.2969 149.979 90.1634C149.84 90.0298 149.771 89.8693 149.771 89.6818C149.771 89.4943 149.84 89.3338 149.979 89.2003C150.121 89.0668 150.29 89 150.487 89C150.683 89 150.85 89.0668 150.989 89.2003C151.131 89.3338 151.202 89.4943 151.202 89.6818C151.202 89.8693 151.131 90.0298 150.989 90.1634C150.85 90.2969 150.683 90.3636 150.487 90.3636ZM155.567 98.1364C154.936 98.1364 154.392 97.9972 153.935 97.7188C153.48 97.4375 153.13 97.0455 152.882 96.5426C152.638 96.0369 152.516 95.4489 152.516 94.7784C152.516 94.108 152.638 93.517 152.882 93.0057C153.13 92.4915 153.473 92.0909 153.914 91.804C154.357 91.5142 154.874 91.3693 155.465 91.3693C155.806 91.3693 156.142 91.4261 156.475 91.5398C156.807 91.6534 157.11 91.8381 157.382 92.0938C157.655 92.3466 157.873 92.6818 158.034 93.0994C158.196 93.517 158.277 94.0312 158.277 94.642V95.0682H153.232V94.1989H157.255C157.255 93.8295 157.181 93.5 157.033 93.2102C156.888 92.9205 156.681 92.6918 156.411 92.5241C156.144 92.3565 155.828 92.2727 155.465 92.2727C155.064 92.2727 154.718 92.3722 154.425 92.571C154.135 92.767 153.912 93.0227 153.756 93.3381C153.6 93.6534 153.522 93.9915 153.522 94.3523V94.9318C153.522 95.4261 153.607 95.8452 153.777 96.1889C153.951 96.5298 154.191 96.7898 154.498 96.9688C154.804 97.1449 155.161 97.233 155.567 97.233C155.831 97.233 156.07 97.196 156.283 97.1222C156.499 97.0455 156.685 96.9318 156.841 96.7812C156.998 96.6278 157.118 96.4375 157.203 96.2102L158.175 96.483C158.073 96.8125 157.901 97.1023 157.659 97.3523C157.418 97.5994 157.12 97.7926 156.765 97.9318C156.409 98.0682 156.01 98.1364 155.567 98.1364ZM159.807 98V91.4545H160.779V92.4773H160.864C161 92.1278 161.221 91.8565 161.525 91.6634C161.828 91.4673 162.194 91.3693 162.62 91.3693C163.051 91.3693 163.411 91.4673 163.698 91.6634C163.988 91.8565 164.213 92.1278 164.375 92.4773H164.444C164.611 92.1392 164.863 91.8707 165.198 91.6719C165.533 91.4702 165.935 91.3693 166.404 91.3693C166.989 91.3693 167.468 91.5526 167.84 91.919C168.212 92.2827 168.398 92.8494 168.398 93.6193V98H167.392V93.6193C167.392 93.1364 167.26 92.7912 166.996 92.5838C166.732 92.3764 166.421 92.2727 166.063 92.2727C165.603 92.2727 165.246 92.4119 164.993 92.6903C164.74 92.9659 164.614 93.3153 164.614 93.7386V98H163.591V93.517C163.591 93.1449 163.471 92.8452 163.229 92.6179C162.988 92.3878 162.676 92.2727 162.296 92.2727C162.034 92.2727 161.79 92.3423 161.563 92.4815C161.338 92.6207 161.157 92.8139 161.017 93.0611C160.881 93.3054 160.813 93.5881 160.813 93.9091V98H159.807Z" fill="#1A1D27"/>
</svg>
