<svg width="200" height="172" viewBox="0 0 200 172" fill="none" xmlns="http://www.w3.org/2000/svg">
<rect width="200" height="172" rx="16" fill="white" fill-opacity="0.7"/>
<rect x="16" y="16" width="32" height="32" rx="8" fill="#FFBEA5"/>
<path d="M29.75 31.25V27.5C29.75 26.2574 30.7574 25.25 32 25.25C33.2426 25.25 34.25 26.2574 34.25 27.5V31.2254M30.8 38.75H33.2C34.8802 38.75 35.7202 38.75 36.362 38.423C36.9265 38.1354 37.3854 37.6765 37.673 37.112C38 36.4702 38 35.6302 38 33.95V32.15C38 31.3099 38 30.8899 37.8365 30.569C37.6927 30.2868 37.4632 30.0573 37.181 29.9135C36.8601 29.75 36.4401 29.75 35.6 29.75H28.4C27.5599 29.75 27.1399 29.75 26.819 29.9135C26.5368 30.0573 26.3073 30.2868 26.1635 30.569C26 30.8899 26 31.3099 26 32.15V33.95C26 35.6302 26 36.4702 26.327 37.112C26.6146 37.6765 27.0735 38.1354 27.638 38.423C28.2798 38.75 29.1198 38.75 30.8 38.75Z" stroke="#1A1D27" stroke-width="1.5" stroke-linecap="round" stroke-linejoin="round"/>
<path d="M17.1378 78V64.9091H22.3026C23.2955 64.9091 24.1413 65.0987 24.8402 65.478C25.5391 65.853 26.0717 66.375 26.4382 67.044C26.8089 67.7088 26.9943 68.4759 26.9943 69.3452C26.9943 70.2145 26.8068 70.9815 26.4318 71.6463C26.0568 72.3111 25.5135 72.8288 24.8018 73.1996C24.0945 73.5703 23.2379 73.7557 22.2322 73.7557H18.9403V71.5376H21.7848C22.3175 71.5376 22.7564 71.446 23.1016 71.2628C23.451 71.0753 23.7109 70.8175 23.8814 70.4893C24.0561 70.157 24.1435 69.7756 24.1435 69.3452C24.1435 68.9105 24.0561 68.5312 23.8814 68.2074C23.7109 67.8793 23.451 67.6257 23.1016 67.4467C22.7521 67.2635 22.3089 67.1719 21.772 67.1719H19.9055V78H17.1378ZM32.6972 78.1918C31.6872 78.1918 30.8179 77.9872 30.0892 77.5781C29.3648 77.1648 28.8065 76.581 28.4145 75.8267C28.0225 75.0682 27.8264 74.1712 27.8264 73.1357C27.8264 72.1257 28.0225 71.2393 28.4145 70.4766C28.8065 69.7138 29.3584 69.1193 30.07 68.6932C30.786 68.267 31.6254 68.054 32.5885 68.054C33.2362 68.054 33.8392 68.1584 34.3975 68.3672C34.96 68.5717 35.45 68.8807 35.8676 69.294C36.2895 69.7074 36.6176 70.2273 36.852 70.8537C37.0864 71.4759 37.2036 72.2045 37.2036 73.0398V73.7876H28.9131V72.1001H34.6404C34.6404 71.7081 34.5551 71.3608 34.3847 71.0582C34.2142 70.7557 33.9777 70.5192 33.6752 70.3487C33.3769 70.174 33.0296 70.0866 32.6333 70.0866C32.2199 70.0866 31.8534 70.1825 31.5338 70.3743C31.2185 70.5618 30.9713 70.8153 30.7923 71.1349C30.6134 71.4503 30.5217 71.8018 30.5175 72.1896V73.794C30.5175 74.2798 30.607 74.6996 30.786 75.0533C30.9692 75.407 31.227 75.6797 31.5594 75.8714C31.8918 76.0632 32.286 76.1591 32.7419 76.1591C33.0445 76.1591 33.3215 76.1165 33.5729 76.0312C33.8243 75.946 34.0395 75.8182 34.2185 75.6477C34.3975 75.4773 34.5338 75.2685 34.6276 75.0213L37.146 75.1875C37.0182 75.7926 36.7561 76.321 36.3598 76.7727C35.9678 77.2202 35.4607 77.5696 34.8385 77.821C34.2206 78.0682 33.5068 78.1918 32.6972 78.1918ZM38.6206 78V68.1818H41.2605V69.8949H41.3627C41.5417 69.2855 41.8421 68.8253 42.264 68.5142C42.6859 68.1989 43.1717 68.0412 43.7214 68.0412C43.8578 68.0412 44.0048 68.0497 44.1625 68.0668C44.3201 68.0838 44.4586 68.1072 44.5779 68.1371V70.5533C44.4501 70.5149 44.2733 70.4808 44.0474 70.451C43.8215 70.4212 43.6149 70.4062 43.4274 70.4062C43.0268 70.4062 42.6689 70.4936 42.3535 70.6683C42.0424 70.8388 41.7953 71.0774 41.612 71.3842C41.4331 71.6911 41.3436 72.0447 41.3436 72.4453V78H38.6206ZM53.7948 70.9815L51.3019 71.1349C51.2593 70.9219 51.1677 70.7301 51.0271 70.5597C50.8864 70.3849 50.7011 70.2464 50.471 70.1442C50.2451 70.0376 49.9745 69.9844 49.6592 69.9844C49.2373 69.9844 48.8815 70.0739 48.5917 70.2528C48.3019 70.4276 48.157 70.6619 48.157 70.956C48.157 71.1903 48.2508 71.3885 48.4383 71.5504C48.6258 71.7124 48.9475 71.8423 49.4035 71.9403L51.1805 72.2983C52.135 72.4943 52.8467 72.8097 53.3154 73.2443C53.7842 73.679 54.0185 74.25 54.0185 74.9574C54.0185 75.6009 53.8289 76.1655 53.4497 76.6513C53.0747 77.1371 52.559 77.5163 51.9028 77.7891C51.2508 78.0575 50.4987 78.1918 49.6464 78.1918C48.3467 78.1918 47.3112 77.9212 46.5399 77.38C45.7728 76.8345 45.3232 76.093 45.1911 75.1555L47.8694 75.0149C47.9504 75.4112 48.1464 75.7138 48.4575 75.9226C48.7685 76.1271 49.167 76.2294 49.6528 76.2294C50.1301 76.2294 50.5136 76.1378 50.8033 75.9545C51.0974 75.767 51.2465 75.5263 51.2508 75.2322C51.2465 74.9851 51.1421 74.7827 50.9376 74.625C50.733 74.4631 50.4177 74.3395 49.9916 74.2543L48.2913 73.9155C47.3325 73.7237 46.6187 73.3913 46.1499 72.9183C45.6854 72.4453 45.4532 71.8423 45.4532 71.1094C45.4532 70.4787 45.6237 69.9354 45.9646 69.4794C46.3097 69.0234 46.7934 68.6719 47.4156 68.4247C48.042 68.1776 48.7749 68.054 49.6144 68.054C50.8545 68.054 51.8303 68.3161 52.542 68.8402C53.2579 69.3643 53.6755 70.0781 53.7948 70.9815ZM59.8093 78.1918C58.8164 78.1918 57.9577 77.9808 57.2333 77.5589C56.5131 77.1328 55.957 76.5405 55.565 75.782C55.1729 75.0192 54.9769 74.1349 54.9769 73.1293C54.9769 72.1151 55.1729 71.2287 55.565 70.4702C55.957 69.7074 56.5131 69.1151 57.2333 68.6932C57.9577 68.267 58.8164 68.054 59.8093 68.054C60.8022 68.054 61.6587 68.267 62.3789 68.6932C63.1033 69.1151 63.6616 69.7074 64.0536 70.4702C64.4457 71.2287 64.6417 72.1151 64.6417 73.1293C64.6417 74.1349 64.4457 75.0192 64.0536 75.782C63.6616 76.5405 63.1033 77.1328 62.3789 77.5589C61.6587 77.9808 60.8022 78.1918 59.8093 78.1918ZM59.8221 76.0824C60.2738 76.0824 60.6509 75.9545 60.9535 75.6989C61.256 75.4389 61.484 75.0852 61.6374 74.6378C61.7951 74.1903 61.8739 73.6811 61.8739 73.1101C61.8739 72.5391 61.7951 72.0298 61.6374 71.5824C61.484 71.1349 61.256 70.7812 60.9535 70.5213C60.6509 70.2614 60.2738 70.1314 59.8221 70.1314C59.3661 70.1314 58.9826 70.2614 58.6715 70.5213C58.3647 70.7812 58.1324 71.1349 57.9748 71.5824C57.8214 72.0298 57.7447 72.5391 57.7447 73.1101C57.7447 73.6811 57.8214 74.1903 57.9748 74.6378C58.1324 75.0852 58.3647 75.4389 58.6715 75.6989C58.9826 75.9545 59.3661 76.0824 59.8221 76.0824ZM68.7753 72.3239V78H66.0523V68.1818H68.6474V69.9141H68.7625C68.9798 69.343 69.3442 68.8913 69.8555 68.5589C70.3669 68.2223 70.9869 68.054 71.7156 68.054C72.3974 68.054 72.9919 68.2031 73.499 68.5014C74.0061 68.7997 74.4003 69.2259 74.6815 69.7798C74.9628 70.3295 75.1034 70.9858 75.1034 71.7486V78H72.3804V72.2344C72.3847 71.6335 72.2313 71.1648 71.9202 70.8281C71.6091 70.4872 71.1808 70.3168 70.6354 70.3168C70.2689 70.3168 69.945 70.3956 69.6638 70.5533C69.3868 70.7109 69.1695 70.9411 69.0118 71.2436C68.8584 71.5419 68.7795 71.902 68.7753 72.3239ZM76.8895 78V68.1818H79.6125V78H76.8895ZM81.3704 64.9091V66.3857H75.1445V64.9091H81.3704ZM85.8571 81.8864C84.975 81.8864 84.2186 81.7649 83.588 81.522C82.9615 81.2834 82.463 80.9574 82.0922 80.544C81.7215 80.1307 81.4807 79.6662 81.3699 79.1506L83.8884 78.8118C83.9651 79.0078 84.0865 79.1911 84.2527 79.3615C84.4189 79.532 84.6384 79.6683 84.9111 79.7706C85.1881 79.8771 85.5247 79.9304 85.9211 79.9304C86.5134 79.9304 87.0013 79.7855 87.3848 79.4957C87.7726 79.2102 87.9665 78.7308 87.9665 78.0575V76.2614H87.8515C87.7321 76.5341 87.5532 76.7919 87.3145 77.0348C87.0759 77.2777 86.7691 77.4759 86.3941 77.6293C86.0191 77.7827 85.5716 77.8594 85.0517 77.8594C84.3145 77.8594 83.6434 77.6889 83.0382 77.348C82.4374 77.0028 81.958 76.4766 81.6 75.7692C81.2463 75.0575 81.0695 74.1584 81.0695 73.0717C81.0695 71.9595 81.2506 71.0305 81.6128 70.2848C81.975 69.5391 82.4566 68.9808 83.0574 68.6101C83.6625 68.2393 84.3252 68.054 85.0453 68.054C85.5951 68.054 86.0553 68.1477 86.426 68.3352C86.7968 68.5185 87.0951 68.7486 87.3209 69.0256C87.551 69.2983 87.7279 69.5668 87.8515 69.831H87.9537V68.1818H90.6576V78.0959C90.6576 78.9311 90.453 79.63 90.0439 80.1925C89.6348 80.755 89.0681 81.1768 88.3436 81.4581C87.6235 81.7436 86.7946 81.8864 85.8571 81.8864ZM85.9147 75.8139C86.3536 75.8139 86.7243 75.7053 87.0269 75.4879C87.3337 75.2663 87.5681 74.951 87.73 74.5419C87.8962 74.1286 87.9793 73.6342 87.9793 73.0589C87.9793 72.4837 87.8983 71.9851 87.7364 71.5632C87.5745 71.1371 87.3401 70.8068 87.0333 70.5724C86.7265 70.3381 86.3536 70.2209 85.9147 70.2209C85.4672 70.2209 85.0901 70.3423 84.7833 70.5852C84.4765 70.8239 84.2442 71.1562 84.0865 71.5824C83.9289 72.0085 83.85 72.5007 83.85 73.0589C83.85 73.6257 83.9289 74.1158 84.0865 74.5291C84.2485 74.9382 84.4807 75.2557 84.7833 75.4815C85.0901 75.7031 85.4672 75.8139 85.9147 75.8139ZM95.2642 78.1854C94.6378 78.1854 94.0795 78.0767 93.5895 77.8594C93.0994 77.6378 92.7116 77.3118 92.4261 76.8814C92.1449 76.4467 92.0042 75.9055 92.0042 75.2578C92.0042 74.7124 92.1044 74.2543 92.3047 73.8835C92.5049 73.5128 92.7777 73.2145 93.1228 72.9886C93.468 72.7628 93.8601 72.5923 94.299 72.4773C94.7422 72.3622 95.2067 72.2812 95.6924 72.2344C96.2635 72.1747 96.7237 72.1193 97.0731 72.0682C97.4226 72.0128 97.6761 71.9318 97.8338 71.8253C97.9915 71.7187 98.0703 71.5611 98.0703 71.3523V71.3139C98.0703 70.9091 97.9424 70.5959 97.6868 70.3743C97.4353 70.1527 97.0774 70.0419 96.6129 70.0419C96.1228 70.0419 95.7329 70.1506 95.4432 70.3679C95.1534 70.581 94.9616 70.8494 94.8679 71.1733L92.3494 70.9688C92.4772 70.3722 92.7287 69.8565 93.1037 69.4219C93.4787 68.983 93.9623 68.6463 94.5547 68.4119C95.1513 68.1733 95.8416 68.054 96.6257 68.054C97.1711 68.054 97.6932 68.1179 98.1917 68.2457C98.6946 68.3736 99.1399 68.5717 99.5277 68.8402C99.9197 69.1087 100.229 69.4538 100.455 69.8757C100.68 70.2933 100.793 70.794 100.793 71.3778V78H98.2109V76.6385H98.1342C97.9765 76.9453 97.7656 77.2159 97.5014 77.4503C97.2372 77.6804 96.9197 77.8615 96.549 77.9936C96.1782 78.1214 95.75 78.1854 95.2642 78.1854ZM96.044 76.3061C96.4446 76.3061 96.7983 76.2273 97.1051 76.0696C97.4119 75.9077 97.6527 75.6903 97.8274 75.4176C98.0021 75.1449 98.0895 74.8359 98.0895 74.4908V73.4489C98.0042 73.5043 97.887 73.5554 97.7379 73.6023C97.593 73.6449 97.429 73.6854 97.2457 73.7237C97.0625 73.7578 96.8792 73.7898 96.696 73.8196C96.5128 73.8452 96.3466 73.8686 96.1974 73.8899C95.8778 73.9368 95.5987 74.0114 95.3601 74.1136C95.1214 74.2159 94.9361 74.3544 94.804 74.5291C94.6718 74.6996 94.6058 74.9126 94.6058 75.1683C94.6058 75.5391 94.74 75.8224 95.0085 76.0185C95.2812 76.2102 95.6264 76.3061 96.044 76.3061ZM102.546 78V68.1818H105.269V78H102.546ZM103.914 66.9162C103.509 66.9162 103.162 66.782 102.872 66.5135C102.586 66.2408 102.444 65.9148 102.444 65.5355C102.444 65.1605 102.586 64.8388 102.872 64.5703C103.162 64.2976 103.509 64.1612 103.914 64.1612C104.319 64.1612 104.664 64.2976 104.949 64.5703C105.239 64.8388 105.384 65.1605 105.384 65.5355C105.384 65.9148 105.239 66.2408 104.949 66.5135C104.664 66.782 104.319 66.9162 103.914 66.9162ZM115.259 70.9815L112.766 71.1349C112.724 70.9219 112.632 70.7301 112.491 70.5597C112.351 70.3849 112.165 70.2464 111.935 70.1442C111.709 70.0376 111.439 69.9844 111.124 69.9844C110.702 69.9844 110.346 70.0739 110.056 70.2528C109.766 70.4276 109.621 70.6619 109.621 70.956C109.621 71.1903 109.715 71.3885 109.903 71.5504C110.09 71.7124 110.412 71.8423 110.868 71.9403L112.645 72.2983C113.599 72.4943 114.311 72.8097 114.78 73.2443C115.249 73.679 115.483 74.25 115.483 74.9574C115.483 75.6009 115.293 76.1655 114.914 76.6513C114.539 77.1371 114.023 77.5163 113.367 77.7891C112.715 78.0575 111.963 78.1918 111.111 78.1918C109.811 78.1918 108.776 77.9212 108.004 77.38C107.237 76.8345 106.788 76.093 106.656 75.1555L109.334 75.0149C109.415 75.4112 109.611 75.7138 109.922 75.9226C110.233 76.1271 110.631 76.2294 111.117 76.2294C111.594 76.2294 111.978 76.1378 112.268 75.9545C112.562 75.767 112.711 75.5263 112.715 75.2322C112.711 74.9851 112.607 74.7827 112.402 74.625C112.197 74.4631 111.882 74.3395 111.456 74.2543L109.756 73.9155C108.797 73.7237 108.083 73.3913 107.614 72.9183C107.15 72.4453 106.918 71.8423 106.918 71.1094C106.918 70.4787 107.088 69.9354 107.429 69.4794C107.774 69.0234 108.258 68.6719 108.88 68.4247C109.506 68.1776 110.239 68.054 111.079 68.054C112.319 68.054 113.295 68.3161 114.006 68.8402C114.722 69.3643 115.14 70.0781 115.259 70.9815ZM17.0866 103.682V90.1818H19.7713V91.831H19.8928C20.0121 91.5668 20.1847 91.2983 20.4105 91.0256C20.6406 90.7486 20.9389 90.5185 21.3054 90.3352C21.6761 90.1477 22.1364 90.054 22.6861 90.054C23.402 90.054 24.0625 90.2415 24.6676 90.6165C25.2727 90.9872 25.7564 91.5476 26.1186 92.2976C26.4808 93.0433 26.6619 93.9787 26.6619 95.1037C26.6619 96.1989 26.4851 97.1236 26.1314 97.8778C25.782 98.6278 25.3047 99.1967 24.6996 99.5845C24.0987 99.968 23.4254 100.16 22.6797 100.16C22.1513 100.16 21.7017 100.072 21.331 99.8977C20.9645 99.723 20.6641 99.5036 20.4297 99.2393C20.1953 98.9709 20.0163 98.7003 19.8928 98.4276H19.8097V103.682H17.0866ZM19.7521 95.0909C19.7521 95.6747 19.8331 96.1839 19.995 96.6186C20.157 97.0533 20.3913 97.392 20.6982 97.6349C21.005 97.8736 21.3778 97.9929 21.8168 97.9929C22.2599 97.9929 22.6349 97.8714 22.9418 97.6286C23.2486 97.3814 23.4808 97.0405 23.6385 96.6058C23.8004 96.1669 23.8814 95.6619 23.8814 95.0909C23.8814 94.5241 23.8026 94.0256 23.6449 93.5952C23.4872 93.1648 23.255 92.8281 22.9482 92.5852C22.6413 92.3423 22.2642 92.2209 21.8168 92.2209C21.3736 92.2209 20.9986 92.3381 20.6918 92.5724C20.3892 92.8068 20.157 93.1392 19.995 93.5696C19.8331 94 19.7521 94.5071 19.7521 95.0909ZM30.917 100.185C30.2906 100.185 29.7323 100.077 29.2423 99.8594C28.7522 99.6378 28.3644 99.3118 28.0789 98.8814C27.7977 98.4467 27.657 97.9055 27.657 97.2578C27.657 96.7124 27.7572 96.2543 27.9575 95.8835C28.1578 95.5128 28.4305 95.2145 28.7757 94.9886C29.1208 94.7628 29.5129 94.5923 29.9518 94.4773C30.395 94.3622 30.8595 94.2812 31.3453 94.2344C31.9163 94.1747 32.3765 94.1193 32.7259 94.0682C33.0754 94.0128 33.3289 93.9318 33.4866 93.8253C33.6443 93.7187 33.7231 93.5611 33.7231 93.3523V93.3139C33.7231 92.9091 33.5953 92.5959 33.3396 92.3743C33.0882 92.1527 32.7302 92.0419 32.2657 92.0419C31.7757 92.0419 31.3857 92.1506 31.096 92.3679C30.8062 92.581 30.6144 92.8494 30.5207 93.1733L28.0022 92.9688C28.1301 92.3722 28.3815 91.8565 28.7565 91.4219C29.1315 90.983 29.6151 90.6463 30.2075 90.4119C30.8041 90.1733 31.4944 90.054 32.2785 90.054C32.8239 90.054 33.346 90.1179 33.8445 90.2457C34.3474 90.3736 34.7927 90.5717 35.1805 90.8402C35.5725 91.1087 35.8815 91.4538 36.1073 91.8757C36.3332 92.2933 36.4461 92.794 36.4461 93.3778V100H33.8637V98.6385H33.787C33.6293 98.9453 33.4184 99.2159 33.1542 99.4503C32.89 99.6804 32.5725 99.8615 32.2018 99.9936C31.8311 100.121 31.4028 100.185 30.917 100.185ZM31.6968 98.3061C32.0974 98.3061 32.4511 98.2273 32.7579 98.0696C33.0647 97.9077 33.3055 97.6903 33.4802 97.4176C33.6549 97.1449 33.7423 96.8359 33.7423 96.4908V95.4489C33.657 95.5043 33.5399 95.5554 33.3907 95.6023C33.2458 95.6449 33.0818 95.6854 32.8985 95.7237C32.7153 95.7578 32.532 95.7898 32.3488 95.8196C32.1656 95.8452 31.9994 95.8686 31.8502 95.8899C31.5306 95.9368 31.2515 96.0114 31.0129 96.1136C30.7742 96.2159 30.5889 96.3544 30.4568 96.5291C30.3247 96.6996 30.2586 96.9126 30.2586 97.1683C30.2586 97.5391 30.3928 97.8224 30.6613 98.0185C30.934 98.2102 31.2792 98.3061 31.6968 98.3061ZM43.421 90.1818V92.2273H37.5083V90.1818H43.421ZM38.8507 87.8295H41.5737V96.983C41.5737 97.2344 41.612 97.4304 41.6887 97.571C41.7654 97.7074 41.872 97.8033 42.0083 97.8587C42.149 97.9141 42.3109 97.9418 42.4941 97.9418C42.622 97.9418 42.7498 97.9311 42.8777 97.9098C43.0055 97.8842 43.1035 97.8651 43.1717 97.8523L43.6 99.8786C43.4636 99.9212 43.2718 99.9702 43.0247 100.026C42.7775 100.085 42.4771 100.121 42.1234 100.134C41.4671 100.16 40.8919 100.072 40.3975 99.8722C39.9075 99.6719 39.5261 99.3608 39.2534 98.9389C38.9806 98.517 38.8464 97.9844 38.8507 97.3409V87.8295ZM49.2037 100.192C48.1938 100.192 47.3245 99.9872 46.5958 99.5781C45.8713 99.1648 45.3131 98.581 44.9211 97.8267C44.529 97.0682 44.333 96.1712 44.333 95.1357C44.333 94.1257 44.529 93.2393 44.9211 92.4766C45.3131 91.7138 45.865 91.1193 46.5766 90.6932C47.2925 90.267 48.132 90.054 49.0951 90.054C49.7428 90.054 50.3458 90.1584 50.904 90.3672C51.4665 90.5717 51.9566 90.8807 52.3742 91.294C52.7961 91.7074 53.1242 92.2273 53.3586 92.8537C53.5929 93.4759 53.7101 94.2045 53.7101 95.0398V95.7876H45.4196V94.1001H51.1469C51.1469 93.7081 51.0617 93.3608 50.8912 93.0582C50.7208 92.7557 50.4843 92.5192 50.1817 92.3487C49.8834 92.174 49.5361 92.0866 49.1398 92.0866C48.7265 92.0866 48.36 92.1825 48.0404 92.3743C47.725 92.5618 47.4779 92.8153 47.2989 93.1349C47.1199 93.4503 47.0283 93.8018 47.024 94.1896V95.794C47.024 96.2798 47.1135 96.6996 47.2925 97.0533C47.4758 97.407 47.7336 97.6797 48.066 97.8714C48.3983 98.0632 48.7925 98.1591 49.2485 98.1591C49.551 98.1591 49.828 98.1165 50.0794 98.0312C50.3309 97.946 50.5461 97.8182 50.725 97.6477C50.904 97.4773 51.0404 97.2685 51.1341 97.0213L53.6526 97.1875C53.5248 97.7926 53.2627 98.321 52.8664 98.7727C52.4743 99.2202 51.9672 99.5696 51.3451 99.821C50.7272 100.068 50.0134 100.192 49.2037 100.192ZM52.1441 86.9091V88.3857H45.9182V86.9091H52.1441ZM55.1271 100V90.1818H57.767V91.8949H57.8693C58.0483 91.2855 58.3487 90.8253 58.7706 90.5142C59.1925 90.1989 59.6783 90.0412 60.228 90.0412C60.3643 90.0412 60.5114 90.0497 60.669 90.0668C60.8267 90.0838 60.9652 90.1072 61.0845 90.1371V92.5533C60.9567 92.5149 60.7798 92.4808 60.554 92.451C60.3281 92.4212 60.1214 92.4062 59.9339 92.4062C59.5334 92.4062 59.1754 92.4936 58.8601 92.6683C58.549 92.8388 58.3018 93.0774 58.1186 93.3842C57.9396 93.6911 57.8501 94.0447 57.8501 94.4453V100H55.1271ZM62.1324 100V90.1818H64.8554V100H62.1324ZM63.5002 88.9162C63.0954 88.9162 62.7481 88.782 62.4583 88.5135C62.1728 88.2408 62.0301 87.9148 62.0301 87.5355C62.0301 87.1605 62.1728 86.8388 62.4583 86.5703C62.7481 86.2976 63.0954 86.1612 63.5002 86.1612C63.9051 86.1612 64.2502 86.2976 64.5358 86.5703C64.8255 86.8388 64.9704 87.1605 64.9704 87.5355C64.9704 87.9148 64.8255 88.2408 64.5358 88.5135C64.2502 88.782 63.9051 88.9162 63.5002 88.9162ZM69.3997 94.3239V100H66.6766V90.1818H69.2718V91.9141H69.3869C69.6042 91.343 69.9686 90.8913 70.4799 90.5589C70.9913 90.2223 71.6113 90.054 72.34 90.054C73.0218 90.054 73.6163 90.2031 74.1234 90.5014C74.6305 90.7997 75.0247 91.2259 75.3059 91.7798C75.5872 92.3295 75.7278 92.9858 75.7278 93.7486V100H73.0048V94.2344C73.009 93.6335 72.8556 93.1648 72.5445 92.8281C72.2335 92.4872 71.8052 92.3168 71.2597 92.3168C70.8933 92.3168 70.5694 92.3956 70.2882 92.5533C70.0112 92.7109 69.7938 92.9411 69.6362 93.2436C69.4828 93.5419 69.4039 93.902 69.3997 94.3239ZM69.1632 104.193L69.9558 101.036H72.4742L71.0744 104.193H69.1632ZM85.6829 92.9815L83.19 93.1349C83.1474 92.9219 83.0558 92.7301 82.9152 92.5597C82.7746 92.3849 82.5892 92.2464 82.3591 92.1442C82.1332 92.0376 81.8626 91.9844 81.5473 91.9844C81.1254 91.9844 80.7696 92.0739 80.4798 92.2528C80.19 92.4276 80.0452 92.6619 80.0452 92.956C80.0452 93.1903 80.1389 93.3885 80.3264 93.5504C80.5139 93.7124 80.8356 93.8423 81.2916 93.9403L83.0686 94.2983C84.0231 94.4943 84.7348 94.8097 85.2035 95.2443C85.6723 95.679 85.9067 96.25 85.9067 96.9574C85.9067 97.6009 85.717 98.1655 85.3378 98.6513C84.9628 99.1371 84.4472 99.5163 83.7909 99.7891C83.1389 100.058 82.3868 100.192 81.5345 100.192C80.2348 100.192 79.1993 99.9212 78.428 99.38C77.6609 98.8345 77.2114 98.093 77.0793 97.1555L79.7575 97.0149C79.8385 97.4112 80.0345 97.7138 80.3456 97.9226C80.6567 98.1271 81.0551 98.2294 81.5409 98.2294C82.0182 98.2294 82.4017 98.1378 82.6915 97.9545C82.9855 97.767 83.1347 97.5263 83.1389 97.2322C83.1347 96.9851 83.0302 96.7827 82.8257 96.625C82.6212 96.4631 82.3058 96.3395 81.8797 96.2543L80.1794 95.9155C79.2206 95.7237 78.5068 95.3913 78.0381 94.9183C77.5736 94.4453 77.3413 93.8423 77.3413 93.1094C77.3413 92.4787 77.5118 91.9354 77.8527 91.4794C78.1979 91.0234 78.6815 90.6719 79.3037 90.4247C79.9301 90.1776 80.6631 90.054 81.5025 90.054C82.7426 90.054 83.7185 90.3161 84.4301 90.8402C85.146 91.3643 85.5636 92.0781 85.6829 92.9815ZM80.2753 86.1037L81.5601 87.6634L82.8449 86.1037H85.1652V86.1932L82.57 89.0057H80.5437L77.955 86.1932V86.1037H80.2753Z" fill="#1A1D27"/>
<path d="M17.0568 120V111.273H18.1136V115.602H18.2159L22.1364 111.273H23.517L19.8523 115.21L23.517 120H22.2386L19.2045 115.943L18.1136 117.17V120H17.0568ZM26.6747 120.153C26.2599 120.153 25.8835 120.075 25.5455 119.919C25.2074 119.76 24.9389 119.531 24.7401 119.233C24.5412 118.932 24.4418 118.568 24.4418 118.142C24.4418 117.767 24.5156 117.463 24.6634 117.23C24.8111 116.994 25.0085 116.81 25.2557 116.676C25.5028 116.543 25.7756 116.443 26.0739 116.378C26.375 116.31 26.6776 116.256 26.9815 116.216C27.3793 116.165 27.7017 116.126 27.9489 116.101C28.1989 116.072 28.3807 116.026 28.4943 115.96C28.6108 115.895 28.669 115.781 28.669 115.619V115.585C28.669 115.165 28.554 114.838 28.3239 114.605C28.0966 114.372 27.7514 114.256 27.2884 114.256C26.8082 114.256 26.4318 114.361 26.1591 114.571C25.8864 114.781 25.6946 115.006 25.5838 115.244L24.6293 114.903C24.7997 114.506 25.027 114.196 25.3111 113.974C25.598 113.75 25.9105 113.594 26.2486 113.506C26.5895 113.415 26.9247 113.369 27.2543 113.369C27.4645 113.369 27.706 113.395 27.9787 113.446C28.2543 113.494 28.5199 113.595 28.7756 113.749C29.0341 113.902 29.2486 114.134 29.419 114.443C29.5895 114.753 29.6747 115.168 29.6747 115.688V120H28.669V119.114H28.6179C28.5497 119.256 28.4361 119.408 28.277 119.57C28.1179 119.732 27.9063 119.869 27.642 119.983C27.3778 120.097 27.0554 120.153 26.6747 120.153ZM26.8281 119.25C27.2259 119.25 27.5611 119.172 27.8338 119.016C28.1094 118.859 28.3168 118.658 28.456 118.411C28.598 118.163 28.669 117.903 28.669 117.631V116.71C28.6264 116.761 28.5327 116.808 28.3878 116.851C28.2457 116.891 28.081 116.926 27.8935 116.957C27.7088 116.986 27.5284 117.011 27.3523 117.034C27.179 117.054 27.0384 117.071 26.9304 117.085C26.669 117.119 26.4247 117.175 26.1974 117.251C25.973 117.325 25.7912 117.437 25.652 117.588C25.5156 117.736 25.4474 117.937 25.4474 118.193C25.4474 118.543 25.5767 118.807 25.8352 118.986C26.0966 119.162 26.4276 119.25 26.8281 119.25ZM33.9819 120.136C33.4364 120.136 32.9549 119.999 32.5373 119.723C32.1197 119.445 31.793 119.053 31.5572 118.547C31.3214 118.038 31.2035 117.438 31.2035 116.744C31.2035 116.057 31.3214 115.46 31.5572 114.955C31.793 114.449 32.1211 114.058 32.5415 113.783C32.962 113.507 33.4478 113.369 33.9989 113.369C34.4251 113.369 34.7617 113.44 35.0089 113.582C35.2589 113.722 35.4492 113.881 35.5799 114.06C35.7134 114.236 35.8171 114.381 35.891 114.494H35.9762V111.273H36.9819V120H36.0103V118.994H35.891C35.8171 119.114 35.712 119.264 35.5756 119.446C35.4393 119.625 35.2447 119.786 34.9918 119.928C34.739 120.067 34.4023 120.136 33.9819 120.136ZM34.1183 119.233C34.5217 119.233 34.8626 119.128 35.141 118.918C35.4194 118.705 35.631 118.411 35.7759 118.036C35.9208 117.658 35.9933 117.222 35.9933 116.727C35.9933 116.239 35.9222 115.811 35.7802 115.445C35.6381 115.075 35.4279 114.788 35.1495 114.584C34.8711 114.376 34.5273 114.273 34.1183 114.273C33.6921 114.273 33.337 114.382 33.0529 114.601C32.7717 114.817 32.56 115.111 32.418 115.483C32.2788 115.852 32.2092 116.267 32.2092 116.727C32.2092 117.193 32.2802 117.616 32.4222 117.997C32.5671 118.375 32.7802 118.676 33.0614 118.901C33.3455 119.122 33.6978 119.233 34.1183 119.233ZM42.3384 122.455V113.455H43.31V114.494H43.4293C43.5032 114.381 43.6055 114.236 43.7362 114.06C43.8697 113.881 44.06 113.722 44.3072 113.582C44.5572 113.44 44.8952 113.369 45.3214 113.369C45.8725 113.369 46.3583 113.507 46.7788 113.783C47.1992 114.058 47.5273 114.449 47.7631 114.955C47.9989 115.46 48.1168 116.057 48.1168 116.744C48.1168 117.438 47.9989 118.038 47.7631 118.547C47.5273 119.053 47.2006 119.445 46.783 119.723C46.3654 119.999 45.8839 120.136 45.3384 120.136C44.918 120.136 44.5813 120.067 44.3285 119.928C44.0756 119.786 43.881 119.625 43.7447 119.446C43.6083 119.264 43.5032 119.114 43.4293 118.994H43.3441V122.455H42.3384ZM43.3271 116.727C43.3271 117.222 43.3995 117.658 43.5444 118.036C43.6893 118.411 43.9009 118.705 44.1793 118.918C44.4577 119.128 44.7987 119.233 45.2021 119.233C45.6225 119.233 45.9734 119.122 46.2546 118.901C46.5387 118.676 46.7518 118.375 46.8938 117.997C47.0387 117.616 47.1112 117.193 47.1112 116.727C47.1112 116.267 47.0401 115.852 46.8981 115.483C46.7589 115.111 46.5472 114.817 46.2631 114.601C45.9819 114.382 45.6282 114.273 45.2021 114.273C44.793 114.273 44.4492 114.376 44.1708 114.584C43.8924 114.788 43.6822 115.075 43.5401 115.445C43.3981 115.811 43.3271 116.239 43.3271 116.727ZM51.5771 120.153C51.1623 120.153 50.7859 120.075 50.4478 119.919C50.1097 119.76 49.8413 119.531 49.6424 119.233C49.4435 118.932 49.3441 118.568 49.3441 118.142C49.3441 117.767 49.418 117.463 49.5657 117.23C49.7134 116.994 49.9109 116.81 50.158 116.676C50.4052 116.543 50.6779 116.443 50.9762 116.378C51.2773 116.31 51.5799 116.256 51.8839 116.216C52.2816 116.165 52.604 116.126 52.8512 116.101C53.1012 116.072 53.283 116.026 53.3967 115.96C53.5131 115.895 53.5714 115.781 53.5714 115.619V115.585C53.5714 115.165 53.4563 114.838 53.2262 114.605C52.9989 114.372 52.6538 114.256 52.1907 114.256C51.7106 114.256 51.3342 114.361 51.0614 114.571C50.7887 114.781 50.5969 115.006 50.4862 115.244L49.5316 114.903C49.7021 114.506 49.9293 114.196 50.2134 113.974C50.5004 113.75 50.8129 113.594 51.1509 113.506C51.4918 113.415 51.8271 113.369 52.1566 113.369C52.3668 113.369 52.6083 113.395 52.881 113.446C53.1566 113.494 53.4222 113.595 53.6779 113.749C53.9364 113.902 54.1509 114.134 54.3214 114.443C54.4918 114.753 54.5771 115.168 54.5771 115.688V120H53.5714V119.114H53.5202C53.4521 119.256 53.3384 119.408 53.1793 119.57C53.0202 119.732 52.8086 119.869 52.5444 119.983C52.2802 120.097 51.9577 120.153 51.5771 120.153ZM51.7305 119.25C52.1282 119.25 52.4634 119.172 52.7362 119.016C53.0117 118.859 53.2191 118.658 53.3583 118.411C53.5004 118.163 53.5714 117.903 53.5714 117.631V116.71C53.5288 116.761 53.435 116.808 53.2901 116.851C53.1481 116.891 52.9833 116.926 52.7958 116.957C52.6112 116.986 52.4308 117.011 52.2546 117.034C52.0813 117.054 51.9407 117.071 51.8327 117.085C51.5714 117.119 51.3271 117.175 51.0998 117.251C50.8754 117.325 50.6935 117.437 50.5543 117.588C50.418 117.736 50.3498 117.937 50.3498 118.193C50.3498 118.543 50.479 118.807 50.7376 118.986C50.9989 119.162 51.3299 119.25 51.7305 119.25ZM61.049 114.92L60.1456 115.176C60.0888 115.026 60.005 114.879 59.8942 114.737C59.7862 114.592 59.6385 114.473 59.451 114.379C59.2635 114.286 59.0234 114.239 58.7308 114.239C58.3303 114.239 57.9964 114.331 57.7294 114.516C57.4652 114.697 57.3331 114.929 57.3331 115.21C57.3331 115.46 57.424 115.658 57.6058 115.803C57.7876 115.947 58.0717 116.068 58.4581 116.165L59.4297 116.403C60.0149 116.545 60.451 116.763 60.7379 117.055C61.0249 117.345 61.1683 117.719 61.1683 118.176C61.1683 118.551 61.0604 118.886 60.8445 119.182C60.6314 119.477 60.3331 119.71 59.9496 119.881C59.5661 120.051 59.12 120.136 58.6115 120.136C57.9439 120.136 57.3913 119.991 56.9538 119.702C56.5163 119.412 56.2393 118.989 56.1229 118.432L57.0774 118.193C57.1683 118.545 57.3402 118.81 57.593 118.986C57.8487 119.162 58.1825 119.25 58.5945 119.25C59.0632 119.25 59.4354 119.151 59.7109 118.952C59.9893 118.75 60.1286 118.509 60.1286 118.227C60.1286 118 60.049 117.81 59.8899 117.656C59.7308 117.5 59.4865 117.384 59.157 117.307L58.0661 117.051C57.4666 116.909 57.0263 116.689 56.745 116.391C56.4666 116.089 56.3274 115.713 56.3274 115.261C56.3274 114.892 56.4311 114.565 56.6385 114.281C56.8487 113.997 57.1342 113.774 57.495 113.612C57.8587 113.45 58.2706 113.369 58.7308 113.369C59.3786 113.369 59.8871 113.511 60.2564 113.795C60.6286 114.08 60.8928 114.455 61.049 114.92ZM57.8445 110.83L58.7308 112.023L59.6172 110.83H60.5717V110.898L59.1911 112.67H58.2706L56.8899 110.898V110.83H57.8445ZM63.6879 116.062V120H62.6822V113.455H63.6538V114.477H63.739C63.8924 114.145 64.1254 113.878 64.4379 113.676C64.7504 113.472 65.1538 113.369 65.6481 113.369C66.0913 113.369 66.479 113.46 66.8114 113.642C67.1438 113.821 67.4023 114.094 67.587 114.46C67.7717 114.824 67.864 115.284 67.864 115.841V120H66.8583V115.909C66.8583 115.395 66.7248 114.994 66.4577 114.707C66.1907 114.418 65.8242 114.273 65.3583 114.273C65.0373 114.273 64.7504 114.342 64.4975 114.482C64.2475 114.621 64.0501 114.824 63.9052 115.091C63.7603 115.358 63.6879 115.682 63.6879 116.062ZM69.7017 120V113.455H70.7074V120H69.7017ZM70.2131 112.364C70.017 112.364 69.848 112.297 69.706 112.163C69.5668 112.03 69.4972 111.869 69.4972 111.682C69.4972 111.494 69.5668 111.334 69.706 111.2C69.848 111.067 70.017 111 70.2131 111C70.4091 111 70.5767 111.067 70.7159 111.2C70.858 111.334 70.929 111.494 70.929 111.682C70.929 111.869 70.858 112.03 70.7159 112.163C70.5767 112.297 70.4091 112.364 70.2131 112.364ZM75.021 120.136C74.4755 120.136 73.994 119.999 73.5763 119.723C73.1587 119.445 72.832 119.053 72.5962 118.547C72.3604 118.038 72.2425 117.438 72.2425 116.744C72.2425 116.057 72.3604 115.46 72.5962 114.955C72.832 114.449 73.1602 114.058 73.5806 113.783C74.0011 113.507 74.4869 113.369 75.038 113.369C75.4641 113.369 75.8008 113.44 76.0479 113.582C76.2979 113.722 76.4883 113.881 76.619 114.06C76.7525 114.236 76.8562 114.381 76.93 114.494H77.0153V111.273H78.021V120H77.0494V118.994H76.93C76.8562 119.114 76.7511 119.264 76.6147 119.446C76.4783 119.625 76.2837 119.786 76.0309 119.928C75.7781 120.067 75.4414 120.136 75.021 120.136ZM75.1573 119.233C75.5607 119.233 75.9016 119.128 76.18 118.918C76.4585 118.705 76.6701 118.411 76.815 118.036C76.9599 117.658 77.0323 117.222 77.0323 116.727C77.0323 116.239 76.9613 115.811 76.8192 115.445C76.6772 115.075 76.467 114.788 76.1886 114.584C75.9102 114.376 75.5664 114.273 75.1573 114.273C74.7312 114.273 74.3761 114.382 74.092 114.601C73.8107 114.817 73.5991 115.111 73.457 115.483C73.3178 115.852 73.2482 116.267 73.2482 116.727C73.2482 117.193 73.3192 117.616 73.4613 117.997C73.6062 118.375 73.8192 118.676 74.1005 118.901C74.3846 119.122 74.7369 119.233 75.1573 119.233ZM81.9286 120.153C81.5138 120.153 81.1374 120.075 80.7994 119.919C80.4613 119.76 80.1928 119.531 79.994 119.233C79.7951 118.932 79.6957 118.568 79.6957 118.142C79.6957 117.767 79.7695 117.463 79.9173 117.23C80.065 116.994 80.2624 116.81 80.5096 116.676C80.7567 116.543 81.0295 116.443 81.3278 116.378C81.6289 116.31 81.9315 116.256 82.2354 116.216C82.6332 116.165 82.9556 116.126 83.2028 116.101C83.4528 116.072 83.6346 116.026 83.7482 115.96C83.8647 115.895 83.9229 115.781 83.9229 115.619V115.585C83.9229 115.165 83.8079 114.838 83.5778 114.605C83.3505 114.372 83.0053 114.256 82.5423 114.256C82.0621 114.256 81.6857 114.361 81.413 114.571C81.1403 114.781 80.9485 115.006 80.8377 115.244L79.8832 114.903C80.0536 114.506 80.2809 114.196 80.565 113.974C80.8519 113.75 81.1644 113.594 81.5025 113.506C81.8434 113.415 82.1786 113.369 82.5082 113.369C82.7184 113.369 82.9599 113.395 83.2326 113.446C83.5082 113.494 83.7738 113.595 84.0295 113.749C84.288 113.902 84.5025 114.134 84.6729 114.443C84.8434 114.753 84.9286 115.168 84.9286 115.688V120H83.9229V119.114H83.8718C83.8036 119.256 83.69 119.408 83.5309 119.57C83.3718 119.732 83.1602 119.869 82.896 119.983C82.6317 120.097 82.3093 120.153 81.9286 120.153ZM82.082 119.25C82.4798 119.25 82.815 119.172 83.0877 119.016C83.3633 118.859 83.5707 118.658 83.7099 118.411C83.8519 118.163 83.9229 117.903 83.9229 117.631V116.71C83.8803 116.761 83.7866 116.808 83.6417 116.851C83.4996 116.891 83.3349 116.926 83.1474 116.957C82.9627 116.986 82.7823 117.011 82.6062 117.034C82.4329 117.054 82.2923 117.071 82.1843 117.085C81.9229 117.119 81.6786 117.175 81.4513 117.251C81.2269 117.325 81.0451 117.437 80.9059 117.588C80.7695 117.736 80.7013 117.937 80.7013 118.193C80.7013 118.543 80.8306 118.807 81.0891 118.986C81.3505 119.162 81.6815 119.25 82.082 119.25ZM86.7642 120V113.455H87.7358V114.443H87.804C87.9233 114.119 88.1392 113.857 88.4517 113.655C88.7642 113.453 89.1165 113.352 89.5085 113.352C89.5824 113.352 89.6747 113.354 89.7855 113.357C89.8963 113.359 89.9801 113.364 90.0369 113.369V114.392C90.0028 114.384 89.9247 114.371 89.8026 114.354C89.6832 114.334 89.5568 114.324 89.4233 114.324C89.1051 114.324 88.821 114.391 88.571 114.524C88.3239 114.655 88.1278 114.837 87.983 115.07C87.8409 115.3 87.7699 115.562 87.7699 115.858V120H86.7642ZM91.3654 120V111.273H92.3711V114.494H92.4563C92.5302 114.381 92.6325 114.236 92.7631 114.06C92.8967 113.881 93.087 113.722 93.3342 113.582C93.5842 113.44 93.9222 113.369 94.3484 113.369C94.8995 113.369 95.3853 113.507 95.8058 113.783C96.2262 114.058 96.5543 114.449 96.7901 114.955C97.0259 115.46 97.1438 116.057 97.1438 116.744C97.1438 117.438 97.0259 118.038 96.7901 118.547C96.5543 119.053 96.2276 119.445 95.81 119.723C95.3924 119.999 94.9109 120.136 94.3654 120.136C93.945 120.136 93.6083 120.067 93.3555 119.928C93.1026 119.786 92.908 119.625 92.7717 119.446C92.6353 119.264 92.5302 119.114 92.4563 118.994H92.337V120H91.3654ZM92.354 116.727C92.354 117.222 92.4265 117.658 92.5714 118.036C92.7163 118.411 92.9279 118.705 93.2063 118.918C93.4847 119.128 93.8256 119.233 94.229 119.233C94.6495 119.233 95.0004 119.122 95.2816 118.901C95.5657 118.676 95.7788 118.375 95.9208 117.997C96.0657 117.616 96.1381 117.193 96.1381 116.727C96.1381 116.267 96.0671 115.852 95.9251 115.483C95.7859 115.111 95.5742 114.817 95.2901 114.601C95.0089 114.382 94.6552 114.273 94.229 114.273C93.82 114.273 93.4762 114.376 93.1978 114.584C92.9194 114.788 92.7092 115.075 92.5671 115.445C92.4251 115.811 92.354 116.239 92.354 116.727ZM98.6822 120V113.455H99.6879V120H98.6822ZM99.1935 112.364C98.9975 112.364 98.8285 112.297 98.6864 112.163C98.5472 112.03 98.4776 111.869 98.4776 111.682C98.4776 111.494 98.5472 111.334 98.6864 111.2C98.8285 111.067 98.9975 111 99.1935 111C99.3896 111 99.5572 111.067 99.6964 111.2C99.8384 111.334 99.9094 111.494 99.9094 111.682C99.9094 111.869 99.8384 112.03 99.6964 112.163C99.5572 112.297 99.3896 112.364 99.1935 112.364ZM102.536 116.062V120H101.53V113.455H102.501V114.477H102.587C102.74 114.145 102.973 113.878 103.286 113.676C103.598 113.472 104.001 113.369 104.496 113.369C104.939 113.369 105.327 113.46 105.659 113.642C105.991 113.821 106.25 114.094 106.435 114.46C106.619 114.824 106.712 115.284 106.712 115.841V120H105.706V115.909C105.706 115.395 105.572 114.994 105.305 114.707C105.038 114.418 104.672 114.273 104.206 114.273C103.885 114.273 103.598 114.342 103.345 114.482C103.095 114.621 102.898 114.824 102.753 115.091C102.608 115.358 102.536 115.682 102.536 116.062ZM110.475 120.153C110.061 120.153 109.684 120.075 109.346 119.919C109.008 119.76 108.74 119.531 108.541 119.233C108.342 118.932 108.243 118.568 108.243 118.142C108.243 117.767 108.316 117.463 108.464 117.23C108.612 116.994 108.809 116.81 109.056 116.676C109.304 116.543 109.576 116.443 109.875 116.378C110.176 116.31 110.478 116.256 110.782 116.216C111.18 116.165 111.502 116.126 111.75 116.101C112 116.072 112.181 116.026 112.295 115.96C112.412 115.895 112.47 115.781 112.47 115.619V115.585C112.47 115.165 112.355 114.838 112.125 114.605C111.897 114.372 111.552 114.256 111.089 114.256C110.609 114.256 110.233 114.361 109.96 114.571C109.687 114.781 109.495 115.006 109.385 115.244L108.43 114.903C108.6 114.506 108.828 114.196 109.112 113.974C109.399 113.75 109.711 113.594 110.049 113.506C110.39 113.415 110.725 113.369 111.055 113.369C111.265 113.369 111.507 113.395 111.779 113.446C112.055 113.494 112.321 113.595 112.576 113.749C112.835 113.902 113.049 114.134 113.22 114.443C113.39 114.753 113.475 115.168 113.475 115.688V120H112.47V119.114H112.419C112.35 119.256 112.237 119.408 112.078 119.57C111.919 119.732 111.707 119.869 111.443 119.983C111.179 120.097 110.856 120.153 110.475 120.153ZM110.629 119.25C111.027 119.25 111.362 119.172 111.635 119.016C111.91 118.859 112.118 118.658 112.257 118.411C112.399 118.163 112.47 117.903 112.47 117.631V116.71C112.427 116.761 112.333 116.808 112.189 116.851C112.047 116.891 111.882 116.926 111.694 116.957C111.51 116.986 111.329 117.011 111.153 117.034C110.98 117.054 110.839 117.071 110.731 117.085C110.47 117.119 110.225 117.175 109.998 117.251C109.774 117.325 109.592 117.437 109.453 117.588C109.316 117.736 109.248 117.937 109.248 118.193C109.248 118.543 109.377 118.807 109.636 118.986C109.897 119.162 110.228 119.25 110.629 119.25ZM113.118 111.273V112.125H109.129V111.273H113.118ZM118.158 113.455V114.307H114.766V113.455H118.158ZM115.754 111.886H116.76V118.125C116.76 118.409 116.801 118.622 116.884 118.764C116.969 118.903 117.077 118.997 117.207 119.045C117.341 119.091 117.482 119.114 117.629 119.114C117.74 119.114 117.831 119.108 117.902 119.097C117.973 119.082 118.03 119.071 118.072 119.062L118.277 119.966C118.209 119.991 118.114 120.017 117.991 120.043C117.869 120.071 117.714 120.085 117.527 120.085C117.243 120.085 116.964 120.024 116.692 119.902C116.422 119.78 116.197 119.594 116.018 119.344C115.842 119.094 115.754 118.778 115.754 118.398V111.886ZM121.597 120.153C121.182 120.153 120.805 120.075 120.467 119.919C120.129 119.76 119.861 119.531 119.662 119.233C119.463 118.932 119.364 118.568 119.364 118.142C119.364 117.767 119.438 117.463 119.585 117.23C119.733 116.994 119.93 116.81 120.178 116.676C120.425 116.543 120.697 116.443 120.996 116.378C121.297 116.31 121.599 116.256 121.903 116.216C122.301 116.165 122.624 116.126 122.871 116.101C123.121 116.072 123.303 116.026 123.416 115.96C123.533 115.895 123.591 115.781 123.591 115.619V115.585C123.591 115.165 123.476 114.838 123.246 114.605C123.018 114.372 122.673 114.256 122.21 114.256C121.73 114.256 121.354 114.361 121.081 114.571C120.808 114.781 120.616 115.006 120.506 115.244L119.551 114.903C119.722 114.506 119.949 114.196 120.233 113.974C120.52 113.75 120.832 113.594 121.17 113.506C121.511 113.415 121.847 113.369 122.176 113.369C122.386 113.369 122.628 113.395 122.901 113.446C123.176 113.494 123.442 113.595 123.697 113.749C123.956 113.902 124.17 114.134 124.341 114.443C124.511 114.753 124.597 115.168 124.597 115.688V120H123.591V119.114H123.54C123.472 119.256 123.358 119.408 123.199 119.57C123.04 119.732 122.828 119.869 122.564 119.983C122.3 120.097 121.977 120.153 121.597 120.153ZM121.75 119.25C122.148 119.25 122.483 119.172 122.756 119.016C123.031 118.859 123.239 118.658 123.378 118.411C123.52 118.163 123.591 117.903 123.591 117.631V116.71C123.548 116.761 123.455 116.808 123.31 116.851C123.168 116.891 123.003 116.926 122.815 116.957C122.631 116.986 122.45 117.011 122.274 117.034C122.101 117.054 121.96 117.071 121.852 117.085C121.591 117.119 121.347 117.175 121.119 117.251C120.895 117.325 120.713 117.437 120.574 117.588C120.438 117.736 120.369 117.937 120.369 118.193C120.369 118.543 120.499 118.807 120.757 118.986C121.018 119.162 121.349 119.25 121.75 119.25ZM124.239 111.273V112.125H120.25V111.273H124.239ZM130.745 117.614L130.728 116.369H130.932L133.796 113.455H135.04L131.989 116.54H131.904L130.745 117.614ZM129.807 120V111.273H130.813V120H129.807ZM133.966 120L131.409 116.761L132.125 116.062L135.245 120H133.966ZM138.724 120.136C138.133 120.136 137.615 119.996 137.169 119.714C136.725 119.433 136.379 119.04 136.129 118.534C135.882 118.028 135.758 117.437 135.758 116.761C135.758 116.08 135.882 115.484 136.129 114.976C136.379 114.467 136.725 114.072 137.169 113.791C137.615 113.51 138.133 113.369 138.724 113.369C139.315 113.369 139.832 113.51 140.275 113.791C140.721 114.072 141.068 114.467 141.315 114.976C141.565 115.484 141.69 116.08 141.69 116.761C141.69 117.437 141.565 118.028 141.315 118.534C141.068 119.04 140.721 119.433 140.275 119.714C139.832 119.996 139.315 120.136 138.724 120.136ZM138.724 119.233C139.173 119.233 139.542 119.118 139.832 118.888C140.122 118.658 140.336 118.355 140.475 117.98C140.615 117.605 140.684 117.199 140.684 116.761C140.684 116.324 140.615 115.916 140.475 115.538C140.336 115.161 140.122 114.855 139.832 114.622C139.542 114.389 139.173 114.273 138.724 114.273C138.275 114.273 137.906 114.389 137.616 114.622C137.326 114.855 137.112 115.161 136.973 115.538C136.833 115.916 136.764 116.324 136.764 116.761C136.764 117.199 136.833 117.605 136.973 117.98C137.112 118.355 137.326 118.658 137.616 118.888C137.906 119.118 138.275 119.233 138.724 119.233ZM144.231 116.062V120H143.225V113.455H144.197V114.477H144.282C144.435 114.145 144.668 113.878 144.981 113.676C145.293 113.472 145.697 113.369 146.191 113.369C146.634 113.369 147.022 113.46 147.354 113.642C147.687 113.821 147.945 114.094 148.13 114.46C148.315 114.824 148.407 115.284 148.407 115.841V120H147.401V115.909C147.401 115.395 147.268 114.994 147.001 114.707C146.734 114.418 146.367 114.273 145.901 114.273C145.58 114.273 145.293 114.342 145.04 114.482C144.79 114.621 144.593 114.824 144.448 115.091C144.303 115.358 144.231 115.682 144.231 116.062ZM153.091 113.455V114.307H149.699V113.455H153.091ZM150.688 111.886H151.694V118.125C151.694 118.409 151.735 118.622 151.817 118.764C151.902 118.903 152.01 118.997 152.141 119.045C152.275 119.091 152.415 119.114 152.563 119.114C152.674 119.114 152.765 119.108 152.836 119.097C152.907 119.082 152.963 119.071 153.006 119.062L153.211 119.966C153.142 119.991 153.047 120.017 152.925 120.043C152.803 120.071 152.648 120.085 152.461 120.085C152.176 120.085 151.898 120.024 151.625 119.902C151.355 119.78 151.131 119.594 150.952 119.344C150.776 119.094 150.688 118.778 150.688 118.398V111.886ZM159.123 114.92L158.22 115.176C158.163 115.026 158.079 114.879 157.968 114.737C157.86 114.592 157.713 114.473 157.525 114.379C157.338 114.286 157.098 114.239 156.805 114.239C156.404 114.239 156.071 114.331 155.804 114.516C155.539 114.697 155.407 114.929 155.407 115.21C155.407 115.46 155.498 115.658 155.68 115.803C155.862 115.947 156.146 116.068 156.532 116.165L157.504 116.403C158.089 116.545 158.525 116.763 158.812 117.055C159.099 117.345 159.243 117.719 159.243 118.176C159.243 118.551 159.135 118.886 158.919 119.182C158.706 119.477 158.407 119.71 158.024 119.881C157.64 120.051 157.194 120.136 156.686 120.136C156.018 120.136 155.466 119.991 155.028 119.702C154.591 119.412 154.314 118.989 154.197 118.432L155.152 118.193C155.243 118.545 155.414 118.81 155.667 118.986C155.923 119.162 156.257 119.25 156.669 119.25C157.137 119.25 157.51 119.151 157.785 118.952C158.064 118.75 158.203 118.509 158.203 118.227C158.203 118 158.123 117.81 157.964 117.656C157.805 117.5 157.561 117.384 157.231 117.307L156.14 117.051C155.541 116.909 155.1 116.689 154.819 116.391C154.541 116.089 154.402 115.713 154.402 115.261C154.402 114.892 154.505 114.565 154.713 114.281C154.923 113.997 155.208 113.774 155.569 113.612C155.933 113.45 156.345 113.369 156.805 113.369C157.453 113.369 157.961 113.511 158.331 113.795C158.703 114.08 158.967 114.455 159.123 114.92ZM166.978 113.455V114.307H163.586V113.455H166.978ZM164.575 111.886H165.58V118.125C165.58 118.409 165.621 118.622 165.704 118.764C165.789 118.903 165.897 118.997 166.028 119.045C166.161 119.091 166.302 119.114 166.45 119.114C166.56 119.114 166.651 119.108 166.722 119.097C166.793 119.082 166.85 119.071 166.893 119.062L167.097 119.966C167.029 119.991 166.934 120.017 166.812 120.043C166.69 120.071 166.535 120.085 166.347 120.085C166.063 120.085 165.785 120.024 165.512 119.902C165.242 119.78 165.018 119.594 164.839 119.344C164.663 119.094 164.575 118.778 164.575 118.398V111.886ZM168.491 120V113.455H169.496V120H168.491ZM169.002 112.364C168.806 112.364 168.637 112.297 168.495 112.163C168.356 112.03 168.286 111.869 168.286 111.682C168.286 111.494 168.356 111.334 168.495 111.2C168.637 111.067 168.806 111 169.002 111C169.198 111 169.366 111.067 169.505 111.2C169.647 111.334 169.718 111.494 169.718 111.682C169.718 111.869 169.647 112.03 169.505 112.163C169.366 112.297 169.198 112.364 169.002 112.364ZM174.083 120.136C173.452 120.136 172.908 119.997 172.451 119.719C171.996 119.438 171.645 119.045 171.398 118.543C171.154 118.037 171.032 117.449 171.032 116.778C171.032 116.108 171.154 115.517 171.398 115.006C171.645 114.491 171.989 114.091 172.429 113.804C172.873 113.514 173.39 113.369 173.98 113.369C174.321 113.369 174.658 113.426 174.99 113.54C175.323 113.653 175.625 113.838 175.898 114.094C176.171 114.347 176.388 114.682 176.55 115.099C176.712 115.517 176.793 116.031 176.793 116.642V117.068H171.748V116.199H175.77C175.77 115.83 175.696 115.5 175.549 115.21C175.404 114.92 175.196 114.692 174.926 114.524C174.659 114.357 174.344 114.273 173.98 114.273C173.58 114.273 173.233 114.372 172.941 114.571C172.651 114.767 172.428 115.023 172.272 115.338C172.115 115.653 172.037 115.991 172.037 116.352V116.932C172.037 117.426 172.123 117.845 172.293 118.189C172.466 118.53 172.706 118.79 173.013 118.969C173.32 119.145 173.676 119.233 174.083 119.233C174.347 119.233 174.586 119.196 174.799 119.122C175.015 119.045 175.201 118.932 175.357 118.781C175.513 118.628 175.634 118.437 175.719 118.21L176.691 118.483C176.588 118.812 176.417 119.102 176.175 119.352C175.934 119.599 175.635 119.793 175.28 119.932C174.925 120.068 174.526 120.136 174.083 120.136ZM179.26 117.614L179.243 116.369H179.448L182.311 113.455H183.556L180.505 116.54H180.419L179.26 117.614ZM178.323 120V111.273H179.328V120H178.323ZM182.482 120L179.925 116.761L180.641 116.062L183.76 120H182.482ZM16.9205 136V129.455H17.9261V136H16.9205ZM17.4318 128.364C17.2358 128.364 17.0668 128.297 16.9247 128.163C16.7855 128.03 16.7159 127.869 16.7159 127.682C16.7159 127.494 16.7855 127.334 16.9247 127.2C17.0668 127.067 17.2358 127 17.4318 127C17.6278 127 17.7955 127.067 17.9347 127.2C18.0767 127.334 18.1477 127.494 18.1477 127.682C18.1477 127.869 18.0767 128.03 17.9347 128.163C17.7955 128.297 17.6278 128.364 17.4318 128.364ZM19.5806 136V135.233L23.2965 130.46V130.392H19.6999V129.455H24.592V130.256L20.9783 134.994V135.062H24.7113V136H19.5806ZM26.2603 136V129.455H27.2319V130.477H27.3171C27.4535 130.128 27.6737 129.857 27.9776 129.663C28.2816 129.467 28.6467 129.369 29.0728 129.369C29.5046 129.369 29.864 129.467 30.1509 129.663C30.4407 129.857 30.6665 130.128 30.8285 130.477H30.8967C31.0643 130.139 31.3157 129.871 31.6509 129.672C31.9862 129.47 32.3881 129.369 32.8569 129.369C33.4421 129.369 33.9208 129.553 34.293 129.919C34.6651 130.283 34.8512 130.849 34.8512 131.619V136H33.8455V131.619C33.8455 131.136 33.7134 130.791 33.4492 130.584C33.185 130.376 32.8739 130.273 32.516 130.273C32.0558 130.273 31.6992 130.412 31.4464 130.69C31.1935 130.966 31.0671 131.315 31.0671 131.739V136H30.0444V131.517C30.0444 131.145 29.9237 130.845 29.6822 130.618C29.4407 130.388 29.1296 130.273 28.7489 130.273C28.4876 130.273 28.2433 130.342 28.016 130.482C27.7915 130.621 27.6097 130.814 27.4705 131.061C27.3342 131.305 27.266 131.588 27.266 131.909V136H26.2603ZM38.6161 136.153C38.2013 136.153 37.8249 136.075 37.4869 135.919C37.1488 135.76 36.8803 135.531 36.6815 135.233C36.4826 134.932 36.3832 134.568 36.3832 134.142C36.3832 133.767 36.457 133.463 36.6048 133.23C36.7525 132.994 36.9499 132.81 37.1971 132.676C37.4442 132.543 37.717 132.443 38.0153 132.378C38.3164 132.31 38.619 132.256 38.9229 132.216C39.3207 132.165 39.6431 132.126 39.8903 132.101C40.1403 132.072 40.3221 132.026 40.4357 131.96C40.5522 131.895 40.6104 131.781 40.6104 131.619V131.585C40.6104 131.165 40.4954 130.838 40.2653 130.605C40.038 130.372 39.6928 130.256 39.2298 130.256C38.7496 130.256 38.3732 130.361 38.1005 130.571C37.8278 130.781 37.636 131.006 37.5252 131.244L36.5707 130.903C36.7411 130.506 36.9684 130.196 37.2525 129.974C37.5394 129.75 37.8519 129.594 38.19 129.506C38.5309 129.415 38.8661 129.369 39.1957 129.369C39.4059 129.369 39.6474 129.395 39.9201 129.446C40.1957 129.494 40.4613 129.595 40.717 129.749C40.9755 129.902 41.19 130.134 41.3604 130.443C41.5309 130.753 41.6161 131.168 41.6161 131.688V136H40.6104V135.114H40.5593C40.4911 135.256 40.3775 135.408 40.2184 135.57C40.0593 135.732 39.8477 135.869 39.5835 135.983C39.3192 136.097 38.9968 136.153 38.6161 136.153ZM38.7695 135.25C39.1673 135.25 39.5025 135.172 39.7752 135.016C40.0508 134.859 40.2582 134.658 40.3974 134.411C40.5394 134.163 40.6104 133.903 40.6104 133.631V132.71C40.5678 132.761 40.4741 132.808 40.3292 132.851C40.1871 132.891 40.0224 132.926 39.8349 132.957C39.6502 132.986 39.4698 133.011 39.2937 133.034C39.1204 133.054 38.9798 133.071 38.8718 133.085C38.6104 133.119 38.3661 133.175 38.1388 133.251C37.9144 133.325 37.7326 133.437 37.5934 133.588C37.457 133.736 37.3888 133.937 37.3888 134.193C37.3888 134.543 37.5181 134.807 37.7766 134.986C38.038 135.162 38.369 135.25 38.7695 135.25ZM44.4574 132.062V136H43.4517V129.455H44.4233V130.477H44.5085C44.6619 130.145 44.8949 129.878 45.2074 129.676C45.5199 129.472 45.9233 129.369 46.4176 129.369C46.8608 129.369 47.2486 129.46 47.581 129.642C47.9134 129.821 48.1719 130.094 48.3565 130.46C48.5412 130.824 48.6335 131.284 48.6335 131.841V136H47.6278V131.909C47.6278 131.395 47.4943 130.994 47.2273 130.707C46.9602 130.418 46.5938 130.273 46.1278 130.273C45.8068 130.273 45.5199 130.342 45.267 130.482C45.017 130.621 44.8196 130.824 44.6747 131.091C44.5298 131.358 44.4574 131.682 44.4574 132.062ZM53.3178 129.455V130.307H49.9258V129.455H53.3178ZM50.9144 127.886H51.9201V134.125C51.9201 134.409 51.9613 134.622 52.0437 134.764C52.1289 134.903 52.2369 134.997 52.3675 135.045C52.5011 135.091 52.6417 135.114 52.7894 135.114C52.9002 135.114 52.9911 135.108 53.0621 135.097C53.1332 135.082 53.19 135.071 53.2326 135.062L53.4371 135.966C53.369 135.991 53.2738 136.017 53.1516 136.043C53.0295 136.071 52.8746 136.085 52.6871 136.085C52.4031 136.085 52.1246 136.024 51.8519 135.902C51.582 135.78 51.3576 135.594 51.1786 135.344C51.0025 135.094 50.9144 134.778 50.9144 134.398V127.886ZM57.4194 136.136C56.8285 136.136 56.31 135.996 55.864 135.714C55.4208 135.433 55.0742 135.04 54.8242 134.534C54.5771 134.028 54.4535 133.437 54.4535 132.761C54.4535 132.08 54.5771 131.484 54.8242 130.976C55.0742 130.467 55.4208 130.072 55.864 129.791C56.31 129.51 56.8285 129.369 57.4194 129.369C58.0103 129.369 58.5273 129.51 58.9705 129.791C59.4165 130.072 59.7631 130.467 60.0103 130.976C60.2603 131.484 60.3853 132.08 60.3853 132.761C60.3853 133.437 60.2603 134.028 60.0103 134.534C59.7631 135.04 59.4165 135.433 58.9705 135.714C58.5273 135.996 58.0103 136.136 57.4194 136.136ZM57.4194 135.233C57.8683 135.233 58.2376 135.118 58.5273 134.888C58.8171 134.658 59.0316 134.355 59.1708 133.98C59.31 133.605 59.3796 133.199 59.3796 132.761C59.3796 132.324 59.31 131.916 59.1708 131.538C59.0316 131.161 58.8171 130.855 58.5273 130.622C58.2376 130.389 57.8683 130.273 57.4194 130.273C56.9705 130.273 56.6012 130.389 56.3114 130.622C56.0217 130.855 55.8072 131.161 55.668 131.538C55.5288 131.916 55.4592 132.324 55.4592 132.761C55.4592 133.199 55.5288 133.605 55.668 133.98C55.8072 134.355 56.0217 134.658 56.3114 134.888C56.6012 135.118 56.9705 135.233 57.4194 135.233ZM64.767 129.455V130.307H61.375V129.455H64.767ZM62.3636 127.886H63.3693V134.125C63.3693 134.409 63.4105 134.622 63.4929 134.764C63.5781 134.903 63.6861 134.997 63.8168 135.045C63.9503 135.091 64.0909 135.114 64.2386 135.114C64.3494 135.114 64.4403 135.108 64.5114 135.097C64.5824 135.082 64.6392 135.071 64.6818 135.062L64.8864 135.966C64.8182 135.991 64.723 136.017 64.6009 136.043C64.4787 136.071 64.3239 136.085 64.1364 136.085C63.8523 136.085 63.5739 136.024 63.3011 135.902C63.0313 135.78 62.8068 135.594 62.6278 135.344C62.4517 135.094 62.3636 134.778 62.3636 134.398V127.886ZM70.799 130.92L69.8956 131.176C69.8388 131.026 69.755 130.879 69.6442 130.737C69.5362 130.592 69.3885 130.473 69.201 130.379C69.0135 130.286 68.7734 130.239 68.4808 130.239C68.0803 130.239 67.7464 130.331 67.4794 130.516C67.2152 130.697 67.0831 130.929 67.0831 131.21C67.0831 131.46 67.174 131.658 67.3558 131.803C67.5376 131.947 67.8217 132.068 68.2081 132.165L69.1797 132.403C69.7649 132.545 70.201 132.763 70.4879 133.055C70.7749 133.345 70.9183 133.719 70.9183 134.176C70.9183 134.551 70.8104 134.886 70.5945 135.182C70.3814 135.477 70.0831 135.71 69.6996 135.881C69.3161 136.051 68.87 136.136 68.3615 136.136C67.6939 136.136 67.1413 135.991 66.7038 135.702C66.2663 135.412 65.9893 134.989 65.8729 134.432L66.8274 134.193C66.9183 134.545 67.0902 134.81 67.343 134.986C67.5987 135.162 67.9325 135.25 68.3445 135.25C68.8132 135.25 69.1854 135.151 69.4609 134.952C69.7393 134.75 69.8786 134.509 69.8786 134.227C69.8786 134 69.799 133.81 69.6399 133.656C69.4808 133.5 69.2365 133.384 68.907 133.307L67.8161 133.051C67.2166 132.909 66.7763 132.689 66.495 132.391C66.2166 132.089 66.0774 131.713 66.0774 131.261C66.0774 130.892 66.1811 130.565 66.3885 130.281C66.5987 129.997 66.8842 129.774 67.245 129.612C67.6087 129.45 68.0206 129.369 68.4808 129.369C69.1286 129.369 69.6371 129.511 70.0064 129.795C70.3786 130.08 70.6428 130.455 70.799 130.92ZM77.7333 136.153C77.3185 136.153 76.9421 136.075 76.604 135.919C76.266 135.76 75.9975 135.531 75.7987 135.233C75.5998 134.932 75.5004 134.568 75.5004 134.142C75.5004 133.767 75.5742 133.463 75.7219 133.23C75.8697 132.994 76.0671 132.81 76.3143 132.676C76.5614 132.543 76.8342 132.443 77.1325 132.378C77.4336 132.31 77.7362 132.256 78.0401 132.216C78.4379 132.165 78.7603 132.126 79.0075 132.101C79.2575 132.072 79.4393 132.026 79.5529 131.96C79.6694 131.895 79.7276 131.781 79.7276 131.619V131.585C79.7276 131.165 79.6126 130.838 79.3825 130.605C79.1552 130.372 78.81 130.256 78.3469 130.256C77.8668 130.256 77.4904 130.361 77.2177 130.571C76.945 130.781 76.7532 131.006 76.6424 131.244L75.6879 130.903C75.8583 130.506 76.0856 130.196 76.3697 129.974C76.6566 129.75 76.9691 129.594 77.3072 129.506C77.6481 129.415 77.9833 129.369 78.3129 129.369C78.5231 129.369 78.7646 129.395 79.0373 129.446C79.3129 129.494 79.5785 129.595 79.8342 129.749C80.0927 129.902 80.3072 130.134 80.4776 130.443C80.6481 130.753 80.7333 131.168 80.7333 131.688V136H79.7276V135.114H79.6765C79.6083 135.256 79.4947 135.408 79.3356 135.57C79.1765 135.732 78.9648 135.869 78.7006 135.983C78.4364 136.097 78.114 136.153 77.7333 136.153ZM77.8867 135.25C78.2844 135.25 78.6197 135.172 78.8924 135.016C79.168 134.859 79.3754 134.658 79.5146 134.411C79.6566 134.163 79.7276 133.903 79.7276 133.631V132.71C79.685 132.761 79.5913 132.808 79.4464 132.851C79.3043 132.891 79.1396 132.926 78.9521 132.957C78.7674 132.986 78.587 133.011 78.4109 133.034C78.2376 133.054 78.0969 133.071 77.989 133.085C77.7276 133.119 77.4833 133.175 77.256 133.251C77.0316 133.325 76.8498 133.437 76.7106 133.588C76.5742 133.736 76.506 133.937 76.506 134.193C76.506 134.543 76.6353 134.807 76.8938 134.986C77.1552 135.162 77.4862 135.25 77.8867 135.25ZM82.5689 136V129.455H83.5405V130.443H83.6087C83.728 130.119 83.9439 129.857 84.2564 129.655C84.5689 129.453 84.9212 129.352 85.3132 129.352C85.3871 129.352 85.4794 129.354 85.5902 129.357C85.701 129.359 85.7848 129.364 85.8416 129.369V130.392C85.8075 130.384 85.7294 130.371 85.6072 130.354C85.4879 130.334 85.3615 130.324 85.228 130.324C84.9098 130.324 84.6257 130.391 84.3757 130.524C84.1286 130.655 83.9325 130.837 83.7876 131.07C83.6456 131.3 83.5746 131.562 83.5746 131.858V136H82.5689ZM87.0337 136V129.455H88.0394V136H87.0337ZM89.5394 127.273V128.125H85.5508V127.273H89.5394ZM93.2564 138.455V129.455H94.228V130.494H94.3473C94.4212 130.381 94.5234 130.236 94.6541 130.06C94.7876 129.881 94.978 129.722 95.2251 129.582C95.4751 129.44 95.8132 129.369 96.2393 129.369C96.7905 129.369 97.2763 129.507 97.6967 129.783C98.1172 130.058 98.4453 130.449 98.6811 130.955C98.9169 131.46 99.0348 132.057 99.0348 132.744C99.0348 133.438 98.9169 134.038 98.6811 134.547C98.4453 135.053 98.1186 135.445 97.701 135.723C97.2834 135.999 96.8018 136.136 96.2564 136.136C95.8359 136.136 95.4993 136.067 95.2464 135.928C94.9936 135.786 94.799 135.625 94.6626 135.446C94.5263 135.264 94.4212 135.114 94.3473 134.994H94.2621V138.455H93.2564ZM94.245 132.727C94.245 133.222 94.3175 133.658 94.4624 134.036C94.6072 134.411 94.8189 134.705 95.0973 134.918C95.3757 135.128 95.7166 135.233 96.12 135.233C96.5405 135.233 96.8913 135.122 97.1726 134.901C97.4567 134.676 97.6697 134.375 97.8118 133.997C97.9567 133.616 98.0291 133.193 98.0291 132.727C98.0291 132.267 97.9581 131.852 97.8161 131.483C97.6768 131.111 97.4652 130.817 97.1811 130.601C96.8999 130.382 96.5462 130.273 96.12 130.273C95.7109 130.273 95.3672 130.376 95.0888 130.584C94.8104 130.788 94.6001 131.075 94.4581 131.445C94.3161 131.811 94.245 132.239 94.245 132.727ZM103.313 136.136C102.683 136.136 102.138 135.997 101.681 135.719C101.227 135.438 100.876 135.045 100.629 134.543C100.384 134.037 100.262 133.449 100.262 132.778C100.262 132.108 100.384 131.517 100.629 131.006C100.876 130.491 101.219 130.091 101.66 129.804C102.103 129.514 102.62 129.369 103.211 129.369C103.552 129.369 103.888 129.426 104.221 129.54C104.553 129.653 104.856 129.838 105.129 130.094C105.401 130.347 105.619 130.682 105.781 131.099C105.942 131.517 106.023 132.031 106.023 132.642V133.068H100.978V132.199H105.001C105.001 131.83 104.927 131.5 104.779 131.21C104.634 130.92 104.427 130.692 104.157 130.524C103.89 130.357 103.575 130.273 103.211 130.273C102.81 130.273 102.464 130.372 102.171 130.571C101.881 130.767 101.658 131.023 101.502 131.338C101.346 131.653 101.268 131.991 101.268 132.352V132.932C101.268 133.426 101.353 133.845 101.523 134.189C101.697 134.53 101.937 134.79 102.244 134.969C102.55 135.145 102.907 135.233 103.313 135.233C103.577 135.233 103.816 135.196 104.029 135.122C104.245 135.045 104.431 134.932 104.587 134.781C104.744 134.628 104.864 134.437 104.95 134.21L105.921 134.483C105.819 134.812 105.647 135.102 105.406 135.352C105.164 135.599 104.866 135.793 104.511 135.932C104.156 136.068 103.756 136.136 103.313 136.136ZM107.553 136V129.455H108.525V130.443H108.593C108.712 130.119 108.928 129.857 109.241 129.655C109.553 129.453 109.906 129.352 110.298 129.352C110.371 129.352 110.464 129.354 110.575 129.357C110.685 129.359 110.769 129.364 110.826 129.369V130.392C110.792 130.384 110.714 130.371 110.592 130.354C110.472 130.334 110.346 130.324 110.212 130.324C109.894 130.324 109.61 130.391 109.36 130.524C109.113 130.655 108.917 130.837 108.772 131.07C108.63 131.3 108.559 131.562 108.559 131.858V136H107.553ZM116.654 130.92L115.751 131.176C115.694 131.026 115.61 130.879 115.5 130.737C115.392 130.592 115.244 130.473 115.056 130.379C114.869 130.286 114.629 130.239 114.336 130.239C113.936 130.239 113.602 130.331 113.335 130.516C113.071 130.697 112.939 130.929 112.939 131.21C112.939 131.46 113.029 131.658 113.211 131.803C113.393 131.947 113.677 132.068 114.064 132.165L115.035 132.403C115.62 132.545 116.056 132.763 116.343 133.055C116.63 133.345 116.774 133.719 116.774 134.176C116.774 134.551 116.666 134.886 116.45 135.182C116.237 135.477 115.939 135.71 115.555 135.881C115.172 136.051 114.725 136.136 114.217 136.136C113.549 136.136 112.997 135.991 112.559 135.702C112.122 135.412 111.845 134.989 111.728 134.432L112.683 134.193C112.774 134.545 112.946 134.81 113.199 134.986C113.454 135.162 113.788 135.25 114.2 135.25C114.669 135.25 115.041 135.151 115.316 134.952C115.595 134.75 115.734 134.509 115.734 134.227C115.734 134 115.654 133.81 115.495 133.656C115.336 133.5 115.092 133.384 114.762 133.307L113.672 133.051C113.072 132.909 112.632 132.689 112.35 132.391C112.072 132.089 111.933 131.713 111.933 131.261C111.933 130.892 112.037 130.565 112.244 130.281C112.454 129.997 112.74 129.774 113.1 129.612C113.464 129.45 113.876 129.369 114.336 129.369C114.984 129.369 115.493 129.511 115.862 129.795C116.234 130.08 116.498 130.455 116.654 130.92ZM120.947 136.136C120.356 136.136 119.837 135.996 119.391 135.714C118.948 135.433 118.602 135.04 118.352 134.534C118.104 134.028 117.981 133.437 117.981 132.761C117.981 132.08 118.104 131.484 118.352 130.976C118.602 130.467 118.948 130.072 119.391 129.791C119.837 129.51 120.356 129.369 120.947 129.369C121.538 129.369 122.055 129.51 122.498 129.791C122.944 130.072 123.29 130.467 123.538 130.976C123.788 131.484 123.913 132.08 123.913 132.761C123.913 133.437 123.788 134.028 123.538 134.534C123.29 135.04 122.944 135.433 122.498 135.714C122.055 135.996 121.538 136.136 120.947 136.136ZM120.947 135.233C121.396 135.233 121.765 135.118 122.055 134.888C122.344 134.658 122.559 134.355 122.698 133.98C122.837 133.605 122.907 133.199 122.907 132.761C122.907 132.324 122.837 131.916 122.698 131.538C122.559 131.161 122.344 130.855 122.055 130.622C121.765 130.389 121.396 130.273 120.947 130.273C120.498 130.273 120.129 130.389 119.839 130.622C119.549 130.855 119.335 131.161 119.195 131.538C119.056 131.916 118.987 132.324 118.987 132.761C118.987 133.199 119.056 133.605 119.195 133.98C119.335 134.355 119.549 134.658 119.839 134.888C120.129 135.118 120.498 135.233 120.947 135.233ZM126.453 132.062V136H125.448V129.455H126.419V130.477H126.505C126.658 130.145 126.891 129.878 127.203 129.676C127.516 129.472 127.919 129.369 128.414 129.369C128.857 129.369 129.245 129.46 129.577 129.642C129.909 129.821 130.168 130.094 130.353 130.46C130.537 130.824 130.63 131.284 130.63 131.841V136H129.624V131.909C129.624 131.395 129.49 130.994 129.223 130.707C128.956 130.418 128.59 130.273 128.124 130.273C127.803 130.273 127.516 130.342 127.263 130.482C127.013 130.621 126.816 130.824 126.671 131.091C126.526 131.358 126.453 131.682 126.453 132.062ZM132.467 136V129.455H133.473V136H132.467ZM134.973 127.273V128.125H130.984V127.273H134.973ZM137.957 138.591C137.471 138.591 137.054 138.528 136.704 138.403C136.355 138.281 136.064 138.119 135.831 137.918C135.6 137.719 135.417 137.506 135.281 137.278L136.082 136.716C136.173 136.835 136.288 136.972 136.427 137.125C136.566 137.281 136.757 137.416 136.998 137.53C137.243 137.646 137.562 137.705 137.957 137.705C138.485 137.705 138.922 137.577 139.265 137.321C139.609 137.065 139.781 136.665 139.781 136.119V134.79H139.696C139.622 134.909 139.517 135.057 139.38 135.233C139.247 135.406 139.054 135.561 138.801 135.697C138.551 135.831 138.213 135.898 137.787 135.898C137.258 135.898 136.784 135.773 136.363 135.523C135.946 135.273 135.615 134.909 135.37 134.432C135.129 133.955 135.008 133.375 135.008 132.693C135.008 132.023 135.126 131.439 135.362 130.942C135.598 130.442 135.926 130.055 136.346 129.783C136.767 129.507 137.252 129.369 137.804 129.369C138.23 129.369 138.568 129.44 138.818 129.582C139.071 129.722 139.264 129.881 139.397 130.06C139.534 130.236 139.639 130.381 139.713 130.494H139.815V129.455H140.787V136.188C140.787 136.75 140.659 137.207 140.403 137.56C140.15 137.915 139.809 138.175 139.38 138.339C138.954 138.507 138.48 138.591 137.957 138.591ZM137.923 134.994C138.326 134.994 138.667 134.902 138.946 134.717C139.224 134.533 139.436 134.267 139.581 133.92C139.725 133.574 139.798 133.159 139.798 132.676C139.798 132.205 139.727 131.788 139.585 131.428C139.443 131.067 139.233 130.784 138.954 130.58C138.676 130.375 138.332 130.273 137.923 130.273C137.497 130.273 137.142 130.381 136.858 130.597C136.576 130.812 136.365 131.102 136.223 131.466C136.083 131.83 136.014 132.233 136.014 132.676C136.014 133.131 136.085 133.533 136.227 133.882C136.372 134.229 136.585 134.501 136.866 134.7C137.15 134.896 137.502 134.994 137.923 134.994ZM142.627 136V129.455H143.633V136H142.627ZM143.139 128.364C142.943 128.364 142.774 128.297 142.632 128.163C142.493 128.03 142.423 127.869 142.423 127.682C142.423 127.494 142.493 127.334 142.632 127.2C142.774 127.067 142.943 127 143.139 127C143.335 127 143.502 127.067 143.642 127.2C143.784 127.334 143.855 127.494 143.855 127.682C143.855 127.869 143.784 128.03 143.642 128.163C143.502 128.297 143.335 128.364 143.139 128.364ZM148.219 136.136C147.589 136.136 147.045 135.997 146.587 135.719C146.133 135.438 145.782 135.045 145.535 134.543C145.29 134.037 145.168 133.449 145.168 132.778C145.168 132.108 145.29 131.517 145.535 131.006C145.782 130.491 146.126 130.091 146.566 129.804C147.009 129.514 147.526 129.369 148.117 129.369C148.458 129.369 148.795 129.426 149.127 129.54C149.46 129.653 149.762 129.838 150.035 130.094C150.308 130.347 150.525 130.682 150.687 131.099C150.849 131.517 150.93 132.031 150.93 132.642V133.068H145.884V132.199H149.907C149.907 131.83 149.833 131.5 149.685 131.21C149.54 130.92 149.333 130.692 149.063 130.524C148.796 130.357 148.481 130.273 148.117 130.273C147.717 130.273 147.37 130.372 147.077 130.571C146.788 130.767 146.565 131.023 146.408 131.338C146.252 131.653 146.174 131.991 146.174 132.352V132.932C146.174 133.426 146.259 133.845 146.43 134.189C146.603 134.53 146.843 134.79 147.15 134.969C147.457 135.145 147.813 135.233 148.219 135.233C148.484 135.233 148.722 135.196 148.935 135.122C149.151 135.045 149.337 134.932 149.494 134.781C149.65 134.628 149.771 134.437 149.856 134.21L150.827 134.483C150.725 134.812 150.553 135.102 150.312 135.352C150.07 135.599 149.772 135.793 149.417 135.932C149.062 136.068 148.663 136.136 148.219 136.136ZM152.46 136V129.455H153.431V130.477H153.516C153.653 130.128 153.873 129.857 154.177 129.663C154.481 129.467 154.846 129.369 155.272 129.369C155.704 129.369 156.063 129.467 156.35 129.663C156.64 129.857 156.866 130.128 157.028 130.477H157.096C157.263 130.139 157.515 129.871 157.85 129.672C158.185 129.47 158.587 129.369 159.056 129.369C159.641 129.369 160.12 129.553 160.492 129.919C160.864 130.283 161.05 130.849 161.05 131.619V136H160.045V131.619C160.045 131.136 159.913 130.791 159.648 130.584C159.384 130.376 159.073 130.273 158.715 130.273C158.255 130.273 157.898 130.412 157.646 130.69C157.393 130.966 157.266 131.315 157.266 131.739V136H156.244V131.517C156.244 131.145 156.123 130.845 155.881 130.618C155.64 130.388 155.329 130.273 154.948 130.273C154.687 130.273 154.442 130.342 154.215 130.482C153.991 130.621 153.809 130.814 153.67 131.061C153.533 131.305 153.465 131.588 153.465 131.909V136H152.46ZM19.767 145.455V146.307H16.375V145.455H19.767ZM17.3636 143.886H18.3693V150.125C18.3693 150.409 18.4105 150.622 18.4929 150.764C18.5781 150.903 18.6861 150.997 18.8168 151.045C18.9503 151.091 19.0909 151.114 19.2386 151.114C19.3494 151.114 19.4403 151.108 19.5114 151.097C19.5824 151.082 19.6392 151.071 19.6818 151.062L19.8864 151.966C19.8182 151.991 19.723 152.017 19.6009 152.043C19.4787 152.071 19.3239 152.085 19.1364 152.085C18.8523 152.085 18.5739 152.024 18.3011 151.902C18.0313 151.78 17.8068 151.594 17.6278 151.344C17.4517 151.094 17.3636 150.778 17.3636 150.398V143.886ZM23.9538 152.136C23.3232 152.136 22.7791 151.997 22.3217 151.719C21.8672 151.438 21.5163 151.045 21.2692 150.543C21.0249 150.037 20.9027 149.449 20.9027 148.778C20.9027 148.108 21.0249 147.517 21.2692 147.006C21.5163 146.491 21.8601 146.091 22.3004 145.804C22.7436 145.514 23.2607 145.369 23.8516 145.369C24.1925 145.369 24.5291 145.426 24.8615 145.54C25.1939 145.653 25.4964 145.838 25.7692 146.094C26.0419 146.347 26.2592 146.682 26.4212 147.099C26.5831 147.517 26.6641 148.031 26.6641 148.642V149.068H21.6186V148.199H25.6413C25.6413 147.83 25.5675 147.5 25.4197 147.21C25.2749 146.92 25.0675 146.692 24.7976 146.524C24.5305 146.357 24.2152 146.273 23.8516 146.273C23.451 146.273 23.1044 146.372 22.8118 146.571C22.522 146.767 22.299 147.023 22.1428 147.338C21.9865 147.653 21.9084 147.991 21.9084 148.352V148.932C21.9084 149.426 21.9936 149.845 22.1641 150.189C22.3374 150.53 22.5774 150.79 22.8842 150.969C23.1911 151.145 23.5476 151.233 23.9538 151.233C24.218 151.233 24.4567 151.196 24.6697 151.122C24.8857 151.045 25.0717 150.932 25.228 150.781C25.3842 150.628 25.505 150.437 25.5902 150.21L26.5618 150.483C26.4595 150.812 26.2876 151.102 26.0462 151.352C25.8047 151.599 25.5064 151.793 25.1513 151.932C24.7962 152.068 24.397 152.136 23.9538 152.136ZM25.7947 143.273V144.125H21.8061V143.273H25.7947ZM28.1939 152V145.455H29.1655V146.443H29.2337C29.353 146.119 29.5689 145.857 29.8814 145.655C30.1939 145.453 30.5462 145.352 30.9382 145.352C31.0121 145.352 31.1044 145.354 31.2152 145.357C31.326 145.359 31.4098 145.364 31.4666 145.369V146.392C31.4325 146.384 31.3544 146.371 31.2322 146.354C31.1129 146.334 30.9865 146.324 30.853 146.324C30.5348 146.324 30.2507 146.391 30.0007 146.524C29.7536 146.655 29.5575 146.837 29.4126 147.07C29.2706 147.3 29.1996 147.562 29.1996 147.858V152H28.1939ZM32.6587 152V145.455H33.6644V152H32.6587ZM33.1701 144.364C32.9741 144.364 32.805 144.297 32.663 144.163C32.5238 144.03 32.4542 143.869 32.4542 143.682C32.4542 143.494 32.5238 143.334 32.663 143.2C32.805 143.067 32.9741 143 33.1701 143C33.3661 143 33.5337 143.067 33.6729 143.2C33.815 143.334 33.886 143.494 33.886 143.682C33.886 143.869 33.815 144.03 33.6729 144.163C33.5337 144.297 33.3661 144.364 33.1701 144.364ZM36.5121 148.062V152H35.5064V145.455H36.478V146.477H36.5632C36.7166 146.145 36.9496 145.878 37.2621 145.676C37.5746 145.472 37.978 145.369 38.4723 145.369C38.9155 145.369 39.3033 145.46 39.6357 145.642C39.968 145.821 40.2266 146.094 40.4112 146.46C40.5959 146.824 40.6882 147.284 40.6882 147.841V152H39.6825V147.909C39.6825 147.395 39.549 146.994 39.282 146.707C39.0149 146.418 38.6484 146.273 38.1825 146.273C37.8615 146.273 37.5746 146.342 37.3217 146.482C37.0717 146.621 36.8743 146.824 36.7294 147.091C36.5845 147.358 36.5121 147.682 36.5121 148.062ZM37.1001 154.898L37.5774 152.69H38.6087L37.8842 154.898H37.1001ZM42.5259 152V145.455H43.5316V152H42.5259ZM43.0373 144.364C42.8413 144.364 42.6722 144.297 42.5302 144.163C42.391 144.03 42.3214 143.869 42.3214 143.682C42.3214 143.494 42.391 143.334 42.5302 143.2C42.6722 143.067 42.8413 143 43.0373 143C43.2333 143 43.4009 143.067 43.5401 143.2C43.6822 143.334 43.7532 143.494 43.7532 143.682C43.7532 143.869 43.6822 144.03 43.5401 144.163C43.4009 144.297 43.2333 144.364 43.0373 144.364ZM48.1179 152.136C47.4872 152.136 46.9432 151.997 46.4858 151.719C46.0312 151.438 45.6804 151.045 45.4332 150.543C45.1889 150.037 45.0668 149.449 45.0668 148.778C45.0668 148.108 45.1889 147.517 45.4332 147.006C45.6804 146.491 46.0241 146.091 46.4645 145.804C46.9077 145.514 47.4247 145.369 48.0156 145.369C48.3565 145.369 48.6932 145.426 49.0256 145.54C49.358 145.653 49.6605 145.838 49.9332 146.094C50.206 146.347 50.4233 146.682 50.5852 147.099C50.7472 147.517 50.8281 148.031 50.8281 148.642V149.068H45.7827V148.199H49.8054C49.8054 147.83 49.7315 147.5 49.5838 147.21C49.4389 146.92 49.2315 146.692 48.9616 146.524C48.6946 146.357 48.3793 146.273 48.0156 146.273C47.6151 146.273 47.2685 146.372 46.9759 146.571C46.6861 146.767 46.4631 147.023 46.3068 147.338C46.1506 147.653 46.0724 147.991 46.0724 148.352V148.932C46.0724 149.426 46.1577 149.845 46.3281 150.189C46.5014 150.53 46.7415 150.79 47.0483 150.969C47.3551 151.145 47.7116 151.233 48.1179 151.233C48.3821 151.233 48.6207 151.196 48.8338 151.122C49.0497 151.045 49.2358 150.932 49.392 150.781C49.5483 150.628 49.669 150.437 49.7543 150.21L50.7259 150.483C50.6236 150.812 50.4517 151.102 50.2102 151.352C49.9688 151.599 49.6705 151.793 49.3153 151.932C48.9602 152.068 48.5611 152.136 48.1179 152.136ZM52.358 152V145.455H53.3295V146.477H53.4148C53.5511 146.128 53.7713 145.857 54.0753 145.663C54.3793 145.467 54.7443 145.369 55.1705 145.369C55.6023 145.369 55.9616 145.467 56.2486 145.663C56.5384 145.857 56.7642 146.128 56.9261 146.477H56.9943C57.1619 146.139 57.4134 145.871 57.7486 145.672C58.0838 145.47 58.4858 145.369 58.9545 145.369C59.5398 145.369 60.0185 145.553 60.3906 145.919C60.7628 146.283 60.9489 146.849 60.9489 147.619V152H59.9432V147.619C59.9432 147.136 59.8111 146.791 59.5469 146.584C59.2827 146.376 58.9716 146.273 58.6136 146.273C58.1534 146.273 57.7969 146.412 57.544 146.69C57.2912 146.966 57.1648 147.315 57.1648 147.739V152H56.142V147.517C56.142 147.145 56.0213 146.845 55.7798 146.618C55.5384 146.388 55.2273 146.273 54.8466 146.273C54.5852 146.273 54.3409 146.342 54.1136 146.482C53.8892 146.621 53.7074 146.814 53.5682 147.061C53.4318 147.305 53.3636 147.588 53.3636 147.909V152H52.358Z" fill="#1A1D27"/>
</svg>
