<svg width="200" height="140" viewBox="0 0 200 140" fill="none" xmlns="http://www.w3.org/2000/svg">
<rect width="200" height="140" rx="16" fill="white" fill-opacity="0.7"/>
<rect x="16" y="16" width="32" height="32" rx="8" fill="#98999D"/>
<path d="M34.2501 33.5V36.2C34.2501 36.8301 34.2501 37.1451 34.1275 37.3857C34.0197 37.5974 33.8476 37.7695 33.6359 37.8774C33.3952 38 33.0802 38 32.4501 38H28.5501C27.9201 38 27.605 38 27.3644 37.8774C27.1527 37.7695 26.9806 37.5974 26.8728 37.3857C26.7501 37.1451 26.7501 36.8301 26.7501 36.2V30.5M37.2501 30.5V38M26.7501 35H34.2501M27.1685 26.6633L25.6843 29.6317C25.5405 29.9192 25.4687 30.063 25.4859 30.1798C25.501 30.2819 25.5574 30.3732 25.642 30.4323C25.7388 30.5 25.8995 30.5 26.221 30.5H37.7793C38.1008 30.5 38.2615 30.5 38.3583 30.4323C38.4428 30.3732 38.4993 30.2819 38.5143 30.1798C38.5316 30.063 38.4597 29.9192 38.316 29.6317L36.8318 26.6633C36.7114 26.4226 36.6512 26.3021 36.5614 26.2142C36.482 26.1364 36.3863 26.0772 36.2812 26.041C36.1623 26 36.0277 26 35.7585 26H28.2418C27.9726 26 27.8379 26 27.7191 26.041C27.614 26.0772 27.5183 26.1364 27.4389 26.2142C27.3491 26.3021 27.2889 26.4225 27.1685 26.6633Z" stroke="#1A1D27" stroke-width="1.5" stroke-linecap="round" stroke-linejoin="round"/>
<path d="M17.1378 78V64.9091H22.3026C23.2955 64.9091 24.1413 65.0987 24.8402 65.478C25.5391 65.853 26.0717 66.375 26.4382 67.044C26.8089 67.7088 26.9943 68.4759 26.9943 69.3452C26.9943 70.2145 26.8068 70.9815 26.4318 71.6463C26.0568 72.3111 25.5135 72.8288 24.8018 73.1996C24.0945 73.5703 23.2379 73.7557 22.2322 73.7557H18.9403V71.5376H21.7848C22.3175 71.5376 22.7564 71.446 23.1016 71.2628C23.451 71.0753 23.7109 70.8175 23.8814 70.4893C24.0561 70.157 24.1435 69.7756 24.1435 69.3452C24.1435 68.9105 24.0561 68.5312 23.8814 68.2074C23.7109 67.8793 23.451 67.6257 23.1016 67.4467C22.7521 67.2635 22.3089 67.1719 21.772 67.1719H19.9055V78H17.1378ZM28.3809 78V68.1818H31.0209V69.8949H31.1231C31.3021 69.2855 31.6025 68.8253 32.0244 68.5142C32.4463 68.1989 32.9321 68.0412 33.4818 68.0412C33.6182 68.0412 33.7652 68.0497 33.9228 68.0668C34.0805 68.0838 34.219 68.1072 34.3383 68.1371V70.5533C34.2105 70.5149 34.0336 70.4808 33.8078 70.451C33.5819 70.4212 33.3753 70.4062 33.1878 70.4062C32.7872 70.4062 32.4292 70.4936 32.1139 70.6683C31.8028 70.8388 31.5557 71.0774 31.3724 71.3842C31.1934 71.6911 31.104 72.0447 31.104 72.4453V78H28.3809ZM39.4036 78.1918C38.3936 78.1918 37.5243 77.9872 36.7956 77.5781C36.0712 77.1648 35.513 76.581 35.1209 75.8267C34.7289 75.0682 34.5328 74.1712 34.5328 73.1357C34.5328 72.1257 34.7289 71.2393 35.1209 70.4766C35.513 69.7138 36.0648 69.1193 36.7764 68.6932C37.4924 68.267 38.3318 68.054 39.2949 68.054C39.9426 68.054 40.5456 68.1584 41.1039 68.3672C41.6664 68.5717 42.1564 68.8807 42.574 69.294C42.9959 69.7074 43.324 70.2273 43.5584 70.8537C43.7928 71.4759 43.91 72.2045 43.91 73.0398V73.7876H35.6195V72.1001H41.3468C41.3468 71.7081 41.2615 71.3608 41.0911 71.0582C40.9206 70.7557 40.6841 70.5192 40.3816 70.3487C40.0833 70.174 39.736 70.0866 39.3397 70.0866C38.9263 70.0866 38.5598 70.1825 38.2402 70.3743C37.9249 70.5618 37.6777 70.8153 37.4988 71.1349C37.3198 71.4503 37.2282 71.8018 37.2239 72.1896V73.794C37.2239 74.2798 37.3134 74.6996 37.4924 75.0533C37.6756 75.407 37.9334 75.6797 38.2658 75.8714C38.5982 76.0632 38.9924 76.1591 39.4483 76.1591C39.7509 76.1591 40.0279 76.1165 40.2793 76.0312C40.5307 75.946 40.7459 75.8182 40.9249 75.6477C41.1039 75.4773 41.2402 75.2685 41.334 75.0213L43.8524 75.1875C43.7246 75.7926 43.4625 76.321 43.0662 76.7727C42.6742 77.2202 42.1671 77.5696 41.5449 77.821C40.927 78.0682 40.2132 78.1918 39.4036 78.1918ZM49.763 78.1918C48.7574 78.1918 47.8923 77.9787 47.1679 77.5526C46.4477 77.1222 45.8937 76.5256 45.5059 75.7628C45.1224 75 44.9307 74.1222 44.9307 73.1293C44.9307 72.1236 45.1245 71.2415 45.5123 70.483C45.9044 69.7202 46.4605 69.1257 47.1807 68.6996C47.9008 68.2692 48.7574 68.054 49.7503 68.054C50.6068 68.054 51.3568 68.2095 52.0003 68.5206C52.6437 68.8317 53.153 69.2685 53.528 69.831C53.903 70.3935 54.1096 71.054 54.148 71.8125H51.5784C51.5059 71.3224 51.3142 70.9283 51.0031 70.63C50.6963 70.3274 50.2936 70.1761 49.795 70.1761C49.3731 70.1761 49.0045 70.2912 48.6892 70.5213C48.3781 70.7472 48.1352 71.0774 47.9605 71.5121C47.7858 71.9467 47.6984 72.473 47.6984 73.0909C47.6984 73.7173 47.7836 74.25 47.9541 74.6889C48.1288 75.1278 48.3738 75.4624 48.6892 75.6925C49.0045 75.9226 49.3731 76.0376 49.795 76.0376C50.1061 76.0376 50.3852 75.9737 50.6324 75.8459C50.8838 75.718 51.0905 75.5327 51.2524 75.2898C51.4186 75.0426 51.5272 74.7464 51.5784 74.4013H54.148C54.1054 75.1513 53.9008 75.8118 53.5343 76.3828C53.1721 76.9496 52.6714 77.3928 52.0322 77.7124C51.393 78.032 50.6366 78.1918 49.763 78.1918ZM48.4718 64.1037L49.7566 65.6634L51.0414 64.1037H53.3618V64.1932L50.7666 67.0057H48.7403L46.1515 64.1932V64.1037H48.4718ZM61.8276 73.8196V68.1818H64.5506V78H61.9362V76.2166H61.834C61.6124 76.7919 61.2438 77.2543 60.7281 77.6037C60.2168 77.9531 59.5925 78.1278 58.8553 78.1278C58.199 78.1278 57.6216 77.9787 57.123 77.6804C56.6245 77.3821 56.2345 76.9581 55.9533 76.4084C55.6763 75.8587 55.5357 75.2003 55.5314 74.4332V68.1818H58.2544V73.9474C58.2587 74.527 58.4142 74.9851 58.721 75.3217C59.0279 75.6584 59.4391 75.8267 59.9547 75.8267C60.2828 75.8267 60.5897 75.7521 60.8752 75.603C61.1607 75.4496 61.3908 75.2237 61.5655 74.9254C61.7445 74.6271 61.8318 74.2585 61.8276 73.8196ZM76.4709 73.8196V68.1818H79.1939V78H76.5795V76.2166H76.4773C76.2557 76.7919 75.8871 77.2543 75.3714 77.6037C74.8601 77.9531 74.2358 78.1278 73.4986 78.1278C72.8423 78.1278 72.2649 77.9787 71.7663 77.6804C71.2677 77.3821 70.8778 76.9581 70.5966 76.4084C70.3196 75.8587 70.179 75.2003 70.1747 74.4332V68.1818H72.8977V73.9474C72.902 74.527 73.0575 74.9851 73.3643 75.3217C73.6711 75.6584 74.0824 75.8267 74.598 75.8267C74.9261 75.8267 75.2329 75.7521 75.5184 75.603C75.804 75.4496 76.0341 75.2237 76.2088 74.9254C76.3878 74.6271 76.4751 74.2585 76.4709 73.8196ZM83.735 72.3239V78H81.012V68.1818H83.6071V69.9141H83.7222C83.9395 69.343 84.3039 68.8913 84.8152 68.5589C85.3266 68.2223 85.9466 68.054 86.6753 68.054C87.3571 68.054 87.9516 68.2031 88.4587 68.5014C88.9658 68.7997 89.36 69.2259 89.6412 69.7798C89.9225 70.3295 90.0631 70.9858 90.0631 71.7486V78H87.3401V72.2344C87.3443 71.6335 87.1909 71.1648 86.8799 70.8281C86.5688 70.4872 86.1405 70.3168 85.5951 70.3168C85.2286 70.3168 84.9047 70.3956 84.6235 70.5533C84.3465 70.7109 84.1291 70.9411 83.9715 71.2436C83.8181 71.5419 83.7392 71.902 83.735 72.3239ZM95.6552 78V68.1818H98.2504V69.9141H98.3655C98.57 69.3388 98.9109 68.8849 99.3882 68.5526C99.8655 68.2202 100.436 68.054 101.101 68.054C101.775 68.054 102.348 68.2223 102.821 68.5589C103.294 68.8913 103.609 69.343 103.767 69.9141H103.869C104.069 69.3516 104.432 68.902 104.956 68.5653C105.484 68.2244 106.108 68.054 106.829 68.054C107.745 68.054 108.488 68.3459 109.059 68.9297C109.635 69.5092 109.922 70.3317 109.922 71.397V78H107.206V71.9339C107.206 71.3885 107.061 70.9794 106.771 70.7067C106.481 70.4339 106.119 70.2976 105.684 70.2976C105.19 70.2976 104.804 70.4553 104.527 70.7706C104.25 71.0817 104.112 71.4929 104.112 72.0043V78H101.472V71.8764C101.472 71.3949 101.334 71.0114 101.057 70.7259C100.784 70.4403 100.424 70.2976 99.9763 70.2976C99.6737 70.2976 99.401 70.3743 99.1581 70.5277C98.9194 70.6768 98.7298 70.8878 98.5892 71.1605C98.4486 71.429 98.3783 71.7443 98.3783 72.1065V78H95.6552ZM114.513 78.1854C113.887 78.1854 113.328 78.0767 112.838 77.8594C112.348 77.6378 111.96 77.3118 111.675 76.8814C111.394 76.4467 111.253 75.9055 111.253 75.2578C111.253 74.7124 111.353 74.2543 111.553 73.8835C111.754 73.5128 112.026 73.2145 112.372 72.9886C112.717 72.7628 113.109 72.5923 113.548 72.4773C113.991 72.3622 114.455 72.2812 114.941 72.2344C115.512 72.1747 115.972 72.1193 116.322 72.0682C116.671 72.0128 116.925 71.9318 117.083 71.8253C117.24 71.7187 117.319 71.5611 117.319 71.3523V71.3139C117.319 70.9091 117.191 70.5959 116.936 70.3743C116.684 70.1527 116.326 70.0419 115.862 70.0419C115.372 70.0419 114.982 70.1506 114.692 70.3679C114.402 70.581 114.21 70.8494 114.117 71.1733L111.598 70.9688C111.726 70.3722 111.977 69.8565 112.352 69.4219C112.727 68.983 113.211 68.6463 113.803 68.4119C114.4 68.1733 115.09 68.054 115.874 68.054C116.42 68.054 116.942 68.1179 117.44 68.2457C117.943 68.3736 118.389 68.5717 118.776 68.8402C119.168 69.1087 119.477 69.4538 119.703 69.8757C119.929 70.2933 120.042 70.794 120.042 71.3778V78H117.46V76.6385H117.383C117.225 76.9453 117.014 77.2159 116.75 77.4503C116.486 77.6804 116.168 77.8615 115.798 77.9936C115.427 78.1214 114.999 78.1854 114.513 78.1854ZM115.293 76.3061C115.693 76.3061 116.047 76.2273 116.354 76.0696C116.661 75.9077 116.901 75.6903 117.076 75.4176C117.251 75.1449 117.338 74.8359 117.338 74.4908V73.4489C117.253 73.5043 117.136 73.5554 116.987 73.6023C116.842 73.6449 116.678 73.6854 116.494 73.7237C116.311 73.7578 116.128 73.7898 115.945 73.8196C115.762 73.8452 115.595 73.8686 115.446 73.8899C115.127 73.9368 114.847 74.0114 114.609 74.1136C114.37 74.2159 114.185 74.3544 114.053 74.5291C113.921 74.6996 113.855 74.9126 113.855 75.1683C113.855 75.5391 113.989 75.8224 114.257 76.0185C114.53 76.2102 114.875 76.3061 115.293 76.3061ZM127.017 68.1818V70.2273H121.104V68.1818H127.017ZM122.447 65.8295H125.17V74.983C125.17 75.2344 125.208 75.4304 125.285 75.571C125.361 75.7074 125.468 75.8033 125.604 75.8587C125.745 75.9141 125.907 75.9418 126.09 75.9418C126.218 75.9418 126.346 75.9311 126.474 75.9098C126.601 75.8842 126.699 75.8651 126.768 75.8523L127.196 77.8786C127.06 77.9212 126.868 77.9702 126.621 78.0256C126.373 78.0852 126.073 78.1214 125.719 78.1342C125.063 78.1598 124.488 78.0724 123.993 77.8722C123.503 77.6719 123.122 77.3608 122.849 76.9389C122.577 76.517 122.442 75.9844 122.447 75.3409V65.8295ZM132.8 78.1918C131.79 78.1918 130.92 77.9872 130.192 77.5781C129.467 77.1648 128.909 76.581 128.517 75.8267C128.125 75.0682 127.929 74.1712 127.929 73.1357C127.929 72.1257 128.125 71.2393 128.517 70.4766C128.909 69.7138 129.461 69.1193 130.173 68.6932C130.888 68.267 131.728 68.054 132.691 68.054C133.339 68.054 133.942 68.1584 134.5 68.3672C135.062 68.5717 135.553 68.8807 135.97 69.294C136.392 69.7074 136.72 70.2273 136.955 70.8537C137.189 71.4759 137.306 72.2045 137.306 73.0398V73.7876H129.016V72.1001H134.743C134.743 71.7081 134.658 71.3608 134.487 71.0582C134.317 70.7557 134.08 70.5192 133.778 70.3487C133.479 70.174 133.132 70.0866 132.736 70.0866C132.322 70.0866 131.956 70.1825 131.636 70.3743C131.321 70.5618 131.074 70.8153 130.895 71.1349C130.716 71.4503 130.624 71.8018 130.62 72.1896V73.794C130.62 74.2798 130.709 74.6996 130.888 75.0533C131.072 75.407 131.33 75.6797 131.662 75.8714C131.994 76.0632 132.388 76.1591 132.844 76.1591C133.147 76.1591 133.424 76.1165 133.675 76.0312C133.927 75.946 134.142 75.8182 134.321 75.6477C134.5 75.4773 134.636 75.2685 134.73 75.0213L137.249 75.1875C137.121 75.7926 136.859 76.321 136.462 76.7727C136.07 77.2202 135.563 77.5696 134.941 77.821C134.323 78.0682 133.609 78.1918 132.8 78.1918ZM138.723 78V68.1818H141.363V69.8949H141.465C141.644 69.2855 141.945 68.8253 142.367 68.5142C142.788 68.1989 143.274 68.0412 143.824 68.0412C143.96 68.0412 144.107 68.0497 144.265 68.0668C144.423 68.0838 144.561 68.1072 144.68 68.1371V70.5533C144.553 70.5149 144.376 70.4808 144.15 70.451C143.924 70.4212 143.717 70.4062 143.53 70.4062C143.129 70.4062 142.771 70.4936 142.456 70.6683C142.145 70.8388 141.898 71.0774 141.715 71.3842C141.536 71.6911 141.446 72.0447 141.446 72.4453V78H138.723ZM145.728 78V68.1818H148.451V78H145.728ZM147.096 66.9162C146.691 66.9162 146.344 66.782 146.054 66.5135C145.769 66.2408 145.626 65.9148 145.626 65.5355C145.626 65.1605 145.769 64.8388 146.054 64.5703C146.344 64.2976 146.691 64.1612 147.096 64.1612C147.501 64.1612 147.846 64.2976 148.132 64.5703C148.421 64.8388 148.566 65.1605 148.566 65.5355C148.566 65.9148 148.421 66.2408 148.132 66.5135C147.846 66.782 147.501 66.9162 147.096 66.9162ZM153.072 78.1854C152.446 78.1854 151.888 78.0767 151.398 77.8594C150.908 77.6378 150.52 77.3118 150.234 76.8814C149.953 76.4467 149.812 75.9055 149.812 75.2578C149.812 74.7124 149.913 74.2543 150.113 73.8835C150.313 73.5128 150.586 73.2145 150.931 72.9886C151.276 72.7628 151.668 72.5923 152.107 72.4773C152.55 72.3622 153.015 72.2812 153.501 72.2344C154.072 72.1747 154.532 72.1193 154.881 72.0682C155.231 72.0128 155.484 71.9318 155.642 71.8253C155.8 71.7187 155.878 71.5611 155.878 71.3523V71.3139C155.878 70.9091 155.751 70.5959 155.495 70.3743C155.243 70.1527 154.886 70.0419 154.421 70.0419C153.931 70.0419 153.541 70.1506 153.251 70.3679C152.962 70.581 152.77 70.8494 152.676 71.1733L150.158 70.9688C150.285 70.3722 150.537 69.8565 150.912 69.4219C151.287 68.983 151.77 68.6463 152.363 68.4119C152.959 68.1733 153.65 68.054 154.434 68.054C154.979 68.054 155.501 68.1179 156 68.2457C156.503 68.3736 156.948 68.5717 157.336 68.8402C157.728 69.1087 158.037 69.4538 158.263 69.8757C158.489 70.2933 158.601 70.794 158.601 71.3778V78H156.019V76.6385H155.942C155.785 76.9453 155.574 77.2159 155.31 77.4503C155.045 77.6804 154.728 77.8615 154.357 77.9936C153.986 78.1214 153.558 78.1854 153.072 78.1854ZM153.852 76.3061C154.253 76.3061 154.606 76.2273 154.913 76.0696C155.22 75.9077 155.461 75.6903 155.636 75.4176C155.81 75.1449 155.898 74.8359 155.898 74.4908V73.4489C155.812 73.5043 155.695 73.5554 155.546 73.6023C155.401 73.6449 155.237 73.6854 155.054 73.7237C154.871 73.7578 154.687 73.7898 154.504 73.8196C154.321 73.8452 154.155 73.8686 154.006 73.8899C153.686 73.9368 153.407 74.0114 153.168 74.1136C152.93 74.2159 152.744 74.3544 152.612 74.5291C152.48 74.6996 152.414 74.9126 152.414 75.1683C152.414 75.5391 152.548 75.8224 152.817 76.0185C153.089 76.2102 153.435 76.3061 153.852 76.3061ZM157.649 64.9091V66.3857H151.423V64.9091H157.649ZM163.077 64.9091V78H160.354V64.9091H163.077ZM171.194 73.8196V68.1818H173.917V78H171.303V76.2166H171.201C170.979 76.7919 170.611 77.2543 170.095 77.6037C169.584 77.9531 168.959 78.1278 168.222 78.1278C167.566 78.1278 166.988 77.9787 166.49 77.6804C165.991 77.3821 165.601 76.9581 165.32 76.4084C165.043 75.8587 164.903 75.2003 164.898 74.4332V68.1818H167.621V73.9474C167.626 74.527 167.781 74.9851 168.088 75.3217C168.395 75.6584 168.806 75.8267 169.322 75.8267C169.65 75.8267 169.957 75.7521 170.242 75.603C170.528 75.4496 170.758 75.2237 170.932 74.9254C171.111 74.6271 171.199 74.2585 171.194 73.8196ZM17.0866 100V90.1818H19.8097V100H17.0866ZM18.4545 88.9162C18.0497 88.9162 17.7024 88.782 17.4126 88.5135C17.1271 88.2408 16.9844 87.9148 16.9844 87.5355C16.9844 87.1605 17.1271 86.8388 17.4126 86.5703C17.7024 86.2976 18.0497 86.1612 18.4545 86.1612C18.8594 86.1612 19.2045 86.2976 19.4901 86.5703C19.7798 86.8388 19.9247 87.1605 19.9247 87.5355C19.9247 87.9148 19.7798 88.2408 19.4901 88.5135C19.2045 88.782 18.8594 88.9162 18.4545 88.9162ZM26.1054 100.192C25.0954 100.192 24.2261 99.9872 23.4974 99.5781C22.773 99.1648 22.2148 98.581 21.8227 97.8267C21.4307 97.0682 21.2346 96.1712 21.2346 95.1357C21.2346 94.1257 21.4307 93.2393 21.8227 92.4766C22.2148 91.7138 22.7666 91.1193 23.4782 90.6932C24.1942 90.267 25.0336 90.054 25.9967 90.054C26.6444 90.054 27.2474 90.1584 27.8057 90.3672C28.3682 90.5717 28.8582 90.8807 29.2758 91.294C29.6977 91.7074 30.0258 92.2273 30.2602 92.8537C30.4946 93.4759 30.6118 94.2045 30.6118 95.0398V95.7876H22.3213V94.1001H28.0486C28.0486 93.7081 27.9633 93.3608 27.7929 93.0582C27.6224 92.7557 27.3859 92.5192 27.0834 92.3487C26.7851 92.174 26.4378 92.0866 26.0415 92.0866C25.6281 92.0866 25.2616 92.1825 24.942 92.3743C24.6267 92.5618 24.3795 92.8153 24.2005 93.1349C24.0216 93.4503 23.93 93.8018 23.9257 94.1896V95.794C23.9257 96.2798 24.0152 96.6996 24.1942 97.0533C24.3774 97.407 24.6352 97.6797 24.9676 97.8714C25.3 98.0632 25.6942 98.1591 26.1501 98.1591C26.4527 98.1591 26.7297 98.1165 26.9811 98.0312C27.2325 97.946 27.4477 97.8182 27.6267 97.6477C27.8057 97.4773 27.942 97.2685 28.0358 97.0213L30.5542 97.1875C30.4264 97.7926 30.1643 98.321 29.768 98.7727C29.376 99.2202 28.8689 99.5696 28.2467 99.821C27.6288 100.068 26.915 100.192 26.1054 100.192ZM36.4521 103.886C35.57 103.886 34.8136 103.765 34.1829 103.522C33.5565 103.283 33.0579 102.957 32.6871 102.544C32.3164 102.131 32.0756 101.666 31.9648 101.151L34.4833 100.812C34.56 101.008 34.6815 101.191 34.8476 101.362C35.0138 101.532 35.2333 101.668 35.506 101.771C35.783 101.877 36.1197 101.93 36.516 101.93C37.1083 101.93 37.5962 101.786 37.9798 101.496C38.3675 101.21 38.5614 100.731 38.5614 100.058V98.2614H38.4464C38.3271 98.5341 38.1481 98.7919 37.9094 99.0348C37.6708 99.2777 37.364 99.4759 36.989 99.6293C36.614 99.7827 36.1665 99.8594 35.6467 99.8594C34.9094 99.8594 34.2383 99.6889 33.6332 99.348C33.0323 99.0028 32.5529 98.4766 32.195 97.7692C31.8413 97.0575 31.6644 96.1584 31.6644 95.0717C31.6644 93.9595 31.8455 93.0305 32.2077 92.2848C32.57 91.5391 33.0515 90.9808 33.6523 90.6101C34.2575 90.2393 34.9201 90.054 35.6403 90.054C36.19 90.054 36.6502 90.1477 37.0209 90.3352C37.3917 90.5185 37.69 90.7486 37.9158 91.0256C38.1459 91.2983 38.3228 91.5668 38.4464 91.831H38.5486V90.1818H41.2525V100.096C41.2525 100.931 41.0479 101.63 40.6388 102.192C40.2298 102.755 39.663 103.177 38.9386 103.458C38.2184 103.744 37.3896 103.886 36.4521 103.886ZM36.5096 97.8139C36.9485 97.8139 37.3192 97.7053 37.6218 97.4879C37.9286 97.2663 38.163 96.951 38.3249 96.5419C38.4911 96.1286 38.5742 95.6342 38.5742 95.0589C38.5742 94.4837 38.4932 93.9851 38.3313 93.5632C38.1694 93.1371 37.935 92.8068 37.6282 92.5724C37.3214 92.3381 36.9485 92.2209 36.5096 92.2209C36.0621 92.2209 35.685 92.3423 35.3782 92.5852C35.0714 92.8239 34.8391 93.1562 34.6815 93.5824C34.5238 94.0085 34.445 94.5007 34.445 95.0589C34.445 95.6257 34.5238 96.1158 34.6815 96.5291C34.8434 96.9382 35.0756 97.2557 35.3782 97.4815C35.685 97.7031 36.0621 97.8139 36.5096 97.8139ZM45.8591 100.185C45.2327 100.185 44.6744 100.077 44.1844 99.8594C43.6943 99.6378 43.3065 99.3118 43.021 98.8814C42.7398 98.4467 42.5992 97.9055 42.5992 97.2578C42.5992 96.7124 42.6993 96.2543 42.8996 95.8835C43.0999 95.5128 43.3726 95.2145 43.7178 94.9886C44.0629 94.7628 44.455 94.5923 44.8939 94.4773C45.3371 94.3622 45.8016 94.2812 46.2874 94.2344C46.8584 94.1747 47.3186 94.1193 47.668 94.0682C48.0175 94.0128 48.271 93.9318 48.4287 93.8253C48.5864 93.7187 48.6652 93.5611 48.6652 93.3523V93.3139C48.6652 92.9091 48.5374 92.5959 48.2817 92.3743C48.0303 92.1527 47.6723 92.0419 47.2078 92.0419C46.7178 92.0419 46.3278 92.1506 46.0381 92.3679C45.7483 92.581 45.5565 92.8494 45.4628 93.1733L42.9443 92.9688C43.0722 92.3722 43.3236 91.8565 43.6986 91.4219C44.0736 90.983 44.5573 90.6463 45.1496 90.4119C45.7462 90.1733 46.4365 90.054 47.2206 90.054C47.7661 90.054 48.2881 90.1179 48.7867 90.2457C49.2895 90.3736 49.7348 90.5717 50.1226 90.8402C50.5146 91.1087 50.8236 91.4538 51.0494 91.8757C51.2753 92.2933 51.3882 92.794 51.3882 93.3778V100H48.8058V98.6385H48.7291C48.5715 98.9453 48.3605 99.2159 48.0963 99.4503C47.8321 99.6804 47.5146 99.8615 47.1439 99.9936C46.7732 100.121 46.3449 100.185 45.8591 100.185ZM46.6389 98.3061C47.0395 98.3061 47.3932 98.2273 47.7 98.0696C48.0068 97.9077 48.2476 97.6903 48.4223 97.4176C48.597 97.1449 48.6844 96.8359 48.6844 96.4908V95.4489C48.5992 95.5043 48.482 95.5554 48.3328 95.6023C48.1879 95.6449 48.0239 95.6854 47.8406 95.7237C47.6574 95.7578 47.4742 95.7898 47.2909 95.8196C47.1077 95.8452 46.9415 95.8686 46.7923 95.8899C46.4727 95.9368 46.1936 96.0114 45.955 96.1136C45.7163 96.2159 45.531 96.3544 45.3989 96.5291C45.2668 96.6996 45.2007 96.9126 45.2007 97.1683C45.2007 97.5391 45.335 97.8224 45.6034 98.0185C45.8761 98.2102 46.2213 98.3061 46.6389 98.3061ZM50.4358 86.9091V88.3857H44.21V86.9091H50.4358ZM56.7587 100.16C56.0129 100.16 55.3375 99.968 54.7324 99.5845C54.1316 99.1967 53.6543 98.6278 53.3006 97.8778C52.9512 97.1236 52.7764 96.1989 52.7764 95.1037C52.7764 93.9787 52.9576 93.0433 53.3198 92.2976C53.682 91.5476 54.1635 90.9872 54.7644 90.6165C55.3695 90.2415 56.0321 90.054 56.7523 90.054C57.302 90.054 57.7601 90.1477 58.1266 90.3352C58.4973 90.5185 58.7956 90.7486 59.0215 91.0256C59.2516 91.2983 59.4263 91.5668 59.5456 91.831H59.6287V86.9091H62.3453V100H59.6607V98.4276H59.5456C59.4178 98.7003 59.2367 98.9709 59.0023 99.2393C58.7722 99.5036 58.4718 99.723 58.101 99.8977C57.7345 100.072 57.2871 100.16 56.7587 100.16ZM57.6216 97.9929C58.0605 97.9929 58.4313 97.8736 58.7338 97.6349C59.0406 97.392 59.275 97.0533 59.437 96.6186C59.6031 96.1839 59.6862 95.6747 59.6862 95.0909C59.6862 94.5071 59.6053 94 59.4433 93.5696C59.2814 93.1392 59.047 92.8068 58.7402 92.5724C58.4334 92.3381 58.0605 92.2209 57.6216 92.2209C57.1742 92.2209 56.797 92.3423 56.4902 92.5852C56.1834 92.8281 55.9512 93.1648 55.7935 93.5952C55.6358 94.0256 55.557 94.5241 55.557 95.0909C55.557 95.6619 55.6358 96.1669 55.7935 96.6058C55.9554 97.0405 56.1877 97.3814 56.4902 97.6286C56.797 97.8714 57.1742 97.9929 57.6216 97.9929ZM68.6986 100.192C67.6886 100.192 66.8193 99.9872 66.0906 99.5781C65.3662 99.1648 64.808 98.581 64.4159 97.8267C64.0239 97.0682 63.8278 96.1712 63.8278 95.1357C63.8278 94.1257 64.0239 93.2393 64.4159 92.4766C64.808 91.7138 65.3598 91.1193 66.0714 90.6932C66.7874 90.267 67.6268 90.054 68.5899 90.054C69.2376 90.054 69.8406 90.1584 70.3989 90.3672C70.9614 90.5717 71.4514 90.8807 71.869 91.294C72.2909 91.7074 72.619 92.2273 72.8534 92.8537C73.0878 93.4759 73.205 94.2045 73.205 95.0398V95.7876H64.9145V94.1001H70.6418C70.6418 93.7081 70.5565 93.3608 70.3861 93.0582C70.2156 92.7557 69.9791 92.5192 69.6766 92.3487C69.3783 92.174 69.031 92.0866 68.6347 92.0866C68.2213 92.0866 67.8548 92.1825 67.5352 92.3743C67.2199 92.5618 66.9727 92.8153 66.7938 93.1349C66.6148 93.4503 66.5232 93.8018 66.5189 94.1896V95.794C66.5189 96.2798 66.6084 96.6996 66.7874 97.0533C66.9706 97.407 67.2284 97.6797 67.5608 97.8714C67.8932 98.0632 68.2874 98.1591 68.7433 98.1591C69.0459 98.1591 69.3229 98.1165 69.5743 98.0312C69.8257 97.946 70.0409 97.8182 70.2199 97.6477C70.3989 97.4773 70.5352 97.2685 70.629 97.0213L73.1474 97.1875C73.0196 97.7926 72.7575 98.321 72.3612 98.7727C71.9692 99.2202 71.4621 99.5696 70.8399 99.821C70.222 100.068 69.5082 100.192 68.6986 100.192Z" fill="#1A1D27"/>
<path d="M17.0568 120V111.273H20.108C20.7159 111.273 21.2173 111.378 21.6122 111.588C22.0071 111.795 22.3011 112.075 22.4943 112.428C22.6875 112.777 22.7841 113.165 22.7841 113.591C22.7841 113.966 22.7173 114.276 22.5838 114.52C22.4531 114.764 22.2798 114.957 22.0639 115.099C21.8509 115.241 21.6193 115.347 21.3693 115.415V115.5C21.6364 115.517 21.9048 115.611 22.1747 115.781C22.4446 115.952 22.6705 116.196 22.8523 116.514C23.0341 116.832 23.125 117.222 23.125 117.682C23.125 118.119 23.0256 118.513 22.8267 118.862C22.6278 119.212 22.3139 119.489 21.8849 119.693C21.456 119.898 20.8977 120 20.2102 120H17.0568ZM18.1136 119.062H20.2102C20.9006 119.062 21.3906 118.929 21.6804 118.662C21.973 118.392 22.1193 118.065 22.1193 117.682C22.1193 117.386 22.044 117.114 21.8935 116.864C21.7429 116.611 21.5284 116.409 21.25 116.259C20.9716 116.105 20.642 116.028 20.2614 116.028H18.1136V119.062ZM18.1136 115.108H20.0739C20.392 115.108 20.679 115.045 20.9347 114.92C21.1932 114.795 21.3977 114.619 21.5483 114.392C21.7017 114.165 21.7784 113.898 21.7784 113.591C21.7784 113.207 21.6449 112.882 21.3778 112.615C21.1108 112.345 20.6875 112.21 20.108 112.21H18.1136V115.108ZM24.7251 120V113.455H25.7308V120H24.7251ZM25.2365 112.364C25.0405 112.364 24.8714 112.297 24.7294 112.163C24.5902 112.03 24.5206 111.869 24.5206 111.682C24.5206 111.494 24.5902 111.334 24.7294 111.2C24.8714 111.067 25.0405 111 25.2365 111C25.4325 111 25.6001 111.067 25.7393 111.2C25.8814 111.334 25.9524 111.494 25.9524 111.682C25.9524 111.869 25.8814 112.03 25.7393 112.163C25.6001 112.297 25.4325 112.364 25.2365 112.364ZM27.5728 120V113.455H28.5444V114.443H28.6126C28.7319 114.119 28.9478 113.857 29.2603 113.655C29.5728 113.453 29.9251 113.352 30.3171 113.352C30.391 113.352 30.4833 113.354 30.5941 113.357C30.7049 113.359 30.7887 113.364 30.8455 113.369V114.392C30.8114 114.384 30.7333 114.371 30.6112 114.354C30.4918 114.334 30.3654 114.324 30.2319 114.324C29.9137 114.324 29.6296 114.391 29.3796 114.524C29.1325 114.655 28.9364 114.837 28.7915 115.07C28.6495 115.3 28.5785 115.562 28.5785 115.858V120H27.5728ZM34.4975 120.136C33.9066 120.136 33.3881 119.996 32.9421 119.714C32.4989 119.433 32.1523 119.04 31.9023 118.534C31.6552 118.028 31.5316 117.437 31.5316 116.761C31.5316 116.08 31.6552 115.484 31.9023 114.976C32.1523 114.467 32.4989 114.072 32.9421 113.791C33.3881 113.51 33.9066 113.369 34.4975 113.369C35.0884 113.369 35.6055 113.51 36.0487 113.791C36.4947 114.072 36.8413 114.467 37.0884 114.976C37.3384 115.484 37.4634 116.08 37.4634 116.761C37.4634 117.437 37.3384 118.028 37.0884 118.534C36.8413 119.04 36.4947 119.433 36.0487 119.714C35.6055 119.996 35.0884 120.136 34.4975 120.136ZM34.4975 119.233C34.9464 119.233 35.3157 119.118 35.6055 118.888C35.8952 118.658 36.1097 118.355 36.2489 117.98C36.3881 117.605 36.4577 117.199 36.4577 116.761C36.4577 116.324 36.3881 115.916 36.2489 115.538C36.1097 115.161 35.8952 114.855 35.6055 114.622C35.3157 114.389 34.9464 114.273 34.4975 114.273C34.0487 114.273 33.6793 114.389 33.3896 114.622C33.0998 114.855 32.8853 115.161 32.7461 115.538C32.6069 115.916 32.5373 116.324 32.5373 116.761C32.5373 117.199 32.6069 117.605 32.7461 117.98C32.8853 118.355 33.0998 118.658 33.3896 118.888C33.6793 119.118 34.0487 119.233 34.4975 119.233ZM38.9986 113.455H40.0043V120.477C40.0043 120.881 39.9347 121.23 39.7955 121.526C39.6591 121.821 39.4517 122.05 39.1733 122.212C38.8977 122.374 38.5497 122.455 38.1293 122.455C38.0952 122.455 38.0611 122.455 38.027 122.455C37.9929 122.455 37.9588 122.455 37.9247 122.455V121.517C37.9588 121.517 37.9901 121.517 38.0185 121.517C38.0469 121.517 38.0781 121.517 38.1122 121.517C38.419 121.517 38.6435 121.426 38.7855 121.244C38.9276 121.065 38.9986 120.81 38.9986 120.477V113.455ZM39.4929 112.364C39.2969 112.364 39.1278 112.297 38.9858 112.163C38.8466 112.03 38.777 111.869 38.777 111.682C38.777 111.494 38.8466 111.334 38.9858 111.2C39.1278 111.067 39.2969 111 39.4929 111C39.6889 111 39.8565 111.067 39.9957 111.2C40.1378 111.334 40.2088 111.494 40.2088 111.682C40.2088 111.869 40.1378 112.03 39.9957 112.163C39.8565 112.297 39.6889 112.364 39.4929 112.364ZM46.4826 114.92L45.5792 115.176C45.5224 115.026 45.4386 114.879 45.3278 114.737C45.2198 114.592 45.0721 114.473 44.8846 114.379C44.6971 114.286 44.457 114.239 44.1644 114.239C43.7638 114.239 43.43 114.331 43.163 114.516C42.8988 114.697 42.7667 114.929 42.7667 115.21C42.7667 115.46 42.8576 115.658 43.0394 115.803C43.2212 115.947 43.5053 116.068 43.8917 116.165L44.8633 116.403C45.4485 116.545 45.8846 116.763 46.1715 117.055C46.4585 117.345 46.6019 117.719 46.6019 118.176C46.6019 118.551 46.494 118.886 46.2781 119.182C46.065 119.477 45.7667 119.71 45.3832 119.881C44.9996 120.051 44.5536 120.136 44.0451 120.136C43.3775 120.136 42.8249 119.991 42.3874 119.702C41.9499 119.412 41.6729 118.989 41.5565 118.432L42.511 118.193C42.6019 118.545 42.7738 118.81 43.0266 118.986C43.2823 119.162 43.6161 119.25 44.0281 119.25C44.4968 119.25 44.869 119.151 45.1445 118.952C45.4229 118.75 45.5621 118.509 45.5621 118.227C45.5621 118 45.4826 117.81 45.3235 117.656C45.1644 117.5 44.9201 117.384 44.5906 117.307L43.4996 117.051C42.9002 116.909 42.4599 116.689 42.1786 116.391C41.9002 116.089 41.761 115.713 41.761 115.261C41.761 114.892 41.8647 114.565 42.0721 114.281C42.2823 113.997 42.5678 113.774 42.9286 113.612C43.2923 113.45 43.7042 113.369 44.1644 113.369C44.8121 113.369 45.3207 113.511 45.69 113.795C46.0621 114.08 46.3263 114.455 46.4826 114.92ZM49.6158 118.807L49.5476 119.267C49.4993 119.591 49.4254 119.938 49.326 120.307C49.2294 120.676 49.1286 121.024 49.0234 121.351C48.9183 121.678 48.8317 121.938 48.7635 122.131H47.9964C48.0334 121.949 48.0817 121.709 48.1413 121.411C48.201 121.112 48.2607 120.778 48.3203 120.409C48.3828 120.043 48.4339 119.668 48.4737 119.284L48.5249 118.807H49.6158ZM55.7915 117.614L55.7745 116.369H55.979L58.8427 113.455H60.087L57.0359 116.54H56.9506L55.7915 117.614ZM54.854 120V111.273H55.8597V120H54.854ZM59.0131 120L56.4563 116.761L57.1722 116.062L60.2915 120H59.0131ZM63.3075 120.153C62.8928 120.153 62.5163 120.075 62.1783 119.919C61.8402 119.76 61.5717 119.531 61.3729 119.233C61.174 118.932 61.0746 118.568 61.0746 118.142C61.0746 117.767 61.1484 117.463 61.2962 117.23C61.4439 116.994 61.6413 116.81 61.8885 116.676C62.1357 116.543 62.4084 116.443 62.7067 116.378C63.0078 116.31 63.3104 116.256 63.6143 116.216C64.0121 116.165 64.3345 116.126 64.5817 116.101C64.8317 116.072 65.0135 116.026 65.1271 115.96C65.2436 115.895 65.3018 115.781 65.3018 115.619V115.585C65.3018 115.165 65.1868 114.838 64.9567 114.605C64.7294 114.372 64.3842 114.256 63.9212 114.256C63.4411 114.256 63.0646 114.361 62.7919 114.571C62.5192 114.781 62.3274 115.006 62.2166 115.244L61.2621 114.903C61.4325 114.506 61.6598 114.196 61.9439 113.974C62.2308 113.75 62.5433 113.594 62.8814 113.506C63.2223 113.415 63.5575 113.369 63.8871 113.369C64.0973 113.369 64.3388 113.395 64.6115 113.446C64.8871 113.494 65.1527 113.595 65.4084 113.749C65.6669 113.902 65.8814 114.134 66.0518 114.443C66.2223 114.753 66.3075 115.168 66.3075 115.688V120H65.3018V119.114H65.2507C65.1825 119.256 65.0689 119.408 64.9098 119.57C64.7507 119.732 64.5391 119.869 64.2749 119.983C64.0107 120.097 63.6882 120.153 63.3075 120.153ZM63.4609 119.25C63.8587 119.25 64.1939 119.172 64.4666 119.016C64.7422 118.859 64.9496 118.658 65.0888 118.411C65.2308 118.163 65.3018 117.903 65.3018 117.631V116.71C65.2592 116.761 65.1655 116.808 65.0206 116.851C64.8786 116.891 64.7138 116.926 64.5263 116.957C64.3416 116.986 64.1612 117.011 63.9851 117.034C63.8118 117.054 63.6712 117.071 63.5632 117.085C63.3018 117.119 63.0575 117.175 62.8303 117.251C62.6058 117.325 62.424 117.437 62.2848 117.588C62.1484 117.736 62.0803 117.937 62.0803 118.193C62.0803 118.543 62.2095 118.807 62.468 118.986C62.7294 119.162 63.0604 119.25 63.4609 119.25ZM69.1488 116.062V120H68.1431V113.455H69.1147V114.477H69.1999C69.3533 114.145 69.5863 113.878 69.8988 113.676C70.2113 113.472 70.6147 113.369 71.109 113.369C71.5522 113.369 71.94 113.46 72.2724 113.642C72.6048 113.821 72.8633 114.094 73.0479 114.46C73.2326 114.824 73.3249 115.284 73.3249 115.841V120H72.3192V115.909C72.3192 115.395 72.1857 114.994 71.9187 114.707C71.6516 114.418 71.2852 114.273 70.8192 114.273C70.4982 114.273 70.2113 114.342 69.9585 114.482C69.7085 114.621 69.511 114.824 69.3661 115.091C69.2212 115.358 69.1488 115.682 69.1488 116.062ZM77.8217 120.136C77.2081 120.136 76.6797 119.991 76.2365 119.702C75.7933 119.412 75.4524 119.013 75.2138 118.504C74.9751 117.996 74.8558 117.415 74.8558 116.761C74.8558 116.097 74.978 115.51 75.2223 115.001C75.4695 114.49 75.8132 114.091 76.2536 113.804C76.6967 113.514 77.2138 113.369 77.8047 113.369C78.2649 113.369 78.6797 113.455 79.049 113.625C79.4183 113.795 79.7209 114.034 79.9567 114.341C80.1925 114.648 80.3388 115.006 80.3956 115.415H79.3899C79.3132 115.116 79.1428 114.852 78.8786 114.622C78.6172 114.389 78.2649 114.273 77.8217 114.273C77.4297 114.273 77.0859 114.375 76.7905 114.58C76.4979 114.781 76.2692 115.067 76.1044 115.436C75.9425 115.803 75.8615 116.233 75.8615 116.727C75.8615 117.233 75.9411 117.673 76.1001 118.048C76.2621 118.423 76.4893 118.714 76.782 118.922C77.0774 119.129 77.424 119.233 77.8217 119.233C78.0831 119.233 78.3203 119.188 78.5334 119.097C78.7464 119.006 78.9268 118.875 79.0746 118.705C79.2223 118.534 79.3274 118.33 79.3899 118.091H80.3956C80.3388 118.477 80.1982 118.825 79.9737 119.135C79.7521 119.442 79.4581 119.686 79.0916 119.868C78.728 120.047 78.3047 120.136 77.8217 120.136ZM84.6101 120.136C83.9794 120.136 83.4354 119.997 82.978 119.719C82.5234 119.438 82.1726 119.045 81.9254 118.543C81.6811 118.037 81.5589 117.449 81.5589 116.778C81.5589 116.108 81.6811 115.517 81.9254 115.006C82.1726 114.491 82.5163 114.091 82.9567 113.804C83.3999 113.514 83.9169 113.369 84.5078 113.369C84.8487 113.369 85.1854 113.426 85.5178 113.54C85.8501 113.653 86.1527 113.838 86.4254 114.094C86.6982 114.347 86.9155 114.682 87.0774 115.099C87.2393 115.517 87.3203 116.031 87.3203 116.642V117.068H82.2749V116.199H86.2976C86.2976 115.83 86.2237 115.5 86.076 115.21C85.9311 114.92 85.7237 114.692 85.4538 114.524C85.1868 114.357 84.8714 114.273 84.5078 114.273C84.1072 114.273 83.7607 114.372 83.468 114.571C83.1783 114.767 82.9553 115.023 82.799 115.338C82.6428 115.653 82.5646 115.991 82.5646 116.352V116.932C82.5646 117.426 82.6499 117.845 82.8203 118.189C82.9936 118.53 83.2337 118.79 83.5405 118.969C83.8473 119.145 84.2038 119.233 84.6101 119.233C84.8743 119.233 85.1129 119.196 85.326 119.122C85.5419 119.045 85.728 118.932 85.8842 118.781C86.0405 118.628 86.1612 118.437 86.2464 118.21L87.218 118.483C87.1158 118.812 86.9439 119.102 86.7024 119.352C86.4609 119.599 86.1626 119.793 85.8075 119.932C85.4524 120.068 85.0533 120.136 84.6101 120.136ZM89.8558 111.273V120H88.8501V111.273H89.8558ZM94.4421 120.136C93.8114 120.136 93.2674 119.997 92.81 119.719C92.3555 119.438 92.0046 119.045 91.7575 118.543C91.5131 118.037 91.391 117.449 91.391 116.778C91.391 116.108 91.5131 115.517 91.7575 115.006C92.0046 114.491 92.3484 114.091 92.7887 113.804C93.2319 113.514 93.7489 113.369 94.3398 113.369C94.6808 113.369 95.0174 113.426 95.3498 113.54C95.6822 113.653 95.9847 113.838 96.2575 114.094C96.5302 114.347 96.7475 114.682 96.9094 115.099C97.0714 115.517 97.1523 116.031 97.1523 116.642V117.068H92.1069V116.199H96.1296C96.1296 115.83 96.0558 115.5 95.908 115.21C95.7631 114.92 95.5558 114.692 95.2859 114.524C95.0188 114.357 94.7035 114.273 94.3398 114.273C93.9393 114.273 93.5927 114.372 93.3001 114.571C93.0103 114.767 92.7873 115.023 92.631 115.338C92.4748 115.653 92.3967 115.991 92.3967 116.352V116.932C92.3967 117.426 92.4819 117.845 92.6523 118.189C92.8256 118.53 93.0657 118.79 93.3725 118.969C93.6793 119.145 94.0359 119.233 94.4421 119.233C94.7063 119.233 94.945 119.196 95.158 119.122C95.3739 119.045 95.56 118.932 95.7163 118.781C95.8725 118.628 95.9933 118.437 96.0785 118.21L97.0501 118.483C96.9478 118.812 96.7759 119.102 96.5344 119.352C96.293 119.599 95.9947 119.793 95.6396 119.932C95.2844 120.068 94.8853 120.136 94.4421 120.136ZM98.6822 113.455H99.6879V120.477C99.6879 120.881 99.6183 121.23 99.479 121.526C99.3427 121.821 99.1353 122.05 98.8569 122.212C98.5813 122.374 98.2333 122.455 97.8129 122.455C97.7788 122.455 97.7447 122.455 97.7106 122.455C97.6765 122.455 97.6424 122.455 97.6083 122.455V121.517C97.6424 121.517 97.6737 121.517 97.7021 121.517C97.7305 121.517 97.7617 121.517 97.7958 121.517C98.1026 121.517 98.3271 121.426 98.4691 121.244C98.6112 121.065 98.6822 120.81 98.6822 120.477V113.455ZM99.1765 112.364C98.9805 112.364 98.8114 112.297 98.6694 112.163C98.5302 112.03 98.4606 111.869 98.4606 111.682C98.4606 111.494 98.5302 111.334 98.6694 111.2C98.8114 111.067 98.9805 111 99.1765 111C99.3725 111 99.5401 111.067 99.6793 111.2C99.8214 111.334 99.8924 111.494 99.8924 111.682C99.8924 111.869 99.8214 112.03 99.6793 112.163C99.5401 112.297 99.3725 112.364 99.1765 112.364ZM103.456 120.153C103.041 120.153 102.665 120.075 102.327 119.919C101.989 119.76 101.72 119.531 101.521 119.233C101.322 118.932 101.223 118.568 101.223 118.142C101.223 117.767 101.297 117.463 101.445 117.23C101.592 116.994 101.79 116.81 102.037 116.676C102.284 116.543 102.557 116.443 102.855 116.378C103.156 116.31 103.459 116.256 103.763 116.216C104.161 116.165 104.483 116.126 104.73 116.101C104.98 116.072 105.162 116.026 105.276 115.96C105.392 115.895 105.45 115.781 105.45 115.619V115.585C105.45 115.165 105.335 114.838 105.105 114.605C104.878 114.372 104.533 114.256 104.07 114.256C103.589 114.256 103.213 114.361 102.94 114.571C102.668 114.781 102.476 115.006 102.365 115.244L101.411 114.903C101.581 114.506 101.808 114.196 102.092 113.974C102.379 113.75 102.692 113.594 103.03 113.506C103.371 113.415 103.706 113.369 104.036 113.369C104.246 113.369 104.487 113.395 104.76 113.446C105.036 113.494 105.301 113.595 105.557 113.749C105.815 113.902 106.03 114.134 106.2 114.443C106.371 114.753 106.456 115.168 106.456 115.688V120H105.45V119.114H105.399C105.331 119.256 105.217 119.408 105.058 119.57C104.899 119.732 104.688 119.869 104.423 119.983C104.159 120.097 103.837 120.153 103.456 120.153ZM103.609 119.25C104.007 119.25 104.342 119.172 104.615 119.016C104.891 118.859 105.098 118.658 105.237 118.411C105.379 118.163 105.45 117.903 105.45 117.631V116.71C105.408 116.761 105.314 116.808 105.169 116.851C105.027 116.891 104.862 116.926 104.675 116.957C104.49 116.986 104.31 117.011 104.134 117.034C103.96 117.054 103.82 117.071 103.712 117.085C103.45 117.119 103.206 117.175 102.979 117.251C102.754 117.325 102.572 117.437 102.433 117.588C102.297 117.736 102.229 117.937 102.229 118.193C102.229 118.543 102.358 118.807 102.616 118.986C102.878 119.162 103.209 119.25 103.609 119.25ZM109.792 118.807L109.723 119.267C109.675 119.591 109.601 119.938 109.502 120.307C109.405 120.676 109.304 121.024 109.199 121.351C109.094 121.678 109.007 121.938 108.939 122.131H108.172C108.209 121.949 108.257 121.709 108.317 121.411C108.377 121.112 108.436 120.778 108.496 120.409C108.559 120.043 108.61 119.668 108.65 119.284L108.701 118.807H109.792ZM115.03 120V113.455H116.036V120H115.03ZM115.541 112.364C115.345 112.364 115.176 112.297 115.034 112.163C114.895 112.03 114.825 111.869 114.825 111.682C114.825 111.494 114.895 111.334 115.034 111.2C115.176 111.067 115.345 111 115.541 111C115.737 111 115.905 111.067 116.044 111.2C116.186 111.334 116.257 111.494 116.257 111.682C116.257 111.869 116.186 112.03 116.044 112.163C115.905 112.297 115.737 112.364 115.541 112.364ZM117.69 120V119.233L121.406 114.46V114.392H117.809V113.455H122.701V114.256L119.088 118.994V119.062H122.821V120H117.69ZM126.926 120.136C126.296 120.136 125.752 119.997 125.294 119.719C124.84 119.438 124.489 119.045 124.242 118.543C123.998 118.037 123.875 117.449 123.875 116.778C123.875 116.108 123.998 115.517 124.242 115.006C124.489 114.491 124.833 114.091 125.273 113.804C125.716 113.514 126.233 113.369 126.824 113.369C127.165 113.369 127.502 113.426 127.834 113.54C128.167 113.653 128.469 113.838 128.742 114.094C129.015 114.347 129.232 114.682 129.394 115.099C129.556 115.517 129.637 116.031 129.637 116.642V117.068H124.591V116.199H128.614C128.614 115.83 128.54 115.5 128.392 115.21C128.248 114.92 128.04 114.692 127.77 114.524C127.503 114.357 127.188 114.273 126.824 114.273C126.424 114.273 126.077 114.372 125.784 114.571C125.495 114.767 125.272 115.023 125.115 115.338C124.959 115.653 124.881 115.991 124.881 116.352V116.932C124.881 117.426 124.966 117.845 125.137 118.189C125.31 118.53 125.55 118.79 125.857 118.969C126.164 119.145 126.52 119.233 126.926 119.233C127.191 119.233 127.429 119.196 127.642 119.122C127.858 119.045 128.044 118.932 128.201 118.781C128.357 118.628 128.478 118.437 128.563 118.21L129.534 118.483C129.432 118.812 129.26 119.102 129.019 119.352C128.777 119.599 128.479 119.793 128.124 119.932C127.769 120.068 127.37 120.136 126.926 120.136ZM131.167 113.455H132.172V120.477C132.172 120.881 132.103 121.23 131.963 121.526C131.827 121.821 131.62 122.05 131.341 122.212C131.066 122.374 130.718 122.455 130.297 122.455C130.263 122.455 130.229 122.455 130.195 122.455C130.161 122.455 130.127 122.455 130.093 122.455V121.517C130.127 121.517 130.158 121.517 130.186 121.517C130.215 121.517 130.246 121.517 130.28 121.517C130.587 121.517 130.811 121.426 130.953 121.244C131.096 121.065 131.167 120.81 131.167 120.477V113.455ZM131.661 112.364C131.465 112.364 131.296 112.297 131.154 112.163C131.015 112.03 130.945 111.869 130.945 111.682C130.945 111.494 131.015 111.334 131.154 111.2C131.296 111.067 131.465 111 131.661 111C131.857 111 132.025 111.067 132.164 111.2C132.306 111.334 132.377 111.494 132.377 111.682C132.377 111.869 132.306 112.03 132.164 112.163C132.025 112.297 131.857 112.364 131.661 112.364ZM139.366 113.455L136.946 120H135.923L133.503 113.455H134.594L136.401 118.67H136.469L138.276 113.455H139.366ZM140.694 120V113.455H141.7V120H140.694ZM141.205 112.364C141.009 112.364 140.84 112.297 140.698 112.163C140.559 112.03 140.489 111.869 140.489 111.682C140.489 111.494 140.559 111.334 140.698 111.2C140.84 111.067 141.009 111 141.205 111C141.401 111 141.569 111.067 141.708 111.2C141.85 111.334 141.921 111.494 141.921 111.682C141.921 111.869 141.85 112.03 141.708 112.163C141.569 112.297 141.401 112.364 141.205 112.364ZM146.286 120.136C145.655 120.136 145.111 119.997 144.654 119.719C144.199 119.438 143.848 119.045 143.601 118.543C143.357 118.037 143.235 117.449 143.235 116.778C143.235 116.108 143.357 115.517 143.601 115.006C143.848 114.491 144.192 114.091 144.632 113.804C145.076 113.514 145.593 113.369 146.184 113.369C146.525 113.369 146.861 113.426 147.194 113.54C147.526 113.653 147.828 113.838 148.101 114.094C148.374 114.347 148.591 114.682 148.753 115.099C148.915 115.517 148.996 116.031 148.996 116.642V117.068H143.951V116.199H147.973C147.973 115.83 147.9 115.5 147.752 115.21C147.607 114.92 147.4 114.692 147.13 114.524C146.863 114.357 146.547 114.273 146.184 114.273C145.783 114.273 145.436 114.372 145.144 114.571C144.854 114.767 144.631 115.023 144.475 115.338C144.319 115.653 144.24 115.991 144.24 116.352V116.932C144.24 117.426 144.326 117.845 144.496 118.189C144.669 118.53 144.909 118.79 145.216 118.969C145.523 119.145 145.88 119.233 146.286 119.233C146.55 119.233 146.789 119.196 147.002 119.122C147.218 119.045 147.404 118.932 147.56 118.781C147.716 118.628 147.837 118.437 147.922 118.21L148.894 118.483C148.792 118.812 148.62 119.102 148.378 119.352C148.137 119.599 147.838 119.793 147.483 119.932C147.128 120.068 146.729 120.136 146.286 120.136ZM151.532 111.273V120H150.526V111.273H151.532ZM155.3 120.153C154.885 120.153 154.509 120.075 154.17 119.919C153.832 119.76 153.564 119.531 153.365 119.233C153.166 118.932 153.067 118.568 153.067 118.142C153.067 117.767 153.141 117.463 153.288 117.23C153.436 116.994 153.634 116.81 153.881 116.676C154.128 116.543 154.401 116.443 154.699 116.378C155 116.31 155.303 116.256 155.607 116.216C156.004 116.165 156.327 116.126 156.574 116.101C156.824 116.072 157.006 116.026 157.119 115.96C157.236 115.895 157.294 115.781 157.294 115.619V115.585C157.294 115.165 157.179 114.838 156.949 114.605C156.722 114.372 156.376 114.256 155.913 114.256C155.433 114.256 155.057 114.361 154.784 114.571C154.511 114.781 154.32 115.006 154.209 115.244L153.254 114.903C153.425 114.506 153.652 114.196 153.936 113.974C154.223 113.75 154.536 113.594 154.874 113.506C155.214 113.415 155.55 113.369 155.879 113.369C156.089 113.369 156.331 113.395 156.604 113.446C156.879 113.494 157.145 113.595 157.401 113.749C157.659 113.902 157.874 114.134 158.044 114.443C158.214 114.753 158.3 115.168 158.3 115.688V120H157.294V119.114H157.243C157.175 119.256 157.061 119.408 156.902 119.57C156.743 119.732 156.531 119.869 156.267 119.983C156.003 120.097 155.68 120.153 155.3 120.153ZM155.453 119.25C155.851 119.25 156.186 119.172 156.459 119.016C156.734 118.859 156.942 118.658 157.081 118.411C157.223 118.163 157.294 117.903 157.294 117.631V116.71C157.251 116.761 157.158 116.808 157.013 116.851C156.871 116.891 156.706 116.926 156.518 116.957C156.334 116.986 156.153 117.011 155.977 117.034C155.804 117.054 155.663 117.071 155.555 117.085C155.294 117.119 155.05 117.175 154.822 117.251C154.598 117.325 154.416 117.437 154.277 117.588C154.141 117.736 154.072 117.937 154.072 118.193C154.072 118.543 154.202 118.807 154.46 118.986C154.722 119.162 155.053 119.25 155.453 119.25ZM164.772 114.92L163.868 115.176C163.811 115.026 163.728 114.879 163.617 114.737C163.509 114.592 163.361 114.473 163.174 114.379C162.986 114.286 162.746 114.239 162.453 114.239C162.053 114.239 161.719 114.331 161.452 114.516C161.188 114.697 161.056 114.929 161.056 115.21C161.056 115.46 161.147 115.658 161.328 115.803C161.51 115.947 161.794 116.068 162.181 116.165L163.152 116.403C163.738 116.545 164.174 116.763 164.461 117.055C164.748 117.345 164.891 117.719 164.891 118.176C164.891 118.551 164.783 118.886 164.567 119.182C164.354 119.477 164.056 119.71 163.672 119.881C163.289 120.051 162.843 120.136 162.334 120.136C161.667 120.136 161.114 119.991 160.676 119.702C160.239 119.412 159.962 118.989 159.846 118.432L160.8 118.193C160.891 118.545 161.063 118.81 161.316 118.986C161.571 119.162 161.905 119.25 162.317 119.25C162.786 119.25 163.158 119.151 163.434 118.952C163.712 118.75 163.851 118.509 163.851 118.227C163.851 118 163.772 117.81 163.613 117.656C163.453 117.5 163.209 117.384 162.88 117.307L161.789 117.051C161.189 116.909 160.749 116.689 160.468 116.391C160.189 116.089 160.05 115.713 160.05 115.261C160.05 114.892 160.154 114.565 160.361 114.281C160.571 113.997 160.857 113.774 161.218 113.612C161.581 113.45 161.993 113.369 162.453 113.369C163.101 113.369 163.61 113.511 163.979 113.795C164.351 114.08 164.615 114.455 164.772 114.92Z" fill="#1A1D27"/>
</svg>
