<svg width="200" height="178" viewBox="0 0 200 178" fill="none" xmlns="http://www.w3.org/2000/svg">
<rect width="200" height="178" rx="16" fill="white" fill-opacity="0.7"/>
<rect x="16" y="16" width="32" height="32" rx="8" fill="#FFBEA5"/>
<path d="M39.5 29.0001H38M38 29.0001H37.25C35.75 27.5014 33.5 25.9999 32 27.5001M38 29.0001V35M32 27.5001L29.7497 29.7513C29.6901 29.8108 29.6604 29.8406 29.6364 29.8669C29.1162 30.4393 29.1165 31.3133 29.637 31.8853C29.6609 31.9117 29.6907 31.9415 29.7502 32.0009C29.8098 32.0604 29.8395 32.0902 29.8659 32.1141C30.4381 32.6341 31.3118 32.634 31.8838 32.1138C31.9102 32.0898 31.9399 32.0601 31.9994 32.0006L32.7497 31.2503M32 27.5001C30.5 25.9999 28.25 27.5014 26.75 29.0001H26M24.5 29.0001H26M26 29.0001V35M38 35V37.25H39.5M38 35H35.8787M34.25 32.75L35.375 33.875C35.4347 33.9348 35.4646 33.9647 35.4886 33.9911C36.0087 34.5632 36.0087 35.4369 35.4886 36.009C35.4646 36.0354 35.4347 36.0653 35.375 36.125C35.3153 36.1848 35.2854 36.2147 35.2589 36.2387C34.6868 36.7587 33.8132 36.7587 33.2411 36.2387C33.2146 36.2147 33.1847 36.1848 33.125 36.125L32.75 35.75C32.3411 36.159 32.1366 36.3635 31.916 36.4728C31.4964 36.6807 31.0036 36.6807 30.584 36.4728C30.3634 36.3635 30.1589 36.159 29.75 35.75C29.2331 36.4392 28.1717 36.3435 27.7865 35.573L27.5 35H26M26 35V37.25H24.5" stroke="#1A1D27" stroke-width="1.5" stroke-linecap="round" stroke-linejoin="round"/>
<path d="M17.1378 78V64.9091H22.3026C23.2955 64.9091 24.1413 65.0987 24.8402 65.478C25.5391 65.853 26.0717 66.375 26.4382 67.044C26.8089 67.7088 26.9943 68.4759 26.9943 69.3452C26.9943 70.2145 26.8068 70.9815 26.4318 71.6463C26.0568 72.3111 25.5135 72.8288 24.8018 73.1996C24.0945 73.5703 23.2379 73.7557 22.2322 73.7557H18.9403V71.5376H21.7848C22.3175 71.5376 22.7564 71.446 23.1016 71.2628C23.451 71.0753 23.7109 70.8175 23.8814 70.4893C24.0561 70.157 24.1435 69.7756 24.1435 69.3452C24.1435 68.9105 24.0561 68.5312 23.8814 68.2074C23.7109 67.8793 23.451 67.6257 23.1016 67.4467C22.7521 67.2635 22.3089 67.1719 21.772 67.1719H19.9055V78H17.1378ZM30.917 78.1854C30.2906 78.1854 29.7323 78.0767 29.2423 77.8594C28.7522 77.6378 28.3644 77.3118 28.0789 76.8814C27.7977 76.4467 27.657 75.9055 27.657 75.2578C27.657 74.7124 27.7572 74.2543 27.9575 73.8835C28.1578 73.5128 28.4305 73.2145 28.7757 72.9886C29.1208 72.7628 29.5129 72.5923 29.9518 72.4773C30.395 72.3622 30.8595 72.2812 31.3453 72.2344C31.9163 72.1747 32.3765 72.1193 32.7259 72.0682C33.0754 72.0128 33.3289 71.9318 33.4866 71.8253C33.6443 71.7187 33.7231 71.5611 33.7231 71.3523V71.3139C33.7231 70.9091 33.5953 70.5959 33.3396 70.3743C33.0882 70.1527 32.7302 70.0419 32.2657 70.0419C31.7757 70.0419 31.3857 70.1506 31.096 70.3679C30.8062 70.581 30.6144 70.8494 30.5207 71.1733L28.0022 70.9688C28.1301 70.3722 28.3815 69.8565 28.7565 69.4219C29.1315 68.983 29.6151 68.6463 30.2075 68.4119C30.8041 68.1733 31.4944 68.054 32.2785 68.054C32.8239 68.054 33.346 68.1179 33.8445 68.2457C34.3474 68.3736 34.7927 68.5717 35.1805 68.8402C35.5725 69.1087 35.8815 69.4538 36.1073 69.8757C36.3332 70.2933 36.4461 70.794 36.4461 71.3778V78H33.8637V76.6385H33.787C33.6293 76.9453 33.4184 77.2159 33.1542 77.4503C32.89 77.6804 32.5725 77.8615 32.2018 77.9936C31.8311 78.1214 31.4028 78.1854 30.917 78.1854ZM31.6968 76.3061C32.0974 76.3061 32.4511 76.2273 32.7579 76.0696C33.0647 75.9077 33.3055 75.6903 33.4802 75.4176C33.6549 75.1449 33.7423 74.8359 33.7423 74.4908V73.4489C33.657 73.5043 33.5399 73.5554 33.3907 73.6023C33.2458 73.6449 33.0818 73.6854 32.8985 73.7237C32.7153 73.7578 32.532 73.7898 32.3488 73.8196C32.1656 73.8452 31.9994 73.8686 31.8502 73.8899C31.5306 73.9368 31.2515 74.0114 31.0129 74.1136C30.7742 74.2159 30.5889 74.3544 30.4568 74.5291C30.3247 74.6996 30.2586 74.9126 30.2586 75.1683C30.2586 75.5391 30.3928 75.8224 30.6613 76.0185C30.934 76.2102 31.2792 76.3061 31.6968 76.3061ZM40.666 75.1747L40.6724 71.9084H41.0687L44.2136 68.1818H47.3393L43.1142 73.1165H42.4686L40.666 75.1747ZM38.1987 78V64.9091H40.9217V78H38.1987ZM44.335 78L41.4458 73.7237L43.2612 71.7997L47.5247 78H44.335ZM51.115 78.1854C50.4885 78.1854 49.9303 78.0767 49.4402 77.8594C48.9502 77.6378 48.5624 77.3118 48.2769 76.8814C47.9956 76.4467 47.855 75.9055 47.855 75.2578C47.855 74.7124 47.9552 74.2543 48.1554 73.8835C48.3557 73.5128 48.6285 73.2145 48.9736 72.9886C49.3188 72.7628 49.7108 72.5923 50.1498 72.4773C50.5929 72.3622 51.0574 72.2812 51.5432 72.2344C52.1142 72.1747 52.5745 72.1193 52.9239 72.0682C53.2733 72.0128 53.5269 71.9318 53.6846 71.8253C53.8422 71.7187 53.9211 71.5611 53.9211 71.3523V71.3139C53.9211 70.9091 53.7932 70.5959 53.5375 70.3743C53.2861 70.1527 52.9282 70.0419 52.4637 70.0419C51.9736 70.0419 51.5837 70.1506 51.2939 70.3679C51.0042 70.581 50.8124 70.8494 50.7187 71.1733L48.2002 70.9688C48.328 70.3722 48.5794 69.8565 48.9544 69.4219C49.3294 68.983 49.8131 68.6463 50.4054 68.4119C51.002 68.1733 51.6924 68.054 52.4765 68.054C53.0219 68.054 53.5439 68.1179 54.0425 68.2457C54.5454 68.3736 54.9907 68.5717 55.3785 68.8402C55.7705 69.1087 56.0794 69.4538 56.3053 69.8757C56.5312 70.2933 56.6441 70.794 56.6441 71.3778V78H54.0617V76.6385H53.985C53.8273 76.9453 53.6164 77.2159 53.3522 77.4503C53.088 77.6804 52.7705 77.8615 52.3998 77.9936C52.029 78.1214 51.6008 78.1854 51.115 78.1854ZM51.8948 76.3061C52.2954 76.3061 52.649 76.2273 52.9559 76.0696C53.2627 75.9077 53.5035 75.6903 53.6782 75.4176C53.8529 75.1449 53.9402 74.8359 53.9402 74.4908V73.4489C53.855 73.5043 53.7378 73.5554 53.5887 73.6023C53.4438 73.6449 53.2797 73.6854 53.0965 73.7237C52.9133 73.7578 52.73 73.7898 52.5468 73.8196C52.3635 73.8452 52.1973 73.8686 52.0482 73.8899C51.7286 73.9368 51.4495 74.0114 51.2108 74.1136C50.9722 74.2159 50.7868 74.3544 50.6547 74.5291C50.5226 74.6996 50.4566 74.9126 50.4566 75.1683C50.4566 75.5391 50.5908 75.8224 50.8593 76.0185C51.132 76.2102 51.4772 76.3061 51.8948 76.3061ZM61.1197 64.9091V78H58.3966V64.9091H61.1197ZM62.9409 81.6818V68.1818H65.6256V69.831H65.7471C65.8664 69.5668 66.039 69.2983 66.2648 69.0256C66.4949 68.7486 66.7932 68.5185 67.1597 68.3352C67.5304 68.1477 67.9907 68.054 68.5404 68.054C69.2563 68.054 69.9168 68.2415 70.5219 68.6165C71.127 68.9872 71.6107 69.5476 71.9729 70.2976C72.3351 71.0433 72.5162 71.9787 72.5162 73.1037C72.5162 74.1989 72.3394 75.1236 71.9857 75.8778C71.6363 76.6278 71.159 77.1967 70.5539 77.5845C69.953 77.968 69.2797 78.1598 68.534 78.1598C68.0056 78.1598 67.556 78.0724 67.1853 77.8977C66.8188 77.723 66.5184 77.5036 66.284 77.2393C66.0496 76.9709 65.8706 76.7003 65.7471 76.4276H65.664V81.6818H62.9409ZM65.6064 73.0909C65.6064 73.6747 65.6874 74.1839 65.8493 74.6186C66.0113 75.0533 66.2456 75.392 66.5525 75.6349C66.8593 75.8736 67.2321 75.9929 67.6711 75.9929C68.1142 75.9929 68.4892 75.8714 68.7961 75.6286C69.1029 75.3814 69.3351 75.0405 69.4928 74.6058C69.6547 74.1669 69.7357 73.6619 69.7357 73.0909C69.7357 72.5241 69.6569 72.0256 69.4992 71.5952C69.3415 71.1648 69.1093 70.8281 68.8025 70.5852C68.4956 70.3423 68.1185 70.2209 67.6711 70.2209C67.2279 70.2209 66.8529 70.3381 66.5461 70.5724C66.2435 70.8068 66.0113 71.1392 65.8493 71.5696C65.6874 72 65.6064 72.5071 65.6064 73.0909ZM78.4076 78.1918C77.4148 78.1918 76.5561 77.9808 75.8317 77.5589C75.1115 77.1328 74.5554 76.5405 74.1633 75.782C73.7713 75.0192 73.5753 74.1349 73.5753 73.1293C73.5753 72.1151 73.7713 71.2287 74.1633 70.4702C74.5554 69.7074 75.1115 69.1151 75.8317 68.6932C76.5561 68.267 77.4148 68.054 78.4076 68.054C79.4005 68.054 80.2571 68.267 80.9773 68.6932C81.7017 69.1151 82.2599 69.7074 82.652 70.4702C83.044 71.2287 83.24 72.1151 83.24 73.1293C83.24 74.1349 83.044 75.0192 82.652 75.782C82.2599 76.5405 81.7017 77.1328 80.9773 77.5589C80.2571 77.9808 79.4005 78.1918 78.4076 78.1918ZM78.4204 76.0824C78.8721 76.0824 79.2493 75.9545 79.5518 75.6989C79.8544 75.4389 80.0824 75.0852 80.2358 74.6378C80.3934 74.1903 80.4723 73.6811 80.4723 73.1101C80.4723 72.5391 80.3934 72.0298 80.2358 71.5824C80.0824 71.1349 79.8544 70.7812 79.5518 70.5213C79.2493 70.2614 78.8721 70.1314 78.4204 70.1314C77.9645 70.1314 77.5809 70.2614 77.2699 70.5213C76.963 70.7812 76.7308 71.1349 76.5731 71.5824C76.4197 72.0298 76.343 72.5391 76.343 73.1101C76.343 73.6811 76.4197 74.1903 76.5731 74.6378C76.7308 75.0852 76.963 75.4389 77.2699 75.6989C77.5809 75.9545 77.9645 76.0824 78.4204 76.0824ZM84.6506 68.1818H87.3736V78.4858C87.3736 79.2443 87.2245 79.858 86.9262 80.3267C86.6279 80.7955 86.1996 81.1385 85.6414 81.3558C85.0874 81.5732 84.4248 81.6818 83.6535 81.6818C83.5597 81.6818 83.4702 81.6797 83.385 81.6754C83.2955 81.6754 83.2018 81.6733 83.1038 81.669V79.5405C83.1762 79.5447 83.2401 79.5469 83.2955 79.5469C83.3467 79.5511 83.4021 79.5533 83.4617 79.5533C83.9006 79.5533 84.2075 79.4595 84.3822 79.272C84.5611 79.0888 84.6506 78.8118 84.6506 78.4411V68.1818ZM86.0057 66.9162C85.6052 66.9162 85.26 66.782 84.9702 66.5135C84.6805 66.2408 84.5356 65.9148 84.5356 65.5355C84.5356 65.1605 84.6805 64.8388 84.9702 64.5703C85.26 64.2976 85.6052 64.1612 86.0057 64.1612C86.4148 64.1612 86.7621 64.2976 87.0477 64.5703C87.3374 64.8388 87.4823 65.1605 87.4823 65.5355C87.4823 65.9148 87.3374 66.2408 87.0477 66.5135C86.7621 66.782 86.4148 66.9162 86.0057 66.9162ZM95.4911 73.8196V68.1818H98.2141V78H95.5998V76.2166H95.4975C95.2759 76.7919 94.9073 77.2543 94.3917 77.6037C93.8803 77.9531 93.256 78.1278 92.5188 78.1278C91.8625 78.1278 91.2851 77.9787 90.7866 77.6804C90.288 77.3821 89.8981 76.9581 89.6168 76.4084C89.3398 75.8587 89.1992 75.2003 89.1949 74.4332V68.1818H91.9179V73.9474C91.9222 74.527 92.0777 74.9851 92.3846 75.3217C92.6914 75.6584 93.1026 75.8267 93.6182 75.8267C93.9464 75.8267 94.2532 75.7521 94.5387 75.603C94.8242 75.4496 95.0543 75.2237 95.229 74.9254C95.408 74.6271 95.4954 74.2585 95.4911 73.8196ZM100.032 78V68.1818H102.627V69.9141H102.742C102.947 69.3388 103.288 68.8849 103.765 68.5526C104.242 68.2202 104.813 68.054 105.478 68.054C106.152 68.054 106.725 68.2223 107.198 68.5589C107.671 68.8913 107.986 69.343 108.144 69.9141H108.246C108.446 69.3516 108.808 68.902 109.333 68.5653C109.861 68.2244 110.485 68.054 111.205 68.054C112.122 68.054 112.865 68.3459 113.436 68.9297C114.012 69.5092 114.299 70.3317 114.299 71.397V78H111.583V71.9339C111.583 71.3885 111.438 70.9794 111.148 70.7067C110.858 70.4339 110.496 70.2976 110.061 70.2976C109.567 70.2976 109.181 70.4553 108.904 70.7706C108.627 71.0817 108.489 71.4929 108.489 72.0043V78H105.849V71.8764C105.849 71.3949 105.71 71.0114 105.433 70.7259C105.161 70.4403 104.801 70.2976 104.353 70.2976C104.051 70.2976 103.778 70.3743 103.535 70.5277C103.296 70.6768 103.107 70.8878 102.966 71.1605C102.826 71.429 102.755 71.7443 102.755 72.1065V78H100.032ZM122.386 73.8196V68.1818H125.109V78H122.495V76.2166H122.393C122.171 76.7919 121.803 77.2543 121.287 77.6037C120.776 77.9531 120.151 78.1278 119.414 78.1278C118.758 78.1278 118.18 77.9787 117.682 77.6804C117.183 77.3821 116.793 76.9581 116.512 76.4084C116.235 75.8587 116.094 75.2003 116.09 74.4332V68.1818H118.813V73.9474C118.817 74.527 118.973 74.9851 119.28 75.3217C119.587 75.6584 119.998 75.8267 120.513 75.8267C120.842 75.8267 121.148 75.7521 121.434 75.603C121.719 75.4496 121.95 75.2237 122.124 74.9254C122.303 74.6271 122.391 74.2585 122.386 73.8196ZM25.2557 92.9815L22.7628 93.1349C22.7202 92.9219 22.6286 92.7301 22.4879 92.5597C22.3473 92.3849 22.1619 92.2464 21.9318 92.1442C21.706 92.0376 21.4354 91.9844 21.12 91.9844C20.6982 91.9844 20.3423 92.0739 20.0526 92.2528C19.7628 92.4276 19.6179 92.6619 19.6179 92.956C19.6179 93.1903 19.7116 93.3885 19.8991 93.5504C20.0866 93.7124 20.4084 93.8423 20.8643 93.9403L22.6413 94.2983C23.5959 94.4943 24.3075 94.8097 24.7763 95.2443C25.245 95.679 25.4794 96.25 25.4794 96.9574C25.4794 97.6009 25.2898 98.1655 24.9105 98.6513C24.5355 99.1371 24.0199 99.5163 23.3636 99.7891C22.7116 100.058 21.9595 100.192 21.1072 100.192C19.8075 100.192 18.772 99.9212 18.0007 99.38C17.2337 98.8345 16.7841 98.093 16.652 97.1555L19.3303 97.0149C19.4112 97.4112 19.6072 97.7138 19.9183 97.9226C20.2294 98.1271 20.6278 98.2294 21.1136 98.2294C21.5909 98.2294 21.9744 98.1378 22.2642 97.9545C22.5582 97.767 22.7074 97.5263 22.7116 97.2322C22.7074 96.9851 22.603 96.7827 22.3984 96.625C22.1939 96.4631 21.8786 96.3395 21.4524 96.2543L19.7521 95.9155C18.7933 95.7237 18.0795 95.3913 17.6108 94.9183C17.1463 94.4453 16.9141 93.8423 16.9141 93.1094C16.9141 92.4787 17.0845 91.9354 17.4254 91.4794C17.7706 91.0234 18.2543 90.6719 18.8764 90.4247C19.5028 90.1776 20.2358 90.054 21.0753 90.054C22.3153 90.054 23.2912 90.3161 24.0028 90.8402C24.7188 91.3643 25.1364 92.0781 25.2557 92.9815ZM29.5571 94.3239V100H26.8341V90.1818H29.4292V91.9141H29.5443C29.7616 91.343 30.126 90.8913 30.6373 90.5589C31.1487 90.2223 31.7687 90.054 32.4974 90.054C33.1792 90.054 33.7737 90.2031 34.2808 90.5014C34.7879 90.7997 35.1821 91.2259 35.4633 91.7798C35.7446 92.3295 35.8852 92.9858 35.8852 93.7486V100H33.1622V94.2344C33.1665 93.6335 33.013 93.1648 32.702 92.8281C32.3909 92.4872 31.9626 92.3168 31.4172 92.3168C31.0507 92.3168 30.7268 92.3956 30.4456 92.5533C30.1686 92.7109 29.9513 92.9411 29.7936 93.2436C29.6402 93.5419 29.5613 93.902 29.5571 94.3239ZM37.6713 100V90.1818H40.3943V100H37.6713ZM39.0392 88.9162C38.6344 88.9162 38.2871 88.782 37.9973 88.5135C37.7118 88.2408 37.5691 87.9148 37.5691 87.5355C37.5691 87.1605 37.7118 86.8388 37.9973 86.5703C38.2871 86.2976 38.6344 86.1612 39.0392 86.1612C39.4441 86.1612 39.7892 86.2976 40.0747 86.5703C40.3645 86.8388 40.5094 87.1605 40.5094 87.5355C40.5094 87.9148 40.3645 88.2408 40.0747 88.5135C39.7892 88.782 39.4441 88.9162 39.0392 88.9162ZM46.6901 100.192C45.6801 100.192 44.8108 99.9872 44.0821 99.5781C43.3577 99.1648 42.7994 98.581 42.4074 97.8267C42.0153 97.0682 41.8193 96.1712 41.8193 95.1357C41.8193 94.1257 42.0153 93.2393 42.4074 92.4766C42.7994 91.7138 43.3513 91.1193 44.0629 90.6932C44.7788 90.267 45.6183 90.054 46.5814 90.054C47.2291 90.054 47.8321 90.1584 48.3903 90.3672C48.9528 90.5717 49.4429 90.8807 49.8605 91.294C50.2824 91.7074 50.6105 92.2273 50.8449 92.8537C51.0793 93.4759 51.1965 94.2045 51.1965 95.0398V95.7876H42.906V94.1001H48.6332C48.6332 93.7081 48.548 93.3608 48.3776 93.0582C48.2071 92.7557 47.9706 92.5192 47.668 92.3487C47.3698 92.174 47.0225 92.0866 46.6261 92.0866C46.2128 92.0866 45.8463 92.1825 45.5267 92.3743C45.2114 92.5618 44.9642 92.8153 44.7852 93.1349C44.6063 93.4503 44.5146 93.8018 44.5104 94.1896V95.794C44.5104 96.2798 44.5999 96.6996 44.7788 97.0533C44.9621 97.407 45.2199 97.6797 45.5523 97.8714C45.8847 98.0632 46.2788 98.1591 46.7348 98.1591C47.0374 98.1591 47.3144 98.1165 47.5658 98.0312C47.8172 97.946 48.0324 97.8182 48.2114 97.6477C48.3903 97.4773 48.5267 97.2685 48.6205 97.0213L51.1389 97.1875C51.0111 97.7926 50.749 98.321 50.3527 98.7727C49.9607 99.2202 49.4536 99.5696 48.8314 99.821C48.2135 100.068 47.4997 100.192 46.6901 100.192ZM57.0367 103.886C56.1546 103.886 55.3982 103.765 54.7676 103.522C54.1411 103.283 53.6426 102.957 53.2718 102.544C52.9011 102.131 52.6603 101.666 52.5495 101.151L55.068 100.812C55.1447 101.008 55.2661 101.191 55.4323 101.362C55.5985 101.532 55.818 101.668 56.0907 101.771C56.3677 101.877 56.7044 101.93 57.1007 101.93C57.693 101.93 58.1809 101.786 58.5644 101.496C58.9522 101.21 59.1461 100.731 59.1461 100.058V98.2614H59.0311C58.9117 98.5341 58.7328 98.7919 58.4941 99.0348C58.2555 99.2777 57.9487 99.4759 57.5737 99.6293C57.1987 99.7827 56.7512 99.8594 56.2313 99.8594C55.4941 99.8594 54.823 99.6889 54.2178 99.348C53.617 99.0028 53.1376 98.4766 52.7796 97.7692C52.4259 97.0575 52.2491 96.1584 52.2491 95.0717C52.2491 93.9595 52.4302 93.0305 52.7924 92.2848C53.1546 91.5391 53.6362 90.9808 54.237 90.6101C54.8421 90.2393 55.5048 90.054 56.225 90.054C56.7747 90.054 57.2349 90.1477 57.6056 90.3352C57.9764 90.5185 58.2747 90.7486 58.5005 91.0256C58.7306 91.2983 58.9075 91.5668 59.0311 91.831H59.1333V90.1818H61.8372V100.096C61.8372 100.931 61.6326 101.63 61.2235 102.192C60.8144 102.755 60.2477 103.177 59.5232 103.458C58.8031 103.744 57.9742 103.886 57.0367 103.886ZM57.0943 97.8139C57.5332 97.8139 57.9039 97.7053 58.2065 97.4879C58.5133 97.2663 58.7477 96.951 58.9096 96.5419C59.0758 96.1286 59.1589 95.6342 59.1589 95.0589C59.1589 94.4837 59.0779 93.9851 58.916 93.5632C58.7541 93.1371 58.5197 92.8068 58.2129 92.5724C57.9061 92.3381 57.5332 92.2209 57.0943 92.2209C56.6468 92.2209 56.2697 92.3423 55.9629 92.5852C55.6561 92.8239 55.4238 93.1562 55.2661 93.5824C55.1085 94.0085 55.0296 94.5007 55.0296 95.0589C55.0296 95.6257 55.1085 96.1158 55.2661 96.5291C55.4281 96.9382 55.6603 97.2557 55.9629 97.4815C56.2697 97.7031 56.6468 97.8139 57.0943 97.8139ZM71.8131 92.9815L69.3202 93.1349C69.2776 92.9219 69.186 92.7301 69.0453 92.5597C68.9047 92.3849 68.7194 92.2464 68.4892 92.1442C68.2634 92.0376 67.9928 91.9844 67.6775 91.9844C67.2556 91.9844 66.8998 92.0739 66.61 92.2528C66.3202 92.4276 66.1753 92.6619 66.1753 92.956C66.1753 93.1903 66.2691 93.3885 66.4566 93.5504C66.6441 93.7124 66.9658 93.8423 67.4218 93.9403L69.1988 94.2983C70.1533 94.4943 70.865 94.8097 71.3337 95.2443C71.8025 95.679 72.0368 96.25 72.0368 96.9574C72.0368 97.6009 71.8472 98.1655 71.4679 98.6513C71.0929 99.1371 70.5773 99.5163 69.9211 99.7891C69.2691 100.058 68.5169 100.192 67.6647 100.192C66.365 100.192 65.3294 99.9212 64.5581 99.38C63.7911 98.8345 63.3415 98.093 63.2094 97.1555L65.8877 97.0149C65.9686 97.4112 66.1647 97.7138 66.4757 97.9226C66.7868 98.1271 67.1853 98.2294 67.6711 98.2294C68.1483 98.2294 68.5319 98.1378 68.8216 97.9545C69.1157 97.767 69.2648 97.5263 69.2691 97.2322C69.2648 96.9851 69.1604 96.7827 68.9559 96.625C68.7513 96.4631 68.436 96.3395 68.0098 96.2543L66.3096 95.9155C65.3507 95.7237 64.637 95.3913 64.1682 94.9183C63.7037 94.4453 63.4715 93.8423 63.4715 93.1094C63.4715 92.4787 63.6419 91.9354 63.9828 91.4794C64.328 91.0234 64.8117 90.6719 65.4338 90.4247C66.0603 90.1776 66.7932 90.054 67.6327 90.054C68.8728 90.054 69.8486 90.3161 70.5603 90.8402C71.2762 91.3643 71.6938 92.0781 71.8131 92.9815ZM66.4054 86.1037L67.6902 87.6634L68.975 86.1037H71.2953V86.1932L68.7002 89.0057H66.6739L64.0851 86.1932V86.1037H66.4054ZM76.1912 100.185C75.5648 100.185 75.0065 100.077 74.5165 99.8594C74.0264 99.6378 73.6387 99.3118 73.3531 98.8814C73.0719 98.4467 72.9313 97.9055 72.9313 97.2578C72.9313 96.7124 73.0314 96.2543 73.2317 95.8835C73.432 95.5128 73.7047 95.2145 74.0499 94.9886C74.395 94.7628 74.7871 94.5923 75.226 94.4773C75.6692 94.3622 76.1337 94.2812 76.6195 94.2344C77.1905 94.1747 77.6507 94.1193 78.0002 94.0682C78.3496 94.0128 78.6031 93.9318 78.7608 93.8253C78.9185 93.7187 78.9973 93.5611 78.9973 93.3523V93.3139C78.9973 92.9091 78.8695 92.5959 78.6138 92.3743C78.3624 92.1527 78.0044 92.0419 77.5399 92.0419C77.0499 92.0419 76.66 92.1506 76.3702 92.3679C76.0804 92.581 75.8887 92.8494 75.7949 93.1733L73.2764 92.9688C73.4043 92.3722 73.6557 91.8565 74.0307 91.4219C74.4057 90.983 74.8894 90.6463 75.4817 90.4119C76.0783 90.1733 76.7686 90.054 77.5527 90.054C78.0982 90.054 78.6202 90.1179 79.1188 90.2457C79.6216 90.3736 80.0669 90.5717 80.4547 90.8402C80.8467 91.1087 81.1557 91.4538 81.3815 91.8757C81.6074 92.2933 81.7203 92.794 81.7203 93.3778V100H79.1379V98.6385H79.0612C78.9036 98.9453 78.6926 99.2159 78.4284 99.4503C78.1642 99.6804 77.8467 99.8615 77.476 99.9936C77.1053 100.121 76.677 100.185 76.1912 100.185ZM76.971 98.3061C77.3716 98.3061 77.7253 98.2273 78.0321 98.0696C78.3389 97.9077 78.5797 97.6903 78.7544 97.4176C78.9291 97.1449 79.0165 96.8359 79.0165 96.4908V95.4489C78.9313 95.5043 78.8141 95.5554 78.6649 95.6023C78.52 95.6449 78.356 95.6854 78.1727 95.7237C77.9895 95.7578 77.8063 95.7898 77.623 95.8196C77.4398 95.8452 77.2736 95.8686 77.1244 95.8899C76.8048 95.9368 76.5257 96.0114 76.2871 96.1136C76.0485 96.2159 75.8631 96.3544 75.731 96.5291C75.5989 96.6996 75.5328 96.9126 75.5328 97.1683C75.5328 97.5391 75.6671 97.8224 75.9355 98.0185C76.2083 98.2102 76.5534 98.3061 76.971 98.3061ZM86.1959 94.3239V100H83.4729V90.1818H86.0681V91.9141H86.1831C86.4005 91.343 86.7648 90.8913 87.2762 90.5589C87.7875 90.2223 88.4076 90.054 89.1363 90.054C89.8181 90.054 90.4125 90.2031 90.9196 90.5014C91.4267 90.7997 91.8209 91.2259 92.1022 91.7798C92.3834 92.3295 92.524 92.9858 92.524 93.7486V100H89.801V94.2344C89.8053 93.6335 89.6519 93.1648 89.3408 92.8281C89.0297 92.4872 88.6015 92.3168 88.056 92.3168C87.6895 92.3168 87.3657 92.3956 87.0844 92.5533C86.8074 92.7109 86.5901 92.9411 86.4324 93.2436C86.279 93.5419 86.2002 93.902 86.1959 94.3239ZM97.1099 100.185C96.4835 100.185 95.9252 100.077 95.4352 99.8594C94.9451 99.6378 94.5573 99.3118 94.2718 98.8814C93.9906 98.4467 93.8499 97.9055 93.8499 97.2578C93.8499 96.7124 93.9501 96.2543 94.1504 95.8835C94.3506 95.5128 94.6234 95.2145 94.9685 94.9886C95.3137 94.7628 95.7058 94.5923 96.1447 94.4773C96.5879 94.3622 97.0524 94.2812 97.5381 94.2344C98.1092 94.1747 98.5694 94.1193 98.9188 94.0682C99.2683 94.0128 99.5218 93.9318 99.6795 93.8253C99.8372 93.7187 99.916 93.5611 99.916 93.3523V93.3139C99.916 92.9091 99.7881 92.5959 99.5325 92.3743C99.281 92.1527 98.9231 92.0419 98.4586 92.0419C97.9685 92.0419 97.5786 92.1506 97.2889 92.3679C96.9991 92.581 96.8073 92.8494 96.7136 93.1733L94.1951 92.9688C94.323 92.3722 94.5744 91.8565 94.9494 91.4219C95.3244 90.983 95.808 90.6463 96.4004 90.4119C96.997 90.1733 97.6873 90.054 98.4714 90.054C99.0168 90.054 99.5389 90.1179 100.037 90.2457C100.54 90.3736 100.986 90.5717 101.373 90.8402C101.765 91.1087 102.074 91.4538 102.3 91.8757C102.526 92.2933 102.639 92.794 102.639 93.3778V100H100.057V98.6385H99.9799C99.8222 98.9453 99.6113 99.2159 99.3471 99.4503C99.0829 99.6804 98.7654 99.8615 98.3947 99.9936C98.0239 100.121 97.5957 100.185 97.1099 100.185ZM97.8897 98.3061C98.2903 98.3061 98.644 98.2273 98.9508 98.0696C99.2576 97.9077 99.4984 97.6903 99.6731 97.4176C99.8478 97.1449 99.9352 96.8359 99.9352 96.4908V95.4489C99.8499 95.5043 99.7328 95.5554 99.5836 95.6023C99.4387 95.6449 99.2747 95.6854 99.0914 95.7237C98.9082 95.7578 98.7249 95.7898 98.5417 95.8196C98.3585 95.8452 98.1923 95.8686 98.0431 95.8899C97.7235 95.9368 97.4444 96.0114 97.2058 96.1136C96.9671 96.2159 96.7818 96.3544 96.6497 96.5291C96.5176 96.6996 96.4515 96.9126 96.4515 97.1683C96.4515 97.5391 96.5857 97.8224 96.8542 98.0185C97.1269 98.2102 97.4721 98.3061 97.8897 98.3061ZM114.494 95.8196V90.1818H117.217V100H114.602V98.2166H114.5C114.279 98.7919 113.91 99.2543 113.394 99.6037C112.883 99.9531 112.259 100.128 111.521 100.128C110.865 100.128 110.288 99.9787 109.789 99.6804C109.291 99.3821 108.901 98.9581 108.619 98.4084C108.342 97.8587 108.202 97.2003 108.198 96.4332V90.1818H110.921V95.9474C110.925 96.527 111.08 96.9851 111.387 97.3217C111.694 97.6584 112.105 97.8267 112.621 97.8267C112.949 97.8267 113.256 97.7521 113.541 97.603C113.827 97.4496 114.057 97.2237 114.232 96.9254C114.411 96.6271 114.498 96.2585 114.494 95.8196ZM121.758 94.3239V100H119.035V90.1818H121.63V91.9141H121.745C121.962 91.343 122.327 90.8913 122.838 90.5589C123.349 90.2223 123.97 90.054 124.698 90.054C125.38 90.054 125.974 90.2031 126.482 90.5014C126.989 90.7997 127.383 91.2259 127.664 91.7798C127.945 92.3295 128.086 92.9858 128.086 93.7486V100H125.363V94.2344C125.367 93.6335 125.214 93.1648 124.903 92.8281C124.592 92.4872 124.163 92.3168 123.618 92.3168C123.251 92.3168 122.928 92.3956 122.646 92.5533C122.369 92.7109 122.152 92.9411 121.994 93.2436C121.841 93.5419 121.762 93.902 121.758 94.3239ZM25.2557 114.982L22.7628 115.135C22.7202 114.922 22.6286 114.73 22.4879 114.56C22.3473 114.385 22.1619 114.246 21.9318 114.144C21.706 114.038 21.4354 113.984 21.12 113.984C20.6982 113.984 20.3423 114.074 20.0526 114.253C19.7628 114.428 19.6179 114.662 19.6179 114.956C19.6179 115.19 19.7116 115.388 19.8991 115.55C20.0866 115.712 20.4084 115.842 20.8643 115.94L22.6413 116.298C23.5959 116.494 24.3075 116.81 24.7763 117.244C25.245 117.679 25.4794 118.25 25.4794 118.957C25.4794 119.601 25.2898 120.165 24.9105 120.651C24.5355 121.137 24.0199 121.516 23.3636 121.789C22.7116 122.058 21.9595 122.192 21.1072 122.192C19.8075 122.192 18.772 121.921 18.0007 121.38C17.2337 120.835 16.7841 120.093 16.652 119.156L19.3303 119.015C19.4112 119.411 19.6072 119.714 19.9183 119.923C20.2294 120.127 20.6278 120.229 21.1136 120.229C21.5909 120.229 21.9744 120.138 22.2642 119.955C22.5582 119.767 22.7074 119.526 22.7116 119.232C22.7074 118.985 22.603 118.783 22.3984 118.625C22.1939 118.463 21.8786 118.339 21.4524 118.254L19.7521 117.915C18.7933 117.724 18.0795 117.391 17.6108 116.918C17.1463 116.445 16.9141 115.842 16.9141 115.109C16.9141 114.479 17.0845 113.935 17.4254 113.479C17.7706 113.023 18.2543 112.672 18.8764 112.425C19.5028 112.178 20.2358 112.054 21.0753 112.054C22.3153 112.054 23.2912 112.316 24.0028 112.84C24.7188 113.364 25.1364 114.078 25.2557 114.982ZM29.6338 122.185C29.0074 122.185 28.4491 122.077 27.9591 121.859C27.469 121.638 27.0812 121.312 26.7957 120.881C26.5145 120.447 26.3738 119.906 26.3738 119.258C26.3738 118.712 26.474 118.254 26.6743 117.884C26.8746 117.513 27.1473 117.214 27.4925 116.989C27.8376 116.763 28.2297 116.592 28.6686 116.477C29.1118 116.362 29.5763 116.281 30.0621 116.234C30.6331 116.175 31.0933 116.119 31.4427 116.068C31.7922 116.013 32.0457 115.932 32.2034 115.825C32.3611 115.719 32.4399 115.561 32.4399 115.352V115.314C32.4399 114.909 32.3121 114.596 32.0564 114.374C31.805 114.153 31.447 114.042 30.9825 114.042C30.4925 114.042 30.1025 114.151 29.8128 114.368C29.523 114.581 29.3312 114.849 29.2375 115.173L26.719 114.969C26.8469 114.372 27.0983 113.857 27.4733 113.422C27.8483 112.983 28.3319 112.646 28.9243 112.412C29.5209 112.173 30.2112 112.054 30.9953 112.054C31.5407 112.054 32.0628 112.118 32.5613 112.246C33.0642 112.374 33.5095 112.572 33.8973 112.84C34.2893 113.109 34.5983 113.454 34.8241 113.876C35.05 114.293 35.1629 114.794 35.1629 115.378V122H32.5805V120.638H32.5038C32.3461 120.945 32.1352 121.216 31.871 121.45C31.6068 121.68 31.2893 121.862 30.9186 121.994C30.5478 122.121 30.1196 122.185 29.6338 122.185ZM30.4136 120.306C30.8142 120.306 31.1679 120.227 31.4747 120.07C31.7815 119.908 32.0223 119.69 32.197 119.418C32.3717 119.145 32.4591 118.836 32.4591 118.491V117.449C32.3738 117.504 32.2567 117.555 32.1075 117.602C31.9626 117.645 31.7986 117.685 31.6153 117.724C31.4321 117.758 31.2488 117.79 31.0656 117.82C30.8824 117.845 30.7162 117.869 30.567 117.89C30.2474 117.937 29.9683 118.011 29.7297 118.114C29.491 118.216 29.3057 118.354 29.1736 118.529C29.0415 118.7 28.9754 118.913 28.9754 119.168C28.9754 119.539 29.1096 119.822 29.3781 120.018C29.6508 120.21 29.996 120.306 30.4136 120.306ZM39.6385 116.324V122H36.9155V112.182H39.5106V113.914H39.6257C39.843 113.343 40.2074 112.891 40.7187 112.559C41.2301 112.222 41.8501 112.054 42.5788 112.054C43.2606 112.054 43.8551 112.203 44.3622 112.501C44.8693 112.8 45.2635 113.226 45.5447 113.78C45.826 114.33 45.9666 114.986 45.9666 115.749V122H43.2436V116.234C43.2479 115.634 43.0945 115.165 42.7834 114.828C42.4723 114.487 42.044 114.317 41.4986 114.317C41.1321 114.317 40.8082 114.396 40.527 114.553C40.25 114.711 40.0327 114.941 39.875 115.244C39.7216 115.542 39.6427 115.902 39.6385 116.324ZM39.402 126.193L40.1946 123.036H42.7131L41.3132 126.193H39.402ZM52.2272 122.192C51.2172 122.192 50.3479 121.987 49.6192 121.578C48.8948 121.165 48.3365 120.581 47.9445 119.827C47.5525 119.068 47.3564 118.171 47.3564 117.136C47.3564 116.126 47.5525 115.239 47.9445 114.477C48.3365 113.714 48.8884 113.119 49.6 112.693C50.316 112.267 51.1554 112.054 52.1185 112.054C52.7662 112.054 53.3692 112.158 53.9275 112.367C54.49 112.572 54.98 112.881 55.3976 113.294C55.8195 113.707 56.1476 114.227 56.382 114.854C56.6164 115.476 56.7336 116.205 56.7336 117.04V117.788H48.4431V116.1H54.1704C54.1704 115.708 54.0851 115.361 53.9147 115.058C53.7442 114.756 53.5077 114.519 53.2052 114.349C52.9069 114.174 52.5596 114.087 52.1633 114.087C51.7499 114.087 51.3834 114.183 51.0638 114.374C50.7485 114.562 50.5013 114.815 50.3223 115.135C50.1434 115.45 50.0517 115.802 50.0475 116.19V117.794C50.0475 118.28 50.137 118.7 50.316 119.053C50.4992 119.407 50.757 119.68 51.0894 119.871C51.4218 120.063 51.816 120.159 52.2719 120.159C52.5745 120.159 52.8515 120.116 53.1029 120.031C53.3543 119.946 53.5695 119.818 53.7485 119.648C53.9275 119.477 54.0638 119.268 54.1576 119.021L56.676 119.188C56.5482 119.793 56.2861 120.321 55.8898 120.773C55.4978 121.22 54.9907 121.57 54.3685 121.821C53.7506 122.068 53.0368 122.192 52.2272 122.192ZM58.1506 122V112.182H60.7457V113.914H60.8608C61.0653 113.339 61.4062 112.885 61.8835 112.553C62.3608 112.22 62.9318 112.054 63.5966 112.054C64.2699 112.054 64.843 112.222 65.316 112.559C65.7891 112.891 66.1044 113.343 66.2621 113.914H66.3643C66.5646 113.352 66.9268 112.902 67.451 112.565C67.9794 112.224 68.6037 112.054 69.3239 112.054C70.24 112.054 70.9837 112.346 71.5547 112.93C72.13 113.509 72.4176 114.332 72.4176 115.397V122H69.701V115.934C69.701 115.388 69.5561 114.979 69.2663 114.707C68.9766 114.434 68.6143 114.298 68.1797 114.298C67.6854 114.298 67.2997 114.455 67.0227 114.771C66.7457 115.082 66.6072 115.493 66.6072 116.004V122H63.9673V115.876C63.9673 115.395 63.8288 115.011 63.5518 114.726C63.2791 114.44 62.919 114.298 62.4716 114.298C62.169 114.298 61.8963 114.374 61.6534 114.528C61.4148 114.677 61.2251 114.888 61.0845 115.161C60.9439 115.429 60.8736 115.744 60.8736 116.107V122H58.1506ZM82.3776 114.982L79.8847 115.135C79.842 114.922 79.7504 114.73 79.6098 114.56C79.4692 114.385 79.2838 114.246 79.0537 114.144C78.8278 114.038 78.5572 113.984 78.2419 113.984C77.82 113.984 77.4642 114.074 77.1744 114.253C76.8847 114.428 76.7398 114.662 76.7398 114.956C76.7398 115.19 76.8335 115.388 77.021 115.55C77.2085 115.712 77.5303 115.842 77.9862 115.94L79.7632 116.298C80.7178 116.494 81.4294 116.81 81.8982 117.244C82.3669 117.679 82.6013 118.25 82.6013 118.957C82.6013 119.601 82.4116 120.165 82.0324 120.651C81.6574 121.137 81.1418 121.516 80.4855 121.789C79.8335 122.058 79.0814 122.192 78.2291 122.192C76.9294 122.192 75.8939 121.921 75.1226 121.38C74.3555 120.835 73.906 120.093 73.7739 119.156L76.4521 119.015C76.5331 119.411 76.7291 119.714 77.0402 119.923C77.3513 120.127 77.7497 120.229 78.2355 120.229C78.7128 120.229 79.0963 120.138 79.3861 119.955C79.6801 119.767 79.8293 119.526 79.8335 119.232C79.8293 118.985 79.7249 118.783 79.5203 118.625C79.3158 118.463 79.0004 118.339 78.5743 118.254L76.874 117.915C75.9152 117.724 75.2014 117.391 74.7327 116.918C74.2682 116.445 74.0359 115.842 74.0359 115.109C74.0359 114.479 74.2064 113.935 74.5473 113.479C74.8925 113.023 75.3761 112.672 75.9983 112.425C76.6247 112.178 77.3577 112.054 78.1972 112.054C79.4372 112.054 80.4131 112.316 81.1247 112.84C81.8406 113.364 82.2582 114.078 82.3776 114.982ZM76.9699 108.104L78.2547 109.663L79.5395 108.104H81.8598V108.193L79.2646 111.006H77.2384L74.6496 108.193V108.104H76.9699ZM86.7557 122.185C86.1292 122.185 85.571 122.077 85.0809 121.859C84.5909 121.638 84.2031 121.312 83.9176 120.881C83.6363 120.447 83.4957 119.906 83.4957 119.258C83.4957 118.712 83.5959 118.254 83.7961 117.884C83.9964 117.513 84.2692 117.214 84.6143 116.989C84.9595 116.763 85.3515 116.592 85.7905 116.477C86.2336 116.362 86.6981 116.281 87.1839 116.234C87.7549 116.175 88.2152 116.119 88.5646 116.068C88.914 116.013 89.1676 115.932 89.3253 115.825C89.4829 115.719 89.5618 115.561 89.5618 115.352V115.314C89.5618 114.909 89.4339 114.596 89.1782 114.374C88.9268 114.153 88.5689 114.042 88.1044 114.042C87.6143 114.042 87.2244 114.151 86.9346 114.368C86.6449 114.581 86.4531 114.849 86.3594 115.173L83.8409 114.969C83.9687 114.372 84.2201 113.857 84.5951 113.422C84.9701 112.983 85.4538 112.646 86.0461 112.412C86.6427 112.173 87.3331 112.054 88.1172 112.054C88.6626 112.054 89.1846 112.118 89.6832 112.246C90.1861 112.374 90.6314 112.572 91.0192 112.84C91.4112 113.109 91.7201 113.454 91.946 113.876C92.1718 114.293 92.2848 114.794 92.2848 115.378V122H89.7024V120.638H89.6257C89.468 120.945 89.2571 121.216 88.9929 121.45C88.7287 121.68 88.4112 121.862 88.0405 121.994C87.6697 122.121 87.2415 122.185 86.7557 122.185ZM87.5355 120.306C87.9361 120.306 88.2897 120.227 88.5966 120.07C88.9034 119.908 89.1442 119.69 89.3189 119.418C89.4936 119.145 89.5809 118.836 89.5809 118.491V117.449C89.4957 117.504 89.3785 117.555 89.2294 117.602C89.0845 117.645 88.9204 117.685 88.7372 117.724C88.554 117.758 88.3707 117.79 88.1875 117.82C88.0042 117.845 87.838 117.869 87.6889 117.89C87.3693 117.937 87.0902 118.011 86.8515 118.114C86.6129 118.216 86.4275 118.354 86.2954 118.529C86.1633 118.7 86.0973 118.913 86.0973 119.168C86.0973 119.539 86.2315 119.822 86.5 120.018C86.7727 120.21 87.1179 120.306 87.5355 120.306ZM96.7604 116.324V122H94.0374V112.182H96.6325V113.914H96.7476C96.9649 113.343 97.3293 112.891 97.8406 112.559C98.352 112.222 98.972 112.054 99.7007 112.054C100.383 112.054 100.977 112.203 101.484 112.501C101.991 112.8 102.385 113.226 102.667 113.78C102.948 114.33 103.088 114.986 103.088 115.749V122H100.365V116.234C100.37 115.634 100.216 115.165 99.9053 114.828C99.5942 114.487 99.1659 114.317 98.6205 114.317C98.254 114.317 97.9301 114.396 97.6489 114.553C97.3719 114.711 97.1545 114.941 96.9969 115.244C96.8435 115.542 96.7646 115.902 96.7604 116.324ZM107.674 122.185C107.048 122.185 106.49 122.077 106 121.859C105.51 121.638 105.122 121.312 104.836 120.881C104.555 120.447 104.414 119.906 104.414 119.258C104.414 118.712 104.515 118.254 104.715 117.884C104.915 117.513 105.188 117.214 105.533 116.989C105.878 116.763 106.27 116.592 106.709 116.477C107.152 116.362 107.617 116.281 108.103 116.234C108.674 116.175 109.134 116.119 109.483 116.068C109.833 116.013 110.086 115.932 110.244 115.825C110.402 115.719 110.48 115.561 110.48 115.352V115.314C110.48 114.909 110.353 114.596 110.097 114.374C109.846 114.153 109.488 114.042 109.023 114.042C108.533 114.042 108.143 114.151 107.853 114.368C107.564 114.581 107.372 114.849 107.278 115.173L104.76 114.969C104.887 114.372 105.139 113.857 105.514 113.422C105.889 112.983 106.372 112.646 106.965 112.412C107.561 112.173 108.252 112.054 109.036 112.054C109.581 112.054 110.103 112.118 110.602 112.246C111.105 112.374 111.55 112.572 111.938 112.84C112.33 113.109 112.639 113.454 112.865 113.876C113.091 114.293 113.203 114.794 113.203 115.378V122H110.621V120.638H110.544C110.387 120.945 110.176 121.216 109.912 121.45C109.647 121.68 109.33 121.862 108.959 121.994C108.588 122.121 108.16 122.185 107.674 122.185ZM108.454 120.306C108.855 120.306 109.208 120.227 109.515 120.07C109.822 119.908 110.063 119.69 110.238 119.418C110.412 119.145 110.5 118.836 110.5 118.491V117.449C110.414 117.504 110.297 117.555 110.148 117.602C110.003 117.645 109.839 117.685 109.656 117.724C109.473 117.758 109.289 117.79 109.106 117.82C108.923 117.845 108.757 117.869 108.608 117.89C108.288 117.937 108.009 118.011 107.77 118.114C107.532 118.216 107.346 118.354 107.214 118.529C107.082 118.7 107.016 118.913 107.016 119.168C107.016 119.539 107.15 119.822 107.419 120.018C107.691 120.21 108.037 120.306 108.454 120.306Z" fill="#1A1D27"/>
<path d="M17.0568 142V133.273H20.0057C20.6875 133.273 21.2472 133.389 21.6847 133.622C22.1222 133.852 22.446 134.169 22.6562 134.572C22.8665 134.976 22.9716 135.435 22.9716 135.949C22.9716 136.463 22.8665 136.919 22.6562 137.317C22.446 137.714 22.1236 138.027 21.6889 138.254C21.2543 138.479 20.6989 138.591 20.0227 138.591H17.6364V137.636H19.9886C20.4545 137.636 20.8295 137.568 21.1136 137.432C21.4006 137.295 21.608 137.102 21.7358 136.852C21.8665 136.599 21.9318 136.298 21.9318 135.949C21.9318 135.599 21.8665 135.294 21.7358 135.033C21.6051 134.771 21.3963 134.57 21.1094 134.428C20.8224 134.283 20.4432 134.21 19.9716 134.21H18.1136V142H17.0568ZM21.1648 138.08L23.3125 142H22.0852L19.9716 138.08H21.1648ZM27.2702 142.136C26.6396 142.136 26.0955 141.997 25.6381 141.719C25.1836 141.438 24.8327 141.045 24.5856 140.543C24.3413 140.037 24.2191 139.449 24.2191 138.778C24.2191 138.108 24.3413 137.517 24.5856 137.006C24.8327 136.491 25.1765 136.091 25.6168 135.804C26.06 135.514 26.5771 135.369 27.168 135.369C27.5089 135.369 27.8455 135.426 28.1779 135.54C28.5103 135.653 28.8129 135.838 29.0856 136.094C29.3583 136.347 29.5756 136.682 29.7376 137.099C29.8995 137.517 29.9805 138.031 29.9805 138.642V139.068H24.935V138.199H28.9577C28.9577 137.83 28.8839 137.5 28.7362 137.21C28.5913 136.92 28.3839 136.692 28.114 136.524C27.8469 136.357 27.5316 136.273 27.168 136.273C26.7674 136.273 26.4208 136.372 26.1282 136.571C25.8384 136.767 25.6154 137.023 25.4592 137.338C25.3029 137.653 25.2248 137.991 25.2248 138.352V138.932C25.2248 139.426 25.31 139.845 25.4805 140.189C25.6538 140.53 25.8938 140.79 26.2006 140.969C26.5075 141.145 26.864 141.233 27.2702 141.233C27.5344 141.233 27.7731 141.196 27.9862 141.122C28.2021 141.045 28.3881 140.932 28.5444 140.781C28.7006 140.628 28.8214 140.437 28.9066 140.21L29.8782 140.483C29.7759 140.812 29.604 141.102 29.3626 141.352C29.1211 141.599 28.8228 141.793 28.4677 141.932C28.1126 142.068 27.7134 142.136 27.2702 142.136ZM29.1112 133.273V134.125H25.1225V133.273H29.1112ZM32.4478 139.614L32.4308 138.369H32.6353L35.4989 135.455H36.7433L33.6921 138.54H33.6069L32.4478 139.614ZM31.5103 142V133.273H32.516V142H31.5103ZM35.6694 142L33.1126 138.761L33.8285 138.062L36.9478 142H35.6694ZM32.9677 144.898L33.445 142.69H34.4762L33.7518 144.898H32.9677ZM38.0376 142V135.455H39.0433V142H38.0376ZM38.549 134.364C38.353 134.364 38.1839 134.297 38.0419 134.163C37.9027 134.03 37.8331 133.869 37.8331 133.682C37.8331 133.494 37.9027 133.334 38.0419 133.2C38.1839 133.067 38.353 133 38.549 133C38.745 133 38.9126 133.067 39.0518 133.2C39.1939 133.334 39.2649 133.494 39.2649 133.682C39.2649 133.869 39.1939 134.03 39.0518 134.163C38.9126 134.297 38.745 134.364 38.549 134.364ZM41.891 138.062V142H40.8853V135.455H41.8569V136.477H41.9421C42.0955 136.145 42.3285 135.878 42.641 135.676C42.9535 135.472 43.3569 135.369 43.8512 135.369C44.2944 135.369 44.6822 135.46 45.0146 135.642C45.3469 135.821 45.6055 136.094 45.7901 136.46C45.9748 136.824 46.0671 137.284 46.0671 137.841V142H45.0614V137.909C45.0614 137.395 44.9279 136.994 44.6609 136.707C44.3938 136.418 44.0273 136.273 43.5614 136.273C43.2404 136.273 42.9535 136.342 42.7006 136.482C42.4506 136.621 42.2532 136.824 42.1083 137.091C41.9634 137.358 41.891 137.682 41.891 138.062ZM47.9048 142V135.455H48.9105V142H47.9048ZM48.4162 134.364C48.2202 134.364 48.0511 134.297 47.9091 134.163C47.7699 134.03 47.7003 133.869 47.7003 133.682C47.7003 133.494 47.7699 133.334 47.9091 133.2C48.0511 133.067 48.2202 133 48.4162 133C48.6122 133 48.7798 133.067 48.919 133.2C49.0611 133.334 49.1321 133.494 49.1321 133.682C49.1321 133.869 49.0611 134.03 48.919 134.163C48.7798 134.297 48.6122 134.364 48.4162 134.364ZM52.2525 140.807L52.1843 141.267C52.136 141.591 52.0621 141.938 51.9627 142.307C51.8661 142.676 51.7653 143.024 51.6602 143.351C51.555 143.678 51.4684 143.938 51.4002 144.131H50.6332C50.6701 143.949 50.7184 143.709 50.7781 143.411C50.8377 143.112 50.8974 142.778 50.957 142.409C51.0195 142.043 51.0707 141.668 51.1104 141.284L51.1616 140.807H52.2525ZM59.4169 142.153C59.0021 142.153 58.6257 142.075 58.2876 141.919C57.9496 141.76 57.6811 141.531 57.4822 141.233C57.2834 140.932 57.1839 140.568 57.1839 140.142C57.1839 139.767 57.2578 139.463 57.4055 139.23C57.5533 138.994 57.7507 138.81 57.9979 138.676C58.245 138.543 58.5178 138.443 58.8161 138.378C59.1172 138.31 59.4197 138.256 59.7237 138.216C60.1214 138.165 60.4439 138.126 60.6911 138.101C60.9411 138.072 61.1229 138.026 61.2365 137.96C61.353 137.895 61.4112 137.781 61.4112 137.619V137.585C61.4112 137.165 61.2962 136.838 61.0661 136.605C60.8388 136.372 60.4936 136.256 60.0305 136.256C59.5504 136.256 59.174 136.361 58.9013 136.571C58.6286 136.781 58.4368 137.006 58.326 137.244L57.3714 136.903C57.5419 136.506 57.7692 136.196 58.0533 135.974C58.3402 135.75 58.6527 135.594 58.9908 135.506C59.3317 135.415 59.6669 135.369 59.9964 135.369C60.2067 135.369 60.4482 135.395 60.7209 135.446C60.9964 135.494 61.2621 135.595 61.5178 135.749C61.7763 135.902 61.9908 136.134 62.1612 136.443C62.3317 136.753 62.4169 137.168 62.4169 137.688V142H61.4112V141.114H61.3601C61.2919 141.256 61.1783 141.408 61.0192 141.57C60.8601 141.732 60.6484 141.869 60.3842 141.983C60.12 142.097 59.7976 142.153 59.4169 142.153ZM59.5703 141.25C59.968 141.25 60.3033 141.172 60.576 141.016C60.8516 140.859 61.0589 140.658 61.1982 140.411C61.3402 140.163 61.4112 139.903 61.4112 139.631V138.71C61.3686 138.761 61.2749 138.808 61.13 138.851C60.9879 138.891 60.8232 138.926 60.6357 138.957C60.451 138.986 60.2706 139.011 60.0945 139.034C59.9212 139.054 59.7805 139.071 59.6726 139.085C59.4112 139.119 59.1669 139.175 58.9396 139.251C58.7152 139.325 58.5334 139.437 58.3942 139.588C58.2578 139.736 58.1896 139.937 58.1896 140.193C58.1896 140.543 58.3189 140.807 58.5774 140.986C58.8388 141.162 59.1697 141.25 59.5703 141.25ZM64.3888 142V133.273H65.3945V136.494H65.4798C65.5536 136.381 65.6559 136.236 65.7866 136.06C65.9201 135.881 66.1104 135.722 66.3576 135.582C66.6076 135.44 66.9457 135.369 67.3718 135.369C67.9229 135.369 68.4087 135.507 68.8292 135.783C69.2496 136.058 69.5778 136.449 69.8136 136.955C70.0494 137.46 70.1673 138.057 70.1673 138.744C70.1673 139.438 70.0494 140.038 69.8136 140.547C69.5778 141.053 69.2511 141.445 68.8335 141.723C68.4158 141.999 67.9343 142.136 67.3888 142.136C66.9684 142.136 66.6317 142.067 66.3789 141.928C66.1261 141.786 65.9315 141.625 65.7951 141.446C65.6587 141.264 65.5536 141.114 65.4798 140.994H65.3604V142H64.3888ZM65.3775 138.727C65.3775 139.222 65.4499 139.658 65.5948 140.036C65.7397 140.411 65.9513 140.705 66.2298 140.918C66.5082 141.128 66.8491 141.233 67.2525 141.233C67.6729 141.233 68.0238 141.122 68.305 140.901C68.5891 140.676 68.8022 140.375 68.9442 139.997C69.0891 139.616 69.1616 139.193 69.1616 138.727C69.1616 138.267 69.0906 137.852 68.9485 137.483C68.8093 137.111 68.5977 136.817 68.3136 136.601C68.0323 136.382 67.6786 136.273 67.2525 136.273C66.8434 136.273 66.4996 136.376 66.2212 136.584C65.9428 136.788 65.7326 137.075 65.5906 137.445C65.4485 137.811 65.3775 138.239 65.3775 138.727ZM74.3647 142.136C73.7738 142.136 73.2553 141.996 72.8093 141.714C72.3661 141.433 72.0195 141.04 71.7695 140.534C71.5224 140.028 71.3988 139.437 71.3988 138.761C71.3988 138.08 71.5224 137.484 71.7695 136.976C72.0195 136.467 72.3661 136.072 72.8093 135.791C73.2553 135.51 73.7738 135.369 74.3647 135.369C74.9556 135.369 75.4727 135.51 75.9158 135.791C76.3619 136.072 76.7085 136.467 76.9556 136.976C77.2056 137.484 77.3306 138.08 77.3306 138.761C77.3306 139.437 77.2056 140.028 76.9556 140.534C76.7085 141.04 76.3619 141.433 75.9158 141.714C75.4727 141.996 74.9556 142.136 74.3647 142.136ZM74.3647 141.233C74.8136 141.233 75.1829 141.118 75.4727 140.888C75.7624 140.658 75.9769 140.355 76.1161 139.98C76.2553 139.605 76.3249 139.199 76.3249 138.761C76.3249 138.324 76.2553 137.916 76.1161 137.538C75.9769 137.161 75.7624 136.855 75.4727 136.622C75.1829 136.389 74.8136 136.273 74.3647 136.273C73.9158 136.273 73.5465 136.389 73.2567 136.622C72.967 136.855 72.7525 137.161 72.6133 137.538C72.4741 137.916 72.4045 138.324 72.4045 138.761C72.4045 139.199 72.4741 139.605 72.6133 139.98C72.7525 140.355 72.967 140.658 73.2567 140.888C73.5465 141.118 73.9158 141.233 74.3647 141.233ZM79.8714 138.062V142H78.8658V135.455H79.8374V136.477H79.9226C80.076 136.145 80.3089 135.878 80.6214 135.676C80.9339 135.472 81.3374 135.369 81.8317 135.369C82.2749 135.369 82.6626 135.46 82.995 135.642C83.3274 135.821 83.5859 136.094 83.7706 136.46C83.9553 136.824 84.0476 137.284 84.0476 137.841V142H83.0419V137.909C83.0419 137.395 82.9084 136.994 82.6413 136.707C82.3743 136.418 82.0078 136.273 81.5419 136.273C81.2209 136.273 80.9339 136.342 80.6811 136.482C80.4311 136.621 80.2337 136.824 80.0888 137.091C79.9439 137.358 79.8714 137.682 79.8714 138.062ZM88.6296 142.136C87.9989 142.136 87.4549 141.997 86.9975 141.719C86.543 141.438 86.1921 141.045 85.945 140.543C85.7006 140.037 85.5785 139.449 85.5785 138.778C85.5785 138.108 85.7006 137.517 85.945 137.006C86.1921 136.491 86.5359 136.091 86.9762 135.804C87.4194 135.514 87.9364 135.369 88.5273 135.369C88.8683 135.369 89.2049 135.426 89.5373 135.54C89.8697 135.653 90.1722 135.838 90.445 136.094C90.7177 136.347 90.935 136.682 91.0969 137.099C91.2589 137.517 91.3398 138.031 91.3398 138.642V139.068H86.2944V138.199H90.3171C90.3171 137.83 90.2433 137.5 90.0955 137.21C89.9506 136.92 89.7433 136.692 89.4734 136.524C89.2063 136.357 88.891 136.273 88.5273 136.273C88.1268 136.273 87.7802 136.372 87.4876 136.571C87.1978 136.767 86.9748 137.023 86.8185 137.338C86.6623 137.653 86.5842 137.991 86.5842 138.352V138.932C86.5842 139.426 86.6694 139.845 86.8398 140.189C87.0131 140.53 87.2532 140.79 87.56 140.969C87.8668 141.145 88.2234 141.233 88.6296 141.233C88.8938 141.233 89.1325 141.196 89.3455 141.122C89.5614 141.045 89.7475 140.932 89.9038 140.781C90.06 140.628 90.1808 140.437 90.266 140.21L91.2376 140.483C91.1353 140.812 90.9634 141.102 90.7219 141.352C90.4805 141.599 90.1822 141.793 89.8271 141.932C89.4719 142.068 89.0728 142.136 88.6296 142.136ZM92.8697 142V135.455H93.8413V136.477H93.9265C94.0629 136.128 94.283 135.857 94.587 135.663C94.891 135.467 95.256 135.369 95.6822 135.369C96.114 135.369 96.4734 135.467 96.7603 135.663C97.0501 135.857 97.2759 136.128 97.4379 136.477H97.506C97.6737 136.139 97.9251 135.871 98.2603 135.672C98.5955 135.47 98.9975 135.369 99.4663 135.369C100.051 135.369 100.53 135.553 100.902 135.919C101.275 136.283 101.461 136.849 101.461 137.619V142H100.455V137.619C100.455 137.136 100.323 136.791 100.059 136.584C99.7944 136.376 99.4833 136.273 99.1254 136.273C98.6651 136.273 98.3086 136.412 98.0558 136.69C97.8029 136.966 97.6765 137.315 97.6765 137.739V142H96.6538V137.517C96.6538 137.145 96.533 136.845 96.2915 136.618C96.0501 136.388 95.739 136.273 95.3583 136.273C95.0969 136.273 94.8526 136.342 94.6254 136.482C94.4009 136.621 94.2191 136.814 94.0799 137.061C93.9435 137.305 93.8754 137.588 93.8754 137.909V142H92.8697ZM106.044 142.136C105.413 142.136 104.869 141.997 104.412 141.719C103.957 141.438 103.606 141.045 103.359 140.543C103.115 140.037 102.993 139.449 102.993 138.778C102.993 138.108 103.115 137.517 103.359 137.006C103.606 136.491 103.95 136.091 104.39 135.804C104.833 135.514 105.35 135.369 105.941 135.369C106.282 135.369 106.619 135.426 106.951 135.54C107.284 135.653 107.586 135.838 107.859 136.094C108.132 136.347 108.349 136.682 108.511 137.099C108.673 137.517 108.754 138.031 108.754 138.642V139.068H103.708V138.199H107.731C107.731 137.83 107.657 137.5 107.51 137.21C107.365 136.92 107.157 136.692 106.887 136.524C106.62 136.357 106.305 136.273 105.941 136.273C105.541 136.273 105.194 136.372 104.902 136.571C104.612 136.767 104.389 137.023 104.233 137.338C104.076 137.653 103.998 137.991 103.998 138.352V138.932C103.998 139.426 104.083 139.845 104.254 140.189C104.427 140.53 104.667 140.79 104.974 140.969C105.281 141.145 105.637 141.233 106.044 141.233C106.308 141.233 106.547 141.196 106.76 141.122C106.975 141.045 107.162 140.932 107.318 140.781C107.474 140.628 107.595 140.437 107.68 140.21L108.652 140.483C108.549 140.812 108.377 141.102 108.136 141.352C107.895 141.599 107.596 141.793 107.241 141.932C106.886 142.068 106.487 142.136 106.044 142.136ZM111.289 138.062V142H110.284V135.455H111.255V136.477H111.341C111.494 136.145 111.727 135.878 112.039 135.676C112.352 135.472 112.755 135.369 113.25 135.369C113.693 135.369 114.081 135.46 114.413 135.642C114.745 135.821 115.004 136.094 115.189 136.46C115.373 136.824 115.466 137.284 115.466 137.841V142H114.46V137.909C114.46 137.395 114.326 136.994 114.059 136.707C113.792 136.418 113.426 136.273 112.96 136.273C112.639 136.273 112.352 136.342 112.099 136.482C111.849 136.621 111.652 136.824 111.507 137.091C111.362 137.358 111.289 137.682 111.289 138.062ZM120.15 135.455V136.307H116.758V135.455H120.15ZM117.746 133.886H118.752V140.125C118.752 140.409 118.793 140.622 118.876 140.764C118.961 140.903 119.069 140.997 119.2 141.045C119.333 141.091 119.474 141.114 119.621 141.114C119.732 141.114 119.823 141.108 119.894 141.097C119.965 141.082 120.022 141.071 120.065 141.062L120.269 141.966C120.201 141.991 120.106 142.017 119.984 142.043C119.862 142.071 119.707 142.085 119.519 142.085C119.235 142.085 118.957 142.024 118.684 141.902C118.414 141.78 118.19 141.594 118.011 141.344C117.835 141.094 117.746 140.778 117.746 140.398V133.886ZM121.663 142V135.455H122.668V142H121.663ZM122.174 134.364C121.978 134.364 121.809 134.297 121.667 134.163C121.528 134.03 121.458 133.869 121.458 133.682C121.458 133.494 121.528 133.334 121.667 133.2C121.809 133.067 121.978 133 122.174 133C122.37 133 122.538 133.067 122.677 133.2C122.819 133.334 122.89 133.494 122.89 133.682C122.89 133.869 122.819 134.03 122.677 134.163C122.538 134.297 122.37 134.364 122.174 134.364ZM126.01 140.807L125.942 141.267C125.894 141.591 125.82 141.938 125.721 142.307C125.624 142.676 125.523 143.024 125.418 143.351C125.313 143.678 125.226 143.938 125.158 144.131H124.391C124.428 143.949 124.476 143.709 124.536 143.411C124.596 143.112 124.655 142.778 124.715 142.409C124.777 142.043 124.828 141.668 124.868 141.284L124.919 140.807H126.01ZM18.8466 158.153C18.4318 158.153 18.0554 158.075 17.7173 157.919C17.3793 157.76 17.1108 157.531 16.9119 157.233C16.7131 156.932 16.6136 156.568 16.6136 156.142C16.6136 155.767 16.6875 155.463 16.8352 155.23C16.983 154.994 17.1804 154.81 17.4276 154.676C17.6747 154.543 17.9474 154.443 18.2457 154.378C18.5469 154.31 18.8494 154.256 19.1534 154.216C19.5511 154.165 19.8736 154.126 20.1207 154.101C20.3707 154.072 20.5526 154.026 20.6662 153.96C20.7827 153.895 20.8409 153.781 20.8409 153.619V153.585C20.8409 153.165 20.7259 152.838 20.4957 152.605C20.2685 152.372 19.9233 152.256 19.4602 152.256C18.9801 152.256 18.6037 152.361 18.331 152.571C18.0582 152.781 17.8665 153.006 17.7557 153.244L16.8011 152.903C16.9716 152.506 17.1989 152.196 17.483 151.974C17.7699 151.75 18.0824 151.594 18.4205 151.506C18.7614 151.415 19.0966 151.369 19.4261 151.369C19.6364 151.369 19.8778 151.395 20.1506 151.446C20.4261 151.494 20.6918 151.595 20.9474 151.749C21.206 151.902 21.4205 152.134 21.5909 152.443C21.7614 152.753 21.8466 153.168 21.8466 153.688V158H20.8409V157.114H20.7898C20.7216 157.256 20.608 157.408 20.4489 157.57C20.2898 157.732 20.0781 157.869 19.8139 157.983C19.5497 158.097 19.2273 158.153 18.8466 158.153ZM19 157.25C19.3977 157.25 19.733 157.172 20.0057 157.016C20.2813 156.859 20.4886 156.658 20.6278 156.411C20.7699 156.163 20.8409 155.903 20.8409 155.631V154.71C20.7983 154.761 20.7045 154.808 20.5597 154.851C20.4176 154.891 20.2528 154.926 20.0653 154.957C19.8807 154.986 19.7003 155.011 19.5241 155.034C19.3509 155.054 19.2102 155.071 19.1023 155.085C18.8409 155.119 18.5966 155.175 18.3693 155.251C18.1449 155.325 17.9631 155.437 17.8239 155.588C17.6875 155.736 17.6193 155.937 17.6193 156.193C17.6193 156.543 17.7486 156.807 18.0071 156.986C18.2685 157.162 18.5994 157.25 19 157.25ZM21.4886 149.273V150.125H17.5V149.273H21.4886ZM23.6822 158V151.455H24.6538V152.443H24.7219C24.8413 152.119 25.0572 151.857 25.3697 151.655C25.6822 151.453 26.0344 151.352 26.4265 151.352C26.5004 151.352 26.5927 151.354 26.7035 151.357C26.8143 151.359 26.8981 151.364 26.9549 151.369V152.392C26.9208 152.384 26.8427 152.371 26.7205 152.354C26.6012 152.334 26.4748 152.324 26.3413 152.324C26.0231 152.324 25.739 152.391 25.489 152.524C25.2418 152.655 25.0458 152.837 24.9009 153.07C24.7589 153.3 24.6879 153.562 24.6879 153.858V158H23.6822ZM28.147 160.455V151.455H29.1186V152.494H29.2379C29.3118 152.381 29.4141 152.236 29.5447 152.06C29.6783 151.881 29.8686 151.722 30.1158 151.582C30.3658 151.44 30.7038 151.369 31.13 151.369C31.6811 151.369 32.1669 151.507 32.5874 151.783C33.0078 152.058 33.3359 152.449 33.5717 152.955C33.8075 153.46 33.9254 154.057 33.9254 154.744C33.9254 155.438 33.8075 156.038 33.5717 156.547C33.3359 157.053 33.0092 157.445 32.5916 157.723C32.174 157.999 31.6925 158.136 31.147 158.136C30.7266 158.136 30.3899 158.067 30.1371 157.928C29.8842 157.786 29.6896 157.625 29.5533 157.446C29.4169 157.264 29.3118 157.114 29.2379 156.994H29.1527V160.455H28.147ZM29.1357 154.727C29.1357 155.222 29.2081 155.658 29.353 156.036C29.4979 156.411 29.7095 156.705 29.9879 156.918C30.2663 157.128 30.6072 157.233 31.0107 157.233C31.4311 157.233 31.782 157.122 32.0632 156.901C32.3473 156.676 32.5604 156.375 32.7024 155.997C32.8473 155.616 32.9197 155.193 32.9197 154.727C32.9197 154.267 32.8487 153.852 32.7067 153.483C32.5675 153.111 32.3558 152.817 32.0717 152.601C31.7905 152.382 31.4368 152.273 31.0107 152.273C30.6016 152.273 30.2578 152.376 29.9794 152.584C29.701 152.788 29.4908 153.075 29.3487 153.445C29.2067 153.811 29.1357 154.239 29.1357 154.727ZM37.3857 158.153C36.9709 158.153 36.5945 158.075 36.2564 157.919C35.9183 157.76 35.6499 157.531 35.451 157.233C35.2521 156.932 35.1527 156.568 35.1527 156.142C35.1527 155.767 35.2266 155.463 35.3743 155.23C35.522 154.994 35.7195 154.81 35.9666 154.676C36.2138 154.543 36.4865 154.443 36.7848 154.378C37.0859 154.31 37.3885 154.256 37.6925 154.216C38.0902 154.165 38.4126 154.126 38.6598 154.101C38.9098 154.072 39.0916 154.026 39.2053 153.96C39.3217 153.895 39.38 153.781 39.38 153.619V153.585C39.38 153.165 39.2649 152.838 39.0348 152.605C38.8075 152.372 38.4624 152.256 37.9993 152.256C37.5192 152.256 37.1428 152.361 36.87 152.571C36.5973 152.781 36.4055 153.006 36.2947 153.244L35.3402 152.903C35.5107 152.506 35.7379 152.196 36.022 151.974C36.3089 151.75 36.6214 151.594 36.9595 151.506C37.3004 151.415 37.6357 151.369 37.9652 151.369C38.1754 151.369 38.4169 151.395 38.6896 151.446C38.9652 151.494 39.2308 151.595 39.4865 151.749C39.745 151.902 39.9595 152.134 40.13 152.443C40.3004 152.753 40.3857 153.168 40.3857 153.688V158H39.38V157.114H39.3288C39.2607 157.256 39.147 157.408 38.9879 157.57C38.8288 157.732 38.6172 157.869 38.353 157.983C38.0888 158.097 37.7663 158.153 37.3857 158.153ZM37.5391 157.25C37.9368 157.25 38.272 157.172 38.5447 157.016C38.8203 156.859 39.0277 156.658 39.1669 156.411C39.3089 156.163 39.38 155.903 39.38 155.631V154.71C39.3374 154.761 39.2436 154.808 39.0987 154.851C38.9567 154.891 38.7919 154.926 38.6044 154.957C38.4197 154.986 38.2393 155.011 38.0632 155.034C37.8899 155.054 37.7493 155.071 37.6413 155.085C37.38 155.119 37.1357 155.175 36.9084 155.251C36.6839 155.325 36.5021 155.437 36.3629 155.588C36.2266 155.736 36.1584 155.937 36.1584 156.193C36.1584 156.543 36.2876 156.807 36.5462 156.986C36.8075 157.162 37.1385 157.25 37.5391 157.25ZM43.1587 155.614L43.1417 154.369H43.3462L46.2099 151.455H47.4542L44.4031 154.54H44.3178L43.1587 155.614ZM42.2212 158V149.273H43.2269V158H42.2212ZM46.3803 158L43.8235 154.761L44.5394 154.062L47.6587 158H46.3803ZM50.6747 158.153C50.2599 158.153 49.8835 158.075 49.5455 157.919C49.2074 157.76 48.9389 157.531 48.7401 157.233C48.5412 156.932 48.4418 156.568 48.4418 156.142C48.4418 155.767 48.5156 155.463 48.6634 155.23C48.8111 154.994 49.0085 154.81 49.2557 154.676C49.5028 154.543 49.7756 154.443 50.0739 154.378C50.375 154.31 50.6776 154.256 50.9815 154.216C51.3793 154.165 51.7017 154.126 51.9489 154.101C52.1989 154.072 52.3807 154.026 52.4943 153.96C52.6108 153.895 52.669 153.781 52.669 153.619V153.585C52.669 153.165 52.554 152.838 52.3239 152.605C52.0966 152.372 51.7514 152.256 51.2884 152.256C50.8082 152.256 50.4318 152.361 50.1591 152.571C49.8864 152.781 49.6946 153.006 49.5838 153.244L48.6293 152.903C48.7997 152.506 49.027 152.196 49.3111 151.974C49.598 151.75 49.9105 151.594 50.2486 151.506C50.5895 151.415 50.9247 151.369 51.2543 151.369C51.4645 151.369 51.706 151.395 51.9787 151.446C52.2543 151.494 52.5199 151.595 52.7756 151.749C53.0341 151.902 53.2486 152.134 53.419 152.443C53.5895 152.753 53.6747 153.168 53.6747 153.688V158H52.669V157.114H52.6179C52.5497 157.256 52.4361 157.408 52.277 157.57C52.1179 157.732 51.9063 157.869 51.642 157.983C51.3778 158.097 51.0554 158.153 50.6747 158.153ZM50.8281 157.25C51.2259 157.25 51.5611 157.172 51.8338 157.016C52.1094 156.859 52.3168 156.658 52.456 156.411C52.598 156.163 52.669 155.903 52.669 155.631V154.71C52.6264 154.761 52.5327 154.808 52.3878 154.851C52.2457 154.891 52.081 154.926 51.8935 154.957C51.7088 154.986 51.5284 155.011 51.3523 155.034C51.179 155.054 51.0384 155.071 50.9304 155.085C50.669 155.119 50.4247 155.175 50.1974 155.251C49.973 155.325 49.7912 155.437 49.652 155.588C49.5156 155.736 49.4474 155.937 49.4474 156.193C49.4474 156.543 49.5767 156.807 49.8352 156.986C50.0966 157.162 50.4276 157.25 50.8281 157.25ZM56.516 149.273V158H55.5103V149.273H56.516ZM58.358 160.455V151.455H59.3295V152.494H59.4489C59.5227 152.381 59.625 152.236 59.7557 152.06C59.8892 151.881 60.0795 151.722 60.3267 151.582C60.5767 151.44 60.9148 151.369 61.3409 151.369C61.892 151.369 62.3778 151.507 62.7983 151.783C63.2188 152.058 63.5469 152.449 63.7827 152.955C64.0185 153.46 64.1364 154.057 64.1364 154.744C64.1364 155.438 64.0185 156.038 63.7827 156.547C63.5469 157.053 63.2202 157.445 62.8026 157.723C62.3849 157.999 61.9034 158.136 61.358 158.136C60.9375 158.136 60.6009 158.067 60.348 157.928C60.0952 157.786 59.9006 157.625 59.7642 157.446C59.6278 157.264 59.5227 157.114 59.4489 156.994H59.3636V160.455H58.358ZM59.3466 154.727C59.3466 155.222 59.419 155.658 59.5639 156.036C59.7088 156.411 59.9205 156.705 60.1989 156.918C60.4773 157.128 60.8182 157.233 61.2216 157.233C61.642 157.233 61.9929 157.122 62.2741 156.901C62.5582 156.676 62.7713 156.375 62.9134 155.997C63.0582 155.616 63.1307 155.193 63.1307 154.727C63.1307 154.267 63.0597 153.852 62.9176 153.483C62.7784 153.111 62.5668 152.817 62.2827 152.601C62.0014 152.382 61.6477 152.273 61.2216 152.273C60.8125 152.273 60.4688 152.376 60.1903 152.584C59.9119 152.788 59.7017 153.075 59.5597 153.445C59.4176 153.811 59.3466 154.239 59.3466 154.727ZM68.3295 158.136C67.7386 158.136 67.2202 157.996 66.7741 157.714C66.331 157.433 65.9844 157.04 65.7344 156.534C65.4872 156.028 65.3636 155.437 65.3636 154.761C65.3636 154.08 65.4872 153.484 65.7344 152.976C65.9844 152.467 66.331 152.072 66.7741 151.791C67.2202 151.51 67.7386 151.369 68.3295 151.369C68.9205 151.369 69.4375 151.51 69.8807 151.791C70.3267 152.072 70.6733 152.467 70.9205 152.976C71.1705 153.484 71.2955 154.08 71.2955 154.761C71.2955 155.437 71.1705 156.028 70.9205 156.534C70.6733 157.04 70.3267 157.433 69.8807 157.714C69.4375 157.996 68.9205 158.136 68.3295 158.136ZM68.3295 157.233C68.7784 157.233 69.1477 157.118 69.4375 156.888C69.7273 156.658 69.9418 156.355 70.081 155.98C70.2202 155.605 70.2898 155.199 70.2898 154.761C70.2898 154.324 70.2202 153.916 70.081 153.538C69.9418 153.161 69.7273 152.855 69.4375 152.622C69.1477 152.389 68.7784 152.273 68.3295 152.273C67.8807 152.273 67.5114 152.389 67.2216 152.622C66.9318 152.855 66.7173 153.161 66.5781 153.538C66.4389 153.916 66.3693 154.324 66.3693 154.761C66.3693 155.199 66.4389 155.605 66.5781 155.98C66.7173 156.355 66.9318 156.658 67.2216 156.888C67.5114 157.118 67.8807 157.233 68.3295 157.233ZM72.8306 151.455H73.8363V158.477C73.8363 158.881 73.7667 159.23 73.6275 159.526C73.4911 159.821 73.2837 160.05 73.0053 160.212C72.7298 160.374 72.3817 160.455 71.9613 160.455C71.9272 160.455 71.8931 160.455 71.859 160.455C71.8249 160.455 71.7908 160.455 71.7567 160.455V159.517C71.7908 159.517 71.8221 159.517 71.8505 159.517C71.8789 159.517 71.9102 159.517 71.9442 159.517C72.2511 159.517 72.4755 159.426 72.6175 159.244C72.7596 159.065 72.8306 158.81 72.8306 158.477V151.455ZM73.3249 150.364C73.1289 150.364 72.9599 150.297 72.8178 150.163C72.6786 150.03 72.609 149.869 72.609 149.682C72.609 149.494 72.6786 149.334 72.8178 149.2C72.9599 149.067 73.1289 149 73.3249 149C73.521 149 73.6886 149.067 73.8278 149.2C73.9698 149.334 74.0408 149.494 74.0408 149.682C74.0408 149.869 73.9698 150.03 73.8278 150.163C73.6886 150.297 73.521 150.364 73.3249 150.364ZM79.8033 155.324V151.455H80.8089V158H79.8033V156.892H79.7351C79.5817 157.224 79.343 157.507 79.0192 157.74C78.6953 157.97 78.2862 158.085 77.7919 158.085C77.3828 158.085 77.0192 157.996 76.701 157.817C76.3828 157.635 76.1328 157.362 75.951 156.999C75.7692 156.632 75.6783 156.17 75.6783 155.614V151.455H76.6839V155.545C76.6839 156.023 76.8175 156.403 77.0845 156.688C77.3544 156.972 77.6982 157.114 78.1158 157.114C78.3658 157.114 78.62 157.05 78.8786 156.922C79.1399 156.794 79.3587 156.598 79.5348 156.334C79.7138 156.07 79.8033 155.733 79.8033 155.324ZM82.6509 158V151.455H83.6225V152.477H83.7077C83.8441 152.128 84.0643 151.857 84.3683 151.663C84.6722 151.467 85.0373 151.369 85.4634 151.369C85.8952 151.369 86.2546 151.467 86.5415 151.663C86.8313 151.857 87.0572 152.128 87.2191 152.477H87.2873C87.4549 152.139 87.7063 151.871 88.0415 151.672C88.3768 151.47 88.7788 151.369 89.2475 151.369C89.8327 151.369 90.3114 151.553 90.6836 151.919C91.0558 152.283 91.2418 152.849 91.2418 153.619V158H90.2362V153.619C90.2362 153.136 90.104 152.791 89.8398 152.584C89.5756 152.376 89.2646 152.273 88.9066 152.273C88.4464 152.273 88.0898 152.412 87.837 152.69C87.5842 152.966 87.4577 153.315 87.4577 153.739V158H86.435V153.517C86.435 153.145 86.3143 152.845 86.0728 152.618C85.8313 152.388 85.5202 152.273 85.1396 152.273C84.8782 152.273 84.6339 152.342 84.4066 152.482C84.1822 152.621 84.0004 152.814 83.8612 153.061C83.7248 153.305 83.6566 153.588 83.6566 153.909V158H82.6509ZM93.0806 158V151.455H94.0863V158H93.0806ZM93.592 150.364C93.396 150.364 93.2269 150.297 93.0849 150.163C92.9457 150.03 92.8761 149.869 92.8761 149.682C92.8761 149.494 92.9457 149.334 93.0849 149.2C93.2269 149.067 93.396 149 93.592 149C93.788 149 93.9556 149.067 94.0948 149.2C94.2369 149.334 94.3079 149.494 94.3079 149.682C94.3079 149.869 94.2369 150.03 94.0948 150.163C93.9556 150.297 93.788 150.364 93.592 150.364Z" fill="#1A1D27"/>
</svg>
