<svg width="200" height="162" viewBox="0 0 200 162" fill="none" xmlns="http://www.w3.org/2000/svg">
<rect width="200" height="162" rx="16" fill="white" fill-opacity="0.7"/>
<rect x="16" y="16" width="32" height="32" rx="8" fill="#1A1D27"/>
<path d="M25.2706 30.5165L28.0139 32.7111C28.3794 33.0035 28.5621 33.1497 28.7656 33.2537C28.9461 33.3459 29.1383 33.4133 29.3369 33.4541C29.5608 33.5 29.7948 33.5 30.2628 33.5H33.7372C34.2052 33.5 34.4392 33.5 34.6631 33.4541C34.8617 33.4133 35.0539 33.3459 35.2344 33.2537C35.4379 33.1497 35.6206 33.0035 35.9861 32.7111L38.7294 30.5165M25.2706 30.5165C25.25 30.8671 25.25 31.2981 25.25 31.85V35.15C25.25 36.4101 25.25 37.0402 25.4952 37.5215C25.711 37.9448 26.0552 38.289 26.4785 38.5048C26.9598 38.75 27.5899 38.75 28.85 38.75H35.15C36.4101 38.75 37.0402 38.75 37.5215 38.5048C37.9448 38.289 38.289 37.9448 38.5048 37.5215C38.75 37.0402 38.75 36.4101 38.75 35.15V31.85C38.75 31.2981 38.75 30.8671 38.7294 30.5165M25.2706 30.5165C25.297 30.0665 25.3574 29.749 25.4952 29.4785C25.711 29.0552 26.0552 28.711 26.4785 28.4952C26.9598 28.25 27.5899 28.25 28.85 28.25H29M38.7294 30.5165C38.703 30.0665 38.6426 29.749 38.5048 29.4785C38.289 29.0552 37.9448 28.711 37.5215 28.4952C37.0402 28.25 36.4101 28.25 35.15 28.25H35M29 28.25V27.5C29 26.2574 30.0074 25.25 31.25 25.25H32.75C33.9926 25.25 35 26.2574 35 27.5V28.25M29 28.25H35" stroke="white" stroke-width="1.5" stroke-linecap="round" stroke-linejoin="round"/>
<path d="M17.1378 78V64.9091H22.3026C23.2955 64.9091 24.1413 65.0987 24.8402 65.478C25.5391 65.853 26.0717 66.375 26.4382 67.044C26.8089 67.7088 26.9943 68.4759 26.9943 69.3452C26.9943 70.2145 26.8068 70.9815 26.4318 71.6463C26.0568 72.3111 25.5135 72.8288 24.8018 73.1996C24.0945 73.5703 23.2379 73.7557 22.2322 73.7557H18.9403V71.5376H21.7848C22.3175 71.5376 22.7564 71.446 23.1016 71.2628C23.451 71.0753 23.7109 70.8175 23.8814 70.4893C24.0561 70.157 24.1435 69.7756 24.1435 69.3452C24.1435 68.9105 24.0561 68.5312 23.8814 68.2074C23.7109 67.8793 23.451 67.6257 23.1016 67.4467C22.7521 67.2635 22.3089 67.1719 21.772 67.1719H19.9055V78H17.1378ZM32.6972 78.1918C31.6872 78.1918 30.8179 77.9872 30.0892 77.5781C29.3648 77.1648 28.8065 76.581 28.4145 75.8267C28.0225 75.0682 27.8264 74.1712 27.8264 73.1357C27.8264 72.1257 28.0225 71.2393 28.4145 70.4766C28.8065 69.7138 29.3584 69.1193 30.07 68.6932C30.786 68.267 31.6254 68.054 32.5885 68.054C33.2362 68.054 33.8392 68.1584 34.3975 68.3672C34.96 68.5717 35.45 68.8807 35.8676 69.294C36.2895 69.7074 36.6176 70.2273 36.852 70.8537C37.0864 71.4759 37.2036 72.2045 37.2036 73.0398V73.7876H28.9131V72.1001H34.6404C34.6404 71.7081 34.5551 71.3608 34.3847 71.0582C34.2142 70.7557 33.9777 70.5192 33.6752 70.3487C33.3769 70.174 33.0296 70.0866 32.6333 70.0866C32.2199 70.0866 31.8534 70.1825 31.5338 70.3743C31.2185 70.5618 30.9713 70.8153 30.7923 71.1349C30.6134 71.4503 30.5217 71.8018 30.5175 72.1896V73.794C30.5175 74.2798 30.607 74.6996 30.786 75.0533C30.9692 75.407 31.227 75.6797 31.5594 75.8714C31.8918 76.0632 32.286 76.1591 32.7419 76.1591C33.0445 76.1591 33.3215 76.1165 33.5729 76.0312C33.8243 75.946 34.0395 75.8182 34.2185 75.6477C34.3975 75.4773 34.5338 75.2685 34.6276 75.0213L37.146 75.1875C37.0182 75.7926 36.7561 76.321 36.3598 76.7727C35.9678 77.2202 35.4607 77.5696 34.8385 77.821C34.2206 78.0682 33.5068 78.1918 32.6972 78.1918ZM38.6206 78V68.1818H41.2605V69.8949H41.3627C41.5417 69.2855 41.8421 68.8253 42.264 68.5142C42.6859 68.1989 43.1717 68.0412 43.7214 68.0412C43.8578 68.0412 44.0048 68.0497 44.1625 68.0668C44.3201 68.0838 44.4586 68.1072 44.5779 68.1371V70.5533C44.4501 70.5149 44.2733 70.4808 44.0474 70.451C43.8215 70.4212 43.6149 70.4062 43.4274 70.4062C43.0268 70.4062 42.6689 70.4936 42.3535 70.6683C42.0424 70.8388 41.7953 71.0774 41.612 71.3842C41.4331 71.6911 41.3436 72.0447 41.3436 72.4453V78H38.6206ZM53.7948 70.9815L51.3019 71.1349C51.2593 70.9219 51.1677 70.7301 51.0271 70.5597C50.8864 70.3849 50.7011 70.2464 50.471 70.1442C50.2451 70.0376 49.9745 69.9844 49.6592 69.9844C49.2373 69.9844 48.8815 70.0739 48.5917 70.2528C48.3019 70.4276 48.157 70.6619 48.157 70.956C48.157 71.1903 48.2508 71.3885 48.4383 71.5504C48.6258 71.7124 48.9475 71.8423 49.4035 71.9403L51.1805 72.2983C52.135 72.4943 52.8467 72.8097 53.3154 73.2443C53.7842 73.679 54.0185 74.25 54.0185 74.9574C54.0185 75.6009 53.8289 76.1655 53.4497 76.6513C53.0747 77.1371 52.559 77.5163 51.9028 77.7891C51.2508 78.0575 50.4987 78.1918 49.6464 78.1918C48.3467 78.1918 47.3112 77.9212 46.5399 77.38C45.7728 76.8345 45.3232 76.093 45.1911 75.1555L47.8694 75.0149C47.9504 75.4112 48.1464 75.7138 48.4575 75.9226C48.7685 76.1271 49.167 76.2294 49.6528 76.2294C50.1301 76.2294 50.5136 76.1378 50.8033 75.9545C51.0974 75.767 51.2465 75.5263 51.2508 75.2322C51.2465 74.9851 51.1421 74.7827 50.9376 74.625C50.733 74.4631 50.4177 74.3395 49.9916 74.2543L48.2913 73.9155C47.3325 73.7237 46.6187 73.3913 46.1499 72.9183C45.6854 72.4453 45.4532 71.8423 45.4532 71.1094C45.4532 70.4787 45.6237 69.9354 45.9646 69.4794C46.3097 69.0234 46.7934 68.6719 47.4156 68.4247C48.042 68.1776 48.7749 68.054 49.6144 68.054C50.8545 68.054 51.8303 68.3161 52.542 68.8402C53.2579 69.3643 53.6755 70.0781 53.7948 70.9815ZM59.8093 78.1918C58.8164 78.1918 57.9577 77.9808 57.2333 77.5589C56.5131 77.1328 55.957 76.5405 55.565 75.782C55.1729 75.0192 54.9769 74.1349 54.9769 73.1293C54.9769 72.1151 55.1729 71.2287 55.565 70.4702C55.957 69.7074 56.5131 69.1151 57.2333 68.6932C57.9577 68.267 58.8164 68.054 59.8093 68.054C60.8022 68.054 61.6587 68.267 62.3789 68.6932C63.1033 69.1151 63.6616 69.7074 64.0536 70.4702C64.4457 71.2287 64.6417 72.1151 64.6417 73.1293C64.6417 74.1349 64.4457 75.0192 64.0536 75.782C63.6616 76.5405 63.1033 77.1328 62.3789 77.5589C61.6587 77.9808 60.8022 78.1918 59.8093 78.1918ZM59.8221 76.0824C60.2738 76.0824 60.6509 75.9545 60.9535 75.6989C61.256 75.4389 61.484 75.0852 61.6374 74.6378C61.7951 74.1903 61.8739 73.6811 61.8739 73.1101C61.8739 72.5391 61.7951 72.0298 61.6374 71.5824C61.484 71.1349 61.256 70.7812 60.9535 70.5213C60.6509 70.2614 60.2738 70.1314 59.8221 70.1314C59.3661 70.1314 58.9826 70.2614 58.6715 70.5213C58.3647 70.7812 58.1324 71.1349 57.9748 71.5824C57.8214 72.0298 57.7447 72.5391 57.7447 73.1101C57.7447 73.6811 57.8214 74.1903 57.9748 74.6378C58.1324 75.0852 58.3647 75.4389 58.6715 75.6989C58.9826 75.9545 59.3661 76.0824 59.8221 76.0824ZM68.7753 72.3239V78H66.0523V68.1818H68.6474V69.9141H68.7625C68.9798 69.343 69.3442 68.8913 69.8555 68.5589C70.3669 68.2223 70.9869 68.054 71.7156 68.054C72.3974 68.054 72.9919 68.2031 73.499 68.5014C74.0061 68.7997 74.4003 69.2259 74.6815 69.7798C74.9628 70.3295 75.1034 70.9858 75.1034 71.7486V78H72.3804V72.2344C72.3847 71.6335 72.2313 71.1648 71.9202 70.8281C71.6091 70.4872 71.1808 70.3168 70.6354 70.3168C70.2689 70.3168 69.945 70.3956 69.6638 70.5533C69.3868 70.7109 69.1695 70.9411 69.0118 71.2436C68.8584 71.5419 68.7795 71.902 68.7753 72.3239ZM76.8895 78V68.1818H79.6125V78H76.8895ZM81.3704 64.9091V66.3857H75.1445V64.9091H81.3704ZM85.8571 81.8864C84.975 81.8864 84.2186 81.7649 83.588 81.522C82.9615 81.2834 82.463 80.9574 82.0922 80.544C81.7215 80.1307 81.4807 79.6662 81.3699 79.1506L83.8884 78.8118C83.9651 79.0078 84.0865 79.1911 84.2527 79.3615C84.4189 79.532 84.6384 79.6683 84.9111 79.7706C85.1881 79.8771 85.5247 79.9304 85.9211 79.9304C86.5134 79.9304 87.0013 79.7855 87.3848 79.4957C87.7726 79.2102 87.9665 78.7308 87.9665 78.0575V76.2614H87.8515C87.7321 76.5341 87.5532 76.7919 87.3145 77.0348C87.0759 77.2777 86.7691 77.4759 86.3941 77.6293C86.0191 77.7827 85.5716 77.8594 85.0517 77.8594C84.3145 77.8594 83.6434 77.6889 83.0382 77.348C82.4374 77.0028 81.958 76.4766 81.6 75.7692C81.2463 75.0575 81.0695 74.1584 81.0695 73.0717C81.0695 71.9595 81.2506 71.0305 81.6128 70.2848C81.975 69.5391 82.4566 68.9808 83.0574 68.6101C83.6625 68.2393 84.3252 68.054 85.0453 68.054C85.5951 68.054 86.0553 68.1477 86.426 68.3352C86.7968 68.5185 87.0951 68.7486 87.3209 69.0256C87.551 69.2983 87.7279 69.5668 87.8515 69.831H87.9537V68.1818H90.6576V78.0959C90.6576 78.9311 90.453 79.63 90.0439 80.1925C89.6348 80.755 89.0681 81.1768 88.3436 81.4581C87.6235 81.7436 86.7946 81.8864 85.8571 81.8864ZM85.9147 75.8139C86.3536 75.8139 86.7243 75.7053 87.0269 75.4879C87.3337 75.2663 87.5681 74.951 87.73 74.5419C87.8962 74.1286 87.9793 73.6342 87.9793 73.0589C87.9793 72.4837 87.8983 71.9851 87.7364 71.5632C87.5745 71.1371 87.3401 70.8068 87.0333 70.5724C86.7265 70.3381 86.3536 70.2209 85.9147 70.2209C85.4672 70.2209 85.0901 70.3423 84.7833 70.5852C84.4765 70.8239 84.2442 71.1562 84.0865 71.5824C83.9289 72.0085 83.85 72.5007 83.85 73.0589C83.85 73.6257 83.9289 74.1158 84.0865 74.5291C84.2485 74.9382 84.4807 75.2557 84.7833 75.4815C85.0901 75.7031 85.4672 75.8139 85.9147 75.8139ZM92.4645 78V68.1818H95.1875V78H92.4645ZM93.8324 66.9162C93.4275 66.9162 93.0802 66.782 92.7905 66.5135C92.5049 66.2408 92.3622 65.9148 92.3622 65.5355C92.3622 65.1605 92.5049 64.8388 92.7905 64.5703C93.0802 64.2976 93.4275 64.1612 93.8324 64.1612C94.2372 64.1612 94.5824 64.2976 94.8679 64.5703C95.1576 64.8388 95.3025 65.1605 95.3025 65.5355C95.3025 65.9148 95.1576 66.2408 94.8679 66.5135C94.5824 66.782 94.2372 66.9162 93.8324 66.9162ZM101.483 78.1918C100.473 78.1918 99.6039 77.9872 98.8752 77.5781C98.1508 77.1648 97.5926 76.581 97.2005 75.8267C96.8085 75.0682 96.6125 74.1712 96.6125 73.1357C96.6125 72.1257 96.8085 71.2393 97.2005 70.4766C97.5926 69.7138 98.1444 69.1193 98.8561 68.6932C99.572 68.267 100.411 68.054 101.375 68.054C102.022 68.054 102.625 68.1584 103.183 68.3672C103.746 68.5717 104.236 68.8807 104.654 69.294C105.076 69.7074 105.404 70.2273 105.638 70.8537C105.872 71.4759 105.99 72.2045 105.99 73.0398V73.7876H97.6991V72.1001H103.426C103.426 71.7081 103.341 71.3608 103.171 71.0582C103 70.7557 102.764 70.5192 102.461 70.3487C102.163 70.174 101.816 70.0866 101.419 70.0866C101.006 70.0866 100.639 70.1825 100.32 70.3743C100.004 70.5618 99.7573 70.8153 99.5784 71.1349C99.3994 71.4503 99.3078 71.8018 99.3035 72.1896V73.794C99.3035 74.2798 99.393 74.6996 99.572 75.0533C99.7552 75.407 100.013 75.6797 100.345 75.8714C100.678 76.0632 101.072 76.1591 101.528 76.1591C101.83 76.1591 102.107 76.1165 102.359 76.0312C102.61 75.946 102.826 75.8182 103.004 75.6477C103.183 75.4773 103.32 75.2685 103.414 75.0213L105.932 75.1875C105.804 75.7926 105.542 76.321 105.146 76.7727C104.754 77.2202 104.247 77.5696 103.625 77.821C103.007 78.0682 102.293 78.1918 101.483 78.1918ZM17.0866 100V90.1818H19.8097V100H17.0866ZM18.4545 88.9162C18.0497 88.9162 17.7024 88.782 17.4126 88.5135C17.1271 88.2408 16.9844 87.9148 16.9844 87.5355C16.9844 87.1605 17.1271 86.8388 17.4126 86.5703C17.7024 86.2976 18.0497 86.1612 18.4545 86.1612C18.8594 86.1612 19.2045 86.2976 19.4901 86.5703C19.7798 86.8388 19.9247 87.1605 19.9247 87.5355C19.9247 87.9148 19.7798 88.2408 19.4901 88.5135C19.2045 88.782 18.8594 88.9162 18.4545 88.9162ZM26.1054 100.192C25.0954 100.192 24.2261 99.9872 23.4974 99.5781C22.773 99.1648 22.2148 98.581 21.8227 97.8267C21.4307 97.0682 21.2346 96.1712 21.2346 95.1357C21.2346 94.1257 21.4307 93.2393 21.8227 92.4766C22.2148 91.7138 22.7666 91.1193 23.4782 90.6932C24.1942 90.267 25.0336 90.054 25.9967 90.054C26.6444 90.054 27.2474 90.1584 27.8057 90.3672C28.3682 90.5717 28.8582 90.8807 29.2758 91.294C29.6977 91.7074 30.0258 92.2273 30.2602 92.8537C30.4946 93.4759 30.6118 94.2045 30.6118 95.0398V95.7876H22.3213V94.1001H28.0486C28.0486 93.7081 27.9633 93.3608 27.7929 93.0582C27.6224 92.7557 27.3859 92.5192 27.0834 92.3487C26.7851 92.174 26.4378 92.0866 26.0415 92.0866C25.6281 92.0866 25.2616 92.1825 24.942 92.3743C24.6267 92.5618 24.3795 92.8153 24.2005 93.1349C24.0216 93.4503 23.93 93.8018 23.9257 94.1896V95.794C23.9257 96.2798 24.0152 96.6996 24.1942 97.0533C24.3774 97.407 24.6352 97.6797 24.9676 97.8714C25.3 98.0632 25.6942 98.1591 26.1501 98.1591C26.4527 98.1591 26.7297 98.1165 26.9811 98.0312C27.2325 97.946 27.4477 97.8182 27.6267 97.6477C27.8057 97.4773 27.942 97.2685 28.0358 97.0213L30.5542 97.1875C30.4264 97.7926 30.1643 98.321 29.768 98.7727C29.376 99.2202 28.8689 99.5696 28.2467 99.821C27.6288 100.068 26.915 100.192 26.1054 100.192ZM36.4521 103.886C35.57 103.886 34.8136 103.765 34.1829 103.522C33.5565 103.283 33.0579 102.957 32.6871 102.544C32.3164 102.131 32.0756 101.666 31.9648 101.151L34.4833 100.812C34.56 101.008 34.6815 101.191 34.8476 101.362C35.0138 101.532 35.2333 101.668 35.506 101.771C35.783 101.877 36.1197 101.93 36.516 101.93C37.1083 101.93 37.5962 101.786 37.9798 101.496C38.3675 101.21 38.5614 100.731 38.5614 100.058V98.2614H38.4464C38.3271 98.5341 38.1481 98.7919 37.9094 99.0348C37.6708 99.2777 37.364 99.4759 36.989 99.6293C36.614 99.7827 36.1665 99.8594 35.6467 99.8594C34.9094 99.8594 34.2383 99.6889 33.6332 99.348C33.0323 99.0028 32.5529 98.4766 32.195 97.7692C31.8413 97.0575 31.6644 96.1584 31.6644 95.0717C31.6644 93.9595 31.8455 93.0305 32.2077 92.2848C32.57 91.5391 33.0515 90.9808 33.6523 90.6101C34.2575 90.2393 34.9201 90.054 35.6403 90.054C36.19 90.054 36.6502 90.1477 37.0209 90.3352C37.3917 90.5185 37.69 90.7486 37.9158 91.0256C38.1459 91.2983 38.3228 91.5668 38.4464 91.831H38.5486V90.1818H41.2525V100.096C41.2525 100.931 41.0479 101.63 40.6388 102.192C40.2298 102.755 39.663 103.177 38.9386 103.458C38.2184 103.744 37.3896 103.886 36.4521 103.886ZM36.5096 97.8139C36.9485 97.8139 37.3192 97.7053 37.6218 97.4879C37.9286 97.2663 38.163 96.951 38.3249 96.5419C38.4911 96.1286 38.5742 95.6342 38.5742 95.0589C38.5742 94.4837 38.4932 93.9851 38.3313 93.5632C38.1694 93.1371 37.935 92.8068 37.6282 92.5724C37.3214 92.3381 36.9485 92.2209 36.5096 92.2209C36.0621 92.2209 35.685 92.3423 35.3782 92.5852C35.0714 92.8239 34.8391 93.1562 34.6815 93.5824C34.5238 94.0085 34.445 94.5007 34.445 95.0589C34.445 95.6257 34.5238 96.1158 34.6815 96.5291C34.8434 96.9382 35.0756 97.2557 35.3782 97.4815C35.685 97.7031 36.0621 97.8139 36.5096 97.8139ZM49.3555 95.8196V90.1818H52.0786V100H49.4642V98.2166H49.3619C49.1403 98.7919 48.7717 99.2543 48.2561 99.6037C47.7448 99.9531 47.1205 100.128 46.3832 100.128C45.727 100.128 45.1496 99.9787 44.651 99.6804C44.1524 99.3821 43.7625 98.9581 43.4813 98.4084C43.2043 97.8587 43.0636 97.2003 43.0594 96.4332V90.1818H45.7824V95.9474C45.7867 96.527 45.9422 96.9851 46.249 97.3217C46.5558 97.6584 46.9671 97.8267 47.4827 97.8267C47.8108 97.8267 48.1176 97.7521 48.4031 97.603C48.6886 97.4496 48.9188 97.2237 49.0935 96.9254C49.2725 96.6271 49.3598 96.2585 49.3555 95.8196ZM56.6197 86.9091V100H53.8966V86.9091H56.6197ZM62.0588 100.16C61.3131 100.16 60.6377 99.968 60.0326 99.5845C59.4317 99.1967 58.9544 98.6278 58.6007 97.8778C58.2513 97.1236 58.0766 96.1989 58.0766 95.1037C58.0766 93.9787 58.2577 93.0433 58.6199 92.2976C58.9821 91.5476 59.4637 90.9872 60.0645 90.6165C60.6696 90.2415 61.3323 90.054 62.0525 90.054C62.6022 90.054 63.0603 90.1477 63.4267 90.3352C63.7975 90.5185 64.0958 90.7486 64.3216 91.0256C64.5517 91.2983 64.7265 91.5668 64.8458 91.831H64.9289V86.9091H67.6455V100H64.9608V98.4276H64.8458C64.7179 98.7003 64.5368 98.9709 64.3025 99.2393C64.0723 99.5036 63.7719 99.723 63.4012 99.8977C63.0347 100.072 62.5873 100.16 62.0588 100.16ZM62.9218 97.9929C63.3607 97.9929 63.7314 97.8736 64.034 97.6349C64.3408 97.392 64.5752 97.0533 64.7371 96.6186C64.9033 96.1839 64.9864 95.6747 64.9864 95.0909C64.9864 94.5071 64.9054 94 64.7435 93.5696C64.5816 93.1392 64.3472 92.8068 64.0404 92.5724C63.7336 92.3381 63.3607 92.2209 62.9218 92.2209C62.4743 92.2209 62.0972 92.3423 61.7904 92.5852C61.4836 92.8281 61.2513 93.1648 61.0936 93.5952C60.936 94.0256 60.8571 94.5241 60.8571 95.0909C60.8571 95.6619 60.936 96.1669 61.0936 96.6058C61.2556 97.0405 61.4878 97.3814 61.7904 97.6286C62.0972 97.8714 62.4743 97.9929 62.9218 97.9929ZM70.8602 100V90.1818H73.5833V100H70.8602ZM75.3411 86.9091V88.3857H69.1152V86.9091H75.3411ZM76.1252 90.1818H78.8483V100.486C78.8483 101.244 78.6991 101.858 78.4008 102.327C78.1025 102.795 77.6742 103.138 77.116 103.356C76.562 103.573 75.8994 103.682 75.1281 103.682C75.0343 103.682 74.9448 103.68 74.8596 103.675C74.7701 103.675 74.6764 103.673 74.5784 103.669V101.54C74.6508 101.545 74.7147 101.547 74.7701 101.547C74.8213 101.551 74.8767 101.553 74.9363 101.553C75.3752 101.553 75.6821 101.46 75.8568 101.272C76.0358 101.089 76.1252 100.812 76.1252 100.441V90.1818ZM77.4804 88.9162C77.0798 88.9162 76.7346 88.782 76.4448 88.5135C76.1551 88.2408 76.0102 87.9148 76.0102 87.5355C76.0102 87.1605 76.1551 86.8388 76.4448 86.5703C76.7346 86.2976 77.0798 86.1612 77.4804 86.1612C77.8894 86.1612 78.2367 86.2976 78.5223 86.5703C78.812 86.8388 78.9569 87.1605 78.9569 87.5355C78.9569 87.9148 78.812 88.2408 78.5223 88.5135C78.2367 88.782 77.8894 88.9162 77.4804 88.9162ZM86.9657 95.8196V90.1818H89.6887V100H87.0744V98.2166H86.9721C86.7505 98.7919 86.3819 99.2543 85.8663 99.6037C85.3549 99.9531 84.7306 100.128 83.9934 100.128C83.3372 100.128 82.7597 99.9787 82.2612 99.6804C81.7626 99.3821 81.3727 98.9581 81.0914 98.4084C80.8144 97.8587 80.6738 97.2003 80.6695 96.4332V90.1818H83.3925V95.9474C83.3968 96.527 83.5523 96.9851 83.8592 97.3217C84.166 97.6584 84.5772 97.8267 85.0928 97.8267C85.421 97.8267 85.7278 97.7521 86.0133 97.603C86.2988 97.4496 86.5289 97.2237 86.7036 96.9254C86.8826 96.6271 86.97 96.2585 86.9657 95.8196ZM91.5068 100V90.1818H94.102V91.9141H94.217C94.4216 91.3388 94.7625 90.8849 95.2398 90.5526C95.717 90.2202 96.2881 90.054 96.9528 90.054C97.6261 90.054 98.1993 90.2223 98.6723 90.5589C99.1453 90.8913 99.4606 91.343 99.6183 91.9141H99.7206C99.9209 91.3516 100.283 90.902 100.807 90.5653C101.336 90.2244 101.96 90.054 102.68 90.054C103.596 90.054 104.34 90.3459 104.911 90.9297C105.486 91.5092 105.774 92.3317 105.774 93.397V100H103.057V93.9339C103.057 93.3885 102.912 92.9794 102.623 92.7067C102.333 92.4339 101.971 92.2976 101.536 92.2976C101.042 92.2976 100.656 92.4553 100.379 92.7706C100.102 93.0817 99.9635 93.4929 99.9635 94.0043V100H97.3236V93.8764C97.3236 93.3949 97.1851 93.0114 96.9081 92.7259C96.6354 92.4403 96.2753 92.2976 95.8278 92.2976C95.5253 92.2976 95.2525 92.3743 95.0096 92.5277C94.771 92.6768 94.5814 92.8878 94.4408 93.1605C94.3001 93.429 94.2298 93.7443 94.2298 94.1065V100H91.5068ZM107.565 100V90.1818H110.288V100H107.565ZM108.933 88.9162C108.528 88.9162 108.181 88.782 107.891 88.5135C107.605 88.2408 107.463 87.9148 107.463 87.5355C107.463 87.1605 107.605 86.8388 107.891 86.5703C108.181 86.2976 108.528 86.1612 108.933 86.1612C109.338 86.1612 109.683 86.2976 109.968 86.5703C110.258 86.8388 110.403 87.1605 110.403 87.5355C110.403 87.9148 110.258 88.2408 109.968 88.5135C109.683 88.782 109.338 88.9162 108.933 88.9162ZM23.3828 117.82V112.182H26.1058V122H23.4915V120.217H23.3892C23.1676 120.792 22.799 121.254 22.2834 121.604C21.772 121.953 21.1477 122.128 20.4105 122.128C19.7543 122.128 19.1768 121.979 18.6783 121.68C18.1797 121.382 17.7898 120.958 17.5085 120.408C17.2315 119.859 17.0909 119.2 17.0866 118.433V112.182H19.8097V117.947C19.8139 118.527 19.9695 118.985 20.2763 119.322C20.5831 119.658 20.9943 119.827 21.5099 119.827C21.8381 119.827 22.1449 119.752 22.4304 119.603C22.7159 119.45 22.946 119.224 23.1207 118.925C23.2997 118.627 23.3871 118.259 23.3828 117.82ZM27.8728 122V120.376L32.6796 114.425V114.355H28.039V112.182H35.9587V113.952L31.4459 119.756V119.827H36.1249V122H27.8728ZM40.5701 116.324V122H37.8471V112.182H40.4423V113.914H40.5573C40.7747 113.343 41.139 112.891 41.6504 112.559C42.1617 112.222 42.7818 112.054 43.5105 112.054C44.1923 112.054 44.7867 112.203 45.2939 112.501C45.801 112.8 46.1951 113.226 46.4764 113.78C46.7576 114.33 46.8983 114.986 46.8983 115.749V122H44.1752V116.234C44.1795 115.634 44.0261 115.165 43.715 114.828C43.4039 114.487 42.9757 114.317 42.4302 114.317C42.0637 114.317 41.7399 114.396 41.4586 114.553C41.1816 114.711 40.9643 114.941 40.8066 115.244C40.6532 115.542 40.5744 115.902 40.5701 116.324ZM40.3336 126.193L41.1262 123.036H43.6447L42.2448 126.193H40.3336ZM53.1588 122.192C52.1489 122.192 51.2796 121.987 50.5509 121.578C49.8264 121.165 49.2682 120.581 48.8761 119.827C48.4841 119.068 48.2881 118.171 48.2881 117.136C48.2881 116.126 48.4841 115.239 48.8761 114.477C49.2682 113.714 49.82 113.119 50.5317 112.693C51.2476 112.267 52.0871 112.054 53.0501 112.054C53.6979 112.054 54.3009 112.158 54.8591 112.367C55.4216 112.572 55.9117 112.881 56.3293 113.294C56.7511 113.707 57.0793 114.227 57.3136 114.854C57.548 115.476 57.6652 116.205 57.6652 117.04V117.788H49.3747V116.1H55.102C55.102 115.708 55.0168 115.361 54.8463 115.058C54.6759 114.756 54.4394 114.519 54.1368 114.349C53.8385 114.174 53.4912 114.087 53.0949 114.087C52.6815 114.087 52.3151 114.183 51.9955 114.374C51.6801 114.562 51.433 114.815 51.254 115.135C51.075 115.45 50.9834 115.802 50.9791 116.19V117.794C50.9791 118.28 51.0686 118.7 51.2476 119.053C51.4308 119.407 51.6886 119.68 52.021 119.871C52.3534 120.063 52.7476 120.159 53.2036 120.159C53.5061 120.159 53.7831 120.116 54.0345 120.031C54.2859 119.946 54.5011 119.818 54.6801 119.648C54.8591 119.477 54.9955 119.268 55.0892 119.021L57.6077 119.188C57.4798 119.793 57.2178 120.321 56.8215 120.773C56.4294 121.22 55.9223 121.57 55.3001 121.821C54.6823 122.068 53.9685 122.192 53.1588 122.192ZM56.0992 108.909V110.386H49.8733V108.909H56.0992ZM59.0822 122V112.182H61.6774V113.914H61.7924C61.997 113.339 62.3379 112.885 62.8152 112.553C63.2924 112.22 63.8634 112.054 64.5282 112.054C65.2015 112.054 65.7747 112.222 66.2477 112.559C66.7207 112.891 67.036 113.343 67.1937 113.914H67.296C67.4963 113.352 67.8585 112.902 68.3826 112.565C68.911 112.224 69.5353 112.054 70.2555 112.054C71.1717 112.054 71.9153 112.346 72.4863 112.93C73.0616 113.509 73.3492 114.332 73.3492 115.397V122H70.6326V115.934C70.6326 115.388 70.4877 114.979 70.198 114.707C69.9082 114.434 69.546 114.298 69.1113 114.298C68.617 114.298 68.2313 114.455 67.9544 114.771C67.6774 115.082 67.5389 115.493 67.5389 116.004V122H64.899V115.876C64.899 115.395 64.7605 115.011 64.4835 114.726C64.2107 114.44 63.8507 114.298 63.4032 114.298C63.1007 114.298 62.8279 114.374 62.585 114.528C62.3464 114.677 62.1568 114.888 62.0161 115.161C61.8755 115.429 61.8052 115.744 61.8052 116.107V122H59.0822ZM81.4363 117.82V112.182H84.1593V122H81.545V120.217H81.4427C81.2211 120.792 80.8525 121.254 80.3369 121.604C79.8255 121.953 79.2012 122.128 78.464 122.128C77.8078 122.128 77.2304 121.979 76.7318 121.68C76.2332 121.382 75.8433 120.958 75.562 120.408C75.2851 119.859 75.1444 119.2 75.1402 118.433V112.182H77.8632V117.947C77.8674 118.527 78.023 118.985 78.3298 119.322C78.6366 119.658 79.0478 119.827 79.5635 119.827C79.8916 119.827 80.1984 119.752 80.4839 119.603C80.7694 119.45 80.9995 119.224 81.1743 118.925C81.3532 118.627 81.4406 118.259 81.4363 117.82ZM85.9774 122V112.182H88.5726V113.914H88.6877C88.8922 113.339 89.2331 112.885 89.7104 112.553C90.1877 112.22 90.7587 112.054 91.4234 112.054C92.0967 112.054 92.6699 112.222 93.1429 112.559C93.6159 112.891 93.9313 113.343 94.0889 113.914H94.1912C94.3915 113.352 94.7537 112.902 95.2779 112.565C95.8063 112.224 96.4306 112.054 97.1507 112.054C98.0669 112.054 98.8105 112.346 99.3815 112.93C99.9568 113.509 100.244 114.332 100.244 115.397V122H97.5279V115.934C97.5279 115.388 97.383 114.979 97.0932 114.707C96.8034 114.434 96.4412 114.298 96.0065 114.298C95.5122 114.298 95.1266 114.455 94.8496 114.771C94.5726 115.082 94.4341 115.493 94.4341 116.004V122H91.7942V115.876C91.7942 115.395 91.6557 115.011 91.3787 114.726C91.106 114.44 90.7459 114.298 90.2984 114.298C89.9959 114.298 89.7232 114.374 89.4803 114.528C89.2416 114.677 89.052 114.888 88.9114 115.161C88.7707 115.429 88.7004 115.744 88.7004 116.107V122H85.9774ZM104.835 122.185C104.209 122.185 103.65 122.077 103.16 121.859C102.67 121.638 102.283 121.312 101.997 120.881C101.716 120.447 101.575 119.906 101.575 119.258C101.575 118.712 101.675 118.254 101.876 117.884C102.076 117.513 102.349 117.214 102.694 116.989C103.039 116.763 103.431 116.592 103.87 116.477C104.313 116.362 104.778 116.281 105.263 116.234C105.834 116.175 106.295 116.119 106.644 116.068C106.993 116.013 107.247 115.932 107.405 115.825C107.562 115.719 107.641 115.561 107.641 115.352V115.314C107.641 114.909 107.513 114.596 107.258 114.374C107.006 114.153 106.648 114.042 106.184 114.042C105.694 114.042 105.304 114.151 105.014 114.368C104.724 114.581 104.533 114.849 104.439 115.173L101.92 114.969C102.048 114.372 102.3 113.857 102.675 113.422C103.05 112.983 103.533 112.646 104.126 112.412C104.722 112.173 105.413 112.054 106.197 112.054C106.742 112.054 107.264 112.118 107.763 112.246C108.266 112.374 108.711 112.572 109.099 112.84C109.491 113.109 109.8 113.454 110.025 113.876C110.251 114.293 110.364 114.794 110.364 115.378V122H107.782V120.638H107.705C107.547 120.945 107.337 121.216 107.072 121.45C106.808 121.68 106.491 121.862 106.12 121.994C105.749 122.121 105.321 122.185 104.835 122.185ZM105.615 120.306C106.016 120.306 106.369 120.227 106.676 120.07C106.983 119.908 107.224 119.69 107.398 119.418C107.573 119.145 107.66 118.836 107.66 118.491V117.449C107.575 117.504 107.458 117.555 107.309 117.602C107.164 117.645 107 117.685 106.817 117.724C106.633 117.758 106.45 117.79 106.267 117.82C106.084 117.845 105.918 117.869 105.768 117.89C105.449 117.937 105.17 118.011 104.931 118.114C104.692 118.216 104.507 118.354 104.375 118.529C104.243 118.7 104.177 118.913 104.177 119.168C104.177 119.539 104.311 119.822 104.579 120.018C104.852 120.21 105.197 120.306 105.615 120.306ZM109.412 108.909V110.386H103.186V108.909H109.412Z" fill="#1A1D27"/>
<path d="M17.0568 142V133.273H18.1136V137.602H18.2159L22.1364 133.273H23.517L19.8523 137.21L23.517 142H22.2386L19.2045 137.943L18.1136 139.17V142H17.0568ZM26.6747 142.153C26.2599 142.153 25.8835 142.075 25.5455 141.919C25.2074 141.76 24.9389 141.531 24.7401 141.233C24.5412 140.932 24.4418 140.568 24.4418 140.142C24.4418 139.767 24.5156 139.463 24.6634 139.23C24.8111 138.994 25.0085 138.81 25.2557 138.676C25.5028 138.543 25.7756 138.443 26.0739 138.378C26.375 138.31 26.6776 138.256 26.9815 138.216C27.3793 138.165 27.7017 138.126 27.9489 138.101C28.1989 138.072 28.3807 138.026 28.4943 137.96C28.6108 137.895 28.669 137.781 28.669 137.619V137.585C28.669 137.165 28.554 136.838 28.3239 136.605C28.0966 136.372 27.7514 136.256 27.2884 136.256C26.8082 136.256 26.4318 136.361 26.1591 136.571C25.8864 136.781 25.6946 137.006 25.5838 137.244L24.6293 136.903C24.7997 136.506 25.027 136.196 25.3111 135.974C25.598 135.75 25.9105 135.594 26.2486 135.506C26.5895 135.415 26.9247 135.369 27.2543 135.369C27.4645 135.369 27.706 135.395 27.9787 135.446C28.2543 135.494 28.5199 135.595 28.7756 135.749C29.0341 135.902 29.2486 136.134 29.419 136.443C29.5895 136.753 29.6747 137.168 29.6747 137.688V142H28.669V141.114H28.6179C28.5497 141.256 28.4361 141.408 28.277 141.57C28.1179 141.732 27.9063 141.869 27.642 141.983C27.3778 142.097 27.0554 142.153 26.6747 142.153ZM26.8281 141.25C27.2259 141.25 27.5611 141.172 27.8338 141.016C28.1094 140.859 28.3168 140.658 28.456 140.411C28.598 140.163 28.669 139.903 28.669 139.631V138.71C28.6264 138.761 28.5327 138.808 28.3878 138.851C28.2457 138.891 28.081 138.926 27.8935 138.957C27.7088 138.986 27.5284 139.011 27.3523 139.034C27.179 139.054 27.0384 139.071 26.9304 139.085C26.669 139.119 26.4247 139.175 26.1974 139.251C25.973 139.325 25.7912 139.437 25.652 139.588C25.5156 139.736 25.4474 139.937 25.4474 140.193C25.4474 140.543 25.5767 140.807 25.8352 140.986C26.0966 141.162 26.4276 141.25 26.8281 141.25ZM33.9819 142.136C33.4364 142.136 32.9549 141.999 32.5373 141.723C32.1197 141.445 31.793 141.053 31.5572 140.547C31.3214 140.038 31.2035 139.438 31.2035 138.744C31.2035 138.057 31.3214 137.46 31.5572 136.955C31.793 136.449 32.1211 136.058 32.5415 135.783C32.962 135.507 33.4478 135.369 33.9989 135.369C34.4251 135.369 34.7617 135.44 35.0089 135.582C35.2589 135.722 35.4492 135.881 35.5799 136.06C35.7134 136.236 35.8171 136.381 35.891 136.494H35.9762V133.273H36.9819V142H36.0103V140.994H35.891C35.8171 141.114 35.712 141.264 35.5756 141.446C35.4393 141.625 35.2447 141.786 34.9918 141.928C34.739 142.067 34.4023 142.136 33.9819 142.136ZM34.1183 141.233C34.5217 141.233 34.8626 141.128 35.141 140.918C35.4194 140.705 35.631 140.411 35.7759 140.036C35.9208 139.658 35.9933 139.222 35.9933 138.727C35.9933 138.239 35.9222 137.811 35.7802 137.445C35.6381 137.075 35.4279 136.788 35.1495 136.584C34.8711 136.376 34.5273 136.273 34.1183 136.273C33.6921 136.273 33.337 136.382 33.0529 136.601C32.7717 136.817 32.56 137.111 32.418 137.483C32.2788 137.852 32.2092 138.267 32.2092 138.727C32.2092 139.193 32.2802 139.616 32.4222 139.997C32.5671 140.375 32.7802 140.676 33.0614 140.901C33.3455 141.122 33.6978 141.233 34.1183 141.233ZM46.4634 139.324V135.455H47.4691V142H46.4634V140.892H46.3952C46.2418 141.224 46.0032 141.507 45.6793 141.74C45.3555 141.97 44.9464 142.085 44.4521 142.085C44.043 142.085 43.6793 141.996 43.3612 141.817C43.043 141.635 42.793 141.362 42.6112 140.999C42.4293 140.632 42.3384 140.17 42.3384 139.614V135.455H43.3441V139.545C43.3441 140.023 43.4776 140.403 43.7447 140.688C44.0146 140.972 44.3583 141.114 44.7759 141.114C45.0259 141.114 45.2802 141.05 45.5387 140.922C45.8001 140.794 46.0188 140.598 46.195 140.334C46.3739 140.07 46.4634 139.733 46.4634 139.324ZM49.1236 142V141.233L52.8395 136.46V136.392H49.2429V135.455H54.1349V136.256L50.5213 140.994V141.062H54.2543V142H49.1236ZM56.8089 138.062V142H55.8033V135.455H56.7749V136.477H56.8601C57.0135 136.145 57.2464 135.878 57.5589 135.676C57.8714 135.472 58.2749 135.369 58.7692 135.369C59.2124 135.369 59.6001 135.46 59.9325 135.642C60.2649 135.821 60.5234 136.094 60.7081 136.46C60.8928 136.824 60.9851 137.284 60.9851 137.841V142H59.9794V137.909C59.9794 137.395 59.8459 136.994 59.5788 136.707C59.3118 136.418 58.9453 136.273 58.4794 136.273C58.1584 136.273 57.8714 136.342 57.6186 136.482C57.3686 136.621 57.1712 136.824 57.0263 137.091C56.8814 137.358 56.8089 137.682 56.8089 138.062ZM57.397 144.898L57.8743 142.69H58.9055L58.1811 144.898H57.397ZM65.5671 142.136C64.9364 142.136 64.3924 141.997 63.935 141.719C63.4805 141.438 63.1296 141.045 62.8825 140.543C62.6381 140.037 62.516 139.449 62.516 138.778C62.516 138.108 62.6381 137.517 62.8825 137.006C63.1296 136.491 63.4734 136.091 63.9137 135.804C64.3569 135.514 64.8739 135.369 65.4648 135.369C65.8058 135.369 66.1424 135.426 66.4748 135.54C66.8072 135.653 67.1097 135.838 67.3825 136.094C67.6552 136.347 67.8725 136.682 68.0344 137.099C68.1964 137.517 68.2773 138.031 68.2773 138.642V139.068H63.2319V138.199H67.2546C67.2546 137.83 67.1808 137.5 67.033 137.21C66.8881 136.92 66.6808 136.692 66.4109 136.524C66.1438 136.357 65.8285 136.273 65.4648 136.273C65.0643 136.273 64.7177 136.372 64.4251 136.571C64.1353 136.767 63.9123 137.023 63.756 137.338C63.5998 137.653 63.5217 137.991 63.5217 138.352V138.932C63.5217 139.426 63.6069 139.845 63.7773 140.189C63.9506 140.53 64.1907 140.79 64.4975 140.969C64.8043 141.145 65.1609 141.233 65.5671 141.233C65.8313 141.233 66.07 141.196 66.283 141.122C66.4989 141.045 66.685 140.932 66.8413 140.781C66.9975 140.628 67.1183 140.437 67.2035 140.21L68.1751 140.483C68.0728 140.812 67.9009 141.102 67.6594 141.352C67.418 141.599 67.1197 141.793 66.7646 141.932C66.4094 142.068 66.0103 142.136 65.5671 142.136ZM67.408 133.273V134.125H63.4194V133.273H67.408ZM69.8072 142V135.455H70.7788V136.477H70.864C71.0004 136.128 71.2205 135.857 71.5245 135.663C71.8285 135.467 72.1935 135.369 72.6197 135.369C73.0515 135.369 73.4109 135.467 73.6978 135.663C73.9876 135.857 74.2134 136.128 74.3754 136.477H74.4435C74.6112 136.139 74.8626 135.871 75.1978 135.672C75.533 135.47 75.935 135.369 76.4038 135.369C76.989 135.369 77.4677 135.553 77.8398 135.919C78.212 136.283 78.3981 136.849 78.3981 137.619V142H77.3924V137.619C77.3924 137.136 77.2603 136.791 76.9961 136.584C76.7319 136.376 76.4208 136.273 76.0629 136.273C75.6026 136.273 75.2461 136.412 74.9933 136.69C74.7404 136.966 74.614 137.315 74.614 137.739V142H73.5913V137.517C73.5913 137.145 73.4705 136.845 73.229 136.618C72.9876 136.388 72.6765 136.273 72.2958 136.273C72.0344 136.273 71.7901 136.342 71.5629 136.482C71.3384 136.621 71.1566 136.814 71.0174 137.061C70.881 137.305 70.8129 137.588 70.8129 137.909V142H69.8072ZM82.9812 142.136C82.3505 142.136 81.8065 141.997 81.3491 141.719C80.8945 141.438 80.5437 141.045 80.2965 140.543C80.0522 140.037 79.93 139.449 79.93 138.778C79.93 138.108 80.0522 137.517 80.2965 137.006C80.5437 136.491 80.8874 136.091 81.3278 135.804C81.771 135.514 82.288 135.369 82.8789 135.369C83.2198 135.369 83.5565 135.426 83.8888 135.54C84.2212 135.653 84.5238 135.838 84.7965 136.094C85.0692 136.347 85.2866 136.682 85.4485 137.099C85.6104 137.517 85.6914 138.031 85.6914 138.642V139.068H80.646V138.199H84.6687C84.6687 137.83 84.5948 137.5 84.4471 137.21C84.3022 136.92 84.0948 136.692 83.8249 136.524C83.5579 136.357 83.2425 136.273 82.8789 136.273C82.4783 136.273 82.1317 136.372 81.8391 136.571C81.5494 136.767 81.3263 137.023 81.1701 137.338C81.0138 137.653 80.9357 137.991 80.9357 138.352V138.932C80.9357 139.426 81.021 139.845 81.1914 140.189C81.3647 140.53 81.6048 140.79 81.9116 140.969C82.2184 141.145 82.5749 141.233 82.9812 141.233C83.2454 141.233 83.484 141.196 83.6971 141.122C83.913 141.045 84.0991 140.932 84.2553 140.781C84.4116 140.628 84.5323 140.437 84.6175 140.21L85.5891 140.483C85.4869 140.812 85.315 141.102 85.0735 141.352C84.832 141.599 84.5337 141.793 84.1786 141.932C83.8235 142.068 83.4244 142.136 82.9812 142.136ZM84.8221 133.273V134.125H80.8335V133.273H84.8221ZM87.2212 135.455H88.2269V142.477C88.2269 142.881 88.1573 143.23 88.0181 143.526C87.8817 143.821 87.6744 144.05 87.396 144.212C87.1204 144.374 86.7724 144.455 86.3519 144.455C86.3178 144.455 86.2837 144.455 86.2496 144.455C86.2156 144.455 86.1815 144.455 86.1474 144.455V143.517C86.1815 143.517 86.2127 143.517 86.2411 143.517C86.2695 143.517 86.3008 143.517 86.3349 143.517C86.6417 143.517 86.8661 143.426 87.0082 143.244C87.1502 143.065 87.2212 142.81 87.2212 142.477V135.455ZM87.7156 134.364C87.5195 134.364 87.3505 134.297 87.2085 134.163C87.0692 134.03 86.9996 133.869 86.9996 133.682C86.9996 133.494 87.0692 133.334 87.2085 133.2C87.3505 133.067 87.5195 133 87.7156 133C87.9116 133 88.0792 133.067 88.2184 133.2C88.3604 133.334 88.4315 133.494 88.4315 133.682C88.4315 133.869 88.3604 134.03 88.2184 134.163C88.0792 134.297 87.9116 134.364 87.7156 134.364ZM94.7053 136.92L93.8018 137.176C93.745 137.026 93.6612 136.879 93.5504 136.737C93.4425 136.592 93.2947 136.473 93.1072 136.379C92.9197 136.286 92.6797 136.239 92.3871 136.239C91.9865 136.239 91.6527 136.331 91.3857 136.516C91.1214 136.697 90.9893 136.929 90.9893 137.21C90.9893 137.46 91.0803 137.658 91.2621 137.803C91.4439 137.947 91.728 138.068 92.1143 138.165L93.0859 138.403C93.6712 138.545 94.1072 138.763 94.3942 139.055C94.6811 139.345 94.8246 139.719 94.8246 140.176C94.8246 140.551 94.7166 140.886 94.5007 141.182C94.2876 141.477 93.9893 141.71 93.6058 141.881C93.2223 142.051 92.7763 142.136 92.2678 142.136C91.6001 142.136 91.0476 141.991 90.6101 141.702C90.1726 141.412 89.8956 140.989 89.7791 140.432L90.7337 140.193C90.8246 140.545 90.9964 140.81 91.2493 140.986C91.505 141.162 91.8388 141.25 92.2507 141.25C92.7195 141.25 93.0916 141.151 93.3672 140.952C93.6456 140.75 93.7848 140.509 93.7848 140.227C93.7848 140 93.7053 139.81 93.5462 139.656C93.3871 139.5 93.1428 139.384 92.8132 139.307L91.7223 139.051C91.1229 138.909 90.6825 138.689 90.4013 138.391C90.1229 138.089 89.9837 137.713 89.9837 137.261C89.9837 136.892 90.0874 136.565 90.2947 136.281C90.505 135.997 90.7905 135.774 91.1513 135.612C91.5149 135.45 91.9268 135.369 92.3871 135.369C93.0348 135.369 93.5433 135.511 93.9126 135.795C94.2848 136.08 94.549 136.455 94.7053 136.92ZM99.7134 142V135.455H100.719V142H99.7134ZM100.225 134.364C100.029 134.364 99.8597 134.297 99.7177 134.163C99.5785 134.03 99.5089 133.869 99.5089 133.682C99.5089 133.494 99.5785 133.334 99.7177 133.2C99.8597 133.067 100.029 133 100.225 133C100.421 133 100.588 133.067 100.728 133.2C100.87 133.334 100.941 133.494 100.941 133.682C100.941 133.869 100.87 134.03 100.728 134.163C100.588 134.297 100.421 134.364 100.225 134.364ZM103.567 138.062V142H102.561V135.455H103.533V136.477H103.618C103.771 136.145 104.004 135.878 104.317 135.676C104.629 135.472 105.033 135.369 105.527 135.369C105.97 135.369 106.358 135.46 106.69 135.642C107.023 135.821 107.281 136.094 107.466 136.46C107.651 136.824 107.743 137.284 107.743 137.841V142H106.737V137.909C106.737 137.395 106.604 136.994 106.337 136.707C106.07 136.418 105.703 136.273 105.237 136.273C104.916 136.273 104.629 136.342 104.376 136.482C104.126 136.621 103.929 136.824 103.784 137.091C103.639 137.358 103.567 137.682 103.567 138.062ZM114.699 135.455L112.278 142H111.255L108.835 135.455H109.926L111.733 140.67H111.801L113.608 135.455H114.699ZM118.536 142.136C117.905 142.136 117.361 141.997 116.904 141.719C116.449 141.438 116.098 141.045 115.851 140.543C115.607 140.037 115.485 139.449 115.485 138.778C115.485 138.108 115.607 137.517 115.851 137.006C116.098 136.491 116.442 136.091 116.882 135.804C117.326 135.514 117.843 135.369 118.434 135.369C118.775 135.369 119.111 135.426 119.444 135.54C119.776 135.653 120.078 135.838 120.351 136.094C120.624 136.347 120.841 136.682 121.003 137.099C121.165 137.517 121.246 138.031 121.246 138.642V139.068H116.201V138.199H120.223C120.223 137.83 120.15 137.5 120.002 137.21C119.857 136.92 119.65 136.692 119.38 136.524C119.113 136.357 118.797 136.273 118.434 136.273C118.033 136.273 117.686 136.372 117.394 136.571C117.104 136.767 116.881 137.023 116.725 137.338C116.569 137.653 116.49 137.991 116.49 138.352V138.932C116.49 139.426 116.576 139.845 116.746 140.189C116.919 140.53 117.159 140.79 117.466 140.969C117.773 141.145 118.13 141.233 118.536 141.233C118.8 141.233 119.039 141.196 119.252 141.122C119.468 141.045 119.654 140.932 119.81 140.781C119.966 140.628 120.087 140.437 120.172 140.21L121.144 140.483C121.042 140.812 120.87 141.102 120.628 141.352C120.387 141.599 120.088 141.793 119.733 141.932C119.378 142.068 118.979 142.136 118.536 142.136ZM127.412 136.92L126.509 137.176C126.452 137.026 126.368 136.879 126.257 136.737C126.15 136.592 126.002 136.473 125.814 136.379C125.627 136.286 125.387 136.239 125.094 136.239C124.694 136.239 124.36 136.331 124.093 136.516C123.828 136.697 123.696 136.929 123.696 137.21C123.696 137.46 123.787 137.658 123.969 137.803C124.151 137.947 124.435 138.068 124.821 138.165L125.793 138.403C126.378 138.545 126.814 138.763 127.101 139.055C127.388 139.345 127.532 139.719 127.532 140.176C127.532 140.551 127.424 140.886 127.208 141.182C126.995 141.477 126.696 141.71 126.313 141.881C125.929 142.051 125.483 142.136 124.975 142.136C124.307 142.136 123.755 141.991 123.317 141.702C122.88 141.412 122.603 140.989 122.486 140.432L123.441 140.193C123.532 140.545 123.703 140.81 123.956 140.986C124.212 141.162 124.546 141.25 124.958 141.25C125.426 141.25 125.799 141.151 126.074 140.952C126.353 140.75 126.492 140.509 126.492 140.227C126.492 140 126.412 139.81 126.253 139.656C126.094 139.5 125.85 139.384 125.52 139.307L124.429 139.051C123.83 138.909 123.39 138.689 123.108 138.391C122.83 138.089 122.691 137.713 122.691 137.261C122.691 136.892 122.794 136.565 123.002 136.281C123.212 135.997 123.498 135.774 123.858 135.612C124.222 135.45 124.634 135.369 125.094 135.369C125.742 135.369 126.25 135.511 126.62 135.795C126.992 136.08 127.256 136.455 127.412 136.92ZM131.892 135.455V136.307H128.5V135.455H131.892ZM129.489 133.886H130.494V140.125C130.494 140.409 130.536 140.622 130.618 140.764C130.703 140.903 130.811 140.997 130.942 141.045C131.075 141.091 131.216 141.114 131.364 141.114C131.474 141.114 131.565 141.108 131.636 141.097C131.707 141.082 131.764 141.071 131.807 141.062L132.011 141.966C131.943 141.991 131.848 142.017 131.726 142.043C131.604 142.071 131.449 142.085 131.261 142.085C130.977 142.085 130.699 142.024 130.426 141.902C130.156 141.78 129.932 141.594 129.753 141.344C129.577 141.094 129.489 140.778 129.489 140.398V133.886ZM136.079 142.136C135.448 142.136 134.904 141.997 134.447 141.719C133.992 141.438 133.641 141.045 133.394 140.543C133.15 140.037 133.028 139.449 133.028 138.778C133.028 138.108 133.15 137.517 133.394 137.006C133.641 136.491 133.985 136.091 134.425 135.804C134.869 135.514 135.386 135.369 135.977 135.369C136.317 135.369 136.654 135.426 136.987 135.54C137.319 135.653 137.621 135.838 137.894 136.094C138.167 136.347 138.384 136.682 138.546 137.099C138.708 137.517 138.789 138.031 138.789 138.642V139.068H133.744V138.199H137.766C137.766 137.83 137.692 137.5 137.545 137.21C137.4 136.92 137.192 136.692 136.923 136.524C136.656 136.357 136.34 136.273 135.977 136.273C135.576 136.273 135.229 136.372 134.937 136.571C134.647 136.767 134.424 137.023 134.268 137.338C134.112 137.653 134.033 137.991 134.033 138.352V138.932C134.033 139.426 134.119 139.845 134.289 140.189C134.462 140.53 134.702 140.79 135.009 140.969C135.316 141.145 135.673 141.233 136.079 141.233C136.343 141.233 136.582 141.196 136.795 141.122C137.011 141.045 137.197 140.932 137.353 140.781C137.509 140.628 137.63 140.437 137.715 140.21L138.687 140.483C138.585 140.812 138.413 141.102 138.171 141.352C137.93 141.599 137.631 141.793 137.276 141.932C136.921 142.068 136.522 142.136 136.079 142.136ZM137.92 133.273V134.125H133.931V133.273H137.92ZM143.694 144.455V135.455H144.665V136.494H144.785C144.859 136.381 144.961 136.236 145.092 136.06C145.225 135.881 145.415 135.722 145.663 135.582C145.913 135.44 146.251 135.369 146.677 135.369C147.228 135.369 147.714 135.507 148.134 135.783C148.555 136.058 148.883 136.449 149.119 136.955C149.354 137.46 149.472 138.057 149.472 138.744C149.472 139.438 149.354 140.038 149.119 140.547C148.883 141.053 148.556 141.445 148.138 141.723C147.721 141.999 147.239 142.136 146.694 142.136C146.273 142.136 145.937 142.067 145.684 141.928C145.431 141.786 145.237 141.625 145.1 141.446C144.964 141.264 144.859 141.114 144.785 140.994H144.7V144.455H143.694ZM144.683 138.727C144.683 139.222 144.755 139.658 144.9 140.036C145.045 140.411 145.256 140.705 145.535 140.918C145.813 141.128 146.154 141.233 146.558 141.233C146.978 141.233 147.329 141.122 147.61 140.901C147.894 140.676 148.107 140.375 148.249 139.997C148.394 139.616 148.467 139.193 148.467 138.727C148.467 138.267 148.396 137.852 148.254 137.483C148.114 137.111 147.903 136.817 147.619 136.601C147.337 136.382 146.984 136.273 146.558 136.273C146.148 136.273 145.805 136.376 145.526 136.584C145.248 136.788 145.038 137.075 144.896 137.445C144.754 137.811 144.683 138.239 144.683 138.727ZM152.933 142.153C152.518 142.153 152.141 142.075 151.803 141.919C151.465 141.76 151.197 141.531 150.998 141.233C150.799 140.932 150.7 140.568 150.7 140.142C150.7 139.767 150.773 139.463 150.921 139.23C151.069 138.994 151.266 138.81 151.513 138.676C151.761 138.543 152.033 138.443 152.332 138.378C152.633 138.31 152.935 138.256 153.239 138.216C153.637 138.165 153.96 138.126 154.207 138.101C154.457 138.072 154.638 138.026 154.752 137.96C154.869 137.895 154.927 137.781 154.927 137.619V137.585C154.927 137.165 154.812 136.838 154.582 136.605C154.354 136.372 154.009 136.256 153.546 136.256C153.066 136.256 152.69 136.361 152.417 136.571C152.144 136.781 151.952 137.006 151.842 137.244L150.887 136.903C151.058 136.506 151.285 136.196 151.569 135.974C151.856 135.75 152.168 135.594 152.506 135.506C152.847 135.415 153.183 135.369 153.512 135.369C153.722 135.369 153.964 135.395 154.237 135.446C154.512 135.494 154.778 135.595 155.033 135.749C155.292 135.902 155.506 136.134 155.677 136.443C155.847 136.753 155.933 137.168 155.933 137.688V142H154.927V141.114H154.876C154.808 141.256 154.694 141.408 154.535 141.57C154.376 141.732 154.164 141.869 153.9 141.983C153.636 142.097 153.313 142.153 152.933 142.153ZM153.086 141.25C153.484 141.25 153.819 141.172 154.092 141.016C154.367 140.859 154.575 140.658 154.714 140.411C154.856 140.163 154.927 139.903 154.927 139.631V138.71C154.884 138.761 154.79 138.808 154.646 138.851C154.504 138.891 154.339 138.926 154.151 138.957C153.967 138.986 153.786 139.011 153.61 139.034C153.437 139.054 153.296 139.071 153.188 139.085C152.927 139.119 152.683 139.175 152.455 139.251C152.231 139.325 152.049 139.437 151.91 139.588C151.773 139.736 151.705 139.937 151.705 140.193C151.705 140.543 151.835 140.807 152.093 140.986C152.354 141.162 152.685 141.25 153.086 141.25ZM160.615 135.455V136.307H157.223V135.455H160.615ZM158.211 133.886H159.217V140.125C159.217 140.409 159.258 140.622 159.341 140.764C159.426 140.903 159.534 140.997 159.664 141.045C159.798 141.091 159.939 141.114 160.086 141.114C160.197 141.114 160.288 141.108 160.359 141.097C160.43 141.082 160.487 141.071 160.529 141.062L160.734 141.966C160.666 141.991 160.571 142.017 160.449 142.043C160.326 142.071 160.172 142.085 159.984 142.085C159.7 142.085 159.422 142.024 159.149 141.902C158.879 141.78 158.654 141.594 158.475 141.344C158.299 141.094 158.211 140.778 158.211 140.398V133.886ZM166.647 136.92L165.743 137.176C165.686 137.026 165.603 136.879 165.492 136.737C165.384 136.592 165.236 136.473 165.049 136.379C164.861 136.286 164.621 136.239 164.328 136.239C163.928 136.239 163.594 136.331 163.327 136.516C163.063 136.697 162.931 136.929 162.931 137.21C162.931 137.46 163.022 137.658 163.203 137.803C163.385 137.947 163.669 138.068 164.056 138.165L165.027 138.403C165.613 138.545 166.049 138.763 166.336 139.055C166.623 139.345 166.766 139.719 166.766 140.176C166.766 140.551 166.658 140.886 166.442 141.182C166.229 141.477 165.931 141.71 165.547 141.881C165.164 142.051 164.718 142.136 164.209 142.136C163.542 142.136 162.989 141.991 162.551 141.702C162.114 141.412 161.837 140.989 161.721 140.432L162.675 140.193C162.766 140.545 162.938 140.81 163.191 140.986C163.446 141.162 163.78 141.25 164.192 141.25C164.661 141.25 165.033 141.151 165.309 140.952C165.587 140.75 165.726 140.509 165.726 140.227C165.726 140 165.647 139.81 165.488 139.656C165.328 139.5 165.084 139.384 164.755 139.307L163.664 139.051C163.064 138.909 162.624 138.689 162.343 138.391C162.064 138.089 161.925 137.713 161.925 137.261C161.925 136.892 162.029 136.565 162.236 136.281C162.446 135.997 162.732 135.774 163.093 135.612C163.456 135.45 163.868 135.369 164.328 135.369C164.976 135.369 165.485 135.511 165.854 135.795C166.226 136.08 166.49 136.455 166.647 136.92Z" fill="#1A1D27"/>
</svg>
