<svg width="200" height="120" viewBox="0 0 200 120" fill="none" xmlns="http://www.w3.org/2000/svg">
<rect width="200" height="120" rx="16" fill="white" fill-opacity="0.7"/>
<rect x="16" y="16" width="32" height="32" rx="8" fill="#80B9FB"/>
<path d="M37.25 28.3333C36.3313 26.914 34.8917 26 33.2734 26C30.4991 26 28.25 28.6863 28.25 32C28.25 35.3137 30.4991 38 33.2734 38C34.8917 38 36.3313 37.086 37.25 35.6667M26.75 30.5H33.5M26.75 33.5H33.5" stroke="#1A1D27" stroke-width="1.5" stroke-linecap="round" stroke-linejoin="round"/>
<path d="M24.2393 68.674C24.1882 68.1584 23.9688 67.7578 23.581 67.4723C23.1932 67.1868 22.6669 67.044 22.0021 67.044C21.5504 67.044 21.169 67.108 20.858 67.2358C20.5469 67.3594 20.3082 67.532 20.142 67.7536C19.9801 67.9751 19.8991 68.2266 19.8991 68.5078C19.8906 68.7422 19.9396 68.9467 20.0462 69.1214C20.157 69.2962 20.3082 69.4474 20.5 69.5753C20.6918 69.6989 20.9134 69.8075 21.1648 69.9013C21.4162 69.9908 21.6847 70.0675 21.9702 70.1314L23.1463 70.4126C23.7173 70.5405 24.2415 70.7109 24.7188 70.924C25.196 71.1371 25.6094 71.3991 25.9588 71.7102C26.3082 72.0213 26.5788 72.3878 26.7706 72.8097C26.9666 73.2315 27.0668 73.7152 27.071 74.2607C27.0668 75.0618 26.8622 75.7564 26.4574 76.3445C26.0568 76.9283 25.4773 77.3821 24.7188 77.706C23.9645 78.0256 23.0547 78.1854 21.9893 78.1854C20.9325 78.1854 20.0121 78.0234 19.228 77.6996C18.4482 77.3757 17.8388 76.8963 17.3999 76.2614C16.9652 75.6222 16.7372 74.8317 16.7159 73.8899H19.3942C19.424 74.3288 19.5497 74.6953 19.7713 74.9893C19.9972 75.2791 20.2976 75.4986 20.6726 75.6477C21.0518 75.7926 21.4801 75.8651 21.9574 75.8651C22.4261 75.8651 22.8331 75.7969 23.1783 75.6605C23.5277 75.5241 23.7983 75.3345 23.9901 75.0916C24.1818 74.8487 24.2777 74.5696 24.2777 74.2543C24.2777 73.9602 24.1903 73.7131 24.0156 73.5128C23.8452 73.3125 23.5938 73.142 23.2614 73.0014C22.9332 72.8608 22.5305 72.733 22.0533 72.6179L20.6278 72.2599C19.5241 71.9915 18.6527 71.5717 18.0135 71.0007C17.3743 70.4297 17.0568 69.6605 17.0611 68.6932C17.0568 67.9006 17.2678 67.2081 17.6939 66.6158C18.1243 66.0234 18.7145 65.5611 19.4645 65.2287C20.2145 64.8963 21.0668 64.7301 22.0213 64.7301C22.9929 64.7301 23.8409 64.8963 24.5653 65.2287C25.294 65.5611 25.8608 66.0234 26.2656 66.6158C26.6705 67.2081 26.8793 67.8942 26.892 68.674H24.2393ZM30.9889 75.1747L30.9953 71.9084H31.3916L34.5365 68.1818H37.6622L33.4371 73.1165H32.7915L30.9889 75.1747ZM28.5216 78V64.9091H31.2446V78H28.5216ZM34.6579 78L31.7687 73.7237L33.5841 71.7997L37.8476 78H34.6579ZM41.4378 78.1854C40.8114 78.1854 40.2532 78.0767 39.7631 77.8594C39.2731 77.6378 38.8853 77.3118 38.5998 76.8814C38.3185 76.4467 38.1779 75.9055 38.1779 75.2578C38.1779 74.7124 38.278 74.2543 38.4783 73.8835C38.6786 73.5128 38.9513 73.2145 39.2965 72.9886C39.6417 72.7628 40.0337 72.5923 40.4726 72.4773C40.9158 72.3622 41.3803 72.2812 41.8661 72.2344C42.4371 72.1747 42.8974 72.1193 43.2468 72.0682C43.5962 72.0128 43.8498 71.9318 44.0075 71.8253C44.1651 71.7187 44.244 71.5611 44.244 71.3523V71.3139C44.244 70.9091 44.1161 70.5959 43.8604 70.3743C43.609 70.1527 43.2511 70.0419 42.7866 70.0419C42.2965 70.0419 41.9066 70.1506 41.6168 70.3679C41.3271 70.581 41.1353 70.8494 41.0415 71.1733L38.5231 70.9688C38.6509 70.3722 38.9023 69.8565 39.2773 69.4219C39.6523 68.983 40.136 68.6463 40.7283 68.4119C41.3249 68.1733 42.0153 68.054 42.7994 68.054C43.3448 68.054 43.8668 68.1179 44.3654 68.2457C44.8682 68.3736 45.3136 68.5717 45.7013 68.8402C46.0934 69.1087 46.4023 69.4538 46.6282 69.8757C46.854 70.2933 46.967 70.794 46.967 71.3778V78H44.3846V76.6385H44.3079C44.1502 76.9453 43.9393 77.2159 43.6751 77.4503C43.4109 77.6804 43.0934 77.8615 42.7226 77.9936C42.3519 78.1214 41.9236 78.1854 41.4378 78.1854ZM42.2177 76.3061C42.6182 76.3061 42.9719 76.2273 43.2788 76.0696C43.5856 75.9077 43.8263 75.6903 44.0011 75.4176C44.1758 75.1449 44.2631 74.8359 44.2631 74.4908V73.4489C44.1779 73.5043 44.0607 73.5554 43.9116 73.6023C43.7667 73.6449 43.6026 73.6854 43.4194 73.7237C43.2361 73.7578 43.0529 73.7898 42.8697 73.8196C42.6864 73.8452 42.5202 73.8686 42.3711 73.8899C42.0515 73.9368 41.7724 74.0114 41.5337 74.1136C41.2951 74.2159 41.1097 74.3544 40.9776 74.5291C40.8455 74.6996 40.7795 74.9126 40.7795 75.1683C40.7795 75.5391 40.9137 75.8224 41.1822 76.0185C41.4549 76.2102 41.8001 76.3061 42.2177 76.3061ZM48.7195 78V68.1818H51.4425V78H48.7195ZM50.0874 66.9162C49.6826 66.9162 49.3353 66.782 49.0455 66.5135C48.76 66.2408 48.6173 65.9148 48.6173 65.5355C48.6173 65.1605 48.76 64.8388 49.0455 64.5703C49.3353 64.2976 49.6826 64.1612 50.0874 64.1612C50.4923 64.1612 50.8374 64.2976 51.1229 64.5703C51.4127 64.8388 51.5576 65.1605 51.5576 65.5355C51.5576 65.9148 51.4127 66.2408 51.1229 66.5135C50.8374 66.782 50.4923 66.9162 50.0874 66.9162ZM56.8817 78.1598C56.136 78.1598 55.4606 77.968 54.8555 77.5845C54.2546 77.1967 53.7773 76.6278 53.4236 75.8778C53.0742 75.1236 52.8995 74.1989 52.8995 73.1037C52.8995 71.9787 53.0806 71.0433 53.4428 70.2976C53.805 69.5476 54.2866 68.9872 54.8874 68.6165C55.4925 68.2415 56.1552 68.054 56.8753 68.054C57.4251 68.054 57.8832 68.1477 58.2496 68.3352C58.6204 68.5185 58.9187 68.7486 59.1445 69.0256C59.3746 69.2983 59.5493 69.5668 59.6687 69.831H59.7518V64.9091H62.4684V78H59.7837V76.4276H59.6687C59.5408 76.7003 59.3597 76.9709 59.1253 77.2393C58.8952 77.5036 58.5948 77.723 58.2241 77.8977C57.8576 78.0724 57.4101 78.1598 56.8817 78.1598ZM57.7447 75.9929C58.1836 75.9929 58.5543 75.8736 58.8569 75.6349C59.1637 75.392 59.3981 75.0533 59.56 74.6186C59.7262 74.1839 59.8093 73.6747 59.8093 73.0909C59.8093 72.5071 59.7283 72 59.5664 71.5696C59.4045 71.1392 59.1701 70.8068 58.8633 70.5724C58.5565 70.3381 58.1836 70.2209 57.7447 70.2209C57.2972 70.2209 56.9201 70.3423 56.6133 70.5852C56.3065 70.8281 56.0742 71.1648 55.9165 71.5952C55.7589 72.0256 55.68 72.5241 55.68 73.0909C55.68 73.6619 55.7589 74.1669 55.9165 74.6058C56.0785 75.0405 56.3107 75.3814 56.6133 75.6286C56.9201 75.8714 57.2972 75.9929 57.7447 75.9929ZM64.3472 78V68.1818H66.9871V69.8949H67.0894C67.2684 69.2855 67.5688 68.8253 67.9907 68.5142C68.4125 68.1989 68.8983 68.0412 69.448 68.0412C69.5844 68.0412 69.7314 68.0497 69.8891 68.0668C70.0468 68.0838 70.1853 68.1072 70.3046 68.1371V70.5533C70.1767 70.5149 69.9999 70.4808 69.774 70.451C69.5482 70.4212 69.3415 70.4062 69.154 70.4062C68.7534 70.4062 68.3955 70.4936 68.0802 70.6683C67.7691 70.8388 67.5219 71.0774 67.3387 71.3842C67.1597 71.6911 67.0702 72.0447 67.0702 72.4453V78H64.3472ZM73.8709 78.1854C73.2445 78.1854 72.6862 78.0767 72.1962 77.8594C71.7061 77.6378 71.3183 77.3118 71.0328 76.8814C70.7516 76.4467 70.611 75.9055 70.611 75.2578C70.611 74.7124 70.7111 74.2543 70.9114 73.8835C71.1117 73.5128 71.3844 73.2145 71.7296 72.9886C72.0747 72.7628 72.4668 72.5923 72.9057 72.4773C73.3489 72.3622 73.8134 72.2812 74.2992 72.2344C74.8702 72.1747 75.3304 72.1193 75.6798 72.0682C76.0293 72.0128 76.2828 71.9318 76.4405 71.8253C76.5982 71.7187 76.677 71.5611 76.677 71.3523V71.3139C76.677 70.9091 76.5492 70.5959 76.2935 70.3743C76.0421 70.1527 75.6841 70.0419 75.2196 70.0419C74.7296 70.0419 74.3396 70.1506 74.0499 70.3679C73.7601 70.581 73.5683 70.8494 73.4746 71.1733L70.9561 70.9688C71.084 70.3722 71.3354 69.8565 71.7104 69.4219C72.0854 68.983 72.569 68.6463 73.1614 68.4119C73.758 68.1733 74.4483 68.054 75.2324 68.054C75.7779 68.054 76.2999 68.1179 76.7985 68.2457C77.3013 68.3736 77.7466 68.5717 78.1344 68.8402C78.5264 69.1087 78.8354 69.4538 79.0612 69.8757C79.2871 70.2933 79.4 70.794 79.4 71.3778V78H76.8176V76.6385H76.7409C76.5833 76.9453 76.3723 77.2159 76.1081 77.4503C75.8439 77.6804 75.5264 77.8615 75.1557 77.9936C74.785 78.1214 74.3567 78.1854 73.8709 78.1854ZM74.6507 76.3061C75.0513 76.3061 75.405 76.2273 75.7118 76.0696C76.0186 75.9077 76.2594 75.6903 76.4341 75.4176C76.6088 75.1449 76.6962 74.8359 76.6962 74.4908V73.4489C76.611 73.5043 76.4938 73.5554 76.3446 73.6023C76.1997 73.6449 76.0357 73.6854 75.8524 73.7237C75.6692 73.7578 75.486 73.7898 75.3027 73.8196C75.1195 73.8452 74.9533 73.8686 74.8041 73.8899C74.4845 73.9368 74.2054 74.0114 73.9668 74.1136C73.7281 74.2159 73.5428 74.3544 73.4107 74.5291C73.2786 74.6996 73.2125 74.9126 73.2125 75.1683C73.2125 75.5391 73.3467 75.8224 73.6152 76.0185C73.8879 76.2102 74.2331 76.3061 74.6507 76.3061ZM89.3216 70.9815L86.8287 71.1349C86.7861 70.9219 86.6945 70.7301 86.5539 70.5597C86.4132 70.3849 86.2279 70.2464 85.9978 70.1442C85.7719 70.0376 85.5013 69.9844 85.186 69.9844C84.7641 69.9844 84.4083 70.0739 84.1185 70.2528C83.8287 70.4276 83.6838 70.6619 83.6838 70.956C83.6838 71.1903 83.7776 71.3885 83.9651 71.5504C84.1526 71.7124 84.4743 71.8423 84.9303 71.9403L86.7073 72.2983C87.6618 72.4943 88.3735 72.8097 88.8422 73.2443C89.311 73.679 89.5453 74.25 89.5453 74.9574C89.5453 75.6009 89.3557 76.1655 88.9765 76.6513C88.6015 77.1371 88.0858 77.5163 87.4296 77.7891C86.7776 78.0575 86.0255 78.1918 85.1732 78.1918C83.8735 78.1918 82.838 77.9212 82.0667 77.38C81.2996 76.8345 80.85 76.093 80.7179 75.1555L83.3962 75.0149C83.4772 75.4112 83.6732 75.7138 83.9843 75.9226C84.2953 76.1271 84.6938 76.2294 85.1796 76.2294C85.6569 76.2294 86.0404 76.1378 86.3301 75.9545C86.6242 75.767 86.7733 75.5263 86.7776 75.2322C86.7733 74.9851 86.6689 74.7827 86.4644 74.625C86.2598 74.4631 85.9445 74.3395 85.5184 74.2543L83.8181 73.9155C82.8593 73.7237 82.1455 73.3913 81.6767 72.9183C81.2122 72.4453 80.98 71.8423 80.98 71.1094C80.98 70.4787 81.1505 69.9354 81.4914 69.4794C81.8365 69.0234 82.3202 68.6719 82.9424 68.4247C83.5688 68.1776 84.3017 68.054 85.1412 68.054C86.3813 68.054 87.3571 68.3161 88.0688 68.8402C88.7847 69.3643 89.2023 70.0781 89.3216 70.9815ZM97.429 72.3239V78H94.706V68.1818H97.3012V69.9141H97.4163C97.6336 69.343 97.9979 68.8913 98.5093 68.5589C99.0207 68.2223 99.6407 68.054 100.369 68.054C101.051 68.054 101.646 68.2031 102.153 68.5014C102.66 68.7997 103.054 69.2259 103.335 69.7798C103.617 70.3295 103.757 70.9858 103.757 71.7486V78H101.034V72.2344C101.038 71.6335 100.885 71.1648 100.574 70.8281C100.263 70.4872 99.8346 70.3168 99.2891 70.3168C98.9226 70.3168 98.5988 70.3956 98.3175 70.5533C98.0405 70.7109 97.8232 70.9411 97.6655 71.2436C97.5121 71.5419 97.4333 71.902 97.429 72.3239ZM108.343 78.1854C107.717 78.1854 107.158 78.0767 106.668 77.8594C106.178 77.6378 105.79 77.3118 105.505 76.8814C105.224 76.4467 105.083 75.9055 105.083 75.2578C105.083 74.7124 105.183 74.2543 105.383 73.8835C105.584 73.5128 105.857 73.2145 106.202 72.9886C106.547 72.7628 106.939 72.5923 107.378 72.4773C107.821 72.3622 108.285 72.2812 108.771 72.2344C109.342 72.1747 109.803 72.1193 110.152 72.0682C110.501 72.0128 110.755 71.9318 110.913 71.8253C111.07 71.7187 111.149 71.5611 111.149 71.3523V71.3139C111.149 70.9091 111.021 70.5959 110.766 70.3743C110.514 70.1527 110.156 70.0419 109.692 70.0419C109.202 70.0419 108.812 70.1506 108.522 70.3679C108.232 70.581 108.04 70.8494 107.947 71.1733L105.428 70.9688C105.556 70.3722 105.807 69.8565 106.182 69.4219C106.557 68.983 107.041 68.6463 107.633 68.4119C108.23 68.1733 108.92 68.054 109.705 68.054C110.25 68.054 110.772 68.1179 111.271 68.2457C111.773 68.3736 112.219 68.5717 112.607 68.8402C112.999 69.1087 113.307 69.4538 113.533 69.8757C113.759 70.2933 113.872 70.794 113.872 71.3778V78H111.29V76.6385H111.213C111.055 76.9453 110.844 77.2159 110.58 77.4503C110.316 77.6804 109.999 77.8615 109.628 77.9936C109.257 78.1214 108.829 78.1854 108.343 78.1854ZM109.123 76.3061C109.523 76.3061 109.877 76.2273 110.184 76.0696C110.491 75.9077 110.732 75.6903 110.906 75.4176C111.081 75.1449 111.168 74.8359 111.168 74.4908V73.4489C111.083 73.5043 110.966 73.5554 110.817 73.6023C110.672 73.6449 110.508 73.6854 110.325 73.7237C110.141 73.7578 109.958 73.7898 109.775 73.8196C109.592 73.8452 109.425 73.8686 109.276 73.8899C108.957 73.9368 108.678 74.0114 108.439 74.1136C108.2 74.2159 108.015 74.3544 107.883 74.5291C107.751 74.6996 107.685 74.9126 107.685 75.1683C107.685 75.5391 107.819 75.8224 108.087 76.0185C108.36 76.2102 108.705 76.3061 109.123 76.3061ZM121.921 73.8196V68.1818H124.644V78H122.03V76.2166H121.927C121.706 76.7919 121.337 77.2543 120.821 77.6037C120.31 77.9531 119.686 78.1278 118.949 78.1278C118.292 78.1278 117.715 77.9787 117.216 77.6804C116.718 77.3821 116.328 76.9581 116.047 76.4084C115.77 75.8587 115.629 75.2003 115.625 74.4332V68.1818H118.348V73.9474C118.352 74.527 118.508 74.9851 118.814 75.3217C119.121 75.6584 119.532 75.8267 120.048 75.8267C120.376 75.8267 120.683 75.7521 120.968 75.603C121.254 75.4496 121.484 75.2237 121.659 74.9254C121.838 74.6271 121.925 74.2585 121.921 73.8196ZM130.08 78.1598C129.334 78.1598 128.659 77.968 128.054 77.5845C127.453 77.1967 126.975 76.6278 126.622 75.8778C126.272 75.1236 126.098 74.1989 126.098 73.1037C126.098 71.9787 126.279 71.0433 126.641 70.2976C127.003 69.5476 127.485 68.9872 128.086 68.6165C128.691 68.2415 129.353 68.054 130.073 68.054C130.623 68.054 131.081 68.1477 131.448 68.3352C131.818 68.5185 132.117 68.7486 132.343 69.0256C132.573 69.2983 132.747 69.5668 132.867 69.831H132.95V64.9091H135.667V78H132.982V76.4276H132.867C132.739 76.7003 132.558 76.9709 132.323 77.2393C132.093 77.5036 131.793 77.723 131.422 77.8977C131.056 78.0724 130.608 78.1598 130.08 78.1598ZM130.943 75.9929C131.382 75.9929 131.752 75.8736 132.055 75.6349C132.362 75.392 132.596 75.0533 132.758 74.6186C132.924 74.1839 133.007 73.6747 133.007 73.0909C133.007 72.5071 132.926 72 132.765 71.5696C132.603 71.1392 132.368 70.8068 132.061 70.5724C131.755 70.3381 131.382 70.2209 130.943 70.2209C130.495 70.2209 130.118 70.3423 129.811 70.5852C129.505 70.8281 129.272 71.1648 129.115 71.5952C128.957 72.0256 128.878 72.5241 128.878 73.0909C128.878 73.6619 128.957 74.1669 129.115 74.6058C129.277 75.0405 129.509 75.3814 129.811 75.6286C130.118 75.8714 130.495 75.9929 130.943 75.9929ZM140.345 78.1854C139.719 78.1854 139.16 78.0767 138.67 77.8594C138.18 77.6378 137.792 77.3118 137.507 76.8814C137.226 76.4467 137.085 75.9055 137.085 75.2578C137.085 74.7124 137.185 74.2543 137.386 73.8835C137.586 73.5128 137.859 73.2145 138.204 72.9886C138.549 72.7628 138.941 72.5923 139.38 72.4773C139.823 72.3622 140.288 72.2812 140.773 72.2344C141.344 72.1747 141.805 72.1193 142.154 72.0682C142.503 72.0128 142.757 71.9318 142.915 71.8253C143.072 71.7187 143.151 71.5611 143.151 71.3523V71.3139C143.151 70.9091 143.023 70.5959 142.768 70.3743C142.516 70.1527 142.158 70.0419 141.694 70.0419C141.204 70.0419 140.814 70.1506 140.524 70.3679C140.234 70.581 140.042 70.8494 139.949 71.1733L137.43 70.9688C137.558 70.3722 137.81 69.8565 138.185 69.4219C138.56 68.983 139.043 68.6463 139.636 68.4119C140.232 68.1733 140.922 68.054 141.707 68.054C142.252 68.054 142.774 68.1179 143.273 68.2457C143.775 68.3736 144.221 68.5717 144.609 68.8402C145.001 69.1087 145.31 69.4538 145.535 69.8757C145.761 70.2933 145.874 70.794 145.874 71.3778V78H143.292V76.6385H143.215C143.057 76.9453 142.846 77.2159 142.582 77.4503C142.318 77.6804 142.001 77.8615 141.63 77.9936C141.259 78.1214 140.831 78.1854 140.345 78.1854ZM141.125 76.3061C141.525 76.3061 141.879 76.2273 142.186 76.0696C142.493 75.9077 142.734 75.6903 142.908 75.4176C143.083 75.1449 143.17 74.8359 143.17 74.4908V73.4489C143.085 73.5043 142.968 73.5554 142.819 73.6023C142.674 73.6449 142.51 73.6854 142.327 73.7237C142.143 73.7578 141.96 73.7898 141.777 73.8196C141.594 73.8452 141.427 73.8686 141.278 73.8899C140.959 73.9368 140.68 74.0114 140.441 74.1136C140.202 74.2159 140.017 74.3544 139.885 74.5291C139.753 74.6996 139.687 74.9126 139.687 75.1683C139.687 75.5391 139.821 75.8224 140.089 76.0185C140.362 76.2102 140.707 76.3061 141.125 76.3061ZM155.796 70.9815L153.303 71.1349C153.26 70.9219 153.169 70.7301 153.028 70.5597C152.887 70.3849 152.702 70.2464 152.472 70.1442C152.246 70.0376 151.975 69.9844 151.66 69.9844C151.238 69.9844 150.882 70.0739 150.593 70.2528C150.303 70.4276 150.158 70.6619 150.158 70.956C150.158 71.1903 150.252 71.3885 150.439 71.5504C150.627 71.7124 150.948 71.8423 151.404 71.9403L153.181 72.2983C154.136 72.4943 154.848 72.8097 155.316 73.2443C155.785 73.679 156.019 74.25 156.019 74.9574C156.019 75.6009 155.83 76.1655 155.451 76.6513C155.076 77.1371 154.56 77.5163 153.904 77.7891C153.252 78.0575 152.5 78.1918 151.647 78.1918C150.348 78.1918 149.312 77.9212 148.541 77.38C147.774 76.8345 147.324 76.093 147.192 75.1555L149.87 75.0149C149.951 75.4112 150.147 75.7138 150.458 75.9226C150.769 76.1271 151.168 76.2294 151.654 76.2294C152.131 76.2294 152.515 76.1378 152.804 75.9545C153.098 75.767 153.247 75.5263 153.252 75.2322C153.247 74.9851 153.143 74.7827 152.939 74.625C152.734 74.4631 152.419 74.3395 151.992 74.2543L150.292 73.9155C149.333 73.7237 148.62 73.3913 148.151 72.9183C147.686 72.4453 147.454 71.8423 147.454 71.1094C147.454 70.4787 147.625 69.9354 147.966 69.4794C148.311 69.0234 148.794 68.6719 149.417 68.4247C150.043 68.1776 150.776 68.054 151.615 68.054C152.855 68.054 153.831 68.3161 154.543 68.8402C155.259 69.3643 155.676 70.0781 155.796 70.9815ZM17.0866 100V90.1818H19.8097V100H17.0866ZM18.4545 88.9162C18.0497 88.9162 17.7024 88.782 17.4126 88.5135C17.1271 88.2408 16.9844 87.9148 16.9844 87.5355C16.9844 87.1605 17.1271 86.8388 17.4126 86.5703C17.7024 86.2976 18.0497 86.1612 18.4545 86.1612C18.8594 86.1612 19.2045 86.2976 19.4901 86.5703C19.7798 86.8388 19.9247 87.1605 19.9247 87.5355C19.9247 87.9148 19.7798 88.2408 19.4901 88.5135C19.2045 88.782 18.8594 88.9162 18.4545 88.9162ZM26.1054 100.192C25.0954 100.192 24.2261 99.9872 23.4974 99.5781C22.773 99.1648 22.2148 98.581 21.8227 97.8267C21.4307 97.0682 21.2346 96.1712 21.2346 95.1357C21.2346 94.1257 21.4307 93.2393 21.8227 92.4766C22.2148 91.7138 22.7666 91.1193 23.4782 90.6932C24.1942 90.267 25.0336 90.054 25.9967 90.054C26.6444 90.054 27.2474 90.1584 27.8057 90.3672C28.3682 90.5717 28.8582 90.8807 29.2758 91.294C29.6977 91.7074 30.0258 92.2273 30.2602 92.8537C30.4946 93.4759 30.6118 94.2045 30.6118 95.0398V95.7876H22.3213V94.1001H28.0486C28.0486 93.7081 27.9633 93.3608 27.7929 93.0582C27.6224 92.7557 27.3859 92.5192 27.0834 92.3487C26.7851 92.174 26.4378 92.0866 26.0415 92.0866C25.6281 92.0866 25.2616 92.1825 24.942 92.3743C24.6267 92.5618 24.3795 92.8153 24.2005 93.1349C24.0216 93.4503 23.93 93.8018 23.9257 94.1896V95.794C23.9257 96.2798 24.0152 96.6996 24.1942 97.0533C24.3774 97.407 24.6352 97.6797 24.9676 97.8714C25.3 98.0632 25.6942 98.1591 26.1501 98.1591C26.4527 98.1591 26.7297 98.1165 26.9811 98.0312C27.2325 97.946 27.4477 97.8182 27.6267 97.6477C27.8057 97.4773 27.942 97.2685 28.0358 97.0213L30.5542 97.1875C30.4264 97.7926 30.1643 98.321 29.768 98.7727C29.376 99.2202 28.8689 99.5696 28.2467 99.821C27.6288 100.068 26.915 100.192 26.1054 100.192ZM32.0288 100V90.1818H34.6239V91.9141H34.739C34.9435 91.3388 35.2844 90.8849 35.7617 90.5526C36.239 90.2202 36.81 90.054 37.4748 90.054C38.1481 90.054 38.7212 90.2223 39.1942 90.5589C39.6673 90.8913 39.9826 91.343 40.1403 91.9141H40.2425C40.4428 91.3516 40.805 90.902 41.3292 90.5653C41.8576 90.2244 42.4819 90.054 43.2021 90.054C44.1182 90.054 44.8619 90.3459 45.4329 90.9297C46.0082 91.5092 46.2958 92.3317 46.2958 93.397V100H43.5792V93.9339C43.5792 93.3885 43.4343 92.9794 43.1445 92.7067C42.8548 92.4339 42.4925 92.2976 42.0579 92.2976C41.5636 92.2976 41.1779 92.4553 40.9009 92.7706C40.6239 93.0817 40.4854 93.4929 40.4854 94.0043V100H37.8455V93.8764C37.8455 93.3949 37.707 93.0114 37.43 92.7259C37.1573 92.4403 36.7972 92.2976 36.3498 92.2976C36.0472 92.2976 35.7745 92.3743 35.5316 92.5277C35.293 92.6768 35.1033 92.8878 34.9627 93.1605C34.8221 93.429 34.7518 93.7443 34.7518 94.1065V100H32.0288ZM50.8864 100.185C50.26 100.185 49.7018 100.077 49.2117 99.8594C48.7217 99.6378 48.3339 99.3118 48.0484 98.8814C47.7671 98.4467 47.6265 97.9055 47.6265 97.2578C47.6265 96.7124 47.7266 96.2543 47.9269 95.8835C48.1272 95.5128 48.3999 95.2145 48.7451 94.9886C49.0903 94.7628 49.4823 94.5923 49.9212 94.4773C50.3644 94.3622 50.8289 94.2812 51.3147 94.2344C51.8857 94.1747 52.346 94.1193 52.6954 94.0682C53.0448 94.0128 53.2984 93.9318 53.456 93.8253C53.6137 93.7187 53.6926 93.5611 53.6926 93.3523V93.3139C53.6926 92.9091 53.5647 92.5959 53.309 92.3743C53.0576 92.1527 52.6997 92.0419 52.2352 92.0419C51.7451 92.0419 51.3552 92.1506 51.0654 92.3679C50.7756 92.581 50.5839 92.8494 50.4901 93.1733L47.9717 92.9688C48.0995 92.3722 48.3509 91.8565 48.7259 91.4219C49.1009 90.983 49.5846 90.6463 50.1769 90.4119C50.7735 90.1733 51.4639 90.054 52.2479 90.054C52.7934 90.054 53.3154 90.1179 53.814 90.2457C54.3168 90.3736 54.7622 90.5717 55.1499 90.8402C55.542 91.1087 55.8509 91.4538 56.0768 91.8757C56.3026 92.2933 56.4156 92.794 56.4156 93.3778V100H53.8332V98.6385H53.7565C53.5988 98.9453 53.3879 99.2159 53.1237 99.4503C52.8595 99.6804 52.542 99.8615 52.1712 99.9936C51.8005 100.121 51.3722 100.185 50.8864 100.185ZM51.6663 98.3061C52.0668 98.3061 52.4205 98.2273 52.7274 98.0696C53.0342 97.9077 53.2749 97.6903 53.4497 97.4176C53.6244 97.1449 53.7117 96.8359 53.7117 96.4908V95.4489C53.6265 95.5043 53.5093 95.5554 53.3602 95.6023C53.2153 95.6449 53.0512 95.6854 52.868 95.7237C52.6847 95.7578 52.5015 95.7898 52.3183 95.8196C52.135 95.8452 51.9688 95.8686 51.8197 95.8899C51.5001 95.9368 51.221 96.0114 50.9823 96.1136C50.7437 96.2159 50.5583 96.3544 50.4262 96.5291C50.2941 96.6996 50.2281 96.9126 50.2281 97.1683C50.2281 97.5391 50.3623 97.8224 50.6308 98.0185C50.9035 98.2102 51.2487 98.3061 51.6663 98.3061ZM60.6355 97.1747L60.6419 93.9084H61.0382L64.183 90.1818H67.3088L63.0836 95.1165H62.438L60.6355 97.1747ZM58.1681 100V86.9091H60.8911V100H58.1681ZM64.3045 100L61.4153 95.7237L63.2306 93.7997L67.4941 100H64.3045ZM76.4537 92.9815L73.9608 93.1349C73.9182 92.9219 73.8266 92.7301 73.686 92.5597C73.5453 92.3849 73.36 92.2464 73.1299 92.1442C72.904 92.0376 72.6334 91.9844 72.3181 91.9844C71.8962 91.9844 71.5404 92.0739 71.2506 92.2528C70.9608 92.4276 70.8159 92.6619 70.8159 92.956C70.8159 93.1903 70.9097 93.3885 71.0972 93.5504C71.2847 93.7124 71.6064 93.8423 72.0624 93.9403L73.8394 94.2983C74.7939 94.4943 75.5056 94.8097 75.9743 95.2443C76.4431 95.679 76.6775 96.25 76.6775 96.9574C76.6775 97.6009 76.4878 98.1655 76.1086 98.6513C75.7336 99.1371 75.2179 99.5163 74.5617 99.7891C73.9097 100.058 73.1576 100.192 72.3053 100.192C71.0056 100.192 69.9701 99.9212 69.1988 99.38C68.4317 98.8345 67.9821 98.093 67.85 97.1555L70.5283 97.0149C70.6093 97.4112 70.8053 97.7138 71.1164 97.9226C71.4275 98.1271 71.8259 98.2294 72.3117 98.2294C72.789 98.2294 73.1725 98.1378 73.4623 97.9545C73.7563 97.767 73.9054 97.5263 73.9097 97.2322C73.9054 96.9851 73.801 96.7827 73.5965 96.625C73.3919 96.4631 73.0766 96.3395 72.6505 96.2543L70.9502 95.9155C69.9914 95.7237 69.2776 95.3913 68.8088 94.9183C68.3444 94.4453 68.1121 93.8423 68.1121 93.1094C68.1121 92.4787 68.2826 91.9354 68.6235 91.4794C68.9686 91.0234 69.4523 90.6719 70.0745 90.4247C70.7009 90.1776 71.4338 90.054 72.2733 90.054C73.5134 90.054 74.4892 90.3161 75.2009 90.8402C75.9168 91.3643 76.3344 92.0781 76.4537 92.9815ZM80.8318 100.185C80.2054 100.185 79.6472 100.077 79.1571 99.8594C78.6671 99.6378 78.2793 99.3118 77.9938 98.8814C77.7125 98.4467 77.5719 97.9055 77.5719 97.2578C77.5719 96.7124 77.672 96.2543 77.8723 95.8835C78.0726 95.5128 78.3453 95.2145 78.6905 94.9886C79.0357 94.7628 79.4277 94.5923 79.8666 94.4773C80.3098 94.3622 80.7743 94.2812 81.2601 94.2344C81.8311 94.1747 82.2913 94.1193 82.6408 94.0682C82.9902 94.0128 83.2438 93.9318 83.4014 93.8253C83.5591 93.7187 83.6379 93.5611 83.6379 93.3523V93.3139C83.6379 92.9091 83.5101 92.5959 83.2544 92.3743C83.003 92.1527 82.645 92.0419 82.1806 92.0419C81.6905 92.0419 81.3006 92.1506 81.0108 92.3679C80.721 92.581 80.5293 92.8494 80.4355 93.1733L77.9171 92.9688C78.0449 92.3722 78.2963 91.8565 78.6713 91.4219C79.0463 90.983 79.53 90.6463 80.1223 90.4119C80.7189 90.1733 81.4092 90.054 82.1933 90.054C82.7388 90.054 83.2608 90.1179 83.7594 90.2457C84.2622 90.3736 84.7075 90.5717 85.0953 90.8402C85.4874 91.1087 85.7963 91.4538 86.0222 91.8757C86.248 92.2933 86.361 92.794 86.361 93.3778V100H83.7786V98.6385H83.7019C83.5442 98.9453 83.3333 99.2159 83.069 99.4503C82.8048 99.6804 82.4874 99.8615 82.1166 99.9936C81.7459 100.121 81.3176 100.185 80.8318 100.185ZM81.6117 98.3061C82.0122 98.3061 82.3659 98.2273 82.6727 98.0696C82.9796 97.9077 83.2203 97.6903 83.395 97.4176C83.5698 97.1449 83.6571 96.8359 83.6571 96.4908V95.4489C83.5719 95.5043 83.4547 95.5554 83.3056 95.6023C83.1607 95.6449 82.9966 95.6854 82.8134 95.7237C82.6301 95.7578 82.4469 95.7898 82.2637 95.8196C82.0804 95.8452 81.9142 95.8686 81.7651 95.8899C81.4455 95.9368 81.1663 96.0114 80.9277 96.1136C80.6891 96.2159 80.5037 96.3544 80.3716 96.5291C80.2395 96.6996 80.1735 96.9126 80.1735 97.1683C80.1735 97.5391 80.3077 97.8224 80.5762 98.0185C80.8489 98.2102 81.194 98.3061 81.6117 98.3061ZM96.2826 92.9815L93.7897 93.1349C93.747 92.9219 93.6554 92.7301 93.5148 92.5597C93.3742 92.3849 93.1888 92.2464 92.9587 92.1442C92.7328 92.0376 92.4622 91.9844 92.1469 91.9844C91.725 91.9844 91.3692 92.0739 91.0794 92.2528C90.7897 92.4276 90.6448 92.6619 90.6448 92.956C90.6448 93.1903 90.7385 93.3885 90.926 93.5504C91.1135 93.7124 91.4353 93.8423 91.8912 93.9403L93.6682 94.2983C94.6228 94.4943 95.3344 94.8097 95.8032 95.2443C96.2719 95.679 96.5063 96.25 96.5063 96.9574C96.5063 97.6009 96.3167 98.1655 95.9374 98.6513C95.5624 99.1371 95.0468 99.5163 94.3905 99.7891C93.7385 100.058 92.9864 100.192 92.1341 100.192C90.8344 100.192 89.7989 99.9212 89.0276 99.38C88.2605 98.8345 87.811 98.093 87.6789 97.1555L90.3571 97.0149C90.4381 97.4112 90.6341 97.7138 90.9452 97.9226C91.2563 98.1271 91.6547 98.2294 92.1405 98.2294C92.6178 98.2294 93.0013 98.1378 93.2911 97.9545C93.5851 97.767 93.7343 97.5263 93.7385 97.2322C93.7343 96.9851 93.6299 96.7827 93.4253 96.625C93.2208 96.4631 92.9054 96.3395 92.4793 96.2543L90.779 95.9155C89.8202 95.7237 89.1064 95.3913 88.6377 94.9183C88.1732 94.4453 87.9409 93.8423 87.9409 93.1094C87.9409 92.4787 88.1114 91.9354 88.4523 91.4794C88.7975 91.0234 89.2811 90.6719 89.9033 90.4247C90.5297 90.1776 91.2627 90.054 92.1022 90.054C93.3422 90.054 94.3181 90.3161 95.0297 90.8402C95.7456 91.3643 96.1632 92.0781 96.2826 92.9815ZM104.134 97.1747L104.141 93.9084H104.537L107.682 90.1818H110.808L106.582 95.1165H105.937L104.134 97.1747ZM101.667 100V86.9091H104.39V100H101.667ZM107.803 100L104.914 95.7237L106.729 93.7997L110.993 100H107.803ZM115.815 100.192C114.822 100.192 113.964 99.9808 113.239 99.5589C112.519 99.1328 111.963 98.5405 111.571 97.782C111.179 97.0192 110.983 96.1349 110.983 95.1293C110.983 94.1151 111.179 93.2287 111.571 92.4702C111.963 91.7074 112.519 91.1151 113.239 90.6932C113.964 90.267 114.822 90.054 115.815 90.054C116.808 90.054 117.665 90.267 118.385 90.6932C119.109 91.1151 119.668 91.7074 120.06 92.4702C120.452 93.2287 120.648 94.1151 120.648 95.1293C120.648 96.1349 120.452 97.0192 120.06 97.782C119.668 98.5405 119.109 99.1328 118.385 99.5589C117.665 99.9808 116.808 100.192 115.815 100.192ZM115.828 98.0824C116.28 98.0824 116.657 97.9545 116.959 97.6989C117.262 97.4389 117.49 97.0852 117.643 96.6378C117.801 96.1903 117.88 95.6811 117.88 95.1101C117.88 94.5391 117.801 94.0298 117.643 93.5824C117.49 93.1349 117.262 92.7812 116.959 92.5213C116.657 92.2614 116.28 92.1314 115.828 92.1314C115.372 92.1314 114.989 92.2614 114.678 92.5213C114.371 92.7812 114.138 93.1349 113.981 93.5824C113.827 94.0298 113.751 94.5391 113.751 95.1101C113.751 95.6811 113.827 96.1903 113.981 96.6378C114.138 97.0852 114.371 97.4389 114.678 97.6989C114.989 97.9545 115.372 98.0824 115.828 98.0824ZM124.781 94.3239V100H122.058V90.1818H124.653V91.9141H124.769C124.986 91.343 125.35 90.8913 125.862 90.5589C126.373 90.2223 126.993 90.054 127.722 90.054C128.403 90.054 128.998 90.2031 129.505 90.5014C130.012 90.7997 130.406 91.2259 130.688 91.7798C130.969 92.3295 131.109 92.9858 131.109 93.7486V100H128.386V94.2344C128.391 93.6335 128.237 93.1648 127.926 92.8281C127.615 92.4872 127.187 92.3168 126.641 92.3168C126.275 92.3168 125.951 92.3956 125.67 92.5533C125.393 92.7109 125.175 92.9411 125.018 93.2436C124.864 93.5419 124.786 93.902 124.781 94.3239ZM138.118 90.1818V92.2273H132.205V90.1818H138.118ZM133.548 87.8295H136.271V96.983C136.271 97.2344 136.309 97.4304 136.386 97.571C136.462 97.7074 136.569 97.8033 136.705 97.8587C136.846 97.9141 137.008 97.9418 137.191 97.9418C137.319 97.9418 137.447 97.9311 137.575 97.9098C137.702 97.8842 137.8 97.8651 137.869 97.8523L138.297 99.8786C138.16 99.9212 137.969 99.9702 137.722 100.026C137.474 100.085 137.174 100.121 136.82 100.134C136.164 100.16 135.589 100.072 135.094 99.8722C134.604 99.6719 134.223 99.3608 133.95 98.9389C133.678 98.517 133.543 97.9844 133.548 97.3409V87.8295ZM142.331 100.185C141.705 100.185 141.147 100.077 140.657 99.8594C140.167 99.6378 139.779 99.3118 139.493 98.8814C139.212 98.4467 139.071 97.9055 139.071 97.2578C139.071 96.7124 139.172 96.2543 139.372 95.8835C139.572 95.5128 139.845 95.2145 140.19 94.9886C140.535 94.7628 140.927 94.5923 141.366 94.4773C141.809 94.3622 142.274 94.2812 142.76 94.2344C143.331 94.1747 143.791 94.1193 144.14 94.0682C144.49 94.0128 144.743 93.9318 144.901 93.8253C145.059 93.7187 145.137 93.5611 145.137 93.3523V93.3139C145.137 92.9091 145.01 92.5959 144.754 92.3743C144.503 92.1527 144.145 92.0419 143.68 92.0419C143.19 92.0419 142.8 92.1506 142.51 92.3679C142.221 92.581 142.029 92.8494 141.935 93.1733L139.417 92.9688C139.544 92.3722 139.796 91.8565 140.171 91.4219C140.546 90.983 141.03 90.6463 141.622 90.4119C142.218 90.1733 142.909 90.054 143.693 90.054C144.238 90.054 144.76 90.1179 145.259 90.2457C145.762 90.3736 146.207 90.5717 146.595 90.8402C146.987 91.1087 147.296 91.4538 147.522 91.8757C147.748 92.2933 147.86 92.794 147.86 93.3778V100H145.278V98.6385H145.201C145.044 98.9453 144.833 99.2159 144.569 99.4503C144.304 99.6804 143.987 99.8615 143.616 99.9936C143.245 100.121 142.817 100.185 142.331 100.185ZM143.111 98.3061C143.512 98.3061 143.865 98.2273 144.172 98.0696C144.479 97.9077 144.72 97.6903 144.895 97.4176C145.069 97.1449 145.157 96.8359 145.157 96.4908V95.4489C145.071 95.5043 144.954 95.5554 144.805 95.6023C144.66 95.6449 144.496 95.6854 144.313 95.7237C144.13 95.7578 143.946 95.7898 143.763 95.8196C143.58 95.8452 143.414 95.8686 143.265 95.8899C142.945 95.9368 142.666 96.0114 142.427 96.1136C142.189 96.2159 142.003 96.3544 141.871 96.5291C141.739 96.6996 141.673 96.9126 141.673 97.1683C141.673 97.5391 141.807 97.8224 142.076 98.0185C142.348 98.2102 142.694 98.3061 143.111 98.3061ZM146.908 86.9091V88.3857H140.682V86.9091H146.908Z" fill="#1A1D27"/>
</svg>
