<svg width="32" height="32" viewBox="0 0 32 32" fill="none" xmlns="http://www.w3.org/2000/svg">
<rect width="32" height="32" rx="8" fill="#1A1D27"/>
<path d="M9.2706 14.5165L12.0139 16.7111C12.3794 17.0035 12.5621 17.1497 12.7656 17.2537C12.9461 17.3459 13.1383 17.4133 13.3369 17.4541C13.5608 17.5 13.7948 17.5 14.2628 17.5H17.7372C18.2052 17.5 18.4392 17.5 18.6631 17.4541C18.8617 17.4133 19.0539 17.3459 19.2344 17.2537C19.4379 17.1497 19.6206 17.0035 19.9861 16.7111L22.7294 14.5165M9.2706 14.5165C9.25 14.8671 9.25 15.2981 9.25 15.85V19.15C9.25 20.4101 9.25 21.0402 9.49524 21.5215C9.71095 21.9448 10.0552 22.289 10.4785 22.5048C10.9598 22.75 11.5899 22.75 12.85 22.75H19.15C20.4101 22.75 21.0402 22.75 21.5215 22.5048C21.9448 22.289 22.289 21.9448 22.5048 21.5215C22.75 21.0402 22.75 20.4101 22.75 19.15V15.85C22.75 15.2981 22.75 14.8671 22.7294 14.5165M9.2706 14.5165C9.29704 14.0665 9.3574 13.749 9.49524 13.4785C9.71095 13.0552 10.0552 12.711 10.4785 12.4952C10.9598 12.25 11.5899 12.25 12.85 12.25H13M22.7294 14.5165C22.703 14.0665 22.6426 13.749 22.5048 13.4785C22.289 13.0552 21.9448 12.711 21.5215 12.4952C21.0402 12.25 20.4101 12.25 19.15 12.25H19M13 12.25V11.5C13 10.2574 14.0074 9.25 15.25 9.25H16.75C17.9926 9.25 19 10.2574 19 11.5V12.25M13 12.25H19" stroke="white" stroke-width="1.5" stroke-linecap="round" stroke-linejoin="round"/>
</svg>
