<svg width="32" height="32" viewBox="0 0 32 32" fill="none" xmlns="http://www.w3.org/2000/svg">
<rect width="32" height="32" rx="8" fill="#FFBEA5"/>
<path d="M13.75 15.25V11.5C13.75 10.2574 14.7574 9.25 16 9.25C17.2426 9.25 18.25 10.2574 18.25 11.5V15.2254M14.8 22.75H17.2C18.8802 22.75 19.7202 22.75 20.362 22.423C20.9265 22.1354 21.3854 21.6765 21.673 21.112C22 20.4702 22 19.6302 22 17.95V16.15C22 15.3099 22 14.8899 21.8365 14.569C21.6927 14.2868 21.4632 14.0573 21.181 13.9135C20.8601 13.75 20.4401 13.75 19.6 13.75H12.4C11.5599 13.75 11.1399 13.75 10.819 13.9135C10.5368 14.0573 10.3073 14.2868 10.1635 14.569C10 14.8899 10 15.3099 10 16.15V17.95C10 19.6302 10 20.4702 10.327 21.112C10.6146 21.6765 11.0735 22.1354 11.638 22.423C12.2798 22.75 13.1198 22.75 14.8 22.75Z" stroke="#1A1D27" stroke-width="1.5" stroke-linecap="round" stroke-linejoin="round"/>
</svg>
