<svg width="32" height="32" viewBox="0 0 32 32" fill="none" xmlns="http://www.w3.org/2000/svg">
<rect width="32" height="32" rx="16" fill="#1A1D27"/>
<path d="M12.25 16.7501H16.75M12.25 13.7501H13.75M12.25 19.7501H16.75M19 22.7501H20.875M19.75 22.7501H12.85C11.5899 22.7501 10.9598 22.7501 10.4785 22.5048C10.0552 22.2891 9.71095 21.9449 9.49524 21.5216C9.25 21.0403 9.25 20.4102 9.25 19.1501V11.3179C9.25 10.6388 9.25 10.2993 9.39265 10.1024C9.51708 9.93068 9.70842 9.81965 9.91928 9.79682C10.161 9.77065 10.4558 9.9391 11.0454 10.276L11.2796 10.4099C11.4966 10.5339 11.6051 10.5959 11.7204 10.6202C11.8223 10.6416 11.9277 10.6416 12.0296 10.6202C12.1449 10.5959 12.2534 10.5339 12.4704 10.4099L13.9046 9.59029C14.1216 9.46628 14.2301 9.40428 14.3454 9.38C14.4473 9.35852 14.5527 9.35852 14.6546 9.38C14.7699 9.40428 14.8784 9.46628 15.0954 9.59029L16.5296 10.4099C16.7466 10.5339 16.8551 10.5959 16.9704 10.6202C17.0723 10.6416 17.1777 10.6416 17.2796 10.6202C17.3949 10.5959 17.5034 10.5339 17.7204 10.4099L17.9546 10.276C18.5442 9.9391 18.839 9.77065 19.0807 9.79682C19.2916 9.81965 19.4829 9.93068 19.6074 10.1024C19.75 10.2993 19.75 10.6388 19.75 11.3179V17.5001M19.75 16.7501H22.75V21.2501C22.75 22.0785 22.0784 22.7501 21.25 22.7501C20.4216 22.7501 19.75 22.0785 19.75 21.2501V16.7501Z" stroke="white" stroke-width="1.5" stroke-linecap="round" stroke-linejoin="round"/>
</svg>
