<svg width="32" height="32" viewBox="0 0 32 32" fill="none" xmlns="http://www.w3.org/2000/svg">
<rect width="32" height="32" rx="16" fill="#1A1D27"/>
<path d="M13 12.25H16M18.25 18.25H19M13 15.25H19M13 19L13.75 19.75L15.25 18.25M12.4 22.75H19.6C20.4401 22.75 20.8601 22.75 21.181 22.5865C21.4632 22.4427 21.6927 22.2132 21.8365 21.931C22 21.6101 22 21.1901 22 20.35V11.65C22 10.8099 22 10.3899 21.8365 10.069C21.6927 9.78677 21.4632 9.5573 21.181 9.41349C20.8601 9.25 20.4401 9.25 19.6 9.25H12.4C11.5599 9.25 11.1399 9.25 10.819 9.41349C10.5368 9.5573 10.3073 9.78677 10.1635 10.069C10 10.3899 10 10.8099 10 11.65V20.35C10 21.1901 10 21.6101 10.1635 21.931C10.3073 22.2132 10.5368 22.4427 10.819 22.5865C11.1399 22.75 11.5599 22.75 12.4 22.75Z" stroke="white" stroke-width="1.5" stroke-linecap="round" stroke-linejoin="round"/>
</svg>
