<svg width="24" height="25" viewBox="0 0 24 25" fill="none" xmlns="http://www.w3.org/2000/svg">
<path d="M12 0.97168C18.6274 0.97168 24 6.34427 24 12.9717C24 19.1069 19.3955 24.1661 13.4538 24.8838V16.6387L16.7001 16.6387L17.3734 12.9717H13.4538V11.6748C13.4538 10.7059 13.6439 10.0351 14.0799 9.60651C14.5159 9.17795 15.1979 8.99161 16.1817 8.99161C16.4307 8.99161 16.6599 8.99409 16.8633 8.99904C17.1591 9.00624 17.4002 9.01868 17.568 9.03635V5.71216C17.501 5.69352 17.4218 5.67489 17.3331 5.65654C17.1321 5.61498 16.8822 5.57492 16.6136 5.53974C16.0523 5.46621 15.4093 5.41398 14.9594 5.41398C13.1424 5.41398 11.7692 5.8027 10.8107 6.60787C9.65388 7.57959 9.10108 9.1579 9.10108 11.3916V12.9717H6.62659V16.6387H9.10108V24.6183C3.87432 23.3215 0 18.5994 0 12.9717C0 6.34427 5.37259 0.97168 12 0.97168Z" fill="#1A1D27"/>
</svg>
