<svg width="40" height="41" viewBox="0 0 40 41" fill="none" xmlns="http://www.w3.org/2000/svg">
<rect y="0.98584" width="40" height="40" rx="20" fill="#1A1D27"/>
<g clip-path="url(#clip0_2014_2871)">
<path d="M25.8275 17.4083L25.835 17.4008L23.045 14.6108L22.25 15.4058L23.8325 16.9883C23.1275 17.2583 22.625 17.9333 22.625 18.7358C22.625 19.7708 23.465 20.6108 24.5 20.6108C24.77 20.6108 25.0175 20.5508 25.25 20.4533V25.8608C25.25 26.2733 24.9125 26.6108 24.5 26.6108C24.0875 26.6108 23.75 26.2733 23.75 25.8608V22.4858C23.75 21.6608 23.075 20.9858 22.25 20.9858H21.5V15.7358C21.5 14.9108 20.825 14.2358 20 14.2358H15.5C14.675 14.2358 14 14.9108 14 15.7358V27.7358H21.5V22.1108H22.625V25.8608C22.625 26.8958 23.465 27.7358 24.5 27.7358C25.535 27.7358 26.375 26.8958 26.375 25.8608V18.7358C26.375 18.2183 26.165 17.7458 25.8275 17.4083ZM20 19.4858H15.5V15.7358H20V19.4858ZM24.5 19.4858C24.0875 19.4858 23.75 19.1483 23.75 18.7358C23.75 18.3233 24.0875 17.9858 24.5 17.9858C24.9125 17.9858 25.25 18.3233 25.25 18.7358C25.25 19.1483 24.9125 19.4858 24.5 19.4858Z" fill="white"/>
</g>
<defs>
<clipPath id="clip0_2014_2871">
<rect width="18" height="18" fill="white" transform="translate(11 11.9858)"/>
</clipPath>
</defs>
</svg>
