<svg width="32" height="32" viewBox="0 0 32 32" fill="none" xmlns="http://www.w3.org/2000/svg">
<rect width="32" height="32" rx="8" fill="#FFBEA5"/>
<path d="M23.5 13.0001H22M22 13.0001H21.25C19.75 11.5014 17.5 9.9999 16 11.5001M22 13.0001V19M16 11.5001L13.7497 13.7513C13.6901 13.8108 13.6604 13.8406 13.6364 13.8669C13.1162 14.4393 13.1165 15.3133 13.637 15.8853C13.6609 15.9117 13.6907 15.9415 13.7502 16.0009C13.8098 16.0604 13.8395 16.0902 13.8659 16.1141C14.4381 16.6341 15.3118 16.634 15.8838 16.1138C15.9102 16.0898 15.9399 16.0601 15.9994 16.0006L16.7497 15.2503M16 11.5001C14.5 9.9999 12.25 11.5014 10.75 13.0001H10M8.5 13.0001H10M10 13.0001V19M22 19V21.25H23.5M22 19H19.8787M18.25 16.75L19.375 17.875C19.4347 17.9348 19.4646 17.9647 19.4886 17.9911C20.0087 18.5632 20.0087 19.4369 19.4886 20.009C19.4646 20.0354 19.4347 20.0653 19.375 20.125C19.3153 20.1848 19.2854 20.2147 19.2589 20.2387C18.6868 20.7587 17.8132 20.7587 17.2411 20.2387C17.2146 20.2147 17.1847 20.1848 17.125 20.125L16.75 19.75C16.3411 20.159 16.1366 20.3635 15.916 20.4728C15.4964 20.6807 15.0036 20.6807 14.584 20.4728C14.3634 20.3635 14.1589 20.159 13.75 19.75C13.2331 20.4392 12.1717 20.3435 11.7865 19.573L11.5 19H10M10 19V21.25H8.5" stroke="#1A1D27" stroke-width="1.5" stroke-linecap="round" stroke-linejoin="round"/>
</svg>
