<svg width="24" height="25" viewBox="0 0 24 25" fill="none" xmlns="http://www.w3.org/2000/svg">
<path d="M18.3952 7.9938C17.6005 7.99536 16.9543 7.35188 16.9528 6.55716C16.9512 5.76244 17.5947 5.11625 18.3898 5.1147C19.1848 5.11314 19.831 5.75699 19.8326 6.55172C19.8338 7.34644 19.1903 7.99225 18.3952 7.9938Z" fill="#1A1D27"/>
<path fill-rule="evenodd" clip-rule="evenodd" d="M12.0115 19.1327C8.60909 19.1393 5.8451 16.3866 5.8385 12.9833C5.83188 9.58091 8.58536 6.81649 11.9878 6.80988C15.3909 6.80327 18.1553 9.55758 18.1619 12.9596C18.1685 16.3628 15.4143 19.1261 12.0115 19.1327ZM11.992 8.97203C9.78365 8.97592 7.99594 10.7703 7.99983 12.9791C8.0041 15.1883 9.79882 16.9756 12.0072 16.9713C14.2164 16.967 16.0041 15.1731 15.9998 12.9639C15.9955 10.7547 14.2008 8.96776 11.992 8.97203Z" fill="#1A1D27"/>
<path fill-rule="evenodd" clip-rule="evenodd" d="M4.1192 1.61816C4.88126 1.31956 5.75333 1.11504 7.03015 1.05478C8.31011 0.993352 8.71872 0.979351 11.9769 0.973132C15.2358 0.966914 15.6444 0.979348 16.9244 1.03611C18.2016 1.09132 19.0741 1.29273 19.8377 1.58822C20.6277 1.89265 21.298 2.30246 21.966 2.96771C22.6339 3.63373 23.0453 4.3017 23.3536 5.09058C23.6518 5.85342 23.8563 6.72474 23.917 8.00236C23.9776 9.28191 23.9924 9.69015 23.9986 12.9487C24.0048 16.2069 23.9916 16.616 23.9356 17.8967C23.88 19.1731 23.679 20.046 23.3835 20.8092C23.0783 21.5993 22.6693 22.2696 22.004 22.9375C21.3388 23.6059 20.6701 24.0169 19.8812 24.3256C19.1184 24.6234 18.2471 24.8279 16.9702 24.889C15.6903 24.9496 15.2817 24.964 12.0224 24.9702C8.76459 24.9764 8.35598 24.964 7.07605 24.9076C5.79882 24.8516 4.92597 24.6506 4.16275 24.3555C3.37271 24.0499 2.70242 23.6413 2.03446 22.9756C1.36611 22.31 0.954386 21.6417 0.646458 20.8528C0.347858 20.0903 0.144107 19.2186 0.0830727 17.9422C0.0220359 16.6618 0.00765506 16.2528 0.00143906 12.9946C-0.00480094 9.73603 0.00803667 9.32779 0.0640167 8.04784C0.1204 6.77023 0.320637 5.89774 0.61613 5.13374C0.921328 4.34407 1.33035 3.67416 1.99637 3.00581C2.6616 2.33784 3.33033 1.9257 4.1192 1.61816ZM4.94154 22.3396C5.36494 22.5025 6.00023 22.6969 7.17014 22.7478C8.43607 22.8026 8.81514 22.8147 12.0185 22.8085C15.223 22.8026 15.6021 22.789 16.8676 22.7295C18.0363 22.6739 18.6716 22.4772 19.0939 22.3123C19.6541 22.0934 20.0531 21.8318 20.4722 21.4123C20.8913 20.9912 21.1506 20.5911 21.3676 20.0308C21.5309 19.607 21.7249 18.9713 21.7758 17.8014C21.8314 16.5362 21.8431 16.1568 21.8368 12.9526C21.831 9.74925 21.8174 9.36978 21.7572 8.10422C21.7019 6.93507 21.5056 6.29976 21.3404 5.87791C21.1215 5.31687 20.8606 4.91873 20.4399 4.49921C20.0192 4.07968 19.6191 3.82113 19.0581 3.60418C18.6355 3.44049 17.9994 3.24686 16.8303 3.19594C15.5643 3.14033 15.1849 3.12905 11.9808 3.13528C8.77743 3.1415 8.39836 3.15432 7.13281 3.21421C5.9633 3.2698 5.32877 3.46615 4.90575 3.6314C4.34587 3.85029 3.94696 4.1104 3.52746 4.53148C3.10871 4.95255 2.84938 5.35186 2.63244 5.91329C2.46993 6.33632 2.27434 6.9724 2.2242 8.14155C2.16898 9.40749 2.15733 9.78697 2.16355 12.9903C2.16939 16.1945 2.18298 16.574 2.24248 17.8387C2.29729 19.0087 2.49518 19.6432 2.65966 20.0666C2.87855 20.6261 3.13944 21.025 3.55973 21.4445C3.98081 21.8625 4.38088 22.1226 4.94154 22.3396Z" fill="#1A1D27"/>
</svg>
