<svg width="32" height="32" viewBox="0 0 32 32" fill="none" xmlns="http://www.w3.org/2000/svg">
<rect width="32" height="32" rx="8" fill="#98999D"/>
<path d="M18.2501 17.5V20.2C18.2501 20.8301 18.2501 21.1451 18.1275 21.3857C18.0197 21.5974 17.8476 21.7695 17.6359 21.8774C17.3952 22 17.0802 22 16.4501 22H12.5501C11.9201 22 11.605 22 11.3644 21.8774C11.1527 21.7695 10.9806 21.5974 10.8728 21.3857C10.7501 21.1451 10.7501 20.8301 10.7501 20.2V14.5M21.2501 14.5V22M10.7501 19H18.2501M11.1685 10.6633L9.6843 13.6317C9.54054 13.9192 9.46866 14.063 9.48592 14.1798C9.501 14.2819 9.55744 14.3732 9.64197 14.4323C9.73877 14.5 9.8995 14.5 10.221 14.5H21.7793C22.1008 14.5 22.2615 14.5 22.3583 14.4323C22.4428 14.3732 22.4993 14.2819 22.5143 14.1798C22.5316 14.063 22.4597 13.9192 22.316 13.6317L20.8318 10.6633C20.7114 10.4226 20.6512 10.3021 20.5614 10.2142C20.482 10.1364 20.3863 10.0772 20.2812 10.041C20.1623 10 20.0277 10 19.7585 10H12.2418C11.9726 10 11.8379 10 11.7191 10.041C11.614 10.0772 11.5183 10.1364 11.4389 10.2142C11.3491 10.3021 11.2889 10.4225 11.1685 10.6633Z" stroke="#1A1D27" stroke-width="1.5" stroke-linecap="round" stroke-linejoin="round"/>
</svg>
