<svg width="32" height="32" viewBox="0 0 32 32" fill="none" xmlns="http://www.w3.org/2000/svg">
<rect width="32" height="32" rx="8" fill="#FFF4DB"/>
<path d="M15.25 22.75H10C10 20.1051 11.9558 17.9171 14.5 17.5532M21.9045 18.4028C21.8533 18.4059 21.8018 18.4075 21.75 18.4075C20.9816 18.4075 20.2807 18.0643 19.75 17.5C19.2192 18.0643 18.5183 18.4074 17.75 18.4074C17.6982 18.4074 17.6467 18.4059 17.5955 18.4028C17.5332 18.689 17.5 18.9891 17.5 19.2984C17.5 20.959 18.4561 22.3544 19.75 22.75C21.0439 22.3544 22 20.959 22 19.2984C22 18.9891 21.9668 18.689 21.9045 18.4028ZM18.25 12.25C18.25 13.9069 16.9069 15.25 15.25 15.25C13.5931 15.25 12.25 13.9069 12.25 12.25C12.25 10.5931 13.5931 9.25 15.25 9.25C16.9069 9.25 18.25 10.5931 18.25 12.25Z" stroke="#1A1D27" stroke-width="1.5" stroke-linecap="round" stroke-linejoin="round"/>
</svg>
