<svg width="32" height="32" viewBox="0 0 32 32" fill="none" xmlns="http://www.w3.org/2000/svg">
<rect width="32" height="32" rx="8" fill="#FFF4DB"/>
<path d="M12.25 17.5H16.375M12.25 14.5H19.75M14.5 21.25H11.65C10.8099 21.25 10.3899 21.25 10.069 21.0865C9.78677 20.9427 9.5573 20.7132 9.41349 20.431C9.25 20.1101 9.25 19.6901 9.25 18.85V13.15C9.25 12.3099 9.25 11.8899 9.41349 11.569C9.5573 11.2868 9.78677 11.0573 10.069 10.9135C10.3899 10.75 10.8099 10.75 11.65 10.75H20.35C21.1901 10.75 21.6101 10.75 21.931 10.9135C22.2132 11.0573 22.4427 11.2868 22.5865 11.569C22.75 11.8899 22.75 12.3099 22.75 13.15V13.375M17.5 22L19.0187 21.6963C19.1511 21.6698 19.2174 21.6565 19.2791 21.6323C19.3339 21.6108 19.386 21.5829 19.4343 21.5493C19.4887 21.5113 19.5364 21.4636 19.6319 21.3681L22.75 18.25C23.1642 17.8358 23.1642 17.1642 22.75 16.75C22.3358 16.3358 21.6642 16.3358 21.25 16.75L18.1319 19.8681C18.0364 19.9636 17.9887 20.0113 17.9507 20.0657C17.9171 20.114 17.8892 20.1661 17.8677 20.2209C17.8435 20.2826 17.8302 20.3489 17.8037 20.4813L17.5 22Z" stroke="#1A1D27" stroke-width="1.5" stroke-linecap="round" stroke-linejoin="round"/>
</svg>
