<svg width="32" height="32" viewBox="0 0 32 32" fill="none" xmlns="http://www.w3.org/2000/svg">
<rect width="32" height="32" rx="16" fill="#1A1D27"/>
<path d="M10.75 21.25L21.25 10.75M13.75 12.25C13.75 13.0784 13.0784 13.75 12.25 13.75C11.4216 13.75 10.75 13.0784 10.75 12.25C10.75 11.4216 11.4216 10.75 12.25 10.75C13.0784 10.75 13.75 11.4216 13.75 12.25ZM21.25 19.75C21.25 20.5784 20.5784 21.25 19.75 21.25C18.9216 21.25 18.25 20.5784 18.25 19.75C18.25 18.9216 18.9216 18.25 19.75 18.25C20.5784 18.25 21.25 18.9216 21.25 19.75Z" stroke="white" stroke-width="1.5" stroke-linecap="round" stroke-linejoin="round"/>
</svg>
