<svg width="32" height="32" viewBox="0 0 32 32" fill="none" xmlns="http://www.w3.org/2000/svg">
<rect width="32" height="32" rx="16" fill="#1A1D27"/>
<path d="M18.25 16C18.25 17.2426 17.2426 18.25 16 18.25C14.7574 18.25 13.75 17.2426 13.75 16C13.75 14.7574 14.7574 13.75 16 13.75C17.2426 13.75 18.25 14.7574 18.25 16Z" stroke="white" stroke-width="1.5" stroke-linecap="round" stroke-linejoin="round"/>
<path d="M16.6785 9.29503C16.5241 9.25 16.3494 9.25 16 9.25C15.6506 9.25 15.4759 9.25 15.3215 9.29503C15.0956 9.36095 14.8961 9.49606 14.751 9.68133C14.6518 9.80791 14.587 9.97012 14.4572 10.2945C14.2706 10.7609 13.7529 11.001 13.2764 10.8422L12.8483 10.6996C12.5447 10.5984 12.3928 10.5478 12.244 10.5391C12.0253 10.5264 11.8077 10.5777 11.6178 10.6869C11.4885 10.7613 11.3753 10.8744 11.149 11.1008C10.9084 11.3413 10.7881 11.4616 10.7117 11.5989C10.5995 11.8006 10.552 12.032 10.5757 12.2616C10.5918 12.4179 10.655 12.5759 10.7814 12.8917C10.9792 13.3864 10.7889 13.9516 10.332 14.2257L10.1239 14.3507C9.80523 14.5419 9.6459 14.6375 9.53016 14.7691C9.42774 14.8856 9.35051 15.022 9.30332 15.1697C9.25 15.3367 9.25 15.5244 9.25 15.8997C9.25 16.3441 9.25 16.5664 9.32097 16.7566C9.38367 16.9247 9.48566 17.0753 9.61843 17.1959C9.76868 17.3325 9.97296 17.4142 10.3815 17.5776C10.799 17.7446 11.014 18.2081 10.8718 18.6347L10.7104 19.1188C10.5986 19.4541 10.5428 19.6217 10.5377 19.7864C10.5316 19.9845 10.5779 20.1807 10.6719 20.3551C10.7501 20.5001 10.8751 20.6251 11.125 20.875C11.3749 21.1249 11.4999 21.2499 11.6449 21.3281C11.8193 21.4221 12.0155 21.4684 12.2136 21.4623C12.3783 21.4572 12.5459 21.4014 12.8812 21.2896L13.2765 21.1578C13.7529 20.999 14.2707 21.2391 14.4572 21.7055C14.587 22.0299 14.6518 22.1921 14.751 22.3187C14.8961 22.5039 15.0956 22.639 15.3215 22.705C15.4759 22.75 15.6506 22.75 16 22.75C16.3494 22.75 16.5241 22.75 16.6785 22.705C16.9044 22.639 17.1039 22.5039 17.249 22.3187C17.3482 22.1921 17.413 22.0299 17.5428 21.7055C17.7293 21.2391 18.2471 20.9991 18.7235 21.1579L19.1185 21.2896C19.4538 21.4014 19.6214 21.4573 19.7861 21.4624C19.9842 21.4685 20.1803 21.4222 20.3548 21.3282C20.4998 21.2499 20.6248 21.125 20.8747 20.8751C21.1246 20.6251 21.2496 20.5002 21.3278 20.3551C21.4218 20.1807 21.4681 19.9846 21.462 19.7865C21.4569 19.6218 21.401 19.4541 21.2893 19.1188L21.128 18.635C20.9858 18.2083 21.2008 17.7446 21.6185 17.5776C22.027 17.4142 22.2313 17.3325 22.3816 17.1959C22.5143 17.0753 22.6163 16.9247 22.679 16.7566C22.75 16.5664 22.75 16.3441 22.75 15.8997C22.75 15.5244 22.75 15.3367 22.6967 15.1697C22.6495 15.022 22.5723 14.8856 22.4698 14.7691C22.3541 14.6375 22.1948 14.5419 21.8761 14.3507L21.6677 14.2256C21.2108 13.9515 21.0205 13.3864 21.2183 12.8917C21.3447 12.5758 21.4079 12.4179 21.424 12.2616C21.4477 12.0319 21.4002 11.8006 21.288 11.5989C21.2116 11.4616 21.0913 11.3413 20.8507 11.1007C20.6244 10.8744 20.5112 10.7612 20.3819 10.6869C20.192 10.5777 19.9744 10.5263 19.7557 10.539C19.6069 10.5477 19.455 10.5983 19.1514 10.6996L18.7235 10.8422C18.2471 11.001 17.7293 10.7609 17.5428 10.2945C17.413 9.97012 17.3482 9.80791 17.249 9.68133C17.1039 9.49606 16.9044 9.36095 16.6785 9.29503Z" stroke="white" stroke-width="1.5" stroke-linecap="round" stroke-linejoin="round"/>
</svg>
