<svg width="10" height="11" viewBox="0 0 10 11" fill="none" xmlns="http://www.w3.org/2000/svg">
<path d="M9.5 5.97168C9.5 8.45696 7.48528 10.4717 5 10.4717C2.51472 10.4717 0.5 8.45696 0.5 5.97168C0.5 3.4864 2.51472 1.47168 5 1.47168C7.48528 1.47168 9.5 3.4864 9.5 5.97168Z" stroke="#1A1D27" stroke-linecap="round" stroke-linejoin="round"/>
<path d="M6.50077 5.63886C6.66769 5.75014 6.75115 5.80578 6.78024 5.87591C6.80566 5.93723 6.80566 6.00613 6.78024 6.06745C6.75115 6.13758 6.66769 6.19322 6.50077 6.3045L4.62188 7.55709C4.41987 7.69177 4.31886 7.75911 4.2351 7.75411C4.16213 7.74975 4.09472 7.71367 4.05062 7.65538C4 7.58846 4 7.46706 4 7.22427V4.71909C4 4.4763 4 4.3549 4.05062 4.28798C4.09472 4.22969 4.16213 4.19361 4.2351 4.18925C4.31886 4.18425 4.41987 4.25159 4.62188 4.38627L6.50077 5.63886Z" stroke="#1A1D27" stroke-linecap="round" stroke-linejoin="round"/>
</svg>
