<svg width="24" height="18" viewBox="0 0 24 18" fill="none" xmlns="http://www.w3.org/2000/svg">
<path fill-rule="evenodd" clip-rule="evenodd" d="M22.7466 1.80623C23.119 2.181 23.3864 2.64699 23.5221 3.15758C24.0239 5.04212 24.0239 8.97212 24.0239 8.97212C24.0239 8.97212 24.0239 12.9021 23.5221 14.7867C23.3864 15.2973 23.119 15.7632 22.7466 16.138C22.3743 16.5128 21.91 16.7832 21.4003 16.9221C19.5239 17.4267 12.0239 17.4267 12.0239 17.4267C12.0239 17.4267 4.52393 17.4267 2.64756 16.9221C2.13786 16.7832 1.67358 16.5128 1.30121 16.138C0.928842 15.7632 0.661431 15.2973 0.525744 14.7867C0.0239258 12.9021 0.0239258 8.97212 0.0239258 8.97212C0.0239258 8.97212 0.0239258 5.04212 0.525744 3.15758C0.661431 2.64699 0.928842 2.181 1.30121 1.80623C1.67358 1.43147 2.13786 1.16108 2.64756 1.02212C4.52393 0.517578 12.0239 0.517578 12.0239 0.517578C12.0239 0.517578 19.5239 0.517578 21.4003 1.02212C21.91 1.16108 22.3743 1.43147 22.7466 1.80623ZM15.8421 8.97216L9.5694 5.40352V12.5408L15.8421 8.97216Z" fill="#1A1D27"/>
</svg>
