<svg width="200" height="166" viewBox="0 0 200 166" fill="none" xmlns="http://www.w3.org/2000/svg">
<rect width="200" height="166" rx="16" fill="white" fill-opacity="0.7"/>
<rect x="16" y="16" width="32" height="32" rx="16" fill="#1A1D27"/>
<path d="M26.75 37.25L37.25 26.75M29.75 28.25C29.75 29.0784 29.0784 29.75 28.25 29.75C27.4216 29.75 26.75 29.0784 26.75 28.25C26.75 27.4216 27.4216 26.75 28.25 26.75C29.0784 26.75 29.75 27.4216 29.75 28.25ZM37.25 35.75C37.25 36.5784 36.5784 37.25 35.75 37.25C34.9216 37.25 34.25 36.5784 34.25 35.75C34.25 34.9216 34.9216 34.25 35.75 34.25C36.5784 34.25 37.25 34.9216 37.25 35.75Z" stroke="white" stroke-width="1.5" stroke-linecap="round" stroke-linejoin="round"/>
<path d="M19.4716 64.3636V76H17.0114V64.3636H19.4716ZM25.2676 76.1705C24.3698 76.1705 23.5971 75.9886 22.9494 75.625C22.3054 75.2576 21.8092 74.7386 21.4607 74.0682C21.1123 73.3939 20.938 72.5966 20.938 71.6761C20.938 70.7784 21.1123 69.9905 21.4607 69.3125C21.8092 68.6345 22.2998 68.1061 22.9323 67.7273C23.5687 67.3485 24.3149 67.1591 25.171 67.1591C25.7467 67.1591 26.2827 67.2519 26.7789 67.4375C27.2789 67.6193 27.7145 67.8939 28.0857 68.2614C28.4607 68.6288 28.7524 69.0909 28.9607 69.6477C29.1691 70.2008 29.2732 70.8485 29.2732 71.5909V72.2557H21.9039V70.7557H26.9948C26.9948 70.4072 26.9191 70.0985 26.7676 69.8295C26.616 69.5606 26.4058 69.3504 26.1369 69.1989C25.8717 69.0436 25.563 68.9659 25.2107 68.9659C24.8433 68.9659 24.5176 69.0511 24.2335 69.2216C23.9532 69.3883 23.7335 69.6136 23.5744 69.8977C23.4153 70.178 23.3338 70.4905 23.3301 70.8352V72.2614C23.3301 72.6932 23.4096 73.0663 23.5687 73.3807C23.7316 73.6951 23.9607 73.9375 24.2562 74.108C24.5516 74.2784 24.902 74.3636 25.3073 74.3636C25.5763 74.3636 25.8225 74.3258 26.046 74.25C26.2695 74.1742 26.4607 74.0606 26.6198 73.9091C26.7789 73.7576 26.9001 73.572 26.9835 73.3523L29.2221 73.5C29.1085 74.0379 28.8755 74.5076 28.5232 74.9091C28.1748 75.3068 27.724 75.6174 27.171 75.8409C26.6217 76.0606 25.9873 76.1705 25.2676 76.1705ZM34.6246 79.4545C33.8405 79.4545 33.1682 79.3466 32.6076 79.1307C32.0507 78.9186 31.6076 78.6288 31.278 78.2614C30.9485 77.8939 30.7345 77.4811 30.636 77.0227L32.8746 76.7216C32.9428 76.8958 33.0507 77.0587 33.1985 77.2102C33.3462 77.3617 33.5413 77.483 33.7837 77.5739C34.0299 77.6686 34.3291 77.7159 34.6814 77.7159C35.2079 77.7159 35.6416 77.5871 35.9826 77.3295C36.3273 77.0758 36.4996 76.6496 36.4996 76.0511V74.4545H36.3973C36.2913 74.697 36.1322 74.9261 35.9201 75.142C35.7079 75.358 35.4352 75.5341 35.1019 75.6705C34.7685 75.8068 34.3708 75.875 33.9087 75.875C33.2534 75.875 32.6568 75.7235 32.1189 75.4205C31.5848 75.1136 31.1587 74.6458 30.8405 74.017C30.5261 73.3845 30.3689 72.5852 30.3689 71.6193C30.3689 70.6307 30.5299 69.8049 30.8519 69.142C31.1738 68.4792 31.6019 67.983 32.136 67.6534C32.6738 67.3239 33.2629 67.1591 33.903 67.1591C34.3916 67.1591 34.8007 67.2424 35.1303 67.4091C35.4598 67.572 35.725 67.7765 35.9257 68.0227C36.1303 68.2652 36.2875 68.5038 36.3973 68.7386H36.4882V67.2727H38.8916V76.0852C38.8916 76.8277 38.7098 77.4489 38.3462 77.9489C37.9826 78.4489 37.4788 78.8239 36.8348 79.0739C36.1947 79.3277 35.4579 79.4545 34.6246 79.4545ZM34.6757 74.0568C35.0659 74.0568 35.3954 73.9602 35.6644 73.767C35.9371 73.5701 36.1454 73.2898 36.2894 72.9261C36.4371 72.5587 36.511 72.1193 36.511 71.608C36.511 71.0966 36.439 70.6534 36.2951 70.2784C36.1511 69.8996 35.9428 69.6061 35.6701 69.3977C35.3973 69.1894 35.0659 69.0852 34.6757 69.0852C34.278 69.0852 33.9428 69.1932 33.6701 69.4091C33.3973 69.6212 33.1909 69.9167 33.0507 70.2955C32.9106 70.6742 32.8405 71.1117 32.8405 71.608C32.8405 72.1117 32.9106 72.5473 33.0507 72.9148C33.1947 73.2784 33.4011 73.5606 33.6701 73.7614C33.9428 73.9583 34.278 74.0568 34.6757 74.0568ZM46.2544 72.2841V67.2727H48.6748V76H46.351V74.4148H46.2601C46.0631 74.9261 45.7354 75.3371 45.2771 75.6477C44.8226 75.9583 44.2676 76.1136 43.6123 76.1136C43.029 76.1136 42.5157 75.9811 42.0726 75.7159C41.6294 75.4508 41.2828 75.0739 41.0328 74.5852C40.7866 74.0966 40.6616 73.5114 40.6578 72.8295V67.2727H43.0782V72.3977C43.082 72.9129 43.2203 73.3201 43.493 73.6193C43.7657 73.9186 44.1313 74.0682 44.5896 74.0682C44.8813 74.0682 45.154 74.0019 45.4078 73.8693C45.6616 73.733 45.8661 73.5322 46.0214 73.267C46.1805 73.0019 46.2582 72.6742 46.2544 72.2841ZM47.4419 64.3636V65.6761H41.9078V64.3636H47.4419ZM55.093 67.2727V69.0909H49.8373V67.2727H55.093ZM51.0305 65.1818H53.4509V73.3182C53.4509 73.5417 53.485 73.7159 53.5532 73.8409C53.6214 73.9621 53.7161 74.0473 53.8373 74.0966C53.9623 74.1458 54.1062 74.1705 54.2691 74.1705C54.3827 74.1705 54.4964 74.161 54.61 74.142C54.7236 74.1193 54.8108 74.1023 54.8714 74.0909L55.252 75.892C55.1308 75.9299 54.9604 75.9735 54.7407 76.0227C54.521 76.0758 54.2539 76.108 53.9395 76.1193C53.3562 76.142 52.8448 76.0644 52.4055 75.8864C51.9698 75.7083 51.6308 75.4318 51.3884 75.0568C51.146 74.6818 51.0267 74.2083 51.0305 73.6364V65.1818ZM68.1891 67.2727L65.138 76H62.4107L59.3596 67.2727H61.9164L63.7289 73.517H63.8198L65.6266 67.2727H68.1891ZM71.522 76.1648C70.9652 76.1648 70.469 76.0682 70.0334 75.875C69.5978 75.678 69.2531 75.3883 68.9993 75.0057C68.7493 74.6193 68.6243 74.1383 68.6243 73.5625C68.6243 73.0777 68.7133 72.6705 68.8914 72.3409C69.0694 72.0114 69.3118 71.7462 69.6186 71.5455C69.9255 71.3447 70.2739 71.1932 70.6641 71.0909C71.058 70.9886 71.4709 70.9167 71.9027 70.875C72.4103 70.822 72.8194 70.7727 73.13 70.7273C73.4406 70.678 73.666 70.6061 73.8061 70.5114C73.9463 70.4167 74.0164 70.2765 74.0164 70.0909V70.0568C74.0164 69.697 73.9027 69.4186 73.6755 69.2216C73.452 69.0246 73.1338 68.9261 72.7209 68.9261C72.2853 68.9261 71.9387 69.0227 71.6811 69.2159C71.4236 69.4053 71.2531 69.6439 71.1698 69.9318L68.9311 69.75C69.0448 69.2197 69.2683 68.7614 69.6016 68.375C69.9349 67.9848 70.3648 67.6856 70.8914 67.4773C71.4217 67.2652 72.0353 67.1591 72.7323 67.1591C73.2171 67.1591 73.6811 67.2159 74.1243 67.3295C74.5713 67.4432 74.9671 67.6193 75.3118 67.858C75.6603 68.0966 75.9349 68.4034 76.1357 68.7784C76.3364 69.1496 76.4368 69.5947 76.4368 70.1136V76H74.1414V74.7898H74.0732C73.933 75.0625 73.7455 75.303 73.5107 75.5114C73.2758 75.7159 72.9936 75.8769 72.6641 75.9943C72.3345 76.108 71.9539 76.1648 71.522 76.1648ZM72.2152 74.4943C72.5713 74.4943 72.8857 74.4242 73.1584 74.2841C73.4311 74.1402 73.6452 73.947 73.8005 73.7045C73.9558 73.4621 74.0334 73.1875 74.0334 72.8807V71.9545C73.9577 72.0038 73.8535 72.0492 73.7209 72.0909C73.5921 72.1288 73.4463 72.1648 73.2834 72.1989C73.1205 72.2292 72.9577 72.2576 72.7948 72.2841C72.6319 72.3068 72.4842 72.3277 72.3516 72.3466C72.0675 72.3883 71.8194 72.4545 71.6073 72.5455C71.3952 72.6364 71.2304 72.7595 71.113 72.9148C70.9955 73.0663 70.9368 73.2557 70.9368 73.483C70.9368 73.8125 71.0561 74.0644 71.2948 74.2386C71.5372 74.4091 71.844 74.4943 72.2152 74.4943ZM78.1547 76V67.2727H80.5751V76H78.1547ZM79.3706 66.1477C79.0107 66.1477 78.702 66.0284 78.4444 65.7898C78.1906 65.5473 78.0638 65.2576 78.0638 64.9205C78.0638 64.5871 78.1906 64.3011 78.4444 64.0625C78.702 63.8201 79.0107 63.6989 79.3706 63.6989C79.7304 63.6989 80.0372 63.8201 80.291 64.0625C80.5486 64.3011 80.6774 64.5871 80.6774 64.9205C80.6774 65.2576 80.5486 65.5473 80.291 65.7898C80.0372 66.0284 79.7304 66.1477 79.3706 66.1477ZM82.354 76V67.2727H84.7006V68.7955H84.7915C84.9506 68.2538 85.2177 67.8447 85.5927 67.5682C85.9677 67.2879 86.3995 67.1477 86.8881 67.1477C87.0093 67.1477 87.14 67.1553 87.2802 67.1705C87.4203 67.1856 87.5434 67.2064 87.6495 67.233V69.3807C87.5359 69.3466 87.3787 69.3163 87.1779 69.2898C86.9771 69.2633 86.7934 69.25 86.6268 69.25C86.2707 69.25 85.9525 69.3277 85.6722 69.483C85.3957 69.6345 85.176 69.8466 85.0131 70.1193C84.854 70.392 84.7745 70.7064 84.7745 71.0625V76H82.354ZM90.9795 76.1648C90.4227 76.1648 89.9265 76.0682 89.4909 75.875C89.0553 75.678 88.7106 75.3883 88.4568 75.0057C88.2068 74.6193 88.0818 74.1383 88.0818 73.5625C88.0818 73.0777 88.1708 72.6705 88.3489 72.3409C88.5269 72.0114 88.7693 71.7462 89.0761 71.5455C89.383 71.3447 89.7314 71.1932 90.1216 71.0909C90.5155 70.9886 90.9284 70.9167 91.3602 70.875C91.8678 70.822 92.2769 70.7727 92.5875 70.7273C92.8981 70.678 93.1235 70.6061 93.2636 70.5114C93.4038 70.4167 93.4739 70.2765 93.4739 70.0909V70.0568C93.4739 69.697 93.3602 69.4186 93.133 69.2216C92.9095 69.0246 92.5913 68.9261 92.1784 68.9261C91.7428 68.9261 91.3962 69.0227 91.1386 69.2159C90.8811 69.4053 90.7106 69.6439 90.6273 69.9318L88.3886 69.75C88.5023 69.2197 88.7258 68.7614 89.0591 68.375C89.3924 67.9848 89.8224 67.6856 90.3489 67.4773C90.8792 67.2652 91.4928 67.1591 92.1898 67.1591C92.6746 67.1591 93.1386 67.2159 93.5818 67.3295C94.0288 67.4432 94.4246 67.6193 94.7693 67.858C95.1178 68.0966 95.3924 68.4034 95.5932 68.7784C95.7939 69.1496 95.8943 69.5947 95.8943 70.1136V76H93.5989V74.7898H93.5307C93.3905 75.0625 93.203 75.303 92.9682 75.5114C92.7333 75.7159 92.4511 75.8769 92.1216 75.9943C91.792 76.108 91.4114 76.1648 90.9795 76.1648ZM91.6727 74.4943C92.0288 74.4943 92.3432 74.4242 92.6159 74.2841C92.8886 74.1402 93.1027 73.947 93.258 73.7045C93.4133 73.4621 93.4909 73.1875 93.4909 72.8807V71.9545C93.4152 72.0038 93.311 72.0492 93.1784 72.0909C93.0496 72.1288 92.9038 72.1648 92.7409 72.1989C92.578 72.2292 92.4152 72.2576 92.2523 72.2841C92.0894 72.3068 91.9417 72.3277 91.8091 72.3466C91.525 72.3883 91.2769 72.4545 91.0648 72.5455C90.8527 72.6364 90.6879 72.7595 90.5705 72.9148C90.453 73.0663 90.3943 73.2557 90.3943 73.483C90.3943 73.8125 90.5136 74.0644 90.7523 74.2386C90.9947 74.4091 91.3015 74.4943 91.6727 74.4943ZM95.0477 64.3636V65.6761H89.5136V64.3636H95.0477ZM99.8053 73.4886L99.811 70.5852H100.163L102.959 67.2727H105.737L101.981 71.6591H101.408L99.8053 73.4886ZM97.6122 76V64.3636H100.033V76H97.6122ZM103.067 76L100.499 72.1989L102.112 70.4886L105.902 76H103.067ZM19.3864 90.9545V96H16.9659V87.2727H19.2727V88.8125H19.375C19.5682 88.3049 19.892 87.9034 20.3466 87.608C20.8011 87.3087 21.3523 87.1591 22 87.1591C22.6061 87.1591 23.1345 87.2917 23.5852 87.5568C24.036 87.822 24.3864 88.2008 24.6364 88.6932C24.8864 89.1818 25.0114 89.7652 25.0114 90.4432V96H22.5909V90.875C22.5947 90.3409 22.4583 89.9242 22.1818 89.625C21.9053 89.322 21.5246 89.1705 21.0398 89.1705C20.714 89.1705 20.4261 89.2405 20.1761 89.3807C19.9299 89.5208 19.7367 89.7254 19.5966 89.9943C19.4602 90.2595 19.3902 90.5795 19.3864 90.9545ZM30.7022 96.1705C29.8196 96.1705 29.0564 95.983 28.4124 95.608C27.7723 95.2292 27.278 94.7027 26.9295 94.0284C26.581 93.3504 26.4068 92.5644 26.4068 91.6705C26.4068 90.7689 26.581 89.9811 26.9295 89.3068C27.278 88.6288 27.7723 88.1023 28.4124 87.7273C29.0564 87.3485 29.8196 87.1591 30.7022 87.1591C31.5848 87.1591 32.3462 87.3485 32.9863 87.7273C33.6302 88.1023 34.1265 88.6288 34.4749 89.3068C34.8234 89.9811 34.9977 90.7689 34.9977 91.6705C34.9977 92.5644 34.8234 93.3504 34.4749 94.0284C34.1265 94.7027 33.6302 95.2292 32.9863 95.608C32.3462 95.983 31.5848 96.1705 30.7022 96.1705ZM30.7136 94.2955C31.1151 94.2955 31.4503 94.1818 31.7193 93.9545C31.9882 93.7235 32.1909 93.4091 32.3272 93.0114C32.4674 92.6136 32.5374 92.161 32.5374 91.6534C32.5374 91.1458 32.4674 90.6932 32.3272 90.2955C32.1909 89.8977 31.9882 89.5833 31.7193 89.3523C31.4503 89.1212 31.1151 89.0057 30.7136 89.0057C30.3083 89.0057 29.9674 89.1212 29.6909 89.3523C29.4181 89.5833 29.2117 89.8977 29.0715 90.2955C28.9352 90.6932 28.867 91.1458 28.867 91.6534C28.867 92.161 28.9352 92.6136 29.0715 93.0114C29.2117 93.4091 29.4181 93.7235 29.6909 93.9545C29.9674 94.1818 30.3083 94.2955 30.7136 94.2955ZM36.4115 96V87.2727H38.7581V88.7955H38.849C39.0081 88.2538 39.2752 87.8447 39.6502 87.5682C40.0252 87.2879 40.457 87.1477 40.9456 87.1477C41.0668 87.1477 41.1975 87.1553 41.3377 87.1705C41.4778 87.1856 41.6009 87.2064 41.707 87.233V89.3807C41.5934 89.3466 41.4362 89.3163 41.2354 89.2898C41.0346 89.2633 40.8509 89.25 40.6843 89.25C40.3282 89.25 40.01 89.3277 39.7297 89.483C39.4532 89.6345 39.2335 89.8466 39.0706 90.1193C38.9115 90.392 38.832 90.7064 38.832 91.0625V96H36.4115ZM45.037 96.1648C44.4802 96.1648 43.984 96.0682 43.5484 95.875C43.1128 95.678 42.7681 95.3883 42.5143 95.0057C42.2643 94.6193 42.1393 94.1383 42.1393 93.5625C42.1393 93.0777 42.2283 92.6705 42.4064 92.3409C42.5844 92.0114 42.8268 91.7462 43.1336 91.5455C43.4405 91.3447 43.7889 91.1932 44.1791 91.0909C44.573 90.9886 44.9859 90.9167 45.4177 90.875C45.9253 90.822 46.3344 90.7727 46.645 90.7273C46.9556 90.678 47.181 90.6061 47.3211 90.5114C47.4613 90.4167 47.5314 90.2765 47.5314 90.0909V90.0568C47.5314 89.697 47.4177 89.4186 47.1905 89.2216C46.967 89.0246 46.6488 88.9261 46.2359 88.9261C45.8003 88.9261 45.4537 89.0227 45.1961 89.2159C44.9386 89.4053 44.7681 89.6439 44.6848 89.9318L42.4461 89.75C42.5598 89.2197 42.7833 88.7614 43.1166 88.375C43.4499 87.9848 43.8798 87.6856 44.4064 87.4773C44.9367 87.2652 45.5503 87.1591 46.2473 87.1591C46.7321 87.1591 47.1961 87.2159 47.6393 87.3295C48.0863 87.4432 48.4821 87.6193 48.8268 87.858C49.1753 88.0966 49.4499 88.4034 49.6507 88.7784C49.8514 89.1496 49.9518 89.5947 49.9518 90.1136V96H47.6564V94.7898H47.5882C47.448 95.0625 47.2605 95.303 47.0257 95.5114C46.7908 95.7159 46.5086 95.8769 46.1791 95.9943C45.8495 96.108 45.4689 96.1648 45.037 96.1648ZM45.7302 94.4943C46.0863 94.4943 46.4007 94.4242 46.6734 94.2841C46.9461 94.1402 47.1602 93.947 47.3155 93.7045C47.4708 93.4621 47.5484 93.1875 47.5484 92.8807V91.9545C47.4727 92.0038 47.3685 92.0492 47.2359 92.0909C47.1071 92.1288 46.9613 92.1648 46.7984 92.1989C46.6355 92.2292 46.4727 92.2576 46.3098 92.2841C46.1469 92.3068 45.9992 92.3277 45.8666 92.3466C45.5825 92.3883 45.3344 92.4545 45.1223 92.5455C44.9102 92.6364 44.7454 92.7595 44.628 92.9148C44.5105 93.0663 44.4518 93.2557 44.4518 93.483C44.4518 93.8125 44.5711 94.0644 44.8098 94.2386C45.0522 94.4091 45.359 94.4943 45.7302 94.4943ZM53.8628 93.4886L53.8685 90.5852H54.2208L57.0163 87.2727H59.7947L56.039 91.6591H55.4651L53.8628 93.4886ZM51.6697 96V84.3636H54.0901V96H51.6697ZM57.1242 96L54.556 92.1989L56.1697 90.4886L59.9594 96H57.1242ZM68.0835 89.7614L65.8676 89.8977C65.8297 89.7083 65.7483 89.5379 65.6233 89.3864C65.4983 89.2311 65.3335 89.108 65.129 89.017C64.9282 88.9223 64.6877 88.875 64.4074 88.875C64.0324 88.875 63.7161 88.9545 63.4585 89.1136C63.2009 89.2689 63.0722 89.4773 63.0722 89.7386C63.0722 89.947 63.1555 90.1231 63.3222 90.267C63.4888 90.411 63.7748 90.5265 64.1801 90.6136L65.7597 90.9318C66.6081 91.1061 67.2407 91.3864 67.6574 91.7727C68.0741 92.1591 68.2824 92.6667 68.2824 93.2955C68.2824 93.8674 68.1138 94.3693 67.7767 94.8011C67.4434 95.233 66.985 95.5701 66.4017 95.8125C65.8222 96.0511 65.1536 96.1705 64.396 96.1705C63.2407 96.1705 62.3203 95.9299 61.6347 95.4489C60.9528 94.964 60.5532 94.3049 60.4358 93.4716L62.8165 93.3466C62.8884 93.6989 63.0627 93.9678 63.3392 94.1534C63.6157 94.3352 63.9699 94.4261 64.4017 94.4261C64.8259 94.4261 65.1669 94.3447 65.4244 94.1818C65.6858 94.0152 65.8184 93.8011 65.8222 93.5398C65.8184 93.3201 65.7256 93.1402 65.5438 93C65.3619 92.8561 65.0816 92.7462 64.7028 92.6705L63.1915 92.3693C62.3392 92.1989 61.7047 91.9034 61.2881 91.483C60.8752 91.0625 60.6688 90.5265 60.6688 89.875C60.6688 89.3144 60.8203 88.8314 61.1233 88.4261C61.4301 88.0208 61.86 87.7083 62.4131 87.4886C62.9699 87.2689 63.6214 87.1591 64.3676 87.1591C65.4699 87.1591 66.3373 87.392 66.9699 87.858C67.6063 88.3239 67.9775 88.9583 68.0835 89.7614ZM74.2886 87.2727V89.0909H69.0329V87.2727H74.2886ZM70.2261 85.1818H72.6465V93.3182C72.6465 93.5417 72.6806 93.7159 72.7488 93.8409C72.817 93.9621 72.9117 94.0473 73.0329 94.0966C73.1579 94.1458 73.3018 94.1705 73.4647 94.1705C73.5784 94.1705 73.692 94.161 73.8056 94.142C73.9193 94.1193 74.0064 94.1023 74.067 94.0909L74.4477 95.892C74.3265 95.9299 74.156 95.9735 73.9363 96.0227C73.7166 96.0758 73.4496 96.108 73.1352 96.1193C72.5518 96.142 72.0405 96.0644 71.6011 95.8864C71.1655 95.7083 70.8265 95.4318 70.584 95.0568C70.3416 94.6818 70.2223 94.2083 70.2261 93.6364V85.1818ZM78.1939 96.1648C77.6371 96.1648 77.1409 96.0682 76.7053 95.875C76.2697 95.678 75.925 95.3883 75.6712 95.0057C75.4212 94.6193 75.2962 94.1383 75.2962 93.5625C75.2962 93.0777 75.3852 92.6705 75.5632 92.3409C75.7413 92.0114 75.9837 91.7462 76.2905 91.5455C76.5973 91.3447 76.9458 91.1932 77.336 91.0909C77.7299 90.9886 78.1428 90.9167 78.5746 90.875C79.0822 90.822 79.4913 90.7727 79.8019 90.7273C80.1125 90.678 80.3379 90.6061 80.478 90.5114C80.6182 90.4167 80.6882 90.2765 80.6882 90.0909V90.0568C80.6882 89.697 80.5746 89.4186 80.3473 89.2216C80.1238 89.0246 79.8057 88.9261 79.3928 88.9261C78.9572 88.9261 78.6106 89.0227 78.353 89.2159C78.0954 89.4053 77.925 89.6439 77.8416 89.9318L75.603 89.75C75.7166 89.2197 75.9401 88.7614 76.2735 88.375C76.6068 87.9848 77.0367 87.6856 77.5632 87.4773C78.0935 87.2652 78.7072 87.1591 79.4041 87.1591C79.889 87.1591 80.353 87.2159 80.7962 87.3295C81.2432 87.4432 81.639 87.6193 81.9837 87.858C82.3322 88.0966 82.6068 88.4034 82.8076 88.7784C83.0083 89.1496 83.1087 89.5947 83.1087 90.1136V96H80.8132V94.7898H80.7451C80.6049 95.0625 80.4174 95.303 80.1826 95.5114C79.9477 95.7159 79.6655 95.8769 79.336 95.9943C79.0064 96.108 78.6257 96.1648 78.1939 96.1648ZM78.8871 94.4943C79.2432 94.4943 79.5576 94.4242 79.8303 94.2841C80.103 94.1402 80.317 93.947 80.4723 93.7045C80.6276 93.4621 80.7053 93.1875 80.7053 92.8807V91.9545C80.6295 92.0038 80.5254 92.0492 80.3928 92.0909C80.264 92.1288 80.1182 92.1648 79.9553 92.1989C79.7924 92.2292 79.6295 92.2576 79.4666 92.2841C79.3038 92.3068 79.156 92.3277 79.0235 92.3466C78.7394 92.3883 78.4913 92.4545 78.2791 92.5455C78.067 92.6364 77.9023 92.7595 77.7848 92.9148C77.6674 93.0663 77.6087 93.2557 77.6087 93.483C77.6087 93.8125 77.728 94.0644 77.9666 94.2386C78.2091 94.4091 78.5159 94.4943 78.8871 94.4943ZM82.2621 84.3636V85.6761H76.728V84.3636H82.2621ZM84.8265 96V87.2727H87.1334V88.8125H87.2356C87.4174 88.3011 87.7205 87.8977 88.1447 87.6023C88.569 87.3068 89.0765 87.1591 89.6674 87.1591C90.2659 87.1591 90.7754 87.3087 91.1959 87.608C91.6163 87.9034 91.8966 88.3049 92.0368 88.8125H92.1277C92.3057 88.3125 92.6277 87.9129 93.0936 87.6136C93.5633 87.3106 94.1182 87.1591 94.7584 87.1591C95.5727 87.1591 96.2337 87.4186 96.7413 87.9375C97.2527 88.4527 97.5084 89.1837 97.5084 90.1307V96H95.0936V90.608C95.0936 90.1231 94.9648 89.7595 94.7072 89.517C94.4496 89.2746 94.1277 89.1534 93.7413 89.1534C93.3019 89.1534 92.9591 89.2936 92.7129 89.5739C92.4667 89.8504 92.3436 90.2159 92.3436 90.6705V96H89.997V90.5568C89.997 90.1288 89.8739 89.7879 89.6277 89.5341C89.3852 89.2803 89.0652 89.1534 88.6674 89.1534C88.3985 89.1534 88.1561 89.2216 87.9402 89.358C87.7281 89.4905 87.5595 89.678 87.4345 89.9205C87.3095 90.1591 87.247 90.4394 87.247 90.7614V96H84.8265ZM103.203 96.1705C102.321 96.1705 101.558 95.983 100.914 95.608C100.274 95.2292 99.7792 94.7027 99.4307 94.0284C99.0823 93.3504 98.908 92.5644 98.908 91.6705C98.908 90.7689 99.0823 89.9811 99.4307 89.3068C99.7792 88.6288 100.274 88.1023 100.914 87.7273C101.558 87.3485 102.321 87.1591 103.203 87.1591C104.086 87.1591 104.847 87.3485 105.488 87.7273C106.131 88.1023 106.628 88.6288 106.976 89.3068C107.325 89.9811 107.499 90.7689 107.499 91.6705C107.499 92.5644 107.325 93.3504 106.976 94.0284C106.628 94.7027 106.131 95.2292 105.488 95.608C104.847 95.983 104.086 96.1705 103.203 96.1705ZM103.215 94.2955C103.616 94.2955 103.952 94.1818 104.221 93.9545C104.489 93.7235 104.692 93.4091 104.828 93.0114C104.969 92.6136 105.039 92.161 105.039 91.6534C105.039 91.1458 104.969 90.6932 104.828 90.2955C104.692 89.8977 104.489 89.5833 104.221 89.3523C103.952 89.1212 103.616 89.0057 103.215 89.0057C102.81 89.0057 102.469 89.1212 102.192 89.3523C101.919 89.5833 101.713 89.8977 101.573 90.2955C101.436 90.6932 101.368 91.1458 101.368 91.6534C101.368 92.161 101.436 92.6136 101.573 93.0114C101.713 93.4091 101.919 93.7235 102.192 93.9545C102.469 94.1818 102.81 94.2955 103.215 94.2955ZM16.9659 116V107.273H19.3864V116H16.9659ZM18.1818 106.148C17.822 106.148 17.5133 106.028 17.2557 105.79C17.0019 105.547 16.875 105.258 16.875 104.92C16.875 104.587 17.0019 104.301 17.2557 104.062C17.5133 103.82 17.822 103.699 18.1818 103.699C18.5417 103.699 18.8485 103.82 19.1023 104.062C19.3598 104.301 19.4886 104.587 19.4886 104.92C19.4886 105.258 19.3598 105.547 19.1023 105.79C18.8485 106.028 18.5417 106.148 18.1818 106.148ZM21.1198 116V114.557L25.3926 109.267V109.205H21.2676V107.273H28.3073V108.847L24.296 114.006V114.068H28.4551V116H21.1198ZM33.1118 116.142C32.4489 116.142 31.8486 115.972 31.3107 115.631C30.7766 115.286 30.3523 114.78 30.038 114.114C29.7273 113.443 29.572 112.621 29.572 111.648C29.572 110.648 29.733 109.816 30.055 109.153C30.377 108.487 30.805 107.989 31.3391 107.659C31.877 107.326 32.466 107.159 33.1061 107.159C33.5948 107.159 34.002 107.242 34.3277 107.409C34.6573 107.572 34.9224 107.777 35.1232 108.023C35.3277 108.265 35.483 108.504 35.5891 108.739H35.663V104.364H38.0777V116H35.6914V114.602H35.5891C35.4755 114.845 35.3145 115.085 35.1061 115.324C34.9016 115.559 34.6345 115.754 34.305 115.909C33.9792 116.064 33.5815 116.142 33.1118 116.142ZM33.8789 114.216C34.269 114.216 34.5986 114.11 34.8675 113.898C35.1402 113.682 35.3486 113.381 35.4925 112.994C35.6402 112.608 35.7141 112.155 35.7141 111.636C35.7141 111.117 35.6421 110.667 35.4982 110.284C35.3542 109.902 35.1459 109.606 34.8732 109.398C34.6005 109.189 34.269 109.085 33.8789 109.085C33.4811 109.085 33.1459 109.193 32.8732 109.409C32.6005 109.625 32.394 109.924 32.2539 110.307C32.1137 110.689 32.0436 111.133 32.0436 111.636C32.0436 112.144 32.1137 112.593 32.2539 112.983C32.3978 113.369 32.6042 113.672 32.8732 113.892C33.1459 114.108 33.4811 114.216 33.8789 114.216ZM43.8851 116.17C42.9873 116.17 42.2146 115.989 41.5669 115.625C40.9229 115.258 40.4267 114.739 40.0782 114.068C39.7298 113.394 39.5555 112.597 39.5555 111.676C39.5555 110.778 39.7298 109.991 40.0782 109.312C40.4267 108.634 40.9173 108.106 41.5498 107.727C42.1862 107.348 42.9324 107.159 43.7885 107.159C44.3642 107.159 44.9002 107.252 45.3964 107.438C45.8964 107.619 46.332 107.894 46.7032 108.261C47.0782 108.629 47.3699 109.091 47.5782 109.648C47.7866 110.201 47.8907 110.848 47.8907 111.591V112.256H40.5214V110.756H45.6123C45.6123 110.407 45.5366 110.098 45.3851 109.83C45.2335 109.561 45.0233 109.35 44.7544 109.199C44.4892 109.044 44.1805 108.966 43.8282 108.966C43.4608 108.966 43.1351 109.051 42.851 109.222C42.5707 109.388 42.351 109.614 42.1919 109.898C42.0328 110.178 41.9513 110.491 41.9476 110.835V112.261C41.9476 112.693 42.0271 113.066 42.1862 113.381C42.3491 113.695 42.5782 113.938 42.8737 114.108C43.1691 114.278 43.5195 114.364 43.9248 114.364C44.1938 114.364 44.44 114.326 44.6635 114.25C44.887 114.174 45.0782 114.061 45.2373 113.909C45.3964 113.758 45.5176 113.572 45.601 113.352L47.8396 113.5C47.726 114.038 47.493 114.508 47.1407 114.909C46.7923 115.307 46.3415 115.617 45.7885 115.841C45.2392 116.061 44.6048 116.17 43.8851 116.17ZM57.2123 107.273L54.1611 116H51.4339L48.3827 107.273H50.9395L52.752 113.517H52.843L54.6498 107.273H57.2123ZM63.8875 112.284V107.273H66.308V116H63.9841V114.415H63.8932C63.6962 114.926 63.3686 115.337 62.9102 115.648C62.4557 115.958 61.9008 116.114 61.2455 116.114C60.6621 116.114 60.1489 115.981 59.7057 115.716C59.2625 115.451 58.9159 115.074 58.6659 114.585C58.4197 114.097 58.2947 113.511 58.2909 112.83V107.273H60.7114V112.398C60.7152 112.913 60.8534 113.32 61.1261 113.619C61.3989 113.919 61.7644 114.068 62.2227 114.068C62.5144 114.068 62.7871 114.002 63.0409 113.869C63.2947 113.733 63.4992 113.532 63.6545 113.267C63.8136 113.002 63.8913 112.674 63.8875 112.284ZM68.084 116V107.273H70.3909V108.812H70.4931C70.6749 108.301 70.978 107.898 71.4022 107.602C71.8265 107.307 72.334 107.159 72.9249 107.159C73.5234 107.159 74.0329 107.309 74.4534 107.608C74.8738 107.903 75.1541 108.305 75.2943 108.812H75.3852C75.5632 108.312 75.8852 107.913 76.3511 107.614C76.8208 107.311 77.3757 107.159 78.0159 107.159C78.8302 107.159 79.4912 107.419 79.9988 107.938C80.5102 108.453 80.7659 109.184 80.7659 110.131V116H78.3511V110.608C78.3511 110.123 78.2223 109.759 77.9647 109.517C77.7071 109.275 77.3852 109.153 76.9988 109.153C76.5594 109.153 76.2166 109.294 75.9704 109.574C75.7242 109.85 75.6011 110.216 75.6011 110.67V116H73.2545V110.557C73.2545 110.129 73.1314 109.788 72.8852 109.534C72.6427 109.28 72.3227 109.153 71.9249 109.153C71.656 109.153 71.4136 109.222 71.1977 109.358C70.9856 109.491 70.817 109.678 70.692 109.92C70.567 110.159 70.5045 110.439 70.5045 110.761V116H68.084ZM88.1144 112.284V107.273H90.5348V116H88.211V114.415H88.1201C87.9231 114.926 87.5954 115.337 87.1371 115.648C86.6826 115.958 86.1276 116.114 85.4723 116.114C84.889 116.114 84.3757 115.981 83.9326 115.716C83.4894 115.451 83.1428 115.074 82.8928 114.585C82.6466 114.097 82.5216 113.511 82.5178 112.83V107.273H84.9382V112.398C84.942 112.913 85.0803 113.32 85.353 113.619C85.6257 113.919 85.9913 114.068 86.4496 114.068C86.7413 114.068 87.014 114.002 87.2678 113.869C87.5216 113.733 87.7261 113.532 87.8814 113.267C88.0405 113.002 88.1182 112.674 88.1144 112.284Z" fill="#1A1D27"/>
<path d="M21.2422 129.102C21.2005 128.732 21.0286 128.445 20.7266 128.242C20.4245 128.036 20.0443 127.934 19.5859 127.934C19.2578 127.934 18.974 127.986 18.7344 128.09C18.4948 128.191 18.3086 128.332 18.1758 128.512C18.0456 128.689 17.9805 128.891 17.9805 129.117C17.9805 129.307 18.0247 129.471 18.1133 129.609C18.2044 129.747 18.3229 129.863 18.4688 129.957C18.6172 130.048 18.776 130.125 18.9453 130.188C19.1146 130.247 19.2773 130.297 19.4336 130.336L20.2148 130.539C20.4701 130.602 20.7318 130.686 21 130.793C21.2682 130.9 21.5169 131.04 21.7461 131.215C21.9753 131.389 22.1602 131.605 22.3008 131.863C22.444 132.121 22.5156 132.43 22.5156 132.789C22.5156 133.242 22.3984 133.645 22.1641 133.996C21.9323 134.348 21.5951 134.625 21.1523 134.828C20.7122 135.031 20.1797 135.133 19.5547 135.133C18.9557 135.133 18.4375 135.038 18 134.848C17.5625 134.658 17.2201 134.388 16.9727 134.039C16.7253 133.687 16.5885 133.271 16.5625 132.789H17.7734C17.7969 133.078 17.8906 133.319 18.0547 133.512C18.2214 133.702 18.4336 133.844 18.6914 133.937C18.9518 134.029 19.237 134.074 19.5469 134.074C19.888 134.074 20.1914 134.021 20.457 133.914C20.7253 133.805 20.9362 133.654 21.0898 133.461C21.2435 133.266 21.3203 133.038 21.3203 132.777C21.3203 132.54 21.2526 132.346 21.1172 132.195C20.9844 132.044 20.8034 131.919 20.5742 131.82C20.3477 131.721 20.0911 131.634 19.8047 131.559L18.8594 131.301C18.2188 131.126 17.7109 130.87 17.3359 130.531C16.9635 130.193 16.7773 129.745 16.7773 129.187C16.7773 128.727 16.9023 128.324 17.1523 127.98C17.4023 127.637 17.7409 127.37 18.168 127.18C18.5951 126.987 19.0768 126.891 19.6133 126.891C20.1549 126.891 20.6328 126.986 21.0469 127.176C21.4635 127.366 21.7917 127.628 22.0313 127.961C22.2708 128.292 22.3958 128.672 22.4063 129.102H21.2422ZM25.5004 135.133C25.1201 135.133 24.7764 135.063 24.4691 134.922C24.1618 134.779 23.9183 134.572 23.7386 134.301C23.5615 134.03 23.473 133.698 23.473 133.305C23.473 132.966 23.5381 132.687 23.6683 132.469C23.7985 132.25 23.9743 132.077 24.1957 131.949C24.417 131.822 24.6644 131.725 24.9379 131.66C25.2113 131.595 25.4899 131.546 25.7738 131.512C26.1332 131.47 26.4248 131.436 26.6488 131.41C26.8727 131.382 27.0355 131.336 27.1371 131.273C27.2386 131.211 27.2894 131.109 27.2894 130.969V130.941C27.2894 130.6 27.1931 130.336 27.0004 130.148C26.8102 129.961 26.5264 129.867 26.1488 129.867C25.7556 129.867 25.4457 129.954 25.2191 130.129C24.9951 130.301 24.8402 130.492 24.7543 130.703L23.6566 130.453C23.7868 130.089 23.9769 129.794 24.2269 129.57C24.4795 129.344 24.7699 129.18 25.098 129.078C25.4261 128.974 25.7712 128.922 26.1332 128.922C26.3727 128.922 26.6267 128.951 26.8949 129.008C27.1657 129.062 27.4183 129.164 27.6527 129.312C27.8897 129.461 28.0837 129.673 28.2347 129.949C28.3858 130.223 28.4613 130.578 28.4613 131.016V135H27.3207V134.18H27.2738C27.1983 134.331 27.085 134.479 26.9339 134.625C26.7829 134.771 26.5889 134.892 26.3519 134.988C26.1149 135.085 25.8311 135.133 25.5004 135.133ZM25.7543 134.195C26.0772 134.195 26.3532 134.132 26.5824 134.004C26.8142 133.876 26.9899 133.71 27.1097 133.504C27.2321 133.296 27.2933 133.073 27.2933 132.836V132.062C27.2517 132.104 27.1709 132.143 27.0511 132.18C26.9339 132.214 26.7998 132.243 26.6488 132.27C26.4977 132.293 26.3506 132.315 26.2074 132.336C26.0642 132.354 25.9444 132.37 25.848 132.383C25.6214 132.411 25.4144 132.46 25.2269 132.527C25.042 132.595 24.8936 132.693 24.7816 132.82C24.6722 132.945 24.6175 133.112 24.6175 133.32C24.6175 133.609 24.7243 133.828 24.9379 133.977C25.1514 134.122 25.4235 134.195 25.7543 134.195ZM29.907 135V129H31.028V129.977H31.1023C31.2273 129.646 31.4317 129.388 31.7155 129.203C31.9994 129.016 32.3392 128.922 32.7351 128.922C33.1361 128.922 33.4721 129.016 33.7429 129.203C34.0163 129.391 34.2182 129.648 34.3484 129.977H34.4109C34.5541 129.656 34.782 129.401 35.0945 129.211C35.407 129.018 35.7793 128.922 36.2116 128.922C36.7559 128.922 37.1999 129.092 37.5437 129.434C37.89 129.775 38.0632 130.289 38.0632 130.977V135H36.8952V131.086C36.8952 130.68 36.7846 130.385 36.5632 130.203C36.3418 130.021 36.0775 129.93 35.7702 129.93C35.39 129.93 35.0945 130.047 34.8835 130.281C34.6726 130.513 34.5671 130.811 34.5671 131.176V135H33.403V131.012C33.403 130.686 33.3015 130.424 33.0984 130.227C32.8952 130.029 32.6309 129.93 32.3054 129.93C32.084 129.93 31.8796 129.988 31.6921 130.105C31.5072 130.22 31.3575 130.38 31.2429 130.586C31.1309 130.792 31.0749 131.03 31.0749 131.301V135H29.907ZM41.2647 135.133C40.8845 135.133 40.5408 135.063 40.2335 134.922C39.9262 134.779 39.6827 134.572 39.503 134.301C39.3259 134.03 39.2374 133.698 39.2374 133.305C39.2374 132.966 39.3025 132.687 39.4327 132.469C39.5629 132.25 39.7387 132.077 39.96 131.949C40.1814 131.822 40.4288 131.725 40.7022 131.66C40.9757 131.595 41.2543 131.546 41.5382 131.512C41.8975 131.47 42.1892 131.436 42.4132 131.41C42.6371 131.382 42.7999 131.336 42.9014 131.273C43.003 131.211 43.0538 131.109 43.0538 130.969V130.941C43.0538 130.6 42.9574 130.336 42.7647 130.148C42.5746 129.961 42.2908 129.867 41.9132 129.867C41.5199 129.867 41.21 129.954 40.9835 130.129C40.7595 130.301 40.6046 130.492 40.5186 130.703L39.421 130.453C39.5512 130.089 39.7413 129.794 39.9913 129.57C40.2439 129.344 40.5343 129.18 40.8624 129.078C41.1905 128.974 41.5356 128.922 41.8975 128.922C42.1371 128.922 42.391 128.951 42.6593 129.008C42.9301 129.062 43.1827 129.164 43.4171 129.312C43.654 129.461 43.8481 129.673 43.9991 129.949C44.1501 130.223 44.2257 130.578 44.2257 131.016V135H43.085V134.18H43.0382C42.9626 134.331 42.8494 134.479 42.6983 134.625C42.5473 134.771 42.3533 134.892 42.1163 134.988C41.8793 135.085 41.5955 135.133 41.2647 135.133ZM41.5186 134.195C41.8415 134.195 42.1176 134.132 42.3468 134.004C42.5785 133.876 42.7543 133.71 42.8741 133.504C42.9965 133.296 43.0577 133.073 43.0577 132.836V132.062C43.016 132.104 42.9353 132.143 42.8155 132.18C42.6983 132.214 42.5642 132.243 42.4132 132.27C42.2621 132.293 42.115 132.315 41.9718 132.336C41.8285 132.354 41.7087 132.37 41.6124 132.383C41.3858 132.411 41.1788 132.46 40.9913 132.527C40.8064 132.595 40.658 132.693 40.546 132.82C40.4366 132.945 40.3819 133.112 40.3819 133.32C40.3819 133.609 40.4887 133.828 40.7022 133.977C40.9158 134.122 41.1879 134.195 41.5186 134.195ZM45.5463 135V134.199L48.7963 130.07V130.016H45.6518V129H50.2534V129.852L47.1284 133.93V133.984H50.3627V135H45.5463ZM51.6307 135V129H52.7986V135H51.6307ZM52.2205 128.074C52.0174 128.074 51.8429 128.007 51.6971 127.871C51.5538 127.733 51.4822 127.569 51.4822 127.379C51.4822 127.186 51.5538 127.022 51.6971 126.887C51.8429 126.749 52.0174 126.68 52.2205 126.68C52.4236 126.68 52.5968 126.749 52.74 126.887C52.8859 127.022 52.9588 127.186 52.9588 127.379C52.9588 127.569 52.8859 127.733 52.74 127.871C52.5968 128.007 52.4236 128.074 52.2205 128.074ZM55.4279 131.437V135H54.2599V129H55.381V129.977H55.4552C55.5933 129.659 55.8094 129.404 56.1037 129.211C56.4005 129.018 56.7742 128.922 57.2248 128.922C57.6336 128.922 57.9917 129.008 58.299 129.18C58.6063 129.349 58.8446 129.602 59.0138 129.937C59.1831 130.273 59.2677 130.689 59.2677 131.184V135H58.0998V131.324C58.0998 130.889 57.9865 130.549 57.7599 130.305C57.5334 130.057 57.2222 129.934 56.8263 129.934C56.5555 129.934 56.3146 129.992 56.1037 130.109C55.8953 130.227 55.73 130.398 55.6076 130.625C55.4878 130.849 55.4279 131.12 55.4279 131.437ZM60.7241 135V129H61.8921V135H60.7241ZM61.314 128.074C61.1109 128.074 60.9364 128.007 60.7905 127.871C60.6473 127.733 60.5757 127.569 60.5757 127.379C60.5757 127.186 60.6473 127.022 60.7905 126.887C60.9364 126.749 61.1109 126.68 61.314 126.68C61.5171 126.68 61.6903 126.749 61.8335 126.887C61.9793 127.022 62.0523 127.186 62.0523 127.379C62.0523 127.569 61.9793 127.733 61.8335 127.871C61.6903 128.007 61.5171 128.074 61.314 128.074ZM67.3225 131.437V135H66.1545V129H67.2756V129.977H67.3498C67.4879 129.659 67.704 129.404 67.9983 129.211C68.2952 129.018 68.6689 128.922 69.1194 128.922C69.5282 128.922 69.8863 129.008 70.1936 129.18C70.5009 129.349 70.7392 129.602 70.9084 129.937C71.0777 130.273 71.1623 130.689 71.1623 131.184V135H69.9944V131.324C69.9944 130.889 69.8811 130.549 69.6545 130.305C69.428 130.057 69.1168 129.934 68.7209 129.934C68.4501 129.934 68.2092 129.992 67.9983 130.109C67.7899 130.227 67.6246 130.398 67.5022 130.625C67.3824 130.849 67.3225 131.12 67.3225 131.437ZM75.1461 135.121C74.5836 135.121 74.0927 134.992 73.6734 134.734C73.2542 134.477 72.9286 134.116 72.6969 133.652C72.4651 133.189 72.3492 132.647 72.3492 132.027C72.3492 131.405 72.4651 130.861 72.6969 130.395C72.9286 129.928 73.2542 129.566 73.6734 129.309C74.0927 129.051 74.5836 128.922 75.1461 128.922C75.7086 128.922 76.1995 129.051 76.6188 129.309C77.038 129.566 77.3635 129.928 77.5953 130.395C77.8271 130.861 77.943 131.405 77.943 132.027C77.943 132.647 77.8271 133.189 77.5953 133.652C77.3635 134.116 77.038 134.477 76.6188 134.734C76.1995 134.992 75.7086 135.121 75.1461 135.121ZM75.15 134.141C75.5146 134.141 75.8167 134.044 76.0563 133.852C76.2958 133.659 76.4729 133.402 76.5875 133.082C76.7047 132.762 76.7633 132.409 76.7633 132.023C76.7633 131.641 76.7047 131.289 76.5875 130.969C76.4729 130.646 76.2958 130.387 76.0563 130.191C75.8167 129.996 75.5146 129.898 75.15 129.898C74.7828 129.898 74.4781 129.996 74.2359 130.191C73.9964 130.387 73.818 130.646 73.7008 130.969C73.5862 131.289 73.5289 131.641 73.5289 132.023C73.5289 132.409 73.5862 132.762 73.7008 133.082C73.818 133.402 73.9964 133.659 74.2359 133.852C74.4781 134.044 74.7828 134.141 75.15 134.141ZM81.3828 135.117C80.8984 135.117 80.4661 134.993 80.0859 134.746C79.7083 134.496 79.4114 134.141 79.1953 133.68C78.9817 133.216 78.875 132.66 78.875 132.012C78.875 131.363 78.983 130.809 79.1992 130.348C79.4179 129.887 79.7174 129.534 80.0976 129.289C80.4778 129.044 80.9088 128.922 81.3906 128.922C81.763 128.922 82.0625 128.984 82.289 129.109C82.5182 129.232 82.6953 129.375 82.8203 129.539C82.9479 129.703 83.0468 129.848 83.1171 129.973H83.1875V127H84.3554V135H83.2148V134.066H83.1171C83.0468 134.194 82.9453 134.34 82.8125 134.504C82.6823 134.668 82.5026 134.811 82.2734 134.934C82.0442 135.056 81.7474 135.117 81.3828 135.117ZM81.6406 134.121C81.9765 134.121 82.2604 134.033 82.4921 133.855C82.7265 133.676 82.9036 133.427 83.0234 133.109C83.1458 132.792 83.207 132.422 83.207 132C83.207 131.583 83.1471 131.219 83.0273 130.906C82.9075 130.594 82.7317 130.35 82.5 130.176C82.2682 130.001 81.9817 129.914 81.6406 129.914C81.289 129.914 80.9961 130.005 80.7617 130.188C80.5273 130.37 80.3502 130.618 80.2304 130.934C80.1132 131.249 80.0546 131.604 80.0546 132C80.0546 132.401 80.1145 132.762 80.2343 133.082C80.3541 133.402 80.5312 133.656 80.7656 133.844C81.0026 134.029 81.2942 134.121 81.6406 134.121ZM88.4398 135.121C87.8773 135.121 87.3864 134.992 86.9671 134.734C86.5478 134.477 86.2223 134.116 85.9905 133.652C85.7588 133.189 85.6429 132.647 85.6429 132.027C85.6429 131.405 85.7588 130.861 85.9905 130.395C86.2223 129.928 86.5478 129.566 86.9671 129.309C87.3864 129.051 87.8773 128.922 88.4398 128.922C89.0023 128.922 89.4932 129.051 89.9124 129.309C90.3317 129.566 90.6572 129.928 90.889 130.395C91.1208 130.861 91.2366 131.405 91.2366 132.027C91.2366 132.647 91.1208 133.189 90.889 133.652C90.6572 134.116 90.3317 134.477 89.9124 134.734C89.4932 134.992 89.0023 135.121 88.4398 135.121ZM88.4437 134.141C88.8083 134.141 89.1103 134.044 89.3499 133.852C89.5895 133.659 89.7666 133.402 89.8812 133.082C89.9984 132.762 90.057 132.409 90.057 132.023C90.057 131.641 89.9984 131.289 89.8812 130.969C89.7666 130.646 89.5895 130.387 89.3499 130.191C89.1103 129.996 88.8083 129.898 88.4437 129.898C88.0765 129.898 87.7718 129.996 87.5296 130.191C87.29 130.387 87.1116 130.646 86.9945 130.969C86.8799 131.289 86.8226 131.641 86.8226 132.023C86.8226 132.409 86.8799 132.762 86.9945 133.082C87.1116 133.402 87.29 133.659 87.5296 133.852C87.7718 134.044 88.0765 134.141 88.4437 134.141ZM93.5046 132.965L93.4968 131.539H93.6999L96.0905 129H97.4889L94.7624 131.891H94.5788L93.5046 132.965ZM92.4304 135V127H93.5983V135H92.4304ZM96.2194 135L94.071 132.148L94.8757 131.332L97.653 135H96.2194ZM99.6114 127V135H98.4434V127H99.6114ZM98.002 137.625L98.4551 135.633H99.5996L98.8692 137.625H98.002ZM104.873 132.512V129H106.045V135H104.897V133.961H104.834C104.696 134.281 104.475 134.548 104.17 134.762C103.868 134.973 103.492 135.078 103.041 135.078C102.656 135.078 102.315 134.993 102.018 134.824C101.724 134.652 101.492 134.398 101.323 134.062C101.156 133.727 101.073 133.311 101.073 132.816V129H102.241V132.676C102.241 133.085 102.354 133.41 102.58 133.652C102.807 133.895 103.101 134.016 103.463 134.016C103.682 134.016 103.899 133.961 104.116 133.852C104.334 133.742 104.515 133.577 104.659 133.355C104.804 133.134 104.876 132.853 104.873 132.512ZM114.802 130.465L113.743 130.652C113.699 130.517 113.629 130.388 113.532 130.266C113.439 130.143 113.311 130.043 113.15 129.965C112.988 129.887 112.786 129.848 112.544 129.848C112.213 129.848 111.937 129.922 111.716 130.07C111.495 130.216 111.384 130.405 111.384 130.637C111.384 130.837 111.458 130.999 111.607 131.121C111.755 131.243 111.995 131.344 112.325 131.422L113.278 131.641C113.831 131.768 114.242 131.965 114.513 132.23C114.784 132.496 114.919 132.841 114.919 133.266C114.919 133.625 114.815 133.945 114.607 134.227C114.401 134.505 114.113 134.724 113.743 134.883C113.376 135.042 112.95 135.121 112.466 135.121C111.794 135.121 111.246 134.978 110.821 134.691C110.397 134.402 110.137 133.992 110.04 133.461L111.169 133.289C111.239 133.583 111.384 133.806 111.603 133.957C111.821 134.105 112.107 134.18 112.458 134.18C112.841 134.18 113.147 134.1 113.376 133.941C113.605 133.78 113.72 133.583 113.72 133.352C113.72 133.164 113.65 133.007 113.509 132.879C113.371 132.751 113.159 132.655 112.872 132.59L111.857 132.367C111.297 132.24 110.883 132.036 110.614 131.758C110.349 131.479 110.216 131.126 110.216 130.699C110.216 130.345 110.315 130.035 110.513 129.77C110.711 129.504 110.984 129.297 111.333 129.148C111.682 128.997 112.082 128.922 112.532 128.922C113.181 128.922 113.691 129.062 114.064 129.344C114.436 129.622 114.682 129.996 114.802 130.465ZM117.261 127V135H116.093V127H117.261ZM121.25 135.121C120.687 135.121 120.196 134.992 119.777 134.734C119.358 134.477 119.032 134.116 118.801 133.652C118.569 133.189 118.453 132.647 118.453 132.027C118.453 131.405 118.569 130.861 118.801 130.395C119.032 129.928 119.358 129.566 119.777 129.309C120.196 129.051 120.687 128.922 121.25 128.922C121.812 128.922 122.303 129.051 122.723 129.309C123.142 129.566 123.467 129.928 123.699 130.395C123.931 130.861 124.047 131.405 124.047 132.027C124.047 132.647 123.931 133.189 123.699 133.652C123.467 134.116 123.142 134.477 122.723 134.734C122.303 134.992 121.812 135.121 121.25 135.121ZM121.254 134.141C121.618 134.141 121.92 134.044 122.16 133.852C122.4 133.659 122.577 133.402 122.691 133.082C122.808 132.762 122.867 132.409 122.867 132.023C122.867 131.641 122.808 131.289 122.691 130.969C122.577 130.646 122.4 130.387 122.16 130.191C121.92 129.996 121.618 129.898 121.254 129.898C120.887 129.898 120.582 129.996 120.34 130.191C120.1 130.387 119.922 130.646 119.805 130.969C119.69 131.289 119.633 131.641 119.633 132.023C119.633 132.409 119.69 132.762 119.805 133.082C119.922 133.402 120.1 133.659 120.34 133.852C120.582 134.044 120.887 134.141 121.254 134.141ZM127.756 137.375C127.279 137.375 126.869 137.313 126.526 137.188C126.184 137.063 125.906 136.897 125.69 136.691C125.474 136.486 125.312 136.26 125.205 136.016L126.209 135.602C126.279 135.716 126.373 135.837 126.49 135.965C126.61 136.095 126.772 136.206 126.975 136.297C127.181 136.388 127.445 136.434 127.768 136.434C128.21 136.434 128.576 136.326 128.865 136.109C129.154 135.896 129.299 135.555 129.299 135.086V133.906H129.225C129.154 134.034 129.053 134.176 128.92 134.332C128.79 134.488 128.61 134.624 128.381 134.738C128.152 134.853 127.854 134.91 127.487 134.91C127.013 134.91 126.585 134.799 126.205 134.578C125.828 134.354 125.528 134.025 125.307 133.59C125.088 133.152 124.979 132.615 124.979 131.977C124.979 131.339 125.087 130.792 125.303 130.336C125.522 129.88 125.821 129.531 126.201 129.289C126.582 129.044 127.013 128.922 127.494 128.922C127.867 128.922 128.168 128.984 128.397 129.109C128.626 129.232 128.804 129.375 128.932 129.539C129.062 129.703 129.162 129.848 129.233 129.973H129.319V129H130.463V135.133C130.463 135.648 130.343 136.072 130.104 136.402C129.864 136.733 129.54 136.978 129.131 137.137C128.725 137.296 128.266 137.375 127.756 137.375ZM127.744 133.941C128.08 133.941 128.364 133.863 128.596 133.707C128.83 133.548 129.007 133.322 129.127 133.027C129.25 132.73 129.311 132.375 129.311 131.961C129.311 131.557 129.251 131.202 129.131 130.895C129.011 130.587 128.835 130.348 128.604 130.176C128.372 130.001 128.085 129.914 127.744 129.914C127.393 129.914 127.1 130.005 126.865 130.188C126.631 130.367 126.454 130.612 126.334 130.922C126.217 131.232 126.158 131.578 126.158 131.961C126.158 132.354 126.218 132.699 126.338 132.996C126.458 133.293 126.635 133.525 126.869 133.691C127.106 133.858 127.398 133.941 127.744 133.941ZM135.72 132.512V129H136.892V135H135.744V133.961H135.681C135.543 134.281 135.322 134.548 135.017 134.762C134.715 134.973 134.339 135.078 133.888 135.078C133.503 135.078 133.162 134.993 132.865 134.824C132.571 134.652 132.339 134.398 132.169 134.062C132.003 133.727 131.919 133.311 131.919 132.816V129H133.087V132.676C133.087 133.085 133.201 133.41 133.427 133.652C133.654 133.895 133.948 134.016 134.31 134.016C134.529 134.016 134.746 133.961 134.962 133.852C135.181 133.742 135.362 133.577 135.505 133.355C135.651 133.134 135.723 132.853 135.72 132.512ZM141.246 135V127H142.414V129.973H142.485C142.552 129.848 142.65 129.703 142.778 129.539C142.905 129.375 143.082 129.232 143.309 129.109C143.535 128.984 143.835 128.922 144.207 128.922C144.692 128.922 145.124 129.044 145.504 129.289C145.884 129.534 146.183 129.887 146.399 130.348C146.617 130.809 146.727 131.363 146.727 132.012C146.727 132.66 146.619 133.216 146.403 133.68C146.186 134.141 145.89 134.496 145.512 134.746C145.134 134.993 144.703 135.117 144.219 135.117C143.854 135.117 143.556 135.056 143.324 134.934C143.095 134.811 142.916 134.668 142.785 134.504C142.655 134.34 142.555 134.194 142.485 134.066H142.387V135H141.246ZM142.391 132C142.391 132.422 142.452 132.792 142.574 133.109C142.697 133.427 142.874 133.676 143.106 133.855C143.338 134.033 143.621 134.121 143.957 134.121C144.306 134.121 144.598 134.029 144.832 133.844C145.067 133.656 145.244 133.402 145.364 133.082C145.486 132.762 145.547 132.401 145.547 132C145.547 131.604 145.487 131.249 145.367 130.934C145.25 130.618 145.073 130.37 144.836 130.188C144.602 130.005 144.309 129.914 143.957 129.914C143.619 129.914 143.332 130.001 143.098 130.176C142.866 130.35 142.69 130.594 142.571 130.906C142.451 131.219 142.391 131.583 142.391 132ZM150.514 135.121C149.923 135.121 149.414 134.995 148.987 134.742C148.562 134.487 148.234 134.129 148.003 133.668C147.773 133.204 147.659 132.661 147.659 132.039C147.659 131.424 147.773 130.883 148.003 130.414C148.234 129.945 148.557 129.579 148.971 129.316C149.388 129.053 149.875 128.922 150.432 128.922C150.771 128.922 151.099 128.978 151.417 129.09C151.734 129.202 152.02 129.378 152.272 129.617C152.525 129.857 152.724 130.168 152.87 130.551C153.016 130.931 153.089 131.393 153.089 131.937V132.352H148.319V131.477H151.944C151.944 131.169 151.881 130.897 151.756 130.66C151.631 130.421 151.456 130.232 151.229 130.094C151.005 129.956 150.742 129.887 150.44 129.887C150.112 129.887 149.825 129.967 149.581 130.129C149.339 130.288 149.151 130.496 149.018 130.754C148.888 131.009 148.823 131.286 148.823 131.586V132.27C148.823 132.671 148.893 133.012 149.034 133.293C149.177 133.574 149.376 133.789 149.631 133.937C149.887 134.083 150.185 134.156 150.526 134.156C150.747 134.156 150.949 134.125 151.131 134.062C151.314 133.997 151.471 133.901 151.604 133.773C151.737 133.646 151.839 133.488 151.909 133.301L153.014 133.5C152.926 133.826 152.767 134.111 152.538 134.355C152.311 134.598 152.026 134.786 151.682 134.922C151.341 135.055 150.952 135.121 150.514 135.121ZM154.149 135V134.199L157.399 130.07V130.016H154.255V129H158.856V129.852L155.731 133.93V133.984H158.966V135H154.149ZM16.7852 150.25V142H17.9258V142.973H18.0234C18.0911 142.848 18.1888 142.703 18.3164 142.539C18.444 142.375 18.6211 142.232 18.8477 142.109C19.0742 141.984 19.3737 141.922 19.7461 141.922C20.2305 141.922 20.6628 142.044 21.043 142.289C21.4232 142.534 21.7214 142.887 21.9375 143.348C22.1563 143.809 22.2656 144.363 22.2656 145.012C22.2656 145.66 22.1576 146.216 21.9414 146.68C21.7253 147.141 21.4284 147.496 21.0508 147.746C20.6732 147.993 20.2422 148.117 19.7578 148.117C19.3932 148.117 19.0951 148.056 18.8633 147.934C18.6341 147.811 18.4544 147.668 18.3242 147.504C18.194 147.34 18.0938 147.194 18.0234 147.066H17.9531V150.25H16.7852ZM17.9297 145C17.9297 145.422 17.9909 145.792 18.1133 146.109C18.2357 146.427 18.4128 146.676 18.6445 146.855C18.8763 147.033 19.1602 147.121 19.4961 147.121C19.8451 147.121 20.1367 147.029 20.3711 146.844C20.6055 146.656 20.7826 146.402 20.9023 146.082C21.0247 145.762 21.0859 145.401 21.0859 145C21.0859 144.604 21.026 144.249 20.9063 143.934C20.7891 143.618 20.612 143.37 20.375 143.188C20.1406 143.005 19.8477 142.914 19.4961 142.914C19.1576 142.914 18.8711 143.001 18.6367 143.176C18.4049 143.35 18.2292 143.594 18.1094 143.906C17.9896 144.219 17.9297 144.583 17.9297 145ZM25.2103 148.133C24.8301 148.133 24.4864 148.063 24.1791 147.922C23.8718 147.779 23.6283 147.572 23.4486 147.301C23.2715 147.03 23.183 146.698 23.183 146.305C23.183 145.966 23.2481 145.687 23.3783 145.469C23.5085 145.25 23.6843 145.077 23.9056 144.949C24.127 144.822 24.3744 144.725 24.6478 144.66C24.9212 144.595 25.1999 144.546 25.4837 144.512C25.8431 144.47 26.1348 144.436 26.3588 144.41C26.5827 144.382 26.7455 144.336 26.847 144.273C26.9486 144.211 26.9994 144.109 26.9994 143.969V143.941C26.9994 143.6 26.903 143.336 26.7103 143.148C26.5202 142.961 26.2364 142.867 25.8587 142.867C25.4655 142.867 25.1556 142.954 24.9291 143.129C24.7051 143.301 24.5502 143.492 24.4642 143.703L23.3666 143.453C23.4968 143.089 23.6869 142.794 23.9369 142.57C24.1895 142.344 24.4798 142.18 24.808 142.078C25.1361 141.974 25.4811 141.922 25.8431 141.922C26.0827 141.922 26.3366 141.951 26.6048 142.008C26.8757 142.062 27.1283 142.164 27.3627 142.312C27.5996 142.461 27.7936 142.673 27.9447 142.949C28.0957 143.223 28.1712 143.578 28.1712 144.016V148H27.0306V147.18H26.9838C26.9082 147.331 26.7949 147.479 26.6439 147.625C26.4929 147.771 26.2989 147.892 26.0619 147.988C25.8249 148.085 25.541 148.133 25.2103 148.133ZM25.4642 147.195C25.7871 147.195 26.0632 147.132 26.2923 147.004C26.5241 146.876 26.6999 146.71 26.8197 146.504C26.9421 146.296 27.0033 146.073 27.0033 145.836V145.062C26.9616 145.104 26.8809 145.143 26.7611 145.18C26.6439 145.214 26.5098 145.243 26.3588 145.27C26.2077 145.293 26.0606 145.315 25.9173 145.336C25.7741 145.354 25.6543 145.37 25.558 145.383C25.3314 145.411 25.1244 145.46 24.9369 145.527C24.752 145.595 24.6035 145.693 24.4916 145.82C24.3822 145.945 24.3275 146.112 24.3275 146.32C24.3275 146.609 24.4343 146.828 24.6478 146.977C24.8614 147.122 25.1335 147.195 25.4642 147.195ZM29.6169 150.25V142H30.7575V142.973H30.8552C30.9229 142.848 31.0206 142.703 31.1482 142.539C31.2758 142.375 31.4529 142.232 31.6794 142.109C31.906 141.984 32.2055 141.922 32.5779 141.922C33.0622 141.922 33.4945 142.044 33.8747 142.289C34.2549 142.534 34.5531 142.887 34.7693 143.348C34.988 143.809 35.0974 144.363 35.0974 145.012C35.0974 145.66 34.9893 146.216 34.7732 146.68C34.557 147.141 34.2601 147.496 33.8825 147.746C33.5049 147.993 33.0739 148.117 32.5896 148.117C32.225 148.117 31.9268 148.056 31.695 147.934C31.4659 147.811 31.2862 147.668 31.156 147.504C31.0258 147.34 30.9255 147.194 30.8552 147.066H30.7849V150.25H29.6169ZM30.7614 145C30.7614 145.422 30.8226 145.792 30.945 146.109C31.0674 146.427 31.2445 146.676 31.4763 146.855C31.7081 147.033 31.9919 147.121 32.3279 147.121C32.6768 147.121 32.9685 147.029 33.2029 146.844C33.4372 146.656 33.6143 146.402 33.7341 146.082C33.8565 145.762 33.9177 145.401 33.9177 145C33.9177 144.604 33.8578 144.249 33.738 143.934C33.6208 143.618 33.4437 143.37 33.2068 143.188C32.9724 143.005 32.6794 142.914 32.3279 142.914C31.9893 142.914 31.7029 143.001 31.4685 143.176C31.2367 143.35 31.0609 143.594 30.9411 143.906C30.8213 144.219 30.7614 144.583 30.7614 145ZM36.296 148V142H37.4639V148H36.296ZM36.8858 141.074C36.6827 141.074 36.5082 141.007 36.3624 140.871C36.2192 140.733 36.1475 140.569 36.1475 140.379C36.1475 140.186 36.2192 140.022 36.3624 139.887C36.5082 139.749 36.6827 139.68 36.8858 139.68C37.0889 139.68 37.2621 139.749 37.4054 139.887C37.5512 140.022 37.6241 140.186 37.6241 140.379C37.6241 140.569 37.5512 140.733 37.4054 140.871C37.2621 141.007 37.0889 141.074 36.8858 141.074ZM40.0932 140V148H38.9252V140H40.0932ZM43.8006 148.117C43.3162 148.117 42.8839 147.993 42.5037 147.746C42.1261 147.496 41.8292 147.141 41.6131 146.68C41.3995 146.216 41.2928 145.66 41.2928 145.012C41.2928 144.363 41.4008 143.809 41.617 143.348C41.8357 142.887 42.1352 142.534 42.5154 142.289C42.8956 142.044 43.3266 141.922 43.8084 141.922C44.1808 141.922 44.4803 141.984 44.7068 142.109C44.936 142.232 45.1131 142.375 45.2381 142.539C45.3657 142.703 45.4646 142.848 45.535 142.973H45.6053V140H46.7732V148H45.6326V147.066H45.535C45.4646 147.194 45.3631 147.34 45.2303 147.504C45.1001 147.668 44.9204 147.811 44.6912 147.934C44.462 148.056 44.1652 148.117 43.8006 148.117ZM44.0584 147.121C44.3943 147.121 44.6782 147.033 44.91 146.855C45.1443 146.676 45.3214 146.427 45.4412 146.109C45.5636 145.792 45.6248 145.422 45.6248 145C45.6248 144.583 45.5649 144.219 45.4451 143.906C45.3253 143.594 45.1495 143.35 44.9178 143.176C44.686 143.001 44.3995 142.914 44.0584 142.914C43.7068 142.914 43.4139 143.005 43.1795 143.188C42.9451 143.37 42.768 143.618 42.6482 143.934C42.5311 144.249 42.4725 144.604 42.4725 145C42.4725 145.401 42.5324 145.762 42.6521 146.082C42.7719 146.402 42.949 146.656 43.1834 146.844C43.4204 147.029 43.712 147.121 44.0584 147.121ZM52.131 145.512V142H53.3029V148H52.1545V146.961H52.092C51.9539 147.281 51.7326 147.548 51.4279 147.762C51.1258 147.973 50.7495 148.078 50.299 148.078C49.9136 148.078 49.5724 147.993 49.2755 147.824C48.9813 147.652 48.7495 147.398 48.5802 147.062C48.4136 146.727 48.3302 146.311 48.3302 145.816V142H49.4982V145.676C49.4982 146.085 49.6115 146.41 49.838 146.652C50.0646 146.895 50.3589 147.016 50.7209 147.016C50.9396 147.016 51.1571 146.961 51.3732 146.852C51.592 146.742 51.7729 146.577 51.9162 146.355C52.062 146.134 52.1336 145.853 52.131 145.512ZM57.5634 150.25V142H58.704V142.973H58.8016C58.8693 142.848 58.967 142.703 59.0946 142.539C59.2222 142.375 59.3993 142.232 59.6259 142.109C59.8524 141.984 60.1519 141.922 60.5243 141.922C61.0087 141.922 61.441 142.044 61.8212 142.289C62.2014 142.534 62.4996 142.887 62.7157 143.348C62.9345 143.809 63.0438 144.363 63.0438 145.012C63.0438 145.66 62.9358 146.216 62.7196 146.68C62.5035 147.141 62.2066 147.496 61.829 147.746C61.4514 147.993 61.0204 148.117 60.536 148.117C60.1714 148.117 59.8733 148.056 59.6415 147.934C59.4123 147.811 59.2326 147.668 59.1024 147.504C58.9722 147.34 58.872 147.194 58.8016 147.066H58.7313V150.25H57.5634ZM58.7079 145C58.7079 145.422 58.7691 145.792 58.8915 146.109C59.0139 146.427 59.191 146.676 59.4227 146.855C59.6545 147.033 59.9384 147.121 60.2743 147.121C60.6233 147.121 60.9149 147.029 61.1493 146.844C61.3837 146.656 61.5608 146.402 61.6805 146.082C61.8029 145.762 61.8641 145.401 61.8641 145C61.8641 144.604 61.8042 144.249 61.6845 143.934C61.5673 143.618 61.3902 143.37 61.1532 143.188C60.9188 143.005 60.6259 142.914 60.2743 142.914C59.9358 142.914 59.6493 143.001 59.4149 143.176C59.1832 143.35 59.0074 143.594 58.8876 143.906C58.7678 144.219 58.7079 144.583 58.7079 145ZM68.0432 145.512V142H69.2151V148H68.0666V146.961H68.0041C67.8661 147.281 67.6448 147.548 67.3401 147.762C67.038 147.973 66.6617 148.078 66.2112 148.078C65.8258 148.078 65.4846 147.993 65.1877 147.824C64.8935 147.652 64.6617 147.398 64.4924 147.062C64.3258 146.727 64.2424 146.311 64.2424 145.816V142H65.4104V145.676C65.4104 146.085 65.5237 146.41 65.7502 146.652C65.9768 146.895 66.2711 147.016 66.633 147.016C66.8518 147.016 67.0692 146.961 67.2854 146.852C67.5041 146.742 67.6851 146.577 67.8284 146.355C67.9742 146.134 68.0458 145.853 68.0432 145.512ZM68.5901 140V140.82H64.883V140H68.5901ZM71.8424 140V148H70.6744V140H71.8424ZM75.8896 148.121C75.2985 148.121 74.7893 147.995 74.3623 147.742C73.9378 147.487 73.6097 147.129 73.3779 146.668C73.1487 146.204 73.0341 145.661 73.0341 145.039C73.0341 144.424 73.1487 143.883 73.3779 143.414C73.6097 142.945 73.9326 142.579 74.3466 142.316C74.7633 142.053 75.2503 141.922 75.8076 141.922C76.1461 141.922 76.4742 141.978 76.792 142.09C77.1097 142.202 77.3948 142.378 77.6474 142.617C77.9 142.857 78.0992 143.168 78.2451 143.551C78.3909 143.931 78.4638 144.393 78.4638 144.937V145.352H73.6943V144.477H77.3193C77.3193 144.169 77.2568 143.897 77.1318 143.66C77.0068 143.421 76.831 143.232 76.6045 143.094C76.3805 142.956 76.1175 142.887 75.8154 142.887C75.4873 142.887 75.2008 142.967 74.956 143.129C74.7138 143.288 74.5263 143.496 74.3935 143.754C74.2633 144.009 74.1982 144.286 74.1982 144.586V145.27C74.1982 145.671 74.2685 146.012 74.4091 146.293C74.5524 146.574 74.7516 146.789 75.0068 146.937C75.262 147.083 75.5602 147.156 75.9013 147.156C76.1227 147.156 76.3245 147.125 76.5068 147.062C76.6891 146.997 76.8466 146.901 76.9795 146.773C77.1123 146.646 77.2138 146.488 77.2841 146.301L78.3896 146.5C78.3011 146.826 78.1422 147.111 77.913 147.355C77.6865 147.598 77.4013 147.786 77.0576 147.922C76.7164 148.055 76.3271 148.121 75.8896 148.121ZM77.6162 140V140.82H73.9091V140H77.6162ZM79.6497 148V142H80.7708V142.977H80.845C80.97 142.646 81.1745 142.388 81.4583 142.203C81.7422 142.016 82.082 141.922 82.4779 141.922C82.8789 141.922 83.2148 142.016 83.4857 142.203C83.7591 142.391 83.9609 142.648 84.0911 142.977H84.1536C84.2969 142.656 84.5247 142.401 84.8372 142.211C85.1497 142.018 85.5221 141.922 85.9544 141.922C86.4987 141.922 86.9427 142.092 87.2864 142.434C87.6328 142.775 87.806 143.289 87.806 143.977V148H86.638V144.086C86.638 143.68 86.5273 143.385 86.306 143.203C86.0846 143.021 85.8203 142.93 85.513 142.93C85.1328 142.93 84.8372 143.047 84.6263 143.281C84.4154 143.513 84.3099 143.811 84.3099 144.176V148H83.1458V144.012C83.1458 143.686 83.0443 143.424 82.8411 143.227C82.638 143.029 82.3737 142.93 82.0482 142.93C81.8268 142.93 81.6224 142.988 81.4349 143.105C81.25 143.22 81.1002 143.38 80.9857 143.586C80.8737 143.792 80.8177 144.03 80.8177 144.301V148H79.6497Z" fill="#1A1D27"/>
</svg>
