<svg width="200" height="134" viewBox="0 0 200 134" fill="none" xmlns="http://www.w3.org/2000/svg">
<rect width="200" height="134" rx="16" fill="white" fill-opacity="0.7"/>
<rect x="16" y="16" width="32" height="32" rx="16" fill="#1A1D27"/>
<path d="M26.7961 32C27.1652 29.0403 29.69 26.75 32.7497 26.75C36.0634 26.75 38.7497 29.4363 38.7497 32.75C38.7497 36.0637 36.0634 38.75 32.7497 38.75H29M32.75 32.75V29.75M31.25 25.25H34.25M25.25 34.25H29M26.75 36.5H30.5" stroke="white" stroke-width="1.5" stroke-linecap="round" stroke-linejoin="round"/>
<path d="M19.9055 64.9091V78H17.1378V64.9091H19.9055ZM26.246 78.1918C25.2361 78.1918 24.3667 77.9872 23.638 77.5781C22.9136 77.1648 22.3554 76.581 21.9633 75.8267C21.5713 75.0682 21.3753 74.1712 21.3753 73.1357C21.3753 72.1257 21.5713 71.2393 21.9633 70.4766C22.3554 69.7138 22.9072 69.1193 23.6189 68.6932C24.3348 68.267 25.1743 68.054 26.1373 68.054C26.7851 68.054 27.388 68.1584 27.9463 68.3672C28.5088 68.5717 28.9988 68.8807 29.4165 69.294C29.8383 69.7074 30.1665 70.2273 30.4008 70.8537C30.6352 71.4759 30.7524 72.2045 30.7524 73.0398V73.7876H22.4619V72.1001H28.1892C28.1892 71.7081 28.104 71.3608 27.9335 71.0582C27.763 70.7557 27.5265 70.5192 27.224 70.3487C26.9257 70.174 26.5784 70.0866 26.1821 70.0866C25.7687 70.0866 25.4023 70.1825 25.0826 70.3743C24.7673 70.5618 24.5201 70.8153 24.3412 71.1349C24.1622 71.4503 24.0706 71.8018 24.0663 72.1896V73.794C24.0663 74.2798 24.1558 74.6996 24.3348 75.0533C24.518 75.407 24.7758 75.6797 25.1082 75.8714C25.4406 76.0632 25.8348 76.1591 26.2907 76.1591C26.5933 76.1591 26.8703 76.1165 27.1217 76.0312C27.3731 75.946 27.5883 75.8182 27.7673 75.6477C27.9463 75.4773 28.0826 75.2685 28.1764 75.0213L30.6949 75.1875C30.567 75.7926 30.305 76.321 29.9086 76.7727C29.5166 77.2202 29.0095 77.5696 28.3873 77.821C27.7694 78.0682 27.0557 78.1918 26.246 78.1918ZM37.3917 68.1818V70.2273H31.479V68.1818H37.3917ZM32.8214 65.8295H35.5444V74.983C35.5444 75.2344 35.5827 75.4304 35.6594 75.571C35.7361 75.7074 35.8427 75.8033 35.979 75.8587C36.1197 75.9141 36.2816 75.9418 36.4648 75.9418C36.5927 75.9418 36.7205 75.9311 36.8484 75.9098C36.9762 75.8842 37.0742 75.8651 37.1424 75.8523L37.5707 77.8786C37.4343 77.9212 37.2425 77.9702 36.9954 78.0256C36.7482 78.0852 36.4478 78.1214 36.0941 78.1342C35.4378 78.1598 34.8626 78.0724 34.3682 77.8722C33.8782 77.6719 33.4968 77.3608 33.2241 76.9389C32.9513 76.517 32.8171 75.9844 32.8214 75.3409V65.8295ZM41.6052 78.1854C40.9788 78.1854 40.4205 78.0767 39.9305 77.8594C39.4404 77.6378 39.0526 77.3118 38.7671 76.8814C38.4859 76.4467 38.3452 75.9055 38.3452 75.2578C38.3452 74.7124 38.4454 74.2543 38.6457 73.8835C38.846 73.5128 39.1187 73.2145 39.4639 72.9886C39.809 72.7628 40.2011 72.5923 40.64 72.4773C41.0832 72.3622 41.5477 72.2812 42.0335 72.2344C42.6045 72.1747 43.0647 72.1193 43.4141 72.0682C43.7636 72.0128 44.0171 71.9318 44.1748 71.8253C44.3325 71.7187 44.4113 71.5611 44.4113 71.3523V71.3139C44.4113 70.9091 44.2835 70.5959 44.0278 70.3743C43.7764 70.1527 43.4184 70.0419 42.9539 70.0419C42.4639 70.0419 42.0739 70.1506 41.7842 70.3679C41.4944 70.581 41.3026 70.8494 41.2089 71.1733L38.6904 70.9688C38.8183 70.3722 39.0697 69.8565 39.4447 69.4219C39.8197 68.983 40.3033 68.6463 40.8957 68.4119C41.4923 68.1733 42.1826 68.054 42.9667 68.054C43.5122 68.054 44.0342 68.1179 44.5327 68.2457C45.0356 68.3736 45.4809 68.5717 45.8687 68.8402C46.2607 69.1087 46.5697 69.4538 46.7955 69.8757C47.0214 70.2933 47.1343 70.794 47.1343 71.3778V78H44.5519V76.6385H44.4752C44.3175 76.9453 44.1066 77.2159 43.8424 77.4503C43.5782 77.6804 43.2607 77.8615 42.89 77.9936C42.5193 78.1214 42.091 78.1854 41.6052 78.1854ZM42.385 76.3061C42.7856 76.3061 43.1393 76.2273 43.4461 76.0696C43.7529 75.9077 43.9937 75.6903 44.1684 75.4176C44.3431 75.1449 44.4305 74.8359 44.4305 74.4908V73.4489C44.3452 73.5043 44.2281 73.5554 44.0789 73.6023C43.934 73.6449 43.77 73.6854 43.5867 73.7237C43.4035 73.7578 43.2202 73.7898 43.037 73.8196C42.8538 73.8452 42.6876 73.8686 42.5384 73.8899C42.2188 73.9368 41.9397 74.0114 41.7011 74.1136C41.4624 74.2159 41.2771 74.3544 41.145 74.5291C41.0129 74.6996 40.9468 74.9126 40.9468 75.1683C40.9468 75.5391 41.081 75.8224 41.3495 76.0185C41.6222 76.2102 41.9674 76.3061 42.385 76.3061ZM55.183 73.8196V68.1818H57.9061V78H55.2917V76.2166H55.1894C54.9678 76.7919 54.5992 77.2543 54.0836 77.6037C53.5723 77.9531 52.948 78.1278 52.2107 78.1278C51.5545 78.1278 50.9771 77.9787 50.4785 77.6804C49.9799 77.3821 49.59 76.9581 49.3088 76.4084C49.0318 75.8587 48.8911 75.2003 48.8869 74.4332V68.1818H51.6099V73.9474C51.6142 74.527 51.7697 74.9851 52.0765 75.3217C52.3833 75.6584 52.7946 75.8267 53.3102 75.8267C53.6383 75.8267 53.9451 75.7521 54.2306 75.603C54.5161 75.4496 54.7463 75.2237 54.921 74.9254C55.0999 74.6271 55.1873 74.2585 55.183 73.8196ZM59.7241 81.6818V68.1818H62.4088V69.831H62.5303C62.6496 69.5668 62.8222 69.2983 63.048 69.0256C63.2781 68.7486 63.5764 68.5185 63.9429 68.3352C64.3136 68.1477 64.7739 68.054 65.3236 68.054C66.0395 68.054 66.7 68.2415 67.3051 68.6165C67.9102 68.9872 68.3939 69.5476 68.7561 70.2976C69.1183 71.0433 69.2994 71.9787 69.2994 73.1037C69.2994 74.1989 69.1226 75.1236 68.7689 75.8778C68.4195 76.6278 67.9422 77.1967 67.3371 77.5845C66.7362 77.968 66.0629 78.1598 65.3172 78.1598C64.7888 78.1598 64.3392 78.0724 63.9685 77.8977C63.602 77.723 63.3016 77.5036 63.0672 77.2393C62.8328 76.9709 62.6538 76.7003 62.5303 76.4276H62.4472V81.6818H59.7241ZM62.3896 73.0909C62.3896 73.6747 62.4706 74.1839 62.6325 74.6186C62.7945 75.0533 63.0288 75.392 63.3357 75.6349C63.6425 75.8736 64.0153 75.9929 64.4543 75.9929C64.8974 75.9929 65.2724 75.8714 65.5793 75.6286C65.8861 75.3814 66.1183 75.0405 66.276 74.6058C66.4379 74.1669 66.5189 73.6619 66.5189 73.0909C66.5189 72.5241 66.4401 72.0256 66.2824 71.5952C66.1247 71.1648 65.8925 70.8281 65.5857 70.5852C65.2788 70.3423 64.9017 70.2209 64.4543 70.2209C64.0111 70.2209 63.6361 70.3381 63.3293 70.5724C63.0267 70.8068 62.7945 71.1392 62.6325 71.5696C62.4706 72 62.3896 72.5071 62.3896 73.0909ZM70.7548 78V68.1818H73.4778V78H70.7548ZM75.2356 64.9091V66.3857H69.0097V64.9091H75.2356ZM81.4354 68.1818V70.2273H75.5228V68.1818H81.4354ZM76.8651 65.8295H79.5881V74.983C79.5881 75.2344 79.6265 75.4304 79.7032 75.571C79.7799 75.7074 79.8864 75.8033 80.0228 75.8587C80.1634 75.9141 80.3253 75.9418 80.5086 75.9418C80.6364 75.9418 80.7643 75.9311 80.8921 75.9098C81.0199 75.8842 81.118 75.8651 81.1861 75.8523L81.6144 77.8786C81.478 77.9212 81.2863 77.9702 81.0391 78.0256C80.792 78.0852 80.4915 78.1214 80.1378 78.1342C79.4816 78.1598 78.9063 78.0724 78.412 77.8722C77.9219 77.6719 77.5405 77.3608 77.2678 76.9389C76.9951 76.517 76.8609 75.9844 76.8651 75.3409V65.8295ZM89.3783 64.9091V78H86.6552V64.9091H89.3783ZM93.9993 78.1854C93.3728 78.1854 92.8146 78.0767 92.3245 77.8594C91.8345 77.6378 91.4467 77.3118 91.1612 76.8814C90.8799 76.4467 90.7393 75.9055 90.7393 75.2578C90.7393 74.7124 90.8395 74.2543 91.0397 73.8835C91.24 73.5128 91.5128 73.2145 91.8579 72.9886C92.2031 72.7628 92.5951 72.5923 93.0341 72.4773C93.4772 72.3622 93.9417 72.2812 94.4275 72.2344C94.9985 72.1747 95.4588 72.1193 95.8082 72.0682C96.1576 72.0128 96.4112 71.9318 96.5689 71.8253C96.7265 71.7187 96.8054 71.5611 96.8054 71.3523V71.3139C96.8054 70.9091 96.6775 70.5959 96.4218 70.3743C96.1704 70.1527 95.8125 70.0419 95.348 70.0419C94.8579 70.0419 94.468 70.1506 94.1782 70.3679C93.8885 70.581 93.6967 70.8494 93.6029 71.1733L91.0845 70.9688C91.2123 70.3722 91.4637 69.8565 91.8387 69.4219C92.2137 68.983 92.6974 68.6463 93.2897 68.4119C93.8863 68.1733 94.5767 68.054 95.3608 68.054C95.9062 68.054 96.4282 68.1179 96.9268 68.2457C97.4297 68.3736 97.875 68.5717 98.2628 68.8402C98.6548 69.1087 98.9637 69.4538 99.1896 69.8757C99.4154 70.2933 99.5284 70.794 99.5284 71.3778V78H96.946V76.6385H96.8693C96.7116 76.9453 96.5007 77.2159 96.2365 77.4503C95.9723 77.6804 95.6548 77.8615 95.2841 77.9936C94.9133 78.1214 94.4851 78.1854 93.9993 78.1854ZM94.7791 76.3061C95.1797 76.3061 95.5333 76.2273 95.8402 76.0696C96.147 75.9077 96.3878 75.6903 96.5625 75.4176C96.7372 75.1449 96.8245 74.8359 96.8245 74.4908V73.4489C96.7393 73.5043 96.6221 73.5554 96.473 73.6023C96.3281 73.6449 96.164 73.6854 95.9808 73.7237C95.7976 73.7578 95.6143 73.7898 95.4311 73.8196C95.2478 73.8452 95.0816 73.8686 94.9325 73.8899C94.6129 73.9368 94.3338 74.0114 94.0951 74.1136C93.8565 74.2159 93.6711 74.3544 93.539 74.5291C93.4069 74.6996 93.3409 74.9126 93.3409 75.1683C93.3409 75.5391 93.4751 75.8224 93.7436 76.0185C94.0163 76.2102 94.3615 76.3061 94.7791 76.3061ZM101.281 78V68.1818H104.004V78H101.281ZM102.649 66.9162C102.244 66.9162 101.897 66.782 101.607 66.5135C101.321 66.2408 101.179 65.9148 101.179 65.5355C101.179 65.1605 101.321 64.8388 101.607 64.5703C101.897 64.2976 102.244 64.1612 102.649 64.1612C103.054 64.1612 103.399 64.2976 103.684 64.5703C103.974 64.8388 104.119 65.1605 104.119 65.5355C104.119 65.9148 103.974 66.2408 103.684 66.5135C103.399 66.782 103.054 66.9162 102.649 66.9162ZM108.293 75.1747L108.299 71.9084H108.695L111.84 68.1818H114.966L110.741 73.1165H110.095L108.293 75.1747ZM105.825 78V64.9091H108.548V78H105.825ZM111.962 78L109.072 73.7237L110.888 71.7997L115.151 78H111.962ZM122.238 73.8196V68.1818H124.961V78H122.347V76.2166H122.244C122.023 76.7919 121.654 77.2543 121.139 77.6037C120.627 77.9531 120.003 78.1278 119.266 78.1278C118.609 78.1278 118.032 77.9787 117.533 77.6804C117.035 77.3821 116.645 76.9581 116.364 76.4084C116.087 75.8587 115.946 75.2003 115.942 74.4332V68.1818H118.665V73.9474C118.669 74.527 118.825 74.9851 119.131 75.3217C119.438 75.6584 119.849 75.8267 120.365 75.8267C120.693 75.8267 121 75.7521 121.286 75.603C121.571 75.4496 121.801 75.2237 121.976 74.9254C122.155 74.6271 122.242 74.2585 122.238 73.8196Z" fill="#1A1D27"/>
<path d="M23.9773 89.2727V98H22.9545L18.1989 91.1477H18.1136V98H17.0568V89.2727H18.0795L22.8523 96.142H22.9375V89.2727H23.9773ZM27.8817 98.1534C27.467 98.1534 27.0906 98.0753 26.7525 97.919C26.4144 97.7599 26.146 97.5312 25.9471 97.233C25.7482 96.9318 25.6488 96.5682 25.6488 96.142C25.6488 95.767 25.7227 95.4631 25.8704 95.2301C26.0181 94.9943 26.2156 94.8097 26.4627 94.6761C26.7099 94.5426 26.9826 94.4432 27.2809 94.3778C27.582 94.3097 27.8846 94.2557 28.1886 94.2159C28.5863 94.1648 28.9087 94.1264 29.1559 94.1009C29.4059 94.0724 29.5877 94.0256 29.7013 93.9602C29.8178 93.8949 29.8761 93.7812 29.8761 93.6193V93.5852C29.8761 93.1648 29.761 92.8381 29.5309 92.6051C29.3036 92.3722 28.9585 92.2557 28.4954 92.2557C28.0153 92.2557 27.6388 92.3608 27.3661 92.571C27.0934 92.7812 26.9016 93.0057 26.7908 93.2443L25.8363 92.9034C26.0067 92.5057 26.234 92.196 26.5181 91.9744C26.805 91.75 27.1175 91.5937 27.4556 91.5057C27.7965 91.4148 28.1317 91.3693 28.4613 91.3693C28.6715 91.3693 28.913 91.3949 29.1857 91.446C29.4613 91.4943 29.7269 91.5952 29.9826 91.7486C30.2411 91.902 30.4556 92.1335 30.6261 92.4432C30.7965 92.7528 30.8817 93.1676 30.8817 93.6875V98H29.8761V97.1136H29.8249C29.7567 97.2557 29.6431 97.4077 29.484 97.5696C29.3249 97.7315 29.1133 97.8693 28.8491 97.983C28.5849 98.0966 28.2624 98.1534 27.8817 98.1534ZM28.0352 97.25C28.4329 97.25 28.7681 97.1719 29.0408 97.0156C29.3164 96.8594 29.5238 96.6577 29.663 96.4105C29.805 96.1634 29.8761 95.9034 29.8761 95.6307V94.7102C29.8335 94.7614 29.7397 94.8082 29.5948 94.8509C29.4528 94.8906 29.288 94.9261 29.1005 94.9574C28.9158 94.9858 28.7354 95.0114 28.5593 95.0341C28.386 95.054 28.2454 95.071 28.1374 95.0852C27.8761 95.1193 27.6317 95.1747 27.4045 95.2514C27.18 95.3253 26.9982 95.4375 26.859 95.5881C26.7227 95.7358 26.6545 95.9375 26.6545 96.1932C26.6545 96.5426 26.7837 96.8068 27.0423 96.9858C27.3036 97.1619 27.6346 97.25 28.0352 97.25ZM37.8352 91.4545L35.4148 98H34.392L31.9716 91.4545H33.0625L34.8693 96.6705H34.9375L36.7443 91.4545H37.8352ZM42.5376 91.4545H43.5433V98.4773C43.5433 98.8807 43.4737 99.2301 43.3345 99.5256C43.1982 99.821 42.9908 100.05 42.7124 100.212C42.4368 100.374 42.0888 100.455 41.6683 100.455C41.6342 100.455 41.6001 100.455 41.5661 100.455C41.532 100.455 41.4979 100.455 41.4638 100.455V99.517C41.4979 99.517 41.5291 99.517 41.5575 99.517C41.5859 99.517 41.6172 99.517 41.6513 99.517C41.9581 99.517 42.1825 99.4261 42.3246 99.2443C42.4666 99.0653 42.5376 98.8097 42.5376 98.4773V91.4545ZM43.032 90.3636C42.8359 90.3636 42.6669 90.2969 42.5249 90.1634C42.3857 90.0298 42.3161 89.8693 42.3161 89.6818C42.3161 89.4943 42.3857 89.3338 42.5249 89.2003C42.6669 89.0668 42.8359 89 43.032 89C43.228 89 43.3956 89.0668 43.5348 89.2003C43.6768 89.3338 43.7479 89.4943 43.7479 89.6818C43.7479 89.8693 43.6768 90.0298 43.5348 90.1634C43.3956 90.2969 43.228 90.3636 43.032 90.3636ZM47.3114 98.1534C46.8967 98.1534 46.5202 98.0753 46.1822 97.919C45.8441 97.7599 45.5756 97.5312 45.3768 97.233C45.1779 96.9318 45.0785 96.5682 45.0785 96.142C45.0785 95.767 45.1523 95.4631 45.3001 95.2301C45.4478 94.9943 45.6452 94.8097 45.8924 94.6761C46.1396 94.5426 46.4123 94.4432 46.7106 94.3778C47.0117 94.3097 47.3143 94.2557 47.6183 94.2159C48.016 94.1648 48.3384 94.1264 48.5856 94.1009C48.8356 94.0724 49.0174 94.0256 49.131 93.9602C49.2475 93.8949 49.3058 93.7812 49.3058 93.6193V93.5852C49.3058 93.1648 49.1907 92.8381 48.9606 92.6051C48.7333 92.3722 48.3881 92.2557 47.9251 92.2557C47.445 92.2557 47.0685 92.3608 46.7958 92.571C46.5231 92.7812 46.3313 93.0057 46.2205 93.2443L45.266 92.9034C45.4364 92.5057 45.6637 92.196 45.9478 91.9744C46.2347 91.75 46.5472 91.5937 46.8853 91.5057C47.2262 91.4148 47.5614 91.3693 47.891 91.3693C48.1012 91.3693 48.3427 91.3949 48.6154 91.446C48.891 91.4943 49.1566 91.5952 49.4123 91.7486C49.6708 91.902 49.8853 92.1335 50.0558 92.4432C50.2262 92.7528 50.3114 93.1676 50.3114 93.6875V98H49.3058V97.1136H49.2546C49.1864 97.2557 49.0728 97.4077 48.9137 97.5696C48.7546 97.7315 48.543 97.8693 48.2788 97.983C48.0146 98.0966 47.6921 98.1534 47.3114 98.1534ZM47.4648 97.25C47.8626 97.25 48.1978 97.1719 48.4705 97.0156C48.7461 96.8594 48.9535 96.6577 49.0927 96.4105C49.2347 96.1634 49.3058 95.9034 49.3058 95.6307V94.7102C49.2631 94.7614 49.1694 94.8082 49.0245 94.8509C48.8825 94.8906 48.7177 94.9261 48.5302 94.9574C48.3455 94.9858 48.1651 95.0114 47.989 95.0341C47.8157 95.054 47.6751 95.071 47.5671 95.0852C47.3058 95.1193 47.0614 95.1747 46.8342 95.2514C46.6097 95.3253 46.4279 95.4375 46.2887 95.5881C46.1523 95.7358 46.0842 95.9375 46.0842 96.1932C46.0842 96.5426 46.2134 96.8068 46.4719 96.9858C46.7333 97.1619 47.0643 97.25 47.4648 97.25ZM49.9535 89.2727V90.125H45.9648V89.2727H49.9535ZM52.147 100.455V91.4545H53.1186V92.4943H53.2379C53.3118 92.3807 53.4141 92.2358 53.5447 92.0597C53.6783 91.8807 53.8686 91.7216 54.1158 91.5824C54.3658 91.4403 54.7038 91.3693 55.13 91.3693C55.6811 91.3693 56.1669 91.5071 56.5874 91.7827C57.0078 92.0582 57.3359 92.4489 57.5717 92.9545C57.8075 93.4602 57.9254 94.0568 57.9254 94.7443C57.9254 95.4375 57.8075 96.0384 57.5717 96.5469C57.3359 97.0526 57.0092 97.4446 56.5916 97.723C56.174 97.9986 55.6925 98.1364 55.147 98.1364C54.7266 98.1364 54.3899 98.0668 54.1371 97.9276C53.8842 97.7855 53.6896 97.625 53.5533 97.446C53.4169 97.2642 53.3118 97.1136 53.2379 96.9943H53.1527V100.455H52.147ZM53.1357 94.7273C53.1357 95.2216 53.2081 95.6577 53.353 96.0355C53.4979 96.4105 53.7095 96.7045 53.9879 96.9176C54.2663 97.1278 54.6072 97.233 55.0107 97.233C55.4311 97.233 55.782 97.1222 56.0632 96.9006C56.3473 96.6761 56.5604 96.375 56.7024 95.9972C56.8473 95.6165 56.9197 95.1932 56.9197 94.7273C56.9197 94.267 56.8487 93.8523 56.7067 93.483C56.5675 93.1108 56.3558 92.8168 56.0717 92.6009C55.7905 92.3821 55.4368 92.2727 55.0107 92.2727C54.6016 92.2727 54.2578 92.3764 53.9794 92.5838C53.701 92.7884 53.4908 93.0753 53.3487 93.4446C53.2067 93.8111 53.1357 94.2386 53.1357 94.7273ZM61.3857 98.1534C60.9709 98.1534 60.5945 98.0753 60.2564 97.919C59.9183 97.7599 59.6499 97.5312 59.451 97.233C59.2521 96.9318 59.1527 96.5682 59.1527 96.142C59.1527 95.767 59.2266 95.4631 59.3743 95.2301C59.522 94.9943 59.7195 94.8097 59.9666 94.6761C60.2138 94.5426 60.4865 94.4432 60.7848 94.3778C61.0859 94.3097 61.3885 94.2557 61.6925 94.2159C62.0902 94.1648 62.4126 94.1264 62.6598 94.1009C62.9098 94.0724 63.0916 94.0256 63.2053 93.9602C63.3217 93.8949 63.38 93.7812 63.38 93.6193V93.5852C63.38 93.1648 63.2649 92.8381 63.0348 92.6051C62.8075 92.3722 62.4624 92.2557 61.9993 92.2557C61.5192 92.2557 61.1428 92.3608 60.87 92.571C60.5973 92.7812 60.4055 93.0057 60.2947 93.2443L59.3402 92.9034C59.5107 92.5057 59.7379 92.196 60.022 91.9744C60.3089 91.75 60.6214 91.5937 60.9595 91.5057C61.3004 91.4148 61.6357 91.3693 61.9652 91.3693C62.1754 91.3693 62.4169 91.3949 62.6896 91.446C62.9652 91.4943 63.2308 91.5952 63.4865 91.7486C63.745 91.902 63.9595 92.1335 64.13 92.4432C64.3004 92.7528 64.3857 93.1676 64.3857 93.6875V98H63.38V97.1136H63.3288C63.2607 97.2557 63.147 97.4077 62.9879 97.5696C62.8288 97.7315 62.6172 97.8693 62.353 97.983C62.0888 98.0966 61.7663 98.1534 61.3857 98.1534ZM61.5391 97.25C61.9368 97.25 62.272 97.1719 62.5447 97.0156C62.8203 96.8594 63.0277 96.6577 63.1669 96.4105C63.3089 96.1634 63.38 95.9034 63.38 95.6307V94.7102C63.3374 94.7614 63.2436 94.8082 63.0987 94.8509C62.9567 94.8906 62.7919 94.9261 62.6044 94.9574C62.4197 94.9858 62.2393 95.0114 62.0632 95.0341C61.8899 95.054 61.7493 95.071 61.6413 95.0852C61.38 95.1193 61.1357 95.1747 60.9084 95.2514C60.6839 95.3253 60.5021 95.4375 60.3629 95.5881C60.2266 95.7358 60.1584 95.9375 60.1584 96.1932C60.1584 96.5426 60.2876 96.8068 60.5462 96.9858C60.8075 97.1619 61.1385 97.25 61.5391 97.25ZM64.0277 89.2727V90.125H60.0391V89.2727H64.0277ZM66.2212 98V91.4545H67.1928V92.4432H67.261C67.3803 92.1193 67.5962 91.8565 67.9087 91.6548C68.2212 91.4531 68.5735 91.3523 68.9656 91.3523C69.0394 91.3523 69.1317 91.3537 69.2425 91.3565C69.3533 91.3594 69.4371 91.3636 69.494 91.3693V92.392C69.4599 92.3835 69.3817 92.3707 69.2596 92.3537C69.1403 92.3338 69.0138 92.3239 68.8803 92.3239C68.5621 92.3239 68.2781 92.3906 68.0281 92.5241C67.7809 92.6548 67.5849 92.8366 67.44 93.0696C67.2979 93.2997 67.2269 93.5625 67.2269 93.858V98H66.2212ZM70.6861 98V91.4545H71.6577V92.4432H71.7259C71.8452 92.1193 72.0611 91.8565 72.3736 91.6548C72.6861 91.4531 73.0384 91.3523 73.4304 91.3523C73.5043 91.3523 73.5966 91.3537 73.7074 91.3565C73.8182 91.3594 73.902 91.3636 73.9588 91.3693V92.392C73.9247 92.3835 73.8466 92.3707 73.7244 92.3537C73.6051 92.3338 73.4787 92.3239 73.3452 92.3239C73.027 92.3239 72.7429 92.3906 72.4929 92.5241C72.2457 92.6548 72.0497 92.8366 71.9048 93.0696C71.7628 93.2997 71.6918 93.5625 71.6918 93.858V98H70.6861ZM77.0771 98.1534C76.6623 98.1534 76.2859 98.0753 75.9478 97.919C75.6097 97.7599 75.3413 97.5312 75.1424 97.233C74.9435 96.9318 74.8441 96.5682 74.8441 96.142C74.8441 95.767 74.918 95.4631 75.0657 95.2301C75.2134 94.9943 75.4109 94.8097 75.658 94.6761C75.9052 94.5426 76.1779 94.4432 76.4762 94.3778C76.7773 94.3097 77.0799 94.2557 77.3839 94.2159C77.7816 94.1648 78.104 94.1264 78.3512 94.1009C78.6012 94.0724 78.783 94.0256 78.8967 93.9602C79.0131 93.8949 79.0714 93.7812 79.0714 93.6193V93.5852C79.0714 93.1648 78.9563 92.8381 78.7262 92.6051C78.4989 92.3722 78.1538 92.2557 77.6907 92.2557C77.2106 92.2557 76.8342 92.3608 76.5614 92.571C76.2887 92.7812 76.0969 93.0057 75.9862 93.2443L75.0316 92.9034C75.2021 92.5057 75.4293 92.196 75.7134 91.9744C76.0004 91.75 76.3129 91.5937 76.6509 91.5057C76.9918 91.4148 77.3271 91.3693 77.6566 91.3693C77.8668 91.3693 78.1083 91.3949 78.381 91.446C78.6566 91.4943 78.9222 91.5952 79.1779 91.7486C79.4364 91.902 79.6509 92.1335 79.8214 92.4432C79.9918 92.7528 80.0771 93.1676 80.0771 93.6875V98H79.0714V97.1136H79.0202C78.9521 97.2557 78.8384 97.4077 78.6793 97.5696C78.5202 97.7315 78.3086 97.8693 78.0444 97.983C77.7802 98.0966 77.4577 98.1534 77.0771 98.1534ZM77.2305 97.25C77.6282 97.25 77.9634 97.1719 78.2362 97.0156C78.5117 96.8594 78.7191 96.6577 78.8583 96.4105C79.0004 96.1634 79.0714 95.9034 79.0714 95.6307V94.7102C79.0288 94.7614 78.935 94.8082 78.7901 94.8509C78.6481 94.8906 78.4833 94.9261 78.2958 94.9574C78.1112 94.9858 77.9308 95.0114 77.7546 95.0341C77.5813 95.054 77.4407 95.071 77.3327 95.0852C77.0714 95.1193 76.8271 95.1747 76.5998 95.2514C76.3754 95.3253 76.1935 95.4375 76.0543 95.5881C75.918 95.7358 75.8498 95.9375 75.8498 96.1932C75.8498 96.5426 75.979 96.8068 76.2376 96.9858C76.4989 97.1619 76.8299 97.25 77.2305 97.25ZM82.8501 95.6136L82.8331 94.3693H83.0376L85.9013 91.4545H87.1456L84.0945 94.5398H84.0092L82.8501 95.6136ZM81.9126 98V89.2727H82.9183V98H81.9126ZM86.0717 98L83.5149 94.7614L84.2308 94.0625L87.3501 98H86.0717ZM93.0763 92.9205L92.1729 93.1761C92.1161 93.0256 92.0323 92.8793 91.9215 92.7372C91.8136 92.5923 91.6658 92.473 91.4783 92.3793C91.2908 92.2855 91.0508 92.2386 90.7582 92.2386C90.3576 92.2386 90.0238 92.331 89.7567 92.5156C89.4925 92.6974 89.3604 92.929 89.3604 93.2102C89.3604 93.4602 89.4513 93.6577 89.6332 93.8026C89.815 93.9474 90.0991 94.0682 90.4854 94.1648L91.457 94.4034C92.0423 94.5455 92.4783 94.7628 92.7653 95.0554C93.0522 95.3452 93.1957 95.7187 93.1957 96.1761C93.1957 96.5511 93.0877 96.8864 92.8718 97.1818C92.6587 97.4773 92.3604 97.7102 91.9769 97.8807C91.5934 98.0511 91.1474 98.1364 90.6388 98.1364C89.9712 98.1364 89.4187 97.9915 88.9812 97.7017C88.5437 97.4119 88.2667 96.9886 88.1502 96.4318L89.1048 96.1932C89.1957 96.5455 89.3675 96.8097 89.6204 96.9858C89.8761 97.1619 90.2099 97.25 90.6218 97.25C91.0906 97.25 91.4627 97.1506 91.7383 96.9517C92.0167 96.75 92.1559 96.5085 92.1559 96.2273C92.1559 96 92.0763 95.8097 91.9173 95.6562C91.7582 95.5 91.5138 95.3835 91.1843 95.3068L90.0934 95.0511C89.494 94.9091 89.0536 94.6889 88.7724 94.3906C88.494 94.0895 88.3548 93.7131 88.3548 93.2614C88.3548 92.892 88.4585 92.5653 88.6658 92.2812C88.8761 91.9972 89.1616 91.7741 89.5224 91.6122C89.886 91.4503 90.2979 91.3693 90.7582 91.3693C91.4059 91.3693 91.9144 91.5114 92.2837 91.7955C92.6559 92.0795 92.9201 92.4545 93.0763 92.9205ZM97.5561 91.4545V92.3068H94.1641V91.4545H97.5561ZM95.1527 89.8864H96.1584V96.125C96.1584 96.4091 96.1996 96.6222 96.282 96.7642C96.3672 96.9034 96.4751 96.9972 96.6058 97.0455C96.7393 97.0909 96.88 97.1136 97.0277 97.1136C97.1385 97.1136 97.2294 97.108 97.3004 97.0966C97.3714 97.0824 97.4283 97.071 97.4709 97.0625L97.6754 97.9659C97.6072 97.9915 97.5121 98.017 97.3899 98.0426C97.2678 98.071 97.1129 98.0852 96.9254 98.0852C96.6413 98.0852 96.3629 98.0241 96.0902 97.902C95.8203 97.7798 95.5959 97.5938 95.4169 97.3438C95.2408 97.0938 95.1527 96.7784 95.1527 96.3977V89.8864ZM100.995 98.1534C100.58 98.1534 100.204 98.0753 99.8658 97.919C99.5277 97.7599 99.2592 97.5312 99.0604 97.233C98.8615 96.9318 98.7621 96.5682 98.7621 96.142C98.7621 95.767 98.8359 95.4631 98.9837 95.2301C99.1314 94.9943 99.3288 94.8097 99.576 94.6761C99.8232 94.5426 100.096 94.4432 100.394 94.3778C100.695 94.3097 100.998 94.2557 101.302 94.2159C101.7 94.1648 102.022 94.1264 102.269 94.1009C102.519 94.0724 102.701 94.0256 102.815 93.9602C102.931 93.8949 102.989 93.7812 102.989 93.6193V93.5852C102.989 93.1648 102.874 92.8381 102.644 92.6051C102.417 92.3722 102.072 92.2557 101.609 92.2557C101.129 92.2557 100.752 92.3608 100.479 92.571C100.207 92.7812 100.015 93.0057 99.9041 93.2443L98.9496 92.9034C99.12 92.5057 99.3473 92.196 99.6314 91.9744C99.9183 91.75 100.231 91.5937 100.569 91.5057C100.91 91.4148 101.245 91.3693 101.575 91.3693C101.785 91.3693 102.026 91.3949 102.299 91.446C102.575 91.4943 102.84 91.5952 103.096 91.7486C103.354 91.902 103.569 92.1335 103.739 92.4432C103.91 92.7528 103.995 93.1676 103.995 93.6875V98H102.989V97.1136H102.938C102.87 97.2557 102.756 97.4077 102.597 97.5696C102.438 97.7315 102.227 97.8693 101.962 97.983C101.698 98.0966 101.376 98.1534 100.995 98.1534ZM101.148 97.25C101.546 97.25 101.881 97.1719 102.154 97.0156C102.43 96.8594 102.637 96.6577 102.776 96.4105C102.918 96.1634 102.989 95.9034 102.989 95.6307V94.7102C102.947 94.7614 102.853 94.8082 102.708 94.8509C102.566 94.8906 102.401 94.9261 102.214 94.9574C102.029 94.9858 101.849 95.0114 101.673 95.0341C101.499 95.054 101.359 95.071 101.251 95.0852C100.989 95.1193 100.745 95.1747 100.518 95.2514C100.293 95.3253 100.112 95.4375 99.9723 95.5881C99.8359 95.7358 99.7678 95.9375 99.7678 96.1932C99.7678 96.5426 99.897 96.8068 100.156 96.9858C100.417 97.1619 100.748 97.25 101.148 97.25ZM111.865 98.1364C111.251 98.1364 110.723 97.9915 110.279 97.7017C109.836 97.4119 109.495 97.0128 109.257 96.5043C109.018 95.9957 108.899 95.4148 108.899 94.7614C108.899 94.0966 109.021 93.5099 109.265 93.0014C109.512 92.4901 109.856 92.0909 110.297 91.804C110.74 91.5142 111.257 91.3693 111.848 91.3693C112.308 91.3693 112.723 91.4545 113.092 91.625C113.461 91.7955 113.764 92.0341 114 92.3409C114.235 92.6477 114.382 93.0057 114.439 93.4148H113.433C113.356 93.1165 113.186 92.8523 112.922 92.6222C112.66 92.3892 112.308 92.2727 111.865 92.2727C111.473 92.2727 111.129 92.375 110.833 92.5795C110.541 92.7812 110.312 93.0668 110.147 93.4361C109.985 93.8026 109.904 94.233 109.904 94.7273C109.904 95.233 109.984 95.6733 110.143 96.0483C110.305 96.4233 110.532 96.7145 110.825 96.9219C111.12 97.1293 111.467 97.233 111.865 97.233C112.126 97.233 112.363 97.1875 112.576 97.0966C112.789 97.0057 112.97 96.875 113.118 96.7045C113.265 96.5341 113.37 96.3295 113.433 96.0909H114.439C114.382 96.4773 114.241 96.8253 114.017 97.1349C113.795 97.4418 113.501 97.6861 113.135 97.8679C112.771 98.0469 112.348 98.1364 111.865 98.1364ZM110.944 88.8295L111.831 90.0227L112.717 88.8295H113.672V88.8977L112.291 90.6705H111.37L109.99 88.8977V88.8295H110.944ZM118.653 98.1364C118.022 98.1364 117.478 97.9972 117.021 97.7188C116.566 97.4375 116.216 97.0455 115.968 96.5426C115.724 96.0369 115.602 95.4489 115.602 94.7784C115.602 94.108 115.724 93.517 115.968 93.0057C116.216 92.4915 116.559 92.0909 117 91.804C117.443 91.5142 117.96 91.3693 118.551 91.3693C118.892 91.3693 119.228 91.4261 119.561 91.5398C119.893 91.6534 120.196 91.8381 120.468 92.0938C120.741 92.3466 120.958 92.6818 121.12 93.0994C121.282 93.517 121.363 94.0312 121.363 94.642V95.0682H116.318V94.1989H120.341C120.341 93.8295 120.267 93.5 120.119 93.2102C119.974 92.9205 119.767 92.6918 119.497 92.5241C119.23 92.3565 118.914 92.2727 118.551 92.2727C118.15 92.2727 117.804 92.3722 117.511 92.571C117.221 92.767 116.998 93.0227 116.842 93.3381C116.686 93.6534 116.608 93.9915 116.608 94.3523V94.9318C116.608 95.4261 116.693 95.8452 116.863 96.1889C117.037 96.5298 117.277 96.7898 117.583 96.9688C117.89 97.1449 118.247 97.233 118.653 97.233C118.917 97.233 119.156 97.196 119.369 97.1222C119.585 97.0455 119.771 96.9318 119.927 96.7812C120.083 96.6278 120.204 96.4375 120.289 96.2102L121.261 96.483C121.159 96.8125 120.987 97.1023 120.745 97.3523C120.504 97.5994 120.206 97.7926 119.85 97.9318C119.495 98.0682 119.096 98.1364 118.653 98.1364ZM123.831 95.6136L123.814 94.3693H124.018L126.882 91.4545H128.126L125.075 94.5398H124.99L123.831 95.6136ZM122.893 98V89.2727H123.899V98H122.893ZM127.052 98L124.495 94.7614L125.211 94.0625L128.331 98H127.052ZM129.42 98V91.4545H130.426V98H129.42ZM129.932 90.3636C129.736 90.3636 129.567 90.2969 129.425 90.1634C129.286 90.0298 129.216 89.8693 129.216 89.6818C129.216 89.4943 129.286 89.3338 129.425 89.2003C129.567 89.0668 129.736 89 129.932 89C130.128 89 130.295 89.0668 130.435 89.2003C130.577 89.3338 130.648 89.4943 130.648 89.6818C130.648 89.8693 130.577 90.0298 130.435 90.1634C130.295 90.2969 130.128 90.3636 129.932 90.3636ZM140.995 91.4545L138.575 98H137.552L135.132 91.4545H136.223L138.029 96.6705H138.098L139.904 91.4545H140.995ZM144.05 98.1534C143.635 98.1534 143.259 98.0753 142.92 97.919C142.582 97.7599 142.314 97.5312 142.115 97.233C141.916 96.9318 141.817 96.5682 141.817 96.142C141.817 95.767 141.891 95.4631 142.038 95.2301C142.186 94.9943 142.384 94.8097 142.631 94.6761C142.878 94.5426 143.151 94.4432 143.449 94.3778C143.75 94.3097 144.053 94.2557 144.357 94.2159C144.754 94.1648 145.077 94.1264 145.324 94.1009C145.574 94.0724 145.756 94.0256 145.869 93.9602C145.986 93.8949 146.044 93.7812 146.044 93.6193V93.5852C146.044 93.1648 145.929 92.8381 145.699 92.6051C145.472 92.3722 145.126 92.2557 144.663 92.2557C144.183 92.2557 143.807 92.3608 143.534 92.571C143.261 92.7812 143.07 93.0057 142.959 93.2443L142.004 92.9034C142.175 92.5057 142.402 92.196 142.686 91.9744C142.973 91.75 143.286 91.5937 143.624 91.5057C143.964 91.4148 144.3 91.3693 144.629 91.3693C144.839 91.3693 145.081 91.3949 145.354 91.446C145.629 91.4943 145.895 91.5952 146.151 91.7486C146.409 91.902 146.624 92.1335 146.794 92.4432C146.964 92.7528 147.05 93.1676 147.05 93.6875V98H146.044V97.1136H145.993C145.925 97.2557 145.811 97.4077 145.652 97.5696C145.493 97.7315 145.281 97.8693 145.017 97.983C144.753 98.0966 144.43 98.1534 144.05 98.1534ZM144.203 97.25C144.601 97.25 144.936 97.1719 145.209 97.0156C145.484 96.8594 145.692 96.6577 145.831 96.4105C145.973 96.1634 146.044 95.9034 146.044 95.6307V94.7102C146.001 94.7614 145.908 94.8082 145.763 94.8509C145.621 94.8906 145.456 94.9261 145.268 94.9574C145.084 94.9858 144.903 95.0114 144.727 95.0341C144.554 95.054 144.413 95.071 144.305 95.0852C144.044 95.1193 143.8 95.1747 143.572 95.2514C143.348 95.3253 143.166 95.4375 143.027 95.5881C142.891 95.7358 142.822 95.9375 142.822 96.1932C142.822 96.5426 142.952 96.8068 143.21 96.9858C143.472 97.1619 143.803 97.25 144.203 97.25ZM148.885 98V91.4545H149.891V98H148.885ZM149.397 90.3636C149.201 90.3636 149.032 90.2969 148.89 90.1634C148.75 90.0298 148.681 89.8693 148.681 89.6818C148.681 89.4943 148.75 89.3338 148.89 89.2003C149.032 89.0668 149.201 89 149.397 89C149.593 89 149.76 89.0668 149.9 89.2003C150.042 89.3338 150.113 89.4943 150.113 89.6818C150.113 89.8693 150.042 90.0298 149.9 90.1634C149.76 90.2969 149.593 90.3636 149.397 90.3636ZM16.9205 107.455H17.9261V114.477C17.9261 114.881 17.8565 115.23 17.7173 115.526C17.581 115.821 17.3736 116.05 17.0952 116.212C16.8196 116.374 16.4716 116.455 16.0511 116.455C16.017 116.455 15.983 116.455 15.9489 116.455C15.9148 116.455 15.8807 116.455 15.8466 116.455V115.517C15.8807 115.517 15.9119 115.517 15.9403 115.517C15.9688 115.517 16 115.517 16.0341 115.517C16.3409 115.517 16.5653 115.426 16.7074 115.244C16.8494 115.065 16.9205 114.81 16.9205 114.477V107.455ZM17.4148 106.364C17.2188 106.364 17.0497 106.297 16.9077 106.163C16.7685 106.03 16.6989 105.869 16.6989 105.682C16.6989 105.494 16.7685 105.334 16.9077 105.2C17.0497 105.067 17.2188 105 17.4148 105C17.6108 105 17.7784 105.067 17.9176 105.2C18.0597 105.334 18.1307 105.494 18.1307 105.682C18.1307 105.869 18.0597 106.03 17.9176 106.163C17.7784 106.297 17.6108 106.364 17.4148 106.364ZM21.6942 114.153C21.2795 114.153 20.9031 114.075 20.565 113.919C20.2269 113.76 19.9585 113.531 19.7596 113.233C19.5607 112.932 19.4613 112.568 19.4613 112.142C19.4613 111.767 19.5352 111.463 19.6829 111.23C19.8306 110.994 20.0281 110.81 20.2752 110.676C20.5224 110.543 20.7951 110.443 21.0934 110.378C21.3945 110.31 21.6971 110.256 22.0011 110.216C22.3988 110.165 22.7212 110.126 22.9684 110.101C23.2184 110.072 23.4002 110.026 23.5138 109.96C23.6303 109.895 23.6886 109.781 23.6886 109.619V109.585C23.6886 109.165 23.5735 108.838 23.3434 108.605C23.1161 108.372 22.771 108.256 22.3079 108.256C21.8278 108.256 21.4513 108.361 21.1786 108.571C20.9059 108.781 20.7141 109.006 20.6033 109.244L19.6488 108.903C19.8192 108.506 20.0465 108.196 20.3306 107.974C20.6175 107.75 20.93 107.594 21.2681 107.506C21.609 107.415 21.9442 107.369 22.2738 107.369C22.484 107.369 22.7255 107.395 22.9982 107.446C23.2738 107.494 23.5394 107.595 23.7951 107.749C24.0536 107.902 24.2681 108.134 24.4386 108.443C24.609 108.753 24.6942 109.168 24.6942 109.688V114H23.6886V113.114H23.6374C23.5692 113.256 23.4556 113.408 23.2965 113.57C23.1374 113.732 22.9258 113.869 22.6616 113.983C22.3974 114.097 22.0749 114.153 21.6942 114.153ZM21.8477 113.25C22.2454 113.25 22.5806 113.172 22.8533 113.016C23.1289 112.859 23.3363 112.658 23.4755 112.411C23.6175 112.163 23.6886 111.903 23.6886 111.631V110.71C23.646 110.761 23.5522 110.808 23.4073 110.851C23.2653 110.891 23.1005 110.926 22.913 110.957C22.7283 110.986 22.5479 111.011 22.3718 111.034C22.1985 111.054 22.0579 111.071 21.9499 111.085C21.6886 111.119 21.4442 111.175 21.217 111.251C20.9925 111.325 20.8107 111.437 20.6715 111.588C20.5352 111.736 20.467 111.937 20.467 112.193C20.467 112.543 20.5962 112.807 20.8548 112.986C21.1161 113.162 21.4471 113.25 21.8477 113.25ZM24.3363 105.273V106.125H20.3477V105.273H24.3363ZM26.5298 114V107.455H27.5014V108.477H27.5866C27.723 108.128 27.9432 107.857 28.2472 107.663C28.5511 107.467 28.9162 107.369 29.3423 107.369C29.7741 107.369 30.1335 107.467 30.4205 107.663C30.7102 107.857 30.9361 108.128 31.098 108.477H31.1662C31.3338 108.139 31.5852 107.871 31.9205 107.672C32.2557 107.47 32.6577 107.369 33.1264 107.369C33.7116 107.369 34.1903 107.553 34.5625 107.919C34.9347 108.283 35.1207 108.849 35.1207 109.619V114H34.1151V109.619C34.1151 109.136 33.983 108.791 33.7188 108.584C33.4545 108.376 33.1435 108.273 32.7855 108.273C32.3253 108.273 31.9688 108.412 31.7159 108.69C31.4631 108.966 31.3366 109.315 31.3366 109.739V114H30.3139V109.517C30.3139 109.145 30.1932 108.845 29.9517 108.618C29.7102 108.388 29.3991 108.273 29.0185 108.273C28.7571 108.273 28.5128 108.342 28.2855 108.482C28.0611 108.621 27.8793 108.814 27.7401 109.061C27.6037 109.305 27.5355 109.588 27.5355 109.909V114H26.5298ZM39.7038 114.136C39.0732 114.136 38.5291 113.997 38.0717 113.719C37.6172 113.438 37.2663 113.045 37.0192 112.543C36.7749 112.037 36.6527 111.449 36.6527 110.778C36.6527 110.108 36.7749 109.517 37.0192 109.006C37.2663 108.491 37.6101 108.091 38.0504 107.804C38.4936 107.514 39.0107 107.369 39.6016 107.369C39.9425 107.369 40.2791 107.426 40.6115 107.54C40.9439 107.653 41.2464 107.838 41.5192 108.094C41.7919 108.347 42.0092 108.682 42.1712 109.099C42.3331 109.517 42.4141 110.031 42.4141 110.642V111.068H37.3686V110.199H41.3913C41.3913 109.83 41.3175 109.5 41.1697 109.21C41.0249 108.92 40.8175 108.692 40.5476 108.524C40.2805 108.357 39.9652 108.273 39.6016 108.273C39.201 108.273 38.8544 108.372 38.5618 108.571C38.272 108.767 38.049 109.023 37.8928 109.338C37.7365 109.653 37.6584 109.991 37.6584 110.352V110.932C37.6584 111.426 37.7436 111.845 37.9141 112.189C38.0874 112.53 38.3274 112.79 38.6342 112.969C38.9411 113.145 39.2976 113.233 39.7038 113.233C39.968 113.233 40.2067 113.196 40.4197 113.122C40.6357 113.045 40.8217 112.932 40.978 112.781C41.1342 112.628 41.255 112.437 41.3402 112.21L42.3118 112.483C42.2095 112.812 42.0376 113.102 41.7962 113.352C41.5547 113.599 41.2564 113.793 40.9013 113.932C40.5462 114.068 40.147 114.136 39.7038 114.136ZM44.8814 111.614L44.8643 110.369H45.0689L47.9325 107.455H49.1768L46.1257 110.54H46.0405L44.8814 111.614ZM43.9439 114V105.273H44.9496V114H43.9439ZM48.103 114L45.5462 110.761L46.2621 110.062L49.3814 114H48.103ZM51.4769 105.273V114H50.4712V105.273H51.4769ZM56.0632 114.136C55.4325 114.136 54.8885 113.997 54.4311 113.719C53.9766 113.438 53.6257 113.045 53.3786 112.543C53.1342 112.037 53.0121 111.449 53.0121 110.778C53.0121 110.108 53.1342 109.517 53.3786 109.006C53.6257 108.491 53.9695 108.091 54.4098 107.804C54.853 107.514 55.37 107.369 55.9609 107.369C56.3018 107.369 56.6385 107.426 56.9709 107.54C57.3033 107.653 57.6058 107.838 57.8786 108.094C58.1513 108.347 58.3686 108.682 58.5305 109.099C58.6925 109.517 58.7734 110.031 58.7734 110.642V111.068H53.728V110.199H57.7507C57.7507 109.83 57.6768 109.5 57.5291 109.21C57.3842 108.92 57.1768 108.692 56.907 108.524C56.6399 108.357 56.3246 108.273 55.9609 108.273C55.5604 108.273 55.2138 108.372 54.9212 108.571C54.6314 108.767 54.4084 109.023 54.2521 109.338C54.0959 109.653 54.0178 109.991 54.0178 110.352V110.932C54.0178 111.426 54.103 111.845 54.2734 112.189C54.4467 112.53 54.6868 112.79 54.9936 112.969C55.3004 113.145 55.657 113.233 56.0632 113.233C56.3274 113.233 56.5661 113.196 56.7791 113.122C56.995 113.045 57.1811 112.932 57.3374 112.781C57.4936 112.628 57.6143 112.437 57.6996 112.21L58.6712 112.483C58.5689 112.812 58.397 113.102 58.1555 113.352C57.9141 113.599 57.6158 113.793 57.2607 113.932C56.9055 114.068 56.5064 114.136 56.0632 114.136ZM57.9041 105.273V106.125H53.9155V105.273H57.9041ZM63.6783 116.455V107.455H64.6499V108.494H64.7692C64.843 108.381 64.9453 108.236 65.076 108.06C65.2095 107.881 65.3999 107.722 65.647 107.582C65.897 107.44 66.2351 107.369 66.6612 107.369C67.2124 107.369 67.6982 107.507 68.1186 107.783C68.5391 108.058 68.8672 108.449 69.103 108.955C69.3388 109.46 69.4567 110.057 69.4567 110.744C69.4567 111.438 69.3388 112.038 69.103 112.547C68.8672 113.053 68.5405 113.445 68.1229 113.723C67.7053 113.999 67.2237 114.136 66.6783 114.136C66.2578 114.136 65.9212 114.067 65.6683 113.928C65.4155 113.786 65.2209 113.625 65.0845 113.446C64.9482 113.264 64.843 113.114 64.7692 112.994H64.6839V116.455H63.6783ZM64.6669 110.727C64.6669 111.222 64.7393 111.658 64.8842 112.036C65.0291 112.411 65.2408 112.705 65.5192 112.918C65.7976 113.128 66.1385 113.233 66.5419 113.233C66.9624 113.233 67.3132 113.122 67.5945 112.901C67.8786 112.676 68.0916 112.375 68.2337 111.997C68.3786 111.616 68.451 111.193 68.451 110.727C68.451 110.267 68.38 109.852 68.2379 109.483C68.0987 109.111 67.8871 108.817 67.603 108.601C67.3217 108.382 66.968 108.273 66.5419 108.273C66.1328 108.273 65.7891 108.376 65.5107 108.584C65.2322 108.788 65.022 109.075 64.88 109.445C64.7379 109.811 64.6669 110.239 64.6669 110.727ZM72.9169 114.153C72.5021 114.153 72.1257 114.075 71.7876 113.919C71.4496 113.76 71.1811 113.531 70.9822 113.233C70.7834 112.932 70.6839 112.568 70.6839 112.142C70.6839 111.767 70.7578 111.463 70.9055 111.23C71.0533 110.994 71.2507 110.81 71.4979 110.676C71.745 110.543 72.0178 110.443 72.3161 110.378C72.6172 110.31 72.9197 110.256 73.2237 110.216C73.6214 110.165 73.9439 110.126 74.1911 110.101C74.4411 110.072 74.6229 110.026 74.7365 109.96C74.853 109.895 74.9112 109.781 74.9112 109.619V109.585C74.9112 109.165 74.7962 108.838 74.5661 108.605C74.3388 108.372 73.9936 108.256 73.5305 108.256C73.0504 108.256 72.674 108.361 72.4013 108.571C72.1286 108.781 71.9368 109.006 71.826 109.244L70.8714 108.903C71.0419 108.506 71.2692 108.196 71.5533 107.974C71.8402 107.75 72.1527 107.594 72.4908 107.506C72.8317 107.415 73.1669 107.369 73.4964 107.369C73.7067 107.369 73.9482 107.395 74.2209 107.446C74.4964 107.494 74.7621 107.595 75.0178 107.749C75.2763 107.902 75.4908 108.134 75.6612 108.443C75.8317 108.753 75.9169 109.168 75.9169 109.688V114H74.9112V113.114H74.8601C74.7919 113.256 74.6783 113.408 74.5192 113.57C74.3601 113.732 74.1484 113.869 73.8842 113.983C73.62 114.097 73.2976 114.153 72.9169 114.153ZM73.0703 113.25C73.468 113.25 73.8033 113.172 74.076 113.016C74.3516 112.859 74.5589 112.658 74.6982 112.411C74.8402 112.163 74.9112 111.903 74.9112 111.631V110.71C74.8686 110.761 74.7749 110.808 74.63 110.851C74.4879 110.891 74.3232 110.926 74.1357 110.957C73.951 110.986 73.7706 111.011 73.5945 111.034C73.4212 111.054 73.2805 111.071 73.1726 111.085C72.9112 111.119 72.6669 111.175 72.4396 111.251C72.2152 111.325 72.0334 111.437 71.8942 111.588C71.7578 111.736 71.6896 111.937 71.6896 112.193C71.6896 112.543 71.8189 112.807 72.0774 112.986C72.3388 113.162 72.6697 113.25 73.0703 113.25ZM75.5589 105.273V106.125H71.5703V105.273H75.5589ZM77.7525 114V107.455H78.7241V108.443H78.7923C78.9116 108.119 79.1275 107.857 79.44 107.655C79.7525 107.453 80.1048 107.352 80.4968 107.352C80.5707 107.352 80.663 107.354 80.7738 107.357C80.8846 107.359 80.9684 107.364 81.0252 107.369V108.392C80.9911 108.384 80.913 108.371 80.7908 108.354C80.6715 108.334 80.5451 108.324 80.4116 108.324C80.0934 108.324 79.8093 108.391 79.5593 108.524C79.3121 108.655 79.1161 108.837 78.9712 109.07C78.8292 109.3 78.7582 109.562 78.7582 109.858V114H77.7525ZM86.8537 108.92L85.9503 109.176C85.8935 109.026 85.8097 108.879 85.6989 108.737C85.5909 108.592 85.4432 108.473 85.2557 108.379C85.0682 108.286 84.8281 108.239 84.5355 108.239C84.1349 108.239 83.8011 108.331 83.5341 108.516C83.2699 108.697 83.1378 108.929 83.1378 109.21C83.1378 109.46 83.2287 109.658 83.4105 109.803C83.5923 109.947 83.8764 110.068 84.2628 110.165L85.2344 110.403C85.8196 110.545 86.2557 110.763 86.5426 111.055C86.8295 111.345 86.973 111.719 86.973 112.176C86.973 112.551 86.8651 112.886 86.6491 113.182C86.4361 113.477 86.1378 113.71 85.7543 113.881C85.3707 114.051 84.9247 114.136 84.4162 114.136C83.7486 114.136 83.196 113.991 82.7585 113.702C82.321 113.412 82.044 112.989 81.9276 112.432L82.8821 112.193C82.973 112.545 83.1449 112.81 83.3977 112.986C83.6534 113.162 83.9872 113.25 84.3991 113.25C84.8679 113.25 85.2401 113.151 85.5156 112.952C85.794 112.75 85.9332 112.509 85.9332 112.227C85.9332 112 85.8537 111.81 85.6946 111.656C85.5355 111.5 85.2912 111.384 84.9616 111.307L83.8707 111.051C83.2713 110.909 82.831 110.689 82.5497 110.391C82.2713 110.089 82.1321 109.713 82.1321 109.261C82.1321 108.892 82.2358 108.565 82.4432 108.281C82.6534 107.997 82.9389 107.774 83.2997 107.612C83.6634 107.45 84.0753 107.369 84.5355 107.369C85.1832 107.369 85.6918 107.511 86.0611 107.795C86.4332 108.08 86.6974 108.455 86.8537 108.92ZM89.4244 111.614L89.4073 110.369H89.6119L92.4755 107.455H93.7198L90.6687 110.54H90.5835L89.4244 111.614ZM88.4869 114V105.273H89.4925V114H88.4869ZM92.646 114L90.0891 110.761L90.805 110.062L93.9244 114H92.646ZM96.9403 114.153C96.5256 114.153 96.1491 114.075 95.8111 113.919C95.473 113.76 95.2045 113.531 95.0057 113.233C94.8068 112.932 94.7074 112.568 94.7074 112.142C94.7074 111.767 94.7813 111.463 94.929 111.23C95.0767 110.994 95.2741 110.81 95.5213 110.676C95.7685 110.543 96.0412 110.443 96.3395 110.378C96.6406 110.31 96.9432 110.256 97.2472 110.216C97.6449 110.165 97.9673 110.126 98.2145 110.101C98.4645 110.072 98.6463 110.026 98.7599 109.96C98.8764 109.895 98.9347 109.781 98.9347 109.619V109.585C98.9347 109.165 98.8196 108.838 98.5895 108.605C98.3622 108.372 98.017 108.256 97.554 108.256C97.0739 108.256 96.6974 108.361 96.4247 108.571C96.152 108.781 95.9602 109.006 95.8494 109.244L94.8949 108.903C95.0653 108.506 95.2926 108.196 95.5767 107.974C95.8636 107.75 96.1761 107.594 96.5142 107.506C96.8551 107.415 97.1903 107.369 97.5199 107.369C97.7301 107.369 97.9716 107.395 98.2443 107.446C98.5199 107.494 98.7855 107.595 99.0412 107.749C99.2997 107.902 99.5142 108.134 99.6847 108.443C99.8551 108.753 99.9403 109.168 99.9403 109.688V114H98.9347V113.114H98.8835C98.8153 113.256 98.7017 113.408 98.5426 113.57C98.3835 113.732 98.1719 113.869 97.9077 113.983C97.6435 114.097 97.321 114.153 96.9403 114.153ZM97.0938 113.25C97.4915 113.25 97.8267 113.172 98.0994 113.016C98.375 112.859 98.5824 112.658 98.7216 112.411C98.8636 112.163 98.9347 111.903 98.9347 111.631V110.71C98.892 110.761 98.7983 110.808 98.6534 110.851C98.5114 110.891 98.3466 110.926 98.1591 110.957C97.9744 110.986 97.794 111.011 97.6179 111.034C97.4446 111.054 97.304 111.071 97.196 111.085C96.9347 111.119 96.6903 111.175 96.4631 111.251C96.2386 111.325 96.0568 111.437 95.9176 111.588C95.7813 111.736 95.7131 111.937 95.7131 112.193C95.7131 112.543 95.8423 112.807 96.1009 112.986C96.3622 113.162 96.6932 113.25 97.0938 113.25ZM101.776 114V107.455H102.782V114H101.776ZM102.287 106.364C102.091 106.364 101.922 106.297 101.78 106.163C101.641 106.03 101.571 105.869 101.571 105.682C101.571 105.494 101.641 105.334 101.78 105.2C101.922 105.067 102.091 105 102.287 105C102.483 105 102.651 105.067 102.79 105.2C102.932 105.334 103.003 105.494 103.003 105.682C103.003 105.869 102.932 106.03 102.79 106.163C102.651 106.297 102.483 106.364 102.287 106.364ZM107.47 107.455V108.307H104.078V107.455H107.47ZM105.067 105.886H106.072V112.125C106.072 112.409 106.114 112.622 106.196 112.764C106.281 112.903 106.389 112.997 106.52 113.045C106.653 113.091 106.794 113.114 106.942 113.114C107.053 113.114 107.143 113.108 107.214 113.097C107.286 113.082 107.342 113.071 107.385 113.062L107.589 113.966C107.521 113.991 107.426 114.017 107.304 114.043C107.182 114.071 107.027 114.085 106.839 114.085C106.555 114.085 106.277 114.024 106.004 113.902C105.734 113.78 105.51 113.594 105.331 113.344C105.155 113.094 105.067 112.778 105.067 112.398V105.886ZM108.983 114V107.455H109.989V114H108.983ZM111.489 105.273V106.125H107.5V105.273H111.489ZM112.311 107.455H113.317V114.477C113.317 114.881 113.247 115.23 113.108 115.526C112.972 115.821 112.764 116.05 112.486 116.212C112.21 116.374 111.862 116.455 111.442 116.455C111.408 116.455 111.374 116.455 111.339 116.455C111.305 116.455 111.271 116.455 111.237 116.455V115.517C111.271 115.517 111.303 115.517 111.331 115.517C111.359 115.517 111.391 115.517 111.425 115.517C111.732 115.517 111.956 115.426 112.098 115.244C112.24 115.065 112.311 114.81 112.311 114.477V107.455ZM112.805 106.364C112.609 106.364 112.44 106.297 112.298 106.163C112.159 106.03 112.089 105.869 112.089 105.682C112.089 105.494 112.159 105.334 112.298 105.2C112.44 105.067 112.609 105 112.805 105C113.001 105 113.169 105.067 113.308 105.2C113.45 105.334 113.521 105.494 113.521 105.682C113.521 105.869 113.45 106.03 113.308 106.163C113.169 106.297 113.001 106.364 112.805 106.364ZM119.284 111.324V107.455H120.289V114H119.284V112.892H119.216C119.062 113.224 118.824 113.507 118.5 113.74C118.176 113.97 117.767 114.085 117.272 114.085C116.863 114.085 116.5 113.996 116.181 113.817C115.863 113.635 115.613 113.362 115.431 112.999C115.25 112.632 115.159 112.17 115.159 111.614V107.455H116.164V111.545C116.164 112.023 116.298 112.403 116.565 112.688C116.835 112.972 117.179 113.114 117.596 113.114C117.846 113.114 118.1 113.05 118.359 112.922C118.62 112.794 118.839 112.598 119.015 112.334C119.194 112.07 119.284 111.733 119.284 111.324ZM122.131 114V107.455H123.103V108.477H123.188C123.325 108.128 123.545 107.857 123.849 107.663C124.153 107.467 124.518 107.369 124.944 107.369C125.376 107.369 125.735 107.467 126.022 107.663C126.312 107.857 126.538 108.128 126.7 108.477H126.768C126.935 108.139 127.187 107.871 127.522 107.672C127.857 107.47 128.259 107.369 128.728 107.369C129.313 107.369 129.792 107.553 130.164 107.919C130.536 108.283 130.722 108.849 130.722 109.619V114H129.717V109.619C129.717 109.136 129.585 108.791 129.32 108.584C129.056 108.376 128.745 108.273 128.387 108.273C127.927 108.273 127.57 108.412 127.317 108.69C127.065 108.966 126.938 109.315 126.938 109.739V114H125.915V109.517C125.915 109.145 125.795 108.845 125.553 108.618C125.312 108.388 125.001 108.273 124.62 108.273C124.359 108.273 124.114 108.342 123.887 108.482C123.663 108.621 123.481 108.814 123.342 109.061C123.205 109.305 123.137 109.588 123.137 109.909V114H122.131ZM132.561 114V107.455H133.567V114H132.561ZM133.072 106.364C132.876 106.364 132.707 106.297 132.565 106.163C132.426 106.03 132.357 105.869 132.357 105.682C132.357 105.494 132.426 105.334 132.565 105.2C132.707 105.067 132.876 105 133.072 105C133.268 105 133.436 105.067 133.575 105.2C133.717 105.334 133.788 105.494 133.788 105.682C133.788 105.869 133.717 106.03 133.575 106.163C133.436 106.297 133.268 106.364 133.072 106.364Z" fill="#1A1D27"/>
</svg>
