<svg width="200" height="139" viewBox="0 0 200 139" fill="none" xmlns="http://www.w3.org/2000/svg">
<rect width="200" height="139" rx="16" fill="white" fill-opacity="0.7"/>
<rect x="16" y="16" width="32" height="32" rx="16" fill="#1A1D27"/>
<path d="M34.25 32C34.25 33.2426 33.2426 34.25 32 34.25C30.7574 34.25 29.75 33.2426 29.75 32C29.75 30.7574 30.7574 29.75 32 29.75C33.2426 29.75 34.25 30.7574 34.25 32Z" stroke="white" stroke-width="1.5" stroke-linecap="round" stroke-linejoin="round"/>
<path d="M32.6785 25.295C32.5241 25.25 32.3494 25.25 32 25.25C31.6506 25.25 31.4759 25.25 31.3215 25.295C31.0956 25.361 30.8961 25.4961 30.751 25.6813C30.6518 25.8079 30.587 25.9701 30.4572 26.2945C30.2706 26.7609 29.7529 27.001 29.2764 26.8422L28.8483 26.6996C28.5447 26.5984 28.3928 26.5478 28.244 26.5391C28.0253 26.5264 27.8077 26.5777 27.6178 26.6869C27.4885 26.7613 27.3753 26.8744 27.149 27.1008C26.9084 27.3413 26.7881 27.4616 26.7117 27.5989C26.5995 27.8006 26.552 28.032 26.5757 28.2616C26.5918 28.4179 26.655 28.5759 26.7814 28.8917C26.9792 29.3864 26.7889 29.9516 26.332 30.2257L26.1239 30.3507C25.8052 30.5419 25.6459 30.6375 25.5302 30.7691C25.4277 30.8856 25.3505 31.022 25.3033 31.1697C25.25 31.3367 25.25 31.5244 25.25 31.8997C25.25 32.3441 25.25 32.5664 25.321 32.7566C25.3837 32.9247 25.4857 33.0753 25.6184 33.1959C25.7687 33.3325 25.973 33.4142 26.3815 33.5776C26.799 33.7446 27.014 34.2081 26.8718 34.6347L26.7104 35.1188C26.5986 35.4541 26.5428 35.6217 26.5377 35.7864C26.5316 35.9845 26.5779 36.1807 26.6719 36.3551C26.7501 36.5001 26.8751 36.6251 27.125 36.875C27.3749 37.1249 27.4999 37.2499 27.6449 37.3281C27.8193 37.4221 28.0155 37.4684 28.2136 37.4623C28.3783 37.4572 28.5459 37.4014 28.8812 37.2896L29.2765 37.1578C29.7529 36.999 30.2707 37.2391 30.4572 37.7055C30.587 38.0299 30.6518 38.1921 30.751 38.3187C30.8961 38.5039 31.0956 38.639 31.3215 38.705C31.4759 38.75 31.6506 38.75 32 38.75C32.3494 38.75 32.5241 38.75 32.6785 38.705C32.9044 38.639 33.1039 38.5039 33.249 38.3187C33.3482 38.1921 33.413 38.0299 33.5428 37.7055C33.7293 37.2391 34.2471 36.9991 34.7235 37.1579L35.1185 37.2896C35.4538 37.4014 35.6214 37.4573 35.7861 37.4624C35.9842 37.4685 36.1803 37.4222 36.3548 37.3282C36.4998 37.2499 36.6248 37.125 36.8747 36.8751C37.1246 36.6251 37.2496 36.5002 37.3278 36.3551C37.4218 36.1807 37.4681 35.9846 37.462 35.7865C37.4569 35.6218 37.401 35.4541 37.2893 35.1188L37.128 34.635C36.9858 34.2083 37.2008 33.7446 37.6185 33.5776C38.027 33.4142 38.2313 33.3325 38.3816 33.1959C38.5143 33.0753 38.6163 32.9247 38.679 32.7566C38.75 32.5664 38.75 32.3441 38.75 31.8997C38.75 31.5244 38.75 31.3367 38.6967 31.1697C38.6495 31.022 38.5723 30.8856 38.4698 30.7691C38.3541 30.6375 38.1948 30.5419 37.8761 30.3507L37.6677 30.2256C37.2108 29.9515 37.0205 29.3864 37.2183 28.8917C37.3447 28.5758 37.4079 28.4179 37.424 28.2616C37.4477 28.0319 37.4002 27.8006 37.288 27.5989C37.2116 27.4616 37.0913 27.3413 36.8507 27.1007C36.6244 26.8744 36.5112 26.7612 36.3819 26.6869C36.192 26.5777 35.9744 26.5263 35.7557 26.539C35.6069 26.5477 35.455 26.5983 35.1514 26.6996L34.7235 26.8422C34.2471 27.001 33.7293 26.7609 33.5428 26.2945C33.413 25.9701 33.3482 25.8079 33.249 25.6813C33.1039 25.4961 32.9044 25.361 32.6785 25.295Z" stroke="white" stroke-width="1.5" stroke-linecap="round" stroke-linejoin="round"/>
<path d="M19.017 76H16.3807L20.3977 64.3636H23.5682L27.5795 76H24.9432L22.0284 67.0227H21.9375L19.017 76ZM18.8523 71.4261H25.0795V73.3466H18.8523V71.4261ZM34.3713 72.2841V67.2727H36.7917V76H34.4678V74.4148H34.3769C34.18 74.9261 33.8523 75.3371 33.394 75.6477C32.9394 75.9583 32.3845 76.1136 31.7292 76.1136C31.1459 76.1136 30.6326 75.9811 30.1894 75.7159C29.7463 75.4508 29.3997 75.0739 29.1497 74.5852C28.9034 74.0966 28.7784 73.5114 28.7747 72.8295V67.2727H31.1951V72.3977C31.1989 72.9129 31.3372 73.3201 31.6099 73.6193C31.8826 73.9186 32.2481 74.0682 32.7065 74.0682C32.9981 74.0682 33.2709 74.0019 33.5247 73.8693C33.7784 73.733 33.983 73.5322 34.1383 73.267C34.2974 73.0019 34.375 72.6742 34.3713 72.2841ZM43.2098 67.2727V69.0909H37.9541V67.2727H43.2098ZM39.1473 65.1818H41.5678V73.3182C41.5678 73.5417 41.6019 73.7159 41.6701 73.8409C41.7382 73.9621 41.8329 74.0473 41.9541 74.0966C42.0791 74.1458 42.2231 74.1705 42.386 74.1705C42.4996 74.1705 42.6132 74.161 42.7269 74.142C42.8405 74.1193 42.9276 74.1023 42.9882 74.0909L43.3689 75.892C43.2477 75.9299 43.0773 75.9735 42.8576 76.0227C42.6379 76.0758 42.3708 76.108 42.0564 76.1193C41.4731 76.142 40.9617 76.0644 40.5223 75.8864C40.0867 75.7083 39.7477 75.4318 39.5053 75.0568C39.2629 74.6818 39.1435 74.2083 39.1473 73.6364V65.1818ZM48.476 76.1705C47.5934 76.1705 46.8301 75.983 46.1862 75.608C45.546 75.2292 45.0517 74.7027 44.7032 74.0284C44.3548 73.3504 44.1805 72.5644 44.1805 71.6705C44.1805 70.7689 44.3548 69.9811 44.7032 69.3068C45.0517 68.6288 45.546 68.1023 46.1862 67.7273C46.8301 67.3485 47.5934 67.1591 48.476 67.1591C49.3585 67.1591 50.1199 67.3485 50.7601 67.7273C51.404 68.1023 51.9002 68.6288 52.2487 69.3068C52.5972 69.9811 52.7714 70.7689 52.7714 71.6705C52.7714 72.5644 52.5972 73.3504 52.2487 74.0284C51.9002 74.7027 51.404 75.2292 50.7601 75.608C50.1199 75.983 49.3585 76.1705 48.476 76.1705ZM48.4873 74.2955C48.8888 74.2955 49.2241 74.1818 49.493 73.9545C49.762 73.7235 49.9646 73.4091 50.101 73.0114C50.2411 72.6136 50.3112 72.161 50.3112 71.6534C50.3112 71.1458 50.2411 70.6932 50.101 70.2955C49.9646 69.8977 49.762 69.5833 49.493 69.3523C49.2241 69.1212 48.8888 69.0057 48.4873 69.0057C48.082 69.0057 47.7411 69.1212 47.4646 69.3523C47.1919 69.5833 46.9854 69.8977 46.8453 70.2955C46.7089 70.6932 46.6407 71.1458 46.6407 71.6534C46.6407 72.161 46.7089 72.6136 46.8453 73.0114C46.9854 73.4091 47.1919 73.7235 47.4646 73.9545C47.7411 74.1818 48.082 74.2955 48.4873 74.2955ZM54.1853 76V67.2727H56.4921V68.8125H56.5944C56.7762 68.3011 57.0792 67.8977 57.5035 67.6023C57.9277 67.3068 58.4353 67.1591 59.0262 67.1591C59.6247 67.1591 60.1341 67.3087 60.5546 67.608C60.9751 67.9034 61.2554 68.3049 61.3955 68.8125H61.4864C61.6645 68.3125 61.9864 67.9129 62.4523 67.6136C62.922 67.3106 63.477 67.1591 64.1171 67.1591C64.9315 67.1591 65.5925 67.4186 66.1001 67.9375C66.6114 68.4527 66.8671 69.1837 66.8671 70.1307V76H64.4523V70.608C64.4523 70.1231 64.3235 69.7595 64.066 69.517C63.8084 69.2746 63.4864 69.1534 63.1001 69.1534C62.6607 69.1534 62.3179 69.2936 62.0716 69.5739C61.8254 69.8504 61.7023 70.2159 61.7023 70.6705V76H59.3557V70.5568C59.3557 70.1288 59.2326 69.7879 58.9864 69.5341C58.744 69.2803 58.4239 69.1534 58.0262 69.1534C57.7573 69.1534 57.5148 69.2216 57.2989 69.358C57.0868 69.4905 56.9182 69.678 56.7932 69.9205C56.6682 70.1591 56.6057 70.4394 56.6057 70.7614V76H54.1853ZM71.1077 76.1648C70.5509 76.1648 70.0546 76.0682 69.619 75.875C69.1834 75.678 68.8387 75.3883 68.5849 75.0057C68.3349 74.6193 68.2099 74.1383 68.2099 73.5625C68.2099 73.0777 68.299 72.6705 68.477 72.3409C68.655 72.0114 68.8974 71.7462 69.2043 71.5455C69.5111 71.3447 69.8596 71.1932 70.2497 71.0909C70.6437 70.9886 71.0565 70.9167 71.4884 70.875C71.9959 70.822 72.405 70.7727 72.7156 70.7273C73.0262 70.678 73.2516 70.6061 73.3918 70.5114C73.5319 70.4167 73.602 70.2765 73.602 70.0909V70.0568C73.602 69.697 73.4884 69.4186 73.2611 69.2216C73.0376 69.0246 72.7194 68.9261 72.3065 68.9261C71.8709 68.9261 71.5243 69.0227 71.2668 69.2159C71.0092 69.4053 70.8387 69.6439 70.7554 69.9318L68.5168 69.75C68.6304 69.2197 68.8539 68.7614 69.1872 68.375C69.5206 67.9848 69.9505 67.6856 70.477 67.4773C71.0073 67.2652 71.6209 67.1591 72.3179 67.1591C72.8027 67.1591 73.2668 67.2159 73.7099 67.3295C74.1569 67.4432 74.5527 67.6193 74.8974 67.858C75.2459 68.0966 75.5206 68.4034 75.7213 68.7784C75.9221 69.1496 76.0224 69.5947 76.0224 70.1136V76H73.727V74.7898H73.6588C73.5187 75.0625 73.3312 75.303 73.0963 75.5114C72.8615 75.7159 72.5793 75.8769 72.2497 75.9943C71.9202 76.108 71.5395 76.1648 71.1077 76.1648ZM71.8009 74.4943C72.1569 74.4943 72.4713 74.4242 72.744 74.2841C73.0168 74.1402 73.2308 73.947 73.3861 73.7045C73.5414 73.4621 73.619 73.1875 73.619 72.8807V71.9545C73.5433 72.0038 73.4391 72.0492 73.3065 72.0909C73.1777 72.1288 73.0319 72.1648 72.869 72.1989C72.7062 72.2292 72.5433 72.2576 72.3804 72.2841C72.2175 72.3068 72.0698 72.3277 71.9372 72.3466C71.6531 72.3883 71.405 72.4545 71.1929 72.5455C70.9808 72.6364 70.816 72.7595 70.6986 72.9148C70.5812 73.0663 70.5224 73.2557 70.5224 73.483C70.5224 73.8125 70.6418 74.0644 70.8804 74.2386C71.1228 74.4091 71.4296 74.4943 71.8009 74.4943ZM82.3823 67.2727V69.0909H77.1266V67.2727H82.3823ZM78.3198 65.1818H80.7403V73.3182C80.7403 73.5417 80.7744 73.7159 80.8426 73.8409C80.9107 73.9621 81.0054 74.0473 81.1266 74.0966C81.2516 74.1458 81.3956 74.1705 81.5585 74.1705C81.6721 74.1705 81.7857 74.161 81.8994 74.142C82.013 74.1193 82.1001 74.1023 82.1607 74.0909L82.5414 75.892C82.4202 75.9299 82.2498 75.9735 82.0301 76.0227C81.8104 76.0758 81.5433 76.108 81.2289 76.1193C80.6456 76.142 80.1342 76.0644 79.6948 75.8864C79.2592 75.7083 78.9202 75.4318 78.6778 75.0568C78.4354 74.6818 78.316 74.2083 78.3198 73.6364V65.1818ZM83.799 76V67.2727H86.2195V76H83.799ZM85.0149 66.1477C84.6551 66.1477 84.3464 66.0284 84.0888 65.7898C83.835 65.5473 83.7081 65.2576 83.7081 64.9205C83.7081 64.5871 83.835 64.3011 84.0888 64.0625C84.3464 63.8201 84.6551 63.6989 85.0149 63.6989C85.3748 63.6989 85.6816 63.8201 85.9354 64.0625C86.193 64.3011 86.3218 64.5871 86.3218 64.9205C86.3218 65.2576 86.193 65.5473 85.9354 65.7898C85.6816 66.0284 85.3748 66.1477 85.0149 66.1477ZM87.953 76V74.5568L92.2257 69.267V69.2045H88.1007V67.2727H95.1405V68.8466L91.1291 74.0057V74.0682H95.2882V76H87.953ZM100.706 76.1705C99.8086 76.1705 99.0358 75.9886 98.3881 75.625C97.7442 75.2576 97.248 74.7386 96.8995 74.0682C96.551 73.3939 96.3768 72.5966 96.3768 71.6761C96.3768 70.7784 96.551 69.9905 96.8995 69.3125C97.248 68.6345 97.7385 68.1061 98.3711 67.7273C99.0074 67.3485 99.7537 67.1591 100.61 67.1591C101.185 67.1591 101.721 67.2519 102.218 67.4375C102.718 67.6193 103.153 67.8939 103.524 68.2614C103.899 68.6288 104.191 69.0909 104.399 69.6477C104.608 70.2008 104.712 70.8485 104.712 71.5909V72.2557H97.3427V70.7557H102.434C102.434 70.4072 102.358 70.0985 102.206 69.8295C102.055 69.5606 101.845 69.3504 101.576 69.1989C101.31 69.0436 101.002 68.9659 100.649 68.9659C100.282 68.9659 99.9563 69.0511 99.6722 69.2216C99.3919 69.3883 99.1722 69.6136 99.0131 69.8977C98.854 70.178 98.7726 70.4905 98.7688 70.8352V72.2614C98.7688 72.6932 98.8483 73.0663 99.0074 73.3807C99.1703 73.6951 99.3995 73.9375 99.6949 74.108C99.9904 74.2784 100.341 74.3636 100.746 74.3636C101.015 74.3636 101.261 74.3258 101.485 74.25C101.708 74.1742 101.899 74.0606 102.059 73.9091C102.218 73.7576 102.339 73.572 102.422 73.3523L104.661 73.5C104.547 74.0379 104.314 74.5076 103.962 74.9091C103.614 75.3068 103.163 75.6174 102.61 75.8409C102.06 76.0606 101.426 76.1705 100.706 76.1705ZM103.32 64.3636V65.6761H97.7858V64.3636H103.32ZM110.774 67.2727V69.0909H105.518V67.2727H110.774ZM106.711 65.1818H109.132V73.3182C109.132 73.5417 109.166 73.7159 109.234 73.8409C109.302 73.9621 109.397 74.0473 109.518 74.0966C109.643 74.1458 109.787 74.1705 109.95 74.1705C110.063 74.1705 110.177 74.161 110.291 74.142C110.404 74.1193 110.491 74.1023 110.552 74.0909L110.933 75.892C110.811 75.9299 110.641 75.9735 110.421 76.0227C110.202 76.0758 109.935 76.108 109.62 76.1193C109.037 76.142 108.525 76.0644 108.086 75.8864C107.65 75.7083 107.311 75.4318 107.069 75.0568C106.827 74.6818 106.707 74.2083 106.711 73.6364V65.1818ZM121.33 72.2841V67.2727H123.75V76H121.427V74.4148H121.336C121.139 74.9261 120.811 75.3371 120.353 75.6477C119.898 75.9583 119.343 76.1136 118.688 76.1136C118.105 76.1136 117.591 75.9811 117.148 75.7159C116.705 75.4508 116.358 75.0739 116.108 74.5852C115.862 74.0966 115.737 73.5114 115.733 72.8295V67.2727H118.154V72.3977C118.158 72.9129 118.296 73.3201 118.569 73.6193C118.841 73.9186 119.207 74.0682 119.665 74.0682C119.957 74.0682 120.23 74.0019 120.483 73.8693C120.737 73.733 120.942 73.5322 121.097 73.267C121.256 73.0019 121.334 72.6742 121.33 72.2841ZM125.481 76V74.5568L129.754 69.267V69.2045H125.629V67.2727H132.669V68.8466L128.657 74.0057V74.0682H132.816V76H125.481ZM141.769 69.7614L139.553 69.8977C139.515 69.7083 139.433 69.5379 139.308 69.3864C139.183 69.2311 139.019 69.108 138.814 69.017C138.613 68.9223 138.373 68.875 138.092 68.875C137.717 68.875 137.401 68.9545 137.144 69.1136C136.886 69.2689 136.757 69.4773 136.757 69.7386C136.757 69.947 136.84 70.1231 137.007 70.267C137.174 70.411 137.46 70.5265 137.865 70.6136L139.445 70.9318C140.293 71.1061 140.926 71.3864 141.342 71.7727C141.759 72.1591 141.967 72.6667 141.967 73.2955C141.967 73.8674 141.799 74.3693 141.462 74.8011C141.128 75.233 140.67 75.5701 140.087 75.8125C139.507 76.0511 138.839 76.1705 138.081 76.1705C136.926 76.1705 136.005 75.9299 135.32 75.4489C134.638 74.964 134.238 74.3049 134.121 73.4716L136.501 73.3466C136.573 73.6989 136.748 73.9678 137.024 74.1534C137.301 74.3352 137.655 74.4261 138.087 74.4261C138.511 74.4261 138.852 74.3447 139.109 74.1818C139.371 74.0152 139.503 73.8011 139.507 73.5398C139.503 73.3201 139.411 73.1402 139.229 73C139.047 72.8561 138.767 72.7462 138.388 72.6705L136.876 72.3693C136.024 72.1989 135.39 71.9034 134.973 71.483C134.56 71.0625 134.354 70.5265 134.354 69.875C134.354 69.3144 134.505 68.8314 134.808 68.4261C135.115 68.0208 135.545 67.7083 136.098 67.4886C136.655 67.2689 137.306 67.1591 138.053 67.1591C139.155 67.1591 140.022 67.392 140.655 67.858C141.291 68.3239 141.662 68.9583 141.769 69.7614ZM145.525 73.4886L145.53 70.5852H145.883L148.678 67.2727H151.457L147.701 71.6591H147.127L145.525 73.4886ZM143.332 76V64.3636H145.752V76H143.332ZM148.786 76L146.218 72.1989L147.832 70.4886L151.621 76H148.786ZM154.973 76.1648C154.416 76.1648 153.92 76.0682 153.484 75.875C153.048 75.678 152.704 75.3883 152.45 75.0057C152.2 74.6193 152.075 74.1383 152.075 73.5625C152.075 73.0777 152.164 72.6705 152.342 72.3409C152.52 72.0114 152.762 71.7462 153.069 71.5455C153.376 71.3447 153.725 71.1932 154.115 71.0909C154.509 70.9886 154.922 70.9167 155.353 70.875C155.861 70.822 156.27 70.7727 156.581 70.7273C156.891 70.678 157.117 70.6061 157.257 70.5114C157.397 70.4167 157.467 70.2765 157.467 70.0909V70.0568C157.467 69.697 157.353 69.4186 157.126 69.2216C156.903 69.0246 156.584 68.9261 156.172 68.9261C155.736 68.9261 155.389 69.0227 155.132 69.2159C154.874 69.4053 154.704 69.6439 154.62 69.9318L152.382 69.75C152.495 69.2197 152.719 68.7614 153.052 68.375C153.386 67.9848 153.815 67.6856 154.342 67.4773C154.872 67.2652 155.486 67.1591 156.183 67.1591C156.668 67.1591 157.132 67.2159 157.575 67.3295C158.022 67.4432 158.418 67.6193 158.762 67.858C159.111 68.0966 159.386 68.4034 159.586 68.7784C159.787 69.1496 159.887 69.5947 159.887 70.1136V76H157.592V74.7898H157.524C157.384 75.0625 157.196 75.303 156.961 75.5114C156.726 75.7159 156.444 75.8769 156.115 75.9943C155.785 76.108 155.404 76.1648 154.973 76.1648ZM155.666 74.4943C156.022 74.4943 156.336 74.4242 156.609 74.2841C156.882 74.1402 157.096 73.947 157.251 73.7045C157.406 73.4621 157.484 73.1875 157.484 72.8807V71.9545C157.408 72.0038 157.304 72.0492 157.172 72.0909C157.043 72.1288 156.897 72.1648 156.734 72.1989C156.571 72.2292 156.408 72.2576 156.245 72.2841C156.083 72.3068 155.935 72.3277 155.802 72.3466C155.518 72.3883 155.27 72.4545 155.058 72.5455C154.846 72.6364 154.681 72.7595 154.564 72.9148C154.446 73.0663 154.387 73.2557 154.387 73.483C154.387 73.8125 154.507 74.0644 154.745 74.2386C154.988 74.4091 155.295 74.4943 155.666 74.4943ZM161.605 76V67.2727H164.026V76H161.605ZM162.821 66.1477C162.461 66.1477 162.153 66.0284 161.895 65.7898C161.641 65.5473 161.514 65.2576 161.514 64.9205C161.514 64.5871 161.641 64.3011 161.895 64.0625C162.153 63.8201 162.461 63.6989 162.821 63.6989C163.181 63.6989 163.488 63.8201 163.742 64.0625C163.999 64.3011 164.128 64.5871 164.128 64.9205C164.128 65.2576 163.999 65.5473 163.742 65.7898C163.488 66.0284 163.181 66.1477 162.821 66.1477ZM170.447 67.2727V69.0909H165.191V67.2727H170.447ZM166.384 65.1818H168.805V73.3182C168.805 73.5417 168.839 73.7159 168.907 73.8409C168.975 73.9621 169.07 74.0473 169.191 74.0966C169.316 74.1458 169.46 74.1705 169.623 74.1705C169.736 74.1705 169.85 74.161 169.964 74.142C170.077 74.1193 170.165 74.1023 170.225 74.0909L170.606 75.892C170.485 75.9299 170.314 75.9735 170.094 76.0227C169.875 76.0758 169.608 76.108 169.293 76.1193C168.71 76.142 168.199 76.0644 167.759 75.8864C167.324 75.7083 166.985 75.4318 166.742 75.0568C166.5 74.6818 166.38 74.2083 166.384 73.6364V65.1818ZM171.863 76V67.2727H174.284V76H171.863ZM173.079 66.1477C172.719 66.1477 172.411 66.0284 172.153 65.7898C171.899 65.5473 171.773 65.2576 171.773 64.9205C171.773 64.5871 171.899 64.3011 172.153 64.0625C172.411 63.8201 172.719 63.6989 173.079 63.6989C173.439 63.6989 173.746 63.8201 174 64.0625C174.257 64.3011 174.386 64.5871 174.386 64.9205C174.386 65.2576 174.257 65.5473 174 65.7898C173.746 66.0284 173.439 66.1477 173.079 66.1477Z" fill="#1A1D27"/>
<path d="M21.2422 89.1016C21.2005 88.7318 21.0286 88.4453 20.7266 88.2422C20.4245 88.0365 20.0443 87.9336 19.5859 87.9336C19.2578 87.9336 18.974 87.9857 18.7344 88.0898C18.4948 88.1914 18.3086 88.332 18.1758 88.5117C18.0456 88.6888 17.9805 88.8906 17.9805 89.1172C17.9805 89.3073 18.0247 89.4714 18.1133 89.6094C18.2044 89.7474 18.3229 89.8633 18.4688 89.957C18.6172 90.0482 18.776 90.125 18.9453 90.1875C19.1146 90.2474 19.2773 90.2969 19.4336 90.3359L20.2148 90.5391C20.4701 90.6016 20.7318 90.6862 21 90.793C21.2682 90.8997 21.5169 91.0404 21.7461 91.2148C21.9753 91.3893 22.1602 91.6055 22.3008 91.8633C22.444 92.1211 22.5156 92.4297 22.5156 92.7891C22.5156 93.2422 22.3984 93.6445 22.1641 93.9961C21.9323 94.3477 21.5951 94.625 21.1523 94.8281C20.7122 95.0313 20.1797 95.1328 19.5547 95.1328C18.9557 95.1328 18.4375 95.0378 18 94.8477C17.5625 94.6576 17.2201 94.388 16.9727 94.0391C16.7253 93.6875 16.5885 93.2708 16.5625 92.7891H17.7734C17.7969 93.0781 17.8906 93.319 18.0547 93.5117C18.2214 93.7018 18.4336 93.8437 18.6914 93.9375C18.9518 94.0286 19.237 94.0742 19.5469 94.0742C19.888 94.0742 20.1914 94.0208 20.457 93.9141C20.7253 93.8047 20.9362 93.6536 21.0898 93.4609C21.2435 93.2656 21.3203 93.0378 21.3203 92.7773C21.3203 92.5404 21.2526 92.3464 21.1172 92.1953C20.9844 92.0443 20.8034 91.9193 20.5742 91.8203C20.3477 91.7214 20.0911 91.6341 19.8047 91.5586L18.8594 91.3008C18.2188 91.1263 17.7109 90.8698 17.3359 90.5312C16.9635 90.1927 16.7773 89.7448 16.7773 89.1875C16.7773 88.7266 16.9023 88.3242 17.1523 87.9805C17.4023 87.6367 17.7409 87.3698 18.168 87.1797C18.5951 86.987 19.0768 86.8906 19.6133 86.8906C20.1549 86.8906 20.6328 86.9857 21.0469 87.1758C21.4635 87.3659 21.7917 87.6276 22.0313 87.9609C22.2708 88.2917 22.3958 88.6719 22.4063 89.1016H21.2422ZM23.7543 95V89H24.9222V95H23.7543ZM24.3441 88.0742C24.141 88.0742 23.9665 88.0065 23.8207 87.8711C23.6774 87.7331 23.6058 87.569 23.6058 87.3789C23.6058 87.1862 23.6774 87.0221 23.8207 86.8867C23.9665 86.7487 24.141 86.6797 24.3441 86.6797C24.5472 86.6797 24.7204 86.7487 24.8636 86.8867C25.0095 87.0221 25.0824 87.1862 25.0824 87.3789C25.0824 87.569 25.0095 87.7331 24.8636 87.8711C24.7204 88.0065 24.5472 88.0742 24.3441 88.0742ZM30.8796 90.4648L29.821 90.6523C29.7767 90.5169 29.7064 90.388 29.6101 90.2656C29.5163 90.1432 29.3887 90.043 29.2273 89.9648C29.0658 89.8867 28.864 89.8477 28.6218 89.8477C28.2911 89.8477 28.015 89.9219 27.7937 90.0703C27.5723 90.2161 27.4616 90.4049 27.4616 90.6367C27.4616 90.8372 27.5359 90.9987 27.6843 91.1211C27.8327 91.2435 28.0723 91.3437 28.403 91.4219L29.3562 91.6406C29.9083 91.7682 30.3197 91.9648 30.5905 92.2305C30.8614 92.4961 30.9968 92.8411 30.9968 93.2656C30.9968 93.625 30.8926 93.9453 30.6843 94.2266C30.4786 94.5052 30.1908 94.724 29.821 94.8828C29.4538 95.0417 29.028 95.1211 28.5437 95.1211C27.8718 95.1211 27.3236 94.9779 26.8991 94.6914C26.4747 94.4023 26.2142 93.9922 26.1179 93.4609L27.2468 93.2891C27.3171 93.5833 27.4616 93.806 27.6804 93.957C27.8991 94.1055 28.1843 94.1797 28.5359 94.1797C28.9187 94.1797 29.2247 94.1003 29.4538 93.9414C29.683 93.7799 29.7976 93.5833 29.7976 93.3516C29.7976 93.1641 29.7273 93.0065 29.5866 92.8789C29.4486 92.7513 29.2364 92.6549 28.9499 92.5898L27.9343 92.3672C27.3744 92.2396 26.9603 92.0365 26.6921 91.7578C26.4265 91.4792 26.2937 91.1263 26.2937 90.6992C26.2937 90.3451 26.3926 90.0352 26.5905 89.7695C26.7885 89.5039 27.0619 89.2969 27.4109 89.1484C27.7598 88.9974 28.1596 88.9219 28.6101 88.9219C29.2585 88.9219 29.7689 89.0625 30.1413 89.3437C30.5137 89.6224 30.7598 89.9961 30.8796 90.4648ZM34.9718 89V89.9375H31.6944V89H34.9718ZM32.5733 87.5625H33.7413V93.2383C33.7413 93.4648 33.7751 93.6354 33.8429 93.75C33.9106 93.862 33.9978 93.9388 34.1046 93.9805C34.2139 94.0195 34.3324 94.0391 34.46 94.0391C34.5538 94.0391 34.6358 94.0326 34.7061 94.0195C34.7764 94.0065 34.8311 93.9961 34.8702 93.9883L35.0811 94.9531C35.0134 94.9792 34.9171 95.0052 34.7921 95.0313C34.6671 95.0599 34.5108 95.0755 34.3233 95.0781C34.016 95.0833 33.7296 95.0286 33.4639 94.9141C33.1983 94.7995 32.9835 94.6224 32.8194 94.3828C32.6554 94.1432 32.5733 93.8424 32.5733 93.4805V87.5625ZM38.6752 95.1211C38.0841 95.1211 37.575 94.9948 37.1479 94.7422C36.7234 94.487 36.3953 94.1289 36.1635 93.668C35.9343 93.2044 35.8198 92.6615 35.8198 92.0391C35.8198 91.4245 35.9343 90.8828 36.1635 90.4141C36.3953 89.9453 36.7182 89.5794 37.1323 89.3164C37.5489 89.0534 38.0359 88.9219 38.5932 88.9219C38.9317 88.9219 39.2599 88.9779 39.5776 89.0898C39.8953 89.2018 40.1804 89.3776 40.433 89.6172C40.6857 89.8568 40.8849 90.168 41.0307 90.5508C41.1765 90.931 41.2495 91.3932 41.2495 91.9375V92.3516H36.4799V91.4766H40.1049C40.1049 91.1693 40.0424 90.8971 39.9174 90.6602C39.7924 90.4206 39.6166 90.2318 39.3901 90.0937C39.1661 89.9557 38.9031 89.8867 38.601 89.8867C38.2729 89.8867 37.9864 89.9674 37.7416 90.1289C37.4995 90.2878 37.312 90.4961 37.1791 90.7539C37.0489 91.0091 36.9838 91.2865 36.9838 91.5859V92.2695C36.9838 92.6706 37.0541 93.0117 37.1948 93.293C37.338 93.5742 37.5372 93.7891 37.7924 93.9375C38.0476 94.0833 38.3458 94.1562 38.687 94.1562C38.9083 94.1562 39.1101 94.125 39.2924 94.0625C39.4747 93.9974 39.6323 93.901 39.7651 93.7734C39.8979 93.6458 39.9995 93.4883 40.0698 93.3008L41.1752 93.5C41.0867 93.8255 40.9278 94.1107 40.6987 94.3555C40.4721 94.5977 40.187 94.7865 39.8432 94.9219C39.5021 95.0547 39.1127 95.1211 38.6752 95.1211ZM40.4018 87V87.8203H36.6948V87H40.4018ZM42.4354 95V89H43.5564V89.9766H43.6307C43.7557 89.6458 43.9601 89.388 44.2439 89.2031C44.5278 89.0156 44.8676 88.9219 45.2635 88.9219C45.6645 88.9219 46.0005 89.0156 46.2713 89.2031C46.5447 89.3906 46.7466 89.6484 46.8768 89.9766H46.9393C47.0825 89.6562 47.3104 89.401 47.6229 89.2109C47.9354 89.0182 48.3077 88.9219 48.74 88.9219C49.2843 88.9219 49.7283 89.0924 50.0721 89.4336C50.4184 89.7747 50.5916 90.2891 50.5916 90.9766V95H49.4236V91.0859C49.4236 90.6797 49.313 90.3854 49.0916 90.2031C48.8702 90.0208 48.6059 89.9297 48.2986 89.9297C47.9184 89.9297 47.6229 90.0469 47.4119 90.2812C47.201 90.513 47.0955 90.8112 47.0955 91.1758V95H45.9314V91.0117C45.9314 90.6862 45.8299 90.4245 45.6268 90.2266C45.4236 90.0286 45.1593 89.9297 44.8338 89.9297C44.6124 89.9297 44.408 89.9883 44.2205 90.1055C44.0356 90.2201 43.8859 90.3802 43.7713 90.5859C43.6593 90.7917 43.6033 91.0299 43.6033 91.3008V95H42.4354ZM53.7931 95.1328C53.4129 95.1328 53.0692 95.0625 52.7619 94.9219C52.4546 94.7786 52.2111 94.5716 52.0314 94.3008C51.8543 94.0299 51.7658 93.6979 51.7658 93.3047C51.7658 92.9661 51.8309 92.6875 51.9611 92.4687C52.0913 92.25 52.2671 92.0768 52.4884 91.9492C52.7098 91.8216 52.9572 91.7253 53.2306 91.6602C53.5041 91.5951 53.7827 91.5456 54.0666 91.5117C54.4259 91.4701 54.7176 91.4362 54.9416 91.4102C55.1655 91.3815 55.3283 91.3359 55.4298 91.2734C55.5314 91.2109 55.5822 91.1094 55.5822 90.9687V90.9414C55.5822 90.6003 55.4858 90.3359 55.2931 90.1484C55.103 89.9609 54.8192 89.8672 54.4416 89.8672C54.0483 89.8672 53.7384 89.9544 53.5119 90.1289C53.2879 90.3008 53.133 90.4922 53.047 90.7031L51.9494 90.4531C52.0796 90.0885 52.2697 89.7943 52.5197 89.5703C52.7723 89.3437 53.0627 89.1797 53.3908 89.0781C53.7189 88.974 54.064 88.9219 54.4259 88.9219C54.6655 88.9219 54.9194 88.9505 55.1877 89.0078C55.4585 89.0625 55.7111 89.1641 55.9455 89.3125C56.1824 89.4609 56.3765 89.6732 56.5275 89.9492C56.6785 90.2227 56.7541 90.5781 56.7541 91.0156V95H55.6134V94.1797H55.5666C55.491 94.3307 55.3778 94.4792 55.2267 94.625C55.0757 94.7708 54.8817 94.8919 54.6447 94.9883C54.4077 95.0846 54.1239 95.1328 53.7931 95.1328ZM54.047 94.1953C54.3699 94.1953 54.646 94.1315 54.8752 94.0039C55.1069 93.8763 55.2827 93.7096 55.4025 93.5039C55.5249 93.2956 55.5861 93.0729 55.5861 92.8359V92.0625C55.5444 92.1042 55.4637 92.1432 55.3439 92.1797C55.2267 92.2135 55.0926 92.2435 54.9416 92.2695C54.7905 92.293 54.6434 92.3151 54.5002 92.3359C54.3569 92.3542 54.2371 92.3698 54.1408 92.3828C53.9142 92.4115 53.7072 92.4596 53.5197 92.5273C53.3348 92.5951 53.1864 92.6927 53.0744 92.8203C52.965 92.9453 52.9103 93.112 52.9103 93.3203C52.9103 93.6094 53.0171 93.8281 53.2306 93.9766C53.4442 94.1224 53.7163 94.1953 54.047 94.1953ZM61.0009 97.25V89H62.1415V89.9727H62.2391C62.3068 89.8477 62.4045 89.7031 62.5321 89.5391C62.6597 89.375 62.8368 89.2318 63.0634 89.1094C63.2899 88.9844 63.5894 88.9219 63.9618 88.9219C64.4462 88.9219 64.8785 89.0443 65.2587 89.2891C65.6389 89.5339 65.9371 89.8867 66.1532 90.3477C66.372 90.8086 66.4813 91.3633 66.4813 92.0117C66.4813 92.6602 66.3733 93.2161 66.1571 93.6797C65.941 94.1406 65.6441 94.4961 65.2665 94.7461C64.8889 94.9935 64.4579 95.1172 63.9735 95.1172C63.6089 95.1172 63.3108 95.056 63.079 94.9336C62.8498 94.8112 62.6701 94.668 62.5399 94.5039C62.4097 94.3398 62.3095 94.194 62.2391 94.0664H62.1688V97.25H61.0009ZM62.1454 92C62.1454 92.4219 62.2066 92.7917 62.329 93.1094C62.4514 93.4271 62.6285 93.6758 62.8602 93.8555C63.092 94.0326 63.3759 94.1211 63.7118 94.1211C64.0608 94.1211 64.3524 94.0286 64.5868 93.8437C64.8212 93.6562 64.9983 93.4023 65.118 93.082C65.2404 92.7617 65.3016 92.401 65.3016 92C65.3016 91.6042 65.2417 91.2487 65.122 90.9336C65.0048 90.6185 64.8277 90.3698 64.5907 90.1875C64.3563 90.0052 64.0634 89.9141 63.7118 89.9141C63.3733 89.9141 63.0868 90.0013 62.8524 90.1758C62.6207 90.3503 62.4449 90.5937 62.3251 90.9062C62.2053 91.2187 62.1454 91.5833 62.1454 92ZM67.6799 95V89H68.8479V95H67.6799ZM68.2698 88.0742C68.0666 88.0742 67.8922 88.0065 67.7463 87.8711C67.6031 87.7331 67.5315 87.569 67.5315 87.3789C67.5315 87.1862 67.6031 87.0221 67.7463 86.8867C67.8922 86.7487 68.0666 86.6797 68.2698 86.6797C68.4729 86.6797 68.6461 86.7487 68.7893 86.8867C68.9351 87.0221 69.008 87.1862 69.008 87.3789C69.008 87.569 68.9351 87.7331 68.7893 87.8711C68.6461 88.0065 68.4729 88.0742 68.2698 88.0742ZM72.8951 95.1211C72.304 95.1211 71.7949 94.9948 71.3678 94.7422C70.9433 94.487 70.6152 94.1289 70.3834 93.668C70.1542 93.2044 70.0396 92.6615 70.0396 92.0391C70.0396 91.4245 70.1542 90.8828 70.3834 90.4141C70.6152 89.9453 70.9381 89.5794 71.3522 89.3164C71.7688 89.0534 72.2558 88.9219 72.8131 88.9219C73.1516 88.9219 73.4798 88.9779 73.7975 89.0898C74.1152 89.2018 74.4003 89.3776 74.6529 89.6172C74.9055 89.8568 75.1048 90.168 75.2506 90.5508C75.3964 90.931 75.4693 91.3932 75.4693 91.9375V92.3516H70.6998V91.4766H74.3248C74.3248 91.1693 74.2623 90.8971 74.1373 90.6602C74.0123 90.4206 73.8365 90.2318 73.61 90.0937C73.386 89.9557 73.123 89.8867 72.8209 89.8867C72.4928 89.8867 72.2063 89.9674 71.9615 90.1289C71.7193 90.2878 71.5318 90.4961 71.399 90.7539C71.2688 91.0091 71.2037 91.2865 71.2037 91.5859V92.2695C71.2037 92.6706 71.274 93.0117 71.4146 93.293C71.5579 93.5742 71.7571 93.7891 72.0123 93.9375C72.2675 94.0833 72.5657 94.1562 72.9068 94.1562C73.1282 94.1562 73.33 94.125 73.5123 94.0625C73.6946 93.9974 73.8522 93.901 73.985 93.7734C74.1178 93.6458 74.2193 93.4883 74.2897 93.3008L75.3951 93.5C75.3066 93.8255 75.1477 94.1107 74.9186 94.3555C74.692 94.5977 74.4068 94.7865 74.0631 94.9219C73.7219 95.0547 73.3326 95.1211 72.8951 95.1211ZM78.9013 95.1172C78.417 95.1172 77.9847 94.9935 77.6045 94.7461C77.2268 94.4961 76.93 94.1406 76.7138 93.6797C76.5003 93.2161 76.3935 92.6602 76.3935 92.0117C76.3935 91.3633 76.5016 90.8086 76.7177 90.3477C76.9365 89.8867 77.236 89.5339 77.6162 89.2891C77.9964 89.0443 78.4274 88.9219 78.9091 88.9219C79.2815 88.9219 79.581 88.9844 79.8076 89.1094C80.0367 89.2318 80.2138 89.375 80.3388 89.5391C80.4664 89.7031 80.5654 89.8477 80.6357 89.9727H80.706V87H81.874V95H80.7334V94.0664H80.6357C80.5654 94.194 80.4638 94.3398 80.331 94.5039C80.2008 94.668 80.0211 94.8112 79.792 94.9336C79.5628 95.056 79.2659 95.1172 78.9013 95.1172ZM79.1591 94.1211C79.4951 94.1211 79.7789 94.0326 80.0107 93.8555C80.2451 93.6758 80.4222 93.4271 80.542 93.1094C80.6643 92.7917 80.7255 92.4219 80.7255 92C80.7255 91.5833 80.6657 91.2187 80.5459 90.9062C80.4261 90.5937 80.2503 90.3503 80.0185 90.1758C79.7867 90.0013 79.5003 89.9141 79.1591 89.9141C78.8076 89.9141 78.5146 90.0052 78.2802 90.1875C78.0459 90.3698 77.8688 90.6185 77.749 90.9336C77.6318 91.2487 77.5732 91.6042 77.5732 92C77.5732 92.401 77.6331 92.7617 77.7529 93.082C77.8727 93.4023 78.0498 93.6562 78.2841 93.8437C78.5211 94.0286 78.8128 94.1211 79.1591 94.1211ZM85.1771 95.1328C84.7969 95.1328 84.4531 95.0625 84.1458 94.9219C83.8385 94.7786 83.595 94.5716 83.4154 94.3008C83.2383 94.0299 83.1497 93.6979 83.1497 93.3047C83.1497 92.9661 83.2148 92.6875 83.345 92.4687C83.4752 92.25 83.651 92.0768 83.8724 91.9492C84.0937 91.8216 84.3411 91.7253 84.6146 91.6602C84.888 91.5951 85.1667 91.5456 85.4505 91.5117C85.8099 91.4701 86.1015 91.4362 86.3255 91.4102C86.5495 91.3815 86.7122 91.3359 86.8138 91.2734C86.9154 91.2109 86.9661 91.1094 86.9661 90.9687V90.9414C86.9661 90.6003 86.8698 90.3359 86.6771 90.1484C86.487 89.9609 86.2031 89.8672 85.8255 89.8672C85.4323 89.8672 85.1224 89.9544 84.8958 90.1289C84.6719 90.3008 84.5169 90.4922 84.431 90.7031L83.3333 90.4531C83.4635 90.0885 83.6536 89.7943 83.9036 89.5703C84.1562 89.3437 84.4466 89.1797 84.7747 89.0781C85.1029 88.974 85.4479 88.9219 85.8099 88.9219C86.0495 88.9219 86.3034 88.9505 86.5716 89.0078C86.8424 89.0625 87.095 89.1641 87.3294 89.3125C87.5664 89.4609 87.7604 89.6732 87.9114 89.9492C88.0625 90.2227 88.138 90.5781 88.138 91.0156V95H86.9974V94.1797H86.9505C86.875 94.3307 86.7617 94.4792 86.6107 94.625C86.4596 94.7708 86.2656 94.8919 86.0286 94.9883C85.7917 95.0846 85.5078 95.1328 85.1771 95.1328ZM85.431 94.1953C85.7539 94.1953 86.0299 94.1315 86.2591 94.0039C86.4909 93.8763 86.6667 93.7096 86.7864 93.5039C86.9088 93.2956 86.97 93.0729 86.97 92.8359V92.0625C86.9284 92.1042 86.8476 92.1432 86.7279 92.1797C86.6107 92.2135 86.4765 92.2435 86.3255 92.2695C86.1745 92.293 86.0273 92.3151 85.8841 92.3359C85.7409 92.3542 85.6211 92.3698 85.5247 92.3828C85.2982 92.4115 85.0911 92.4596 84.9036 92.5273C84.7187 92.5951 84.5703 92.6927 84.4583 92.8203C84.3489 92.9453 84.2943 93.112 84.2943 93.3203C84.2943 93.6094 84.401 93.8281 84.6146 93.9766C84.8281 94.1224 85.1002 94.1953 85.431 94.1953ZM87.7239 87V87.8203H84.0169V87H87.7239ZM94.5016 89L92.3259 95H91.0759L88.8962 89H90.1501L91.6696 93.6172H91.7321L93.2477 89H94.5016ZM97.0635 95.1328C96.6833 95.1328 96.3396 95.0625 96.0323 94.9219C95.725 94.7786 95.4815 94.5716 95.3018 94.3008C95.1247 94.0299 95.0362 93.6979 95.0362 93.3047C95.0362 92.9661 95.1013 92.6875 95.2315 92.4687C95.3617 92.25 95.5375 92.0768 95.7588 91.9492C95.9802 91.8216 96.2276 91.7253 96.501 91.6602C96.7745 91.5951 97.0531 91.5456 97.337 91.5117C97.6963 91.4701 97.988 91.4362 98.212 91.4102C98.4359 91.3815 98.5987 91.3359 98.7002 91.2734C98.8018 91.2109 98.8526 91.1094 98.8526 90.9687V90.9414C98.8526 90.6003 98.7562 90.3359 98.5635 90.1484C98.3734 89.9609 98.0896 89.8672 97.712 89.8672C97.3187 89.8672 97.0088 89.9544 96.7823 90.1289C96.5583 90.3008 96.4034 90.4922 96.3174 90.7031L95.2198 90.4531C95.35 90.0885 95.5401 89.7943 95.7901 89.5703C96.0427 89.3437 96.333 89.1797 96.6612 89.0781C96.9893 88.974 97.3343 88.9219 97.6963 88.9219C97.9359 88.9219 98.1898 88.9505 98.458 89.0078C98.7289 89.0625 98.9815 89.1641 99.2159 89.3125C99.4528 89.4609 99.6468 89.6732 99.7979 89.9492C99.9489 90.2227 100.024 90.5781 100.024 91.0156V95H98.8838V94.1797H98.837C98.7614 94.3307 98.6482 94.4792 98.4971 94.625C98.3461 94.7708 98.1521 94.8919 97.9151 94.9883C97.6781 95.0846 97.3942 95.1328 97.0635 95.1328ZM97.3174 94.1953C97.6403 94.1953 97.9164 94.1315 98.1455 94.0039C98.3773 93.8763 98.5531 93.7096 98.6729 93.5039C98.7953 93.2956 98.8565 93.0729 98.8565 92.8359V92.0625C98.8148 92.1042 98.7341 92.1432 98.6143 92.1797C98.4971 92.2135 98.363 92.2435 98.212 92.2695C98.0609 92.293 97.9138 92.3151 97.7705 92.3359C97.6273 92.3542 97.5075 92.3698 97.4112 92.3828C97.1846 92.4115 96.9776 92.4596 96.7901 92.5273C96.6052 92.5951 96.4567 92.6927 96.3448 92.8203C96.2354 92.9453 96.1807 93.112 96.1807 93.3203C96.1807 93.6094 96.2875 93.8281 96.501 93.9766C96.7146 94.1224 96.9867 94.1953 97.3174 94.1953ZM99.6104 87V87.8203H95.9034V87H99.6104ZM105.345 92.9648L105.338 91.5391H105.541L107.931 89H109.33L106.603 91.8906H106.42L105.345 92.9648ZM104.271 95V87H105.439V95H104.271ZM108.06 95L105.912 92.1484L106.717 91.332L109.494 95H108.06ZM112.03 95.1328C111.65 95.1328 111.306 95.0625 110.999 94.9219C110.692 94.7786 110.448 94.5716 110.269 94.3008C110.092 94.0299 110.003 93.6979 110.003 93.3047C110.003 92.9661 110.068 92.6875 110.198 92.4687C110.329 92.25 110.504 92.0768 110.726 91.9492C110.947 91.8216 111.194 91.7253 111.468 91.6602C111.741 91.5951 112.02 91.5456 112.304 91.5117C112.663 91.4701 112.955 91.4362 113.179 91.4102C113.403 91.3815 113.566 91.3359 113.667 91.2734C113.769 91.2109 113.819 91.1094 113.819 90.9687V90.9414C113.819 90.6003 113.723 90.3359 113.53 90.1484C113.34 89.9609 113.056 89.8672 112.679 89.8672C112.286 89.8672 111.976 89.9544 111.749 90.1289C111.525 90.3008 111.37 90.4922 111.284 90.7031L110.187 90.4531C110.317 90.0885 110.507 89.7943 110.757 89.5703C111.01 89.3437 111.3 89.1797 111.628 89.0781C111.956 88.974 112.301 88.9219 112.663 88.9219C112.903 88.9219 113.157 88.9505 113.425 89.0078C113.696 89.0625 113.948 89.1641 114.183 89.3125C114.42 89.4609 114.614 89.6732 114.765 89.9492C114.916 90.2227 114.991 90.5781 114.991 91.0156V95H113.851V94.1797H113.804C113.728 94.3307 113.615 94.4792 113.464 94.625C113.313 94.7708 113.119 94.8919 112.882 94.9883C112.645 95.0846 112.361 95.1328 112.03 95.1328ZM112.284 94.1953C112.607 94.1953 112.883 94.1315 113.112 94.0039C113.344 93.8763 113.52 93.7096 113.64 93.5039C113.762 93.2956 113.823 93.0729 113.823 92.8359V92.0625C113.782 92.1042 113.701 92.1432 113.581 92.1797C113.464 92.2135 113.33 92.2435 113.179 92.2695C113.028 92.293 112.881 92.3151 112.737 92.3359C112.594 92.3542 112.474 92.3698 112.378 92.3828C112.151 92.4115 111.944 92.4596 111.757 92.5273C111.572 92.5951 111.424 92.6927 111.312 92.8203C111.202 92.9453 111.148 93.112 111.148 93.3203C111.148 93.6094 111.254 93.8281 111.468 93.9766C111.681 94.1224 111.954 94.1953 112.284 94.1953ZM119.238 89V89.9375H115.96V89H119.238ZM116.839 87.5625H118.007V93.2383C118.007 93.4648 118.041 93.6354 118.109 93.75C118.177 93.862 118.264 93.9388 118.371 93.9805C118.48 94.0195 118.598 94.0391 118.726 94.0391C118.82 94.0391 118.902 94.0326 118.972 94.0195C119.042 94.0065 119.097 93.9961 119.136 93.9883L119.347 94.9531C119.279 94.9792 119.183 95.0052 119.058 95.0313C118.933 95.0599 118.777 95.0755 118.589 95.0781C118.282 95.0833 117.996 95.0286 117.73 94.9141C117.464 94.7995 117.249 94.6224 117.085 94.3828C116.921 94.1432 116.839 93.8424 116.839 93.4805V87.5625ZM122.941 95.1211C122.35 95.1211 121.841 94.9948 121.414 94.7422C120.989 94.487 120.661 94.1289 120.43 93.668C120.2 93.2044 120.086 92.6615 120.086 92.0391C120.086 91.4245 120.2 90.8828 120.43 90.4141C120.661 89.9453 120.984 89.5794 121.398 89.3164C121.815 89.0534 122.302 88.9219 122.859 88.9219C123.198 88.9219 123.526 88.9779 123.844 89.0898C124.161 89.2018 124.446 89.3776 124.699 89.6172C124.952 89.8568 125.151 90.168 125.297 90.5508C125.443 90.931 125.515 91.3932 125.515 91.9375V92.3516H120.746V91.4766H124.371C124.371 91.1693 124.308 90.8971 124.183 90.6602C124.058 90.4206 123.883 90.2318 123.656 90.0937C123.432 89.9557 123.169 89.8867 122.867 89.8867C122.539 89.8867 122.252 89.9674 122.008 90.1289C121.765 90.2878 121.578 90.4961 121.445 90.7539C121.315 91.0091 121.25 91.2865 121.25 91.5859V92.2695C121.25 92.6706 121.32 93.0117 121.461 93.293C121.604 93.5742 121.803 93.7891 122.058 93.9375C122.314 94.0833 122.612 94.1562 122.953 94.1562C123.174 94.1562 123.376 94.125 123.558 94.0625C123.741 93.9974 123.898 93.901 124.031 93.7734C124.164 93.6458 124.265 93.4883 124.336 93.3008L125.441 93.5C125.353 93.8255 125.194 94.1107 124.965 94.3555C124.738 94.5977 124.453 94.7865 124.109 94.9219C123.768 95.0547 123.379 95.1211 122.941 95.1211ZM129.217 97.375C128.74 97.375 128.33 97.3125 127.987 97.1875C127.645 97.0625 127.367 96.8971 127.151 96.6914C126.934 96.4857 126.773 96.2604 126.666 96.0156L127.67 95.6016C127.74 95.7161 127.834 95.8372 127.951 95.9648C128.071 96.0951 128.233 96.2057 128.436 96.2969C128.641 96.388 128.906 96.4336 129.229 96.4336C129.671 96.4336 130.037 96.3255 130.326 96.1094C130.615 95.8958 130.76 95.5547 130.76 95.0859V93.9062H130.686C130.615 94.0339 130.514 94.1758 130.381 94.332C130.251 94.4883 130.071 94.6237 129.842 94.7383C129.613 94.8529 129.315 94.9102 128.947 94.9102C128.474 94.9102 128.046 94.7995 127.666 94.5781C127.289 94.3542 126.989 94.0247 126.768 93.5898C126.549 93.1523 126.44 92.6146 126.44 91.9766C126.44 91.3385 126.548 90.7917 126.764 90.3359C126.983 89.8802 127.282 89.5312 127.662 89.2891C128.043 89.0443 128.474 88.9219 128.955 88.9219C129.328 88.9219 129.628 88.9844 129.858 89.1094C130.087 89.2318 130.265 89.375 130.393 89.5391C130.523 89.7031 130.623 89.8477 130.694 89.9727H130.779V89H131.924V95.1328C131.924 95.6484 131.804 96.0716 131.565 96.4023C131.325 96.7331 131.001 96.9779 130.592 97.1367C130.186 97.2956 129.727 97.375 129.217 97.375ZM129.205 93.9414C129.541 93.9414 129.825 93.8633 130.057 93.707C130.291 93.5482 130.468 93.3216 130.588 93.0273C130.71 92.7305 130.772 92.375 130.772 91.9609C130.772 91.5573 130.712 91.2018 130.592 90.8945C130.472 90.5872 130.296 90.3477 130.065 90.1758C129.833 90.0013 129.546 89.9141 129.205 89.9141C128.854 89.9141 128.561 90.0052 128.326 90.1875C128.092 90.3672 127.915 90.612 127.795 90.9219C127.678 91.2318 127.619 91.5781 127.619 91.9609C127.619 92.3542 127.679 92.6992 127.799 92.9961C127.919 93.293 128.096 93.5247 128.33 93.6914C128.567 93.8581 128.859 93.9414 129.205 93.9414ZM135.908 95.1211C135.345 95.1211 134.854 94.9922 134.435 94.7344C134.016 94.4766 133.69 94.1159 133.459 93.6523C133.227 93.1888 133.111 92.6471 133.111 92.0273C133.111 91.4049 133.227 90.8607 133.459 90.3945C133.69 89.9284 134.016 89.5664 134.435 89.3086C134.854 89.0508 135.345 88.9219 135.908 88.9219C136.47 88.9219 136.961 89.0508 137.38 89.3086C137.8 89.5664 138.125 89.9284 138.357 90.3945C138.589 90.8607 138.705 91.4049 138.705 92.0273C138.705 92.6471 138.589 93.1888 138.357 93.6523C138.125 94.1159 137.8 94.4766 137.38 94.7344C136.961 94.9922 136.47 95.1211 135.908 95.1211ZM135.912 94.1406C136.276 94.1406 136.578 94.0443 136.818 93.8516C137.058 93.6589 137.235 93.4023 137.349 93.082C137.466 92.7617 137.525 92.4089 137.525 92.0234C137.525 91.6406 137.466 91.2891 137.349 90.9687C137.235 90.6458 137.058 90.3867 136.818 90.1914C136.578 89.9961 136.276 89.8984 135.912 89.8984C135.544 89.8984 135.24 89.9961 134.998 90.1914C134.758 90.3867 134.58 90.6458 134.462 90.9687C134.348 91.2891 134.291 91.6406 134.291 92.0234C134.291 92.4089 134.348 92.7617 134.462 93.082C134.58 93.4023 134.758 93.6589 134.998 93.8516C135.24 94.0443 135.544 94.1406 135.912 94.1406ZM139.898 95V89H141.027V89.9531H141.09C141.199 89.6302 141.392 89.3763 141.668 89.1914C141.947 89.0039 142.262 88.9102 142.613 88.9102C142.686 88.9102 142.772 88.9128 142.871 88.918C142.973 88.9232 143.052 88.9297 143.109 88.9375V90.0547C143.062 90.0417 142.979 90.0273 142.859 90.0117C142.74 89.9935 142.62 89.9844 142.5 89.9844C142.224 89.9844 141.978 90.043 141.762 90.1602C141.548 90.2747 141.379 90.4349 141.254 90.6406C141.129 90.8437 141.066 91.0755 141.066 91.3359V95H139.898ZM144.01 95V89H145.178V95H144.01ZM144.6 88.0742C144.397 88.0742 144.222 88.0065 144.076 87.8711C143.933 87.7331 143.862 87.569 143.862 87.3789C143.862 87.1862 143.933 87.0221 144.076 86.8867C144.222 86.7487 144.397 86.6797 144.6 86.6797C144.803 86.6797 144.976 86.7487 145.119 86.8867C145.265 87.0221 145.338 87.1862 145.338 87.3789C145.338 87.569 145.265 87.7331 145.119 87.8711C144.976 88.0065 144.803 88.0742 144.6 88.0742ZM146.639 89H147.807V95.3906C147.807 95.7917 147.734 96.1302 147.589 96.4062C147.445 96.6823 147.232 96.8919 146.948 97.0352C146.667 97.1784 146.319 97.25 145.905 97.25C145.863 97.25 145.824 97.25 145.788 97.25C145.749 97.25 145.708 97.2487 145.667 97.2461V96.2422C145.703 96.2422 145.736 96.2422 145.764 96.2422C145.79 96.2422 145.82 96.2422 145.854 96.2422C146.13 96.2422 146.329 96.168 146.452 96.0195C146.577 95.8737 146.639 95.6615 146.639 95.3828V89ZM147.217 88.0742C147.014 88.0742 146.84 88.0065 146.694 87.8711C146.551 87.7331 146.479 87.569 146.479 87.3789C146.479 87.1862 146.551 87.0221 146.694 86.8867C146.84 86.7487 147.014 86.6797 147.217 86.6797C147.421 86.6797 147.594 86.7487 147.737 86.8867C147.883 87.0221 147.956 87.1862 147.956 87.3789C147.956 87.569 147.883 87.7331 147.737 87.8711C147.594 88.0065 147.421 88.0742 147.217 88.0742ZM153.069 92.5117V89H154.241V95H153.093V93.9609H153.03C152.892 94.2813 152.671 94.5482 152.366 94.7617C152.064 94.9727 151.688 95.0781 151.237 95.0781C150.852 95.0781 150.511 94.9935 150.214 94.8242C149.92 94.6523 149.688 94.3984 149.519 94.0625C149.352 93.7266 149.269 93.3112 149.269 92.8164V89H150.437V92.6758C150.437 93.0846 150.55 93.4102 150.776 93.6523C151.003 93.8945 151.297 94.0156 151.659 94.0156C151.878 94.0156 152.095 93.9609 152.312 93.8516C152.53 93.7422 152.711 93.5768 152.854 93.3555C153 93.1341 153.072 92.8529 153.069 92.5117ZM158.502 97.25V89H159.642V89.9727H159.74C159.808 89.8477 159.905 89.7031 160.033 89.5391C160.161 89.375 160.338 89.2318 160.564 89.1094C160.791 88.9844 161.09 88.9219 161.463 88.9219C161.947 88.9219 162.379 89.0443 162.759 89.2891C163.14 89.5339 163.438 89.8867 163.654 90.3477C163.873 90.8086 163.982 91.3633 163.982 92.0117C163.982 92.6602 163.874 93.2161 163.658 93.6797C163.442 94.1406 163.145 94.4961 162.767 94.7461C162.39 94.9935 161.959 95.1172 161.474 95.1172C161.11 95.1172 160.812 95.056 160.58 94.9336C160.351 94.8112 160.171 94.668 160.041 94.5039C159.911 94.3398 159.81 94.194 159.74 94.0664H159.67V97.25H158.502ZM159.646 92C159.646 92.4219 159.707 92.7917 159.83 93.1094C159.952 93.4271 160.129 93.6758 160.361 93.8555C160.593 94.0326 160.877 94.1211 161.213 94.1211C161.562 94.1211 161.853 94.0286 162.088 93.8437C162.322 93.6562 162.499 93.4023 162.619 93.082C162.741 92.7617 162.802 92.401 162.802 92C162.802 91.6042 162.743 91.2487 162.623 90.9336C162.506 90.6185 162.329 90.3698 162.092 90.1875C161.857 90.0052 161.564 89.9141 161.213 89.9141C160.874 89.9141 160.588 90.0013 160.353 90.1758C160.121 90.3503 159.946 90.5937 159.826 90.9062C159.706 91.2187 159.646 91.5833 159.646 92ZM167.767 95.1211C167.176 95.1211 166.666 94.9948 166.239 94.7422C165.815 94.487 165.487 94.1289 165.255 93.668C165.026 93.2044 164.911 92.6615 164.911 92.0391C164.911 91.4245 165.026 90.8828 165.255 90.4141C165.487 89.9453 165.81 89.5794 166.224 89.3164C166.64 89.0534 167.127 88.9219 167.685 88.9219C168.023 88.9219 168.351 88.9779 168.669 89.0898C168.987 89.2018 169.272 89.3776 169.524 89.6172C169.777 89.8568 169.976 90.168 170.122 90.5508C170.268 90.931 170.341 91.3932 170.341 91.9375V92.3516H165.571V91.4766H169.196C169.196 91.1693 169.134 90.8971 169.009 90.6602C168.884 90.4206 168.708 90.2318 168.482 90.0937C168.258 89.9557 167.995 89.8867 167.692 89.8867C167.364 89.8867 167.078 89.9674 166.833 90.1289C166.591 90.2878 166.403 90.4961 166.271 90.7539C166.14 91.0091 166.075 91.2865 166.075 91.5859V92.2695C166.075 92.6706 166.146 93.0117 166.286 93.293C166.429 93.5742 166.629 93.7891 166.884 93.9375C167.139 94.0833 167.437 94.1562 167.778 94.1562C168 94.1562 168.202 94.125 168.384 94.0625C168.566 93.9974 168.724 93.901 168.857 93.7734C168.989 93.6458 169.091 93.4883 169.161 93.3008L170.267 93.5C170.178 93.8255 170.019 94.1107 169.79 94.3555C169.564 94.5977 169.278 94.7865 168.935 94.9219C168.594 95.0547 168.204 95.1211 167.767 95.1211ZM169.493 87V87.8203H165.786V87H169.493ZM174.054 95.1211C173.473 95.1211 172.973 94.9896 172.554 94.7266C172.137 94.4609 171.817 94.0951 171.593 93.6289C171.369 93.1628 171.257 92.6289 171.257 92.0273C171.257 91.418 171.372 90.8802 171.601 90.4141C171.83 89.9453 172.153 89.5794 172.57 89.3164C172.986 89.0534 173.477 88.9219 174.042 88.9219C174.498 88.9219 174.904 89.0065 175.261 89.1758C175.618 89.3424 175.906 89.5768 176.124 89.8789C176.346 90.181 176.477 90.5339 176.519 90.9375H175.382C175.32 90.6562 175.177 90.4141 174.953 90.2109C174.731 90.0078 174.434 89.9062 174.062 89.9062C173.736 89.9062 173.451 89.9922 173.206 90.1641C172.964 90.3333 172.775 90.5755 172.64 90.8906C172.505 91.2031 172.437 91.5729 172.437 92C172.437 92.4375 172.503 92.8151 172.636 93.1328C172.769 93.4505 172.956 93.6966 173.199 93.8711C173.443 94.0456 173.731 94.1328 174.062 94.1328C174.283 94.1328 174.484 94.0924 174.664 94.0117C174.846 93.9284 174.998 93.8099 175.121 93.6562C175.246 93.5026 175.333 93.3177 175.382 93.1016H176.519C176.477 93.4896 176.351 93.8359 176.14 94.1406C175.929 94.4453 175.647 94.6849 175.292 94.8594C174.941 95.0339 174.528 95.1211 174.054 95.1211ZM19.0313 108.117C18.5469 108.117 18.1146 107.993 17.7344 107.746C17.3568 107.496 17.0599 107.141 16.8438 106.68C16.6302 106.216 16.5234 105.66 16.5234 105.012C16.5234 104.363 16.6315 103.809 16.8477 103.348C17.0664 102.887 17.3659 102.534 17.7461 102.289C18.1263 102.044 18.5573 101.922 19.0391 101.922C19.4115 101.922 19.7109 101.984 19.9375 102.109C20.1667 102.232 20.3438 102.375 20.4688 102.539C20.5964 102.703 20.6953 102.848 20.7656 102.973H20.8359V100H22.0039V108H20.8633V107.066H20.7656C20.6953 107.194 20.5938 107.34 20.4609 107.504C20.3307 107.668 20.151 107.811 19.9219 107.934C19.6927 108.056 19.3958 108.117 19.0313 108.117ZM19.2891 107.121C19.625 107.121 19.9089 107.033 20.1406 106.855C20.375 106.676 20.5521 106.427 20.6719 106.109C20.7943 105.792 20.8555 105.422 20.8555 105C20.8555 104.583 20.7956 104.219 20.6758 103.906C20.556 103.594 20.3802 103.35 20.1484 103.176C19.9167 103.001 19.6302 102.914 19.2891 102.914C18.9375 102.914 18.6445 103.005 18.4102 103.188C18.1758 103.37 17.9987 103.618 17.8789 103.934C17.7617 104.249 17.7031 104.604 17.7031 105C17.7031 105.401 17.763 105.762 17.8828 106.082C18.0026 106.402 18.1797 106.656 18.4141 106.844C18.651 107.029 18.9427 107.121 19.2891 107.121ZM25.307 108.133C24.9268 108.133 24.583 108.063 24.2757 107.922C23.9685 107.779 23.725 107.572 23.5453 107.301C23.3682 107.03 23.2796 106.698 23.2796 106.305C23.2796 105.966 23.3448 105.687 23.475 105.469C23.6052 105.25 23.781 105.077 24.0023 104.949C24.2237 104.822 24.4711 104.725 24.7445 104.66C25.0179 104.595 25.2966 104.546 25.5804 104.512C25.9398 104.47 26.2315 104.436 26.4554 104.41C26.6794 104.382 26.8421 104.336 26.9437 104.273C27.0453 104.211 27.0961 104.109 27.0961 103.969V103.941C27.0961 103.6 26.9997 103.336 26.807 103.148C26.6169 102.961 26.333 102.867 25.9554 102.867C25.5622 102.867 25.2523 102.954 25.0257 103.129C24.8018 103.301 24.6468 103.492 24.5609 103.703L23.4632 103.453C23.5935 103.089 23.7836 102.794 24.0336 102.57C24.2862 102.344 24.5765 102.18 24.9046 102.078C25.2328 101.974 25.5778 101.922 25.9398 101.922C26.1794 101.922 26.4333 101.951 26.7015 102.008C26.9724 102.062 27.225 102.164 27.4593 102.312C27.6963 102.461 27.8903 102.673 28.0414 102.949C28.1924 103.223 28.2679 103.578 28.2679 104.016V108H27.1273V107.18H27.0804C27.0049 107.331 26.8916 107.479 26.7406 107.625C26.5895 107.771 26.3955 107.892 26.1586 107.988C25.9216 108.085 25.6377 108.133 25.307 108.133ZM25.5609 107.195C25.8838 107.195 26.1599 107.132 26.389 107.004C26.6208 106.876 26.7966 106.71 26.9164 106.504C27.0388 106.296 27.1 106.073 27.1 105.836V105.062C27.0583 105.104 26.9776 105.143 26.8578 105.18C26.7406 105.214 26.6065 105.243 26.4554 105.27C26.3044 105.293 26.1573 105.315 26.014 105.336C25.8708 105.354 25.751 105.37 25.6546 105.383C25.4281 105.411 25.2211 105.46 25.0336 105.527C24.8487 105.595 24.7002 105.693 24.5882 105.82C24.4789 105.945 24.4242 106.112 24.4242 106.32C24.4242 106.609 24.531 106.828 24.7445 106.977C24.958 107.122 25.2302 107.195 25.5609 107.195ZM29.7136 108V102H30.8425V102.953H30.905C31.0144 102.63 31.2071 102.376 31.4831 102.191C31.7618 102.004 32.0769 101.91 32.4284 101.91C32.5014 101.91 32.5873 101.913 32.6863 101.918C32.7878 101.923 32.8672 101.93 32.9245 101.937V103.055C32.8777 103.042 32.7943 103.027 32.6745 103.012C32.5547 102.993 32.4349 102.984 32.3152 102.984C32.0391 102.984 31.793 103.043 31.5769 103.16C31.3633 103.275 31.1941 103.435 31.0691 103.641C30.9441 103.844 30.8816 104.076 30.8816 104.336V108H29.7136ZM33.8253 108V102H34.9932V108H33.8253ZM36.2706 100V100.82H32.5636V100H36.2706ZM36.895 102H38.0629V108.391C38.0629 108.792 37.99 109.13 37.8442 109.406C37.7009 109.682 37.4874 109.892 37.2036 110.035C36.9223 110.178 36.5746 110.25 36.1606 110.25C36.1189 110.25 36.0799 110.25 36.0434 110.25C36.0043 110.25 35.964 110.249 35.9223 110.246V109.242C35.9588 109.242 35.9913 109.242 36.02 109.242C36.046 109.242 36.0759 109.242 36.1098 109.242C36.3858 109.242 36.5851 109.168 36.7075 109.02C36.8325 108.874 36.895 108.661 36.895 108.383V102ZM37.4731 101.074C37.27 101.074 37.0955 101.007 36.9496 100.871C36.8064 100.733 36.7348 100.569 36.7348 100.379C36.7348 100.186 36.8064 100.022 36.9496 99.8867C37.0955 99.7487 37.27 99.6797 37.4731 99.6797C37.6762 99.6797 37.8494 99.7487 37.9926 99.8867C38.1385 100.022 38.2114 100.186 38.2114 100.379C38.2114 100.569 38.1385 100.733 37.9926 100.871C37.8494 101.007 37.6762 101.074 37.4731 101.074ZM43.325 105.512V102H44.4969V108H43.3484V106.961H43.2859C43.1479 107.281 42.9266 107.548 42.6219 107.762C42.3198 107.973 41.9435 108.078 41.493 108.078C41.1076 108.078 40.7664 107.993 40.4695 107.824C40.1753 107.652 39.9435 107.398 39.7742 107.062C39.6076 106.727 39.5242 106.311 39.5242 105.816V102H40.6922V105.676C40.6922 106.085 40.8055 106.41 41.032 106.652C41.2586 106.895 41.5529 107.016 41.9148 107.016C42.1336 107.016 42.351 106.961 42.5672 106.852C42.7859 106.742 42.9669 106.577 43.1102 106.355C43.256 106.134 43.3276 105.853 43.325 105.512ZM45.9562 108V102H47.0773V102.977H47.1515C47.2765 102.646 47.481 102.388 47.7648 102.203C48.0487 102.016 48.3885 101.922 48.7843 101.922C49.1854 101.922 49.5213 102.016 49.7921 102.203C50.0656 102.391 50.2674 102.648 50.3976 102.977H50.4601C50.6033 102.656 50.8312 102.401 51.1437 102.211C51.4562 102.018 51.8286 101.922 52.2609 101.922C52.8052 101.922 53.2492 102.092 53.5929 102.434C53.9393 102.775 54.1125 103.289 54.1125 103.977V108H52.9445V104.086C52.9445 103.68 52.8338 103.385 52.6125 103.203C52.3911 103.021 52.1268 102.93 51.8195 102.93C51.4393 102.93 51.1437 103.047 50.9328 103.281C50.7218 103.513 50.6164 103.811 50.6164 104.176V108H49.4523V104.012C49.4523 103.686 49.3507 103.424 49.1476 103.227C48.9445 103.029 48.6802 102.93 48.3546 102.93C48.1333 102.93 47.9289 102.988 47.7414 103.105C47.5565 103.22 47.4067 103.38 47.2921 103.586C47.1802 103.792 47.1242 104.03 47.1242 104.301V108H45.9562ZM57.314 108.133C56.9338 108.133 56.59 108.063 56.2827 107.922C55.9754 107.779 55.732 107.572 55.5523 107.301C55.3752 107.03 55.2866 106.698 55.2866 106.305C55.2866 105.966 55.3517 105.687 55.482 105.469C55.6122 105.25 55.7879 105.077 56.0093 104.949C56.2307 104.822 56.478 104.725 56.7515 104.66C57.0249 104.595 57.3036 104.546 57.5874 104.512C57.9468 104.47 58.2385 104.436 58.4624 104.41C58.6864 104.382 58.8491 104.336 58.9507 104.273C59.0523 104.211 59.103 104.109 59.103 103.969V103.941C59.103 103.6 59.0067 103.336 58.814 103.148C58.6239 102.961 58.34 102.867 57.9624 102.867C57.5692 102.867 57.2593 102.954 57.0327 103.129C56.8088 103.301 56.6538 103.492 56.5679 103.703L55.4702 103.453C55.6004 103.089 55.7905 102.794 56.0405 102.57C56.2932 102.344 56.5835 102.18 56.9116 102.078C57.2398 101.974 57.5848 101.922 57.9468 101.922C58.1864 101.922 58.4403 101.951 58.7085 102.008C58.9793 102.062 59.232 102.164 59.4663 102.312C59.7033 102.461 59.8973 102.673 60.0484 102.949C60.1994 103.223 60.2749 103.578 60.2749 104.016V108H59.1343V107.18H59.0874C59.0119 107.331 58.8986 107.479 58.7476 107.625C58.5965 107.771 58.4025 107.892 58.1655 107.988C57.9286 108.085 57.6447 108.133 57.314 108.133ZM57.5679 107.195C57.8908 107.195 58.1668 107.132 58.396 107.004C58.6278 106.876 58.8036 106.71 58.9234 106.504C59.0458 106.296 59.107 106.073 59.107 105.836V105.062C59.0653 105.104 58.9846 105.143 58.8648 105.18C58.7476 105.214 58.6135 105.243 58.4624 105.27C58.3114 105.293 58.1642 105.315 58.021 105.336C57.8778 105.354 57.758 105.37 57.6616 105.383C57.4351 105.411 57.228 105.46 57.0405 105.527C56.8557 105.595 56.7072 105.693 56.5952 105.82C56.4859 105.945 56.4312 106.112 56.4312 106.32C56.4312 106.609 56.5379 106.828 56.7515 106.977C56.965 107.122 57.2372 107.195 57.5679 107.195ZM66.2678 108.133C65.8876 108.133 65.5439 108.063 65.2366 107.922C64.9293 107.779 64.6858 107.572 64.5061 107.301C64.329 107.03 64.2405 106.698 64.2405 106.305C64.2405 105.966 64.3056 105.687 64.4358 105.469C64.566 105.25 64.7418 105.077 64.9631 104.949C65.1845 104.822 65.4319 104.725 65.7053 104.66C65.9787 104.595 66.2574 104.546 66.5412 104.512C66.9006 104.47 67.1923 104.436 67.4162 104.41C67.6402 104.382 67.803 104.336 67.9045 104.273C68.0061 104.211 68.0569 104.109 68.0569 103.969V103.941C68.0569 103.6 67.9605 103.336 67.7678 103.148C67.5777 102.961 67.2939 102.867 66.9162 102.867C66.523 102.867 66.2131 102.954 65.9866 103.129C65.7626 103.301 65.6077 103.492 65.5217 103.703L64.4241 103.453C64.5543 103.089 64.7444 102.794 64.9944 102.57C65.247 102.344 65.5373 102.18 65.8655 102.078C66.1936 101.974 66.5386 101.922 66.9006 101.922C67.1402 101.922 67.3941 101.951 67.6623 102.008C67.9332 102.062 68.1858 102.164 68.4202 102.312C68.6571 102.461 68.8511 102.673 69.0022 102.949C69.1532 103.223 69.2287 103.578 69.2287 104.016V108H68.0881V107.18H68.0412C67.9657 107.331 67.8524 107.479 67.7014 107.625C67.5504 107.771 67.3564 107.892 67.1194 107.988C66.8824 108.085 66.5985 108.133 66.2678 108.133ZM66.5217 107.195C66.8446 107.195 67.1207 107.132 67.3498 107.004C67.5816 106.876 67.7574 106.71 67.8772 106.504C67.9996 106.296 68.0608 106.073 68.0608 105.836V105.062C68.0191 105.104 67.9384 105.143 67.8186 105.18C67.7014 105.214 67.5673 105.243 67.4162 105.27C67.2652 105.293 67.1181 105.315 66.9748 105.336C66.8316 105.354 66.7118 105.37 66.6155 105.383C66.3889 105.411 66.1819 105.46 65.9944 105.527C65.8095 105.595 65.661 105.693 65.5491 105.82C65.4397 105.945 65.385 106.112 65.385 106.32C65.385 106.609 65.4918 106.828 65.7053 106.977C65.9189 107.122 66.191 107.195 66.5217 107.195ZM70.6744 110.25V102H71.815V102.973H71.9127C71.9804 102.848 72.0781 102.703 72.2057 102.539C72.3333 102.375 72.5104 102.232 72.7369 102.109C72.9635 101.984 73.263 101.922 73.6354 101.922C74.1197 101.922 74.552 102.044 74.9322 102.289C75.3124 102.534 75.6106 102.887 75.8268 103.348C76.0455 103.809 76.1549 104.363 76.1549 105.012C76.1549 105.66 76.0468 106.216 75.8307 106.68C75.6145 107.141 75.3176 107.496 74.94 107.746C74.5624 107.993 74.1314 108.117 73.6471 108.117C73.2825 108.117 72.9843 108.056 72.7525 107.934C72.5234 107.811 72.3437 107.668 72.2135 107.504C72.0833 107.34 71.983 107.194 71.9127 107.066H71.8424V110.25H70.6744ZM71.8189 105C71.8189 105.422 71.8801 105.792 72.0025 106.109C72.1249 106.427 72.302 106.676 72.5338 106.855C72.7656 107.033 73.0494 107.121 73.3854 107.121C73.7343 107.121 74.026 107.029 74.2604 106.844C74.4947 106.656 74.6718 106.402 74.7916 106.082C74.914 105.762 74.9752 105.401 74.9752 105C74.9752 104.604 74.9153 104.249 74.7955 103.934C74.6783 103.618 74.5012 103.37 74.2643 103.188C74.0299 103.005 73.7369 102.914 73.3854 102.914C73.0468 102.914 72.7604 103.001 72.526 103.176C72.2942 103.35 72.1184 103.594 71.9986 103.906C71.8788 104.219 71.8189 104.583 71.8189 105ZM77.3535 108V102H78.4824V102.953H78.5449C78.6543 102.63 78.847 102.376 79.123 102.191C79.4017 102.004 79.7168 101.91 80.0683 101.91C80.1412 101.91 80.2272 101.913 80.3261 101.918C80.4277 101.923 80.5071 101.93 80.5644 101.937V103.055C80.5175 103.042 80.4342 103.027 80.3144 103.012C80.1946 102.993 80.0748 102.984 79.955 102.984C79.679 102.984 79.4329 103.043 79.2168 103.16C79.0032 103.275 78.8339 103.435 78.7089 103.641C78.5839 103.844 78.5214 104.076 78.5214 104.336V108H77.3535ZM83.1575 108.133C82.7773 108.133 82.4336 108.063 82.1263 107.922C81.819 107.779 81.5755 107.572 81.3958 107.301C81.2187 107.03 81.1302 106.698 81.1302 106.305C81.1302 105.966 81.1953 105.687 81.3255 105.469C81.4557 105.25 81.6315 105.077 81.8529 104.949C82.0742 104.822 82.3216 104.725 82.595 104.66C82.8685 104.595 83.1471 104.546 83.431 104.512C83.7904 104.47 84.082 104.436 84.306 104.41C84.5299 104.382 84.6927 104.336 84.7943 104.273C84.8958 104.211 84.9466 104.109 84.9466 103.969V103.941C84.9466 103.6 84.8502 103.336 84.6575 103.148C84.4674 102.961 84.1836 102.867 83.806 102.867C83.4127 102.867 83.1029 102.954 82.8763 103.129C82.6523 103.301 82.4974 103.492 82.4114 103.703L81.3138 103.453C81.444 103.089 81.6341 102.794 81.8841 102.57C82.1367 102.344 82.4271 102.18 82.7552 102.078C83.0833 101.974 83.4284 101.922 83.7904 101.922C84.0299 101.922 84.2838 101.951 84.5521 102.008C84.8229 102.062 85.0755 102.164 85.3099 102.312C85.5469 102.461 85.7409 102.673 85.8919 102.949C86.043 103.223 86.1185 103.578 86.1185 104.016V108H84.9779V107.18H84.931C84.8555 107.331 84.7422 107.479 84.5911 107.625C84.4401 107.771 84.2461 107.892 84.0091 107.988C83.7721 108.085 83.4883 108.133 83.1575 108.133ZM83.4114 107.195C83.7344 107.195 84.0104 107.132 84.2396 107.004C84.4713 106.876 84.6471 106.71 84.7669 106.504C84.8893 106.296 84.9505 106.073 84.9505 105.836V105.062C84.9088 105.104 84.8281 105.143 84.7083 105.18C84.5911 105.214 84.457 105.243 84.306 105.27C84.1549 105.293 84.0078 105.315 83.8646 105.336C83.7213 105.354 83.6015 105.37 83.5052 105.383C83.2786 105.411 83.0716 105.46 82.8841 105.527C82.6992 105.595 82.5508 105.693 82.4388 105.82C82.3294 105.945 82.2747 106.112 82.2747 106.32C82.2747 106.609 82.3815 106.828 82.595 106.977C82.8086 107.122 83.0807 107.195 83.4114 107.195ZM88.6384 105.965L88.6305 104.539H88.8337L91.2243 102H92.6227L89.8962 104.891H89.7126L88.6384 105.965ZM87.5641 108V100H88.7321V108H87.5641ZM91.3532 108L89.2048 105.148L90.0095 104.332L92.7868 108H91.3532ZM98.0733 103.465L97.0147 103.652C96.9704 103.517 96.9001 103.388 96.8037 103.266C96.71 103.143 96.5824 103.043 96.4209 102.965C96.2595 102.887 96.0577 102.848 95.8155 102.848C95.4847 102.848 95.2087 102.922 94.9873 103.07C94.766 103.216 94.6553 103.405 94.6553 103.637C94.6553 103.837 94.7295 103.999 94.878 104.121C95.0264 104.243 95.266 104.344 95.5967 104.422L96.5498 104.641C97.1019 104.768 97.5134 104.965 97.7842 105.23C98.0551 105.496 98.1905 105.841 98.1905 106.266C98.1905 106.625 98.0863 106.945 97.878 107.227C97.6722 107.505 97.3845 107.724 97.0147 107.883C96.6475 108.042 96.2217 108.121 95.7373 108.121C95.0655 108.121 94.5173 107.978 94.0928 107.691C93.6683 107.402 93.4079 106.992 93.3116 106.461L94.4405 106.289C94.5108 106.583 94.6553 106.806 94.8741 106.957C95.0928 107.105 95.378 107.18 95.7295 107.18C96.1123 107.18 96.4183 107.1 96.6475 106.941C96.8767 106.78 96.9912 106.583 96.9912 106.352C96.9912 106.164 96.9209 106.007 96.7803 105.879C96.6423 105.751 96.4301 105.655 96.1436 105.59L95.128 105.367C94.5681 105.24 94.154 105.036 93.8858 104.758C93.6202 104.479 93.4873 104.126 93.4873 103.699C93.4873 103.345 93.5863 103.035 93.7842 102.77C93.9821 102.504 94.2556 102.297 94.6045 102.148C94.9535 101.997 95.3532 101.922 95.8037 101.922C96.4522 101.922 96.9626 102.062 97.335 102.344C97.7074 102.622 97.9535 102.996 98.0733 103.465ZM102.165 102V102.937H98.8881V102H102.165ZM99.767 100.562H100.935V106.238C100.935 106.465 100.969 106.635 101.037 106.75C101.104 106.862 101.191 106.939 101.298 106.98C101.408 107.02 101.526 107.039 101.654 107.039C101.747 107.039 101.829 107.033 101.9 107.02C101.97 107.007 102.025 106.996 102.064 106.988L102.275 107.953C102.207 107.979 102.111 108.005 101.986 108.031C101.861 108.06 101.704 108.076 101.517 108.078C101.21 108.083 100.923 108.029 100.658 107.914C100.392 107.799 100.177 107.622 100.013 107.383C99.849 107.143 99.767 106.842 99.767 106.48V100.562ZM105.094 108.133C104.713 108.133 104.37 108.063 104.062 107.922C103.755 107.779 103.511 107.572 103.332 107.301C103.155 107.03 103.066 106.698 103.066 106.305C103.066 105.966 103.131 105.687 103.261 105.469C103.392 105.25 103.567 105.077 103.789 104.949C104.01 104.822 104.258 104.725 104.531 104.66C104.804 104.595 105.083 104.546 105.367 104.512C105.726 104.47 106.018 104.436 106.242 104.41C106.466 104.382 106.629 104.336 106.73 104.273C106.832 104.211 106.883 104.109 106.883 103.969V103.941C106.883 103.6 106.786 103.336 106.594 103.148C106.403 102.961 106.12 102.867 105.742 102.867C105.349 102.867 105.039 102.954 104.812 103.129C104.588 103.301 104.433 103.492 104.347 103.703L103.25 103.453C103.38 103.089 103.57 102.794 103.82 102.57C104.073 102.344 104.363 102.18 104.691 102.078C105.019 101.974 105.364 101.922 105.726 101.922C105.966 101.922 106.22 101.951 106.488 102.008C106.759 102.062 107.011 102.164 107.246 102.312C107.483 102.461 107.677 102.673 107.828 102.949C107.979 103.223 108.054 103.578 108.054 104.016V108H106.914V107.18H106.867C106.791 107.331 106.678 107.479 106.527 107.625C106.376 107.771 106.182 107.892 105.945 107.988C105.708 108.085 105.424 108.133 105.094 108.133ZM105.347 107.195C105.67 107.195 105.946 107.132 106.176 107.004C106.407 106.876 106.583 106.71 106.703 106.504C106.825 106.296 106.886 106.073 106.886 105.836V105.062C106.845 105.104 106.764 105.143 106.644 105.18C106.527 105.214 106.393 105.243 106.242 105.27C106.091 105.293 105.944 105.315 105.801 105.336C105.657 105.354 105.538 105.37 105.441 105.383C105.215 105.411 105.008 105.46 104.82 105.527C104.635 105.595 104.487 105.693 104.375 105.82C104.265 105.945 104.211 106.112 104.211 106.32C104.211 106.609 104.317 106.828 104.531 106.977C104.745 107.122 105.017 107.195 105.347 107.195ZM111.02 106.906L110.961 107.332C110.922 107.645 110.856 107.97 110.762 108.309C110.671 108.65 110.576 108.966 110.477 109.258C110.38 109.549 110.301 109.781 110.238 109.953H109.41C109.444 109.792 109.491 109.573 109.551 109.297C109.611 109.023 109.669 108.717 109.727 108.379C109.784 108.04 109.827 107.695 109.856 107.344L109.895 106.906H111.02ZM115.325 108V100H116.493V102.973H116.563C116.631 102.848 116.729 102.703 116.856 102.539C116.984 102.375 117.161 102.232 117.388 102.109C117.614 101.984 117.914 101.922 118.286 101.922C118.77 101.922 119.203 102.044 119.583 102.289C119.963 102.534 120.261 102.887 120.477 103.348C120.696 103.809 120.806 104.363 120.806 105.012C120.806 105.66 120.697 106.216 120.481 106.68C120.265 107.141 119.968 107.496 119.591 107.746C119.213 107.993 118.782 108.117 118.298 108.117C117.933 108.117 117.635 108.056 117.403 107.934C117.174 107.811 116.994 107.668 116.864 107.504C116.734 107.34 116.634 107.194 116.563 107.066H116.466V108H115.325ZM116.47 105C116.47 105.422 116.531 105.792 116.653 106.109C116.776 106.427 116.953 106.676 117.184 106.855C117.416 107.033 117.7 107.121 118.036 107.121C118.385 107.121 118.677 107.029 118.911 106.844C119.145 106.656 119.322 106.402 119.442 106.082C119.565 105.762 119.626 105.401 119.626 105C119.626 104.604 119.566 104.249 119.446 103.934C119.329 103.618 119.152 103.37 118.915 103.188C118.681 103.005 118.388 102.914 118.036 102.914C117.697 102.914 117.411 103.001 117.177 103.176C116.945 103.35 116.769 103.594 116.649 103.906C116.529 104.219 116.47 104.583 116.47 105ZM124.593 108.121C124.002 108.121 123.493 107.995 123.066 107.742C122.641 107.487 122.313 107.129 122.081 106.668C121.852 106.204 121.738 105.661 121.738 105.039C121.738 104.424 121.852 103.883 122.081 103.414C122.313 102.945 122.636 102.579 123.05 102.316C123.467 102.053 123.954 101.922 124.511 101.922C124.849 101.922 125.178 101.978 125.495 102.09C125.813 102.202 126.098 102.378 126.351 102.617C126.603 102.857 126.803 103.168 126.948 103.551C127.094 103.931 127.167 104.393 127.167 104.937V105.352H122.398V104.477H126.023C126.023 104.169 125.96 103.897 125.835 103.66C125.71 103.421 125.534 103.232 125.308 103.094C125.084 102.956 124.821 102.887 124.519 102.887C124.191 102.887 123.904 102.967 123.659 103.129C123.417 103.288 123.23 103.496 123.097 103.754C122.967 104.009 122.902 104.286 122.902 104.586V105.27C122.902 105.671 122.972 106.012 123.113 106.293C123.256 106.574 123.455 106.789 123.71 106.937C123.965 107.083 124.264 107.156 124.605 107.156C124.826 107.156 125.028 107.125 125.21 107.062C125.392 106.997 125.55 106.901 125.683 106.773C125.816 106.646 125.917 106.488 125.988 106.301L127.093 106.5C127.004 106.826 126.846 107.111 126.616 107.355C126.39 107.598 126.105 107.786 125.761 107.922C125.42 108.055 125.03 108.121 124.593 108.121ZM131.154 102V102.937H127.877V102H131.154ZM128.755 100.562H129.923V106.238C129.923 106.465 129.957 106.635 130.025 106.75C130.093 106.862 130.18 106.939 130.287 106.98C130.396 107.02 130.515 107.039 130.642 107.039C130.736 107.039 130.818 107.033 130.888 107.02C130.959 107.007 131.013 106.996 131.052 106.988L131.263 107.953C131.196 107.979 131.099 108.005 130.974 108.031C130.849 108.06 130.693 108.076 130.505 108.078C130.198 108.083 129.912 108.029 129.646 107.914C129.38 107.799 129.166 107.622 129.002 107.383C128.837 107.143 128.755 106.842 128.755 106.48V100.562ZM137.653 110.375C137.176 110.375 136.766 110.313 136.422 110.188C136.081 110.063 135.802 109.897 135.586 109.691C135.37 109.486 135.209 109.26 135.102 109.016L136.106 108.602C136.176 108.716 136.27 108.837 136.387 108.965C136.507 109.095 136.668 109.206 136.871 109.297C137.077 109.388 137.341 109.434 137.664 109.434C138.107 109.434 138.473 109.326 138.762 109.109C139.051 108.896 139.196 108.555 139.196 108.086V106.906H139.121C139.051 107.034 138.949 107.176 138.817 107.332C138.686 107.488 138.507 107.624 138.278 107.738C138.048 107.853 137.75 107.91 137.383 107.91C136.909 107.91 136.482 107.799 136.102 107.578C135.724 107.354 135.425 107.025 135.203 106.59C134.985 106.152 134.875 105.615 134.875 104.977C134.875 104.339 134.983 103.792 135.199 103.336C135.418 102.88 135.718 102.531 136.098 102.289C136.478 102.044 136.909 101.922 137.391 101.922C137.763 101.922 138.064 101.984 138.293 102.109C138.522 102.232 138.701 102.375 138.828 102.539C138.959 102.703 139.059 102.848 139.129 102.973H139.215V102H140.36V108.133C140.36 108.648 140.24 109.072 140 109.402C139.761 109.733 139.436 109.978 139.028 110.137C138.621 110.296 138.163 110.375 137.653 110.375ZM137.641 106.941C137.977 106.941 138.261 106.863 138.492 106.707C138.727 106.548 138.904 106.322 139.024 106.027C139.146 105.73 139.207 105.375 139.207 104.961C139.207 104.557 139.147 104.202 139.028 103.895C138.908 103.587 138.732 103.348 138.5 103.176C138.269 103.001 137.982 102.914 137.641 102.914C137.289 102.914 136.996 103.005 136.762 103.188C136.528 103.367 136.351 103.612 136.231 103.922C136.114 104.232 136.055 104.578 136.055 104.961C136.055 105.354 136.115 105.699 136.235 105.996C136.354 106.293 136.532 106.525 136.766 106.691C137.003 106.858 137.295 106.941 137.641 106.941ZM143.562 108.133C143.182 108.133 142.838 108.063 142.531 107.922C142.224 107.779 141.98 107.572 141.8 107.301C141.623 107.03 141.535 106.698 141.535 106.305C141.535 105.966 141.6 105.687 141.73 105.469C141.86 105.25 142.036 105.077 142.257 104.949C142.479 104.822 142.726 104.725 143 104.66C143.273 104.595 143.552 104.546 143.836 104.512C144.195 104.47 144.487 104.436 144.711 104.41C144.935 104.382 145.097 104.336 145.199 104.273C145.3 104.211 145.351 104.109 145.351 103.969V103.941C145.351 103.6 145.255 103.336 145.062 103.148C144.872 102.961 144.588 102.867 144.211 102.867C143.817 102.867 143.507 102.954 143.281 103.129C143.057 103.301 142.902 103.492 142.816 103.703L141.718 103.453C141.849 103.089 142.039 102.794 142.289 102.57C142.541 102.344 142.832 102.18 143.16 102.078C143.488 101.974 143.833 101.922 144.195 101.922C144.435 101.922 144.688 101.951 144.957 102.008C145.228 102.062 145.48 102.164 145.714 102.312C145.951 102.461 146.145 102.673 146.297 102.949C146.448 103.223 146.523 103.578 146.523 104.016V108H145.382V107.18H145.336C145.26 107.331 145.147 107.479 144.996 107.625C144.845 107.771 144.651 107.892 144.414 107.988C144.177 108.085 143.893 108.133 143.562 108.133ZM143.816 107.195C144.139 107.195 144.415 107.132 144.644 107.004C144.876 106.876 145.052 106.71 145.172 106.504C145.294 106.296 145.355 106.073 145.355 105.836V105.062C145.313 105.104 145.233 105.143 145.113 105.18C144.996 105.214 144.862 105.243 144.711 105.27C144.56 105.293 144.412 105.315 144.269 105.336C144.126 105.354 144.006 105.37 143.91 105.383C143.683 105.411 143.476 105.46 143.289 105.527C143.104 105.595 142.955 105.693 142.843 105.82C142.734 105.945 142.679 106.112 142.679 106.32C142.679 106.609 142.786 106.828 143 106.977C143.213 107.122 143.485 107.195 143.816 107.195ZM149.137 100V108H147.969V100H149.137ZM152.344 108.133C151.964 108.133 151.62 108.063 151.313 107.922C151.006 107.779 150.762 107.572 150.582 107.301C150.405 107.03 150.317 106.698 150.317 106.305C150.317 105.966 150.382 105.687 150.512 105.469C150.642 105.25 150.818 105.077 151.039 104.949C151.261 104.822 151.508 104.725 151.782 104.66C152.055 104.595 152.334 104.546 152.618 104.512C152.977 104.47 153.269 104.436 153.493 104.41C153.716 104.382 153.879 104.336 153.981 104.273C154.082 104.211 154.133 104.109 154.133 103.969V103.941C154.133 103.6 154.037 103.336 153.844 103.148C153.654 102.961 153.37 102.867 152.993 102.867C152.599 102.867 152.289 102.954 152.063 103.129C151.839 103.301 151.684 103.492 151.598 103.703L150.5 103.453C150.631 103.089 150.821 102.794 151.071 102.57C151.323 102.344 151.614 102.18 151.942 102.078C152.27 101.974 152.615 101.922 152.977 101.922C153.216 101.922 153.47 101.951 153.739 102.008C154.009 102.062 154.262 102.164 154.496 102.312C154.733 102.461 154.927 102.673 155.078 102.949C155.23 103.223 155.305 103.578 155.305 104.016V108H154.164V107.18H154.118C154.042 107.331 153.929 107.479 153.778 107.625C153.627 107.771 153.433 107.892 153.196 107.988C152.959 108.085 152.675 108.133 152.344 108.133ZM152.598 107.195C152.921 107.195 153.197 107.132 153.426 107.004C153.658 106.876 153.834 106.71 153.953 106.504C154.076 106.296 154.137 106.073 154.137 105.836V105.062C154.095 105.104 154.015 105.143 153.895 105.18C153.778 105.214 153.644 105.243 153.493 105.27C153.341 105.293 153.194 105.315 153.051 105.336C152.908 105.354 152.788 105.37 152.692 105.383C152.465 105.411 152.258 105.46 152.071 105.527C151.886 105.595 151.737 105.693 151.625 105.82C151.516 105.945 151.461 106.112 151.461 106.32C151.461 106.609 151.568 106.828 151.782 106.977C151.995 107.122 152.267 107.195 152.598 107.195ZM17.9531 113V121H16.7852V113H17.9531ZM22.0004 121.121C21.4092 121.121 20.9001 120.995 20.473 120.742C20.0485 120.487 19.7204 120.129 19.4886 119.668C19.2595 119.204 19.1449 118.661 19.1449 118.039C19.1449 117.424 19.2595 116.883 19.4886 116.414C19.7204 115.945 20.0433 115.579 20.4574 115.316C20.874 115.053 21.361 114.922 21.9183 114.922C22.2569 114.922 22.585 114.978 22.9027 115.09C23.2204 115.202 23.5056 115.378 23.7582 115.617C24.0108 115.857 24.21 116.168 24.3558 116.551C24.5017 116.931 24.5746 117.393 24.5746 117.937V118.352H19.805V117.477H23.43C23.43 117.169 23.3675 116.897 23.2425 116.66C23.1175 116.421 22.9418 116.232 22.7152 116.094C22.4912 115.956 22.2282 115.887 21.9261 115.887C21.598 115.887 21.3115 115.967 21.0668 116.129C20.8246 116.288 20.6371 116.496 20.5043 116.754C20.374 117.009 20.3089 117.286 20.3089 117.586V118.27C20.3089 118.671 20.3793 119.012 20.5199 119.293C20.6631 119.574 20.8623 119.789 21.1175 119.937C21.3727 120.083 21.6709 120.156 22.0121 120.156C22.2334 120.156 22.4352 120.125 22.6175 120.062C22.7998 119.997 22.9574 119.901 23.0902 119.773C23.223 119.646 23.3246 119.488 23.3949 119.301L24.5004 119.5C24.4118 119.826 24.253 120.111 24.0238 120.355C23.7972 120.598 23.5121 120.786 23.1683 120.922C22.8272 121.055 22.4379 121.121 22.0004 121.121ZM23.7269 113V113.82H20.0199V113H23.7269ZM25.7605 121V115H26.8816V115.977H26.9558C27.0808 115.646 27.2852 115.388 27.5691 115.203C27.8529 115.016 28.1928 114.922 28.5886 114.922C28.9896 114.922 29.3256 115.016 29.5964 115.203C29.8698 115.391 30.0717 115.648 30.2019 115.977H30.2644C30.4076 115.656 30.6355 115.401 30.948 115.211C31.2605 115.018 31.6329 114.922 32.0652 114.922C32.6094 114.922 33.0534 115.092 33.3972 115.434C33.7435 115.775 33.9167 116.289 33.9167 116.977V121H32.7488V117.086C32.7488 116.68 32.6381 116.385 32.4167 116.203C32.1954 116.021 31.931 115.93 31.6238 115.93C31.2435 115.93 30.948 116.047 30.737 116.281C30.5261 116.513 30.4206 116.811 30.4206 117.176V121H29.2566V117.012C29.2566 116.686 29.155 116.424 28.9519 116.227C28.7487 116.029 28.4844 115.93 28.1589 115.93C27.9376 115.93 27.7331 115.988 27.5456 116.105C27.3607 116.22 27.211 116.38 27.0964 116.586C26.9844 116.792 26.9284 117.03 26.9284 117.301V121H25.7605ZM39.1729 118.512V115H40.3448V121H39.1964V119.961H39.1339C38.9958 120.281 38.7745 120.548 38.4698 120.762C38.1677 120.973 37.7914 121.078 37.3409 121.078C36.9555 121.078 36.6143 120.993 36.3175 120.824C36.0232 120.652 35.7914 120.398 35.6221 120.062C35.4555 119.727 35.3721 119.311 35.3721 118.816V115H36.5401V118.676C36.5401 119.085 36.6534 119.41 36.88 119.652C37.1065 119.895 37.4008 120.016 37.7628 120.016C37.9815 120.016 38.199 119.961 38.4151 119.852C38.6339 119.742 38.8149 119.577 38.9581 119.355C39.1039 119.134 39.1755 118.853 39.1729 118.512ZM41.8041 121V115H42.9252V115.977H42.9995C43.1245 115.646 43.3289 115.388 43.6127 115.203C43.8966 115.016 44.2364 114.922 44.6323 114.922C45.0333 114.922 45.3692 115.016 45.6401 115.203C45.9135 115.391 46.1153 115.648 46.2455 115.977H46.308C46.4513 115.656 46.6791 115.401 46.9916 115.211C47.3041 115.018 47.6765 114.922 48.1088 114.922C48.6531 114.922 49.0971 115.092 49.4409 115.434C49.7872 115.775 49.9604 116.289 49.9604 116.977V121H48.7924V117.086C48.7924 116.68 48.6817 116.385 48.4604 116.203C48.239 116.021 47.9747 115.93 47.6674 115.93C47.2872 115.93 46.9916 116.047 46.7807 116.281C46.5698 116.513 46.4643 116.811 46.4643 117.176V121H45.3002V117.012C45.3002 116.686 45.1987 116.424 44.9955 116.227C44.7924 116.029 44.5281 115.93 44.2026 115.93C43.9812 115.93 43.7768 115.988 43.5893 116.105C43.4044 116.22 43.2547 116.38 43.1401 116.586C43.0281 116.792 42.9721 117.03 42.9721 117.301V121H41.8041ZM55.9119 116.465L54.8533 116.652C54.8091 116.517 54.7387 116.388 54.6424 116.266C54.5486 116.143 54.421 116.043 54.2596 115.965C54.0981 115.887 53.8963 115.848 53.6541 115.848C53.3234 115.848 53.0473 115.922 52.826 116.07C52.6046 116.216 52.4939 116.405 52.4939 116.637C52.4939 116.837 52.5682 116.999 52.7166 117.121C52.865 117.243 53.1046 117.344 53.4354 117.422L54.3885 117.641C54.9406 117.768 55.352 117.965 55.6229 118.23C55.8937 118.496 56.0291 118.841 56.0291 119.266C56.0291 119.625 55.9249 119.945 55.7166 120.227C55.5109 120.505 55.2231 120.724 54.8533 120.883C54.4861 121.042 54.0604 121.121 53.576 121.121C52.9041 121.121 52.3559 120.978 51.9314 120.691C51.507 120.402 51.2466 119.992 51.1502 119.461L52.2791 119.289C52.3494 119.583 52.4939 119.806 52.7127 119.957C52.9314 120.105 53.2166 120.18 53.5682 120.18C53.951 120.18 54.257 120.1 54.4861 119.941C54.7153 119.78 54.8299 119.583 54.8299 119.352C54.8299 119.164 54.7596 119.007 54.6189 118.879C54.4809 118.751 54.2687 118.655 53.9822 118.59L52.9666 118.367C52.4067 118.24 51.9926 118.036 51.7244 117.758C51.4588 117.479 51.326 117.126 51.326 116.699C51.326 116.345 51.4249 116.035 51.6229 115.77C51.8208 115.504 52.0942 115.297 52.4432 115.148C52.7921 114.997 53.1919 114.922 53.6424 114.922C54.2908 114.922 54.8012 115.062 55.1736 115.344C55.546 115.622 55.7921 115.996 55.9119 116.465ZM60.0044 121V115H61.1724V121H60.0044ZM60.5943 114.074C60.3911 114.074 60.2167 114.007 60.0708 113.871C59.9276 113.733 59.856 113.569 59.856 113.379C59.856 113.186 59.9276 113.022 60.0708 112.887C60.2167 112.749 60.3911 112.68 60.5943 112.68C60.7974 112.68 60.9706 112.749 61.1138 112.887C61.2596 113.022 61.3325 113.186 61.3325 113.379C61.3325 113.569 61.2596 113.733 61.1138 113.871C60.9706 114.007 60.7974 114.074 60.5943 114.074ZM62.6337 121V115H63.7626V115.953H63.8251C63.9345 115.63 64.1272 115.376 64.4032 115.191C64.6818 115.004 64.997 114.91 65.3485 114.91C65.4214 114.91 65.5074 114.913 65.6063 114.918C65.7079 114.923 65.7873 114.93 65.8446 114.937V116.055C65.7977 116.042 65.7144 116.027 65.5946 116.012C65.4748 115.993 65.355 115.984 65.2352 115.984C64.9592 115.984 64.7131 116.043 64.497 116.16C64.2834 116.275 64.1141 116.435 63.9891 116.641C63.8641 116.844 63.8016 117.076 63.8016 117.336V121H62.6337ZM69.2457 114.039V113H75.4371V114.039H72.941V121H71.7379V114.039H69.2457ZM77.5312 121.133C77.151 121.133 76.8073 121.063 76.5 120.922C76.1927 120.779 75.9492 120.572 75.7695 120.301C75.5924 120.03 75.5039 119.698 75.5039 119.305C75.5039 118.966 75.569 118.687 75.6992 118.469C75.8294 118.25 76.0052 118.077 76.2265 117.949C76.4479 117.822 76.6953 117.725 76.9687 117.66C77.2421 117.595 77.5208 117.546 77.8046 117.512C78.164 117.47 78.4557 117.436 78.6796 117.41C78.9036 117.382 79.0664 117.336 79.1679 117.273C79.2695 117.211 79.3203 117.109 79.3203 116.969V116.941C79.3203 116.6 79.2239 116.336 79.0312 116.148C78.8411 115.961 78.5573 115.867 78.1796 115.867C77.7864 115.867 77.4765 115.954 77.25 116.129C77.026 116.301 76.8711 116.492 76.7851 116.703L75.6875 116.453C75.8177 116.089 76.0078 115.794 76.2578 115.57C76.5104 115.344 76.8007 115.18 77.1289 115.078C77.457 114.974 77.802 114.922 78.164 114.922C78.4036 114.922 78.6575 114.951 78.9257 115.008C79.1966 115.062 79.4492 115.164 79.6836 115.312C79.9205 115.461 80.1145 115.673 80.2656 115.949C80.4166 116.223 80.4921 116.578 80.4921 117.016V121H79.3515V120.18H79.3046C79.2291 120.331 79.1158 120.479 78.9648 120.625C78.8138 120.771 78.6198 120.892 78.3828 120.988C78.1458 121.085 77.8619 121.133 77.5312 121.133ZM77.7851 120.195C78.108 120.195 78.3841 120.132 78.6132 120.004C78.845 119.876 79.0208 119.71 79.1406 119.504C79.263 119.296 79.3242 119.073 79.3242 118.836V118.062C79.2825 118.104 79.2018 118.143 79.082 118.18C78.9648 118.214 78.8307 118.243 78.6796 118.27C78.5286 118.293 78.3815 118.315 78.2382 118.336C78.095 118.354 77.9752 118.37 77.8789 118.383C77.6523 118.411 77.4453 118.46 77.2578 118.527C77.0729 118.595 76.9244 118.693 76.8125 118.82C76.7031 118.945 76.6484 119.112 76.6484 119.32C76.6484 119.609 76.7552 119.828 76.9687 119.977C77.1823 120.122 77.4544 120.195 77.7851 120.195ZM86.8558 115L84.68 121H83.43L81.2503 115H82.5042L84.0238 119.617H84.0863L85.6019 115H86.8558ZM92.3395 116.465L91.2809 116.652C91.2367 116.517 91.1664 116.388 91.07 116.266C90.9762 116.143 90.8486 116.043 90.6872 115.965C90.5257 115.887 90.3239 115.848 90.0817 115.848C89.751 115.848 89.4749 115.922 89.2536 116.07C89.0322 116.216 88.9216 116.405 88.9216 116.637C88.9216 116.837 88.9958 116.999 89.1442 117.121C89.2927 117.243 89.5322 117.344 89.863 117.422L90.8161 117.641C91.3682 117.768 91.7796 117.965 92.0505 118.23C92.3213 118.496 92.4567 118.841 92.4567 119.266C92.4567 119.625 92.3526 119.945 92.1442 120.227C91.9385 120.505 91.6507 120.724 91.2809 120.883C90.9137 121.042 90.488 121.121 90.0036 121.121C89.3317 121.121 88.7835 120.978 88.3591 120.691C87.9346 120.402 87.6742 119.992 87.5778 119.461L88.7067 119.289C88.777 119.583 88.9216 119.806 89.1403 119.957C89.3591 120.105 89.6442 120.18 89.9958 120.18C90.3786 120.18 90.6846 120.1 90.9137 119.941C91.1429 119.78 91.2575 119.583 91.2575 119.352C91.2575 119.164 91.1872 119.007 91.0466 118.879C90.9085 118.751 90.6963 118.655 90.4098 118.59L89.3942 118.367C88.8343 118.24 88.4203 118.036 88.152 117.758C87.8864 117.479 87.7536 117.126 87.7536 116.699C87.7536 116.345 87.8526 116.035 88.0505 115.77C88.2484 115.504 88.5218 115.297 88.8708 115.148C89.2197 114.997 89.6195 114.922 90.07 114.922C90.7184 114.922 91.2289 115.062 91.6012 115.344C91.9736 115.622 92.2197 115.996 92.3395 116.465Z" fill="#1A1D27"/>
</svg>
