<svg width="200" height="159" viewBox="0 0 200 159" fill="none" xmlns="http://www.w3.org/2000/svg">
<rect width="200" height="159" rx="16" fill="white" fill-opacity="0.7"/>
<rect x="16" y="16" width="32" height="32" rx="16" fill="#1A1D27"/>
<path d="M29 28.25H32M34.25 34.25H35M29 31.25H35M29 35L29.75 35.75L31.25 34.25M28.4 38.75H35.6C36.4401 38.75 36.8601 38.75 37.181 38.5865C37.4632 38.4427 37.6927 38.2132 37.8365 37.931C38 37.6101 38 37.1901 38 36.35V27.65C38 26.8099 38 26.3899 37.8365 26.069C37.6927 25.7868 37.4632 25.5573 37.181 25.4135C36.8601 25.25 36.4401 25.25 35.6 25.25H28.4C27.5599 25.25 27.1399 25.25 26.819 25.4135C26.5368 25.5573 26.3073 25.7868 26.1635 26.069C26 26.3899 26 26.8099 26 27.65V36.35C26 37.1901 26 37.6101 26.1635 37.931C26.3073 38.2132 26.5368 38.4427 26.819 38.5865C27.1399 38.75 27.5599 38.75 28.4 38.75Z" stroke="white" stroke-width="1.5" stroke-linecap="round" stroke-linejoin="round"/>
<path d="M23.3239 67.7102C23.2784 67.2519 23.0833 66.8958 22.7386 66.642C22.3939 66.3883 21.9261 66.2614 21.3352 66.2614C20.9337 66.2614 20.5947 66.3182 20.3182 66.4318C20.0417 66.5417 19.8295 66.6951 19.6818 66.892C19.5379 67.089 19.4659 67.3125 19.4659 67.5625C19.4583 67.7708 19.5019 67.9527 19.5966 68.108C19.6951 68.2633 19.8295 68.3977 20 68.5114C20.1705 68.6212 20.3674 68.7178 20.5909 68.8011C20.8144 68.8807 21.053 68.9489 21.3068 69.0057L22.3523 69.2557C22.8598 69.3693 23.3258 69.5208 23.75 69.7102C24.1742 69.8996 24.5417 70.1326 24.8523 70.4091C25.1629 70.6856 25.4034 71.0114 25.5739 71.3864C25.7481 71.7614 25.8371 72.1913 25.8409 72.6761C25.8371 73.3883 25.6553 74.0057 25.2955 74.5284C24.9394 75.0473 24.4242 75.4508 23.75 75.7386C23.0795 76.0227 22.2708 76.1648 21.3239 76.1648C20.3845 76.1648 19.5663 76.0208 18.8693 75.733C18.1761 75.4451 17.6345 75.0189 17.2443 74.4545C16.858 73.8864 16.6553 73.1837 16.6364 72.3466H19.017C19.0436 72.7367 19.1553 73.0625 19.3523 73.3239C19.553 73.5814 19.8201 73.7765 20.1534 73.9091C20.4905 74.0379 20.8712 74.1023 21.2955 74.1023C21.7121 74.1023 22.0739 74.0417 22.3807 73.9205C22.6913 73.7992 22.9318 73.6307 23.1023 73.4148C23.2727 73.1989 23.358 72.9508 23.358 72.6705C23.358 72.4091 23.2803 72.1894 23.125 72.0114C22.9735 71.8333 22.75 71.6818 22.4545 71.5568C22.1629 71.4318 21.8049 71.3182 21.3807 71.2159L20.1136 70.8977C19.1326 70.6591 18.358 70.286 17.7898 69.7784C17.2216 69.2708 16.9394 68.5871 16.9432 67.7273C16.9394 67.0227 17.1269 66.4072 17.5057 65.8807C17.8883 65.3542 18.4129 64.9432 19.0795 64.6477C19.7462 64.3523 20.5038 64.2045 21.3523 64.2045C22.2159 64.2045 22.9697 64.3523 23.6136 64.6477C24.2614 64.9432 24.7652 65.3542 25.125 65.8807C25.4848 66.4072 25.6705 67.017 25.6818 67.7102H23.3239ZM31.2676 76.1705C30.3698 76.1705 29.5971 75.9886 28.9494 75.625C28.3054 75.2576 27.8092 74.7386 27.4607 74.0682C27.1123 73.3939 26.938 72.5966 26.938 71.6761C26.938 70.7784 27.1123 69.9905 27.4607 69.3125C27.8092 68.6345 28.2998 68.1061 28.9323 67.7273C29.5687 67.3485 30.3149 67.1591 31.171 67.1591C31.7467 67.1591 32.2827 67.2519 32.7789 67.4375C33.2789 67.6193 33.7145 67.8939 34.0857 68.2614C34.4607 68.6288 34.7524 69.0909 34.9607 69.6477C35.1691 70.2008 35.2732 70.8485 35.2732 71.5909V72.2557H27.9039V70.7557H32.9948C32.9948 70.4072 32.9191 70.0985 32.7676 69.8295C32.616 69.5606 32.4058 69.3504 32.1369 69.1989C31.8717 69.0436 31.563 68.9659 31.2107 68.9659C30.8433 68.9659 30.5176 69.0511 30.2335 69.2216C29.9532 69.3883 29.7335 69.6136 29.5744 69.8977C29.4153 70.178 29.3338 70.4905 29.3301 70.8352V72.2614C29.3301 72.6932 29.4096 73.0663 29.5687 73.3807C29.7316 73.6951 29.9607 73.9375 30.2562 74.108C30.5516 74.2784 30.902 74.3636 31.3073 74.3636C31.5763 74.3636 31.8225 74.3258 32.046 74.25C32.2695 74.1742 32.4607 74.0606 32.6198 73.9091C32.7789 73.7576 32.9001 73.572 32.9835 73.3523L35.2221 73.5C35.1085 74.0379 34.8755 74.5076 34.5232 74.9091C34.1748 75.3068 33.724 75.6174 33.171 75.8409C32.6217 76.0606 31.9873 76.1705 31.2676 76.1705ZM38.886 73.4886L38.8916 70.5852H39.2439L42.0394 67.2727H44.8178L41.0621 71.6591H40.4882L38.886 73.4886ZM36.6928 76V64.3636H39.1132V76H36.6928ZM42.1473 76L39.5791 72.1989L41.1928 70.4886L44.9826 76H42.1473ZM49.4291 76.1705C48.5465 76.1705 47.7833 75.983 47.1393 75.608C46.4992 75.2292 46.0048 74.7027 45.6564 74.0284C45.3079 73.3504 45.1336 72.5644 45.1336 71.6705C45.1336 70.7689 45.3079 69.9811 45.6564 69.3068C46.0048 68.6288 46.4992 68.1023 47.1393 67.7273C47.7833 67.3485 48.5465 67.1591 49.4291 67.1591C50.3117 67.1591 51.073 67.3485 51.7132 67.7273C52.3571 68.1023 52.8533 68.6288 53.2018 69.3068C53.5503 69.9811 53.7245 70.7689 53.7245 71.6705C53.7245 72.5644 53.5503 73.3504 53.2018 74.0284C52.8533 74.7027 52.3571 75.2292 51.7132 75.608C51.073 75.983 50.3117 76.1705 49.4291 76.1705ZM49.4405 74.2955C49.842 74.2955 50.1772 74.1818 50.4461 73.9545C50.7151 73.7235 50.9177 73.4091 51.0541 73.0114C51.1942 72.6136 51.2643 72.161 51.2643 71.6534C51.2643 71.1458 51.1942 70.6932 51.0541 70.2955C50.9177 69.8977 50.7151 69.5833 50.4461 69.3523C50.1772 69.1212 49.842 69.0057 49.4405 69.0057C49.0352 69.0057 48.6942 69.1212 48.4177 69.3523C48.145 69.5833 47.9386 69.8977 47.7984 70.2955C47.662 70.6932 47.5939 71.1458 47.5939 71.6534C47.5939 72.161 47.662 72.6136 47.7984 73.0114C47.9386 73.4091 48.145 73.7235 48.4177 73.9545C48.6942 74.1818 49.0352 74.2955 49.4405 74.2955ZM59.7805 67.2727V69.0909H54.5248V67.2727H59.7805ZM55.718 65.1818H58.1384V73.3182C58.1384 73.5417 58.1725 73.7159 58.2407 73.8409C58.3089 73.9621 58.4036 74.0473 58.5248 74.0966C58.6498 74.1458 58.7937 74.1705 58.9566 74.1705C59.0702 74.1705 59.1839 74.161 59.2975 74.142C59.4111 74.1193 59.4983 74.1023 59.5589 74.0909L59.9395 75.892C59.8183 75.9299 59.6479 75.9735 59.4282 76.0227C59.2085 76.0758 58.9414 76.108 58.627 76.1193C58.0437 76.142 57.5323 76.0644 57.093 75.8864C56.6573 75.7083 56.3183 75.4318 56.0759 75.0568C55.8335 74.6818 55.7142 74.2083 55.718 73.6364V65.1818ZM67.2289 76.1648C66.6721 76.1648 66.1759 76.0682 65.7403 75.875C65.3047 75.678 64.96 75.3883 64.7062 75.0057C64.4562 74.6193 64.3312 74.1383 64.3312 73.5625C64.3312 73.0777 64.4202 72.6705 64.5982 72.3409C64.7763 72.0114 65.0187 71.7462 65.3255 71.5455C65.6323 71.3447 65.9808 71.1932 66.371 71.0909C66.7649 70.9886 67.1778 70.9167 67.6096 70.875C68.1172 70.822 68.5263 70.7727 68.8369 70.7273C69.1475 70.678 69.3729 70.6061 69.513 70.5114C69.6532 70.4167 69.7232 70.2765 69.7232 70.0909V70.0568C69.7232 69.697 69.6096 69.4186 69.3823 69.2216C69.1588 69.0246 68.8407 68.9261 68.4278 68.9261C67.9922 68.9261 67.6456 69.0227 67.388 69.2159C67.1304 69.4053 66.96 69.6439 66.8766 69.9318L64.638 69.75C64.7516 69.2197 64.9751 68.7614 65.3085 68.375C65.6418 67.9848 66.0717 67.6856 66.5982 67.4773C67.1285 67.2652 67.7422 67.1591 68.4391 67.1591C68.924 67.1591 69.388 67.2159 69.8312 67.3295C70.2782 67.4432 70.674 67.6193 71.0187 67.858C71.3672 68.0966 71.6418 68.4034 71.8426 68.7784C72.0433 69.1496 72.1437 69.5947 72.1437 70.1136V76H69.8482V74.7898H69.7801C69.6399 75.0625 69.4524 75.303 69.2176 75.5114C68.9827 75.7159 68.7005 75.8769 68.371 75.9943C68.0414 76.108 67.6607 76.1648 67.2289 76.1648ZM67.9221 74.4943C68.2782 74.4943 68.5926 74.4242 68.8653 74.2841C69.138 74.1402 69.352 73.947 69.5073 73.7045C69.6626 73.4621 69.7403 73.1875 69.7403 72.8807V71.9545C69.6645 72.0038 69.5604 72.0492 69.4278 72.0909C69.299 72.1288 69.1532 72.1648 68.9903 72.1989C68.8274 72.2292 68.6645 72.2576 68.5016 72.2841C68.3388 72.3068 68.191 72.3277 68.0585 72.3466C67.7744 72.3883 67.5263 72.4545 67.3141 72.5455C67.102 72.6364 66.9373 72.7595 66.8198 72.9148C66.7024 73.0663 66.6437 73.2557 66.6437 73.483C66.6437 73.8125 66.763 74.0644 67.0016 74.2386C67.2441 74.4091 67.5509 74.4943 67.9221 74.4943ZM73.8615 79.2727V67.2727H76.2479V68.7386H76.3559C76.4619 68.5038 76.6153 68.2652 76.8161 68.0227C77.0206 67.7765 77.2858 67.572 77.6115 67.4091C77.9411 67.2424 78.3502 67.1591 78.8388 67.1591C79.4752 67.1591 80.0623 67.3258 80.6002 67.6591C81.1381 67.9886 81.568 68.4867 81.8899 69.1534C82.2119 69.8163 82.3729 70.6477 82.3729 71.6477C82.3729 72.6212 82.2157 73.4432 81.9013 74.1136C81.5907 74.7803 81.1665 75.286 80.6286 75.6307C80.0945 75.9716 79.496 76.142 78.8331 76.142C78.3634 76.142 77.9638 76.0644 77.6343 75.9091C77.3085 75.7538 77.0415 75.5587 76.8331 75.3239C76.6248 75.0852 76.4657 74.8447 76.3559 74.6023H76.282V79.2727H73.8615ZM76.2309 71.6364C76.2309 72.1553 76.3028 72.608 76.4468 72.9943C76.5907 73.3807 76.799 73.6818 77.0718 73.8977C77.3445 74.1098 77.6759 74.2159 78.0661 74.2159C78.46 74.2159 78.7934 74.108 79.0661 73.892C79.3388 73.6723 79.5452 73.3693 79.6854 72.983C79.8293 72.5928 79.9013 72.1439 79.9013 71.6364C79.9013 71.1326 79.8312 70.6894 79.6911 70.3068C79.5509 69.9242 79.3445 69.625 79.0718 69.4091C78.799 69.1932 78.4638 69.0852 78.0661 69.0852C77.6721 69.0852 77.3388 69.1894 77.0661 69.3977C76.7971 69.6061 76.5907 69.9015 76.4468 70.2841C76.3028 70.6667 76.2309 71.1174 76.2309 71.6364ZM83.8265 76V67.2727H86.1334V68.8125H86.2356C86.4174 68.3011 86.7205 67.8977 87.1447 67.6023C87.569 67.3068 88.0765 67.1591 88.6674 67.1591C89.2659 67.1591 89.7754 67.3087 90.1959 67.608C90.6163 67.9034 90.8966 68.3049 91.0368 68.8125H91.1277C91.3057 68.3125 91.6277 67.9129 92.0936 67.6136C92.5633 67.3106 93.1182 67.1591 93.7584 67.1591C94.5727 67.1591 95.2337 67.4186 95.7413 67.9375C96.2527 68.4527 96.5084 69.1837 96.5084 70.1307V76H94.0936V70.608C94.0936 70.1231 93.9648 69.7595 93.7072 69.517C93.4496 69.2746 93.1277 69.1534 92.7413 69.1534C92.3019 69.1534 91.9591 69.2936 91.7129 69.5739C91.4667 69.8504 91.3436 70.2159 91.3436 70.6705V76H88.997V70.5568C88.997 70.1288 88.8739 69.7879 88.6277 69.5341C88.3852 69.2803 88.0652 69.1534 87.6674 69.1534C87.3985 69.1534 87.1561 69.2216 86.9402 69.358C86.7281 69.4905 86.5595 69.678 86.4345 69.9205C86.3095 70.1591 86.247 70.4394 86.247 70.7614V76H83.8265ZM100.749 76.1648C100.192 76.1648 99.6959 76.0682 99.2603 75.875C98.8247 75.678 98.48 75.3883 98.2262 75.0057C97.9762 74.6193 97.8512 74.1383 97.8512 73.5625C97.8512 73.0777 97.9402 72.6705 98.1182 72.3409C98.2963 72.0114 98.5387 71.7462 98.8455 71.5455C99.1523 71.3447 99.5008 71.1932 99.891 71.0909C100.285 70.9886 100.698 70.9167 101.13 70.875C101.637 70.822 102.046 70.7727 102.357 70.7273C102.667 70.678 102.893 70.6061 103.033 70.5114C103.173 70.4167 103.243 70.2765 103.243 70.0909V70.0568C103.243 69.697 103.13 69.4186 102.902 69.2216C102.679 69.0246 102.361 68.9261 101.948 68.9261C101.512 68.9261 101.166 69.0227 100.908 69.2159C100.65 69.4053 100.48 69.6439 100.397 69.9318L98.158 69.75C98.2716 69.2197 98.4951 68.7614 98.8285 68.375C99.1618 67.9848 99.5917 67.6856 100.118 67.4773C100.649 67.2652 101.262 67.1591 101.959 67.1591C102.444 67.1591 102.908 67.2159 103.351 67.3295C103.798 67.4432 104.194 67.6193 104.539 67.858C104.887 68.0966 105.162 68.4034 105.363 68.7784C105.563 69.1496 105.664 69.5947 105.664 70.1136V76H103.368V74.7898H103.3C103.16 75.0625 102.972 75.303 102.738 75.5114C102.503 75.7159 102.221 75.8769 101.891 75.9943C101.561 76.108 101.181 76.1648 100.749 76.1648ZM101.442 74.4943C101.798 74.4943 102.113 74.4242 102.385 74.2841C102.658 74.1402 102.872 73.947 103.027 73.7045C103.183 73.4621 103.26 73.1875 103.26 72.8807V71.9545C103.185 72.0038 103.08 72.0492 102.948 72.0909C102.819 72.1288 102.673 72.1648 102.51 72.1989C102.347 72.2292 102.185 72.2576 102.022 72.2841C101.859 72.3068 101.711 72.3277 101.578 72.3466C101.294 72.3883 101.046 72.4545 100.834 72.5455C100.622 72.6364 100.457 72.7595 100.34 72.9148C100.222 73.0663 100.164 73.2557 100.164 73.483C100.164 73.8125 100.283 74.0644 100.522 74.2386C100.764 74.4091 101.071 74.4943 101.442 74.4943ZM109.575 73.4886L109.58 70.5852H109.933L112.728 67.2727H115.507L111.751 71.6591H111.177L109.575 73.4886ZM107.382 76V64.3636H109.802V76H107.382ZM112.836 76L110.268 72.1989L111.882 70.4886L115.671 76H112.836ZM123.795 69.7614L121.579 69.8977C121.542 69.7083 121.46 69.5379 121.335 69.3864C121.21 69.2311 121.045 69.108 120.841 69.017C120.64 68.9223 120.4 68.875 120.119 68.875C119.744 68.875 119.428 68.9545 119.17 69.1136C118.913 69.2689 118.784 69.4773 118.784 69.7386C118.784 69.947 118.867 70.1231 119.034 70.267C119.201 70.411 119.487 70.5265 119.892 70.6136L121.472 70.9318C122.32 71.1061 122.953 71.3864 123.369 71.7727C123.786 72.1591 123.994 72.6667 123.994 73.2955C123.994 73.8674 123.826 74.3693 123.489 74.8011C123.155 75.233 122.697 75.5701 122.114 75.8125C121.534 76.0511 120.865 76.1705 120.108 76.1705C118.953 76.1705 118.032 75.9299 117.347 75.4489C116.665 74.964 116.265 74.3049 116.148 73.4716L118.528 73.3466C118.6 73.6989 118.775 73.9678 119.051 74.1534C119.328 74.3352 119.682 74.4261 120.114 74.4261C120.538 74.4261 120.879 74.3447 121.136 74.1818C121.398 74.0152 121.53 73.8011 121.534 73.5398C121.53 73.3201 121.437 73.1402 121.256 73C121.074 72.8561 120.794 72.7462 120.415 72.6705L118.903 72.3693C118.051 72.1989 117.417 71.9034 117 71.483C116.587 71.0625 116.381 70.5265 116.381 69.875C116.381 69.3144 116.532 68.8314 116.835 68.4261C117.142 68.0208 117.572 67.7083 118.125 67.4886C118.682 67.2689 119.333 67.1591 120.079 67.1591C121.182 67.1591 122.049 67.392 122.682 67.858C123.318 68.3239 123.689 68.9583 123.795 69.7614ZM127.847 76.1648C127.29 76.1648 126.794 76.0682 126.358 75.875C125.923 75.678 125.578 75.3883 125.324 75.0057C125.074 74.6193 124.949 74.1383 124.949 73.5625C124.949 73.0777 125.038 72.6705 125.216 72.3409C125.394 72.0114 125.637 71.7462 125.944 71.5455C126.25 71.3447 126.599 71.1932 126.989 71.0909C127.383 70.9886 127.796 70.9167 128.228 70.875C128.735 70.822 129.144 70.7727 129.455 70.7273C129.766 70.678 129.991 70.6061 130.131 70.5114C130.271 70.4167 130.341 70.2765 130.341 70.0909V70.0568C130.341 69.697 130.228 69.4186 130 69.2216C129.777 69.0246 129.459 68.9261 129.046 68.9261C128.61 68.9261 128.264 69.0227 128.006 69.2159C127.749 69.4053 127.578 69.6439 127.495 69.9318L125.256 69.75C125.37 69.2197 125.593 68.7614 125.927 68.375C126.26 67.9848 126.69 67.6856 127.216 67.4773C127.747 67.2652 128.36 67.1591 129.057 67.1591C129.542 67.1591 130.006 67.2159 130.449 67.3295C130.896 67.4432 131.292 67.6193 131.637 67.858C131.985 68.0966 132.26 68.4034 132.461 68.7784C132.661 69.1496 132.762 69.5947 132.762 70.1136V76H130.466V74.7898H130.398C130.258 75.0625 130.071 75.303 129.836 75.5114C129.601 75.7159 129.319 75.8769 128.989 75.9943C128.66 76.108 128.279 76.1648 127.847 76.1648ZM128.54 74.4943C128.896 74.4943 129.211 74.4242 129.483 74.2841C129.756 74.1402 129.97 73.947 130.125 73.7045C130.281 73.4621 130.358 73.1875 130.358 72.8807V71.9545C130.283 72.0038 130.178 72.0492 130.046 72.0909C129.917 72.1288 129.771 72.1648 129.608 72.1989C129.446 72.2292 129.283 72.2576 129.12 72.2841C128.957 72.3068 128.809 72.3277 128.677 72.3466C128.393 72.3883 128.144 72.4545 127.932 72.5455C127.72 72.6364 127.555 72.7595 127.438 72.9148C127.321 73.0663 127.262 73.2557 127.262 73.483C127.262 73.8125 127.381 74.0644 127.62 74.2386C127.862 74.4091 128.169 74.4943 128.54 74.4943ZM141.741 69.7614L139.525 69.8977C139.487 69.7083 139.406 69.5379 139.281 69.3864C139.156 69.2311 138.991 69.108 138.786 69.017C138.586 68.9223 138.345 68.875 138.065 68.875C137.69 68.875 137.374 68.9545 137.116 69.1136C136.858 69.2689 136.73 69.4773 136.73 69.7386C136.73 69.947 136.813 70.1231 136.98 70.267C137.146 70.411 137.432 70.5265 137.838 70.6136L139.417 70.9318C140.266 71.1061 140.898 71.3864 141.315 71.7727C141.732 72.1591 141.94 72.6667 141.94 73.2955C141.94 73.8674 141.771 74.3693 141.434 74.8011C141.101 75.233 140.643 75.5701 140.059 75.8125C139.48 76.0511 138.811 76.1705 138.054 76.1705C136.898 76.1705 135.978 75.9299 135.292 75.4489C134.61 74.964 134.211 74.3049 134.093 73.4716L136.474 73.3466C136.546 73.6989 136.72 73.9678 136.997 74.1534C137.273 74.3352 137.627 74.4261 138.059 74.4261C138.483 74.4261 138.824 74.3447 139.082 74.1818C139.343 74.0152 139.476 73.8011 139.48 73.5398C139.476 73.3201 139.383 73.1402 139.201 73C139.019 72.8561 138.739 72.7462 138.36 72.6705L136.849 72.3693C135.997 72.1989 135.362 71.9034 134.946 71.483C134.533 71.0625 134.326 70.5265 134.326 69.875C134.326 69.3144 134.478 68.8314 134.781 68.4261C135.088 68.0208 135.518 67.7083 136.071 67.4886C136.627 67.2689 137.279 67.1591 138.025 67.1591C139.127 67.1591 139.995 67.392 140.627 67.858C141.264 68.3239 141.635 68.9583 141.741 69.7614ZM24.2273 89.7614L22.0114 89.8977C21.9735 89.7083 21.892 89.5379 21.767 89.3864C21.642 89.2311 21.4773 89.108 21.2727 89.017C21.072 88.9223 20.8314 88.875 20.5511 88.875C20.1761 88.875 19.8598 88.9545 19.6023 89.1136C19.3447 89.2689 19.2159 89.4773 19.2159 89.7386C19.2159 89.947 19.2992 90.1231 19.4659 90.267C19.6326 90.411 19.9186 90.5265 20.3239 90.6136L21.9034 90.9318C22.7519 91.1061 23.3845 91.3864 23.8011 91.7727C24.2178 92.1591 24.4261 92.6667 24.4261 93.2955C24.4261 93.8674 24.2576 94.3693 23.9205 94.8011C23.5871 95.233 23.1288 95.5701 22.5455 95.8125C21.9659 96.0511 21.2973 96.1705 20.5398 96.1705C19.3845 96.1705 18.464 95.9299 17.7784 95.4489C17.0966 94.964 16.697 94.3049 16.5795 93.4716L18.9602 93.3466C19.0322 93.6989 19.2064 93.9678 19.483 94.1534C19.7595 94.3352 20.1136 94.4261 20.5455 94.4261C20.9697 94.4261 21.3106 94.3447 21.5682 94.1818C21.8295 94.0152 21.9621 93.8011 21.9659 93.5398C21.9621 93.3201 21.8693 93.1402 21.6875 93C21.5057 92.8561 21.2254 92.7462 20.8466 92.6705L19.3352 92.3693C18.483 92.1989 17.8485 91.9034 17.4318 91.483C17.0189 91.0625 16.8125 90.5265 16.8125 89.875C16.8125 89.3144 16.964 88.8314 17.267 88.4261C17.5739 88.0208 18.0038 87.7083 18.5568 87.4886C19.1136 87.2689 19.7652 87.1591 20.5114 87.1591C21.6136 87.1591 22.4811 87.392 23.1136 87.858C23.75 88.3239 24.1212 88.9583 24.2273 89.7614ZM30.4323 87.2727V89.0909H25.1766V87.2727H30.4323ZM26.3698 85.1818H28.7903V93.3182C28.7903 93.5417 28.8244 93.7159 28.8926 93.8409C28.9607 93.9621 29.0554 94.0473 29.1766 94.0966C29.3016 94.1458 29.4456 94.1705 29.6085 94.1705C29.7221 94.1705 29.8357 94.161 29.9494 94.142C30.063 94.1193 30.1501 94.1023 30.2107 94.0909L30.5914 95.892C30.4702 95.9299 30.2998 95.9735 30.0801 96.0227C29.8604 96.0758 29.5933 96.108 29.2789 96.1193C28.6956 96.142 28.1842 96.0644 27.7448 95.8864C27.3092 95.7083 26.9702 95.4318 26.7278 95.0568C26.4854 94.6818 26.366 94.2083 26.3698 93.6364V85.1818ZM34.3377 96.1648C33.7809 96.1648 33.2846 96.0682 32.849 95.875C32.4134 95.678 32.0687 95.3883 31.8149 95.0057C31.5649 94.6193 31.4399 94.1383 31.4399 93.5625C31.4399 93.0777 31.529 92.6705 31.707 92.3409C31.885 92.0114 32.1274 91.7462 32.4343 91.5455C32.7411 91.3447 33.0896 91.1932 33.4797 91.0909C33.8737 90.9886 34.2865 90.9167 34.7184 90.875C35.2259 90.822 35.635 90.7727 35.9456 90.7273C36.2562 90.678 36.4816 90.6061 36.6218 90.5114C36.7619 90.4167 36.832 90.2765 36.832 90.0909V90.0568C36.832 89.697 36.7184 89.4186 36.4911 89.2216C36.2676 89.0246 35.9494 88.9261 35.5365 88.9261C35.1009 88.9261 34.7543 89.0227 34.4968 89.2159C34.2392 89.4053 34.0687 89.6439 33.9854 89.9318L31.7468 89.75C31.8604 89.2197 32.0839 88.7614 32.4172 88.375C32.7505 87.9848 33.1805 87.6856 33.707 87.4773C34.2373 87.2652 34.8509 87.1591 35.5479 87.1591C36.0327 87.1591 36.4968 87.2159 36.9399 87.3295C37.3869 87.4432 37.7827 87.6193 38.1274 87.858C38.4759 88.0966 38.7505 88.4034 38.9513 88.7784C39.1521 89.1496 39.2524 89.5947 39.2524 90.1136V96H36.957V94.7898H36.8888C36.7487 95.0625 36.5612 95.303 36.3263 95.5114C36.0915 95.7159 35.8093 95.8769 35.4797 95.9943C35.1502 96.108 34.7695 96.1648 34.3377 96.1648ZM35.0309 94.4943C35.3869 94.4943 35.7013 94.4242 35.974 94.2841C36.2468 94.1402 36.4608 93.947 36.6161 93.7045C36.7714 93.4621 36.849 93.1875 36.849 92.8807V91.9545C36.7733 92.0038 36.6691 92.0492 36.5365 92.0909C36.4077 92.1288 36.2619 92.1648 36.099 92.1989C35.9362 92.2292 35.7733 92.2576 35.6104 92.2841C35.4475 92.3068 35.2998 92.3277 35.1672 92.3466C34.8831 92.3883 34.635 92.4545 34.4229 92.5455C34.2108 92.6364 34.046 92.7595 33.9286 92.9148C33.8112 93.0663 33.7524 93.2557 33.7524 93.483C33.7524 93.8125 33.8718 94.0644 34.1104 94.2386C34.3528 94.4091 34.6596 94.4943 35.0309 94.4943ZM45.6123 87.2727V89.0909H40.3566V87.2727H45.6123ZM41.5498 85.1818H43.9703V93.3182C43.9703 93.5417 44.0044 93.7159 44.0726 93.8409C44.1407 93.9621 44.2354 94.0473 44.3566 94.0966C44.4816 94.1458 44.6256 94.1705 44.7885 94.1705C44.9021 94.1705 45.0157 94.161 45.1294 94.142C45.243 94.1193 45.3301 94.1023 45.3907 94.0909L45.7714 95.892C45.6502 95.9299 45.4798 95.9735 45.2601 96.0227C45.0404 96.0758 44.7733 96.108 44.4589 96.1193C43.8756 96.142 43.3642 96.0644 42.9248 95.8864C42.4892 95.7083 42.1502 95.4318 41.9078 95.0568C41.6654 94.6818 41.546 94.2083 41.5498 93.6364V85.1818ZM52.6256 92.2841V87.2727H55.0461V96H52.7222V94.4148H52.6313C52.4343 94.9261 52.1067 95.3371 51.6484 95.6477C51.1938 95.9583 50.6389 96.1136 49.9836 96.1136C49.4002 96.1136 48.887 95.9811 48.4438 95.7159C48.0006 95.4508 47.654 95.0739 47.404 94.5852C47.1578 94.0966 47.0328 93.5114 47.029 92.8295V87.2727H49.4495V92.3977C49.4533 92.9129 49.5915 93.3201 49.8643 93.6193C50.137 93.9186 50.5025 94.0682 50.9609 94.0682C51.2525 94.0682 51.5252 94.0019 51.779 93.8693C52.0328 93.733 52.2374 93.5322 52.3927 93.267C52.5518 93.0019 52.6294 92.6742 52.6256 92.2841ZM64.0835 89.7614L61.8676 89.8977C61.8297 89.7083 61.7483 89.5379 61.6233 89.3864C61.4983 89.2311 61.3335 89.108 61.129 89.017C60.9282 88.9223 60.6877 88.875 60.4074 88.875C60.0324 88.875 59.7161 88.9545 59.4585 89.1136C59.2009 89.2689 59.0722 89.4773 59.0722 89.7386C59.0722 89.947 59.1555 90.1231 59.3222 90.267C59.4888 90.411 59.7748 90.5265 60.1801 90.6136L61.7597 90.9318C62.6081 91.1061 63.2407 91.3864 63.6574 91.7727C64.0741 92.1591 64.2824 92.6667 64.2824 93.2955C64.2824 93.8674 64.1138 94.3693 63.7767 94.8011C63.4434 95.233 62.985 95.5701 62.4017 95.8125C61.8222 96.0511 61.1536 96.1705 60.396 96.1705C59.2407 96.1705 58.3203 95.9299 57.6347 95.4489C56.9528 94.964 56.5532 94.3049 56.4358 93.4716L58.8165 93.3466C58.8884 93.6989 59.0627 93.9678 59.3392 94.1534C59.6157 94.3352 59.9699 94.4261 60.4017 94.4261C60.8259 94.4261 61.1669 94.3447 61.4244 94.1818C61.6858 94.0152 61.8184 93.8011 61.8222 93.5398C61.8184 93.3201 61.7256 93.1402 61.5438 93C61.3619 92.8561 61.0816 92.7462 60.7028 92.6705L59.1915 92.3693C58.3392 92.1989 57.7047 91.9034 57.2881 91.483C56.8752 91.0625 56.6688 90.5265 56.6688 89.875C56.6688 89.3144 56.8203 88.8314 57.1233 88.4261C57.4301 88.0208 57.86 87.7083 58.4131 87.4886C58.9699 87.2689 59.6214 87.1591 60.3676 87.1591C61.4699 87.1591 62.3373 87.392 62.9699 87.858C63.6063 88.3239 63.9775 88.9583 64.0835 89.7614ZM65.6465 96V87.2727H68.067V96H65.6465ZM66.8624 86.1477C66.5026 86.1477 66.1939 86.0284 65.9363 85.7898C65.6825 85.5473 65.5556 85.2576 65.5556 84.9205C65.5556 84.5871 65.6825 84.3011 65.9363 84.0625C66.1939 83.8201 66.5026 83.6989 66.8624 83.6989C67.2223 83.6989 67.5291 83.8201 67.7829 84.0625C68.0405 84.3011 68.1693 84.5871 68.1693 84.9205C68.1693 85.2576 68.0405 85.5473 67.7829 85.7898C67.5291 86.0284 67.2223 86.1477 66.8624 86.1477ZM73.8232 96.1705C72.9255 96.1705 72.1527 95.9886 71.505 95.625C70.8611 95.2576 70.3648 94.7386 70.0164 94.0682C69.6679 93.3939 69.4936 92.5966 69.4936 91.6761C69.4936 90.7784 69.6679 89.9905 70.0164 89.3125C70.3648 88.6345 70.8554 88.1061 71.488 87.7273C72.1243 87.3485 72.8705 87.1591 73.7266 87.1591C74.3023 87.1591 74.8383 87.2519 75.3345 87.4375C75.8345 87.6193 76.2702 87.8939 76.6414 88.2614C77.0164 88.6288 77.308 89.0909 77.5164 89.6477C77.7247 90.2008 77.8289 90.8485 77.8289 91.5909V92.2557H70.4595V90.7557H75.5505C75.5505 90.4072 75.4747 90.0985 75.3232 89.8295C75.1717 89.5606 74.9614 89.3504 74.6925 89.1989C74.4273 89.0436 74.1186 88.9659 73.7664 88.9659C73.3989 88.9659 73.0732 89.0511 72.7891 89.2216C72.5088 89.3883 72.2891 89.6136 72.13 89.8977C71.9709 90.178 71.8895 90.4905 71.8857 90.8352V92.2614C71.8857 92.6932 71.9652 93.0663 72.1243 93.3807C72.2872 93.6951 72.5164 93.9375 72.8118 94.108C73.1073 94.2784 73.4577 94.3636 73.863 94.3636C74.1319 94.3636 74.3781 94.3258 74.6016 94.25C74.8251 94.1742 75.0164 94.0606 75.1755 93.9091C75.3345 93.7576 75.4558 93.572 75.5391 93.3523L77.7777 93.5C77.6641 94.0379 77.4311 94.5076 77.0789 94.9091C76.7304 95.3068 76.2796 95.6174 75.7266 95.8409C75.1773 96.0606 74.5429 96.1705 73.8232 96.1705ZM79.2484 96V87.2727H81.5552V88.8125H81.6575C81.8393 88.3011 82.1423 87.8977 82.5666 87.6023C82.9908 87.3068 83.4984 87.1591 84.0893 87.1591C84.6878 87.1591 85.1973 87.3087 85.6177 87.608C86.0382 87.9034 86.3185 88.3049 86.4586 88.8125H86.5495C86.7276 88.3125 87.0495 87.9129 87.5155 87.6136C87.9852 87.3106 88.5401 87.1591 89.1802 87.1591C89.9946 87.1591 90.6556 87.4186 91.1632 87.9375C91.6745 88.4527 91.9302 89.1837 91.9302 90.1307V96H89.5155V90.608C89.5155 90.1231 89.3867 89.7595 89.1291 89.517C88.8715 89.2746 88.5495 89.1534 88.1632 89.1534C87.7238 89.1534 87.381 89.2936 87.1348 89.5739C86.8886 89.8504 86.7655 90.2159 86.7655 90.6705V96H84.4189V90.5568C84.4189 90.1288 84.2958 89.7879 84.0495 89.5341C83.8071 89.2803 83.487 89.1534 83.0893 89.1534C82.8204 89.1534 82.578 89.2216 82.362 89.358C82.1499 89.4905 81.9814 89.678 81.8564 89.9205C81.7314 90.1591 81.6689 90.4394 81.6689 90.7614V96H79.2484Z" fill="#1A1D27"/>
<path d="M16.8789 115V107H19.7305C20.3503 107 20.8646 107.107 21.2734 107.32C21.6849 107.534 21.9922 107.829 22.1953 108.207C22.3984 108.582 22.5 109.016 22.5 109.508C22.5 109.997 22.3971 110.428 22.1914 110.801C21.9883 111.171 21.681 111.458 21.2695 111.664C20.8607 111.87 20.3464 111.973 19.7266 111.973H17.5664V110.934H19.6172C20.0078 110.934 20.3255 110.878 20.5703 110.766C20.8177 110.654 20.9987 110.491 21.1133 110.277C21.2279 110.064 21.2852 109.807 21.2852 109.508C21.2852 109.206 21.2266 108.944 21.1094 108.723C20.9948 108.501 20.8138 108.332 20.5664 108.215C20.3216 108.095 20 108.035 19.6016 108.035H18.0859V115H16.8789ZM20.8281 111.391L22.8047 115H21.4297L19.4922 111.391H20.8281ZM26.2757 115.121C25.6846 115.121 25.1755 114.995 24.7484 114.742C24.3239 114.487 23.9958 114.129 23.764 113.668C23.5349 113.204 23.4203 112.661 23.4203 112.039C23.4203 111.424 23.5349 110.883 23.764 110.414C23.9958 109.945 24.3187 109.579 24.7328 109.316C25.1494 109.053 25.6364 108.922 26.1937 108.922C26.5323 108.922 26.8604 108.978 27.1781 109.09C27.4958 109.202 27.781 109.378 28.0336 109.617C28.2862 109.857 28.4854 110.168 28.6312 110.551C28.777 110.931 28.85 111.393 28.85 111.937V112.352H24.0804V111.477H27.7054C27.7054 111.169 27.6429 110.897 27.5179 110.66C27.3929 110.421 27.2171 110.232 26.9906 110.094C26.7666 109.956 26.5036 109.887 26.2015 109.887C25.8734 109.887 25.5869 109.967 25.3421 110.129C25.1 110.288 24.9125 110.496 24.7796 110.754C24.6494 111.009 24.5843 111.286 24.5843 111.586V112.27C24.5843 112.671 24.6546 113.012 24.7953 113.293C24.9385 113.574 25.1377 113.789 25.3929 113.937C25.6481 114.083 25.9463 114.156 26.2875 114.156C26.5088 114.156 26.7106 114.125 26.8929 114.062C27.0752 113.997 27.2328 113.901 27.3656 113.773C27.4984 113.646 27.6 113.488 27.6703 113.301L28.7757 113.5C28.6872 113.826 28.5283 114.111 28.2992 114.355C28.0726 114.598 27.7875 114.786 27.4437 114.922C27.1026 115.055 26.7132 115.121 26.2757 115.121ZM32.282 115.117C31.7976 115.117 31.3653 114.993 30.9851 114.746C30.6075 114.496 30.3106 114.141 30.0945 113.68C29.8809 113.216 29.7741 112.66 29.7741 112.012C29.7741 111.363 29.8822 110.809 30.0984 110.348C30.3171 109.887 30.6166 109.534 30.9968 109.289C31.377 109.044 31.808 108.922 32.2898 108.922C32.6622 108.922 32.9616 108.984 33.1882 109.109C33.4174 109.232 33.5945 109.375 33.7195 109.539C33.8471 109.703 33.946 109.848 34.0163 109.973H34.0866V107H35.2546V115H34.114V114.066H34.0163C33.946 114.194 33.8445 114.34 33.7116 114.504C33.5814 114.668 33.4017 114.811 33.1726 114.934C32.9434 115.056 32.6465 115.117 32.282 115.117ZM32.5398 114.121C32.8757 114.121 33.1596 114.033 33.3913 113.855C33.6257 113.676 33.8028 113.427 33.9226 113.109C34.045 112.792 34.1062 112.422 34.1062 112C34.1062 111.583 34.0463 111.219 33.9265 110.906C33.8067 110.594 33.6309 110.35 33.3991 110.176C33.1674 110.001 32.8809 109.914 32.5398 109.914C32.1882 109.914 31.8952 110.005 31.6609 110.188C31.4265 110.37 31.2494 110.618 31.1296 110.934C31.0124 111.249 30.9538 111.604 30.9538 112C30.9538 112.401 31.0137 112.762 31.1335 113.082C31.2533 113.402 31.4304 113.656 31.6648 113.844C31.9017 114.029 32.1934 114.121 32.5398 114.121ZM36.6866 115V114.199L39.9366 110.07V110.016H36.7921V109H41.3936V109.852L38.2686 113.93V113.984H41.503V115H36.6866ZM42.7709 115V109H43.9389V115H42.7709ZM43.3608 108.074C43.1577 108.074 42.9832 108.007 42.8373 107.871C42.6941 107.733 42.6225 107.569 42.6225 107.379C42.6225 107.186 42.6941 107.022 42.8373 106.887C42.9832 106.749 43.1577 106.68 43.3608 106.68C43.5639 106.68 43.7371 106.749 43.8803 106.887C44.0261 107.022 44.0991 107.186 44.0991 107.379C44.0991 107.569 44.0261 107.733 43.8803 107.871C43.7371 108.007 43.5639 108.074 43.3608 108.074ZM46.9197 113.906L46.8611 114.332C46.8221 114.645 46.7557 114.97 46.6619 115.309C46.5708 115.65 46.4757 115.966 46.3768 116.258C46.2804 116.549 46.201 116.781 46.1385 116.953H45.3104C45.3442 116.792 45.3911 116.573 45.451 116.297C45.5109 116.023 45.5695 115.717 45.6268 115.379C45.6841 115.04 45.727 114.695 45.7557 114.344L45.7947 113.906H46.9197ZM52.2056 112.965L52.1978 111.539H52.4009L54.7915 109H56.19L53.4634 111.891H53.2798L52.2056 112.965ZM51.1314 115V107H52.2993V115H51.1314ZM54.9204 115L52.772 112.148L53.5767 111.332L56.354 115H54.9204ZM60.9452 112.512V109H62.1171V115H60.9686V113.961H60.9061C60.7681 114.281 60.5468 114.548 60.2421 114.762C59.94 114.973 59.5637 115.078 59.1132 115.078C58.7277 115.078 58.3866 114.993 58.0897 114.824C57.7955 114.652 57.5637 114.398 57.3944 114.062C57.2277 113.727 57.1444 113.311 57.1444 112.816V109H58.3124V112.676C58.3124 113.085 58.4257 113.41 58.6522 113.652C58.8788 113.895 59.1731 114.016 59.535 114.016C59.7538 114.016 59.9712 113.961 60.1874 113.852C60.4061 113.742 60.5871 113.577 60.7304 113.355C60.8762 113.134 60.9478 112.853 60.9452 112.512ZM63.5764 115V109H64.7053V109.953H64.7678C64.8772 109.63 65.0699 109.376 65.3459 109.191C65.6246 109.004 65.9397 108.91 66.2912 108.91C66.3642 108.91 66.4501 108.913 66.5491 108.918C66.6506 108.923 66.7301 108.93 66.7873 108.937V110.055C66.7405 110.042 66.6571 110.027 66.5373 110.012C66.4176 109.993 66.2978 109.984 66.178 109.984C65.9019 109.984 65.6558 110.043 65.4397 110.16C65.2261 110.275 65.0569 110.435 64.9319 110.641C64.8069 110.844 64.7444 111.076 64.7444 111.336V115H63.5764ZM67.6881 115V109H68.8561V115H67.6881ZM68.2779 108.074C68.0748 108.074 67.9003 108.007 67.7545 107.871C67.6113 107.733 67.5396 107.569 67.5396 107.379C67.5396 107.186 67.6113 107.022 67.7545 106.887C67.9003 106.749 68.0748 106.68 68.2779 106.68C68.4811 106.68 68.6542 106.749 68.7975 106.887C68.9433 107.022 69.0162 107.186 69.0162 107.379C69.0162 107.569 68.9433 107.733 68.7975 107.871C68.6542 108.007 68.4811 108.074 68.2779 108.074ZM73.1185 115V109H74.2474V109.953H74.3099C74.4193 109.63 74.612 109.376 74.888 109.191C75.1667 109.004 75.4818 108.91 75.8333 108.91C75.9062 108.91 75.9922 108.913 76.0911 108.918C76.1927 108.923 76.2721 108.93 76.3294 108.937V110.055C76.2825 110.042 76.1992 110.027 76.0794 110.012C75.9596 109.993 75.8398 109.984 75.72 109.984C75.444 109.984 75.1979 110.043 74.9818 110.16C74.7682 110.275 74.5989 110.435 74.4739 110.641C74.3489 110.844 74.2864 111.076 74.2864 111.336V115H73.1185ZM79.6012 115.121C79.0101 115.121 78.501 114.995 78.0739 114.742C77.6494 114.487 77.3213 114.129 77.0895 113.668C76.8604 113.204 76.7458 112.661 76.7458 112.039C76.7458 111.424 76.8604 110.883 77.0895 110.414C77.3213 109.945 77.6442 109.579 78.0583 109.316C78.4749 109.053 78.9619 108.922 79.5192 108.922C79.8578 108.922 80.1859 108.978 80.5036 109.09C80.8213 109.202 81.1065 109.378 81.3591 109.617C81.6117 109.857 81.8109 110.168 81.9567 110.551C82.1026 110.931 82.1755 111.393 82.1755 111.937V112.352H77.4059V111.477H81.0309C81.0309 111.169 80.9684 110.897 80.8434 110.66C80.7184 110.421 80.5427 110.232 80.3161 110.094C80.0921 109.956 79.8291 109.887 79.527 109.887C79.1989 109.887 78.9124 109.967 78.6677 110.129C78.4255 110.288 78.238 110.496 78.1052 110.754C77.9749 111.009 77.9098 111.286 77.9098 111.586V112.27C77.9098 112.671 77.9802 113.012 78.1208 113.293C78.264 113.574 78.4632 113.789 78.7184 113.937C78.9736 114.083 79.2718 114.156 79.613 114.156C79.8343 114.156 80.0361 114.125 80.2184 114.062C80.4007 113.997 80.5583 113.901 80.6911 113.773C80.8239 113.646 80.9255 113.488 80.9958 113.301L82.1012 113.5C82.0127 113.826 81.8539 114.111 81.6247 114.355C81.3981 114.598 81.113 114.786 80.7692 114.922C80.4281 115.055 80.0387 115.121 79.6012 115.121ZM81.3278 107V107.82H77.6208V107H81.3278ZM84.4356 112.965L84.4278 111.539H84.6309L87.0215 109H88.42L85.6934 111.891H85.5098L84.4356 112.965ZM83.3614 115V107H84.5293V115H83.3614ZM87.1504 115L85.002 112.148L85.8067 111.332L88.584 115H87.1504ZM84.7012 117.625L85.1543 115.633H86.2989L85.5684 117.625H84.7012ZM89.3744 115V109H90.5424V115H89.3744ZM89.9643 108.074C89.7611 108.074 89.5867 108.007 89.4408 107.871C89.2976 107.733 89.226 107.569 89.226 107.379C89.226 107.186 89.2976 107.022 89.4408 106.887C89.5867 106.749 89.7611 106.68 89.9643 106.68C90.1674 106.68 90.3406 106.749 90.4838 106.887C90.6296 107.022 90.7025 107.186 90.7025 107.379C90.7025 107.569 90.6296 107.733 90.4838 107.871C90.3406 108.007 90.1674 108.074 89.9643 108.074ZM93.1716 111.437V115H92.0037V109H93.1248V109.977H93.199C93.337 109.659 93.5531 109.404 93.8474 109.211C94.1443 109.018 94.518 108.922 94.9685 108.922C95.3774 108.922 95.7354 109.008 96.0427 109.18C96.35 109.349 96.5883 109.602 96.7576 109.937C96.9268 110.273 97.0115 110.689 97.0115 111.184V115H95.8435V111.324C95.8435 110.889 95.7302 110.549 95.5037 110.305C95.2771 110.057 94.9659 109.934 94.5701 109.934C94.2992 109.934 94.0584 109.992 93.8474 110.109C93.6391 110.227 93.4737 110.398 93.3513 110.625C93.2315 110.849 93.1716 111.12 93.1716 111.437ZM98.4679 115V109H99.6359V115H98.4679ZM99.0577 108.074C98.8546 108.074 98.6801 108.007 98.5343 107.871C98.3911 107.733 98.3195 107.569 98.3195 107.379C98.3195 107.186 98.3911 107.022 98.5343 106.887C98.6801 106.749 98.8546 106.68 99.0577 106.68C99.2609 106.68 99.434 106.749 99.5773 106.887C99.7231 107.022 99.796 107.186 99.796 107.379C99.796 107.569 99.7231 107.733 99.5773 107.871C99.434 108.007 99.2609 108.074 99.0577 108.074ZM103.898 115V109H105.066V115H103.898ZM104.488 108.074C104.285 108.074 104.111 108.007 103.965 107.871C103.821 107.733 103.75 107.569 103.75 107.379C103.75 107.186 103.821 107.022 103.965 106.887C104.111 106.749 104.285 106.68 104.488 106.68C104.691 106.68 104.864 106.749 105.008 106.887C105.153 107.022 105.226 107.186 105.226 107.379C105.226 107.569 105.153 107.733 105.008 107.871C104.864 108.007 104.691 108.074 104.488 108.074ZM106.528 115V109H107.656V109.953H107.719C107.828 109.63 108.021 109.376 108.297 109.191C108.576 109.004 108.891 108.91 109.242 108.91C109.315 108.91 109.401 108.913 109.5 108.918C109.602 108.923 109.681 108.93 109.738 108.937V110.055C109.692 110.042 109.608 110.027 109.488 110.012C109.369 109.993 109.249 109.984 109.129 109.984C108.853 109.984 108.607 110.043 108.391 110.16C108.177 110.275 108.008 110.435 107.883 110.641C107.758 110.844 107.696 111.076 107.696 111.336V115H106.528ZM115.186 115.133C114.806 115.133 114.462 115.063 114.155 114.922C113.848 114.779 113.604 114.572 113.425 114.301C113.248 114.03 113.159 113.698 113.159 113.305C113.159 112.966 113.224 112.687 113.354 112.469C113.485 112.25 113.66 112.077 113.882 111.949C114.103 111.822 114.351 111.725 114.624 111.66C114.897 111.595 115.176 111.546 115.46 111.512C115.819 111.47 116.111 111.436 116.335 111.41C116.559 111.382 116.722 111.336 116.823 111.273C116.925 111.211 116.976 111.109 116.976 110.969V110.941C116.976 110.6 116.879 110.336 116.686 110.148C116.496 109.961 116.212 109.867 115.835 109.867C115.442 109.867 115.132 109.954 114.905 110.129C114.681 110.301 114.526 110.492 114.44 110.703L113.343 110.453C113.473 110.089 113.663 109.794 113.913 109.57C114.166 109.344 114.456 109.18 114.784 109.078C115.112 108.974 115.457 108.922 115.819 108.922C116.059 108.922 116.313 108.951 116.581 109.008C116.852 109.062 117.104 109.164 117.339 109.312C117.576 109.461 117.77 109.673 117.921 109.949C118.072 110.223 118.147 110.578 118.147 111.016V115H117.007V114.18H116.96C116.884 114.331 116.771 114.479 116.62 114.625C116.469 114.771 116.275 114.892 116.038 114.988C115.801 115.085 115.517 115.133 115.186 115.133ZM115.44 114.195C115.763 114.195 116.039 114.132 116.268 114.004C116.5 113.876 116.676 113.71 116.796 113.504C116.918 113.296 116.979 113.073 116.979 112.836V112.062C116.938 112.104 116.857 112.143 116.737 112.18C116.62 112.214 116.486 112.243 116.335 112.27C116.184 112.293 116.037 112.315 115.893 112.336C115.75 112.354 115.63 112.37 115.534 112.383C115.308 112.411 115.101 112.46 114.913 112.527C114.728 112.595 114.58 112.693 114.468 112.82C114.358 112.945 114.304 113.112 114.304 113.32C114.304 113.609 114.41 113.828 114.624 113.977C114.837 114.122 115.11 114.195 115.44 114.195ZM119.593 117.25V109H120.734V109.973H120.831C120.899 109.848 120.997 109.703 121.124 109.539C121.252 109.375 121.429 109.232 121.656 109.109C121.882 108.984 122.182 108.922 122.554 108.922C123.038 108.922 123.471 109.044 123.851 109.289C124.231 109.534 124.529 109.887 124.745 110.348C124.964 110.809 125.074 111.363 125.074 112.012C125.074 112.66 124.965 113.216 124.749 113.68C124.533 114.141 124.236 114.496 123.859 114.746C123.481 114.993 123.05 115.117 122.566 115.117C122.201 115.117 121.903 115.056 121.671 114.934C121.442 114.811 121.262 114.668 121.132 114.504C121.002 114.34 120.902 114.194 120.831 114.066H120.761V117.25H119.593ZM120.738 112C120.738 112.422 120.799 112.792 120.921 113.109C121.044 113.427 121.221 113.676 121.452 113.855C121.684 114.033 121.968 114.121 122.304 114.121C122.653 114.121 122.945 114.029 123.179 113.844C123.413 113.656 123.59 113.402 123.71 113.082C123.833 112.762 123.894 112.401 123.894 112C123.894 111.604 123.834 111.249 123.714 110.934C123.597 110.618 123.42 110.37 123.183 110.188C122.949 110.005 122.656 109.914 122.304 109.914C121.965 109.914 121.679 110.001 121.445 110.176C121.213 110.35 121.037 110.594 120.917 110.906C120.797 111.219 120.738 111.583 120.738 112ZM126.272 115V109H127.393V109.977H127.467C127.592 109.646 127.797 109.388 128.081 109.203C128.365 109.016 128.704 108.922 129.1 108.922C129.501 108.922 129.837 109.016 130.108 109.203C130.381 109.391 130.583 109.648 130.714 109.977H130.776C130.919 109.656 131.147 109.401 131.46 109.211C131.772 109.018 132.145 108.922 132.577 108.922C133.121 108.922 133.565 109.092 133.909 109.434C134.255 109.775 134.428 110.289 134.428 110.977V115H133.26V111.086C133.26 110.68 133.15 110.385 132.928 110.203C132.707 110.021 132.443 109.93 132.135 109.93C131.755 109.93 131.46 110.047 131.249 110.281C131.038 110.513 130.932 110.811 130.932 111.176V115H129.768V111.012C129.768 110.686 129.667 110.424 129.464 110.227C129.26 110.029 128.996 109.93 128.671 109.93C128.449 109.93 128.245 109.988 128.057 110.105C127.872 110.22 127.723 110.38 127.608 110.586C127.496 110.792 127.44 111.03 127.44 111.301V115H126.272ZM137.63 115.133C137.25 115.133 136.906 115.063 136.599 114.922C136.291 114.779 136.048 114.572 135.868 114.301C135.691 114.03 135.603 113.698 135.603 113.305C135.603 112.966 135.668 112.687 135.798 112.469C135.928 112.25 136.104 112.077 136.325 111.949C136.547 111.822 136.794 111.725 137.067 111.66C137.341 111.595 137.619 111.546 137.903 111.512C138.263 111.47 138.554 111.436 138.778 111.41C139.002 111.382 139.165 111.336 139.267 111.273C139.368 111.211 139.419 111.109 139.419 110.969V110.941C139.419 110.6 139.323 110.336 139.13 110.148C138.94 109.961 138.656 109.867 138.278 109.867C137.885 109.867 137.575 109.954 137.349 110.129C137.125 110.301 136.97 110.492 136.884 110.703L135.786 110.453C135.916 110.089 136.106 109.794 136.356 109.57C136.609 109.344 136.899 109.18 137.228 109.078C137.556 108.974 137.901 108.922 138.263 108.922C138.502 108.922 138.756 108.951 139.024 109.008C139.295 109.062 139.548 109.164 139.782 109.312C140.019 109.461 140.213 109.673 140.364 109.949C140.515 110.223 140.591 110.578 140.591 111.016V115H139.45V114.18H139.403C139.328 114.331 139.215 114.479 139.063 114.625C138.912 114.771 138.718 114.892 138.481 114.988C138.244 115.085 137.961 115.133 137.63 115.133ZM137.884 114.195C138.207 114.195 138.483 114.132 138.712 114.004C138.944 113.876 139.119 113.71 139.239 113.504C139.362 113.296 139.423 113.073 139.423 112.836V112.062C139.381 112.104 139.3 112.143 139.181 112.18C139.063 112.214 138.929 112.243 138.778 112.27C138.627 112.293 138.48 112.315 138.337 112.336C138.194 112.354 138.074 112.37 137.978 112.383C137.751 112.411 137.544 112.46 137.356 112.527C137.172 112.595 137.023 112.693 136.911 112.82C136.802 112.945 136.747 113.112 136.747 113.32C136.747 113.609 136.854 113.828 137.067 113.977C137.281 114.122 137.553 114.195 137.884 114.195ZM143.111 112.965L143.103 111.539H143.306L145.697 109H147.095L144.369 111.891H144.185L143.111 112.965ZM142.036 115V107H143.204V115H142.036ZM145.826 115L143.677 112.148L144.482 111.332L147.259 115H145.826ZM152.546 110.465L151.487 110.652C151.443 110.517 151.372 110.388 151.276 110.266C151.182 110.143 151.055 110.043 150.893 109.965C150.732 109.887 150.53 109.848 150.288 109.848C149.957 109.848 149.681 109.922 149.46 110.07C149.238 110.216 149.128 110.405 149.128 110.637C149.128 110.837 149.202 110.999 149.35 111.121C149.499 111.243 149.738 111.344 150.069 111.422L151.022 111.641C151.574 111.768 151.986 111.965 152.257 112.23C152.527 112.496 152.663 112.841 152.663 113.266C152.663 113.625 152.559 113.945 152.35 114.227C152.145 114.505 151.857 114.724 151.487 114.883C151.12 115.042 150.694 115.121 150.21 115.121C149.538 115.121 148.99 114.978 148.565 114.691C148.141 114.402 147.88 113.992 147.784 113.461L148.913 113.289C148.983 113.583 149.128 113.806 149.346 113.957C149.565 114.105 149.85 114.18 150.202 114.18C150.585 114.18 150.891 114.1 151.12 113.941C151.349 113.78 151.464 113.583 151.464 113.352C151.464 113.164 151.393 113.007 151.253 112.879C151.115 112.751 150.902 112.655 150.616 112.59L149.6 112.367C149.04 112.24 148.626 112.036 148.358 111.758C148.092 111.479 147.96 111.126 147.96 110.699C147.96 110.345 148.059 110.035 148.257 109.77C148.454 109.504 148.728 109.297 149.077 109.148C149.426 108.997 149.826 108.922 150.276 108.922C150.925 108.922 151.435 109.062 151.807 109.344C152.18 109.622 152.426 109.996 152.546 110.465ZM155.583 115.133C155.203 115.133 154.859 115.063 154.552 114.922C154.245 114.779 154.001 114.572 153.821 114.301C153.644 114.03 153.556 113.698 153.556 113.305C153.556 112.966 153.621 112.687 153.751 112.469C153.881 112.25 154.057 112.077 154.278 111.949C154.5 111.822 154.747 111.725 155.021 111.66C155.294 111.595 155.573 111.546 155.857 111.512C156.216 111.47 156.508 111.436 156.732 111.41C156.955 111.382 157.118 111.336 157.22 111.273C157.321 111.211 157.372 111.109 157.372 110.969V110.941C157.372 110.6 157.276 110.336 157.083 110.148C156.893 109.961 156.609 109.867 156.232 109.867C155.838 109.867 155.528 109.954 155.302 110.129C155.078 110.301 154.923 110.492 154.837 110.703L153.739 110.453C153.87 110.089 154.06 109.794 154.31 109.57C154.562 109.344 154.853 109.18 155.181 109.078C155.509 108.974 155.854 108.922 156.216 108.922C156.455 108.922 156.709 108.951 156.978 109.008C157.248 109.062 157.501 109.164 157.735 109.312C157.972 109.461 158.166 109.673 158.317 109.949C158.469 110.223 158.544 110.578 158.544 111.016V115H157.403V114.18H157.357C157.281 114.331 157.168 114.479 157.017 114.625C156.866 114.771 156.672 114.892 156.435 114.988C156.198 115.085 155.914 115.133 155.583 115.133ZM155.837 114.195C156.16 114.195 156.436 114.132 156.665 114.004C156.897 113.876 157.073 113.71 157.192 113.504C157.315 113.296 157.376 113.073 157.376 112.836V112.062C157.334 112.104 157.254 112.143 157.134 112.18C157.017 112.214 156.883 112.243 156.732 112.27C156.58 112.293 156.433 112.315 156.29 112.336C156.147 112.354 156.027 112.37 155.931 112.383C155.704 112.411 155.497 112.46 155.31 112.527C155.125 112.595 154.976 112.693 154.864 112.82C154.755 112.945 154.7 113.112 154.7 113.32C154.7 113.609 154.807 113.828 155.021 113.977C155.234 114.122 155.506 114.195 155.837 114.195ZM158.13 107V107.82H154.423V107H158.13ZM162.79 109V109.937H159.513V109H162.79ZM160.392 107.562H161.56V113.238C161.56 113.465 161.594 113.635 161.662 113.75C161.729 113.862 161.817 113.939 161.923 113.98C162.033 114.02 162.151 114.039 162.279 114.039C162.372 114.039 162.455 114.033 162.525 114.02C162.595 114.007 162.65 113.996 162.689 113.988L162.9 114.953C162.832 114.979 162.736 115.005 162.611 115.031C162.486 115.06 162.33 115.076 162.142 115.078C161.835 115.083 161.548 115.029 161.283 114.914C161.017 114.799 160.802 114.622 160.638 114.383C160.474 114.143 160.392 113.842 160.392 113.48V107.562ZM163.972 115V109H165.14V115H163.972ZM164.562 108.074C164.359 108.074 164.185 108.007 164.039 107.871C163.896 107.733 163.824 107.569 163.824 107.379C163.824 107.186 163.896 107.022 164.039 106.887C164.185 106.749 164.359 106.68 164.562 106.68C164.765 106.68 164.939 106.749 165.082 106.887C165.228 107.022 165.301 107.186 165.301 107.379C165.301 107.569 165.228 107.733 165.082 107.871C164.939 108.007 164.765 108.074 164.562 108.074ZM168.121 113.906L168.063 114.332C168.024 114.645 167.957 114.97 167.863 115.309C167.772 115.65 167.677 115.966 167.578 116.258C167.482 116.549 167.402 116.781 167.34 116.953H166.512C166.546 116.792 166.593 116.573 166.652 116.297C166.712 116.023 166.771 115.717 166.828 115.379C166.886 115.04 166.929 114.695 166.957 114.344L166.996 113.906H168.121ZM17.8594 125.965L17.8516 124.539H18.0547L20.4453 122H21.8438L19.1172 124.891H18.9336L17.8594 125.965ZM16.7852 128V120H17.9531V128H16.7852ZM20.5742 128L18.4258 125.148L19.2305 124.332L22.0078 128H20.5742ZM26.599 125.512V122H27.7709V128H26.6224V126.961H26.5599C26.4219 127.281 26.2005 127.548 25.8959 127.762C25.5938 127.973 25.2175 128.078 24.767 128.078C24.3815 128.078 24.0404 127.993 23.7435 127.824C23.4492 127.652 23.2175 127.398 23.0482 127.062C22.8815 126.727 22.7982 126.311 22.7982 125.816V122H23.9662V125.676C23.9662 126.085 24.0795 126.41 24.306 126.652C24.5326 126.895 24.8268 127.016 25.1888 127.016C25.4076 127.016 25.625 126.961 25.8412 126.852C26.0599 126.742 26.2409 126.577 26.3841 126.355C26.53 126.134 26.6016 125.853 26.599 125.512ZM29.2302 128V122H30.3591V122.953H30.4216C30.531 122.63 30.7237 122.376 30.9997 122.191C31.2784 122.004 31.5935 121.91 31.945 121.91C32.018 121.91 32.1039 121.913 32.2029 121.918C32.3044 121.923 32.3838 121.93 32.4411 121.937V123.055C32.3943 123.042 32.3109 123.027 32.1911 123.012C32.0713 122.993 31.9515 122.984 31.8318 122.984C31.5557 122.984 31.3096 123.043 31.0935 123.16C30.8799 123.275 30.7107 123.435 30.5857 123.641C30.4607 123.844 30.3982 124.076 30.3982 124.336V128H29.2302ZM33.3419 128V122H34.5098V128H33.3419ZM33.9317 121.074C33.7286 121.074 33.5541 121.007 33.4083 120.871C33.2651 120.733 33.1934 120.569 33.1934 120.379C33.1934 120.186 33.2651 120.022 33.4083 119.887C33.5541 119.749 33.7286 119.68 33.9317 119.68C34.1348 119.68 34.308 119.749 34.4513 119.887C34.5971 120.022 34.67 120.186 34.67 120.379C34.67 120.569 34.5971 120.733 34.4513 120.871C34.308 121.007 34.1348 121.074 33.9317 121.074ZM43.9051 122L41.7293 128H40.4793L38.2996 122H39.5535L41.073 126.617H41.1355L42.6512 122H43.9051ZM47.2746 128.121C46.6834 128.121 46.1743 127.995 45.7472 127.742C45.3227 127.487 44.9946 127.129 44.7629 126.668C44.5337 126.204 44.4191 125.661 44.4191 125.039C44.4191 124.424 44.5337 123.883 44.7629 123.414C44.9946 122.945 45.3175 122.579 45.7316 122.316C46.1483 122.053 46.6352 121.922 47.1925 121.922C47.5311 121.922 47.8592 121.978 48.1769 122.09C48.4946 122.202 48.7798 122.378 49.0324 122.617C49.285 122.857 49.4842 123.168 49.63 123.551C49.7759 123.931 49.8488 124.393 49.8488 124.937V125.352H45.0793V124.477H48.7043C48.7043 124.169 48.6418 123.897 48.5168 123.66C48.3918 123.421 48.216 123.232 47.9894 123.094C47.7655 122.956 47.5024 122.887 47.2004 122.887C46.8722 122.887 46.5858 122.967 46.341 123.129C46.0988 123.288 45.9113 123.496 45.7785 123.754C45.6483 124.009 45.5832 124.286 45.5832 124.586V125.27C45.5832 125.671 45.6535 126.012 45.7941 126.293C45.9373 126.574 46.1365 126.789 46.3918 126.937C46.647 127.083 46.9451 127.156 47.2863 127.156C47.5076 127.156 47.7095 127.125 47.8918 127.062C48.074 126.997 48.2316 126.901 48.3644 126.773C48.4972 126.646 48.5988 126.488 48.6691 126.301L49.7746 126.5C49.686 126.826 49.5272 127.111 49.298 127.355C49.0714 127.598 48.7863 127.786 48.4425 127.922C48.1014 128.055 47.7121 128.121 47.2746 128.121ZM49.0011 120V120.82H45.2941V120H49.0011ZM52.2027 120V128H51.0347V120H52.2027ZM58.9807 130.375C58.5041 130.375 58.094 130.313 57.7502 130.188C57.4091 130.063 57.1304 129.897 56.9143 129.691C56.6981 129.486 56.5367 129.26 56.4299 129.016L57.4338 128.602C57.5041 128.716 57.5979 128.837 57.7151 128.965C57.8349 129.095 57.9963 129.206 58.1995 129.297C58.4052 129.388 58.6695 129.434 58.9924 129.434C59.4351 129.434 59.801 129.326 60.0901 129.109C60.3791 128.896 60.5237 128.555 60.5237 128.086V126.906H60.4495C60.3791 127.034 60.2776 127.176 60.1448 127.332C60.0146 127.488 59.8349 127.624 59.6057 127.738C59.3765 127.853 59.0784 127.91 58.7112 127.91C58.2372 127.91 57.8101 127.799 57.4299 127.578C57.0523 127.354 56.7528 127.025 56.5315 126.59C56.3127 126.152 56.2034 125.615 56.2034 124.977C56.2034 124.339 56.3114 123.792 56.5276 123.336C56.7463 122.88 57.0458 122.531 57.426 122.289C57.8062 122.044 58.2372 121.922 58.719 121.922C59.0914 121.922 59.3922 121.984 59.6213 122.109C59.8505 122.232 60.0289 122.375 60.1565 122.539C60.2867 122.703 60.387 122.848 60.4573 122.973H60.5432V122H61.6877V128.133C61.6877 128.648 61.5679 129.072 61.3284 129.402C61.0888 129.733 60.7646 129.978 60.3557 130.137C59.9495 130.296 59.4911 130.375 58.9807 130.375ZM58.969 126.941C59.3049 126.941 59.5888 126.863 59.8205 126.707C60.0549 126.548 60.232 126.322 60.3518 126.027C60.4742 125.73 60.5354 125.375 60.5354 124.961C60.5354 124.557 60.4755 124.202 60.3557 123.895C60.2359 123.587 60.0601 123.348 59.8284 123.176C59.5966 123.001 59.3101 122.914 58.969 122.914C58.6174 122.914 58.3245 123.005 58.0901 123.188C57.8557 123.367 57.6786 123.612 57.5588 123.922C57.4416 124.232 57.383 124.578 57.383 124.961C57.383 125.354 57.4429 125.699 57.5627 125.996C57.6825 126.293 57.8596 126.525 58.094 126.691C58.331 126.858 58.6226 126.941 58.969 126.941ZM64.8902 128.133C64.51 128.133 64.1663 128.063 63.859 127.922C63.5517 127.779 63.3082 127.572 63.1285 127.301C62.9514 127.03 62.8629 126.698 62.8629 126.305C62.8629 125.966 62.928 125.687 63.0582 125.469C63.1884 125.25 63.3642 125.077 63.5855 124.949C63.8069 124.822 64.0543 124.725 64.3277 124.66C64.6012 124.595 64.8798 124.546 65.1637 124.512C65.523 124.47 65.8147 124.436 66.0387 124.41C66.2626 124.382 66.4254 124.336 66.527 124.273C66.6285 124.211 66.6793 124.109 66.6793 123.969V123.941C66.6793 123.6 66.5829 123.336 66.3902 123.148C66.2001 122.961 65.9163 122.867 65.5387 122.867C65.1454 122.867 64.8355 122.954 64.609 123.129C64.385 123.301 64.2301 123.492 64.1441 123.703L63.0465 123.453C63.1767 123.089 63.3668 122.794 63.6168 122.57C63.8694 122.344 64.1598 122.18 64.4879 122.078C64.816 121.974 65.1611 121.922 65.523 121.922C65.7626 121.922 66.0165 121.951 66.2848 122.008C66.5556 122.062 66.8082 122.164 67.0426 122.312C67.2796 122.461 67.4736 122.673 67.6246 122.949C67.7757 123.223 67.8512 123.578 67.8512 124.016V128H66.7105V127.18H66.6637C66.5882 127.331 66.4749 127.479 66.3238 127.625C66.1728 127.771 65.9788 127.892 65.7418 127.988C65.5048 128.085 65.221 128.133 64.8902 128.133ZM65.1441 127.195C65.4671 127.195 65.7431 127.132 65.9723 127.004C66.204 126.876 66.3798 126.71 66.4996 126.504C66.622 126.296 66.6832 126.073 66.6832 125.836V125.062C66.6415 125.104 66.5608 125.143 66.441 125.18C66.3238 125.214 66.1897 125.243 66.0387 125.27C65.8876 125.293 65.7405 125.315 65.5973 125.336C65.454 125.354 65.3342 125.37 65.2379 125.383C65.0113 125.411 64.8043 125.46 64.6168 125.527C64.4319 125.595 64.2835 125.693 64.1715 125.82C64.0621 125.945 64.0074 126.112 64.0074 126.32C64.0074 126.609 64.1142 126.828 64.3277 126.977C64.5413 127.122 64.8134 127.195 65.1441 127.195ZM69.2968 128V122H70.4648V128H69.2968ZM69.8867 121.074C69.6836 121.074 69.5091 121.007 69.3632 120.871C69.22 120.733 69.1484 120.569 69.1484 120.379C69.1484 120.186 69.22 120.022 69.3632 119.887C69.5091 119.749 69.6836 119.68 69.8867 119.68C70.0898 119.68 70.263 119.749 70.4062 119.887C70.552 120.022 70.625 120.186 70.625 120.379C70.625 120.569 70.552 120.733 70.4062 120.871C70.263 121.007 70.0898 121.074 69.8867 121.074ZM74.1722 128.117C73.6878 128.117 73.2555 127.993 72.8753 127.746C72.4977 127.496 72.2008 127.141 71.9847 126.68C71.7711 126.216 71.6644 125.66 71.6644 125.012C71.6644 124.363 71.7724 123.809 71.9886 123.348C72.2073 122.887 72.5068 122.534 72.887 122.289C73.2672 122.044 73.6982 121.922 74.18 121.922C74.5524 121.922 74.8519 121.984 75.0784 122.109C75.3076 122.232 75.4847 122.375 75.6097 122.539C75.7373 122.703 75.8363 122.848 75.9066 122.973H75.9769V120H77.1448V128H76.0042V127.066H75.9066C75.8363 127.194 75.7347 127.34 75.6019 127.504C75.4717 127.668 75.292 127.811 75.0628 127.934C74.8336 128.056 74.5368 128.117 74.1722 128.117ZM74.43 127.121C74.7659 127.121 75.0498 127.033 75.2816 126.855C75.5159 126.676 75.693 126.427 75.8128 126.109C75.9352 125.792 75.9964 125.422 75.9964 125C75.9964 124.583 75.9365 124.219 75.8167 123.906C75.6969 123.594 75.5211 123.35 75.2894 123.176C75.0576 123.001 74.7711 122.914 74.43 122.914C74.0784 122.914 73.7855 123.005 73.5511 123.188C73.3167 123.37 73.1396 123.618 73.0198 123.934C72.9027 124.249 72.8441 124.604 72.8441 125C72.8441 125.401 72.904 125.762 73.0238 126.082C73.1435 126.402 73.3206 126.656 73.555 126.844C73.792 127.029 74.0836 127.121 74.43 127.121ZM80.4479 128.133C80.0677 128.133 79.724 128.063 79.4167 127.922C79.1094 127.779 78.8659 127.572 78.6862 127.301C78.5091 127.03 78.4206 126.698 78.4206 126.305C78.4206 125.966 78.4857 125.687 78.6159 125.469C78.7461 125.25 78.9219 125.077 79.1432 124.949C79.3646 124.822 79.612 124.725 79.8854 124.66C80.1589 124.595 80.4375 124.546 80.7214 124.512C81.0807 124.47 81.3724 124.436 81.5964 124.41C81.8203 124.382 81.9831 124.336 82.0846 124.273C82.1862 124.211 82.237 124.109 82.237 123.969V123.941C82.237 123.6 82.1406 123.336 81.9479 123.148C81.7578 122.961 81.474 122.867 81.0964 122.867C80.7031 122.867 80.3932 122.954 80.1667 123.129C79.9427 123.301 79.7878 123.492 79.7018 123.703L78.6042 123.453C78.7344 123.089 78.9245 122.794 79.1745 122.57C79.4271 122.344 79.7175 122.18 80.0456 122.078C80.3737 121.974 80.7188 121.922 81.0807 121.922C81.3203 121.922 81.5742 121.951 81.8425 122.008C82.1133 122.062 82.3659 122.164 82.6003 122.312C82.8373 122.461 83.0313 122.673 83.1823 122.949C83.3333 123.223 83.4089 123.578 83.4089 124.016V128H82.2682V127.18H82.2214C82.1458 127.331 82.0326 127.479 81.8815 127.625C81.7305 127.771 81.5365 127.892 81.2995 127.988C81.0625 128.085 80.7787 128.133 80.4479 128.133ZM80.7018 127.195C81.0248 127.195 81.3008 127.132 81.53 127.004C81.7617 126.876 81.9375 126.71 82.0573 126.504C82.1797 126.296 82.2409 126.073 82.2409 125.836V125.062C82.1992 125.104 82.1185 125.143 81.9987 125.18C81.8815 125.214 81.7474 125.243 81.5964 125.27C81.4453 125.293 81.2982 125.315 81.155 125.336C81.0117 125.354 80.8919 125.37 80.7956 125.383C80.569 125.411 80.362 125.46 80.1745 125.527C79.9896 125.595 79.8412 125.693 79.7292 125.82C79.6198 125.945 79.5651 126.112 79.5651 126.32C79.5651 126.609 79.6719 126.828 79.8854 126.977C80.099 127.122 80.3711 127.195 80.7018 127.195ZM89.4018 128.133C89.0215 128.133 88.6778 128.063 88.3705 127.922C88.0632 127.779 87.8197 127.572 87.64 127.301C87.463 127.03 87.3744 126.698 87.3744 126.305C87.3744 125.966 87.4395 125.687 87.5697 125.469C87.6999 125.25 87.8757 125.077 88.0971 124.949C88.3184 124.822 88.5658 124.725 88.8393 124.66C89.1127 124.595 89.3913 124.546 89.6752 124.512C90.0346 124.47 90.3262 124.436 90.5502 124.41C90.7742 124.382 90.9369 124.336 91.0385 124.273C91.14 124.211 91.1908 124.109 91.1908 123.969V123.941C91.1908 123.6 91.0945 123.336 90.9018 123.148C90.7117 122.961 90.4278 122.867 90.0502 122.867C89.657 122.867 89.3471 122.954 89.1205 123.129C88.8965 123.301 88.7416 123.492 88.6557 123.703L87.558 123.453C87.6882 123.089 87.8783 122.794 88.1283 122.57C88.3809 122.344 88.6713 122.18 88.9994 122.078C89.3275 121.974 89.6726 121.922 90.0346 121.922C90.2742 121.922 90.5281 121.951 90.7963 122.008C91.0671 122.062 91.3197 122.164 91.5541 122.312C91.7911 122.461 91.9851 122.673 92.1361 122.949C92.2872 123.223 92.3627 123.578 92.3627 124.016V128H91.2221V127.18H91.1752C91.0997 127.331 90.9864 127.479 90.8354 127.625C90.6843 127.771 90.4903 127.892 90.2533 127.988C90.0163 128.085 89.7325 128.133 89.4018 128.133ZM89.6557 127.195C89.9786 127.195 90.2546 127.132 90.4838 127.004C90.7156 126.876 90.8913 126.71 91.0111 126.504C91.1335 126.296 91.1947 126.073 91.1947 125.836V125.062C91.1531 125.104 91.0723 125.143 90.9525 125.18C90.8354 125.214 90.7012 125.243 90.5502 125.27C90.3992 125.293 90.252 125.315 90.1088 125.336C89.9656 125.354 89.8458 125.37 89.7494 125.383C89.5229 125.411 89.3158 125.46 89.1283 125.527C88.9434 125.595 88.795 125.693 88.683 125.82C88.5736 125.945 88.5189 126.112 88.5189 126.32C88.5189 126.609 88.6257 126.828 88.8393 126.977C89.0528 127.122 89.3249 127.195 89.6557 127.195ZM93.8084 130.25V122H94.949V122.973H95.0466C95.1143 122.848 95.212 122.703 95.3396 122.539C95.4672 122.375 95.6443 122.232 95.8709 122.109C96.0974 121.984 96.3969 121.922 96.7693 121.922C97.2537 121.922 97.686 122.044 98.0662 122.289C98.4464 122.534 98.7446 122.887 98.9607 123.348C99.1795 123.809 99.2888 124.363 99.2888 125.012C99.2888 125.66 99.1808 126.216 98.9646 126.68C98.7485 127.141 98.4516 127.496 98.074 127.746C97.6964 127.993 97.2654 128.117 96.781 128.117C96.4164 128.117 96.1183 128.056 95.8865 127.934C95.6573 127.811 95.4776 127.668 95.3474 127.504C95.2172 127.34 95.117 127.194 95.0466 127.066H94.9763V130.25H93.8084ZM94.9529 125C94.9529 125.422 95.0141 125.792 95.1365 126.109C95.2589 126.427 95.436 126.676 95.6677 126.855C95.8995 127.033 96.1834 127.121 96.5193 127.121C96.8683 127.121 97.1599 127.029 97.3943 126.844C97.6287 126.656 97.8058 126.402 97.9255 126.082C98.0479 125.762 98.1091 125.401 98.1091 125C98.1091 124.604 98.0492 124.249 97.9295 123.934C97.8123 123.618 97.6352 123.37 97.3982 123.188C97.1638 123.005 96.8709 122.914 96.5193 122.914C96.1808 122.914 95.8943 123.001 95.6599 123.176C95.4281 123.35 95.2524 123.594 95.1326 123.906C95.0128 124.219 94.9529 124.583 94.9529 125ZM104.984 123.465L103.925 123.652C103.881 123.517 103.81 123.388 103.714 123.266C103.62 123.143 103.493 123.043 103.331 122.965C103.17 122.887 102.968 122.848 102.726 122.848C102.395 122.848 102.119 122.922 101.898 123.07C101.676 123.216 101.566 123.405 101.566 123.637C101.566 123.837 101.64 123.999 101.788 124.121C101.937 124.243 102.176 124.344 102.507 124.422L103.46 124.641C104.012 124.768 104.424 124.965 104.694 125.23C104.965 125.496 105.101 125.841 105.101 126.266C105.101 126.625 104.997 126.945 104.788 127.227C104.582 127.505 104.295 127.724 103.925 127.883C103.558 128.042 103.132 128.121 102.648 128.121C101.976 128.121 101.428 127.978 101.003 127.691C100.579 127.402 100.318 126.992 100.222 126.461L101.351 126.289C101.421 126.583 101.566 126.806 101.784 126.957C102.003 127.105 102.288 127.18 102.64 127.18C103.023 127.18 103.329 127.1 103.558 126.941C103.787 126.78 103.901 126.583 103.901 126.352C103.901 126.164 103.831 126.007 103.691 125.879C103.553 125.751 103.34 125.655 103.054 125.59L102.038 125.367C101.478 125.24 101.064 125.036 100.796 124.758C100.53 124.479 100.398 124.126 100.398 123.699C100.398 123.345 100.497 123.035 100.694 122.77C100.892 122.504 101.166 122.297 101.515 122.148C101.864 121.997 102.263 121.922 102.714 121.922C103.362 121.922 103.873 122.062 104.245 122.344C104.618 122.622 104.864 122.996 104.984 123.465ZM109.076 122V122.937H105.798V122H109.076ZM106.677 120.562H107.845V126.238C107.845 126.465 107.879 126.635 107.947 126.75C108.014 126.862 108.102 126.939 108.208 126.98C108.318 127.02 108.436 127.039 108.564 127.039C108.658 127.039 108.74 127.033 108.81 127.02C108.88 127.007 108.935 126.996 108.974 126.988L109.185 127.953C109.117 127.979 109.021 128.005 108.896 128.031C108.771 128.06 108.615 128.076 108.427 128.078C108.12 128.083 107.833 128.029 107.568 127.914C107.302 127.799 107.087 127.622 106.923 127.383C106.759 127.143 106.677 126.842 106.677 126.48V120.562ZM110.258 128V122H111.426V128H110.258ZM110.848 121.074C110.644 121.074 110.47 121.007 110.324 120.871C110.181 120.733 110.109 120.569 110.109 120.379C110.109 120.186 110.181 120.022 110.324 119.887C110.47 119.749 110.644 119.68 110.848 119.68C111.051 119.68 111.224 119.749 111.367 119.887C111.513 120.022 111.586 120.186 111.586 120.379C111.586 120.569 111.513 120.733 111.367 120.871C111.224 121.007 111.051 121.074 110.848 121.074ZM112.887 130.25V122H114.028V122.973H114.125C114.193 122.848 114.291 122.703 114.418 122.539C114.546 122.375 114.723 122.232 114.949 122.109C115.176 121.984 115.475 121.922 115.848 121.922C116.332 121.922 116.765 122.044 117.145 122.289C117.525 122.534 117.823 122.887 118.039 123.348C118.258 123.809 118.367 124.363 118.367 125.012C118.367 125.66 118.259 126.216 118.043 126.68C117.827 127.141 117.53 127.496 117.153 127.746C116.775 127.993 116.344 128.117 115.86 128.117C115.495 128.117 115.197 128.056 114.965 127.934C114.736 127.811 114.556 127.668 114.426 127.504C114.296 127.34 114.196 127.194 114.125 127.066H114.055V130.25H112.887ZM114.031 125C114.031 125.422 114.093 125.792 114.215 126.109C114.337 126.427 114.515 126.676 114.746 126.855C114.978 127.033 115.262 127.121 115.598 127.121C115.947 127.121 116.238 127.029 116.473 126.844C116.707 126.656 116.884 126.402 117.004 126.082C117.127 125.762 117.188 125.401 117.188 125C117.188 124.604 117.128 124.249 117.008 123.934C116.891 123.618 116.714 123.37 116.477 123.188C116.242 123.005 115.949 122.914 115.598 122.914C115.259 122.914 114.973 123.001 114.738 123.176C114.507 123.35 114.331 123.594 114.211 123.906C114.091 124.219 114.031 124.583 114.031 125ZM119.566 128V122H120.695V122.953H120.757C120.867 122.63 121.059 122.376 121.336 122.191C121.614 122.004 121.929 121.91 122.281 121.91C122.354 121.91 122.44 121.913 122.539 121.918C122.64 121.923 122.72 121.93 122.777 121.937V123.055C122.73 123.042 122.647 123.027 122.527 123.012C122.407 122.993 122.287 122.984 122.168 122.984C121.892 122.984 121.645 123.043 121.429 123.16C121.216 123.275 121.046 123.435 120.921 123.641C120.796 123.844 120.734 124.076 120.734 124.336V128H119.566ZM123.678 128V122H124.846V128H123.678ZM124.268 121.074C124.064 121.074 123.89 121.007 123.744 120.871C123.601 120.733 123.529 120.569 123.529 120.379C123.529 120.186 123.601 120.022 123.744 119.887C123.89 119.749 124.064 119.68 124.268 119.68C124.471 119.68 124.644 119.749 124.787 119.887C124.933 120.022 125.006 120.186 125.006 120.379C125.006 120.569 124.933 120.733 124.787 120.871C124.644 121.007 124.471 121.074 124.268 121.074ZM127.475 124.437V128H126.307V122H127.428V122.977H127.502C127.64 122.659 127.856 122.404 128.151 122.211C128.448 122.018 128.821 121.922 129.272 121.922C129.681 121.922 130.039 122.008 130.346 122.18C130.653 122.349 130.892 122.602 131.061 122.937C131.23 123.273 131.315 123.689 131.315 124.184V128H130.147V124.324C130.147 123.889 130.033 123.549 129.807 123.305C129.58 123.057 129.269 122.934 128.873 122.934C128.602 122.934 128.362 122.992 128.151 123.109C127.942 123.227 127.777 123.398 127.655 123.625C127.535 123.849 127.475 124.12 127.475 124.437ZM134.517 128.133C134.137 128.133 133.793 128.063 133.486 127.922C133.179 127.779 132.935 127.572 132.756 127.301C132.578 127.03 132.49 126.698 132.49 126.305C132.49 125.966 132.555 125.687 132.685 125.469C132.815 125.25 132.991 125.077 133.213 124.949C133.434 124.822 133.681 124.725 133.955 124.66C134.228 124.595 134.507 124.546 134.791 124.512C135.15 124.47 135.442 124.436 135.666 124.41C135.89 124.382 136.052 124.336 136.154 124.273C136.256 124.211 136.306 124.109 136.306 123.969V123.941C136.306 123.6 136.21 123.336 136.017 123.148C135.827 122.961 135.543 122.867 135.166 122.867C134.772 122.867 134.463 122.954 134.236 123.129C134.012 123.301 133.857 123.492 133.771 123.703L132.673 123.453C132.804 123.089 132.994 122.794 133.244 122.57C133.496 122.344 133.787 122.18 134.115 122.078C134.443 121.974 134.788 121.922 135.15 121.922C135.39 121.922 135.644 121.951 135.912 122.008C136.183 122.062 136.435 122.164 136.67 122.312C136.907 122.461 137.101 122.673 137.252 122.949C137.403 123.223 137.478 123.578 137.478 124.016V128H136.338V127.18H136.291C136.215 127.331 136.102 127.479 135.951 127.625C135.8 127.771 135.606 127.892 135.369 127.988C135.132 128.085 134.848 128.133 134.517 128.133ZM134.771 127.195C135.094 127.195 135.37 127.132 135.599 127.004C135.831 126.876 136.007 126.71 136.127 126.504C136.249 126.296 136.31 126.073 136.31 125.836V125.062C136.269 125.104 136.188 125.143 136.068 125.18C135.951 125.214 135.817 125.243 135.666 125.27C135.515 125.293 135.367 125.315 135.224 125.336C135.081 125.354 134.961 125.37 134.865 125.383C134.638 125.411 134.431 125.46 134.244 125.527C134.059 125.595 133.91 125.693 133.798 125.82C133.689 125.945 133.634 126.112 133.634 126.32C133.634 126.609 133.741 126.828 133.955 126.977C134.168 127.122 134.44 127.195 134.771 127.195ZM137.064 120V120.82H133.357V120H137.064ZM138.924 122H140.092V128.391C140.092 128.792 140.019 129.13 139.873 129.406C139.73 129.682 139.516 129.892 139.232 130.035C138.951 130.178 138.604 130.25 138.189 130.25C138.148 130.25 138.109 130.25 138.072 130.25C138.033 130.25 137.993 130.249 137.951 130.246V129.242C137.988 129.242 138.02 129.242 138.049 129.242C138.075 129.242 138.105 129.242 138.139 129.242C138.415 129.242 138.614 129.168 138.736 129.02C138.861 128.874 138.924 128.661 138.924 128.383V122ZM139.502 121.074C139.299 121.074 139.124 121.007 138.979 120.871C138.835 120.733 138.764 120.569 138.764 120.379C138.764 120.186 138.835 120.022 138.979 119.887C139.124 119.749 139.299 119.68 139.502 119.68C139.705 119.68 139.878 119.749 140.021 119.887C140.167 120.022 140.24 120.186 140.24 120.379C140.24 120.569 140.167 120.733 140.021 120.871C139.878 121.007 139.705 121.074 139.502 121.074ZM145.354 125.512V122H146.526V128H145.377V126.961H145.315C145.177 127.281 144.955 127.548 144.651 127.762C144.349 127.973 143.972 128.078 143.522 128.078C143.136 128.078 142.795 127.993 142.498 127.824C142.204 127.652 141.972 127.398 141.803 127.062C141.636 126.727 141.553 126.311 141.553 125.816V122H142.721V125.676C142.721 126.085 142.834 126.41 143.061 126.652C143.287 126.895 143.582 127.016 143.944 127.016C144.162 127.016 144.38 126.961 144.596 126.852C144.815 126.742 144.996 126.577 145.139 126.355C145.285 126.134 145.356 125.853 145.354 125.512ZM147.985 128V122H149.106V122.977H149.18C149.305 122.646 149.51 122.388 149.794 122.203C150.078 122.016 150.417 121.922 150.813 121.922C151.214 121.922 151.55 122.016 151.821 122.203C152.094 122.391 152.296 122.648 152.426 122.977H152.489C152.632 122.656 152.86 122.401 153.173 122.211C153.485 122.018 153.857 121.922 154.29 121.922C154.834 121.922 155.278 122.092 155.622 122.434C155.968 122.775 156.141 123.289 156.141 123.977V128H154.973V124.086C154.973 123.68 154.863 123.385 154.641 123.203C154.42 123.021 154.156 122.93 153.848 122.93C153.468 122.93 153.173 123.047 152.962 123.281C152.751 123.513 152.645 123.811 152.645 124.176V128H151.481V124.012C151.481 123.686 151.38 123.424 151.176 123.227C150.973 123.029 150.709 122.93 150.384 122.93C150.162 122.93 149.958 122.988 149.77 123.105C149.585 123.22 149.436 123.38 149.321 123.586C149.209 123.792 149.153 124.03 149.153 124.301V128H147.985ZM161.398 125.512V122H162.569V128H161.421V126.961H161.358C161.22 127.281 160.999 127.548 160.694 127.762C160.392 127.973 160.016 128.078 159.566 128.078C159.18 128.078 158.839 127.993 158.542 127.824C158.248 127.652 158.016 127.398 157.847 127.062C157.68 126.727 157.597 126.311 157.597 125.816V122H158.765V125.676C158.765 126.085 158.878 126.41 159.105 126.652C159.331 126.895 159.625 127.016 159.987 127.016C160.206 127.016 160.424 126.961 160.64 126.852C160.858 126.742 161.039 126.577 161.183 126.355C161.329 126.134 161.4 125.853 161.398 125.512ZM165.548 126.906L165.49 127.332C165.451 127.645 165.384 127.97 165.29 128.309C165.199 128.65 165.104 128.966 165.005 129.258C164.909 129.549 164.83 129.781 164.767 129.953H163.939C163.973 129.792 164.02 129.573 164.08 129.297C164.139 129.023 164.198 128.717 164.255 128.379C164.313 128.04 164.356 127.695 164.384 127.344L164.423 126.906H165.548ZM173.561 125.512V122H174.733V128H173.584V126.961H173.522C173.384 127.281 173.162 127.548 172.858 127.762C172.555 127.973 172.179 128.078 171.729 128.078C171.343 128.078 171.002 127.993 170.705 127.824C170.411 127.652 170.179 127.398 170.01 127.062C169.843 126.727 169.76 126.311 169.76 125.816V122H170.928V125.676C170.928 126.085 171.041 126.41 171.268 126.652C171.494 126.895 171.789 127.016 172.151 127.016C172.369 127.016 172.587 126.961 172.803 126.852C173.022 126.742 173.203 126.577 173.346 126.355C173.492 126.134 173.563 125.853 173.561 125.512ZM177.36 124.437V128H176.192V122H177.313V122.977H177.387C177.525 122.659 177.741 122.404 178.036 122.211C178.333 122.018 178.706 121.922 179.157 121.922C179.566 121.922 179.924 122.008 180.231 122.18C180.538 122.349 180.777 122.602 180.946 122.937C181.115 123.273 181.2 123.689 181.2 124.184V128H180.032V124.324C180.032 123.889 179.918 123.549 179.692 123.305C179.465 123.057 179.154 122.934 178.758 122.934C178.487 122.934 178.247 122.992 178.036 123.109C177.827 123.227 177.662 123.398 177.54 123.625C177.42 123.849 177.36 124.12 177.36 124.437ZM21.918 135L19.7422 141H18.4922L16.3125 135H17.5664L19.0859 139.617H19.1484L20.6641 135H21.918ZM24.4798 141.133C24.0996 141.133 23.7559 141.063 23.4486 140.922C23.1413 140.779 22.8978 140.572 22.7181 140.301C22.541 140.03 22.4525 139.698 22.4525 139.305C22.4525 138.966 22.5176 138.687 22.6478 138.469C22.778 138.25 22.9538 138.077 23.1752 137.949C23.3965 137.822 23.6439 137.725 23.9173 137.66C24.1908 137.595 24.4694 137.546 24.7533 137.512C25.1127 137.47 25.4043 137.436 25.6283 137.41C25.8522 137.382 26.015 137.336 26.1166 137.273C26.2181 137.211 26.2689 137.109 26.2689 136.969V136.941C26.2689 136.6 26.1726 136.336 25.9798 136.148C25.7897 135.961 25.5059 135.867 25.1283 135.867C24.7351 135.867 24.4252 135.954 24.1986 136.129C23.9746 136.301 23.8197 136.492 23.7337 136.703L22.6361 136.453C22.7663 136.089 22.9564 135.794 23.2064 135.57C23.459 135.344 23.7494 135.18 24.0775 135.078C24.4056 134.974 24.7507 134.922 25.1127 134.922C25.3522 134.922 25.6061 134.951 25.8744 135.008C26.1452 135.062 26.3978 135.164 26.6322 135.312C26.8692 135.461 27.0632 135.673 27.2142 135.949C27.3653 136.223 27.4408 136.578 27.4408 137.016V141H26.3002V140.18H26.2533C26.1778 140.331 26.0645 140.479 25.9134 140.625C25.7624 140.771 25.5684 140.892 25.3314 140.988C25.0944 141.085 24.8106 141.133 24.4798 141.133ZM24.7337 140.195C25.0567 140.195 25.3327 140.132 25.5619 140.004C25.7936 139.876 25.9694 139.71 26.0892 139.504C26.2116 139.296 26.2728 139.073 26.2728 138.836V138.062C26.2311 138.104 26.1504 138.143 26.0306 138.18C25.9134 138.214 25.7793 138.243 25.6283 138.27C25.4772 138.293 25.3301 138.315 25.1869 138.336C25.0436 138.354 24.9239 138.37 24.8275 138.383C24.6009 138.411 24.3939 138.46 24.2064 138.527C24.0215 138.595 23.8731 138.693 23.7611 138.82C23.6517 138.945 23.597 139.112 23.597 139.32C23.597 139.609 23.7038 139.828 23.9173 139.977C24.1309 140.122 24.403 140.195 24.7337 140.195ZM28.8864 141V135H30.0154V135.953H30.0779C30.1872 135.63 30.3799 135.376 30.656 135.191C30.9346 135.004 31.2497 134.91 31.6013 134.91C31.6742 134.91 31.7601 134.913 31.8591 134.918C31.9607 134.923 32.0401 134.93 32.0974 134.937V136.055C32.0505 136.042 31.9672 136.027 31.8474 136.012C31.7276 135.993 31.6078 135.984 31.488 135.984C31.212 135.984 30.9659 136.043 30.7497 136.16C30.5362 136.275 30.3669 136.435 30.2419 136.641C30.1169 136.844 30.0544 137.076 30.0544 137.336V141H28.8864ZM32.9981 141V135H34.1661V141H32.9981ZM33.588 134.074C33.3848 134.074 33.2104 134.007 33.0645 133.871C32.9213 133.733 32.8497 133.569 32.8497 133.379C32.8497 133.186 32.9213 133.022 33.0645 132.887C33.2104 132.749 33.3848 132.68 33.588 132.68C33.7911 132.68 33.9643 132.749 34.1075 132.887C34.2533 133.022 34.3263 133.186 34.3263 133.379C34.3263 133.569 34.2533 133.733 34.1075 133.871C33.9643 134.007 33.7911 134.074 33.588 134.074ZM42.9246 136.465L41.866 136.652C41.8217 136.517 41.7514 136.388 41.6551 136.266C41.5613 136.143 41.4337 136.043 41.2723 135.965C41.1108 135.887 40.909 135.848 40.6668 135.848C40.3361 135.848 40.06 135.922 39.8387 136.07C39.6173 136.216 39.5066 136.405 39.5066 136.637C39.5066 136.837 39.5809 136.999 39.7293 137.121C39.8777 137.243 40.1173 137.344 40.448 137.422L41.4012 137.641C41.9533 137.768 42.3647 137.965 42.6355 138.23C42.9064 138.496 43.0418 138.841 43.0418 139.266C43.0418 139.625 42.9376 139.945 42.7293 140.227C42.5236 140.505 42.2358 140.724 41.866 140.883C41.4988 141.042 41.073 141.121 40.5887 141.121C39.9168 141.121 39.3686 140.978 38.9441 140.691C38.5197 140.402 38.2592 139.992 38.1629 139.461L39.2918 139.289C39.3621 139.583 39.5066 139.806 39.7254 139.957C39.9441 140.105 40.2293 140.18 40.5809 140.18C40.9637 140.18 41.2697 140.1 41.4988 139.941C41.728 139.78 41.8426 139.583 41.8426 139.352C41.8426 139.164 41.7723 139.007 41.6316 138.879C41.4936 138.751 41.2814 138.655 40.9949 138.59L39.9793 138.367C39.4194 138.24 39.0053 138.036 38.7371 137.758C38.4715 137.479 38.3387 137.126 38.3387 136.699C38.3387 136.345 38.4376 136.035 38.6355 135.77C38.8335 135.504 39.1069 135.297 39.4559 135.148C39.8048 134.997 40.2046 134.922 40.6551 134.922C41.3035 134.922 41.8139 135.062 42.1863 135.344C42.5587 135.622 42.8048 135.996 42.9246 136.465ZM45.9621 141.133C45.5819 141.133 45.2381 141.063 44.9308 140.922C44.6235 140.779 44.38 140.572 44.2004 140.301C44.0233 140.03 43.9347 139.698 43.9347 139.305C43.9347 138.966 43.9998 138.687 44.13 138.469C44.2602 138.25 44.436 138.077 44.6574 137.949C44.8787 137.822 45.1261 137.725 45.3996 137.66C45.673 137.595 45.9517 137.546 46.2355 137.512C46.5949 137.47 46.8865 137.436 47.1105 137.41C47.3345 137.382 47.4972 137.336 47.5988 137.273C47.7004 137.211 47.7511 137.109 47.7511 136.969V136.941C47.7511 136.6 47.6548 136.336 47.4621 136.148C47.272 135.961 46.9881 135.867 46.6105 135.867C46.2173 135.867 45.9074 135.954 45.6808 136.129C45.4569 136.301 45.3019 136.492 45.216 136.703L44.1183 136.453C44.2485 136.089 44.4386 135.794 44.6886 135.57C44.9412 135.344 45.2316 135.18 45.5597 135.078C45.8879 134.974 46.2329 134.922 46.5949 134.922C46.8345 134.922 47.0884 134.951 47.3566 135.008C47.6274 135.062 47.88 135.164 48.1144 135.312C48.3514 135.461 48.5454 135.673 48.6964 135.949C48.8475 136.223 48.923 136.578 48.923 137.016V141H47.7824V140.18H47.7355C47.66 140.331 47.5467 140.479 47.3957 140.625C47.2446 140.771 47.0506 140.892 46.8136 140.988C46.5767 141.085 46.2928 141.133 45.9621 141.133ZM46.216 140.195C46.5389 140.195 46.8149 140.132 47.0441 140.004C47.2759 139.876 47.4517 139.71 47.5714 139.504C47.6938 139.296 47.755 139.073 47.755 138.836V138.062C47.7134 138.104 47.6326 138.143 47.5129 138.18C47.3957 138.214 47.2615 138.243 47.1105 138.27C46.9595 138.293 46.8123 138.315 46.6691 138.336C46.5259 138.354 46.4061 138.37 46.3097 138.383C46.0832 138.411 45.8761 138.46 45.6886 138.527C45.5037 138.595 45.3553 138.693 45.2433 138.82C45.1339 138.945 45.0793 139.112 45.0793 139.32C45.0793 139.609 45.186 139.828 45.3996 139.977C45.6131 140.122 45.8852 140.195 46.216 140.195ZM54.8648 136.465L53.8062 136.652C53.7619 136.517 53.6916 136.388 53.5952 136.266C53.5015 136.143 53.3739 136.043 53.2124 135.965C53.051 135.887 52.8491 135.848 52.607 135.848C52.2762 135.848 52.0002 135.922 51.7788 136.07C51.5575 136.216 51.4468 136.405 51.4468 136.637C51.4468 136.837 51.521 136.999 51.6695 137.121C51.8179 137.243 52.0575 137.344 52.3882 137.422L53.3413 137.641C53.8934 137.768 54.3049 137.965 54.5757 138.23C54.8465 138.496 54.982 138.841 54.982 139.266C54.982 139.625 54.8778 139.945 54.6695 140.227C54.4637 140.505 54.176 140.724 53.8062 140.883C53.439 141.042 53.0132 141.121 52.5288 141.121C51.857 141.121 51.3088 140.978 50.8843 140.691C50.4598 140.402 50.1994 139.992 50.103 139.461L51.232 139.289C51.3023 139.583 51.4468 139.806 51.6655 139.957C51.8843 140.105 52.1695 140.18 52.521 140.18C52.9038 140.18 53.2098 140.1 53.439 139.941C53.6682 139.78 53.7827 139.583 53.7827 139.352C53.7827 139.164 53.7124 139.007 53.5718 138.879C53.4338 138.751 53.2215 138.655 52.9351 138.59L51.9195 138.367C51.3596 138.24 50.9455 138.036 50.6773 137.758C50.4116 137.479 50.2788 137.126 50.2788 136.699C50.2788 136.345 50.3778 136.035 50.5757 135.77C50.7736 135.504 51.0471 135.297 51.396 135.148C51.745 134.997 52.1447 134.922 52.5952 134.922C53.2437 134.922 53.7541 135.062 54.1265 135.344C54.4989 135.622 54.745 135.996 54.8648 136.465ZM57.9022 141.133C57.522 141.133 57.1783 141.063 56.871 140.922C56.5637 140.779 56.3202 140.572 56.1405 140.301C55.9634 140.03 55.8749 139.698 55.8749 139.305C55.8749 138.966 55.94 138.687 56.0702 138.469C56.2004 138.25 56.3762 138.077 56.5975 137.949C56.8189 137.822 57.0663 137.725 57.3397 137.66C57.6132 137.595 57.8918 137.546 58.1757 137.512C58.535 137.47 58.8267 137.436 59.0507 137.41C59.2746 137.382 59.4374 137.336 59.5389 137.273C59.6405 137.211 59.6913 137.109 59.6913 136.969V136.941C59.6913 136.6 59.5949 136.336 59.4022 136.148C59.2121 135.961 58.9283 135.867 58.5507 135.867C58.1574 135.867 57.8475 135.954 57.621 136.129C57.397 136.301 57.2421 136.492 57.1561 136.703L56.0585 136.453C56.1887 136.089 56.3788 135.794 56.6288 135.57C56.8814 135.344 57.1718 135.18 57.4999 135.078C57.828 134.974 58.1731 134.922 58.535 134.922C58.7746 134.922 59.0285 134.951 59.2968 135.008C59.5676 135.062 59.8202 135.164 60.0546 135.312C60.2915 135.461 60.4856 135.673 60.6366 135.949C60.7876 136.223 60.8632 136.578 60.8632 137.016V141H59.7225V140.18H59.6757C59.6001 140.331 59.4869 140.479 59.3358 140.625C59.1848 140.771 58.9908 140.892 58.7538 140.988C58.5168 141.085 58.233 141.133 57.9022 141.133ZM58.1561 140.195C58.479 140.195 58.7551 140.132 58.9843 140.004C59.216 139.876 59.3918 139.71 59.5116 139.504C59.634 139.296 59.6952 139.073 59.6952 138.836V138.062C59.6535 138.104 59.5728 138.143 59.453 138.18C59.3358 138.214 59.2017 138.243 59.0507 138.27C58.8996 138.293 58.7525 138.315 58.6093 138.336C58.466 138.354 58.3462 138.37 58.2499 138.383C58.0233 138.411 57.8163 138.46 57.6288 138.527C57.4439 138.595 57.2955 138.693 57.1835 138.82C57.0741 138.945 57.0194 139.112 57.0194 139.32C57.0194 139.609 57.1262 139.828 57.3397 139.977C57.5533 140.122 57.8254 140.195 58.1561 140.195ZM62.3088 141V135H63.4768V141H62.3088ZM62.8987 134.074C62.6955 134.074 62.5211 134.007 62.3752 133.871C62.232 133.733 62.1604 133.569 62.1604 133.379C62.1604 133.186 62.232 133.022 62.3752 132.887C62.5211 132.749 62.6955 132.68 62.8987 132.68C63.1018 132.68 63.275 132.749 63.4182 132.887C63.564 133.022 63.637 133.186 63.637 133.379C63.637 133.569 63.564 133.733 63.4182 133.871C63.275 134.007 63.1018 134.074 62.8987 134.074ZM69.4342 136.465L68.3756 136.652C68.3313 136.517 68.261 136.388 68.1647 136.266C68.0709 136.143 67.9433 136.043 67.7818 135.965C67.6204 135.887 67.4186 135.848 67.1764 135.848C66.8456 135.848 66.5696 135.922 66.3482 136.07C66.1269 136.216 66.0162 136.405 66.0162 136.637C66.0162 136.837 66.0904 136.999 66.2389 137.121C66.3873 137.243 66.6269 137.344 66.9576 137.422L67.9107 137.641C68.4628 137.768 68.8743 137.965 69.1451 138.23C69.416 138.496 69.5514 138.841 69.5514 139.266C69.5514 139.625 69.4472 139.945 69.2389 140.227C69.0331 140.505 68.7454 140.724 68.3756 140.883C68.0084 141.042 67.5826 141.121 67.0982 141.121C66.4264 141.121 65.8782 140.978 65.4537 140.691C65.0292 140.402 64.7688 139.992 64.6725 139.461L65.8014 139.289C65.8717 139.583 66.0162 139.806 66.235 139.957C66.4537 140.105 66.7389 140.18 67.0904 140.18C67.4732 140.18 67.7792 140.1 68.0084 139.941C68.2376 139.78 68.3521 139.583 68.3521 139.352C68.3521 139.164 68.2818 139.007 68.1412 138.879C68.0032 138.751 67.791 138.655 67.5045 138.59L66.4889 138.367C65.929 138.24 65.5149 138.036 65.2467 137.758C64.9811 137.479 64.8482 137.126 64.8482 136.699C64.8482 136.345 64.9472 136.035 65.1451 135.77C65.343 135.504 65.6165 135.297 65.9654 135.148C66.3144 134.997 66.7141 134.922 67.1647 134.922C67.8131 134.922 68.3235 135.062 68.6959 135.344C69.0683 135.622 69.3144 135.996 69.4342 136.465ZM73.5263 135V135.937H70.249V135H73.5263ZM71.1279 133.562H72.2959V139.238C72.2959 139.465 72.3297 139.635 72.3974 139.75C72.4651 139.862 72.5524 139.939 72.6591 139.98C72.7685 140.02 72.887 140.039 73.0146 140.039C73.1084 140.039 73.1904 140.033 73.2607 140.02C73.331 140.007 73.3857 139.996 73.4248 139.988L73.6357 140.953C73.568 140.979 73.4716 141.005 73.3466 141.031C73.2216 141.06 73.0654 141.076 72.8779 141.078C72.5706 141.083 72.2841 141.029 72.0185 140.914C71.7529 140.799 71.538 140.622 71.374 140.383C71.2099 140.143 71.1279 139.842 71.1279 139.48V133.562ZM74.7083 141V135H75.8763V141H74.7083ZM77.1536 133V133.82H73.4466V133H77.1536ZM80.697 135V135.937H77.4196V135H80.697ZM78.2985 133.562H79.4665V139.238C79.4665 139.465 79.5003 139.635 79.568 139.75C79.6358 139.862 79.723 139.939 79.8298 139.98C79.9391 140.02 80.0576 140.039 80.1852 140.039C80.279 140.039 80.361 140.033 80.4313 140.02C80.5016 140.007 80.5563 139.996 80.5954 139.988L80.8063 140.953C80.7386 140.979 80.6423 141.005 80.5173 141.031C80.3923 141.06 80.236 141.076 80.0485 141.078C79.7412 141.083 79.4548 141.029 79.1891 140.914C78.9235 140.799 78.7087 140.622 78.5446 140.383C78.3805 140.143 78.2985 139.842 78.2985 139.48V133.562ZM87.4809 135V135.937H84.2035V135H87.4809ZM85.0824 133.562H86.2504V139.238C86.2504 139.465 86.2842 139.635 86.352 139.75C86.4197 139.862 86.5069 139.939 86.6137 139.98C86.723 140.02 86.8415 140.039 86.9691 140.039C87.0629 140.039 87.1449 140.033 87.2152 140.02C87.2855 140.007 87.3402 139.996 87.3793 139.988L87.5902 140.953C87.5225 140.979 87.4262 141.005 87.3012 141.031C87.1762 141.06 87.0199 141.076 86.8324 141.078C86.5251 141.083 86.2387 141.029 85.973 140.914C85.7074 140.799 85.4926 140.622 85.3285 140.383C85.1645 140.143 85.0824 139.842 85.0824 139.48V133.562ZM91.1257 141.121C90.5632 141.121 90.0724 140.992 89.6531 140.734C89.2338 140.477 88.9083 140.116 88.6765 139.652C88.4448 139.189 88.3289 138.647 88.3289 138.027C88.3289 137.405 88.4448 136.861 88.6765 136.395C88.9083 135.928 89.2338 135.566 89.6531 135.309C90.0724 135.051 90.5632 134.922 91.1257 134.922C91.6882 134.922 92.1791 135.051 92.5984 135.309C93.0177 135.566 93.3432 135.928 93.575 136.395C93.8067 136.861 93.9226 137.405 93.9226 138.027C93.9226 138.647 93.8067 139.189 93.575 139.652C93.3432 140.116 93.0177 140.477 92.5984 140.734C92.1791 140.992 91.6882 141.121 91.1257 141.121ZM91.1296 140.141C91.4942 140.141 91.7963 140.044 92.0359 139.852C92.2755 139.659 92.4526 139.402 92.5671 139.082C92.6843 138.762 92.7429 138.409 92.7429 138.023C92.7429 137.641 92.6843 137.289 92.5671 136.969C92.4526 136.646 92.2755 136.387 92.0359 136.191C91.7963 135.996 91.4942 135.898 91.1296 135.898C90.7625 135.898 90.4578 135.996 90.2156 136.191C89.976 136.387 89.7976 136.646 89.6804 136.969C89.5658 137.289 89.5086 137.641 89.5086 138.023C89.5086 138.409 89.5658 138.762 89.6804 139.082C89.7976 139.402 89.976 139.659 90.2156 139.852C90.4578 140.044 90.7625 140.141 91.1296 140.141ZM99.6124 136.465L98.5538 136.652C98.5096 136.517 98.4392 136.388 98.3429 136.266C98.2491 136.143 98.1215 136.043 97.9601 135.965C97.7986 135.887 97.5968 135.848 97.3546 135.848C97.0239 135.848 96.7478 135.922 96.5265 136.07C96.3051 136.216 96.1945 136.405 96.1945 136.637C96.1945 136.837 96.2687 136.999 96.4171 137.121C96.5655 137.243 96.8051 137.344 97.1359 137.422L98.089 137.641C98.6411 137.768 99.0525 137.965 99.3234 138.23C99.5942 138.496 99.7296 138.841 99.7296 139.266C99.7296 139.625 99.6254 139.945 99.4171 140.227C99.2114 140.505 98.9236 140.724 98.5538 140.883C98.1866 141.042 97.7609 141.121 97.2765 141.121C96.6046 141.121 96.0564 140.978 95.632 140.691C95.2075 140.402 94.9471 139.992 94.8507 139.461L95.9796 139.289C96.0499 139.583 96.1945 139.806 96.4132 139.957C96.632 140.105 96.9171 140.18 97.2687 140.18C97.6515 140.18 97.9575 140.1 98.1866 139.941C98.4158 139.78 98.5304 139.583 98.5304 139.352C98.5304 139.164 98.4601 139.007 98.3195 138.879C98.1814 138.751 97.9692 138.655 97.6827 138.59L96.6671 138.367C96.1072 138.24 95.6931 138.036 95.4249 137.758C95.1593 137.479 95.0265 137.126 95.0265 136.699C95.0265 136.345 95.1254 136.035 95.3234 135.77C95.5213 135.504 95.7947 135.297 96.1437 135.148C96.4926 134.997 96.8924 134.922 97.3429 134.922C97.9913 134.922 98.5017 135.062 98.8741 135.344C99.2465 135.622 99.4926 135.996 99.6124 136.465ZM105.451 141.133C105.071 141.133 104.727 141.063 104.42 140.922C104.112 140.779 103.869 140.572 103.689 140.301C103.512 140.03 103.424 139.698 103.424 139.305C103.424 138.966 103.489 138.687 103.619 138.469C103.749 138.25 103.925 138.077 104.146 137.949C104.368 137.822 104.615 137.725 104.889 137.66C105.162 137.595 105.441 137.546 105.724 137.512C106.084 137.47 106.375 137.436 106.599 137.41C106.823 137.382 106.986 137.336 107.088 137.273C107.189 137.211 107.24 137.109 107.24 136.969V136.941C107.24 136.6 107.144 136.336 106.951 136.148C106.761 135.961 106.477 135.867 106.099 135.867C105.706 135.867 105.396 135.954 105.17 136.129C104.946 136.301 104.791 136.492 104.705 136.703L103.607 136.453C103.737 136.089 103.928 135.794 104.178 135.57C104.43 135.344 104.721 135.18 105.049 135.078C105.377 134.974 105.722 134.922 106.084 134.922C106.323 134.922 106.577 134.951 106.846 135.008C107.116 135.062 107.369 135.164 107.603 135.312C107.84 135.461 108.034 135.673 108.185 135.949C108.336 136.223 108.412 136.578 108.412 137.016V141H107.271V140.18H107.224C107.149 140.331 107.036 140.479 106.885 140.625C106.734 140.771 106.54 140.892 106.303 140.988C106.066 141.085 105.782 141.133 105.451 141.133ZM105.705 140.195C106.028 140.195 106.304 140.132 106.533 140.004C106.765 139.876 106.941 139.71 107.06 139.504C107.183 139.296 107.244 139.073 107.244 138.836V138.062C107.202 138.104 107.122 138.143 107.002 138.18C106.885 138.214 106.75 138.243 106.599 138.27C106.448 138.293 106.301 138.315 106.158 138.336C106.015 138.354 105.895 138.37 105.799 138.383C105.572 138.411 105.365 138.46 105.178 138.527C104.993 138.595 104.844 138.693 104.732 138.82C104.623 138.945 104.568 139.112 104.568 139.32C104.568 139.609 104.675 139.828 104.889 139.977C105.102 140.122 105.374 140.195 105.705 140.195ZM109.858 141V135H110.987V135.953H111.049C111.158 135.63 111.351 135.376 111.627 135.191C111.906 135.004 112.221 134.91 112.572 134.91C112.645 134.91 112.731 134.913 112.83 134.918C112.932 134.923 113.011 134.93 113.069 134.937V136.055C113.022 136.042 112.938 136.027 112.819 136.012C112.699 135.993 112.579 135.984 112.459 135.984C112.183 135.984 111.937 136.043 111.721 136.16C111.507 136.275 111.338 136.435 111.213 136.641C111.088 136.844 111.026 137.076 111.026 137.336V141H109.858ZM116.77 141V135H117.938V141H116.77ZM117.36 134.074C117.157 134.074 116.983 134.007 116.837 133.871C116.694 133.733 116.622 133.569 116.622 133.379C116.622 133.186 116.694 133.022 116.837 132.887C116.983 132.749 117.157 132.68 117.36 132.68C117.563 132.68 117.737 132.749 117.88 132.887C118.026 133.022 118.099 133.186 118.099 133.379C118.099 133.569 118.026 133.733 117.88 133.871C117.737 134.007 117.563 134.074 117.36 134.074ZM121.986 141.121C121.394 141.121 120.885 140.995 120.458 140.742C120.034 140.487 119.706 140.129 119.474 139.668C119.245 139.204 119.13 138.661 119.13 138.039C119.13 137.424 119.245 136.883 119.474 136.414C119.706 135.945 120.029 135.579 120.443 135.316C120.859 135.053 121.346 134.922 121.904 134.922C122.242 134.922 122.57 134.978 122.888 135.09C123.206 135.202 123.491 135.378 123.743 135.617C123.996 135.857 124.195 136.168 124.341 136.551C124.487 136.931 124.56 137.393 124.56 137.937V138.352H119.79V137.477H123.415C123.415 137.169 123.353 136.897 123.228 136.66C123.103 136.421 122.927 136.232 122.7 136.094C122.477 135.956 122.213 135.887 121.911 135.887C121.583 135.887 121.297 135.967 121.052 136.129C120.81 136.288 120.622 136.496 120.49 136.754C120.359 137.009 120.294 137.286 120.294 137.586V138.27C120.294 138.671 120.365 139.012 120.505 139.293C120.648 139.574 120.848 139.789 121.103 139.937C121.358 140.083 121.656 140.156 121.997 140.156C122.219 140.156 122.421 140.125 122.603 140.062C122.785 139.997 122.943 139.901 123.075 139.773C123.208 139.646 123.31 139.488 123.38 139.301L124.486 139.5C124.397 139.826 124.238 140.111 124.009 140.355C123.783 140.598 123.497 140.786 123.154 140.922C122.812 141.055 122.423 141.121 121.986 141.121ZM126.914 137.437V141H125.746V135H126.867V135.977H126.941C127.079 135.659 127.295 135.404 127.589 135.211C127.886 135.018 128.26 134.922 128.711 134.922C129.119 134.922 129.478 135.008 129.785 135.18C130.092 135.349 130.33 135.602 130.5 135.937C130.669 136.273 130.754 136.689 130.754 137.184V141H129.586V137.324C129.586 136.889 129.472 136.549 129.246 136.305C129.019 136.057 128.708 135.934 128.312 135.934C128.041 135.934 127.8 135.992 127.589 136.109C127.381 136.227 127.216 136.398 127.093 136.625C126.974 136.849 126.914 137.12 126.914 137.437ZM133.956 141.133C133.576 141.133 133.232 141.063 132.925 140.922C132.618 140.779 132.374 140.572 132.194 140.301C132.017 140.03 131.929 139.698 131.929 139.305C131.929 138.966 131.994 138.687 132.124 138.469C132.254 138.25 132.43 138.077 132.651 137.949C132.873 137.822 133.12 137.725 133.394 137.66C133.667 137.595 133.946 137.546 134.229 137.512C134.589 137.47 134.881 137.436 135.104 137.41C135.328 137.382 135.491 137.336 135.593 137.273C135.694 137.211 135.745 137.109 135.745 136.969V136.941C135.745 136.6 135.649 136.336 135.456 136.148C135.266 135.961 134.982 135.867 134.604 135.867C134.211 135.867 133.901 135.954 133.675 136.129C133.451 136.301 133.296 136.492 133.21 136.703L132.112 136.453C132.243 136.089 132.433 135.794 132.683 135.57C132.935 135.344 133.226 135.18 133.554 135.078C133.882 134.974 134.227 134.922 134.589 134.922C134.828 134.922 135.082 134.951 135.351 135.008C135.621 135.062 135.874 135.164 136.108 135.312C136.345 135.461 136.539 135.673 136.69 135.949C136.841 136.223 136.917 136.578 136.917 137.016V141H135.776V140.18H135.729C135.654 140.331 135.541 140.479 135.39 140.625C135.239 140.771 135.045 140.892 134.808 140.988C134.571 141.085 134.287 141.133 133.956 141.133ZM134.21 140.195C134.533 140.195 134.809 140.132 135.038 140.004C135.27 139.876 135.446 139.71 135.565 139.504C135.688 139.296 135.749 139.073 135.749 138.836V138.062C135.707 138.104 135.627 138.143 135.507 138.18C135.39 138.214 135.256 138.243 135.104 138.27C134.953 138.293 134.806 138.315 134.663 138.336C134.52 138.354 134.4 138.37 134.304 138.383C134.077 138.411 133.87 138.46 133.683 138.527C133.498 138.595 133.349 138.693 133.237 138.82C133.128 138.945 133.073 139.112 133.073 139.32C133.073 139.609 133.18 139.828 133.394 139.977C133.607 140.122 133.879 140.195 134.21 140.195ZM136.503 133V133.82H132.796V133H136.503ZM139.437 138.965L139.429 137.539H139.632L142.023 135H143.421L140.695 137.891H140.511L139.437 138.965ZM138.363 141V133H139.531V141H138.363ZM142.152 141L140.003 138.148L140.808 137.332L143.585 141H142.152ZM148.176 138.512V135H149.348V141H148.2V139.961H148.137C147.999 140.281 147.778 140.548 147.473 140.762C147.171 140.973 146.795 141.078 146.344 141.078C145.959 141.078 145.618 140.993 145.321 140.824C145.027 140.652 144.795 140.398 144.626 140.062C144.459 139.727 144.376 139.311 144.376 138.816V135H145.544V138.676C145.544 139.085 145.657 139.41 145.884 139.652C146.11 139.895 146.404 140.016 146.766 140.016C146.985 140.016 147.203 139.961 147.419 139.852C147.637 139.742 147.818 139.577 147.962 139.355C148.107 139.134 148.179 138.853 148.176 138.512ZM150.808 141V135H151.929V135.977H152.003C152.128 135.646 152.332 135.388 152.616 135.203C152.9 135.016 153.24 134.922 153.636 134.922C154.037 134.922 154.373 135.016 154.644 135.203C154.917 135.391 155.119 135.648 155.249 135.977H155.312C155.455 135.656 155.683 135.401 155.995 135.211C156.308 135.018 156.68 134.922 157.112 134.922C157.657 134.922 158.101 135.092 158.444 135.434C158.791 135.775 158.964 136.289 158.964 136.977V141H157.796V137.086C157.796 136.68 157.685 136.385 157.464 136.203C157.243 136.021 156.978 135.93 156.671 135.93C156.291 135.93 155.995 136.047 155.784 136.281C155.573 136.513 155.468 136.811 155.468 137.176V141H154.304V137.012C154.304 136.686 154.202 136.424 153.999 136.227C153.796 136.029 153.532 135.93 153.206 135.93C152.985 135.93 152.78 135.988 152.593 136.105C152.408 136.22 152.258 136.38 152.144 136.586C152.032 136.792 151.976 137.03 151.976 137.301V141H150.808ZM160.419 141V135H161.587V141H160.419ZM161.009 134.074C160.806 134.074 160.632 134.007 160.486 133.871C160.343 133.733 160.271 133.569 160.271 133.379C160.271 133.186 160.343 133.022 160.486 132.887C160.632 132.749 160.806 132.68 161.009 132.68C161.212 132.68 161.386 132.749 161.529 132.887C161.675 133.022 161.747 133.186 161.747 133.379C161.747 133.569 161.675 133.733 161.529 133.871C161.386 134.007 161.212 134.074 161.009 134.074ZM165.635 141.121C165.043 141.121 164.534 140.995 164.107 140.742C163.683 140.487 163.355 140.129 163.123 139.668C162.894 139.204 162.779 138.661 162.779 138.039C162.779 137.424 162.894 136.883 163.123 136.414C163.355 135.945 163.678 135.579 164.092 135.316C164.508 135.053 164.995 134.922 165.553 134.922C165.891 134.922 166.219 134.978 166.537 135.09C166.855 135.202 167.14 135.378 167.392 135.617C167.645 135.857 167.844 136.168 167.99 136.551C168.136 136.931 168.209 137.393 168.209 137.937V138.352H163.439V137.477H167.064C167.064 137.169 167.002 136.897 166.877 136.66C166.752 136.421 166.576 136.232 166.349 136.094C166.125 135.956 165.862 135.887 165.56 135.887C165.232 135.887 164.946 135.967 164.701 136.129C164.459 136.288 164.271 136.496 164.138 136.754C164.008 137.009 163.943 137.286 163.943 137.586V138.27C163.943 138.671 164.013 139.012 164.154 139.293C164.297 139.574 164.497 139.789 164.752 139.937C165.007 140.083 165.305 140.156 165.646 140.156C165.868 140.156 166.069 140.125 166.252 140.062C166.434 139.997 166.592 139.901 166.724 139.773C166.857 139.646 166.959 139.488 167.029 139.301L168.135 139.5C168.046 139.826 167.887 140.111 167.658 140.355C167.431 140.598 167.146 140.786 166.803 140.922C166.461 141.055 166.072 141.121 165.635 141.121ZM169.395 141V135H170.516V135.977H170.59C170.715 135.646 170.919 135.388 171.203 135.203C171.487 135.016 171.827 134.922 172.223 134.922C172.624 134.922 172.96 135.016 173.231 135.203C173.504 135.391 173.706 135.648 173.836 135.977H173.899C174.042 135.656 174.27 135.401 174.582 135.211C174.895 135.018 175.267 134.922 175.699 134.922C176.244 134.922 176.688 135.092 177.031 135.434C177.378 135.775 177.551 136.289 177.551 136.977V141H176.383V137.086C176.383 136.68 176.272 136.385 176.051 136.203C175.83 136.021 175.565 135.93 175.258 135.93C174.878 135.93 174.582 136.047 174.371 136.281C174.16 136.513 174.055 136.811 174.055 137.176V141H172.891V137.012C172.891 136.686 172.789 136.424 172.586 136.227C172.383 136.029 172.119 135.93 171.793 135.93C171.572 135.93 171.367 135.988 171.18 136.105C170.995 136.22 170.845 136.38 170.731 136.586C170.619 136.792 170.563 137.03 170.563 137.301V141H169.395Z" fill="#1A1D27"/>
</svg>
