<svg width="200" height="139" viewBox="0 0 200 139" fill="none" xmlns="http://www.w3.org/2000/svg">
<rect width="200" height="139" rx="16" fill="white" fill-opacity="0.7"/>
<rect x="16" y="16" width="32" height="32" rx="16" fill="#1A1D27"/>
<path d="M31.25 27.5L38.75 27.5005M31.25 32L38.75 32.0005M31.25 36.5L38.75 36.5005M25.25 31.9583L26.4038 33.125L29 30.5M25.25 27.4583L26.4038 28.625L29 26M26.375 36.5H26.3825M26.75 36.5C26.75 36.7071 26.5821 36.875 26.375 36.875C26.1679 36.875 26 36.7071 26 36.5C26 36.2929 26.1679 36.125 26.375 36.125C26.5821 36.125 26.75 36.2929 26.75 36.5Z" stroke="white" stroke-width="1.5" stroke-linecap="round" stroke-linejoin="round"/>
<path d="M23.3239 67.7102C23.2784 67.2519 23.0833 66.8958 22.7386 66.642C22.3939 66.3883 21.9261 66.2614 21.3352 66.2614C20.9337 66.2614 20.5947 66.3182 20.3182 66.4318C20.0417 66.5417 19.8295 66.6951 19.6818 66.892C19.5379 67.089 19.4659 67.3125 19.4659 67.5625C19.4583 67.7708 19.5019 67.9527 19.5966 68.108C19.6951 68.2633 19.8295 68.3977 20 68.5114C20.1705 68.6212 20.3674 68.7178 20.5909 68.8011C20.8144 68.8807 21.053 68.9489 21.3068 69.0057L22.3523 69.2557C22.8598 69.3693 23.3258 69.5208 23.75 69.7102C24.1742 69.8996 24.5417 70.1326 24.8523 70.4091C25.1629 70.6856 25.4034 71.0114 25.5739 71.3864C25.7481 71.7614 25.8371 72.1913 25.8409 72.6761C25.8371 73.3883 25.6553 74.0057 25.2955 74.5284C24.9394 75.0473 24.4242 75.4508 23.75 75.7386C23.0795 76.0227 22.2708 76.1648 21.3239 76.1648C20.3845 76.1648 19.5663 76.0208 18.8693 75.733C18.1761 75.4451 17.6345 75.0189 17.2443 74.4545C16.858 73.8864 16.6553 73.1837 16.6364 72.3466H19.017C19.0436 72.7367 19.1553 73.0625 19.3523 73.3239C19.553 73.5814 19.8201 73.7765 20.1534 73.9091C20.4905 74.0379 20.8712 74.1023 21.2955 74.1023C21.7121 74.1023 22.0739 74.0417 22.3807 73.9205C22.6913 73.7992 22.9318 73.6307 23.1023 73.4148C23.2727 73.1989 23.358 72.9508 23.358 72.6705C23.358 72.4091 23.2803 72.1894 23.125 72.0114C22.9735 71.8333 22.75 71.6818 22.4545 71.5568C22.1629 71.4318 21.8049 71.3182 21.3807 71.2159L20.1136 70.8977C19.1326 70.6591 18.358 70.286 17.7898 69.7784C17.2216 69.2708 16.9394 68.5871 16.9432 67.7273C16.9394 67.0227 17.1269 66.4072 17.5057 65.8807C17.8883 65.3542 18.4129 64.9432 19.0795 64.6477C19.7462 64.3523 20.5038 64.2045 21.3523 64.2045C22.2159 64.2045 22.9697 64.3523 23.6136 64.6477C24.2614 64.9432 24.7652 65.3542 25.125 65.8807C25.4848 66.4072 25.6705 67.017 25.6818 67.7102H23.3239ZM29.7789 76.1648C29.2221 76.1648 28.7259 76.0682 28.2903 75.875C27.8547 75.678 27.51 75.3883 27.2562 75.0057C27.0062 74.6193 26.8812 74.1383 26.8812 73.5625C26.8812 73.0777 26.9702 72.6705 27.1482 72.3409C27.3263 72.0114 27.5687 71.7462 27.8755 71.5455C28.1823 71.3447 28.5308 71.1932 28.921 71.0909C29.3149 70.9886 29.7278 70.9167 30.1596 70.875C30.6672 70.822 31.0763 70.7727 31.3869 70.7273C31.6975 70.678 31.9229 70.6061 32.063 70.5114C32.2032 70.4167 32.2732 70.2765 32.2732 70.0909V70.0568C32.2732 69.697 32.1596 69.4186 31.9323 69.2216C31.7088 69.0246 31.3907 68.9261 30.9778 68.9261C30.5422 68.9261 30.1956 69.0227 29.938 69.2159C29.6804 69.4053 29.51 69.6439 29.4266 69.9318L27.188 69.75C27.3016 69.2197 27.5251 68.7614 27.8585 68.375C28.1918 67.9848 28.6217 67.6856 29.1482 67.4773C29.6785 67.2652 30.2922 67.1591 30.9891 67.1591C31.474 67.1591 31.938 67.2159 32.3812 67.3295C32.8282 67.4432 33.224 67.6193 33.5687 67.858C33.9172 68.0966 34.1918 68.4034 34.3926 68.7784C34.5933 69.1496 34.6937 69.5947 34.6937 70.1136V76H32.3982V74.7898H32.3301C32.1899 75.0625 32.0024 75.303 31.7676 75.5114C31.5327 75.7159 31.2505 75.8769 30.921 75.9943C30.5914 76.108 30.2107 76.1648 29.7789 76.1648ZM30.4721 74.4943C30.8282 74.4943 31.1426 74.4242 31.4153 74.2841C31.688 74.1402 31.902 73.947 32.0573 73.7045C32.2126 73.4621 32.2903 73.1875 32.2903 72.8807V71.9545C32.2145 72.0038 32.1104 72.0492 31.9778 72.0909C31.849 72.1288 31.7032 72.1648 31.5403 72.1989C31.3774 72.2292 31.2145 72.2576 31.0516 72.2841C30.8888 72.3068 30.741 72.3277 30.6085 72.3466C30.3244 72.3883 30.0763 72.4545 29.8641 72.5455C29.652 72.6364 29.4873 72.7595 29.3698 72.9148C29.2524 73.0663 29.1937 73.2557 29.1937 73.483C29.1937 73.8125 29.313 74.0644 29.5516 74.2386C29.7941 74.4091 30.1009 74.4943 30.4721 74.4943ZM43.6729 69.7614L41.457 69.8977C41.4191 69.7083 41.3377 69.5379 41.2127 69.3864C41.0877 69.2311 40.9229 69.108 40.7184 69.017C40.5176 68.9223 40.2771 68.875 39.9968 68.875C39.6218 68.875 39.3055 68.9545 39.0479 69.1136C38.7903 69.2689 38.6615 69.4773 38.6615 69.7386C38.6615 69.947 38.7449 70.1231 38.9115 70.267C39.0782 70.411 39.3642 70.5265 39.7695 70.6136L41.349 70.9318C42.1975 71.1061 42.8301 71.3864 43.2468 71.7727C43.6634 72.1591 43.8718 72.6667 43.8718 73.2955C43.8718 73.8674 43.7032 74.3693 43.3661 74.8011C43.0327 75.233 42.5744 75.5701 41.9911 75.8125C41.4115 76.0511 40.743 76.1705 39.9854 76.1705C38.8301 76.1705 37.9096 75.9299 37.224 75.4489C36.5422 74.964 36.1426 74.3049 36.0252 73.4716L38.4059 73.3466C38.4778 73.6989 38.6521 73.9678 38.9286 74.1534C39.2051 74.3352 39.5593 74.4261 39.9911 74.4261C40.4153 74.4261 40.7562 74.3447 41.0138 74.1818C41.2752 74.0152 41.4077 73.8011 41.4115 73.5398C41.4077 73.3201 41.3149 73.1402 41.1331 73C40.9513 72.8561 40.671 72.7462 40.2922 72.6705L38.7809 72.3693C37.9286 72.1989 37.2941 71.9034 36.8774 71.483C36.4646 71.0625 36.2581 70.5265 36.2581 69.875C36.2581 69.3144 36.4096 68.8314 36.7127 68.4261C37.0195 68.0208 37.4494 67.7083 38.0024 67.4886C38.5593 67.2689 39.2108 67.1591 39.957 67.1591C41.0593 67.1591 41.9267 67.392 42.5593 67.858C43.1956 68.3239 43.5668 68.9583 43.6729 69.7614ZM38.8661 63.6477L40.0081 65.0341L41.1502 63.6477H43.2127V63.7273L40.9059 66.2273H39.1047L36.8036 63.7273V63.6477H38.8661ZM47.4291 73.4886L47.4348 70.5852H47.787L50.5825 67.2727H53.3609L49.6052 71.6591H49.0314L47.4291 73.4886ZM45.2359 76V64.3636H47.6564V76H45.2359ZM50.6905 76L48.1223 72.1989L49.7359 70.4886L53.5257 76H50.6905ZM47.2075 79.7273L47.912 76.9205H50.1507L48.9064 79.7273H47.2075ZM54.3884 76V67.2727H56.8089V76H54.3884ZM55.6043 66.1477C55.2445 66.1477 54.9358 66.0284 54.6782 65.7898C54.4244 65.5473 54.2975 65.2576 54.2975 64.9205C54.2975 64.5871 54.4244 64.3011 54.6782 64.0625C54.9358 63.8201 55.2445 63.6989 55.6043 63.6989C55.9642 63.6989 56.271 63.8201 56.5248 64.0625C56.7823 64.3011 56.9111 64.5871 56.9111 64.9205C56.9111 65.2576 56.7823 65.5473 56.5248 65.7898C56.271 66.0284 55.9642 66.1477 55.6043 66.1477ZM58.5878 76V67.2727H60.9344V68.7955H61.0253C61.1844 68.2538 61.4514 67.8447 61.8264 67.5682C62.2014 67.2879 62.6332 67.1477 63.1219 67.1477C63.2431 67.1477 63.3738 67.1553 63.5139 67.1705C63.6541 67.1856 63.7772 67.2064 63.8832 67.233V69.3807C63.7696 69.3466 63.6124 69.3163 63.4116 69.2898C63.2109 69.2633 63.0272 69.25 62.8605 69.25C62.5045 69.25 62.1863 69.3277 61.906 69.483C61.6295 69.6345 61.4098 69.8466 61.2469 70.1193C61.0878 70.392 61.0082 70.7064 61.0082 71.0625V76H58.5878ZM68.5116 76.1705C67.629 76.1705 66.8658 75.983 66.2218 75.608C65.5817 75.2292 65.0873 74.7027 64.7389 74.0284C64.3904 73.3504 64.2161 72.5644 64.2161 71.6705C64.2161 70.7689 64.3904 69.9811 64.7389 69.3068C65.0873 68.6288 65.5817 68.1023 66.2218 67.7273C66.8658 67.3485 67.629 67.1591 68.5116 67.1591C69.3942 67.1591 70.1555 67.3485 70.7957 67.7273C71.4396 68.1023 71.9358 68.6288 72.2843 69.3068C72.6328 69.9811 72.807 70.7689 72.807 71.6705C72.807 72.5644 72.6328 73.3504 72.2843 74.0284C71.9358 74.7027 71.4396 75.2292 70.7957 75.608C70.1555 75.983 69.3942 76.1705 68.5116 76.1705ZM68.523 74.2955C68.9245 74.2955 69.2597 74.1818 69.5286 73.9545C69.7976 73.7235 70.0002 73.4091 70.1366 73.0114C70.2767 72.6136 70.3468 72.161 70.3468 71.6534C70.3468 71.1458 70.2767 70.6932 70.1366 70.2955C70.0002 69.8977 69.7976 69.5833 69.5286 69.3523C69.2597 69.1212 68.9245 69.0057 68.523 69.0057C68.1177 69.0057 67.7767 69.1212 67.5002 69.3523C67.2275 69.5833 67.0211 69.8977 66.8809 70.2955C66.7445 70.6932 66.6764 71.1458 66.6764 71.6534C66.6764 72.161 66.7445 72.6136 66.8809 73.0114C67.0211 73.4091 67.2275 73.7235 67.5002 73.9545C67.7767 74.1818 68.1177 74.2955 68.523 74.2955ZM78.863 67.2727V69.0909H73.6073V67.2727H78.863ZM74.8005 65.1818H77.2209V73.3182C77.2209 73.5417 77.255 73.7159 77.3232 73.8409C77.3914 73.9621 77.4861 74.0473 77.6073 74.0966C77.7323 74.1458 77.8762 74.1705 78.0391 74.1705C78.1527 74.1705 78.2664 74.161 78.38 74.142C78.4936 74.1193 78.5808 74.1023 78.6414 74.0909L79.022 75.892C78.9008 75.9299 78.7304 75.9735 78.5107 76.0227C78.291 76.0758 78.0239 76.108 77.7095 76.1193C77.1262 76.142 76.6148 76.0644 76.1755 75.8864C75.7398 75.7083 75.4008 75.4318 75.1584 75.0568C74.916 74.6818 74.7967 74.2083 74.8005 73.6364V65.1818ZM87.0387 76.142C86.3758 76.142 85.7754 75.9716 85.2376 75.6307C84.7035 75.286 84.2792 74.7803 83.9648 74.1136C83.6542 73.4432 83.4989 72.6212 83.4989 71.6477C83.4989 70.6477 83.6599 69.8163 83.9819 69.1534C84.3038 68.4867 84.7319 67.9886 85.266 67.6591C85.8038 67.3258 86.3929 67.1591 87.033 67.1591C87.5216 67.1591 87.9288 67.2424 88.2546 67.4091C88.5841 67.572 88.8493 67.7765 89.0501 68.0227C89.2546 68.2652 89.4099 68.5038 89.516 68.7386H89.5898V64.3636H92.0046V76H89.6182V74.6023H89.516C89.4023 74.8447 89.2413 75.0852 89.033 75.3239C88.8285 75.5587 88.5614 75.7538 88.2319 75.9091C87.9061 76.0644 87.5084 76.142 87.0387 76.142ZM87.8057 74.2159C88.1959 74.2159 88.5254 74.1098 88.7944 73.8977C89.0671 73.6818 89.2754 73.3807 89.4194 72.9943C89.5671 72.608 89.641 72.1553 89.641 71.6364C89.641 71.1174 89.569 70.6667 89.4251 70.2841C89.2811 69.9015 89.0728 69.6061 88.8001 69.3977C88.5273 69.1894 88.1959 69.0852 87.8057 69.0852C87.408 69.0852 87.0728 69.1932 86.8001 69.4091C86.5273 69.625 86.3209 69.9242 86.1807 70.3068C86.0406 70.6894 85.9705 71.1326 85.9705 71.6364C85.9705 72.1439 86.0406 72.5928 86.1807 72.983C86.3247 73.3693 86.5311 73.6723 86.8001 73.892C87.0728 74.108 87.408 74.2159 87.8057 74.2159ZM96.3233 76.1648C95.7665 76.1648 95.2703 76.0682 94.8347 75.875C94.3991 75.678 94.0544 75.3883 93.8006 75.0057C93.5506 74.6193 93.4256 74.1383 93.4256 73.5625C93.4256 73.0777 93.5146 72.6705 93.6926 72.3409C93.8706 72.0114 94.1131 71.7462 94.4199 71.5455C94.7267 71.3447 95.0752 71.1932 95.4653 71.0909C95.8593 70.9886 96.2722 70.9167 96.704 70.875C97.2116 70.822 97.6206 70.7727 97.9313 70.7273C98.2419 70.678 98.4672 70.6061 98.6074 70.5114C98.7475 70.4167 98.8176 70.2765 98.8176 70.0909V70.0568C98.8176 69.697 98.704 69.4186 98.4767 69.2216C98.2532 69.0246 97.935 68.9261 97.5222 68.9261C97.0866 68.9261 96.74 69.0227 96.4824 69.2159C96.2248 69.4053 96.0544 69.6439 95.971 69.9318L93.7324 69.75C93.846 69.2197 94.0695 68.7614 94.4028 68.375C94.7362 67.9848 95.1661 67.6856 95.6926 67.4773C96.2229 67.2652 96.8366 67.1591 97.5335 67.1591C98.0184 67.1591 98.4824 67.2159 98.9256 67.3295C99.3725 67.4432 99.7684 67.6193 100.113 67.858C100.462 68.0966 100.736 68.4034 100.937 68.7784C101.138 69.1496 101.238 69.5947 101.238 70.1136V76H98.9426V74.7898H98.8744C98.7343 75.0625 98.5468 75.303 98.3119 75.5114C98.0771 75.7159 97.7949 75.8769 97.4653 75.9943C97.1358 76.108 96.7551 76.1648 96.3233 76.1648ZM97.0165 74.4943C97.3725 74.4943 97.6869 74.4242 97.9597 74.2841C98.2324 74.1402 98.4464 73.947 98.6017 73.7045C98.757 73.4621 98.8347 73.1875 98.8347 72.8807V71.9545C98.7589 72.0038 98.6547 72.0492 98.5222 72.0909C98.3934 72.1288 98.2475 72.1648 98.0847 72.1989C97.9218 72.2292 97.7589 72.2576 97.596 72.2841C97.4331 72.3068 97.2854 72.3277 97.1528 72.3466C96.8688 72.3883 96.6206 72.4545 96.4085 72.5455C96.1964 72.6364 96.0316 72.7595 95.9142 72.9148C95.7968 73.0663 95.7381 73.2557 95.7381 73.483C95.7381 73.8125 95.8574 74.0644 96.096 74.2386C96.3384 74.4091 96.6453 74.4943 97.0165 74.4943ZM102.956 76V67.2727H105.302V68.7955H105.393C105.552 68.2538 105.82 67.8447 106.195 67.5682C106.57 67.2879 107.001 67.1477 107.49 67.1477C107.611 67.1477 107.742 67.1553 107.882 67.1705C108.022 67.1856 108.145 67.2064 108.251 67.233V69.3807C108.138 69.3466 107.981 69.3163 107.78 69.2898C107.579 69.2633 107.395 69.25 107.229 69.25C106.873 69.25 106.554 69.3277 106.274 69.483C105.998 69.6345 105.778 69.8466 105.615 70.1193C105.456 70.392 105.376 70.7064 105.376 71.0625V76H102.956ZM109.343 76V67.2727H111.763V76H109.343ZM113.326 64.3636V65.6761H107.792V64.3636H113.326ZM114.183 67.2727H116.603V76.4318C116.603 77.1061 116.471 77.6515 116.206 78.0682C115.94 78.4848 115.56 78.7898 115.063 78.983C114.571 79.1761 113.982 79.2727 113.296 79.2727C113.213 79.2727 113.134 79.2708 113.058 79.267C112.978 79.267 112.895 79.2652 112.808 79.2614V77.3693C112.872 77.3731 112.929 77.375 112.978 77.375C113.024 77.3788 113.073 77.3807 113.126 77.3807C113.516 77.3807 113.789 77.2973 113.944 77.1307C114.103 76.9678 114.183 76.7216 114.183 76.392V67.2727ZM115.387 66.1477C115.031 66.1477 114.724 66.0284 114.467 65.7898C114.209 65.5473 114.081 65.2576 114.081 64.9205C114.081 64.5871 114.209 64.3011 114.467 64.0625C114.724 63.8201 115.031 63.6989 115.387 63.6989C115.751 63.6989 116.06 63.8201 116.313 64.0625C116.571 64.3011 116.7 64.5871 116.7 64.9205C116.7 65.2576 116.571 65.5473 116.313 65.7898C116.06 66.0284 115.751 66.1477 115.387 66.1477ZM123.979 72.2841V67.2727H126.399V76H124.075V74.4148H123.984C123.787 74.9261 123.46 75.3371 123.001 75.6477C122.547 75.9583 121.992 76.1136 121.337 76.1136C120.753 76.1136 120.24 75.9811 119.797 75.7159C119.354 75.4508 119.007 75.0739 118.757 74.5852C118.511 74.0966 118.386 73.5114 118.382 72.8295V67.2727H120.803V72.3977C120.806 72.9129 120.945 73.3201 121.217 73.6193C121.49 73.9186 121.856 74.0682 122.314 74.0682C122.606 74.0682 122.878 74.0019 123.132 73.8693C123.386 73.733 123.59 73.5322 123.746 73.267C123.905 73.0019 123.983 72.6742 123.979 72.2841ZM128.175 76V67.2727H130.482V68.8125H130.584C130.766 68.3011 131.069 67.8977 131.493 67.6023C131.918 67.3068 132.425 67.1591 133.016 67.1591C133.615 67.1591 134.124 67.3087 134.545 67.608C134.965 67.9034 135.245 68.3049 135.386 68.8125H135.476C135.654 68.3125 135.976 67.9129 136.442 67.6136C136.912 67.3106 137.467 67.1591 138.107 67.1591C138.921 67.1591 139.582 67.4186 140.09 67.9375C140.601 68.4527 140.857 69.1837 140.857 70.1307V76H138.442V70.608C138.442 70.1231 138.314 69.7595 138.056 69.517C137.798 69.2746 137.476 69.1534 137.09 69.1534C136.651 69.1534 136.308 69.2936 136.062 69.5739C135.815 69.8504 135.692 70.2159 135.692 70.6705V76H133.346V70.5568C133.346 70.1288 133.223 69.7879 132.976 69.5341C132.734 69.2803 132.414 69.1534 132.016 69.1534C131.747 69.1534 131.505 69.2216 131.289 69.358C131.077 69.4905 130.908 69.678 130.783 69.9205C130.658 70.1591 130.596 70.4394 130.596 70.7614V76H128.175ZM148.206 72.2841V67.2727H150.626V76H148.302V74.4148H148.211C148.014 74.9261 147.687 75.3371 147.228 75.6477C146.774 75.9583 146.219 76.1136 145.564 76.1136C144.98 76.1136 144.467 75.9811 144.024 75.7159C143.581 75.4508 143.234 75.0739 142.984 74.5852C142.738 74.0966 142.613 73.5114 142.609 72.8295V67.2727H145.029V72.3977C145.033 72.9129 145.172 73.3201 145.444 73.6193C145.717 73.9186 146.083 74.0682 146.541 74.0682C146.833 74.0682 147.105 74.0019 147.359 73.8693C147.613 73.733 147.817 73.5322 147.973 73.267C148.132 73.0019 148.209 72.6742 148.206 72.2841ZM159.664 69.7614L157.448 69.8977C157.41 69.7083 157.328 69.5379 157.203 69.3864C157.078 69.2311 156.914 69.108 156.709 69.017C156.508 68.9223 156.268 68.875 155.987 68.875C155.612 68.875 155.296 68.9545 155.039 69.1136C154.781 69.2689 154.652 69.4773 154.652 69.7386C154.652 69.947 154.735 70.1231 154.902 70.267C155.069 70.411 155.355 70.5265 155.76 70.6136L157.34 70.9318C158.188 71.1061 158.821 71.3864 159.237 71.7727C159.654 72.1591 159.862 72.6667 159.862 73.2955C159.862 73.8674 159.694 74.3693 159.357 74.8011C159.023 75.233 158.565 75.5701 157.982 75.8125C157.402 76.0511 156.734 76.1705 155.976 76.1705C154.821 76.1705 153.9 75.9299 153.215 75.4489C152.533 74.964 152.133 74.3049 152.016 73.4716L154.396 73.3466C154.468 73.6989 154.643 73.9678 154.919 74.1534C155.196 74.3352 155.55 74.4261 155.982 74.4261C156.406 74.4261 156.747 74.3447 157.004 74.1818C157.266 74.0152 157.398 73.8011 157.402 73.5398C157.398 73.3201 157.306 73.1402 157.124 73C156.942 72.8561 156.662 72.7462 156.283 72.6705L154.771 72.3693C153.919 72.1989 153.285 71.9034 152.868 71.483C152.455 71.0625 152.249 70.5265 152.249 69.875C152.249 69.3144 152.4 68.8314 152.703 68.4261C153.01 68.0208 153.44 67.7083 153.993 67.4886C154.55 67.2689 155.201 67.1591 155.948 67.1591C157.05 67.1591 157.917 67.392 158.55 67.858C159.186 68.3239 159.557 68.9583 159.664 69.7614Z" fill="#1A1D27"/>
<path d="M17.5781 87L19.8047 93.5156H19.8945L22.1211 87H23.4258L20.5469 95H19.1523L16.2734 87H17.5781ZM24.3773 95V89H25.5453V95H24.3773ZM24.9671 88.0742C24.764 88.0742 24.5895 88.0065 24.4437 87.8711C24.3005 87.7331 24.2289 87.569 24.2289 87.3789C24.2289 87.1862 24.3005 87.0221 24.4437 86.8867C24.5895 86.7487 24.764 86.6797 24.9671 86.6797C25.1703 86.6797 25.3435 86.7487 25.4867 86.8867C25.6325 87.0221 25.7054 87.1862 25.7054 87.3789C25.7054 87.569 25.6325 87.7331 25.4867 87.8711C25.3435 88.0065 25.1703 88.0742 24.9671 88.0742ZM31.5027 90.4648L30.4441 90.6523C30.3998 90.5169 30.3295 90.388 30.2331 90.2656C30.1394 90.1432 30.0118 90.043 29.8503 89.9648C29.6889 89.8867 29.487 89.8477 29.2448 89.8477C28.9141 89.8477 28.6381 89.9219 28.4167 90.0703C28.1954 90.2161 28.0847 90.4049 28.0847 90.6367C28.0847 90.8372 28.1589 90.9987 28.3073 91.1211C28.4558 91.2435 28.6954 91.3437 29.0261 91.4219L29.9792 91.6406C30.5313 91.7682 30.9428 91.9648 31.2136 92.2305C31.4844 92.4961 31.6198 92.8411 31.6198 93.2656C31.6198 93.625 31.5157 93.9453 31.3073 94.2266C31.1016 94.5052 30.8139 94.724 30.4441 94.8828C30.0769 95.0417 29.6511 95.1211 29.1667 95.1211C28.4948 95.1211 27.9467 94.9779 27.5222 94.6914C27.0977 94.4023 26.8373 93.9922 26.7409 93.4609L27.8698 93.2891C27.9402 93.5833 28.0847 93.806 28.3034 93.957C28.5222 94.1055 28.8073 94.1797 29.1589 94.1797C29.5417 94.1797 29.8477 94.1003 30.0769 93.9414C30.306 93.7799 30.4206 93.5833 30.4206 93.3516C30.4206 93.1641 30.3503 93.0065 30.2097 92.8789C30.0717 92.7513 29.8594 92.6549 29.573 92.5898L28.5573 92.3672C27.9974 92.2396 27.5834 92.0365 27.3152 91.7578C27.0495 91.4792 26.9167 91.1263 26.9167 90.6992C26.9167 90.3451 27.0157 90.0352 27.2136 89.7695C27.4115 89.5039 27.6849 89.2969 28.0339 89.1484C28.3829 88.9974 28.7826 88.9219 29.2331 88.9219C29.8816 88.9219 30.392 89.0625 30.7644 89.3437C31.1368 89.6224 31.3829 89.9961 31.5027 90.4648ZM37.2901 90.4648L36.2315 90.6523C36.1873 90.5169 36.1169 90.388 36.0206 90.2656C35.9268 90.1432 35.7992 90.043 35.6378 89.9648C35.4763 89.8867 35.2745 89.8477 35.0323 89.8477C34.7016 89.8477 34.4255 89.9219 34.2042 90.0703C33.9828 90.2161 33.8721 90.4049 33.8721 90.6367C33.8721 90.8372 33.9464 90.9987 34.0948 91.1211C34.2432 91.2435 34.4828 91.3437 34.8136 91.4219L35.7667 91.6406C36.3188 91.7682 36.7302 91.9648 37.0011 92.2305C37.2719 92.4961 37.4073 92.8411 37.4073 93.2656C37.4073 93.625 37.3031 93.9453 37.0948 94.2266C36.8891 94.5052 36.6013 94.724 36.2315 94.8828C35.8643 95.0417 35.4386 95.1211 34.9542 95.1211C34.2823 95.1211 33.7341 94.9779 33.3096 94.6914C32.8852 94.4023 32.6248 93.9922 32.5284 93.4609L33.6573 93.2891C33.7276 93.5833 33.8721 93.806 34.0909 93.957C34.3096 94.1055 34.5948 94.1797 34.9464 94.1797C35.3292 94.1797 35.6352 94.1003 35.8643 93.9414C36.0935 93.7799 36.2081 93.5833 36.2081 93.3516C36.2081 93.1641 36.1378 93.0065 35.9971 92.8789C35.8591 92.7513 35.6469 92.6549 35.3604 92.5898L34.3448 92.3672C33.7849 92.2396 33.3708 92.0365 33.1026 91.7578C32.837 91.4792 32.7042 91.1263 32.7042 90.6992C32.7042 90.3451 32.8031 90.0352 33.0011 89.7695C33.199 89.5039 33.4724 89.2969 33.8214 89.1484C34.1703 88.9974 34.5701 88.9219 35.0206 88.9219C35.669 88.9219 36.1794 89.0625 36.5518 89.3437C36.9242 89.6224 37.1703 89.9961 37.2901 90.4648ZM41.3826 95V89H42.5115V89.9531H42.574C42.6834 89.6302 42.8761 89.3763 43.1521 89.1914C43.4308 89.0039 43.7459 88.9102 44.0975 88.9102C44.1704 88.9102 44.2563 88.9128 44.3553 88.918C44.4568 88.9232 44.5363 88.9297 44.5936 88.9375V90.0547C44.5467 90.0417 44.4633 90.0273 44.3436 90.0117C44.2238 89.9935 44.104 89.9844 43.9842 89.9844C43.7081 89.9844 43.462 90.043 43.2459 90.1602C43.0324 90.2747 42.8631 90.4349 42.7381 90.6406C42.6131 90.8437 42.5506 91.0755 42.5506 91.3359V95H41.3826ZM47.8654 95.1211C47.2742 95.1211 46.7651 94.9948 46.338 94.7422C45.9136 94.487 45.5854 94.1289 45.3537 93.668C45.1245 93.2044 45.0099 92.6615 45.0099 92.0391C45.0099 91.4245 45.1245 90.8828 45.3537 90.4141C45.5854 89.9453 45.9084 89.5794 46.3224 89.3164C46.7391 89.0534 47.2261 88.9219 47.7834 88.9219C48.1219 88.9219 48.45 88.9779 48.7677 89.0898C49.0854 89.2018 49.3706 89.3776 49.6232 89.6172C49.8758 89.8568 50.075 90.168 50.2209 90.5508C50.3667 90.931 50.4396 91.3932 50.4396 91.9375V92.3516H45.6701V91.4766H49.2951C49.2951 91.1693 49.2326 90.8971 49.1076 90.6602C48.9826 90.4206 48.8068 90.2318 48.5802 90.0937C48.3563 89.9557 48.0933 89.8867 47.7912 89.8867C47.463 89.8867 47.1766 89.9674 46.9318 90.1289C46.6896 90.2878 46.5021 90.4961 46.3693 90.7539C46.2391 91.0091 46.174 91.2865 46.174 91.5859V92.2695C46.174 92.6706 46.2443 93.0117 46.3849 93.293C46.5282 93.5742 46.7274 93.7891 46.9826 93.9375C47.2378 94.0833 47.536 94.1562 47.8771 94.1562C48.0985 94.1562 48.3003 94.125 48.4826 94.0625C48.6649 93.9974 48.8224 93.901 48.9552 93.7734C49.088 93.6458 49.1896 93.4883 49.2599 93.3008L50.3654 93.5C50.2768 93.8255 50.118 94.1107 49.8888 94.3555C49.6623 94.5977 49.3771 94.7865 49.0334 94.9219C48.6922 95.0547 48.3029 95.1211 47.8654 95.1211ZM53.8716 95.1172C53.3872 95.1172 52.9549 94.9935 52.5747 94.7461C52.1971 94.4961 51.9002 94.1406 51.6841 93.6797C51.4706 93.2161 51.3638 92.6602 51.3638 92.0117C51.3638 91.3633 51.4719 90.8086 51.688 90.3477C51.9068 89.8867 52.2062 89.5339 52.5864 89.2891C52.9667 89.0443 53.3976 88.9219 53.8794 88.9219C54.2518 88.9219 54.5513 88.9844 54.7779 89.1094C55.007 89.2318 55.1841 89.375 55.3091 89.5391C55.4367 89.7031 55.5357 89.8477 55.606 89.9727H55.6763V87H56.8443V95H55.7036V94.0664H55.606C55.5357 94.194 55.4341 94.3398 55.3013 94.5039C55.1711 94.668 54.9914 94.8112 54.7622 94.9336C54.5331 95.056 54.2362 95.1172 53.8716 95.1172ZM54.1294 94.1211C54.4654 94.1211 54.7492 94.0326 54.981 93.8555C55.2154 93.6758 55.3924 93.4271 55.5122 93.1094C55.6346 92.7917 55.6958 92.4219 55.6958 92C55.6958 91.5833 55.6359 91.2187 55.5161 90.9062C55.3963 90.5937 55.2206 90.3503 54.9888 90.1758C54.757 90.0013 54.4706 89.9141 54.1294 89.9141C53.7779 89.9141 53.4849 90.0052 53.2505 90.1875C53.0161 90.3698 52.839 90.6185 52.7193 90.9336C52.6021 91.2487 52.5435 91.6042 52.5435 92C52.5435 92.401 52.6034 92.7617 52.7232 93.082C52.843 93.4023 53.02 93.6562 53.2544 93.8437C53.4914 94.0286 53.7831 94.1211 54.1294 94.1211ZM58.2762 95V94.1992L61.5262 90.0703V90.0156H58.3817V89H62.9833V89.8516L59.8583 93.9297V93.9844H63.0927V95H58.2762ZM66.1067 95.1328C65.7265 95.1328 65.3827 95.0625 65.0754 94.9219C64.7681 94.7786 64.5246 94.5716 64.345 94.3008C64.1679 94.0299 64.0793 93.6979 64.0793 93.3047C64.0793 92.9661 64.1444 92.6875 64.2746 92.4687C64.4049 92.25 64.5806 92.0768 64.802 91.9492C65.0233 91.8216 65.2707 91.7253 65.5442 91.6602C65.8176 91.5951 66.0963 91.5456 66.3801 91.5117C66.7395 91.4701 67.0312 91.4362 67.2551 91.4102C67.4791 91.3815 67.6418 91.3359 67.7434 91.2734C67.845 91.2109 67.8957 91.1094 67.8957 90.9687V90.9414C67.8957 90.6003 67.7994 90.3359 67.6067 90.1484C67.4166 89.9609 67.1327 89.8672 66.7551 89.8672C66.3619 89.8672 66.052 89.9544 65.8254 90.1289C65.6015 90.3008 65.4465 90.4922 65.3606 90.7031L64.2629 90.4531C64.3931 90.0885 64.5832 89.7943 64.8332 89.5703C65.0858 89.3437 65.3762 89.1797 65.7043 89.0781C66.0325 88.974 66.3775 88.9219 66.7395 88.9219C66.9791 88.9219 67.233 88.9505 67.5012 89.0078C67.772 89.0625 68.0246 89.1641 68.259 89.3125C68.496 89.4609 68.69 89.6732 68.8411 89.9492C68.9921 90.2227 69.0676 90.5781 69.0676 91.0156V95H67.927V94.1797H67.8801C67.8046 94.3307 67.6913 94.4792 67.5403 94.625C67.3892 94.7708 67.1952 94.8919 66.9582 94.9883C66.7213 95.0846 66.4374 95.1328 66.1067 95.1328ZM66.3606 94.1953C66.6835 94.1953 66.9595 94.1315 67.1887 94.0039C67.4205 93.8763 67.5963 93.7096 67.7161 93.5039C67.8384 93.2956 67.8996 93.0729 67.8996 92.8359V92.0625C67.858 92.1042 67.7773 92.1432 67.6575 92.1797C67.5403 92.2135 67.4062 92.2435 67.2551 92.2695C67.1041 92.293 66.9569 92.3151 66.8137 92.3359C66.6705 92.3542 66.5507 92.3698 66.4543 92.3828C66.2278 92.4115 66.0207 92.4596 65.8332 92.5273C65.6483 92.5951 65.4999 92.6927 65.3879 92.8203C65.2786 92.9453 65.2239 93.112 65.2239 93.3203C65.2239 93.6094 65.3306 93.8281 65.5442 93.9766C65.7577 94.1224 66.0299 94.1953 66.3606 94.1953ZM70.5133 95V89H71.6344V89.9766H71.7086C71.8336 89.6458 72.038 89.388 72.3219 89.2031C72.6057 89.0156 72.9456 88.9219 73.3414 88.9219C73.7424 88.9219 74.0784 89.0156 74.3492 89.2031C74.6227 89.3906 74.8245 89.6484 74.9547 89.9766H75.0172C75.1604 89.6562 75.3883 89.401 75.7008 89.2109C76.0133 89.0182 76.3857 88.9219 76.818 88.9219C77.3622 88.9219 77.8063 89.0924 78.15 89.4336C78.4964 89.7747 78.6695 90.2891 78.6695 90.9766V95H77.5016V91.0859C77.5016 90.6797 77.3909 90.3854 77.1695 90.2031C76.9482 90.0208 76.6839 89.9297 76.3766 89.9297C75.9964 89.9297 75.7008 90.0469 75.4898 90.2812C75.2789 90.513 75.1734 90.8112 75.1734 91.1758V95H74.0094V91.0117C74.0094 90.6862 73.9078 90.4245 73.7047 90.2266C73.5016 90.0286 73.2372 89.9297 72.9117 89.9297C72.6904 89.9297 72.4859 89.9883 72.2984 90.1055C72.1135 90.2201 71.9638 90.3802 71.8492 90.5859C71.7372 90.7917 71.6813 91.0299 71.6813 91.3008V95H70.5133ZM84.6211 90.4648L83.5625 90.6523C83.5182 90.5169 83.4479 90.388 83.3515 90.2656C83.2578 90.1432 83.1302 90.043 82.9687 89.9648C82.8073 89.8867 82.6054 89.8477 82.3632 89.8477C82.0325 89.8477 81.7565 89.9219 81.5351 90.0703C81.3138 90.2161 81.2031 90.4049 81.2031 90.6367C81.2031 90.8372 81.2773 90.9987 81.4257 91.1211C81.5742 91.2435 81.8138 91.3437 82.1445 91.4219L83.0976 91.6406C83.6497 91.7682 84.0612 91.9648 84.332 92.2305C84.6028 92.4961 84.7382 92.8411 84.7382 93.2656C84.7382 93.625 84.6341 93.9453 84.4257 94.2266C84.22 94.5052 83.9323 94.724 83.5625 94.8828C83.1953 95.0417 82.7695 95.1211 82.2851 95.1211C81.6132 95.1211 81.0651 94.9779 80.6406 94.6914C80.2161 94.4023 79.9557 93.9922 79.8593 93.4609L80.9882 93.2891C81.0586 93.5833 81.2031 93.806 81.4218 93.957C81.6406 94.1055 81.9257 94.1797 82.2773 94.1797C82.6601 94.1797 82.9661 94.1003 83.1953 93.9414C83.4244 93.7799 83.539 93.5833 83.539 93.3516C83.539 93.1641 83.4687 93.0065 83.3281 92.8789C83.1901 92.7513 82.9778 92.6549 82.6914 92.5898L81.6757 92.3672C81.1158 92.2396 80.7018 92.0365 80.4336 91.7578C80.1679 91.4792 80.0351 91.1263 80.0351 90.6992C80.0351 90.3451 80.1341 90.0352 80.332 89.7695C80.5299 89.5039 80.8033 89.2969 81.1523 89.1484C81.5013 88.9974 81.901 88.9219 82.3515 88.9219C83 88.9219 83.5104 89.0625 83.8828 89.3437C84.2552 89.6224 84.5013 89.9961 84.6211 90.4648ZM93.4284 91.1133V92.125H87.9284V91.1133H93.4284ZM98.6508 95.1328C98.2706 95.1328 97.9268 95.0625 97.6195 94.9219C97.3122 94.7786 97.0687 94.5716 96.8891 94.3008C96.712 94.0299 96.6234 93.6979 96.6234 93.3047C96.6234 92.9661 96.6885 92.6875 96.8187 92.4687C96.949 92.25 97.1247 92.0768 97.3461 91.9492C97.5674 91.8216 97.8148 91.7253 98.0883 91.6602C98.3617 91.5951 98.6404 91.5456 98.9242 91.5117C99.2836 91.4701 99.5753 91.4362 99.7992 91.4102C100.023 91.3815 100.186 91.3359 100.287 91.2734C100.389 91.2109 100.44 91.1094 100.44 90.9687V90.9414C100.44 90.6003 100.343 90.3359 100.151 90.1484C99.9607 89.9609 99.6768 89.8672 99.2992 89.8672C98.906 89.8672 98.5961 89.9544 98.3695 90.1289C98.1456 90.3008 97.9906 90.4922 97.9047 90.7031L96.807 90.4531C96.9372 90.0885 97.1273 89.7943 97.3773 89.5703C97.6299 89.3437 97.9203 89.1797 98.2484 89.0781C98.5766 88.974 98.9216 88.9219 99.2836 88.9219C99.5232 88.9219 99.7771 88.9505 100.045 89.0078C100.316 89.0625 100.569 89.1641 100.803 89.3125C101.04 89.4609 101.234 89.6732 101.385 89.9492C101.536 90.2227 101.612 90.5781 101.612 91.0156V95H100.471V94.1797H100.424C100.349 94.3307 100.235 94.4792 100.084 94.625C99.9333 94.7708 99.7393 94.8919 99.5023 94.9883C99.2654 95.0846 98.9815 95.1328 98.6508 95.1328ZM98.9047 94.1953C99.2276 94.1953 99.5036 94.1315 99.7328 94.0039C99.9646 93.8763 100.14 93.7096 100.26 93.5039C100.383 93.2956 100.444 93.0729 100.444 92.8359V92.0625C100.402 92.1042 100.321 92.1432 100.202 92.1797C100.084 92.2135 99.9503 92.2435 99.7992 92.2695C99.6482 92.293 99.501 92.3151 99.3578 92.3359C99.2146 92.3542 99.0948 92.3698 98.9984 92.3828C98.7719 92.4115 98.5648 92.4596 98.3773 92.5273C98.1924 92.5951 98.044 92.6927 97.932 92.8203C97.8227 92.9453 97.768 93.112 97.768 93.3203C97.768 93.6094 97.8747 93.8281 98.0883 93.9766C98.3018 94.1224 98.574 94.1953 98.9047 94.1953ZM105.858 89V89.9375H102.581V89H105.858ZM103.46 87.5625H104.628V93.2383C104.628 93.4648 104.662 93.6354 104.729 93.75C104.797 93.862 104.884 93.9388 104.991 93.9805C105.1 94.0195 105.219 94.0391 105.346 94.0391C105.44 94.0391 105.522 94.0326 105.593 94.0195C105.663 94.0065 105.718 93.9961 105.757 93.9883L105.968 94.9531C105.9 94.9792 105.803 95.0052 105.678 95.0313C105.553 95.0599 105.397 95.0755 105.21 95.0781C104.902 95.0833 104.616 95.0286 104.35 94.9141C104.085 94.7995 103.87 94.6224 103.706 94.3828C103.542 94.1432 103.46 93.8424 103.46 93.4805V87.5625ZM106.915 95V94.1992L110.165 90.0703V90.0156H107.021V89H111.622V89.8516L108.497 93.9297V93.9844H111.732V95H106.915ZM112.999 95V89H114.167V95H112.999ZM115.445 87V87.8203H111.738V87H115.445ZM115.629 95V89H116.75V89.9766H116.824C116.949 89.6458 117.153 89.388 117.437 89.2031C117.721 89.0156 118.061 88.9219 118.457 88.9219C118.858 88.9219 119.194 89.0156 119.465 89.2031C119.738 89.3906 119.94 89.6484 120.07 89.9766H120.133C120.276 89.6562 120.504 89.401 120.816 89.2109C121.129 89.0182 121.501 88.9219 121.933 88.9219C122.478 88.9219 122.922 89.0924 123.265 89.4336C123.612 89.7747 123.785 90.2891 123.785 90.9766V95H122.617V91.0859C122.617 90.6797 122.506 90.3854 122.285 90.2031C122.064 90.0208 121.799 89.9297 121.492 89.9297C121.112 89.9297 120.816 90.0469 120.605 90.2812C120.394 90.513 120.289 90.8112 120.289 91.1758V95H119.125V91.0117C119.125 90.6862 119.023 90.4245 118.82 90.2266C118.617 90.0286 118.353 89.9297 118.027 89.9297C117.806 89.9297 117.601 89.9883 117.414 90.1055C117.229 90.2201 117.079 90.3802 116.965 90.5859C116.853 90.7917 116.797 91.0299 116.797 91.3008V95H115.629ZM127.826 95.1211C127.235 95.1211 126.726 94.9948 126.299 94.7422C125.875 94.487 125.546 94.1289 125.315 93.668C125.085 93.2044 124.971 92.6615 124.971 92.0391C124.971 91.4245 125.085 90.8828 125.315 90.4141C125.546 89.9453 125.869 89.5794 126.283 89.3164C126.7 89.0534 127.187 88.9219 127.744 88.9219C128.083 88.9219 128.411 88.9779 128.729 89.0898C129.046 89.2018 129.332 89.3776 129.584 89.6172C129.837 89.8568 130.036 90.168 130.182 90.5508C130.328 90.931 130.401 91.3932 130.401 91.9375V92.3516H125.631V91.4766H129.256C129.256 91.1693 129.194 90.8971 129.069 90.6602C128.944 90.4206 128.768 90.2318 128.541 90.0937C128.317 89.9557 128.054 89.8867 127.752 89.8867C127.424 89.8867 127.138 89.9674 126.893 90.1289C126.651 90.2878 126.463 90.4961 126.33 90.7539C126.2 91.0091 126.135 91.2865 126.135 91.5859V92.2695C126.135 92.6706 126.205 93.0117 126.346 93.293C126.489 93.5742 126.688 93.7891 126.944 93.9375C127.199 94.0833 127.497 94.1562 127.838 94.1562C128.059 94.1562 128.261 94.125 128.444 94.0625C128.626 93.9974 128.783 93.901 128.916 93.7734C129.049 93.6458 129.151 93.4883 129.221 93.3008L130.326 93.5C130.238 93.8255 130.079 94.1107 129.85 94.3555C129.623 94.5977 129.338 94.7865 128.994 94.9219C128.653 95.0547 128.264 95.1211 127.826 95.1211ZM129.553 87V87.8203H125.846V87H129.553ZM19.0313 108.117C18.5469 108.117 18.1146 107.993 17.7344 107.746C17.3568 107.496 17.0599 107.141 16.8438 106.68C16.6302 106.216 16.5234 105.66 16.5234 105.012C16.5234 104.363 16.6315 103.809 16.8477 103.348C17.0664 102.887 17.3659 102.534 17.7461 102.289C18.1263 102.044 18.5573 101.922 19.0391 101.922C19.4115 101.922 19.7109 101.984 19.9375 102.109C20.1667 102.232 20.3438 102.375 20.4688 102.539C20.5964 102.703 20.6953 102.848 20.7656 102.973H20.8359V100H22.0039V108H20.8633V107.066H20.7656C20.6953 107.194 20.5938 107.34 20.4609 107.504C20.3307 107.668 20.151 107.811 19.9219 107.934C19.6927 108.056 19.3958 108.117 19.0313 108.117ZM19.2891 107.121C19.625 107.121 19.9089 107.033 20.1406 106.855C20.375 106.676 20.5521 106.427 20.6719 106.109C20.7943 105.792 20.8555 105.422 20.8555 105C20.8555 104.583 20.7956 104.219 20.6758 103.906C20.556 103.594 20.3802 103.35 20.1484 103.176C19.9167 103.001 19.6302 102.914 19.2891 102.914C18.9375 102.914 18.6445 103.005 18.4102 103.188C18.1758 103.37 17.9987 103.618 17.8789 103.934C17.7617 104.249 17.7031 104.604 17.7031 105C17.7031 105.401 17.763 105.762 17.8828 106.082C18.0026 106.402 18.1797 106.656 18.4141 106.844C18.651 107.029 18.9427 107.121 19.2891 107.121ZM25.307 108.133C24.9268 108.133 24.583 108.063 24.2757 107.922C23.9685 107.779 23.725 107.572 23.5453 107.301C23.3682 107.03 23.2796 106.698 23.2796 106.305C23.2796 105.966 23.3448 105.687 23.475 105.469C23.6052 105.25 23.781 105.077 24.0023 104.949C24.2237 104.822 24.4711 104.725 24.7445 104.66C25.0179 104.595 25.2966 104.546 25.5804 104.512C25.9398 104.47 26.2315 104.436 26.4554 104.41C26.6794 104.382 26.8421 104.336 26.9437 104.273C27.0453 104.211 27.0961 104.109 27.0961 103.969V103.941C27.0961 103.6 26.9997 103.336 26.807 103.148C26.6169 102.961 26.333 102.867 25.9554 102.867C25.5622 102.867 25.2523 102.954 25.0257 103.129C24.8018 103.301 24.6468 103.492 24.5609 103.703L23.4632 103.453C23.5935 103.089 23.7836 102.794 24.0336 102.57C24.2862 102.344 24.5765 102.18 24.9046 102.078C25.2328 101.974 25.5778 101.922 25.9398 101.922C26.1794 101.922 26.4333 101.951 26.7015 102.008C26.9724 102.062 27.225 102.164 27.4593 102.312C27.6963 102.461 27.8903 102.673 28.0414 102.949C28.1924 103.223 28.2679 103.578 28.2679 104.016V108H27.1273V107.18H27.0804C27.0049 107.331 26.8916 107.479 26.7406 107.625C26.5895 107.771 26.3955 107.892 26.1586 107.988C25.9216 108.085 25.6377 108.133 25.307 108.133ZM25.5609 107.195C25.8838 107.195 26.1599 107.132 26.389 107.004C26.6208 106.876 26.7966 106.71 26.9164 106.504C27.0388 106.296 27.1 106.073 27.1 105.836V105.062C27.0583 105.104 26.9776 105.143 26.8578 105.18C26.7406 105.214 26.6065 105.243 26.4554 105.27C26.3044 105.293 26.1573 105.315 26.014 105.336C25.8708 105.354 25.751 105.37 25.6546 105.383C25.4281 105.411 25.2211 105.46 25.0336 105.527C24.8487 105.595 24.7002 105.693 24.5882 105.82C24.4789 105.945 24.4242 106.112 24.4242 106.32C24.4242 106.609 24.531 106.828 24.7445 106.977C24.958 107.122 25.2302 107.195 25.5609 107.195ZM29.7136 108V102H30.8425V102.953H30.905C31.0144 102.63 31.2071 102.376 31.4831 102.191C31.7618 102.004 32.0769 101.91 32.4284 101.91C32.5014 101.91 32.5873 101.913 32.6863 101.918C32.7878 101.923 32.8672 101.93 32.9245 101.937V103.055C32.8777 103.042 32.7943 103.027 32.6745 103.012C32.5547 102.993 32.4349 102.984 32.3152 102.984C32.0391 102.984 31.793 103.043 31.5769 103.16C31.3633 103.275 31.1941 103.435 31.0691 103.641C30.9441 103.844 30.8816 104.076 30.8816 104.336V108H29.7136ZM33.8253 108V102H34.9932V108H33.8253ZM36.2706 100V100.82H32.5636V100H36.2706ZM36.895 102H38.0629V108.391C38.0629 108.792 37.99 109.13 37.8442 109.406C37.7009 109.682 37.4874 109.892 37.2036 110.035C36.9223 110.178 36.5746 110.25 36.1606 110.25C36.1189 110.25 36.0799 110.25 36.0434 110.25C36.0043 110.25 35.964 110.249 35.9223 110.246V109.242C35.9588 109.242 35.9913 109.242 36.02 109.242C36.046 109.242 36.0759 109.242 36.1098 109.242C36.3858 109.242 36.5851 109.168 36.7075 109.02C36.8325 108.874 36.895 108.661 36.895 108.383V102ZM37.4731 101.074C37.27 101.074 37.0955 101.007 36.9496 100.871C36.8064 100.733 36.7348 100.569 36.7348 100.379C36.7348 100.186 36.8064 100.022 36.9496 99.8867C37.0955 99.7487 37.27 99.6797 37.4731 99.6797C37.6762 99.6797 37.8494 99.7487 37.9926 99.8867C38.1385 100.022 38.2114 100.186 38.2114 100.379C38.2114 100.569 38.1385 100.733 37.9926 100.871C37.8494 101.007 37.6762 101.074 37.4731 101.074ZM43.325 105.512V102H44.4969V108H43.3484V106.961H43.2859C43.1479 107.281 42.9266 107.548 42.6219 107.762C42.3198 107.973 41.9435 108.078 41.493 108.078C41.1076 108.078 40.7664 107.993 40.4695 107.824C40.1753 107.652 39.9435 107.398 39.7742 107.062C39.6076 106.727 39.5242 106.311 39.5242 105.816V102H40.6922V105.676C40.6922 106.085 40.8055 106.41 41.032 106.652C41.2586 106.895 41.5529 107.016 41.9148 107.016C42.1336 107.016 42.351 106.961 42.5672 106.852C42.7859 106.742 42.9669 106.577 43.1102 106.355C43.256 106.134 43.3276 105.853 43.325 105.512ZM45.9562 108V102H47.0773V102.977H47.1515C47.2765 102.646 47.481 102.388 47.7648 102.203C48.0487 102.016 48.3885 101.922 48.7843 101.922C49.1854 101.922 49.5213 102.016 49.7921 102.203C50.0656 102.391 50.2674 102.648 50.3976 102.977H50.4601C50.6033 102.656 50.8312 102.401 51.1437 102.211C51.4562 102.018 51.8286 101.922 52.2609 101.922C52.8052 101.922 53.2492 102.092 53.5929 102.434C53.9393 102.775 54.1125 103.289 54.1125 103.977V108H52.9445V104.086C52.9445 103.68 52.8338 103.385 52.6125 103.203C52.3911 103.021 52.1268 102.93 51.8195 102.93C51.4393 102.93 51.1437 103.047 50.9328 103.281C50.7218 103.513 50.6164 103.811 50.6164 104.176V108H49.4523V104.012C49.4523 103.686 49.3507 103.424 49.1476 103.227C48.9445 103.029 48.6802 102.93 48.3546 102.93C48.1333 102.93 47.9289 102.988 47.7414 103.105C47.5565 103.22 47.4067 103.38 47.2921 103.586C47.1802 103.792 47.1242 104.03 47.1242 104.301V108H45.9562ZM59.3687 105.512V102H60.5405V108H59.3921V106.961H59.3296C59.1916 107.281 58.9702 107.548 58.6655 107.762C58.3635 107.973 57.9872 108.078 57.5366 108.078C57.1512 108.078 56.8101 107.993 56.5132 107.824C56.2189 107.652 55.9872 107.398 55.8179 107.062C55.6512 106.727 55.5679 106.311 55.5679 105.816V102H56.7359V105.676C56.7359 106.085 56.8491 106.41 57.0757 106.652C57.3023 106.895 57.5965 107.016 57.9585 107.016C58.1773 107.016 58.3947 106.961 58.6109 106.852C58.8296 106.742 59.0106 106.577 59.1538 106.355C59.2997 106.134 59.3713 105.853 59.3687 105.512ZM66.496 103.465L65.4374 103.652C65.3931 103.517 65.3228 103.388 65.2264 103.266C65.1327 103.143 65.0051 103.043 64.8436 102.965C64.6822 102.887 64.4804 102.848 64.2382 102.848C63.9074 102.848 63.6314 102.922 63.41 103.07C63.1887 103.216 63.078 103.405 63.078 103.637C63.078 103.837 63.1522 103.999 63.3007 104.121C63.4491 104.243 63.6887 104.344 64.0194 104.422L64.9725 104.641C65.5246 104.768 65.9361 104.965 66.2069 105.23C66.4777 105.496 66.6132 105.841 66.6132 106.266C66.6132 106.625 66.509 106.945 66.3007 107.227C66.0949 107.505 65.8072 107.724 65.4374 107.883C65.0702 108.042 64.6444 108.121 64.16 108.121C63.4882 108.121 62.94 107.978 62.5155 107.691C62.091 107.402 61.8306 106.992 61.7343 106.461L62.8632 106.289C62.9335 106.583 63.078 106.806 63.2968 106.957C63.5155 107.105 63.8007 107.18 64.1522 107.18C64.535 107.18 64.841 107.1 65.0702 106.941C65.2994 106.78 65.4139 106.583 65.4139 106.352C65.4139 106.164 65.3436 106.007 65.203 105.879C65.065 105.751 64.8527 105.655 64.5663 105.59L63.5507 105.367C62.9908 105.24 62.5767 105.036 62.3085 104.758C62.0429 104.479 61.91 104.126 61.91 103.699C61.91 103.345 62.009 103.035 62.2069 102.77C62.4048 102.504 62.6783 102.297 63.0272 102.148C63.3762 101.997 63.7759 101.922 64.2264 101.922C64.8749 101.922 65.3853 102.062 65.7577 102.344C66.1301 102.622 66.3762 102.996 66.496 103.465ZM69.3069 106.906L69.2483 107.332C69.2092 107.645 69.1428 107.97 69.0491 108.309C68.9579 108.65 68.8629 108.966 68.7639 109.258C68.6676 109.549 68.5881 109.781 68.5256 109.953H67.6975C67.7314 109.792 67.7782 109.573 67.8381 109.297C67.898 109.023 67.9566 108.717 68.0139 108.379C68.0712 108.04 68.1142 107.695 68.1428 107.344L68.1819 106.906H69.3069ZM73.5185 110.25V102H74.6591V102.973H74.7568C74.8245 102.848 74.9222 102.703 75.0498 102.539C75.1774 102.375 75.3545 102.232 75.581 102.109C75.8076 101.984 76.1071 101.922 76.4795 101.922C76.9638 101.922 77.3961 102.044 77.7763 102.289C78.1565 102.534 78.4547 102.887 78.6709 103.348C78.8896 103.809 78.999 104.363 78.999 105.012C78.999 105.66 78.8909 106.216 78.6748 106.68C78.4586 107.141 78.1617 107.496 77.7841 107.746C77.4065 107.993 76.9755 108.117 76.4912 108.117C76.1266 108.117 75.8284 108.056 75.5966 107.934C75.3675 107.811 75.1878 107.668 75.0576 107.504C74.9274 107.34 74.8271 107.194 74.7568 107.066H74.6865V110.25H73.5185ZM74.663 105C74.663 105.422 74.7242 105.792 74.8466 106.109C74.969 106.427 75.1461 106.676 75.3779 106.855C75.6097 107.033 75.8935 107.121 76.2295 107.121C76.5784 107.121 76.8701 107.029 77.1045 106.844C77.3388 106.656 77.5159 106.402 77.6357 106.082C77.7581 105.762 77.8193 105.401 77.8193 105C77.8193 104.604 77.7594 104.249 77.6396 103.934C77.5224 103.618 77.3453 103.37 77.1084 103.188C76.874 103.005 76.581 102.914 76.2295 102.914C75.8909 102.914 75.6045 103.001 75.3701 103.176C75.1383 103.35 74.9625 103.594 74.8427 103.906C74.7229 104.219 74.663 104.583 74.663 105ZM80.1976 108V102H81.3655V108H80.1976ZM80.7874 101.074C80.5843 101.074 80.4098 101.007 80.264 100.871C80.1208 100.733 80.0491 100.569 80.0491 100.379C80.0491 100.186 80.1208 100.022 80.264 99.8867C80.4098 99.7487 80.5843 99.6797 80.7874 99.6797C80.9905 99.6797 81.1637 99.7487 81.307 99.8867C81.4528 100.022 81.5257 100.186 81.5257 100.379C81.5257 100.569 81.4528 100.733 81.307 100.871C81.1637 101.007 80.9905 101.074 80.7874 101.074ZM85.4128 108.121C84.8216 108.121 84.3125 107.995 83.8854 107.742C83.461 107.487 83.1328 107.129 82.9011 106.668C82.6719 106.204 82.5573 105.661 82.5573 105.039C82.5573 104.424 82.6719 103.883 82.9011 103.414C83.1328 102.945 83.4557 102.579 83.8698 102.316C84.2865 102.053 84.7735 101.922 85.3307 101.922C85.6693 101.922 85.9974 101.978 86.3151 102.09C86.6328 102.202 86.918 102.378 87.1706 102.617C87.4232 102.857 87.6224 103.168 87.7682 103.551C87.9141 103.931 87.987 104.393 87.987 104.937V105.352H83.2175V104.477H86.8425C86.8425 104.169 86.78 103.897 86.655 103.66C86.53 103.421 86.3542 103.232 86.1276 103.094C85.9037 102.956 85.6406 102.887 85.3386 102.887C85.0104 102.887 84.724 102.967 84.4792 103.129C84.237 103.288 84.0495 103.496 83.9167 103.754C83.7865 104.009 83.7214 104.286 83.7214 104.586V105.27C83.7214 105.671 83.7917 106.012 83.9323 106.293C84.0755 106.574 84.2748 106.789 84.53 106.937C84.7852 107.083 85.0833 107.156 85.4245 107.156C85.6458 107.156 85.8477 107.125 86.03 107.062C86.2123 106.997 86.3698 106.901 86.5026 106.773C86.6354 106.646 86.737 106.488 86.8073 106.301L87.9128 106.5C87.8242 106.826 87.6654 107.111 87.4362 107.355C87.2096 107.598 86.9245 107.786 86.5807 107.922C86.2396 108.055 85.8503 108.121 85.4128 108.121ZM94.1338 102L91.958 108H90.708L88.5284 102H89.7823L91.3018 106.617H91.3643L92.8799 102H94.1338ZM95.1215 108V102H96.2895V108H95.1215ZM95.7113 101.074C95.5082 101.074 95.3337 101.007 95.1879 100.871C95.0447 100.733 94.973 100.569 94.973 100.379C94.973 100.186 95.0447 100.022 95.1879 99.8867C95.3337 99.7487 95.5082 99.6797 95.7113 99.6797C95.9145 99.6797 96.0876 99.7487 96.2309 99.8867C96.3767 100.022 96.4496 100.186 96.4496 100.379C96.4496 100.569 96.3767 100.733 96.2309 100.871C96.0876 101.007 95.9145 101.074 95.7113 101.074ZM100.337 108.121C99.7455 108.121 99.2364 107.995 98.8093 107.742C98.3849 107.487 98.0567 107.129 97.825 106.668C97.5958 106.204 97.4812 105.661 97.4812 105.039C97.4812 104.424 97.5958 103.883 97.825 103.414C98.0567 102.945 98.3796 102.579 98.7937 102.316C99.2104 102.053 99.6974 101.922 100.255 101.922C100.593 101.922 100.921 101.978 101.239 102.09C101.557 102.202 101.842 102.378 102.094 102.617C102.347 102.857 102.546 103.168 102.692 103.551C102.838 103.931 102.911 104.393 102.911 104.937V105.352H98.1414V104.477H101.766C101.766 104.169 101.704 103.897 101.579 103.66C101.454 103.421 101.278 103.232 101.052 103.094C100.828 102.956 100.565 102.887 100.262 102.887C99.9343 102.887 99.6479 102.967 99.4031 103.129C99.1609 103.288 98.9734 103.496 98.8406 103.754C98.7104 104.009 98.6453 104.286 98.6453 104.586V105.27C98.6453 105.671 98.7156 106.012 98.8562 106.293C98.9994 106.574 99.1987 106.789 99.4539 106.937C99.7091 107.083 100.007 107.156 100.348 107.156C100.57 107.156 100.772 107.125 100.954 107.062C101.136 106.997 101.294 106.901 101.427 106.773C101.559 106.646 101.661 106.488 101.731 106.301L102.837 106.5C102.748 106.826 102.589 107.111 102.36 107.355C102.134 107.598 101.848 107.786 101.505 107.922C101.164 108.055 100.774 108.121 100.337 108.121ZM105.265 104.437V108H104.097V102H105.218V102.977H105.292C105.43 102.659 105.646 102.404 105.941 102.211C106.237 102.018 106.611 101.922 107.062 101.922C107.47 101.922 107.829 102.008 108.136 102.18C108.443 102.349 108.681 102.602 108.851 102.937C109.02 103.273 109.105 103.689 109.105 104.184V108H107.937V104.324C107.937 103.889 107.823 103.549 107.597 103.305C107.37 103.057 107.059 102.934 106.663 102.934C106.392 102.934 106.151 102.992 105.941 103.109C105.732 103.227 105.567 103.398 105.444 103.625C105.325 103.849 105.265 104.12 105.265 104.437ZM113.088 108.121C112.526 108.121 112.035 107.992 111.616 107.734C111.196 107.477 110.871 107.116 110.639 106.652C110.407 106.189 110.291 105.647 110.291 105.027C110.291 104.405 110.407 103.861 110.639 103.395C110.871 102.928 111.196 102.566 111.616 102.309C112.035 102.051 112.526 101.922 113.088 101.922C113.651 101.922 114.142 102.051 114.561 102.309C114.98 102.566 115.306 102.928 115.538 103.395C115.769 103.861 115.885 104.405 115.885 105.027C115.885 105.647 115.769 106.189 115.538 106.652C115.306 107.116 114.98 107.477 114.561 107.734C114.142 107.992 113.651 108.121 113.088 108.121ZM113.092 107.141C113.457 107.141 113.759 107.044 113.999 106.852C114.238 106.659 114.415 106.402 114.53 106.082C114.647 105.762 114.706 105.409 114.706 105.023C114.706 104.641 114.647 104.289 114.53 103.969C114.415 103.646 114.238 103.387 113.999 103.191C113.759 102.996 113.457 102.898 113.092 102.898C112.725 102.898 112.42 102.996 112.178 103.191C111.939 103.387 111.76 103.646 111.643 103.969C111.528 104.289 111.471 104.641 111.471 105.023C111.471 105.409 111.528 105.762 111.643 106.082C111.76 106.402 111.939 106.659 112.178 106.852C112.42 107.044 112.725 107.141 113.092 107.141ZM120.954 105.965L120.946 104.539H121.15L123.54 102H124.939L122.212 104.891H122.029L120.954 105.965ZM119.88 108V100H121.048V108H119.88ZM123.669 108L121.521 105.148L122.325 104.332L125.103 108H123.669ZM127.639 108.133C127.259 108.133 126.915 108.063 126.608 107.922C126.301 107.779 126.057 107.572 125.878 107.301C125.7 107.03 125.612 106.698 125.612 106.305C125.612 105.966 125.677 105.687 125.807 105.469C125.937 105.25 126.113 105.077 126.335 104.949C126.556 104.822 126.803 104.725 127.077 104.66C127.35 104.595 127.629 104.546 127.913 104.512C128.272 104.47 128.564 104.436 128.788 104.41C129.012 104.382 129.174 104.336 129.276 104.273C129.378 104.211 129.428 104.109 129.428 103.969V103.941C129.428 103.6 129.332 103.336 129.139 103.148C128.949 102.961 128.665 102.867 128.288 102.867C127.894 102.867 127.585 102.954 127.358 103.129C127.134 103.301 126.979 103.492 126.893 103.703L125.795 103.453C125.926 103.089 126.116 102.794 126.366 102.57C126.618 102.344 126.909 102.18 127.237 102.078C127.565 101.974 127.91 101.922 128.272 101.922C128.512 101.922 128.766 101.951 129.034 102.008C129.305 102.062 129.557 102.164 129.792 102.312C130.029 102.461 130.223 102.673 130.374 102.949C130.525 103.223 130.6 103.578 130.6 104.016V108H129.46V107.18H129.413C129.337 107.331 129.224 107.479 129.073 107.625C128.922 107.771 128.728 107.892 128.491 107.988C128.254 108.085 127.97 108.133 127.639 108.133ZM127.893 107.195C128.216 107.195 128.492 107.132 128.721 107.004C128.953 106.876 129.129 106.71 129.249 106.504C129.371 106.296 129.432 106.073 129.432 105.836V105.062C129.391 105.104 129.31 105.143 129.19 105.18C129.073 105.214 128.939 105.243 128.788 105.27C128.637 105.293 128.489 105.315 128.346 105.336C128.203 105.354 128.083 105.37 127.987 105.383C127.76 105.411 127.553 105.46 127.366 105.527C127.181 105.595 127.032 105.693 126.92 105.82C126.811 105.945 126.756 106.112 126.756 106.32C126.756 106.609 126.863 106.828 127.077 106.977C127.29 107.122 127.562 107.195 127.893 107.195ZM134.847 102V102.937H131.569V102H134.847ZM132.448 100.562H133.616V106.238C133.616 106.465 133.65 106.635 133.718 106.75C133.785 106.862 133.873 106.939 133.979 106.98C134.089 107.02 134.207 107.039 134.335 107.039C134.429 107.039 134.511 107.033 134.581 107.02C134.651 107.007 134.706 106.996 134.745 106.988L134.956 107.953C134.888 107.979 134.792 108.005 134.667 108.031C134.542 108.06 134.386 108.076 134.198 108.078C133.891 108.083 133.604 108.029 133.339 107.914C133.073 107.799 132.858 107.622 132.694 107.383C132.53 107.143 132.448 106.842 132.448 106.48V100.562ZM138.55 108.121C137.959 108.121 137.45 107.995 137.023 107.742C136.598 107.487 136.27 107.129 136.038 106.668C135.809 106.204 135.695 105.661 135.695 105.039C135.695 104.424 135.809 103.883 136.038 103.414C136.27 102.945 136.593 102.579 137.007 102.316C137.424 102.053 137.911 101.922 138.468 101.922C138.807 101.922 139.135 101.978 139.452 102.09C139.77 102.202 140.055 102.378 140.308 102.617C140.56 102.857 140.76 103.168 140.906 103.551C141.051 103.931 141.124 104.393 141.124 104.937V105.352H136.355V104.477H139.98C139.98 104.169 139.917 103.897 139.792 103.66C139.667 103.421 139.491 103.232 139.265 103.094C139.041 102.956 138.778 102.887 138.476 102.887C138.148 102.887 137.861 102.967 137.616 103.129C137.374 103.288 137.187 103.496 137.054 103.754C136.924 104.009 136.859 104.286 136.859 104.586V105.27C136.859 105.671 136.929 106.012 137.07 106.293C137.213 106.574 137.412 106.789 137.667 106.937C137.922 107.083 138.221 107.156 138.562 107.156C138.783 107.156 138.985 107.125 139.167 107.062C139.35 106.997 139.507 106.901 139.64 106.773C139.773 106.646 139.874 106.488 139.945 106.301L141.05 106.5C140.962 106.826 140.803 107.111 140.574 107.355C140.347 107.598 140.062 107.786 139.718 107.922C139.377 108.055 138.988 108.121 138.55 108.121ZM144.826 110.375C144.349 110.375 143.939 110.313 143.595 110.188C143.254 110.063 142.976 109.897 142.759 109.691C142.543 109.486 142.382 109.26 142.275 109.016L143.279 108.602C143.349 108.716 143.443 108.837 143.56 108.965C143.68 109.095 143.841 109.206 144.045 109.297C144.25 109.388 144.515 109.434 144.838 109.434C145.28 109.434 145.646 109.326 145.935 109.109C146.224 108.896 146.369 108.555 146.369 108.086V106.906H146.295C146.224 107.034 146.123 107.176 145.99 107.332C145.86 107.488 145.68 107.624 145.451 107.738C145.222 107.853 144.923 107.91 144.556 107.91C144.082 107.91 143.655 107.799 143.275 107.578C142.897 107.354 142.598 107.025 142.377 106.59C142.158 106.152 142.048 105.615 142.048 104.977C142.048 104.339 142.157 103.792 142.373 103.336C142.591 102.88 142.891 102.531 143.271 102.289C143.651 102.044 144.082 101.922 144.564 101.922C144.936 101.922 145.237 101.984 145.466 102.109C145.696 102.232 145.874 102.375 146.002 102.539C146.132 102.703 146.232 102.848 146.302 102.973H146.388V102H147.533V108.133C147.533 108.648 147.413 109.072 147.173 109.402C146.934 109.733 146.61 109.978 146.201 110.137C145.795 110.296 145.336 110.375 144.826 110.375ZM144.814 106.941C145.15 106.941 145.434 106.863 145.666 106.707C145.9 106.548 146.077 106.322 146.197 106.027C146.319 105.73 146.381 105.375 146.381 104.961C146.381 104.557 146.321 104.202 146.201 103.895C146.081 103.587 145.905 103.348 145.673 103.176C145.442 103.001 145.155 102.914 144.814 102.914C144.463 102.914 144.17 103.005 143.935 103.188C143.701 103.367 143.524 103.612 143.404 103.922C143.287 104.232 143.228 104.578 143.228 104.961C143.228 105.354 143.288 105.699 143.408 105.996C143.528 106.293 143.705 106.525 143.939 106.691C144.176 106.858 144.468 106.941 144.814 106.941ZM151.517 108.121C150.954 108.121 150.463 107.992 150.044 107.734C149.625 107.477 149.299 107.116 149.067 106.652C148.836 106.189 148.72 105.647 148.72 105.027C148.72 104.405 148.836 103.861 149.067 103.395C149.299 102.928 149.625 102.566 150.044 102.309C150.463 102.051 150.954 101.922 151.517 101.922C152.079 101.922 152.57 102.051 152.989 102.309C153.409 102.566 153.734 102.928 153.966 103.395C154.198 103.861 154.313 104.405 154.313 105.027C154.313 105.647 154.198 106.189 153.966 106.652C153.734 107.116 153.409 107.477 152.989 107.734C152.57 107.992 152.079 108.121 151.517 108.121ZM151.521 107.141C151.885 107.141 152.187 107.044 152.427 106.852C152.666 106.659 152.843 106.402 152.958 106.082C153.075 105.762 153.134 105.409 153.134 105.023C153.134 104.641 153.075 104.289 152.958 103.969C152.843 103.646 152.666 103.387 152.427 103.191C152.187 102.996 151.885 102.898 151.521 102.898C151.153 102.898 150.849 102.996 150.606 103.191C150.367 103.387 150.188 103.646 150.071 103.969C149.957 104.289 149.899 104.641 149.899 105.023C149.899 105.409 149.957 105.762 150.071 106.082C150.188 106.402 150.367 106.659 150.606 106.852C150.849 107.044 151.153 107.141 151.521 107.141ZM155.507 108V102H156.636V102.953H156.699C156.808 102.63 157.001 102.376 157.277 102.191C157.555 102.004 157.87 101.91 158.222 101.91C158.295 101.91 158.381 101.913 158.48 101.918C158.581 101.923 158.661 101.93 158.718 101.937V103.055C158.671 103.042 158.588 103.027 158.468 103.012C158.348 102.993 158.229 102.984 158.109 102.984C157.833 102.984 157.587 103.043 157.37 103.16C157.157 103.275 156.988 103.435 156.863 103.641C156.738 103.844 156.675 104.076 156.675 104.336V108H155.507ZM159.619 108V102H160.787V108H159.619ZM160.209 101.074C160.006 101.074 159.831 101.007 159.685 100.871C159.542 100.733 159.47 100.569 159.47 100.379C159.47 100.186 159.542 100.022 159.685 99.8867C159.831 99.7487 160.006 99.6797 160.209 99.6797C160.412 99.6797 160.585 99.7487 160.728 99.8867C160.874 100.022 160.947 100.186 160.947 100.379C160.947 100.569 160.874 100.733 160.728 100.871C160.585 101.007 160.412 101.074 160.209 101.074ZM162.248 102H163.416V108.391C163.416 108.792 163.343 109.13 163.197 109.406C163.054 109.682 162.841 109.892 162.557 110.035C162.275 110.178 161.928 110.25 161.514 110.25C161.472 110.25 161.433 110.25 161.397 110.25C161.357 110.25 161.317 110.249 161.275 110.246V109.242C161.312 109.242 161.344 109.242 161.373 109.242C161.399 109.242 161.429 109.242 161.463 109.242C161.739 109.242 161.938 109.168 162.061 109.02C162.186 108.874 162.248 108.661 162.248 108.383V102ZM162.826 101.074C162.623 101.074 162.449 101.007 162.303 100.871C162.16 100.733 162.088 100.569 162.088 100.379C162.088 100.186 162.16 100.022 162.303 99.8867C162.449 99.7487 162.623 99.6797 162.826 99.6797C163.029 99.6797 163.203 99.7487 163.346 99.8867C163.492 100.022 163.565 100.186 163.565 100.379C163.565 100.569 163.492 100.733 163.346 100.871C163.203 101.007 163.029 101.074 162.826 101.074ZM168.678 105.512V102H169.85V108H168.702V106.961H168.639C168.501 107.281 168.28 107.548 167.975 107.762C167.673 107.973 167.297 108.078 166.846 108.078C166.461 108.078 166.12 107.993 165.823 107.824C165.528 107.652 165.297 107.398 165.127 107.062C164.961 106.727 164.877 106.311 164.877 105.816V102H166.045V105.676C166.045 106.085 166.159 106.41 166.385 106.652C166.612 106.895 166.906 107.016 167.268 107.016C167.487 107.016 167.704 106.961 167.92 106.852C168.139 106.742 168.32 106.577 168.463 106.355C168.609 106.134 168.681 105.853 168.678 105.512ZM20.5859 118.512V115H21.7578V121H20.6094V119.961H20.5469C20.4089 120.281 20.1875 120.548 19.8828 120.762C19.5807 120.973 19.2044 121.078 18.7539 121.078C18.3685 121.078 18.0273 120.993 17.7305 120.824C17.4362 120.652 17.2044 120.398 17.0352 120.062C16.8685 119.727 16.7852 119.311 16.7852 118.816V115H17.9531V118.676C17.9531 119.085 18.0664 119.41 18.293 119.652C18.5195 119.895 18.8138 120.016 19.1758 120.016C19.3945 120.016 19.612 119.961 19.8281 119.852C20.0469 119.742 20.2279 119.577 20.3711 119.355C20.5169 119.134 20.5885 118.853 20.5859 118.512ZM24.3851 117.437V121H23.2171V115H24.3382V115.977H24.4125C24.5505 115.659 24.7666 115.404 25.0609 115.211C25.3578 115.018 25.7315 114.922 26.182 114.922C26.5908 114.922 26.9489 115.008 27.2562 115.18C27.5635 115.349 27.8018 115.602 27.9711 115.937C28.1403 116.273 28.225 116.689 28.225 117.184V121H27.057V117.324C27.057 116.889 26.9437 116.549 26.7171 116.305C26.4906 116.057 26.1794 115.934 25.7836 115.934C25.5127 115.934 25.2718 115.992 25.0609 116.109C24.8526 116.227 24.6872 116.398 24.5648 116.625C24.445 116.849 24.3851 117.12 24.3851 117.437ZM36.9786 116.465L35.92 116.652C35.8757 116.517 35.8054 116.388 35.7091 116.266C35.6153 116.143 35.4877 116.043 35.3263 115.965C35.1648 115.887 34.963 115.848 34.7208 115.848C34.3901 115.848 34.114 115.922 33.8927 116.07C33.6713 116.216 33.5606 116.405 33.5606 116.637C33.5606 116.837 33.6348 116.999 33.7833 117.121C33.9317 117.243 34.1713 117.344 34.502 117.422L35.4552 117.641C36.0072 117.768 36.4187 117.965 36.6895 118.23C36.9604 118.496 37.0958 118.841 37.0958 119.266C37.0958 119.625 36.9916 119.945 36.7833 120.227C36.5776 120.505 36.2898 120.724 35.92 120.883C35.5528 121.042 35.127 121.121 34.6427 121.121C33.9708 121.121 33.4226 120.978 32.9981 120.691C32.5736 120.402 32.3132 119.992 32.2169 119.461L33.3458 119.289C33.4161 119.583 33.5606 119.806 33.7794 119.957C33.9981 120.105 34.2833 120.18 34.6348 120.18C35.0177 120.18 35.3236 120.1 35.5528 119.941C35.782 119.78 35.8966 119.583 35.8966 119.352C35.8966 119.164 35.8263 119.007 35.6856 118.879C35.5476 118.751 35.3354 118.655 35.0489 118.59L34.0333 118.367C33.4734 118.24 33.0593 118.036 32.7911 117.758C32.5255 117.479 32.3927 117.126 32.3927 116.699C32.3927 116.345 32.4916 116.035 32.6895 115.77C32.8874 115.504 33.1609 115.297 33.5098 115.148C33.8588 114.997 34.2585 114.922 34.7091 114.922C35.3575 114.922 35.8679 115.062 36.2403 115.344C36.6127 115.622 36.8588 115.996 36.9786 116.465ZM40.0161 121.133C39.6358 121.133 39.2921 121.063 38.9848 120.922C38.6775 120.779 38.434 120.572 38.2543 120.301C38.0773 120.03 37.9887 119.698 37.9887 119.305C37.9887 118.966 38.0538 118.687 38.184 118.469C38.3142 118.25 38.49 118.077 38.7114 117.949C38.9327 117.822 39.1801 117.725 39.4536 117.66C39.727 117.595 40.0056 117.546 40.2895 117.512C40.6489 117.47 40.9405 117.436 41.1645 117.41C41.3885 117.382 41.5512 117.336 41.6528 117.273C41.7543 117.211 41.8051 117.109 41.8051 116.969V116.941C41.8051 116.6 41.7088 116.336 41.5161 116.148C41.326 115.961 41.0421 115.867 40.6645 115.867C40.2713 115.867 39.9614 115.954 39.7348 116.129C39.5108 116.301 39.3559 116.492 39.27 116.703L38.1723 116.453C38.3025 116.089 38.4926 115.794 38.7426 115.57C38.9952 115.344 39.2856 115.18 39.6137 115.078C39.9418 114.974 40.2869 114.922 40.6489 114.922C40.8885 114.922 41.1424 114.951 41.4106 115.008C41.6814 115.062 41.934 115.164 42.1684 115.312C42.4054 115.461 42.5994 115.673 42.7504 115.949C42.9015 116.223 42.977 116.578 42.977 117.016V121H41.8364V120.18H41.7895C41.714 120.331 41.6007 120.479 41.4496 120.625C41.2986 120.771 41.1046 120.892 40.8676 120.988C40.6306 121.085 40.3468 121.133 40.0161 121.133ZM40.27 120.195C40.5929 120.195 40.8689 120.132 41.0981 120.004C41.3299 119.876 41.5056 119.71 41.6254 119.504C41.7478 119.296 41.809 119.073 41.809 118.836V118.062C41.7674 118.104 41.6866 118.143 41.5668 118.18C41.4496 118.214 41.3155 118.243 41.1645 118.27C41.0135 118.293 40.8663 118.315 40.7231 118.336C40.5799 118.354 40.4601 118.37 40.3637 118.383C40.1371 118.411 39.9301 118.46 39.7426 118.527C39.5577 118.595 39.4093 118.693 39.2973 118.82C39.1879 118.945 39.1332 119.112 39.1332 119.32C39.1332 119.609 39.24 119.828 39.4536 119.977C39.6671 120.122 39.9392 120.195 40.27 120.195ZM46.9383 123.375C46.4617 123.375 46.0516 123.313 45.7078 123.188C45.3667 123.063 45.088 122.897 44.8719 122.691C44.6557 122.486 44.4943 122.26 44.3875 122.016L45.3914 121.602C45.4617 121.716 45.5555 121.837 45.6727 121.965C45.7924 122.095 45.9539 122.206 46.157 122.297C46.3628 122.388 46.6271 122.434 46.95 122.434C47.3927 122.434 47.7586 122.326 48.0477 122.109C48.3367 121.896 48.4813 121.555 48.4813 121.086V119.906H48.407C48.3367 120.034 48.2352 120.176 48.1023 120.332C47.9721 120.488 47.7924 120.624 47.5633 120.738C47.3341 120.853 47.0359 120.91 46.6688 120.91C46.1948 120.91 45.7677 120.799 45.3875 120.578C45.0099 120.354 44.7104 120.025 44.4891 119.59C44.2703 119.152 44.1609 118.615 44.1609 117.977C44.1609 117.339 44.269 116.792 44.4852 116.336C44.7039 115.88 45.0034 115.531 45.3836 115.289C45.7638 115.044 46.1948 114.922 46.6766 114.922C47.049 114.922 47.3497 114.984 47.5789 115.109C47.8081 115.232 47.9865 115.375 48.1141 115.539C48.2443 115.703 48.3445 115.848 48.4148 115.973H48.5008V115H49.6453V121.133C49.6453 121.648 49.5255 122.072 49.2859 122.402C49.0464 122.733 48.7221 122.978 48.3133 123.137C47.907 123.296 47.4487 123.375 46.9383 123.375ZM46.9266 119.941C47.2625 119.941 47.5464 119.863 47.7781 119.707C48.0125 119.548 48.1896 119.322 48.3094 119.027C48.4318 118.73 48.493 118.375 48.493 117.961C48.493 117.557 48.4331 117.202 48.3133 116.895C48.1935 116.587 48.0177 116.348 47.7859 116.176C47.5542 116.001 47.2677 115.914 46.9266 115.914C46.575 115.914 46.282 116.005 46.0477 116.188C45.8133 116.367 45.6362 116.612 45.5164 116.922C45.3992 117.232 45.3406 117.578 45.3406 117.961C45.3406 118.354 45.4005 118.699 45.5203 118.996C45.6401 119.293 45.8172 119.525 46.0516 119.691C46.2885 119.858 46.5802 119.941 46.9266 119.941ZM52.2697 113V121H51.1017V113H52.2697ZM55.4771 121.133C55.0969 121.133 54.7531 121.063 54.4458 120.922C54.1385 120.779 53.895 120.572 53.7154 120.301C53.5383 120.03 53.4497 119.698 53.4497 119.305C53.4497 118.966 53.5148 118.687 53.645 118.469C53.7752 118.25 53.951 118.077 54.1724 117.949C54.3937 117.822 54.6411 117.725 54.9146 117.66C55.188 117.595 55.4667 117.546 55.7505 117.512C56.1099 117.47 56.4015 117.436 56.6255 117.41C56.8495 117.382 57.0122 117.336 57.1138 117.273C57.2154 117.211 57.2661 117.109 57.2661 116.969V116.941C57.2661 116.6 57.1698 116.336 56.9771 116.148C56.787 115.961 56.5031 115.867 56.1255 115.867C55.7323 115.867 55.4224 115.954 55.1958 116.129C54.9719 116.301 54.8169 116.492 54.731 116.703L53.6333 116.453C53.7635 116.089 53.9536 115.794 54.2036 115.57C54.4562 115.344 54.7466 115.18 55.0747 115.078C55.4029 114.974 55.7479 114.922 56.1099 114.922C56.3495 114.922 56.6034 114.951 56.8716 115.008C57.1424 115.062 57.395 115.164 57.6294 115.312C57.8664 115.461 58.0604 115.673 58.2114 115.949C58.3625 116.223 58.438 116.578 58.438 117.016V121H57.2974V120.18H57.2505C57.175 120.331 57.0617 120.479 56.9107 120.625C56.7596 120.771 56.5656 120.892 56.3286 120.988C56.0917 121.085 55.8078 121.133 55.4771 121.133ZM55.731 120.195C56.0539 120.195 56.3299 120.132 56.5591 120.004C56.7909 119.876 56.9667 119.71 57.0864 119.504C57.2088 119.296 57.27 119.073 57.27 118.836V118.062C57.2284 118.104 57.1476 118.143 57.0279 118.18C56.9107 118.214 56.7765 118.243 56.6255 118.27C56.4745 118.293 56.3273 118.315 56.1841 118.336C56.0409 118.354 55.9211 118.37 55.8247 118.383C55.5982 118.411 55.3911 118.46 55.2036 118.527C55.0187 118.595 54.8703 118.693 54.7583 118.82C54.6489 118.945 54.5943 119.112 54.5943 119.32C54.5943 119.609 54.701 119.828 54.9146 119.977C55.1281 120.122 55.4002 120.195 55.731 120.195ZM59.9774 121V113H61.1454V115.973H61.2157C61.2834 115.848 61.3811 115.703 61.5087 115.539C61.6363 115.375 61.8134 115.232 62.0399 115.109C62.2665 114.984 62.566 114.922 62.9384 114.922C63.4227 114.922 63.855 115.044 64.2352 115.289C64.6154 115.534 64.9136 115.887 65.1298 116.348C65.3485 116.809 65.4579 117.363 65.4579 118.012C65.4579 118.66 65.3498 119.216 65.1337 119.68C64.9175 120.141 64.6206 120.496 64.243 120.746C63.8654 120.993 63.4345 121.117 62.9501 121.117C62.5855 121.117 62.2873 121.056 62.0555 120.934C61.8264 120.811 61.6467 120.668 61.5165 120.504C61.3863 120.34 61.286 120.194 61.2157 120.066H61.118V121H59.9774ZM61.122 118C61.122 118.422 61.1832 118.792 61.3055 119.109C61.4279 119.427 61.605 119.676 61.8368 119.855C62.0686 120.033 62.3524 120.121 62.6884 120.121C63.0373 120.121 63.329 120.029 63.5634 119.844C63.7977 119.656 63.9748 119.402 64.0946 119.082C64.217 118.762 64.2782 118.401 64.2782 118C64.2782 117.604 64.2183 117.249 64.0985 116.934C63.9813 116.618 63.8042 116.37 63.5673 116.188C63.3329 116.005 63.0399 115.914 62.6884 115.914C62.3498 115.914 62.0634 116.001 61.829 116.176C61.5972 116.35 61.4214 116.594 61.3016 116.906C61.1818 117.219 61.122 117.583 61.122 118ZM68.4055 121.133C68.0253 121.133 67.6815 121.063 67.3743 120.922C67.067 120.779 66.8235 120.572 66.6438 120.301C66.4667 120.03 66.3782 119.698 66.3782 119.305C66.3782 118.966 66.4433 118.687 66.5735 118.469C66.7037 118.25 66.8795 118.077 67.1008 117.949C67.3222 117.822 67.5696 117.725 67.843 117.66C68.1164 117.595 68.3951 117.546 68.6789 117.512C69.0383 117.47 69.33 117.436 69.5539 117.41C69.7779 117.382 69.9407 117.336 70.0422 117.273C70.1438 117.211 70.1946 117.109 70.1946 116.969V116.941C70.1946 116.6 70.0982 116.336 69.9055 116.148C69.7154 115.961 69.4315 115.867 69.0539 115.867C68.6607 115.867 68.3508 115.954 68.1243 116.129C67.9003 116.301 67.7453 116.492 67.6594 116.703L66.5618 116.453C66.692 116.089 66.8821 115.794 67.1321 115.57C67.3847 115.344 67.675 115.18 68.0032 115.078C68.3313 114.974 68.6763 114.922 69.0383 114.922C69.2779 114.922 69.5318 114.951 69.8 115.008C70.0709 115.062 70.3235 115.164 70.5578 115.312C70.7948 115.461 70.9888 115.673 71.1399 115.949C71.2909 116.223 71.3664 116.578 71.3664 117.016V121H70.2258V120.18H70.1789C70.1034 120.331 69.9901 120.479 69.8391 120.625C69.6881 120.771 69.494 120.892 69.2571 120.988C69.0201 121.085 68.7362 121.133 68.4055 121.133ZM68.6594 120.195C68.9823 120.195 69.2584 120.132 69.4875 120.004C69.7193 119.876 69.8951 119.71 70.0149 119.504C70.1373 119.296 70.1985 119.073 70.1985 118.836V118.062C70.1568 118.104 70.0761 118.143 69.9563 118.18C69.8391 118.214 69.705 118.243 69.5539 118.27C69.4029 118.293 69.2558 118.315 69.1125 118.336C68.9693 118.354 68.8495 118.37 68.7532 118.383C68.5266 118.411 68.3196 118.46 68.1321 118.527C67.9472 118.595 67.7987 118.693 67.6868 118.82C67.5774 118.945 67.5227 119.112 67.5227 119.32C67.5227 119.609 67.6295 119.828 67.843 119.977C68.0565 120.122 68.3287 120.195 68.6594 120.195ZM70.9524 113V113.82H67.2453V113H70.9524ZM79.414 118.512V115H80.5859V121H79.4375V119.961H79.375C79.2369 120.281 79.0156 120.548 78.7109 120.762C78.4088 120.973 78.0325 121.078 77.582 121.078C77.1966 121.078 76.8554 120.993 76.5586 120.824C76.2643 120.652 76.0325 120.398 75.8632 120.062C75.6966 119.727 75.6132 119.311 75.6132 118.816V115H76.7812V118.676C76.7812 119.085 76.8945 119.41 77.1211 119.652C77.3476 119.895 77.6419 120.016 78.0039 120.016C78.2226 120.016 78.4401 119.961 78.6562 119.852C78.875 119.742 79.056 119.577 79.1992 119.355C79.345 119.134 79.4166 118.853 79.414 118.512ZM81.9202 121V120.199L85.1702 116.07V116.016H82.0257V115H86.6273V115.852L83.5023 119.93V119.984H86.7366V121H81.9202ZM92.5007 116.465L91.4421 116.652C91.3978 116.517 91.3275 116.388 91.2311 116.266C91.1374 116.143 91.0098 116.043 90.8483 115.965C90.6869 115.887 90.485 115.848 90.2429 115.848C89.9121 115.848 89.6361 115.922 89.4147 116.07C89.1934 116.216 89.0827 116.405 89.0827 116.637C89.0827 116.837 89.1569 116.999 89.3054 117.121C89.4538 117.243 89.6934 117.344 90.0241 117.422L90.9772 117.641C91.5293 117.768 91.9408 117.965 92.2116 118.23C92.4824 118.496 92.6179 118.841 92.6179 119.266C92.6179 119.625 92.5137 119.945 92.3054 120.227C92.0996 120.505 91.8119 120.724 91.4421 120.883C91.0749 121.042 90.6491 121.121 90.1647 121.121C89.4929 121.121 88.9447 120.978 88.5202 120.691C88.0957 120.402 87.8353 119.992 87.7389 119.461L88.8679 119.289C88.9382 119.583 89.0827 119.806 89.3014 119.957C89.5202 120.105 89.8054 120.18 90.1569 120.18C90.5397 120.18 90.8457 120.1 91.0749 119.941C91.304 119.78 91.4186 119.583 91.4186 119.352C91.4186 119.164 91.3483 119.007 91.2077 118.879C91.0697 118.751 90.8574 118.655 90.571 118.59L89.5554 118.367C88.9955 118.24 88.5814 118.036 88.3132 117.758C88.0475 117.479 87.9147 117.126 87.9147 116.699C87.9147 116.345 88.0137 116.035 88.2116 115.77C88.4095 115.504 88.683 115.297 89.0319 115.148C89.3809 114.997 89.7806 114.922 90.2311 114.922C90.8796 114.922 91.39 115.062 91.7624 115.344C92.1348 115.622 92.3809 115.996 92.5007 116.465ZM94.8662 118.965L94.8584 117.539H95.0616L97.4522 115H98.8506L96.1241 117.891H95.9405L94.8662 118.965ZM93.792 121V113H94.96V121H93.792ZM97.5811 121L95.4327 118.148L96.2373 117.332L99.0147 121H97.5811ZM101.551 121.133C101.171 121.133 100.827 121.063 100.52 120.922C100.213 120.779 99.9691 120.572 99.7895 120.301C99.6124 120.03 99.5238 119.698 99.5238 119.305C99.5238 118.966 99.5889 118.687 99.7191 118.469C99.8493 118.25 100.025 118.077 100.246 117.949C100.468 117.822 100.715 117.725 100.989 117.66C101.262 117.595 101.541 117.546 101.825 117.512C102.184 117.47 102.476 117.436 102.7 117.41C102.924 117.382 103.086 117.336 103.188 117.273C103.289 117.211 103.34 117.109 103.34 116.969V116.941C103.34 116.6 103.244 116.336 103.051 116.148C102.861 115.961 102.577 115.867 102.2 115.867C101.806 115.867 101.496 115.954 101.27 116.129C101.046 116.301 100.891 116.492 100.805 116.703L99.7074 116.453C99.8376 116.089 100.028 115.794 100.278 115.57C100.53 115.344 100.821 115.18 101.149 115.078C101.477 114.974 101.822 114.922 102.184 114.922C102.424 114.922 102.677 114.951 102.946 115.008C103.217 115.062 103.469 115.164 103.704 115.312C103.94 115.461 104.135 115.673 104.286 115.949C104.437 116.223 104.512 116.578 104.512 117.016V121H103.371V120.18H103.325C103.249 120.331 103.136 120.479 102.985 120.625C102.834 120.771 102.64 120.892 102.403 120.988C102.166 121.085 101.882 121.133 101.551 121.133ZM101.805 120.195C102.128 120.195 102.404 120.132 102.633 120.004C102.865 119.876 103.041 119.71 103.161 119.504C103.283 119.296 103.344 119.073 103.344 118.836V118.062C103.302 118.104 103.222 118.143 103.102 118.18C102.985 118.214 102.851 118.243 102.7 118.27C102.549 118.293 102.401 118.315 102.258 118.336C102.115 118.354 101.995 118.37 101.899 118.383C101.672 118.411 101.465 118.46 101.278 118.527C101.093 118.595 100.944 118.693 100.832 118.82C100.723 118.945 100.668 119.112 100.668 119.32C100.668 119.609 100.775 119.828 100.989 119.977C101.202 120.122 101.474 120.195 101.805 120.195ZM105.958 121V115H107.126V121H105.958ZM106.548 114.074C106.344 114.074 106.17 114.007 106.024 113.871C105.881 113.733 105.809 113.569 105.809 113.379C105.809 113.186 105.881 113.022 106.024 112.887C106.17 112.749 106.344 112.68 106.548 112.68C106.751 112.68 106.924 112.749 107.067 112.887C107.213 113.022 107.286 113.186 107.286 113.379C107.286 113.569 107.213 113.733 107.067 113.871C106.924 114.007 106.751 114.074 106.548 114.074ZM111.388 115V115.937H108.11V115H111.388ZM108.989 113.562H110.157V119.238C110.157 119.465 110.191 119.635 110.259 119.75C110.327 119.862 110.414 119.939 110.521 119.98C110.63 120.02 110.748 120.039 110.876 120.039C110.97 120.039 111.052 120.033 111.122 120.02C111.192 120.007 111.247 119.996 111.286 119.988L111.497 120.953C111.429 120.979 111.333 121.005 111.208 121.031C111.083 121.06 110.927 121.076 110.739 121.078C110.432 121.083 110.146 121.029 109.88 120.914C109.614 120.799 109.4 120.622 109.235 120.383C109.071 120.143 108.989 119.842 108.989 119.48V113.562ZM115.091 121.121C114.5 121.121 113.991 120.995 113.564 120.742C113.139 120.487 112.811 120.129 112.58 119.668C112.35 119.204 112.236 118.661 112.236 118.039C112.236 117.424 112.35 116.883 112.58 116.414C112.811 115.945 113.134 115.579 113.548 115.316C113.965 115.053 114.452 114.922 115.009 114.922C115.348 114.922 115.676 114.978 115.994 115.09C116.311 115.202 116.596 115.378 116.849 115.617C117.102 115.857 117.301 116.168 117.447 116.551C117.593 116.931 117.666 117.393 117.666 117.937V118.352H112.896V117.477H116.521C116.521 117.169 116.458 116.897 116.333 116.66C116.208 116.421 116.033 116.232 115.806 116.094C115.582 115.956 115.319 115.887 115.017 115.887C114.689 115.887 114.402 115.967 114.158 116.129C113.916 116.288 113.728 116.496 113.595 116.754C113.465 117.009 113.4 117.286 113.4 117.586V118.27C113.4 118.671 113.47 119.012 113.611 119.293C113.754 119.574 113.953 119.789 114.208 119.937C114.464 120.083 114.762 120.156 115.103 120.156C115.324 120.156 115.526 120.125 115.708 120.062C115.891 119.997 116.048 119.901 116.181 119.773C116.314 119.646 116.416 119.488 116.486 119.301L117.591 119.5C117.503 119.826 117.344 120.111 117.115 120.355C116.888 120.598 116.603 120.786 116.259 120.922C115.918 121.055 115.529 121.121 115.091 121.121ZM116.818 113V113.82H113.111V113H116.818ZM119.621 121.074C119.407 121.074 119.224 120.999 119.07 120.848C118.917 120.694 118.84 120.509 118.84 120.293C118.84 120.079 118.917 119.897 119.07 119.746C119.224 119.592 119.407 119.516 119.621 119.516C119.834 119.516 120.018 119.592 120.172 119.746C120.325 119.897 120.402 120.079 120.402 120.293C120.402 120.436 120.366 120.568 120.293 120.687C120.223 120.805 120.129 120.898 120.012 120.969C119.894 121.039 119.764 121.074 119.621 121.074Z" fill="#1A1D27"/>
</svg>
