<?xml version="1.0" encoding="UTF-8"?>
<!DOCTYPE svg PUBLIC "-//W3C//DTD SVG 1.1//EN" "http://www.w3.org/Graphics/SVG/1.1/DTD/svg11.dtd">
<!-- Creator: CorelDRAW -->
<svg xmlns="http://www.w3.org/2000/svg" xml:space="preserve" width="4.2364mm" height="4.2332mm" version="1.1" style="shape-rendering:geometricPrecision; text-rendering:geometricPrecision; image-rendering:optimizeQuality; fill-rule:evenodd; clip-rule:evenodd"
viewBox="0 0 423.98 423.66"
 xmlns:xlink="http://www.w3.org/1999/xlink"
 xmlns:xodm="http://www.corel.com/coreldraw/odm/2003">
 <defs>
  <style type="text/css">
   <![CDATA[
    .fil0 {fill:#898989;fill-rule:nonzero}
   ]]>
  </style>
 </defs>
 <g id="Слой_x0020_1">
  <metadata id="CorelCorpID_0Corel-Layer"/>
  <path class="fil0" d="M7.75 8.09c4.96,-4.96 11.71,-7.76 18.73,-7.76 7.02,0 13.76,2.79 18.73,7.76l166.62 166.63 166.63 -166.63c4.98,-5.16 11.87,-8.09 19.05,-8.09 14.62,0 26.48,11.86 26.48,26.48 0,7.18 -2.92,14.06 -8.09,19.05l-166.63 166.63 166.63 166.63c4.76,4.92 7.44,11.52 7.44,18.38 0,14.62 -11.86,26.48 -26.48,26.48 -6.87,0 -13.46,-2.67 -18.39,-7.44l-166.63 -166.62 -166.63 166.63c-4.92,4.75 -11.52,7.43 -18.38,7.43 -14.62,0 -26.48,-11.86 -26.48,-26.48 0,-6.87 2.67,-13.46 7.44,-18.39l166.62 -166.62 -166.63 -166.63c-4.95,-4.96 -7.75,-11.71 -7.75,-18.73 0,-7.02 2.79,-13.76 7.76,-18.73l-0.01 0.01z"/>
 </g>
</svg>
