<svg width="104" height="34" viewBox="0 0 104 34" fill="none" xmlns="http://www.w3.org/2000/svg">
<path d="M24.116 4.40106C24.116 6.7179 22.2465 8.59607 19.9403 8.59607C17.6341 8.59607 15.7646 6.7179 15.7646 4.40106C15.7646 2.08423 17.6341 0.206056 19.9403 0.206056C22.2465 0.206056 24.116 2.08423 24.116 4.40106Z" fill="white"/>
<path d="M8.35143 4.40104C8.35143 6.71788 6.4819 8.59605 4.17572 8.59605C1.86953 8.59605 0 6.71788 0 4.40104C0 2.0842 1.86953 0.206033 4.17572 0.206033C6.4819 0.206033 8.35143 2.0842 8.35143 4.40104Z" fill="white"/>
<path d="M16.2337 15.7606C16.2337 18.0774 14.3642 19.9556 12.058 19.9556C9.75185 19.9556 7.88231 18.0774 7.88231 15.7606C7.88231 13.4437 9.75185 11.5656 12.058 11.5656C14.3642 11.5656 16.2337 13.4437 16.2337 15.7606Z" fill="white"/>
<path d="M94.9335 20.1616C91.8567 20.1616 88.7521 19.2426 87.0335 17.906L88.5581 14.5086C90.1935 15.706 92.6328 16.5414 94.9613 16.5414C97.6224 16.5414 98.7034 15.6503 98.7034 14.4529C98.7034 10.8048 87.4216 13.3111 87.4216 6.07076C87.4216 2.7569 90.0827 0 95.5988 0C98.0381 0 100.533 0.584797 102.335 1.72655L100.949 5.15179C99.1469 4.12143 97.2897 3.62018 95.5711 3.62018C92.91 3.62018 91.8844 4.62269 91.8844 5.84798C91.8844 9.44031 103.166 6.96188 103.166 14.1187C103.166 17.3769 100.477 20.1616 94.9335 20.1616Z" fill="white"/>
<path d="M75.5773 19.8274V4.01006H69.3681V0.33419H86.277V4.01006H80.0678V19.8274H75.5773Z" fill="white"/>
<path d="M65.8074 19.8274L64.0888 15.6503H55.08L53.3614 19.8274H48.7599L57.4084 0.33419H61.8435L70.5197 19.8274H65.8074ZM56.5214 12.2251H62.6751L59.5983 4.76194L56.5214 12.2251Z" fill="white"/>
<path d="M40.6518 0.33419C45.8353 0.33419 49.0785 3.0354 49.0785 7.40746C49.0785 11.7517 45.8353 14.4529 40.6518 14.4529H36.7433V19.8274H32.2528V0.33419H40.6518ZM40.4023 10.777C43.1465 10.777 44.5325 9.52387 44.5325 7.40746C44.5325 5.2632 43.1465 4.01006 40.4023 4.01006H36.7433V10.777H40.4023Z" fill="white"/>
<path d="M73.3122 31.8819V26.2337H74.8787V31.8819H73.3122ZM74.0991 25.5057C73.8662 25.5057 73.6664 25.4284 73.4997 25.274C73.3355 25.1171 73.2533 24.9296 73.2533 24.7114C73.2533 24.4956 73.3355 24.3106 73.4997 24.1561C73.6664 23.9992 73.8662 23.9208 74.0991 23.9208C74.332 23.9208 74.5306 23.9992 74.6948 24.1561C74.8615 24.3106 74.9449 24.4956 74.9449 24.7114C74.9449 24.9296 74.8615 25.1171 74.6948 25.274C74.5306 25.4284 74.332 25.5057 74.0991 25.5057Z" fill="white"/>
<path d="M69.0751 31.8819V26.2338H70.5938V27.2192H70.6526C70.7556 26.8687 70.9284 26.6039 71.1711 26.425C71.4138 26.2436 71.6933 26.1529 72.0095 26.1529C72.088 26.1529 72.1725 26.1578 72.2632 26.1676C72.354 26.1774 72.4336 26.1908 72.5023 26.208V27.598C72.4287 27.5759 72.327 27.5563 72.1971 27.5392C72.0671 27.522 71.9482 27.5134 71.8404 27.5134C71.6099 27.5134 71.404 27.5637 71.2226 27.6642C71.0436 27.7622 70.9015 27.8995 70.796 28.076C70.6931 28.2525 70.6416 28.456 70.6416 28.6864V31.8819H69.0751Z" fill="white"/>
<path d="M64.679 31.9886C64.3186 31.9886 63.9975 31.9261 63.7156 31.801C63.4337 31.6736 63.2106 31.486 63.0463 31.2384C62.8845 30.9884 62.8036 30.677 62.8036 30.3044C62.8036 29.9906 62.8612 29.7271 62.9765 29.5138C63.0917 29.3005 63.2486 29.1289 63.4471 28.999C63.6457 28.8691 63.8713 28.771 64.1238 28.7048C64.3787 28.6386 64.6459 28.5921 64.9254 28.5651C65.2539 28.5308 65.5186 28.4989 65.7197 28.4695C65.9207 28.4376 66.0665 28.391 66.1572 28.3298C66.248 28.2685 66.2933 28.1778 66.2933 28.0576V28.0356C66.2933 27.8027 66.2198 27.6225 66.0727 27.495C65.928 27.3675 65.7221 27.3038 65.4549 27.3038C65.173 27.3038 64.9487 27.3663 64.782 27.4913C64.6153 27.6139 64.505 27.7684 64.451 27.9547L63.0022 27.837C63.0757 27.4938 63.2204 27.1972 63.4361 26.9471C63.6518 26.6946 63.9301 26.501 64.2708 26.3661C64.6141 26.2288 65.0112 26.1602 65.4623 26.1602C65.776 26.1602 66.0764 26.197 66.3632 26.2705C66.6525 26.3441 66.9086 26.4581 67.1317 26.6125C67.3572 26.7669 67.535 26.9655 67.6649 27.2082C67.7948 27.4484 67.8598 27.7365 67.8598 28.0723V31.8819H66.3742V31.0987H66.3301C66.2394 31.2752 66.118 31.4309 65.966 31.5657C65.814 31.6981 65.6314 31.8023 65.4181 31.8783C65.2048 31.9518 64.9585 31.9886 64.679 31.9886ZM65.1276 30.9075C65.3581 30.9075 65.5615 30.8621 65.738 30.7714C65.9146 30.6783 66.0531 30.5532 66.1536 30.3963C66.2541 30.2394 66.3043 30.0617 66.3043 29.8631V29.2638C66.2553 29.2956 66.1879 29.325 66.1021 29.352C66.0187 29.3765 65.9244 29.3998 65.8189 29.4219C65.7135 29.4415 65.6081 29.4599 65.5027 29.477C65.3973 29.4918 65.3017 29.5052 65.2159 29.5175C65.032 29.5445 64.8715 29.5874 64.7342 29.6462C64.5969 29.705 64.4902 29.7847 64.4143 29.8852C64.3383 29.9833 64.3003 30.1058 64.3003 30.2529C64.3003 30.4662 64.3775 30.6292 64.5319 30.742C64.6888 30.8523 64.8874 30.9075 65.1276 30.9075Z" fill="white"/>
<path d="M62.4184 26.2338L60.4438 31.8819H58.6787L56.7041 26.2338H58.3588L59.5318 30.275H59.5907L60.76 26.2338H62.4184Z" fill="white"/>
<path d="M51.9366 29.477V26.2338H53.5031V31.8819H51.9991V30.856H51.9402C51.8128 31.1869 51.6007 31.4529 51.3041 31.654C51.0099 31.855 50.6508 31.9555 50.2267 31.9555C49.8491 31.9555 49.517 31.8697 49.2301 31.6981C48.9433 31.5265 48.719 31.2826 48.5572 30.9663C48.3979 30.6501 48.317 30.2713 48.3145 29.8301V26.2338H49.881V29.5506C49.8835 29.884 49.9729 30.1475 50.1494 30.3412C50.326 30.5349 50.5625 30.6317 50.8591 30.6317C51.0479 30.6317 51.2244 30.5888 51.3887 30.503C51.5529 30.4147 51.6853 30.2848 51.7858 30.1132C51.8888 29.9416 51.939 29.7295 51.9366 29.477Z" fill="white"/>
<path d="M47.2941 26.2337V27.4105H43.8927V26.2337H47.2941ZM44.6649 24.8805H46.2314V30.1463C46.2314 30.2909 46.2534 30.4037 46.2976 30.4846C46.3417 30.563 46.403 30.6182 46.4814 30.6501C46.5623 30.6819 46.6555 30.6979 46.7609 30.6979C46.8344 30.6979 46.908 30.6917 46.9815 30.6795C47.0551 30.6648 47.1115 30.6538 47.1507 30.6464L47.397 31.8121C47.3186 31.8366 47.2083 31.8648 47.0661 31.8966C46.9239 31.931 46.7511 31.9518 46.5476 31.9592C46.1701 31.9739 45.8391 31.9236 45.5548 31.8084C45.2729 31.6932 45.0534 31.5142 44.8965 31.2715C44.7397 31.0288 44.6624 30.7224 44.6649 30.3522V24.8805Z" fill="white"/>
<path d="M38.0946 31.9923C37.5234 31.9923 37.0295 31.8709 36.6127 31.6282C36.1984 31.3831 35.8785 31.0423 35.653 30.6059C35.4274 30.1671 35.3147 29.6584 35.3147 29.0799C35.3147 28.4965 35.4274 27.9865 35.653 27.5502C35.8785 27.1114 36.1984 26.7706 36.6127 26.5279C37.0295 26.2828 37.5234 26.1602 38.0946 26.1602C38.6658 26.1602 39.1586 26.2828 39.5729 26.5279C39.9896 26.7706 40.3108 27.1114 40.5363 27.5502C40.7618 27.9865 40.8746 28.4965 40.8746 29.0799C40.8746 29.6584 40.7618 30.1671 40.5363 30.6059C40.3108 31.0423 39.9896 31.3831 39.5729 31.6282C39.1586 31.8709 38.6658 31.9923 38.0946 31.9923ZM38.102 30.7788C38.3619 30.7788 38.5788 30.7052 38.7529 30.5581C38.9269 30.4086 39.0581 30.2051 39.1463 29.9477C39.237 29.6903 39.2824 29.3974 39.2824 29.0689C39.2824 28.7404 39.237 28.4474 39.1463 28.19C39.0581 27.9326 38.9269 27.7291 38.7529 27.5796C38.5788 27.4301 38.3619 27.3553 38.102 27.3553C37.8397 27.3553 37.6191 27.4301 37.4401 27.5796C37.2636 27.7291 37.13 27.9326 37.0393 28.19C36.951 28.4474 36.9069 28.7404 36.9069 29.0689C36.9069 29.3974 36.951 29.6903 37.0393 29.9477C37.13 30.2051 37.2636 30.4086 37.4401 30.5581C37.6191 30.7052 37.8397 30.7788 38.102 30.7788Z" fill="white"/>
<path d="M32.7213 26.2337H34.2878V32.1614C34.2878 32.5978 34.202 32.9508 34.0304 33.2204C33.8588 33.4901 33.6124 33.6874 33.2913 33.8125C32.9726 33.9375 32.5914 34 32.1477 34C32.0937 34 32.0423 33.9988 31.9932 33.9963C31.9417 33.9963 31.8878 33.9951 31.8314 33.9926V32.7681C31.8731 32.7706 31.9099 32.7718 31.9418 32.7718C31.9712 32.7743 32.003 32.7755 32.0374 32.7755C32.2899 32.7755 32.4664 32.7216 32.5669 32.6137C32.6698 32.5083 32.7213 32.3489 32.7213 32.1357V26.2337ZM33.5009 25.5057C33.2704 25.5057 33.0719 25.4284 32.9052 25.274C32.7385 25.1171 32.6551 24.9296 32.6551 24.7114C32.6551 24.4956 32.7385 24.3106 32.9052 24.1561C33.0719 23.9992 33.2704 23.9208 33.5009 23.9208C33.7362 23.9208 33.936 23.9992 34.1003 24.1561C34.267 24.3106 34.3503 24.4956 34.3503 24.7114C34.3503 24.9296 34.267 25.1171 34.1003 25.274C33.936 25.4284 33.7362 25.5057 33.5009 25.5057Z" fill="white"/>
</svg>
